%TF.GenerationSoftware,KiCad,Pcbnew,(6.0.6)*%
%TF.CreationDate,2022-07-08T14:59:32+02:00*%
%TF.ProjectId,XCOMMS_Interface,58434f4d-4d53-45f4-996e-746572666163,rev?*%
%TF.SameCoordinates,Original*%
%TF.FileFunction,Copper,L1,Top*%
%TF.FilePolarity,Positive*%
%FSLAX46Y46*%
G04 Gerber Fmt 4.6, Leading zero omitted, Abs format (unit mm)*
G04 Created by KiCad (PCBNEW (6.0.6)) date 2022-07-08 14:59:32*
%MOMM*%
%LPD*%
G01*
G04 APERTURE LIST*
G04 Aperture macros list*
%AMRoundRect*
0 Rectangle with rounded corners*
0 $1 Rounding radius*
0 $2 $3 $4 $5 $6 $7 $8 $9 X,Y pos of 4 corners*
0 Add a 4 corners polygon primitive as box body*
4,1,4,$2,$3,$4,$5,$6,$7,$8,$9,$2,$3,0*
0 Add four circle primitives for the rounded corners*
1,1,$1+$1,$2,$3*
1,1,$1+$1,$4,$5*
1,1,$1+$1,$6,$7*
1,1,$1+$1,$8,$9*
0 Add four rect primitives between the rounded corners*
20,1,$1+$1,$2,$3,$4,$5,0*
20,1,$1+$1,$4,$5,$6,$7,0*
20,1,$1+$1,$6,$7,$8,$9,0*
20,1,$1+$1,$8,$9,$2,$3,0*%
G04 Aperture macros list end*
%TA.AperFunction,SMDPad,CuDef*%
%ADD10R,2.920000X0.740000*%
%TD*%
%TA.AperFunction,SMDPad,CuDef*%
%ADD11R,0.250000X0.360000*%
%TD*%
%TA.AperFunction,ComponentPad*%
%ADD12C,5.400000*%
%TD*%
%TA.AperFunction,SMDPad,CuDef*%
%ADD13RoundRect,0.200000X-0.200000X-0.275000X0.200000X-0.275000X0.200000X0.275000X-0.200000X0.275000X0*%
%TD*%
%TA.AperFunction,SMDPad,CuDef*%
%ADD14RoundRect,0.200000X0.600000X-0.200000X0.600000X0.200000X-0.600000X0.200000X-0.600000X-0.200000X0*%
%TD*%
%TA.AperFunction,SMDPad,CuDef*%
%ADD15RoundRect,0.250001X1.249999X-0.799999X1.249999X0.799999X-1.249999X0.799999X-1.249999X-0.799999X0*%
%TD*%
%TA.AperFunction,SMDPad,CuDef*%
%ADD16RoundRect,0.200000X0.200000X0.275000X-0.200000X0.275000X-0.200000X-0.275000X0.200000X-0.275000X0*%
%TD*%
%TA.AperFunction,ViaPad*%
%ADD17C,0.450000*%
%TD*%
%TA.AperFunction,Conductor*%
%ADD18C,0.381000*%
%TD*%
%TA.AperFunction,Conductor*%
%ADD19C,0.254000*%
%TD*%
%TA.AperFunction,Conductor*%
%ADD20C,1.016000*%
%TD*%
%TA.AperFunction,Conductor*%
%ADD21C,0.508000*%
%TD*%
%TA.AperFunction,Conductor*%
%ADD22C,0.250000*%
%TD*%
G04 APERTURE END LIST*
D10*
%TO.P,J1,20*%
%TO.N,/SDO*%
X133797200Y-98784989D03*
%TO.P,J1,19*%
%TO.N,/SDI*%
X137227200Y-98784989D03*
%TO.P,J1,18*%
%TO.N,/SCK*%
X133797200Y-100054989D03*
%TO.P,J1,17*%
%TO.N,/Pout_PA*%
X137227200Y-100054989D03*
%TO.P,J1,16*%
%TO.N,unconnected-(J1-Pad16)*%
X133797200Y-101324989D03*
%TO.P,J1,15*%
%TO.N,GND*%
X137227200Y-101324989D03*
%TO.P,J1,14*%
%TO.N,/PLL_CSB*%
X133797200Y-102594989D03*
%TO.P,J1,13*%
%TO.N,GND*%
X137227200Y-102594989D03*
%TO.P,J1,12*%
%TO.N,+3V3*%
X133797200Y-103864989D03*
%TO.P,J1,11*%
%TO.N,GND*%
X137227200Y-103864989D03*
%TO.P,J1,10*%
%TO.N,/PLL_CE*%
X133797200Y-105134989D03*
%TO.P,J1,09*%
%TO.N,GND*%
X137227200Y-105134989D03*
%TO.P,J1,08*%
%TO.N,/T_CSB*%
X133797200Y-106404989D03*
%TO.P,J1,07*%
%TO.N,GND*%
X137227200Y-106404989D03*
%TO.P,J1,06*%
X133797200Y-107674989D03*
%TO.P,J1,05*%
%TO.N,/Vg_PA*%
X137227200Y-107674989D03*
%TO.P,J1,04*%
%TO.N,+5V*%
X133797200Y-108944989D03*
%TO.P,J1,03*%
%TO.N,/Vg_PA*%
X137227200Y-108944989D03*
%TO.P,J1,02*%
%TO.N,/Vd_PA*%
X133797200Y-110214989D03*
%TO.P,J1,01*%
%TO.N,/Vg_PA*%
X137227200Y-110214989D03*
%TD*%
D11*
%TO.P,D2,1,A1*%
%TO.N,GND*%
X154990800Y-110148000D03*
%TO.P,D2,2,A2*%
%TO.N,/SCK{slash}SWCLK*%
X154990800Y-109308000D03*
%TD*%
%TO.P,D5,1,A1*%
%TO.N,GND*%
X156464000Y-87542000D03*
%TO.P,D5,2,A2*%
%TO.N,/I2C1_SDA*%
X156464000Y-86702000D03*
%TD*%
D12*
%TO.P,SCRW4,1,1*%
%TO.N,GND*%
X165000000Y-75000000D03*
%TD*%
D13*
%TO.P,R28,1*%
%TO.N,/I2C1_SCL*%
X157925000Y-88274000D03*
%TO.P,R28,2*%
%TO.N,Net-(J3-Pad2)*%
X159575000Y-88274000D03*
%TD*%
D11*
%TO.P,D4,1,A1*%
%TO.N,GND*%
X156500000Y-89170000D03*
%TO.P,D4,2,A2*%
%TO.N,/I2C1_SCL*%
X156500000Y-88330000D03*
%TD*%
D14*
%TO.P,J4,1,Pin_1*%
%TO.N,+12V*%
X162339600Y-123125000D03*
%TO.P,J4,2,Pin_2*%
%TO.N,GND*%
X162339600Y-121875000D03*
D15*
%TO.P,J4,MP,MountPin*%
X165239600Y-125675000D03*
X165239600Y-119325000D03*
%TD*%
D13*
%TO.P,R23,1*%
%TO.N,+3V3*%
X150940000Y-84455000D03*
%TO.P,R23,2*%
%TO.N,/I2C1_SCL*%
X152590000Y-84455000D03*
%TD*%
%TO.P,R27,1*%
%TO.N,/NRST*%
X157091000Y-107442000D03*
%TO.P,R27,2*%
%TO.N,Net-(J2-Pad5)*%
X158741000Y-107442000D03*
%TD*%
%TO.P,R25,1*%
%TO.N,/TMS{slash}SWDIO*%
X157091000Y-111252000D03*
%TO.P,R25,2*%
%TO.N,Net-(J2-Pad3)*%
X158741000Y-111252000D03*
%TD*%
D11*
%TO.P,D1,1,A1*%
%TO.N,GND*%
X155874600Y-112103800D03*
%TO.P,D1,2,A2*%
%TO.N,/TMS{slash}SWDIO*%
X155874600Y-111263800D03*
%TD*%
D12*
%TO.P,SCRW2,1,1*%
%TO.N,GND*%
X165000000Y-134000000D03*
%TD*%
D16*
%TO.P,R24,1*%
%TO.N,+3V3*%
X156654000Y-84453000D03*
%TO.P,R24,2*%
%TO.N,/I2C1_SDA*%
X155004000Y-84453000D03*
%TD*%
D11*
%TO.P,D3,1,A1*%
%TO.N,GND*%
X155874600Y-106590200D03*
%TO.P,D3,2,A2*%
%TO.N,/NRST*%
X155874600Y-107430200D03*
%TD*%
D14*
%TO.P,J3,1,Pin_1*%
%TO.N,+12V*%
X162192000Y-89250000D03*
%TO.P,J3,2,Pin_2*%
%TO.N,Net-(J3-Pad2)*%
X162192000Y-88000000D03*
%TO.P,J3,3,Pin_3*%
%TO.N,Net-(J3-Pad3)*%
X162192000Y-86750000D03*
%TO.P,J3,4,Pin_4*%
%TO.N,GND*%
X162192000Y-85500000D03*
%TO.P,J3,5,Pin_5*%
X162192000Y-84250000D03*
D15*
%TO.P,J3,MP,MountPin*%
X165092000Y-81700000D03*
X165092000Y-91800000D03*
%TD*%
D13*
%TO.P,R29,1*%
%TO.N,/I2C1_SDA*%
X157925000Y-86750000D03*
%TO.P,R29,2*%
%TO.N,Net-(J3-Pad3)*%
X159575000Y-86750000D03*
%TD*%
D14*
%TO.P,J2,1,Pin_1*%
%TO.N,+3V3*%
X162350000Y-113566800D03*
%TO.P,J2,2,Pin_2*%
%TO.N,GND*%
X162350000Y-112316800D03*
%TO.P,J2,3,Pin_3*%
%TO.N,Net-(J2-Pad3)*%
X162350000Y-111066800D03*
%TO.P,J2,4,Pin_4*%
%TO.N,Net-(J2-Pad4)*%
X162350000Y-109816800D03*
%TO.P,J2,5,Pin_5*%
%TO.N,Net-(J2-Pad5)*%
X162350000Y-108566800D03*
D15*
%TO.P,J2,MP,MountPin*%
%TO.N,GND*%
X165250000Y-106016800D03*
X165250000Y-116116800D03*
%TD*%
D12*
%TO.P,SCRW1,1,1*%
%TO.N,GND*%
X131000000Y-134000000D03*
%TD*%
D13*
%TO.P,R26,1*%
%TO.N,/SCK{slash}SWCLK*%
X157091000Y-109349800D03*
%TO.P,R26,2*%
%TO.N,Net-(J2-Pad4)*%
X158741000Y-109349800D03*
%TD*%
D12*
%TO.P,SCRW3,1,1*%
%TO.N,GND*%
X131000000Y-75000000D03*
%TD*%
D17*
%TO.N,GND*%
X129000002Y-104500133D03*
X135388898Y-118700135D03*
X164338000Y-123317000D03*
X137922000Y-83947000D03*
X129000002Y-87000135D03*
X167000002Y-104500133D03*
X167000002Y-119500135D03*
X158115000Y-123190000D03*
X129000002Y-117000135D03*
X167000002Y-87000135D03*
X167000002Y-97000135D03*
X148000002Y-136000135D03*
X138000002Y-73000135D03*
X142494222Y-82600000D03*
X158000002Y-73000135D03*
X167000002Y-102000133D03*
X136271000Y-126619000D03*
X140500002Y-73000135D03*
X157226000Y-92837000D03*
X167000002Y-127000135D03*
X141351000Y-110617000D03*
X129000002Y-84500135D03*
X138000002Y-136000135D03*
X155500002Y-136000135D03*
X158000002Y-136000135D03*
X151400000Y-75600000D03*
X140500002Y-136000135D03*
X157988000Y-119634000D03*
X155500002Y-73000135D03*
X164465000Y-126492000D03*
X143000002Y-73000135D03*
X167000002Y-109500133D03*
X167000002Y-114500133D03*
X167000002Y-122000135D03*
X136398000Y-103886000D03*
X129000002Y-114500133D03*
X135500000Y-73000135D03*
X167000002Y-89500135D03*
X129000002Y-122000135D03*
X129000002Y-102000133D03*
X167000002Y-92000135D03*
X167005000Y-82042000D03*
X129000002Y-109500133D03*
X147447000Y-124968000D03*
X142875000Y-120650000D03*
X157861000Y-83820000D03*
X167000002Y-124500135D03*
X129000002Y-107000133D03*
X154432000Y-122301000D03*
X129000002Y-94500135D03*
X129000002Y-127000135D03*
X160500002Y-136000135D03*
X147447000Y-126619000D03*
X135388898Y-119638535D03*
X167000002Y-129500135D03*
X146431000Y-119634000D03*
X149700000Y-75600000D03*
X157988000Y-118745000D03*
X150194079Y-79028030D03*
X167000002Y-112000133D03*
X151200000Y-87757000D03*
X148000002Y-73000135D03*
X142748000Y-103192905D03*
X157607000Y-104267000D03*
X129000002Y-97000135D03*
X129000002Y-99500133D03*
X153000002Y-136000135D03*
X145500002Y-136000135D03*
X136271000Y-123317000D03*
X155702000Y-78486000D03*
X163830000Y-109982000D03*
X132080000Y-120650000D03*
X129000002Y-129500135D03*
X167005000Y-84582000D03*
X164465000Y-124968000D03*
X157180244Y-88877500D03*
X147447000Y-123317000D03*
X143000002Y-136000135D03*
X167000002Y-99500133D03*
X129000002Y-89500135D03*
X142240000Y-98700000D03*
X129000002Y-124500135D03*
X136271000Y-124968000D03*
X145500002Y-73000135D03*
X163000002Y-136000135D03*
X153000002Y-73000135D03*
X129000002Y-119384535D03*
X163830000Y-108204000D03*
X146431000Y-118734002D03*
X150500002Y-136000135D03*
X154432000Y-120650000D03*
X135500000Y-136000135D03*
X138176000Y-97790000D03*
X146431000Y-110617000D03*
X129000002Y-92000135D03*
X160500002Y-73000135D03*
X129000002Y-79500135D03*
X129000002Y-82000135D03*
X129000002Y-112000133D03*
X167000002Y-94500135D03*
X137922000Y-90297000D03*
X150500002Y-73000135D03*
X167000002Y-79500135D03*
X150368000Y-93218000D03*
%TO.N,+12V*%
X138684000Y-128270000D03*
X138684000Y-130048000D03*
X160782000Y-93563500D03*
X160782000Y-94297500D03*
X162306000Y-128270000D03*
X149860000Y-128270000D03*
X160782000Y-92763500D03*
X162306000Y-130048000D03*
X149860000Y-130048000D03*
%TO.N,+3V3*%
X156718000Y-112903000D03*
X157861000Y-84709000D03*
X152273000Y-77724000D03*
X150600000Y-86106000D03*
X150876000Y-83185000D03*
X137967756Y-82318500D03*
X137922000Y-91948000D03*
X155956000Y-112897223D03*
X157226000Y-85471000D03*
X157099000Y-78486000D03*
X155194000Y-112903000D03*
X132000000Y-103900000D03*
X155702000Y-92837000D03*
X149479000Y-93218000D03*
X153797000Y-113538000D03*
%TO.N,+5V*%
X131953000Y-108966000D03*
X134493000Y-108966000D03*
X157607000Y-105791000D03*
%TO.N,/Vg_PA*%
X142748000Y-108966000D03*
%TO.N,/SDI*%
X137287000Y-96139000D03*
%TO.N,/SDO*%
X139700000Y-95103300D03*
%TO.N,/SCK*%
X139700000Y-94361000D03*
%TO.N,/PLL_CSB*%
X146939000Y-78486000D03*
%TO.N,/T_CSB*%
X145200000Y-78486000D03*
%TO.N,/Pout_PA*%
X139700000Y-96400000D03*
%TO.N,/Vd_PA*%
X148821104Y-102963600D03*
X134493000Y-110236000D03*
X146000000Y-103000000D03*
X131953000Y-110236000D03*
%TO.N,/Id_PA*%
X153035000Y-101092000D03*
X152781000Y-91440000D03*
%TO.N,/NRST*%
X150495000Y-85344000D03*
X155651200Y-88900000D03*
X153924000Y-85217000D03*
%TO.N,/SCK{slash}SWCLK*%
X140126756Y-80772000D03*
%TO.N,/TMS{slash}SWDIO*%
X140126756Y-83258300D03*
%TO.N,/I2C1_SDA*%
X148590000Y-78486000D03*
X143434961Y-86000000D03*
%TO.N,/I2C1_SCL*%
X143428756Y-85200000D03*
X147828000Y-78486000D03*
%TO.N,/PLL_CE*%
X146000000Y-78486000D03*
%TO.N,/EN_6V*%
X145400000Y-122000000D03*
X146217449Y-93218000D03*
%TO.N,/EN_5V*%
X145415000Y-93218000D03*
X134500000Y-122000000D03*
%TD*%
D18*
%TO.N,GND*%
X155874600Y-106590200D02*
X155263600Y-106590200D01*
X155874600Y-106590200D02*
X156546800Y-106590200D01*
D19*
X156500000Y-90007000D02*
X156464000Y-90043000D01*
X156500000Y-89170000D02*
X156500000Y-90007000D01*
X156464000Y-87542000D02*
X155360000Y-87542000D01*
D18*
X154178000Y-110236000D02*
X155702000Y-110236000D01*
D19*
X156500000Y-89170000D02*
X157464000Y-89170000D01*
D18*
X155874600Y-112103800D02*
X156333200Y-112103800D01*
X155874600Y-112103800D02*
X155321000Y-112103800D01*
D19*
X155360000Y-87542000D02*
X155321000Y-87503000D01*
X157464000Y-89170000D02*
X157480000Y-89154000D01*
D20*
%TO.N,+12V*%
X160782000Y-94297500D02*
X160782000Y-89916000D01*
X161384500Y-89313500D02*
X161938000Y-89313500D01*
X160782000Y-89916000D02*
X161384500Y-89313500D01*
X162339600Y-123125000D02*
X162339600Y-130335600D01*
D19*
%TO.N,+3V3*%
X150876000Y-84391000D02*
X150940000Y-84455000D01*
D21*
X132000000Y-103900000D02*
X133762200Y-103900000D01*
X133762200Y-103900000D02*
X133797200Y-103865000D01*
D19*
X156718000Y-84545500D02*
X156789000Y-84616500D01*
X150876000Y-83185000D02*
X150876000Y-84391000D01*
X162321200Y-113538000D02*
X162350000Y-113566800D01*
X157861000Y-84709000D02*
X157353000Y-84709000D01*
X157097000Y-84453000D02*
X156654000Y-84453000D01*
X157353000Y-84709000D02*
X157097000Y-84453000D01*
X153797000Y-113538000D02*
X162321200Y-113538000D01*
D21*
%TO.N,+5V*%
X133776200Y-108966000D02*
X133797200Y-108945000D01*
X131953000Y-108966000D02*
X133776200Y-108966000D01*
%TO.N,/Vg_PA*%
X142748000Y-108966000D02*
X142727000Y-108945000D01*
X142727000Y-108945000D02*
X137227200Y-108945000D01*
D18*
X137227200Y-110215000D02*
X137227200Y-107675000D01*
D21*
X137248200Y-107696000D02*
X137227200Y-107675000D01*
%TO.N,/SDI*%
X137160000Y-98717800D02*
X137227200Y-98785000D01*
D19*
X137287000Y-98725200D02*
X137227200Y-98785000D01*
X137287000Y-96139000D02*
X137287000Y-98725200D01*
%TO.N,/SDO*%
X134747000Y-95123000D02*
X133797200Y-96072800D01*
X139680300Y-95123000D02*
X134747000Y-95123000D01*
X139700000Y-95103300D02*
X139680300Y-95123000D01*
D21*
X133776200Y-98806000D02*
X133797200Y-98785000D01*
D19*
X133797200Y-96072800D02*
X133797200Y-98785000D01*
D22*
%TO.N,/SCK*%
X131826000Y-96774000D02*
X131826000Y-99822000D01*
X139700000Y-94361000D02*
X134239000Y-94361000D01*
D21*
X133776200Y-100076000D02*
X133797200Y-100055000D01*
D22*
X131826000Y-99822000D02*
X132059000Y-100055000D01*
X132059000Y-100055000D02*
X133797200Y-100055000D01*
X134239000Y-94361000D02*
X131826000Y-96774000D01*
%TO.N,/PLL_CSB*%
X132588000Y-84201000D02*
X132588000Y-94869000D01*
X145669000Y-79756000D02*
X137033000Y-79756000D01*
X132588000Y-94869000D02*
X131374480Y-96082520D01*
X131374480Y-96082520D02*
X131374480Y-102152440D01*
X131374480Y-102152440D02*
X131817040Y-102595000D01*
X131817040Y-102595000D02*
X133797200Y-102595000D01*
X137033000Y-79756000D02*
X132588000Y-84201000D01*
X146939000Y-78486000D02*
X145669000Y-79756000D01*
D19*
%TO.N,/T_CSB*%
X131655000Y-106405000D02*
X133797200Y-106405000D01*
D21*
X133776200Y-106426000D02*
X133797200Y-106405000D01*
D19*
X130429000Y-105179000D02*
X131655000Y-106405000D01*
X135636000Y-77978000D02*
X130429000Y-83185000D01*
X145200000Y-78486000D02*
X144692000Y-77978000D01*
X130429000Y-83185000D02*
X130429000Y-105179000D01*
X144692000Y-77978000D02*
X135636000Y-77978000D01*
D22*
%TO.N,/Pout_PA*%
X139700000Y-96400000D02*
X139700000Y-99568000D01*
X139700000Y-99568000D02*
X139213000Y-100055000D01*
X139213000Y-100055000D02*
X137227200Y-100055000D01*
D21*
%TO.N,/Vd_PA*%
X131953000Y-110236000D02*
X134493000Y-110236000D01*
D18*
%TO.N,/Id_PA*%
X152781000Y-91440000D02*
X153035000Y-91694000D01*
X153035000Y-91694000D02*
X153035000Y-101092000D01*
D19*
%TO.N,/NRST*%
X155579200Y-107430200D02*
X157079200Y-107430200D01*
X155874600Y-107430200D02*
X154822000Y-107430200D01*
X154051000Y-106680000D02*
X154051000Y-91440000D01*
X154051000Y-91440000D02*
X155651200Y-89839800D01*
X154813000Y-107442000D02*
X154051000Y-106680000D01*
X157079200Y-107430200D02*
X157091000Y-107442000D01*
X155651200Y-89839800D02*
X155651200Y-88900000D01*
%TO.N,/SCK{slash}SWCLK*%
X153799800Y-109349800D02*
X157091000Y-109349800D01*
X141478000Y-80772000D02*
X152146000Y-91440000D01*
X152146000Y-91440000D02*
X152146000Y-107696000D01*
X140126756Y-80772000D02*
X141478000Y-80772000D01*
X153670000Y-109220000D02*
X153799800Y-109349800D01*
X152146000Y-107696000D02*
X153797000Y-109347000D01*
%TO.N,/TMS{slash}SWDIO*%
X157079200Y-111263800D02*
X157091000Y-111252000D01*
X151257000Y-109093000D02*
X153427800Y-111263800D01*
X140126756Y-83258300D02*
X142948300Y-83258300D01*
X151257000Y-91567000D02*
X151257000Y-109093000D01*
X153427800Y-111263800D02*
X155874600Y-111263800D01*
X142948300Y-83258300D02*
X151257000Y-91567000D01*
X155579200Y-111263800D02*
X157079200Y-111263800D01*
D22*
%TO.N,/I2C1_SDA*%
X152568000Y-78400000D02*
X154377000Y-80209000D01*
D19*
X157913200Y-86738200D02*
X157925000Y-86750000D01*
X156464000Y-86738200D02*
X155004000Y-85278200D01*
X156464000Y-86738200D02*
X157913200Y-86738200D01*
X155004000Y-80836000D02*
X154377000Y-80209000D01*
D22*
X148590000Y-78486000D02*
X148676000Y-78400000D01*
D19*
X155004000Y-85278200D02*
X155004000Y-84453000D01*
D22*
X148676000Y-78400000D02*
X152568000Y-78400000D01*
D19*
X155004000Y-84453000D02*
X155004000Y-80836000D01*
%TO.N,/I2C1_SCL*%
X151892000Y-79883000D02*
X152590000Y-80581000D01*
X157925000Y-88274000D02*
X157913200Y-88285800D01*
X147828000Y-78867000D02*
X148844000Y-79883000D01*
X152590000Y-86804000D02*
X152590000Y-84455000D01*
X154060000Y-88274000D02*
X152590000Y-86804000D01*
X157925000Y-88274000D02*
X154060000Y-88274000D01*
X148844000Y-79883000D02*
X151892000Y-79883000D01*
X152590000Y-80581000D02*
X152590000Y-84455000D01*
X147828000Y-78486000D02*
X147828000Y-78867000D01*
D22*
%TO.N,/PLL_CE*%
X130880520Y-104521000D02*
X131494520Y-105135000D01*
X145365000Y-79121000D02*
X136144000Y-79121000D01*
X131445000Y-83820000D02*
X131445000Y-94742000D01*
X130880520Y-95306480D02*
X130880520Y-104521000D01*
X131445000Y-94742000D02*
X130880520Y-95306480D01*
X131494520Y-105135000D02*
X133797200Y-105135000D01*
X146000000Y-78486000D02*
X145365000Y-79121000D01*
X136144000Y-79121000D02*
X131445000Y-83820000D01*
D18*
%TO.N,Net-(J2-Pad3)*%
X160644000Y-111066800D02*
X162350000Y-111066800D01*
X158741000Y-111252000D02*
X160458800Y-111252000D01*
X160458800Y-111252000D02*
X160644000Y-111066800D01*
%TO.N,Net-(J2-Pad4)*%
X160530800Y-109857800D02*
X162309000Y-109857800D01*
X160020000Y-109347000D02*
X158743800Y-109347000D01*
X162309000Y-109857800D02*
X162350000Y-109816800D01*
X158743800Y-109347000D02*
X158741000Y-109349800D01*
X160020000Y-109347000D02*
X160530800Y-109857800D01*
%TO.N,Net-(J2-Pad5)*%
X160784800Y-108587800D02*
X159639000Y-107442000D01*
X162350000Y-108566800D02*
X162329000Y-108587800D01*
X159639000Y-107442000D02*
X158741000Y-107442000D01*
X162329000Y-108587800D02*
X160784800Y-108587800D01*
%TO.N,Net-(J3-Pad2)*%
X160337000Y-88274000D02*
X160486000Y-88125000D01*
X160486000Y-88125000D02*
X161850000Y-88125000D01*
X159575000Y-88274000D02*
X160337000Y-88274000D01*
%TO.N,Net-(J3-Pad3)*%
X160464000Y-86877000D02*
X161848000Y-86877000D01*
X160337000Y-86750000D02*
X160464000Y-86877000D01*
X159575000Y-86750000D02*
X160337000Y-86750000D01*
X161848000Y-86877000D02*
X161850000Y-86875000D01*
D22*
%TO.N,/EN_6V*%
X146217449Y-96733551D02*
X144907000Y-98044000D01*
X146217449Y-93218000D02*
X146217449Y-96733551D01*
X144907000Y-98044000D02*
X144907000Y-121507000D01*
X144907000Y-121507000D02*
X145400000Y-122000000D01*
%TO.N,/EN_5V*%
X145415000Y-93218000D02*
X145415000Y-96520000D01*
X142795000Y-122000000D02*
X134500000Y-122000000D01*
X143891000Y-120904000D02*
X142795000Y-122000000D01*
X145415000Y-96520000D02*
X143891000Y-98044000D01*
X143891000Y-98044000D02*
X143891000Y-120904000D01*
%TD*%
%TA.AperFunction,Conductor*%
%TO.N,GND*%
G36*
X164982028Y-72331414D02*
G01*
X165000000Y-72334583D01*
X165010855Y-72332669D01*
X165017499Y-72332669D01*
X165036431Y-72331546D01*
X165291940Y-72345895D01*
X165305972Y-72347476D01*
X165446622Y-72371374D01*
X165587266Y-72395270D01*
X165601041Y-72398414D01*
X165685447Y-72422731D01*
X165875220Y-72477404D01*
X165888541Y-72482065D01*
X166130172Y-72582152D01*
X166152154Y-72591257D01*
X166164878Y-72597385D01*
X166414597Y-72735399D01*
X166426556Y-72742913D01*
X166659261Y-72908026D01*
X166670308Y-72916836D01*
X166883053Y-73106956D01*
X166893044Y-73116947D01*
X167083164Y-73329692D01*
X167091974Y-73340739D01*
X167257087Y-73573444D01*
X167264601Y-73585403D01*
X167402615Y-73835122D01*
X167408743Y-73847846D01*
X167517935Y-74111459D01*
X167522596Y-74124780D01*
X167575038Y-74306808D01*
X167601586Y-74398959D01*
X167604730Y-74412734D01*
X167652523Y-74694023D01*
X167654105Y-74708064D01*
X167668454Y-74963566D01*
X167667331Y-74982501D01*
X167667331Y-74989145D01*
X167665417Y-75000000D01*
X167667331Y-75010855D01*
X167668586Y-75017972D01*
X167670500Y-75039852D01*
X167670500Y-133960148D01*
X167668586Y-133982028D01*
X167665417Y-134000000D01*
X167667331Y-134010855D01*
X167667331Y-134017499D01*
X167668454Y-134036434D01*
X167654105Y-134291936D01*
X167652523Y-134305977D01*
X167604730Y-134587266D01*
X167601586Y-134601041D01*
X167522596Y-134875220D01*
X167517935Y-134888541D01*
X167459223Y-135030284D01*
X167408743Y-135152154D01*
X167402615Y-135164878D01*
X167296938Y-135356088D01*
X167264604Y-135414592D01*
X167257087Y-135426556D01*
X167091974Y-135659261D01*
X167083164Y-135670308D01*
X166893044Y-135883053D01*
X166883053Y-135893044D01*
X166670308Y-136083164D01*
X166659261Y-136091974D01*
X166426556Y-136257087D01*
X166414597Y-136264601D01*
X166164878Y-136402615D01*
X166152153Y-136408743D01*
X165888541Y-136517935D01*
X165875220Y-136522596D01*
X165685447Y-136577269D01*
X165601041Y-136601586D01*
X165587266Y-136604730D01*
X165446621Y-136628627D01*
X165305972Y-136652524D01*
X165291940Y-136654105D01*
X165036431Y-136668454D01*
X165017499Y-136667331D01*
X165010855Y-136667331D01*
X165000000Y-136665417D01*
X164982777Y-136668454D01*
X164982028Y-136668586D01*
X164960148Y-136670500D01*
X131039852Y-136670500D01*
X131017972Y-136668586D01*
X131017224Y-136668454D01*
X131000000Y-136665417D01*
X130989145Y-136667331D01*
X130982501Y-136667331D01*
X130963569Y-136668454D01*
X130708060Y-136654105D01*
X130694028Y-136652524D01*
X130553379Y-136628627D01*
X130412734Y-136604730D01*
X130398959Y-136601586D01*
X130314553Y-136577269D01*
X130124780Y-136522596D01*
X130111459Y-136517935D01*
X129847847Y-136408743D01*
X129835122Y-136402615D01*
X129585403Y-136264601D01*
X129573444Y-136257087D01*
X129340739Y-136091974D01*
X129329692Y-136083164D01*
X129116947Y-135893044D01*
X129106956Y-135883053D01*
X128916836Y-135670308D01*
X128908026Y-135659261D01*
X128742913Y-135426556D01*
X128735396Y-135414592D01*
X128703062Y-135356088D01*
X128597385Y-135164878D01*
X128591257Y-135152154D01*
X128540777Y-135030284D01*
X128482065Y-134888541D01*
X128477404Y-134875220D01*
X128398414Y-134601041D01*
X128395270Y-134587266D01*
X128347477Y-134305977D01*
X128345895Y-134291936D01*
X128331546Y-134036434D01*
X128332669Y-134017499D01*
X128332669Y-134010855D01*
X128334583Y-134000000D01*
X128331414Y-133982028D01*
X128329500Y-133960148D01*
X128329500Y-130042082D01*
X138199605Y-130042082D01*
X138200769Y-130050984D01*
X138200769Y-130050987D01*
X138202554Y-130064633D01*
X138217414Y-130178273D01*
X138272732Y-130303992D01*
X138361111Y-130409132D01*
X138475447Y-130485240D01*
X138606549Y-130526199D01*
X138743876Y-130528716D01*
X138753109Y-130526199D01*
X138867727Y-130494951D01*
X138876391Y-130492589D01*
X138993439Y-130420721D01*
X139030185Y-130380125D01*
X139079584Y-130325550D01*
X139079585Y-130325549D01*
X139085612Y-130318890D01*
X139145499Y-130195283D01*
X139168286Y-130059836D01*
X139168431Y-130048000D01*
X139167584Y-130042082D01*
X149375605Y-130042082D01*
X149376769Y-130050984D01*
X149376769Y-130050987D01*
X149378554Y-130064633D01*
X149393414Y-130178273D01*
X149448732Y-130303992D01*
X149537111Y-130409132D01*
X149651447Y-130485240D01*
X149782549Y-130526199D01*
X149919876Y-130528716D01*
X149929109Y-130526199D01*
X150043727Y-130494951D01*
X150052391Y-130492589D01*
X150169439Y-130420721D01*
X150206185Y-130380125D01*
X150255584Y-130325550D01*
X150255585Y-130325549D01*
X150261612Y-130318890D01*
X150321499Y-130195283D01*
X150344286Y-130059836D01*
X150344431Y-130048000D01*
X150343584Y-130042082D01*
X150326232Y-129920923D01*
X150326232Y-129920921D01*
X150324959Y-129912036D01*
X150268110Y-129787003D01*
X150178453Y-129682951D01*
X150063196Y-129608244D01*
X149931603Y-129568890D01*
X149922627Y-129568835D01*
X149922626Y-129568835D01*
X149865080Y-129568484D01*
X149794255Y-129568051D01*
X149662192Y-129605795D01*
X149654605Y-129610582D01*
X149654603Y-129610583D01*
X149592850Y-129649546D01*
X149546031Y-129679087D01*
X149455109Y-129782036D01*
X149396736Y-129906366D01*
X149387027Y-129968724D01*
X149376986Y-130033209D01*
X149376986Y-130033213D01*
X149375605Y-130042082D01*
X139167584Y-130042082D01*
X139150232Y-129920923D01*
X139150232Y-129920921D01*
X139148959Y-129912036D01*
X139092110Y-129787003D01*
X139002453Y-129682951D01*
X138887196Y-129608244D01*
X138755603Y-129568890D01*
X138746627Y-129568835D01*
X138746626Y-129568835D01*
X138689080Y-129568484D01*
X138618255Y-129568051D01*
X138486192Y-129605795D01*
X138478605Y-129610582D01*
X138478603Y-129610583D01*
X138416850Y-129649546D01*
X138370031Y-129679087D01*
X138279109Y-129782036D01*
X138220736Y-129906366D01*
X138211027Y-129968724D01*
X138200986Y-130033209D01*
X138200986Y-130033213D01*
X138199605Y-130042082D01*
X128329500Y-130042082D01*
X128329500Y-128264082D01*
X138199605Y-128264082D01*
X138200769Y-128272984D01*
X138200769Y-128272987D01*
X138202554Y-128286633D01*
X138217414Y-128400273D01*
X138272732Y-128525992D01*
X138361111Y-128631132D01*
X138475447Y-128707240D01*
X138606549Y-128748199D01*
X138743876Y-128750716D01*
X138753109Y-128748199D01*
X138867727Y-128716951D01*
X138876391Y-128714589D01*
X138993439Y-128642721D01*
X139085612Y-128540890D01*
X139145499Y-128417283D01*
X139168286Y-128281836D01*
X139168431Y-128270000D01*
X139167584Y-128264082D01*
X149375605Y-128264082D01*
X149376769Y-128272984D01*
X149376769Y-128272987D01*
X149378554Y-128286633D01*
X149393414Y-128400273D01*
X149448732Y-128525992D01*
X149537111Y-128631132D01*
X149651447Y-128707240D01*
X149782549Y-128748199D01*
X149919876Y-128750716D01*
X149929109Y-128748199D01*
X150043727Y-128716951D01*
X150052391Y-128714589D01*
X150169439Y-128642721D01*
X150261612Y-128540890D01*
X150321499Y-128417283D01*
X150344286Y-128281836D01*
X150344431Y-128270000D01*
X150343584Y-128264082D01*
X150326232Y-128142923D01*
X150326232Y-128142921D01*
X150324959Y-128134036D01*
X150268110Y-128009003D01*
X150178453Y-127904951D01*
X150063196Y-127830244D01*
X149931603Y-127790890D01*
X149922627Y-127790835D01*
X149922626Y-127790835D01*
X149865080Y-127790484D01*
X149794255Y-127790051D01*
X149662192Y-127827795D01*
X149654605Y-127832582D01*
X149654603Y-127832583D01*
X149592850Y-127871546D01*
X149546031Y-127901087D01*
X149455109Y-128004036D01*
X149396736Y-128128366D01*
X149387027Y-128190724D01*
X149376986Y-128255209D01*
X149376986Y-128255213D01*
X149375605Y-128264082D01*
X139167584Y-128264082D01*
X139150232Y-128142923D01*
X139150232Y-128142921D01*
X139148959Y-128134036D01*
X139092110Y-128009003D01*
X139002453Y-127904951D01*
X138887196Y-127830244D01*
X138755603Y-127790890D01*
X138746627Y-127790835D01*
X138746626Y-127790835D01*
X138689080Y-127790484D01*
X138618255Y-127790051D01*
X138486192Y-127827795D01*
X138478605Y-127832582D01*
X138478603Y-127832583D01*
X138416850Y-127871546D01*
X138370031Y-127901087D01*
X138279109Y-128004036D01*
X138220736Y-128128366D01*
X138211027Y-128190724D01*
X138200986Y-128255209D01*
X138200986Y-128255213D01*
X138199605Y-128264082D01*
X128329500Y-128264082D01*
X128329500Y-121994082D01*
X134015605Y-121994082D01*
X134016769Y-122002984D01*
X134016769Y-122002987D01*
X134024363Y-122061057D01*
X134033414Y-122130273D01*
X134088732Y-122255992D01*
X134094510Y-122262865D01*
X134094510Y-122262866D01*
X134132089Y-122307572D01*
X134177111Y-122361132D01*
X134291447Y-122437240D01*
X134358405Y-122458159D01*
X134407531Y-122473507D01*
X134422549Y-122478199D01*
X134559876Y-122480716D01*
X134569109Y-122478199D01*
X134683727Y-122446951D01*
X134692391Y-122444589D01*
X134768065Y-122398125D01*
X134833993Y-122379500D01*
X142741080Y-122379500D01*
X142765028Y-122382049D01*
X142766693Y-122382128D01*
X142776876Y-122384320D01*
X142787217Y-122383096D01*
X142810223Y-122380373D01*
X142816154Y-122380023D01*
X142816146Y-122379928D01*
X142821324Y-122379500D01*
X142826524Y-122379500D01*
X142831653Y-122378646D01*
X142831656Y-122378646D01*
X142845565Y-122376331D01*
X142851443Y-122375494D01*
X142892001Y-122370694D01*
X142892002Y-122370694D01*
X142902341Y-122369470D01*
X142910593Y-122365507D01*
X142919626Y-122364004D01*
X142928795Y-122359057D01*
X142928797Y-122359056D01*
X142964732Y-122339666D01*
X142970025Y-122336969D01*
X143009082Y-122318215D01*
X143009086Y-122318212D01*
X143016232Y-122314781D01*
X143020508Y-122311186D01*
X143022431Y-122309263D01*
X143024363Y-122307491D01*
X143024442Y-122307448D01*
X143024555Y-122307572D01*
X143025095Y-122307096D01*
X143030814Y-122304010D01*
X143067417Y-122264413D01*
X143070846Y-122260848D01*
X144121216Y-121210478D01*
X144139964Y-121195336D01*
X144141189Y-121194221D01*
X144149940Y-121188571D01*
X144156387Y-121180393D01*
X144156389Y-121180391D01*
X144170729Y-121162200D01*
X144174675Y-121157759D01*
X144174602Y-121157697D01*
X144177961Y-121153733D01*
X144181638Y-121150056D01*
X144192892Y-121134308D01*
X144196398Y-121129638D01*
X144228156Y-121089353D01*
X144231188Y-121080719D01*
X144236514Y-121073266D01*
X144251203Y-121024150D01*
X144253036Y-121018508D01*
X144267390Y-120977633D01*
X144267390Y-120977632D01*
X144270018Y-120970149D01*
X144270500Y-120964584D01*
X144270500Y-120961876D01*
X144270614Y-120959242D01*
X144270643Y-120959144D01*
X144270807Y-120959151D01*
X144270851Y-120958447D01*
X144272713Y-120952222D01*
X144270597Y-120898365D01*
X144270500Y-120893418D01*
X144270500Y-98253384D01*
X144290502Y-98185263D01*
X144307405Y-98164289D01*
X144312405Y-98159289D01*
X144374717Y-98125263D01*
X144445532Y-98130328D01*
X144502368Y-98172875D01*
X144527179Y-98239395D01*
X144527500Y-98248384D01*
X144527500Y-121453080D01*
X144524951Y-121477028D01*
X144524872Y-121478693D01*
X144522680Y-121488876D01*
X144523904Y-121499217D01*
X144526627Y-121522223D01*
X144526977Y-121528154D01*
X144527072Y-121528146D01*
X144527500Y-121533324D01*
X144527500Y-121538524D01*
X144528354Y-121543653D01*
X144528354Y-121543656D01*
X144530669Y-121557565D01*
X144531506Y-121563443D01*
X144537530Y-121614341D01*
X144541493Y-121622593D01*
X144542996Y-121631626D01*
X144547943Y-121640795D01*
X144547944Y-121640797D01*
X144567334Y-121676732D01*
X144570031Y-121682025D01*
X144588785Y-121721082D01*
X144588788Y-121721086D01*
X144592219Y-121728232D01*
X144595814Y-121732508D01*
X144597737Y-121734431D01*
X144599509Y-121736363D01*
X144599552Y-121736442D01*
X144599428Y-121736555D01*
X144599904Y-121737095D01*
X144602990Y-121742814D01*
X144610635Y-121749881D01*
X144642586Y-121779416D01*
X144646152Y-121782846D01*
X144894076Y-122030770D01*
X144928102Y-122093082D01*
X144929913Y-122103502D01*
X144933414Y-122130273D01*
X144988732Y-122255992D01*
X144994510Y-122262865D01*
X144994510Y-122262866D01*
X145032089Y-122307572D01*
X145077111Y-122361132D01*
X145191447Y-122437240D01*
X145258405Y-122458159D01*
X145307531Y-122473507D01*
X145322549Y-122478199D01*
X145459876Y-122480716D01*
X145469109Y-122478199D01*
X145583727Y-122446951D01*
X145592391Y-122444589D01*
X145674214Y-122394349D01*
X145701791Y-122377417D01*
X145709439Y-122372721D01*
X145718839Y-122362336D01*
X145795584Y-122277550D01*
X145795585Y-122277549D01*
X145801612Y-122270890D01*
X145805622Y-122262615D01*
X145857585Y-122155362D01*
X145857585Y-122155361D01*
X145861499Y-122147283D01*
X145862843Y-122139294D01*
X161032309Y-122139294D01*
X161037732Y-122198315D01*
X161040343Y-122211351D01*
X161087315Y-122361243D01*
X161093521Y-122374988D01*
X161174424Y-122508574D01*
X161183731Y-122520443D01*
X161287688Y-122624400D01*
X161321714Y-122686712D01*
X161317476Y-122755243D01*
X161288107Y-122838873D01*
X161285100Y-122870685D01*
X161285101Y-123379314D01*
X161288107Y-123411127D01*
X161333391Y-123540076D01*
X161414590Y-123650010D01*
X161422161Y-123655602D01*
X161524524Y-123731209D01*
X161522438Y-123734034D01*
X161560892Y-123771499D01*
X161577100Y-123833320D01*
X161577100Y-130380125D01*
X161592499Y-130512207D01*
X161594995Y-130519084D01*
X161594996Y-130519087D01*
X161627892Y-130609713D01*
X161653166Y-130679341D01*
X161750654Y-130828035D01*
X161879735Y-130950314D01*
X162033484Y-131039619D01*
X162203654Y-131091158D01*
X162381116Y-131102168D01*
X162388332Y-131100928D01*
X162388334Y-131100928D01*
X162549135Y-131073297D01*
X162556351Y-131072057D01*
X162719959Y-131002441D01*
X162863164Y-130897054D01*
X162921800Y-130828035D01*
X162973545Y-130767128D01*
X162973548Y-130767124D01*
X162978284Y-130761549D01*
X163059143Y-130603196D01*
X163101404Y-130430488D01*
X163102100Y-130419270D01*
X163102100Y-126924402D01*
X163122102Y-126856281D01*
X163175758Y-126809788D01*
X163246032Y-126799684D01*
X163310612Y-126829178D01*
X163335244Y-126858099D01*
X163387663Y-126942807D01*
X163396699Y-126954208D01*
X163511430Y-127068739D01*
X163522841Y-127077751D01*
X163660845Y-127162818D01*
X163674023Y-127168962D01*
X163828316Y-127220139D01*
X163841681Y-127223005D01*
X163936039Y-127232672D01*
X163942455Y-127233000D01*
X164967485Y-127233000D01*
X164982724Y-127228525D01*
X164983929Y-127227135D01*
X164985600Y-127219452D01*
X164985600Y-127214885D01*
X165493600Y-127214885D01*
X165498075Y-127230124D01*
X165499465Y-127231329D01*
X165507148Y-127233000D01*
X166536696Y-127233000D01*
X166543211Y-127232663D01*
X166638803Y-127222744D01*
X166652202Y-127219850D01*
X166806383Y-127168412D01*
X166819562Y-127162238D01*
X166957407Y-127076937D01*
X166968808Y-127067901D01*
X167083339Y-126953170D01*
X167092351Y-126941759D01*
X167177418Y-126803755D01*
X167183562Y-126790577D01*
X167234739Y-126636284D01*
X167237605Y-126622919D01*
X167247272Y-126528561D01*
X167247600Y-126522145D01*
X167247600Y-125947115D01*
X167243125Y-125931876D01*
X167241735Y-125930671D01*
X167234052Y-125929000D01*
X165511715Y-125929000D01*
X165496476Y-125933475D01*
X165495271Y-125934865D01*
X165493600Y-125942548D01*
X165493600Y-127214885D01*
X164985600Y-127214885D01*
X164985600Y-125402885D01*
X165493600Y-125402885D01*
X165498075Y-125418124D01*
X165499465Y-125419329D01*
X165507148Y-125421000D01*
X167229485Y-125421000D01*
X167244724Y-125416525D01*
X167245929Y-125415135D01*
X167247600Y-125407452D01*
X167247600Y-124827904D01*
X167247263Y-124821389D01*
X167237344Y-124725797D01*
X167234450Y-124712398D01*
X167183012Y-124558217D01*
X167176838Y-124545038D01*
X167091537Y-124407193D01*
X167082501Y-124395792D01*
X166967770Y-124281261D01*
X166956359Y-124272249D01*
X166818355Y-124187182D01*
X166805177Y-124181038D01*
X166650884Y-124129861D01*
X166637519Y-124126995D01*
X166543161Y-124117328D01*
X166536744Y-124117000D01*
X165511715Y-124117000D01*
X165496476Y-124121475D01*
X165495271Y-124122865D01*
X165493600Y-124130548D01*
X165493600Y-125402885D01*
X164985600Y-125402885D01*
X164985600Y-124135115D01*
X164981125Y-124119876D01*
X164979735Y-124118671D01*
X164972052Y-124117000D01*
X163942504Y-124117000D01*
X163935989Y-124117337D01*
X163840397Y-124127256D01*
X163826998Y-124130150D01*
X163672817Y-124181588D01*
X163659638Y-124187762D01*
X163521793Y-124273063D01*
X163510392Y-124282099D01*
X163395861Y-124396830D01*
X163386849Y-124408241D01*
X163335360Y-124491772D01*
X163282588Y-124539265D01*
X163212516Y-124550689D01*
X163147392Y-124522415D01*
X163107893Y-124463421D01*
X163102100Y-124425656D01*
X163102100Y-123833320D01*
X163122102Y-123765199D01*
X163156461Y-123733625D01*
X163154676Y-123731209D01*
X163257039Y-123655602D01*
X163264610Y-123650010D01*
X163345809Y-123540076D01*
X163391093Y-123411127D01*
X163394100Y-123379315D01*
X163394099Y-122870686D01*
X163391093Y-122838873D01*
X163361724Y-122755243D01*
X163358026Y-122684343D01*
X163391512Y-122624400D01*
X163495469Y-122520443D01*
X163504776Y-122508574D01*
X163585679Y-122374988D01*
X163591885Y-122361243D01*
X163638856Y-122211356D01*
X163641469Y-122198306D01*
X163646513Y-122143414D01*
X163643125Y-122131876D01*
X163641735Y-122130671D01*
X163634052Y-122129000D01*
X161049716Y-122129000D01*
X161034477Y-122133475D01*
X161033272Y-122134865D01*
X161032309Y-122139294D01*
X145862843Y-122139294D01*
X145884286Y-122011836D01*
X145884431Y-122000000D01*
X145883584Y-121994082D01*
X145866232Y-121872923D01*
X145866232Y-121872921D01*
X145864959Y-121864036D01*
X145808110Y-121739003D01*
X145718453Y-121634951D01*
X145674692Y-121606586D01*
X161032687Y-121606586D01*
X161036075Y-121618124D01*
X161037465Y-121619329D01*
X161045148Y-121621000D01*
X162067485Y-121621000D01*
X162082724Y-121616525D01*
X162083929Y-121615135D01*
X162085600Y-121607452D01*
X162085600Y-121602885D01*
X162593600Y-121602885D01*
X162598075Y-121618124D01*
X162599465Y-121619329D01*
X162607148Y-121621000D01*
X163629484Y-121621000D01*
X163644723Y-121616525D01*
X163645928Y-121615135D01*
X163646891Y-121610706D01*
X163641468Y-121551685D01*
X163638857Y-121538649D01*
X163591885Y-121388757D01*
X163585679Y-121375012D01*
X163504776Y-121241426D01*
X163495469Y-121229557D01*
X163385043Y-121119131D01*
X163373174Y-121109824D01*
X163239588Y-121028921D01*
X163225843Y-121022715D01*
X163075956Y-120975744D01*
X163062906Y-120973131D01*
X162999079Y-120967266D01*
X162993291Y-120967000D01*
X162611715Y-120967000D01*
X162596476Y-120971475D01*
X162595271Y-120972865D01*
X162593600Y-120980548D01*
X162593600Y-121602885D01*
X162085600Y-121602885D01*
X162085600Y-120985116D01*
X162081125Y-120969877D01*
X162079735Y-120968672D01*
X162072052Y-120967001D01*
X161685895Y-120967001D01*
X161680146Y-120967264D01*
X161616285Y-120973132D01*
X161603249Y-120975743D01*
X161453357Y-121022715D01*
X161439612Y-121028921D01*
X161306026Y-121109824D01*
X161294157Y-121119131D01*
X161183731Y-121229557D01*
X161174424Y-121241426D01*
X161093521Y-121375012D01*
X161087315Y-121388757D01*
X161040344Y-121538644D01*
X161037731Y-121551694D01*
X161032687Y-121606586D01*
X145674692Y-121606586D01*
X145603196Y-121560244D01*
X145586761Y-121555329D01*
X145482093Y-121524027D01*
X145429099Y-121492405D01*
X145323405Y-121386711D01*
X145289379Y-121324399D01*
X145286500Y-121297616D01*
X145286500Y-120172096D01*
X163231600Y-120172096D01*
X163231937Y-120178611D01*
X163241856Y-120274203D01*
X163244750Y-120287602D01*
X163296188Y-120441783D01*
X163302362Y-120454962D01*
X163387663Y-120592807D01*
X163396699Y-120604208D01*
X163511430Y-120718739D01*
X163522841Y-120727751D01*
X163660845Y-120812818D01*
X163674023Y-120818962D01*
X163828316Y-120870139D01*
X163841681Y-120873005D01*
X163936039Y-120882672D01*
X163942455Y-120883000D01*
X164967485Y-120883000D01*
X164982724Y-120878525D01*
X164983929Y-120877135D01*
X164985600Y-120869452D01*
X164985600Y-120864885D01*
X165493600Y-120864885D01*
X165498075Y-120880124D01*
X165499465Y-120881329D01*
X165507148Y-120883000D01*
X166536696Y-120883000D01*
X166543211Y-120882663D01*
X166638803Y-120872744D01*
X166652202Y-120869850D01*
X166806383Y-120818412D01*
X166819562Y-120812238D01*
X166957407Y-120726937D01*
X166968808Y-120717901D01*
X167083339Y-120603170D01*
X167092351Y-120591759D01*
X167177418Y-120453755D01*
X167183562Y-120440577D01*
X167234739Y-120286284D01*
X167237605Y-120272919D01*
X167247272Y-120178561D01*
X167247600Y-120172145D01*
X167247600Y-119597115D01*
X167243125Y-119581876D01*
X167241735Y-119580671D01*
X167234052Y-119579000D01*
X165511715Y-119579000D01*
X165496476Y-119583475D01*
X165495271Y-119584865D01*
X165493600Y-119592548D01*
X165493600Y-120864885D01*
X164985600Y-120864885D01*
X164985600Y-119597115D01*
X164981125Y-119581876D01*
X164979735Y-119580671D01*
X164972052Y-119579000D01*
X163249715Y-119579000D01*
X163234476Y-119583475D01*
X163233271Y-119584865D01*
X163231600Y-119592548D01*
X163231600Y-120172096D01*
X145286500Y-120172096D01*
X145286500Y-119052885D01*
X163231600Y-119052885D01*
X163236075Y-119068124D01*
X163237465Y-119069329D01*
X163245148Y-119071000D01*
X167229485Y-119071000D01*
X167244724Y-119066525D01*
X167245929Y-119065135D01*
X167247600Y-119057452D01*
X167247600Y-118477904D01*
X167247263Y-118471389D01*
X167237344Y-118375797D01*
X167234450Y-118362398D01*
X167183012Y-118208217D01*
X167176838Y-118195038D01*
X167091537Y-118057193D01*
X167082501Y-118045792D01*
X166967770Y-117931261D01*
X166956359Y-117922249D01*
X166812125Y-117833342D01*
X166812904Y-117832078D01*
X166765806Y-117790615D01*
X166746340Y-117722339D01*
X166766877Y-117654378D01*
X166818883Y-117609229D01*
X166829958Y-117604041D01*
X166967807Y-117518737D01*
X166979208Y-117509701D01*
X167093739Y-117394970D01*
X167102751Y-117383559D01*
X167187818Y-117245555D01*
X167193962Y-117232377D01*
X167245139Y-117078084D01*
X167248005Y-117064719D01*
X167257672Y-116970361D01*
X167258000Y-116963945D01*
X167258000Y-116388915D01*
X167253525Y-116373676D01*
X167252135Y-116372471D01*
X167244452Y-116370800D01*
X163260115Y-116370800D01*
X163244876Y-116375275D01*
X163243671Y-116376665D01*
X163242000Y-116384348D01*
X163242000Y-116963896D01*
X163242337Y-116970411D01*
X163252256Y-117066003D01*
X163255150Y-117079402D01*
X163306588Y-117233583D01*
X163312762Y-117246762D01*
X163398063Y-117384607D01*
X163407099Y-117396008D01*
X163521830Y-117510539D01*
X163533241Y-117519551D01*
X163677475Y-117608458D01*
X163676696Y-117609722D01*
X163723794Y-117651185D01*
X163743260Y-117719461D01*
X163722723Y-117787422D01*
X163670717Y-117832571D01*
X163659642Y-117837759D01*
X163521793Y-117923063D01*
X163510392Y-117932099D01*
X163395861Y-118046830D01*
X163386849Y-118058241D01*
X163301782Y-118196245D01*
X163295638Y-118209423D01*
X163244461Y-118363716D01*
X163241595Y-118377081D01*
X163231928Y-118471439D01*
X163231600Y-118477856D01*
X163231600Y-119052885D01*
X145286500Y-119052885D01*
X145286500Y-115844685D01*
X163242000Y-115844685D01*
X163246475Y-115859924D01*
X163247865Y-115861129D01*
X163255548Y-115862800D01*
X164977885Y-115862800D01*
X164993124Y-115858325D01*
X164994329Y-115856935D01*
X164996000Y-115849252D01*
X164996000Y-115844685D01*
X165504000Y-115844685D01*
X165508475Y-115859924D01*
X165509865Y-115861129D01*
X165517548Y-115862800D01*
X167239885Y-115862800D01*
X167255124Y-115858325D01*
X167256329Y-115856935D01*
X167258000Y-115849252D01*
X167258000Y-115269704D01*
X167257663Y-115263189D01*
X167247744Y-115167597D01*
X167244850Y-115154198D01*
X167193412Y-115000017D01*
X167187238Y-114986838D01*
X167101937Y-114848993D01*
X167092901Y-114837592D01*
X166978170Y-114723061D01*
X166966759Y-114714049D01*
X166828755Y-114628982D01*
X166815577Y-114622838D01*
X166661284Y-114571661D01*
X166647919Y-114568795D01*
X166553561Y-114559128D01*
X166547144Y-114558800D01*
X165522115Y-114558800D01*
X165506876Y-114563275D01*
X165505671Y-114564665D01*
X165504000Y-114572348D01*
X165504000Y-115844685D01*
X164996000Y-115844685D01*
X164996000Y-114576915D01*
X164991525Y-114561676D01*
X164990135Y-114560471D01*
X164982452Y-114558800D01*
X163952904Y-114558800D01*
X163946389Y-114559137D01*
X163850797Y-114569056D01*
X163837398Y-114571950D01*
X163683217Y-114623388D01*
X163670038Y-114629562D01*
X163532193Y-114714863D01*
X163520792Y-114723899D01*
X163406261Y-114838630D01*
X163397249Y-114850041D01*
X163312182Y-114988045D01*
X163306038Y-115001223D01*
X163254861Y-115155516D01*
X163251995Y-115168881D01*
X163242328Y-115263239D01*
X163242000Y-115269656D01*
X163242000Y-115844685D01*
X145286500Y-115844685D01*
X145286500Y-103161015D01*
X145306502Y-103092894D01*
X145360158Y-103046401D01*
X145430432Y-103036297D01*
X145495012Y-103065791D01*
X145532781Y-103125429D01*
X145533414Y-103130273D01*
X145546941Y-103161015D01*
X145572716Y-103219592D01*
X145588732Y-103255992D01*
X145677111Y-103361132D01*
X145791447Y-103437240D01*
X145833314Y-103450320D01*
X145906126Y-103473068D01*
X145922549Y-103478199D01*
X146059876Y-103480716D01*
X146069109Y-103478199D01*
X146126134Y-103462652D01*
X146192391Y-103444589D01*
X146309439Y-103372721D01*
X146355508Y-103321825D01*
X146395584Y-103277550D01*
X146395585Y-103277549D01*
X146401612Y-103270890D01*
X146423136Y-103226466D01*
X146457585Y-103155362D01*
X146457585Y-103155361D01*
X146461499Y-103147283D01*
X146484286Y-103011836D01*
X146484431Y-103000000D01*
X146483584Y-102994082D01*
X146478371Y-102957682D01*
X148336709Y-102957682D01*
X148337873Y-102966584D01*
X148337873Y-102966587D01*
X148343506Y-103009661D01*
X148354518Y-103093873D01*
X148409836Y-103219592D01*
X148415614Y-103226465D01*
X148415614Y-103226466D01*
X148492435Y-103317856D01*
X148498215Y-103324732D01*
X148612551Y-103400840D01*
X148708734Y-103430890D01*
X148729061Y-103437240D01*
X148743653Y-103441799D01*
X148880980Y-103444316D01*
X148890213Y-103441799D01*
X149004831Y-103410551D01*
X149013495Y-103408189D01*
X149130543Y-103336321D01*
X149147257Y-103317856D01*
X149216688Y-103241150D01*
X149216689Y-103241149D01*
X149222716Y-103234490D01*
X149229985Y-103219488D01*
X149278689Y-103118962D01*
X149278689Y-103118961D01*
X149282603Y-103110883D01*
X149305390Y-102975436D01*
X149305535Y-102963600D01*
X149304688Y-102957682D01*
X149287336Y-102836523D01*
X149287336Y-102836521D01*
X149286063Y-102827636D01*
X149229214Y-102702603D01*
X149139557Y-102598551D01*
X149024300Y-102523844D01*
X148892707Y-102484490D01*
X148883731Y-102484435D01*
X148883730Y-102484435D01*
X148826184Y-102484084D01*
X148755359Y-102483651D01*
X148623296Y-102521395D01*
X148615709Y-102526182D01*
X148615707Y-102526183D01*
X148569514Y-102555329D01*
X148507135Y-102594687D01*
X148501192Y-102601416D01*
X148465567Y-102641753D01*
X148416213Y-102697636D01*
X148412399Y-102705759D01*
X148412398Y-102705761D01*
X148384938Y-102764250D01*
X148357840Y-102821966D01*
X148349010Y-102878678D01*
X148338090Y-102948809D01*
X148338090Y-102948813D01*
X148336709Y-102957682D01*
X146478371Y-102957682D01*
X146466232Y-102872923D01*
X146466232Y-102872921D01*
X146464959Y-102864036D01*
X146408110Y-102739003D01*
X146318453Y-102634951D01*
X146203196Y-102560244D01*
X146071603Y-102520890D01*
X146062627Y-102520835D01*
X146062626Y-102520835D01*
X146005080Y-102520484D01*
X145934255Y-102520051D01*
X145802192Y-102557795D01*
X145794605Y-102562582D01*
X145794603Y-102562583D01*
X145733057Y-102601416D01*
X145686031Y-102631087D01*
X145595109Y-102734036D01*
X145591295Y-102742159D01*
X145591294Y-102742161D01*
X145540549Y-102850244D01*
X145536736Y-102858366D01*
X145535356Y-102867231D01*
X145532994Y-102874956D01*
X145493949Y-102934252D01*
X145429045Y-102963026D01*
X145358887Y-102952142D01*
X145305752Y-102905056D01*
X145286500Y-102838117D01*
X145286500Y-98253384D01*
X145306502Y-98185263D01*
X145323405Y-98164289D01*
X146447665Y-97040029D01*
X146466413Y-97024887D01*
X146467638Y-97023772D01*
X146476389Y-97018122D01*
X146482836Y-97009944D01*
X146482838Y-97009942D01*
X146497178Y-96991751D01*
X146501124Y-96987310D01*
X146501051Y-96987248D01*
X146504410Y-96983284D01*
X146508087Y-96979607D01*
X146519341Y-96963859D01*
X146522847Y-96959189D01*
X146554605Y-96918904D01*
X146557637Y-96910270D01*
X146562963Y-96902817D01*
X146577652Y-96853701D01*
X146579485Y-96848059D01*
X146593839Y-96807184D01*
X146593839Y-96807183D01*
X146596467Y-96799700D01*
X146596949Y-96794135D01*
X146596949Y-96791427D01*
X146597063Y-96788793D01*
X146597092Y-96788695D01*
X146597256Y-96788702D01*
X146597300Y-96787998D01*
X146599162Y-96781773D01*
X146597046Y-96727916D01*
X146596949Y-96722969D01*
X146596949Y-93557918D01*
X146617540Y-93490571D01*
X146619061Y-93488890D01*
X146678948Y-93365283D01*
X146701735Y-93229836D01*
X146701880Y-93218000D01*
X146701033Y-93212082D01*
X148994605Y-93212082D01*
X148995769Y-93220984D01*
X148995769Y-93220987D01*
X149002733Y-93274240D01*
X149012414Y-93348273D01*
X149067732Y-93473992D01*
X149073510Y-93480865D01*
X149073510Y-93480866D01*
X149124605Y-93541651D01*
X149156111Y-93579132D01*
X149270447Y-93655240D01*
X149401549Y-93696199D01*
X149538876Y-93698716D01*
X149548109Y-93696199D01*
X149662727Y-93664951D01*
X149671391Y-93662589D01*
X149788439Y-93590721D01*
X149858500Y-93513319D01*
X149874584Y-93495550D01*
X149874585Y-93495549D01*
X149880612Y-93488890D01*
X149940499Y-93365283D01*
X149963286Y-93229836D01*
X149963431Y-93218000D01*
X149962584Y-93212082D01*
X149945232Y-93090923D01*
X149945232Y-93090921D01*
X149943959Y-93082036D01*
X149937490Y-93067807D01*
X149930201Y-93051776D01*
X149887110Y-92957003D01*
X149797453Y-92852951D01*
X149682196Y-92778244D01*
X149550603Y-92738890D01*
X149541627Y-92738835D01*
X149541626Y-92738835D01*
X149484080Y-92738484D01*
X149413255Y-92738051D01*
X149281192Y-92775795D01*
X149273605Y-92780582D01*
X149273603Y-92780583D01*
X149211850Y-92819546D01*
X149165031Y-92849087D01*
X149159088Y-92855816D01*
X149133779Y-92884473D01*
X149074109Y-92952036D01*
X149070295Y-92960159D01*
X149070294Y-92960161D01*
X149063096Y-92975493D01*
X149015736Y-93076366D01*
X149012077Y-93099866D01*
X148995986Y-93203209D01*
X148995986Y-93203213D01*
X148994605Y-93212082D01*
X146701033Y-93212082D01*
X146683681Y-93090923D01*
X146683681Y-93090921D01*
X146682408Y-93082036D01*
X146675939Y-93067807D01*
X146668650Y-93051776D01*
X146625559Y-92957003D01*
X146535902Y-92852951D01*
X146420645Y-92778244D01*
X146289052Y-92738890D01*
X146280076Y-92738835D01*
X146280075Y-92738835D01*
X146222529Y-92738484D01*
X146151704Y-92738051D01*
X146019641Y-92775795D01*
X146012054Y-92780582D01*
X146012052Y-92780583D01*
X145911068Y-92844299D01*
X145911066Y-92844300D01*
X145903480Y-92849087D01*
X145897718Y-92855611D01*
X145833000Y-92884473D01*
X145762819Y-92873744D01*
X145736724Y-92856748D01*
X145733453Y-92852951D01*
X145618196Y-92778244D01*
X145486603Y-92738890D01*
X145477627Y-92738835D01*
X145477626Y-92738835D01*
X145420080Y-92738484D01*
X145349255Y-92738051D01*
X145217192Y-92775795D01*
X145209605Y-92780582D01*
X145209603Y-92780583D01*
X145147850Y-92819546D01*
X145101031Y-92849087D01*
X145095088Y-92855816D01*
X145069779Y-92884473D01*
X145010109Y-92952036D01*
X145006295Y-92960159D01*
X145006294Y-92960161D01*
X144999096Y-92975493D01*
X144951736Y-93076366D01*
X144948077Y-93099866D01*
X144931986Y-93203209D01*
X144931986Y-93203213D01*
X144930605Y-93212082D01*
X144931769Y-93220984D01*
X144931769Y-93220987D01*
X144938733Y-93274240D01*
X144948414Y-93348273D01*
X145003732Y-93473992D01*
X145009510Y-93480866D01*
X145014252Y-93488484D01*
X145011816Y-93490000D01*
X145034473Y-93541651D01*
X145035500Y-93557707D01*
X145035500Y-96310616D01*
X145015498Y-96378737D01*
X144998595Y-96399711D01*
X143660784Y-97737522D01*
X143642036Y-97752664D01*
X143640811Y-97753779D01*
X143632060Y-97759429D01*
X143625613Y-97767607D01*
X143625611Y-97767609D01*
X143611271Y-97785800D01*
X143607325Y-97790241D01*
X143607398Y-97790303D01*
X143604039Y-97794267D01*
X143600362Y-97797944D01*
X143589108Y-97813692D01*
X143585602Y-97818362D01*
X143553844Y-97858647D01*
X143550812Y-97867281D01*
X143545486Y-97874734D01*
X143542501Y-97884715D01*
X143530799Y-97923844D01*
X143528964Y-97929492D01*
X143511982Y-97977851D01*
X143511500Y-97983416D01*
X143511500Y-97986124D01*
X143511386Y-97988758D01*
X143511357Y-97988856D01*
X143511193Y-97988849D01*
X143511149Y-97989553D01*
X143509287Y-97995778D01*
X143510808Y-98034489D01*
X143511403Y-98049635D01*
X143511500Y-98054582D01*
X143511500Y-108994046D01*
X143510777Y-108996508D01*
X143511500Y-109003525D01*
X143511500Y-120694616D01*
X143491498Y-120762737D01*
X143474595Y-120783711D01*
X142674711Y-121583595D01*
X142612399Y-121617621D01*
X142585616Y-121620500D01*
X134833422Y-121620500D01*
X134764889Y-121600232D01*
X134748050Y-121589317D01*
X134703196Y-121560244D01*
X134571603Y-121520890D01*
X134562627Y-121520835D01*
X134562626Y-121520835D01*
X134505080Y-121520484D01*
X134434255Y-121520051D01*
X134302192Y-121557795D01*
X134294605Y-121562582D01*
X134294603Y-121562583D01*
X134261301Y-121583595D01*
X134186031Y-121631087D01*
X134095109Y-121734036D01*
X134091295Y-121742159D01*
X134091294Y-121742161D01*
X134073803Y-121779416D01*
X134036736Y-121858366D01*
X134027027Y-121920724D01*
X134016986Y-121985209D01*
X134016986Y-121985213D01*
X134015605Y-121994082D01*
X128329500Y-121994082D01*
X128329500Y-105160780D01*
X130042655Y-105160780D01*
X130043879Y-105171120D01*
X130046627Y-105194342D01*
X130046979Y-105200320D01*
X130047072Y-105200312D01*
X130047500Y-105205490D01*
X130047500Y-105210692D01*
X130048354Y-105215822D01*
X130050686Y-105229832D01*
X130051522Y-105235704D01*
X130057582Y-105286907D01*
X130061567Y-105295206D01*
X130063078Y-105304283D01*
X130087558Y-105349651D01*
X130090239Y-105354914D01*
X130109127Y-105394250D01*
X130109130Y-105394254D01*
X130112560Y-105401398D01*
X130116170Y-105405692D01*
X130118102Y-105407624D01*
X130119889Y-105409573D01*
X130119918Y-105409626D01*
X130119788Y-105409745D01*
X130120289Y-105410313D01*
X130123388Y-105416057D01*
X130131033Y-105423124D01*
X130163209Y-105452867D01*
X130166775Y-105456297D01*
X131346954Y-106636476D01*
X131362318Y-106655499D01*
X131363282Y-106656558D01*
X131368929Y-106665304D01*
X131377108Y-106671752D01*
X131377110Y-106671754D01*
X131395477Y-106686234D01*
X131399950Y-106690209D01*
X131400011Y-106690137D01*
X131403968Y-106693490D01*
X131407649Y-106697171D01*
X131411881Y-106700195D01*
X131423439Y-106708455D01*
X131428185Y-106712018D01*
X131468670Y-106743934D01*
X131477355Y-106746984D01*
X131484843Y-106752335D01*
X131534266Y-106767115D01*
X131539840Y-106768927D01*
X131588502Y-106786016D01*
X131594091Y-106786500D01*
X131596802Y-106786500D01*
X131599469Y-106786615D01*
X131599532Y-106786634D01*
X131599525Y-106786808D01*
X131600271Y-106786855D01*
X131606524Y-106788725D01*
X131660688Y-106786597D01*
X131665634Y-106786500D01*
X131839010Y-106786500D01*
X131907131Y-106806502D01*
X131953624Y-106860158D01*
X131963728Y-106930432D01*
X131939836Y-106988065D01*
X131892414Y-107051340D01*
X131883876Y-107066935D01*
X131838722Y-107187383D01*
X131835095Y-107202638D01*
X131829569Y-107253503D01*
X131829200Y-107260317D01*
X131829200Y-107402874D01*
X131833675Y-107418113D01*
X131835065Y-107419318D01*
X131842748Y-107420989D01*
X133925200Y-107420989D01*
X133993321Y-107440991D01*
X134039814Y-107494647D01*
X134051200Y-107546989D01*
X134051200Y-107802989D01*
X134031198Y-107871110D01*
X133977542Y-107917603D01*
X133925200Y-107928989D01*
X131847316Y-107928989D01*
X131832077Y-107933464D01*
X131830872Y-107934854D01*
X131829201Y-107942537D01*
X131829201Y-108089658D01*
X131829571Y-108096479D01*
X131835095Y-108147341D01*
X131838721Y-108162593D01*
X131883877Y-108283047D01*
X131888494Y-108291479D01*
X131903663Y-108360836D01*
X131878927Y-108427384D01*
X131822139Y-108469994D01*
X131816773Y-108471780D01*
X131808813Y-108472920D01*
X131800638Y-108476637D01*
X131684390Y-108529492D01*
X131684388Y-108529493D01*
X131676218Y-108533208D01*
X131565873Y-108628287D01*
X131486648Y-108750515D01*
X131444914Y-108890066D01*
X131444859Y-108899042D01*
X131444859Y-108899043D01*
X131444591Y-108942864D01*
X131444024Y-109035721D01*
X131484051Y-109175771D01*
X131488838Y-109183358D01*
X131488839Y-109183360D01*
X131510545Y-109217761D01*
X131561776Y-109298958D01*
X131670951Y-109395378D01*
X131679074Y-109399192D01*
X131679076Y-109399193D01*
X131711232Y-109414290D01*
X131802800Y-109457281D01*
X131811665Y-109458661D01*
X131811667Y-109458662D01*
X131874274Y-109468410D01*
X131913386Y-109474500D01*
X132042939Y-109474500D01*
X132111060Y-109494502D01*
X132157553Y-109548158D01*
X132167657Y-109618432D01*
X132147713Y-109670489D01*
X132147045Y-109671489D01*
X132092573Y-109717023D01*
X132042271Y-109727500D01*
X131916487Y-109727500D01*
X131883012Y-109732294D01*
X131817706Y-109741646D01*
X131817703Y-109741647D01*
X131808813Y-109742920D01*
X131800637Y-109746637D01*
X131800635Y-109746638D01*
X131684390Y-109799492D01*
X131684388Y-109799493D01*
X131676218Y-109803208D01*
X131565873Y-109898287D01*
X131486648Y-110020515D01*
X131444914Y-110160066D01*
X131444859Y-110169042D01*
X131444859Y-110169043D01*
X131444756Y-110185855D01*
X131444024Y-110305721D01*
X131484051Y-110445771D01*
X131488838Y-110453358D01*
X131488839Y-110453360D01*
X131530648Y-110519623D01*
X131561776Y-110568958D01*
X131670951Y-110665378D01*
X131679074Y-110669192D01*
X131679076Y-110669193D01*
X131731760Y-110693928D01*
X131802800Y-110727281D01*
X131811665Y-110728661D01*
X131811667Y-110728662D01*
X131880746Y-110739418D01*
X131913386Y-110744500D01*
X132080976Y-110744500D01*
X132149097Y-110764502D01*
X132153356Y-110767934D01*
X132153716Y-110768473D01*
X132237899Y-110824723D01*
X132312133Y-110839489D01*
X132351024Y-110839489D01*
X134815950Y-110839488D01*
X134884070Y-110859490D01*
X134930563Y-110913146D01*
X134940667Y-110983420D01*
X134911173Y-111048000D01*
X134897947Y-111061156D01*
X134810134Y-111136421D01*
X134690039Y-111291246D01*
X134687222Y-111296970D01*
X134687220Y-111296974D01*
X134649033Y-111374580D01*
X134603529Y-111467057D01*
X134588283Y-111525588D01*
X134555838Y-111650148D01*
X134554138Y-111656673D01*
X134551831Y-111700697D01*
X134545503Y-111821446D01*
X134543883Y-111852348D01*
X134573184Y-112046087D01*
X134640843Y-112229978D01*
X134644201Y-112235394D01*
X134644203Y-112235398D01*
X134740733Y-112391086D01*
X134740736Y-112391090D01*
X134744096Y-112396509D01*
X134748482Y-112401147D01*
X134873233Y-112533067D01*
X134878726Y-112538876D01*
X135039233Y-112651264D01*
X135219060Y-112729083D01*
X135225313Y-112730389D01*
X135225312Y-112730389D01*
X135406126Y-112768163D01*
X135406131Y-112768164D01*
X135410862Y-112769152D01*
X135417292Y-112769489D01*
X135561169Y-112769489D01*
X135607403Y-112764793D01*
X135700792Y-112755307D01*
X135700794Y-112755307D01*
X135707140Y-112754662D01*
X135894116Y-112696067D01*
X136065492Y-112601072D01*
X136214266Y-112473557D01*
X136220452Y-112465583D01*
X136278237Y-112391086D01*
X136334361Y-112318732D01*
X136420871Y-112142921D01*
X136444533Y-112052080D01*
X136468652Y-111959487D01*
X136468652Y-111959484D01*
X136470262Y-111953305D01*
X136475887Y-111845967D01*
X136480183Y-111764011D01*
X136480183Y-111764007D01*
X136480517Y-111757630D01*
X136451216Y-111563891D01*
X136383557Y-111380000D01*
X136380199Y-111374584D01*
X136380197Y-111374580D01*
X136283667Y-111218892D01*
X136283664Y-111218888D01*
X136280304Y-111213469D01*
X136145674Y-111071102D01*
X136140444Y-111067440D01*
X136135612Y-111063269D01*
X136136803Y-111061889D01*
X136097921Y-111013252D01*
X136090607Y-110942633D01*
X136122634Y-110879271D01*
X136183833Y-110843282D01*
X136214517Y-110839489D01*
X138673856Y-110839488D01*
X138712266Y-110839488D01*
X138748018Y-110832377D01*
X138774326Y-110827145D01*
X138774328Y-110827144D01*
X138786501Y-110824723D01*
X138796821Y-110817828D01*
X138796822Y-110817827D01*
X138860368Y-110775366D01*
X138870684Y-110768473D01*
X138900756Y-110723467D01*
X138920039Y-110694609D01*
X138926934Y-110684290D01*
X138941700Y-110610056D01*
X138941699Y-109819923D01*
X138926934Y-109745688D01*
X138917985Y-109732294D01*
X138877577Y-109671821D01*
X138870684Y-109661505D01*
X138870697Y-109661496D01*
X138840814Y-109606772D01*
X138845879Y-109535957D01*
X138869431Y-109499310D01*
X138870684Y-109498473D01*
X138876503Y-109489764D01*
X138937641Y-109456379D01*
X138964424Y-109453500D01*
X142576848Y-109453500D01*
X142621074Y-109461518D01*
X142637684Y-109467744D01*
X142646637Y-109468409D01*
X142646640Y-109468410D01*
X142773990Y-109477874D01*
X142773991Y-109477874D01*
X142782941Y-109478539D01*
X142791715Y-109476666D01*
X142791716Y-109476666D01*
X142916611Y-109450005D01*
X142916612Y-109450005D01*
X142925389Y-109448131D01*
X142988107Y-109414290D01*
X143045677Y-109383227D01*
X143045679Y-109383226D01*
X143053577Y-109378964D01*
X143064140Y-109368530D01*
X143110005Y-109323222D01*
X143157200Y-109276600D01*
X143179845Y-109235832D01*
X143223569Y-109157112D01*
X143227927Y-109149266D01*
X143254281Y-109032800D01*
X143258093Y-109015955D01*
X143258093Y-109015954D01*
X143260074Y-109007200D01*
X143251055Y-108861822D01*
X143245360Y-108846045D01*
X143204643Y-108733262D01*
X143201595Y-108724819D01*
X143160518Y-108668591D01*
X143138447Y-108638378D01*
X143138445Y-108638376D01*
X143135575Y-108634447D01*
X143132126Y-108630998D01*
X143130717Y-108629353D01*
X143127023Y-108624344D01*
X143123014Y-108619633D01*
X143118224Y-108612042D01*
X143077876Y-108576408D01*
X143072189Y-108571062D01*
X143060745Y-108559618D01*
X143052370Y-108553341D01*
X143044541Y-108546967D01*
X143009049Y-108515622D01*
X143000926Y-108511808D01*
X142998438Y-108510174D01*
X142983477Y-108501186D01*
X142980892Y-108499771D01*
X142973705Y-108494384D01*
X142929357Y-108477759D01*
X142920040Y-108473832D01*
X142918098Y-108472920D01*
X142877200Y-108453719D01*
X142868331Y-108452338D01*
X142865498Y-108451472D01*
X142848611Y-108447042D01*
X142845726Y-108446408D01*
X142837316Y-108443255D01*
X142808158Y-108441088D01*
X142790094Y-108439746D01*
X142780048Y-108438592D01*
X142771425Y-108437249D01*
X142771422Y-108437249D01*
X142766614Y-108436500D01*
X142751094Y-108436500D01*
X142741757Y-108436154D01*
X142724854Y-108434898D01*
X142692059Y-108432461D01*
X142683280Y-108434335D01*
X142675022Y-108434898D01*
X142659839Y-108436500D01*
X138964446Y-108436500D01*
X138896325Y-108416498D01*
X138876951Y-108400885D01*
X138870779Y-108391648D01*
X138840814Y-108336772D01*
X138845879Y-108265957D01*
X138869431Y-108229310D01*
X138870684Y-108228473D01*
X138926934Y-108144290D01*
X138941700Y-108070056D01*
X138941699Y-107282165D01*
X138961701Y-107214044D01*
X138992134Y-107181339D01*
X139042924Y-107143274D01*
X139055485Y-107130713D01*
X139131986Y-107028638D01*
X139140524Y-107013043D01*
X139185678Y-106892595D01*
X139189305Y-106877340D01*
X139194831Y-106826475D01*
X139195200Y-106819661D01*
X139195200Y-106677104D01*
X139190725Y-106661865D01*
X139189335Y-106660660D01*
X139181652Y-106658989D01*
X137099200Y-106658989D01*
X137031079Y-106638987D01*
X136984586Y-106585331D01*
X136973200Y-106532989D01*
X136973200Y-106132874D01*
X137481200Y-106132874D01*
X137485675Y-106148113D01*
X137487065Y-106149318D01*
X137494748Y-106150989D01*
X139177084Y-106150989D01*
X139192323Y-106146514D01*
X139193528Y-106145124D01*
X139195199Y-106137441D01*
X139195199Y-105990320D01*
X139194829Y-105983499D01*
X139189305Y-105932637D01*
X139185678Y-105917383D01*
X139147004Y-105814218D01*
X139141821Y-105743411D01*
X139147004Y-105725760D01*
X139185678Y-105622598D01*
X139189305Y-105607340D01*
X139194831Y-105556475D01*
X139195200Y-105549661D01*
X139195200Y-105407104D01*
X139190725Y-105391865D01*
X139189335Y-105390660D01*
X139181652Y-105388989D01*
X137499315Y-105388989D01*
X137484076Y-105393464D01*
X137482871Y-105394854D01*
X137481200Y-105402537D01*
X137481200Y-106132874D01*
X136973200Y-106132874D01*
X136973200Y-104862874D01*
X137481200Y-104862874D01*
X137485675Y-104878113D01*
X137487065Y-104879318D01*
X137494748Y-104880989D01*
X139177084Y-104880989D01*
X139192323Y-104876514D01*
X139193528Y-104875124D01*
X139195199Y-104867441D01*
X139195199Y-104720320D01*
X139194829Y-104713499D01*
X139189305Y-104662637D01*
X139185678Y-104647383D01*
X139147004Y-104544218D01*
X139141821Y-104473411D01*
X139147004Y-104455760D01*
X139185678Y-104352598D01*
X139189305Y-104337340D01*
X139194831Y-104286475D01*
X139195200Y-104279661D01*
X139195200Y-104137104D01*
X139190725Y-104121865D01*
X139189335Y-104120660D01*
X139181652Y-104118989D01*
X137499315Y-104118989D01*
X137484076Y-104123464D01*
X137482871Y-104124854D01*
X137481200Y-104132537D01*
X137481200Y-104862874D01*
X136973200Y-104862874D01*
X136973200Y-103592874D01*
X137481200Y-103592874D01*
X137485675Y-103608113D01*
X137487065Y-103609318D01*
X137494748Y-103610989D01*
X139177084Y-103610989D01*
X139192323Y-103606514D01*
X139193528Y-103605124D01*
X139195199Y-103597441D01*
X139195199Y-103450320D01*
X139194829Y-103443499D01*
X139189305Y-103392637D01*
X139185678Y-103377383D01*
X139147004Y-103274218D01*
X139141821Y-103203411D01*
X139147004Y-103185760D01*
X139185678Y-103082598D01*
X139189305Y-103067340D01*
X139194831Y-103016475D01*
X139195200Y-103009661D01*
X139195200Y-102867104D01*
X139190725Y-102851865D01*
X139189335Y-102850660D01*
X139181652Y-102848989D01*
X137499315Y-102848989D01*
X137484076Y-102853464D01*
X137482871Y-102854854D01*
X137481200Y-102862537D01*
X137481200Y-103592874D01*
X136973200Y-103592874D01*
X136973200Y-102322874D01*
X137481200Y-102322874D01*
X137485675Y-102338113D01*
X137487065Y-102339318D01*
X137494748Y-102340989D01*
X139177084Y-102340989D01*
X139192323Y-102336514D01*
X139193528Y-102335124D01*
X139195199Y-102327441D01*
X139195199Y-102180320D01*
X139194829Y-102173499D01*
X139189305Y-102122637D01*
X139185678Y-102107383D01*
X139147004Y-102004218D01*
X139141821Y-101933411D01*
X139147004Y-101915760D01*
X139185678Y-101812598D01*
X139189305Y-101797340D01*
X139194831Y-101746475D01*
X139195200Y-101739661D01*
X139195200Y-101597104D01*
X139190725Y-101581865D01*
X139189335Y-101580660D01*
X139181652Y-101578989D01*
X137499315Y-101578989D01*
X137484076Y-101583464D01*
X137482871Y-101584854D01*
X137481200Y-101592537D01*
X137481200Y-102322874D01*
X136973200Y-102322874D01*
X136973200Y-101196989D01*
X136993202Y-101128868D01*
X137046858Y-101082375D01*
X137099200Y-101070989D01*
X139177084Y-101070989D01*
X139192323Y-101066514D01*
X139193528Y-101065124D01*
X139195199Y-101057441D01*
X139195199Y-100910320D01*
X139194829Y-100903499D01*
X139189305Y-100852637D01*
X139185679Y-100837385D01*
X139140524Y-100716935D01*
X139131986Y-100701340D01*
X139085186Y-100638895D01*
X139060338Y-100572388D01*
X139075391Y-100503006D01*
X139125565Y-100452776D01*
X139189214Y-100438101D01*
X139194876Y-100439320D01*
X139205217Y-100438096D01*
X139228223Y-100435373D01*
X139234154Y-100435023D01*
X139234146Y-100434928D01*
X139239324Y-100434500D01*
X139244524Y-100434500D01*
X139249653Y-100433646D01*
X139249656Y-100433646D01*
X139263565Y-100431331D01*
X139269443Y-100430494D01*
X139310001Y-100425694D01*
X139310002Y-100425694D01*
X139320341Y-100424470D01*
X139328593Y-100420507D01*
X139337626Y-100419004D01*
X139346795Y-100414057D01*
X139346797Y-100414056D01*
X139382732Y-100394666D01*
X139388025Y-100391969D01*
X139427082Y-100373215D01*
X139427086Y-100373212D01*
X139434232Y-100369781D01*
X139438508Y-100366186D01*
X139440431Y-100364263D01*
X139442363Y-100362491D01*
X139442442Y-100362448D01*
X139442555Y-100362572D01*
X139443095Y-100362096D01*
X139448814Y-100359010D01*
X139485417Y-100319413D01*
X139488846Y-100315848D01*
X139930216Y-99874478D01*
X139948964Y-99859336D01*
X139950189Y-99858221D01*
X139958940Y-99852571D01*
X139965387Y-99844393D01*
X139965389Y-99844391D01*
X139979729Y-99826200D01*
X139983675Y-99821759D01*
X139983602Y-99821697D01*
X139986961Y-99817733D01*
X139990638Y-99814056D01*
X140001892Y-99798308D01*
X140005398Y-99793638D01*
X140037156Y-99753353D01*
X140040188Y-99744719D01*
X140045514Y-99737266D01*
X140060203Y-99688150D01*
X140062036Y-99682508D01*
X140076390Y-99641633D01*
X140076390Y-99641632D01*
X140079018Y-99634149D01*
X140079500Y-99628584D01*
X140079500Y-99625876D01*
X140079614Y-99623242D01*
X140079643Y-99623144D01*
X140079807Y-99623151D01*
X140079851Y-99622447D01*
X140081713Y-99616222D01*
X140079597Y-99562365D01*
X140079500Y-99557418D01*
X140079500Y-96739918D01*
X140100091Y-96672571D01*
X140101612Y-96670890D01*
X140161499Y-96547283D01*
X140184286Y-96411836D01*
X140184431Y-96400000D01*
X140183584Y-96394082D01*
X140166232Y-96272923D01*
X140166232Y-96272921D01*
X140164959Y-96264036D01*
X140153901Y-96239714D01*
X140149706Y-96230489D01*
X140108110Y-96139003D01*
X140018453Y-96034951D01*
X139903196Y-95960244D01*
X139771603Y-95920890D01*
X139762627Y-95920835D01*
X139762626Y-95920835D01*
X139705080Y-95920484D01*
X139634255Y-95920051D01*
X139502192Y-95957795D01*
X139494605Y-95962582D01*
X139494603Y-95962583D01*
X139452350Y-95989243D01*
X139386031Y-96031087D01*
X139295109Y-96134036D01*
X139291295Y-96142159D01*
X139291294Y-96142161D01*
X139288939Y-96147177D01*
X139236736Y-96258366D01*
X139229942Y-96302000D01*
X139216986Y-96385209D01*
X139216986Y-96385213D01*
X139215605Y-96394082D01*
X139216769Y-96402984D01*
X139216769Y-96402987D01*
X139223890Y-96457440D01*
X139233414Y-96530273D01*
X139258000Y-96586149D01*
X139280513Y-96637312D01*
X139288732Y-96655992D01*
X139294510Y-96662866D01*
X139299252Y-96670484D01*
X139296816Y-96672000D01*
X139319473Y-96723651D01*
X139320500Y-96739707D01*
X139320500Y-99358616D01*
X139300498Y-99426737D01*
X139283595Y-99447711D01*
X139122473Y-99608833D01*
X139060161Y-99642859D01*
X138989346Y-99637794D01*
X138932510Y-99595247D01*
X138927029Y-99585624D01*
X138926934Y-99585688D01*
X138877577Y-99511821D01*
X138870684Y-99501505D01*
X138870697Y-99501496D01*
X138840814Y-99446772D01*
X138845879Y-99375957D01*
X138869431Y-99339310D01*
X138870684Y-99338473D01*
X138926934Y-99254290D01*
X138941700Y-99180056D01*
X138941699Y-98389923D01*
X138926934Y-98315688D01*
X138870684Y-98231505D01*
X138786501Y-98175255D01*
X138712267Y-98160489D01*
X137794500Y-98160489D01*
X137726379Y-98140487D01*
X137679886Y-98086831D01*
X137668500Y-98034489D01*
X137668500Y-96475953D01*
X137688687Y-96409926D01*
X137688612Y-96409890D01*
X137688845Y-96409409D01*
X137737335Y-96309326D01*
X137744585Y-96294362D01*
X137744585Y-96294361D01*
X137748499Y-96286283D01*
X137771286Y-96150836D01*
X137771431Y-96139000D01*
X137770721Y-96134036D01*
X137753232Y-96011923D01*
X137753232Y-96011921D01*
X137751959Y-96003036D01*
X137695110Y-95878003D01*
X137605453Y-95773951D01*
X137592102Y-95765297D01*
X137547261Y-95736232D01*
X137500977Y-95682395D01*
X137491147Y-95612082D01*
X137520892Y-95547617D01*
X137580767Y-95509466D01*
X137615794Y-95504500D01*
X139399204Y-95504500D01*
X139469021Y-95525612D01*
X139491447Y-95540540D01*
X139622549Y-95581499D01*
X139759876Y-95584016D01*
X139769109Y-95581499D01*
X139883727Y-95550251D01*
X139892391Y-95547889D01*
X140009439Y-95476021D01*
X140101612Y-95374190D01*
X140161499Y-95250583D01*
X140184286Y-95115136D01*
X140184431Y-95103300D01*
X140178813Y-95064068D01*
X140166232Y-94976223D01*
X140166232Y-94976221D01*
X140164959Y-94967336D01*
X140108110Y-94842303D01*
X140084696Y-94815129D01*
X140055382Y-94750468D01*
X140065681Y-94680222D01*
X140086734Y-94648327D01*
X140095584Y-94638550D01*
X140095585Y-94638549D01*
X140101612Y-94631890D01*
X140116706Y-94600737D01*
X140157585Y-94516362D01*
X140157585Y-94516361D01*
X140161499Y-94508283D01*
X140184286Y-94372836D01*
X140184431Y-94361000D01*
X140164959Y-94225036D01*
X140108110Y-94100003D01*
X140018453Y-93995951D01*
X139903196Y-93921244D01*
X139771603Y-93881890D01*
X139762627Y-93881835D01*
X139762626Y-93881835D01*
X139705080Y-93881484D01*
X139634255Y-93881051D01*
X139502192Y-93918795D01*
X139494604Y-93923582D01*
X139494603Y-93923583D01*
X139433618Y-93962062D01*
X139366383Y-93981500D01*
X134292920Y-93981500D01*
X134268973Y-93978951D01*
X134267307Y-93978872D01*
X134257124Y-93976680D01*
X134246782Y-93977904D01*
X134246779Y-93977904D01*
X134223787Y-93980626D01*
X134217846Y-93980977D01*
X134217854Y-93981072D01*
X134212674Y-93981500D01*
X134207476Y-93981500D01*
X134202354Y-93982353D01*
X134202349Y-93982353D01*
X134188427Y-93984671D01*
X134182550Y-93985508D01*
X134176049Y-93986277D01*
X134141997Y-93990307D01*
X134141995Y-93990308D01*
X134131659Y-93991531D01*
X134123410Y-93995492D01*
X134114374Y-93996996D01*
X134105205Y-94001943D01*
X134105203Y-94001944D01*
X134069240Y-94021348D01*
X134063951Y-94024043D01*
X134024915Y-94042788D01*
X134017768Y-94046220D01*
X134013492Y-94049814D01*
X134011552Y-94051754D01*
X134009641Y-94053507D01*
X134009551Y-94053556D01*
X134009439Y-94053433D01*
X134008904Y-94053905D01*
X134003186Y-94056990D01*
X133996119Y-94064635D01*
X133966584Y-94096586D01*
X133963154Y-94100152D01*
X133182595Y-94880711D01*
X133120283Y-94914737D01*
X133049468Y-94909672D01*
X132992632Y-94867125D01*
X132967821Y-94800605D01*
X132967500Y-94791616D01*
X132967500Y-91942082D01*
X137437605Y-91942082D01*
X137438769Y-91950984D01*
X137438769Y-91950987D01*
X137440554Y-91964633D01*
X137455414Y-92078273D01*
X137510732Y-92203992D01*
X137599111Y-92309132D01*
X137713447Y-92385240D01*
X137844549Y-92426199D01*
X137981876Y-92428716D01*
X137991109Y-92426199D01*
X138105727Y-92394951D01*
X138114391Y-92392589D01*
X138231439Y-92320721D01*
X138323612Y-92218890D01*
X138383499Y-92095283D01*
X138406286Y-91959836D01*
X138406431Y-91948000D01*
X138405584Y-91942082D01*
X138388232Y-91820923D01*
X138388232Y-91820921D01*
X138386959Y-91812036D01*
X138330110Y-91687003D01*
X138240453Y-91582951D01*
X138125196Y-91508244D01*
X137993603Y-91468890D01*
X137984627Y-91468835D01*
X137984626Y-91468835D01*
X137927080Y-91468484D01*
X137856255Y-91468051D01*
X137724192Y-91505795D01*
X137716605Y-91510582D01*
X137716603Y-91510583D01*
X137669766Y-91540135D01*
X137608031Y-91579087D01*
X137517109Y-91682036D01*
X137513295Y-91690159D01*
X137513294Y-91690161D01*
X137485136Y-91750136D01*
X137458736Y-91806366D01*
X137452359Y-91847321D01*
X137438986Y-91933209D01*
X137438986Y-91933213D01*
X137437605Y-91942082D01*
X132967500Y-91942082D01*
X132967500Y-84410384D01*
X132987502Y-84342263D01*
X133004405Y-84321289D01*
X135013112Y-82312582D01*
X137483361Y-82312582D01*
X137484525Y-82321484D01*
X137484525Y-82321487D01*
X137486310Y-82335133D01*
X137501170Y-82448773D01*
X137556488Y-82574492D01*
X137562266Y-82581365D01*
X137562266Y-82581366D01*
X137619289Y-82649203D01*
X137644867Y-82679632D01*
X137759203Y-82755740D01*
X137890305Y-82796699D01*
X138027632Y-82799216D01*
X138036865Y-82796699D01*
X138151483Y-82765451D01*
X138160147Y-82763089D01*
X138277195Y-82691221D01*
X138369368Y-82589390D01*
X138389860Y-82547096D01*
X138425341Y-82473862D01*
X138425341Y-82473861D01*
X138429255Y-82465783D01*
X138452042Y-82330336D01*
X138452187Y-82318500D01*
X138451340Y-82312582D01*
X138433988Y-82191423D01*
X138433988Y-82191421D01*
X138432715Y-82182536D01*
X138375866Y-82057503D01*
X138286209Y-81953451D01*
X138170952Y-81878744D01*
X138039359Y-81839390D01*
X138030383Y-81839335D01*
X138030382Y-81839335D01*
X137972836Y-81838984D01*
X137902011Y-81838551D01*
X137769948Y-81876295D01*
X137762361Y-81881082D01*
X137762359Y-81881083D01*
X137700606Y-81920046D01*
X137653787Y-81949587D01*
X137647844Y-81956316D01*
X137645937Y-81958475D01*
X137562865Y-82052536D01*
X137504492Y-82176866D01*
X137494783Y-82239224D01*
X137484742Y-82303709D01*
X137484742Y-82303713D01*
X137483361Y-82312582D01*
X135013112Y-82312582D01*
X137153289Y-80172405D01*
X137215601Y-80138379D01*
X137242384Y-80135500D01*
X139801063Y-80135500D01*
X139869184Y-80155502D01*
X139915677Y-80209158D01*
X139925781Y-80279432D01*
X139896287Y-80344012D01*
X139868301Y-80368060D01*
X139812787Y-80403087D01*
X139806844Y-80409816D01*
X139790999Y-80427757D01*
X139721865Y-80506036D01*
X139663492Y-80630366D01*
X139662112Y-80639232D01*
X139643742Y-80757209D01*
X139643742Y-80757213D01*
X139642361Y-80766082D01*
X139643525Y-80774984D01*
X139643525Y-80774987D01*
X139648717Y-80814686D01*
X139660170Y-80902273D01*
X139715488Y-81027992D01*
X139803867Y-81133132D01*
X139918203Y-81209240D01*
X140049305Y-81250199D01*
X140186632Y-81252716D01*
X140195865Y-81250199D01*
X140310483Y-81218951D01*
X140319147Y-81216589D01*
X140391564Y-81172125D01*
X140457492Y-81153500D01*
X141267788Y-81153500D01*
X141335909Y-81173502D01*
X141356883Y-81190405D01*
X142828182Y-82661705D01*
X142862208Y-82724017D01*
X142857143Y-82794833D01*
X142814596Y-82851668D01*
X142748076Y-82876479D01*
X142739087Y-82876800D01*
X140457093Y-82876800D01*
X140388560Y-82856532D01*
X140337483Y-82823425D01*
X140337481Y-82823424D01*
X140329952Y-82818544D01*
X140198359Y-82779190D01*
X140189383Y-82779135D01*
X140189382Y-82779135D01*
X140131836Y-82778784D01*
X140061011Y-82778351D01*
X139928948Y-82816095D01*
X139921361Y-82820882D01*
X139921359Y-82820883D01*
X139912056Y-82826753D01*
X139812787Y-82889387D01*
X139806844Y-82896116D01*
X139754079Y-82955861D01*
X139721865Y-82992336D01*
X139718051Y-83000459D01*
X139718050Y-83000461D01*
X139713558Y-83010029D01*
X139663492Y-83116666D01*
X139658780Y-83146928D01*
X139643742Y-83243509D01*
X139643742Y-83243513D01*
X139642361Y-83252382D01*
X139660170Y-83388573D01*
X139715488Y-83514292D01*
X139721266Y-83521165D01*
X139721266Y-83521166D01*
X139769181Y-83578168D01*
X139803867Y-83619432D01*
X139918203Y-83695540D01*
X140007698Y-83723500D01*
X140029153Y-83730203D01*
X140049305Y-83736499D01*
X140186632Y-83739016D01*
X140195865Y-83736499D01*
X140310483Y-83705251D01*
X140319147Y-83702889D01*
X140391564Y-83658425D01*
X140457492Y-83639800D01*
X142738088Y-83639800D01*
X142806209Y-83659802D01*
X142827183Y-83676705D01*
X143676915Y-84526437D01*
X143710941Y-84588749D01*
X143705876Y-84659564D01*
X143663329Y-84716400D01*
X143596809Y-84741211D01*
X143551721Y-84736250D01*
X143500359Y-84720890D01*
X143491383Y-84720835D01*
X143491382Y-84720835D01*
X143433836Y-84720484D01*
X143363011Y-84720051D01*
X143230948Y-84757795D01*
X143223361Y-84762582D01*
X143223359Y-84762583D01*
X143187401Y-84785271D01*
X143114787Y-84831087D01*
X143108844Y-84837816D01*
X143085399Y-84864362D01*
X143023865Y-84934036D01*
X143020051Y-84942159D01*
X143020050Y-84942161D01*
X143001432Y-84981816D01*
X142965492Y-85058366D01*
X142960489Y-85090500D01*
X142945742Y-85185209D01*
X142945742Y-85185213D01*
X142944361Y-85194082D01*
X142945525Y-85202984D01*
X142945525Y-85202987D01*
X142951150Y-85246000D01*
X142962170Y-85330273D01*
X143017488Y-85455992D01*
X143023266Y-85462865D01*
X143023266Y-85462866D01*
X143073512Y-85522641D01*
X143102033Y-85587657D01*
X143090877Y-85657771D01*
X143071506Y-85687119D01*
X143030070Y-85734036D01*
X143026256Y-85742159D01*
X143026255Y-85742161D01*
X142998097Y-85802136D01*
X142971697Y-85858366D01*
X142967858Y-85883023D01*
X142951947Y-85985209D01*
X142951947Y-85985213D01*
X142950566Y-85994082D01*
X142951730Y-86002984D01*
X142951730Y-86002987D01*
X142959471Y-86062178D01*
X142968375Y-86130273D01*
X142980382Y-86157561D01*
X143019956Y-86247498D01*
X143023693Y-86255992D01*
X143029471Y-86262865D01*
X143029471Y-86262866D01*
X143103635Y-86351095D01*
X143112072Y-86361132D01*
X143119549Y-86366109D01*
X143203431Y-86421945D01*
X143226408Y-86437240D01*
X143357510Y-86478199D01*
X143494837Y-86480716D01*
X143504070Y-86478199D01*
X143618688Y-86446951D01*
X143627352Y-86444589D01*
X143709175Y-86394349D01*
X143736752Y-86377417D01*
X143744400Y-86372721D01*
X143750424Y-86366066D01*
X143830545Y-86277550D01*
X143830546Y-86277549D01*
X143836573Y-86270890D01*
X143841190Y-86261362D01*
X143892546Y-86155362D01*
X143892546Y-86155361D01*
X143896460Y-86147283D01*
X143919247Y-86011836D01*
X143919392Y-86000000D01*
X143918545Y-85994082D01*
X143901193Y-85872923D01*
X143901193Y-85872921D01*
X143899920Y-85864036D01*
X143843071Y-85739003D01*
X143791159Y-85678757D01*
X143761846Y-85614096D01*
X143772145Y-85543850D01*
X143793198Y-85511955D01*
X143824340Y-85477550D01*
X143824341Y-85477549D01*
X143830368Y-85470890D01*
X143863027Y-85403483D01*
X143886341Y-85355362D01*
X143886341Y-85355361D01*
X143890255Y-85347283D01*
X143913042Y-85211836D01*
X143913187Y-85200000D01*
X143912340Y-85194082D01*
X143893715Y-85064036D01*
X143897580Y-85063483D01*
X143897451Y-85010945D01*
X143935688Y-84951125D01*
X144000196Y-84921473D01*
X144070495Y-84931404D01*
X144107528Y-84957051D01*
X150838595Y-91688118D01*
X150872621Y-91750430D01*
X150875500Y-91777213D01*
X150875500Y-109038865D01*
X150872914Y-109063164D01*
X150872846Y-109064602D01*
X150870655Y-109074780D01*
X150873960Y-109102705D01*
X150874627Y-109108342D01*
X150874979Y-109114320D01*
X150875072Y-109114312D01*
X150875500Y-109119490D01*
X150875500Y-109124692D01*
X150876354Y-109129822D01*
X150878686Y-109143832D01*
X150879522Y-109149704D01*
X150885582Y-109200907D01*
X150889567Y-109209206D01*
X150891078Y-109218283D01*
X150915558Y-109263651D01*
X150918239Y-109268914D01*
X150937127Y-109308250D01*
X150937130Y-109308254D01*
X150940560Y-109315398D01*
X150944170Y-109319692D01*
X150946102Y-109321624D01*
X150947889Y-109323573D01*
X150947918Y-109323626D01*
X150947788Y-109323745D01*
X150948289Y-109324313D01*
X150951388Y-109330057D01*
X150959033Y-109337124D01*
X150991209Y-109366867D01*
X150994775Y-109370297D01*
X153119754Y-111495276D01*
X153135118Y-111514299D01*
X153136082Y-111515358D01*
X153141729Y-111524104D01*
X153149908Y-111530552D01*
X153149910Y-111530554D01*
X153168277Y-111545034D01*
X153172750Y-111549009D01*
X153172811Y-111548937D01*
X153176768Y-111552290D01*
X153180449Y-111555971D01*
X153184681Y-111558995D01*
X153196239Y-111567255D01*
X153200985Y-111570818D01*
X153241470Y-111602734D01*
X153250155Y-111605784D01*
X153257643Y-111611135D01*
X153307066Y-111625915D01*
X153312640Y-111627727D01*
X153361302Y-111644816D01*
X153366891Y-111645300D01*
X153369602Y-111645300D01*
X153372269Y-111645415D01*
X153372332Y-111645434D01*
X153372325Y-111645608D01*
X153373071Y-111645655D01*
X153379324Y-111647525D01*
X153433488Y-111645397D01*
X153438434Y-111645300D01*
X155129905Y-111645300D01*
X155198026Y-111665302D01*
X155244519Y-111718958D01*
X155254623Y-111789232D01*
X155252488Y-111800445D01*
X155247495Y-111821446D01*
X155241969Y-111872314D01*
X155241600Y-111879127D01*
X155241601Y-112298892D01*
X155221599Y-112367012D01*
X155167944Y-112413506D01*
X155134891Y-112423092D01*
X155128255Y-112423051D01*
X154996192Y-112460795D01*
X154988605Y-112465582D01*
X154988603Y-112465583D01*
X154983958Y-112468514D01*
X154880031Y-112534087D01*
X154874088Y-112540816D01*
X154818140Y-112604165D01*
X154789109Y-112637036D01*
X154785295Y-112645159D01*
X154785294Y-112645161D01*
X154762848Y-112692969D01*
X154730736Y-112761366D01*
X154724247Y-112803043D01*
X154710986Y-112888209D01*
X154710986Y-112888213D01*
X154709605Y-112897082D01*
X154710769Y-112905984D01*
X154710769Y-112905987D01*
X154724915Y-113014163D01*
X154713915Y-113084302D01*
X154666740Y-113137359D01*
X154599979Y-113156500D01*
X154127337Y-113156500D01*
X154058804Y-113136232D01*
X154007727Y-113103125D01*
X154007725Y-113103124D01*
X154000196Y-113098244D01*
X153868603Y-113058890D01*
X153859627Y-113058835D01*
X153859626Y-113058835D01*
X153802080Y-113058484D01*
X153731255Y-113058051D01*
X153599192Y-113095795D01*
X153591605Y-113100582D01*
X153591603Y-113100583D01*
X153533317Y-113137359D01*
X153483031Y-113169087D01*
X153392109Y-113272036D01*
X153388295Y-113280159D01*
X153388294Y-113280161D01*
X153374506Y-113309529D01*
X153333736Y-113396366D01*
X153332356Y-113405232D01*
X153313986Y-113523209D01*
X153313986Y-113523213D01*
X153312605Y-113532082D01*
X153330414Y-113668273D01*
X153385732Y-113793992D01*
X153391510Y-113800865D01*
X153391510Y-113800866D01*
X153468331Y-113892256D01*
X153474111Y-113899132D01*
X153588447Y-113975240D01*
X153719549Y-114016199D01*
X153856876Y-114018716D01*
X153866109Y-114016199D01*
X153980727Y-113984951D01*
X153989391Y-113982589D01*
X154061808Y-113938125D01*
X154127736Y-113919500D01*
X161236491Y-113919500D01*
X161304612Y-113939502D01*
X161343652Y-113981979D01*
X161343791Y-113981876D01*
X161424990Y-114091810D01*
X161534924Y-114173009D01*
X161663873Y-114218293D01*
X161671515Y-114219015D01*
X161671518Y-114219016D01*
X161686421Y-114220424D01*
X161695685Y-114221300D01*
X162349669Y-114221300D01*
X163004314Y-114221299D01*
X163007262Y-114221020D01*
X163007271Y-114221020D01*
X163028478Y-114219016D01*
X163028480Y-114219016D01*
X163036127Y-114218293D01*
X163165076Y-114173009D01*
X163275010Y-114091810D01*
X163356209Y-113981876D01*
X163401493Y-113852927D01*
X163404500Y-113821115D01*
X163404499Y-113312486D01*
X163401493Y-113280673D01*
X163372124Y-113197043D01*
X163368426Y-113126143D01*
X163401912Y-113066200D01*
X163505869Y-112962243D01*
X163515176Y-112950374D01*
X163596079Y-112816788D01*
X163602285Y-112803043D01*
X163649256Y-112653156D01*
X163651869Y-112640106D01*
X163656913Y-112585214D01*
X163653525Y-112573676D01*
X163652135Y-112572471D01*
X163644452Y-112570800D01*
X161060116Y-112570800D01*
X161044877Y-112575275D01*
X161043672Y-112576665D01*
X161042709Y-112581094D01*
X161048132Y-112640115D01*
X161050743Y-112653151D01*
X161097715Y-112803043D01*
X161103921Y-112816788D01*
X161184824Y-112950374D01*
X161186687Y-112952750D01*
X161187504Y-112954800D01*
X161188758Y-112956870D01*
X161188413Y-112957079D01*
X161212982Y-113018698D01*
X161199449Y-113088392D01*
X161150384Y-113139707D01*
X161087536Y-113156500D01*
X157310598Y-113156500D01*
X157242477Y-113136498D01*
X157195984Y-113082842D01*
X157186344Y-113009596D01*
X157201479Y-112919633D01*
X157202286Y-112914836D01*
X157202431Y-112903000D01*
X157201584Y-112897082D01*
X157184232Y-112775923D01*
X157184232Y-112775921D01*
X157182959Y-112767036D01*
X157126110Y-112642003D01*
X157036453Y-112537951D01*
X156921196Y-112463244D01*
X156789603Y-112423890D01*
X156780627Y-112423835D01*
X156780626Y-112423835D01*
X156724098Y-112423490D01*
X156652255Y-112423051D01*
X156648288Y-112424185D01*
X156580496Y-112413977D01*
X156527151Y-112367127D01*
X156507600Y-112299715D01*
X156507599Y-112051787D01*
X156527601Y-111983666D01*
X156581256Y-111937173D01*
X156651530Y-111927068D01*
X156675355Y-111934828D01*
X156675924Y-111933209D01*
X156804873Y-111978493D01*
X156812515Y-111979215D01*
X156812518Y-111979216D01*
X156825513Y-111980444D01*
X156836685Y-111981500D01*
X157090828Y-111981500D01*
X157345314Y-111981499D01*
X157348262Y-111981220D01*
X157348271Y-111981220D01*
X157369478Y-111979216D01*
X157369480Y-111979216D01*
X157377127Y-111978493D01*
X157506076Y-111933209D01*
X157616010Y-111852010D01*
X157697209Y-111742076D01*
X157742493Y-111613127D01*
X157743476Y-111602734D01*
X157745108Y-111585458D01*
X157745500Y-111581315D01*
X157745499Y-110922686D01*
X157745499Y-110922685D01*
X158086500Y-110922685D01*
X158086501Y-111581314D01*
X158086780Y-111584262D01*
X158086780Y-111584271D01*
X158088784Y-111605478D01*
X158089507Y-111613127D01*
X158134791Y-111742076D01*
X158215990Y-111852010D01*
X158325924Y-111933209D01*
X158454873Y-111978493D01*
X158462515Y-111979215D01*
X158462518Y-111979216D01*
X158475513Y-111980444D01*
X158486685Y-111981500D01*
X158740828Y-111981500D01*
X158995314Y-111981499D01*
X158998262Y-111981220D01*
X158998271Y-111981220D01*
X159019478Y-111979216D01*
X159019480Y-111979216D01*
X159027127Y-111978493D01*
X159156076Y-111933209D01*
X159266010Y-111852010D01*
X159342730Y-111748140D01*
X159399291Y-111705230D01*
X159444081Y-111697000D01*
X160424913Y-111697000D01*
X160439723Y-111697873D01*
X160472936Y-111701804D01*
X160529941Y-111691393D01*
X160533834Y-111690745D01*
X160550042Y-111688308D01*
X160591126Y-111682132D01*
X160597557Y-111679044D01*
X160604571Y-111677763D01*
X160655985Y-111651056D01*
X160659525Y-111649287D01*
X160703256Y-111628288D01*
X160703257Y-111628287D01*
X160711752Y-111624208D01*
X160716990Y-111619366D01*
X160723318Y-111616079D01*
X160728309Y-111611816D01*
X160765088Y-111575037D01*
X160768627Y-111571633D01*
X160797142Y-111545274D01*
X160860741Y-111513723D01*
X160882669Y-111511800D01*
X161065029Y-111511800D01*
X161133150Y-111531802D01*
X161179643Y-111585458D01*
X161189747Y-111655732D01*
X161172805Y-111703072D01*
X161103921Y-111816812D01*
X161097715Y-111830557D01*
X161050744Y-111980444D01*
X161048131Y-111993494D01*
X161043087Y-112048386D01*
X161046475Y-112059924D01*
X161047865Y-112061129D01*
X161055548Y-112062800D01*
X163639884Y-112062800D01*
X163655123Y-112058325D01*
X163656328Y-112056935D01*
X163657291Y-112052506D01*
X163651868Y-111993485D01*
X163649257Y-111980449D01*
X163602285Y-111830557D01*
X163596079Y-111816812D01*
X163515176Y-111683226D01*
X163505869Y-111671357D01*
X163401912Y-111567400D01*
X163367886Y-111505088D01*
X163372124Y-111436557D01*
X163389883Y-111385986D01*
X163401493Y-111352927D01*
X163404500Y-111321115D01*
X163404499Y-110812486D01*
X163401493Y-110780673D01*
X163356209Y-110651724D01*
X163275010Y-110541790D01*
X163267439Y-110536198D01*
X163262136Y-110530895D01*
X163228110Y-110468583D01*
X163233175Y-110397768D01*
X163262136Y-110352705D01*
X163267439Y-110347402D01*
X163275010Y-110341810D01*
X163356209Y-110231876D01*
X163401493Y-110102927D01*
X163404500Y-110071115D01*
X163404499Y-109562486D01*
X163403766Y-109554723D01*
X163402216Y-109538322D01*
X163402216Y-109538320D01*
X163401493Y-109530673D01*
X163356209Y-109401724D01*
X163275010Y-109291790D01*
X163267439Y-109286198D01*
X163262136Y-109280895D01*
X163228110Y-109218583D01*
X163233175Y-109147768D01*
X163262136Y-109102705D01*
X163267439Y-109097402D01*
X163275010Y-109091810D01*
X163356209Y-108981876D01*
X163401493Y-108852927D01*
X163404500Y-108821115D01*
X163404499Y-108312486D01*
X163401493Y-108280673D01*
X163356209Y-108151724D01*
X163275010Y-108041790D01*
X163165076Y-107960591D01*
X163036127Y-107915307D01*
X163028485Y-107914585D01*
X163028482Y-107914584D01*
X163013579Y-107913176D01*
X163004315Y-107912300D01*
X162350331Y-107912300D01*
X161695686Y-107912301D01*
X161692738Y-107912580D01*
X161692729Y-107912580D01*
X161671522Y-107914584D01*
X161671520Y-107914584D01*
X161663873Y-107915307D01*
X161534924Y-107960591D01*
X161424990Y-108041790D01*
X161419398Y-108049361D01*
X161388155Y-108091660D01*
X161331594Y-108134571D01*
X161286804Y-108142800D01*
X161021315Y-108142800D01*
X160953194Y-108122798D01*
X160932220Y-108105895D01*
X159977627Y-107151302D01*
X159967772Y-107140213D01*
X159962545Y-107133583D01*
X159947064Y-107113945D01*
X159939317Y-107108590D01*
X159939315Y-107108589D01*
X159899419Y-107081016D01*
X159896196Y-107078713D01*
X159857160Y-107049880D01*
X159849581Y-107044282D01*
X159842850Y-107041918D01*
X159836984Y-107037864D01*
X159781766Y-107020401D01*
X159778025Y-107019153D01*
X159732214Y-107003065D01*
X159732209Y-107003064D01*
X159723327Y-106999945D01*
X159716198Y-106999665D01*
X159709400Y-106997515D01*
X159702857Y-106997000D01*
X159650841Y-106997000D01*
X159645895Y-106996903D01*
X159645633Y-106996893D01*
X159589616Y-106994692D01*
X159582581Y-106996557D01*
X159574535Y-106997000D01*
X159444081Y-106997000D01*
X159375960Y-106976998D01*
X159342730Y-106945860D01*
X159321456Y-106917057D01*
X159282190Y-106863896D01*
X163242000Y-106863896D01*
X163242337Y-106870411D01*
X163252256Y-106966003D01*
X163255150Y-106979402D01*
X163306588Y-107133583D01*
X163312762Y-107146762D01*
X163398063Y-107284607D01*
X163407099Y-107296008D01*
X163521830Y-107410539D01*
X163533241Y-107419551D01*
X163671245Y-107504618D01*
X163684423Y-107510762D01*
X163838716Y-107561939D01*
X163852081Y-107564805D01*
X163946439Y-107574472D01*
X163952855Y-107574800D01*
X164977885Y-107574800D01*
X164993124Y-107570325D01*
X164994329Y-107568935D01*
X164996000Y-107561252D01*
X164996000Y-107556685D01*
X165504000Y-107556685D01*
X165508475Y-107571924D01*
X165509865Y-107573129D01*
X165517548Y-107574800D01*
X166547096Y-107574800D01*
X166553611Y-107574463D01*
X166649203Y-107564544D01*
X166662602Y-107561650D01*
X166816783Y-107510212D01*
X166829962Y-107504038D01*
X166967807Y-107418737D01*
X166979208Y-107409701D01*
X167093739Y-107294970D01*
X167102751Y-107283559D01*
X167187818Y-107145555D01*
X167193962Y-107132377D01*
X167245139Y-106978084D01*
X167248005Y-106964719D01*
X167257672Y-106870361D01*
X167258000Y-106863945D01*
X167258000Y-106288915D01*
X167253525Y-106273676D01*
X167252135Y-106272471D01*
X167244452Y-106270800D01*
X165522115Y-106270800D01*
X165506876Y-106275275D01*
X165505671Y-106276665D01*
X165504000Y-106284348D01*
X165504000Y-107556685D01*
X164996000Y-107556685D01*
X164996000Y-106288915D01*
X164991525Y-106273676D01*
X164990135Y-106272471D01*
X164982452Y-106270800D01*
X163260115Y-106270800D01*
X163244876Y-106275275D01*
X163243671Y-106276665D01*
X163242000Y-106284348D01*
X163242000Y-106863896D01*
X159282190Y-106863896D01*
X159266010Y-106841990D01*
X159156076Y-106760791D01*
X159027127Y-106715507D01*
X159019485Y-106714785D01*
X159019482Y-106714784D01*
X159004579Y-106713376D01*
X158995315Y-106712500D01*
X158741172Y-106712500D01*
X158486686Y-106712501D01*
X158483738Y-106712780D01*
X158483729Y-106712780D01*
X158462522Y-106714784D01*
X158462520Y-106714784D01*
X158454873Y-106715507D01*
X158325924Y-106760791D01*
X158215990Y-106841990D01*
X158134791Y-106951924D01*
X158089507Y-107080873D01*
X158086500Y-107112685D01*
X158086501Y-107771314D01*
X158086780Y-107774262D01*
X158086780Y-107774271D01*
X158088784Y-107795478D01*
X158089507Y-107803127D01*
X158134791Y-107932076D01*
X158215990Y-108042010D01*
X158325924Y-108123209D01*
X158454873Y-108168493D01*
X158462515Y-108169215D01*
X158462518Y-108169216D01*
X158477421Y-108170624D01*
X158486685Y-108171500D01*
X158740828Y-108171500D01*
X158995314Y-108171499D01*
X158998262Y-108171220D01*
X158998271Y-108171220D01*
X159019478Y-108169216D01*
X159019480Y-108169216D01*
X159027127Y-108168493D01*
X159156076Y-108123209D01*
X159266010Y-108042010D01*
X159325059Y-107962065D01*
X159381620Y-107919154D01*
X159452402Y-107913635D01*
X159515505Y-107947830D01*
X160280593Y-108712918D01*
X160314619Y-108775230D01*
X160309554Y-108846045D01*
X160267007Y-108902881D01*
X160200487Y-108927692D01*
X160149750Y-108920896D01*
X160117497Y-108909570D01*
X160104327Y-108904945D01*
X160097198Y-108904665D01*
X160090400Y-108902515D01*
X160083857Y-108902000D01*
X160031841Y-108902000D01*
X160026895Y-108901903D01*
X160026633Y-108901893D01*
X159970616Y-108899692D01*
X159963581Y-108901557D01*
X159955535Y-108902000D01*
X159442013Y-108902000D01*
X159373892Y-108881998D01*
X159340662Y-108850860D01*
X159271602Y-108757361D01*
X159266010Y-108749790D01*
X159156076Y-108668591D01*
X159027127Y-108623307D01*
X159019485Y-108622585D01*
X159019482Y-108622584D01*
X159004579Y-108621176D01*
X158995315Y-108620300D01*
X158741172Y-108620300D01*
X158486686Y-108620301D01*
X158483738Y-108620580D01*
X158483729Y-108620580D01*
X158462522Y-108622584D01*
X158462520Y-108622584D01*
X158454873Y-108623307D01*
X158325924Y-108668591D01*
X158215990Y-108749790D01*
X158134791Y-108859724D01*
X158089507Y-108988673D01*
X158088785Y-108996315D01*
X158088784Y-108996318D01*
X158088103Y-109003525D01*
X158086500Y-109020485D01*
X158086501Y-109679114D01*
X158086780Y-109682062D01*
X158086780Y-109682071D01*
X158088784Y-109703278D01*
X158089507Y-109710927D01*
X158134791Y-109839876D01*
X158215990Y-109949810D01*
X158325924Y-110031009D01*
X158454873Y-110076293D01*
X158462515Y-110077015D01*
X158462518Y-110077016D01*
X158477421Y-110078424D01*
X158486685Y-110079300D01*
X158740828Y-110079300D01*
X158995314Y-110079299D01*
X158998262Y-110079020D01*
X158998271Y-110079020D01*
X159019478Y-110077016D01*
X159019480Y-110077016D01*
X159027127Y-110076293D01*
X159156076Y-110031009D01*
X159266010Y-109949810D01*
X159271602Y-109942239D01*
X159271605Y-109942236D01*
X159344798Y-109843141D01*
X159401359Y-109800230D01*
X159446149Y-109792000D01*
X159783485Y-109792000D01*
X159851606Y-109812002D01*
X159872580Y-109828905D01*
X160192173Y-110148498D01*
X160202028Y-110159587D01*
X160222736Y-110185855D01*
X160230483Y-110191210D01*
X160230485Y-110191211D01*
X160270381Y-110218784D01*
X160273604Y-110221087D01*
X160320219Y-110255518D01*
X160326950Y-110257882D01*
X160332816Y-110261936D01*
X160388034Y-110279399D01*
X160391775Y-110280647D01*
X160437586Y-110296735D01*
X160437591Y-110296736D01*
X160446473Y-110299855D01*
X160453602Y-110300135D01*
X160460400Y-110302285D01*
X160466943Y-110302800D01*
X160518958Y-110302800D01*
X160523904Y-110302897D01*
X160580183Y-110305108D01*
X160587218Y-110303243D01*
X160595264Y-110302800D01*
X161335769Y-110302800D01*
X161403890Y-110322802D01*
X161421334Y-110336860D01*
X161424990Y-110341810D01*
X161432561Y-110347402D01*
X161437864Y-110352705D01*
X161471890Y-110415017D01*
X161466825Y-110485832D01*
X161437864Y-110530895D01*
X161432561Y-110536198D01*
X161424990Y-110541790D01*
X161419398Y-110549361D01*
X161403666Y-110570660D01*
X161347104Y-110613571D01*
X161302315Y-110621800D01*
X160677887Y-110621800D01*
X160663077Y-110620927D01*
X160639217Y-110618103D01*
X160629864Y-110616996D01*
X160620600Y-110618688D01*
X160620599Y-110618688D01*
X160572874Y-110627404D01*
X160568970Y-110628054D01*
X160520985Y-110635268D01*
X160520984Y-110635268D01*
X160511674Y-110636668D01*
X160505244Y-110639756D01*
X160498228Y-110641037D01*
X160489871Y-110645378D01*
X160489866Y-110645380D01*
X160446807Y-110667748D01*
X160443330Y-110669486D01*
X160391048Y-110694592D01*
X160385808Y-110699436D01*
X160379482Y-110702722D01*
X160374491Y-110706984D01*
X160337712Y-110743763D01*
X160334173Y-110747167D01*
X160305658Y-110773526D01*
X160242059Y-110805077D01*
X160220131Y-110807000D01*
X159444081Y-110807000D01*
X159375960Y-110786998D01*
X159342730Y-110755860D01*
X159341613Y-110754348D01*
X159266010Y-110651990D01*
X159156076Y-110570791D01*
X159027127Y-110525507D01*
X159019485Y-110524785D01*
X159019482Y-110524784D01*
X159004579Y-110523376D01*
X158995315Y-110522500D01*
X158741172Y-110522500D01*
X158486686Y-110522501D01*
X158483738Y-110522780D01*
X158483729Y-110522780D01*
X158462522Y-110524784D01*
X158462520Y-110524784D01*
X158454873Y-110525507D01*
X158325924Y-110570791D01*
X158215990Y-110651990D01*
X158134791Y-110761924D01*
X158089507Y-110890873D01*
X158086500Y-110922685D01*
X157745499Y-110922685D01*
X157742493Y-110890873D01*
X157697209Y-110761924D01*
X157616010Y-110651990D01*
X157506076Y-110570791D01*
X157377127Y-110525507D01*
X157369485Y-110524785D01*
X157369482Y-110524784D01*
X157354579Y-110523376D01*
X157345315Y-110522500D01*
X157091172Y-110522500D01*
X156836686Y-110522501D01*
X156833738Y-110522780D01*
X156833729Y-110522780D01*
X156812522Y-110524784D01*
X156812520Y-110524784D01*
X156804873Y-110525507D01*
X156675924Y-110570791D01*
X156565990Y-110651990D01*
X156484791Y-110761924D01*
X156481671Y-110770808D01*
X156481669Y-110770812D01*
X156472105Y-110798048D01*
X156430662Y-110855694D01*
X156364632Y-110881782D01*
X156353222Y-110882300D01*
X156194343Y-110882300D01*
X156124341Y-110861065D01*
X156109218Y-110850960D01*
X156109219Y-110850960D01*
X156098901Y-110844066D01*
X156086732Y-110841645D01*
X156086731Y-110841645D01*
X156030735Y-110830507D01*
X156024667Y-110829300D01*
X155874625Y-110829300D01*
X155724534Y-110829301D01*
X155688782Y-110836412D01*
X155662474Y-110841644D01*
X155662472Y-110841645D01*
X155650299Y-110844066D01*
X155649249Y-110844767D01*
X155586337Y-110851530D01*
X155522851Y-110819749D01*
X155486624Y-110758690D01*
X155489160Y-110687739D01*
X155507885Y-110651967D01*
X155560586Y-110581648D01*
X155569124Y-110566054D01*
X155614278Y-110445606D01*
X155617905Y-110430351D01*
X155623431Y-110379486D01*
X155623800Y-110372673D01*
X155623799Y-109923332D01*
X155623430Y-109916512D01*
X155618476Y-109870906D01*
X155631005Y-109801023D01*
X155679327Y-109749009D01*
X155743739Y-109731300D01*
X156357366Y-109731300D01*
X156425487Y-109751302D01*
X156471980Y-109804958D01*
X156476247Y-109815545D01*
X156484791Y-109839876D01*
X156490383Y-109847446D01*
X156490384Y-109847449D01*
X156546429Y-109923327D01*
X156565990Y-109949810D01*
X156675924Y-110031009D01*
X156804873Y-110076293D01*
X156812515Y-110077015D01*
X156812518Y-110077016D01*
X156827421Y-110078424D01*
X156836685Y-110079300D01*
X157090828Y-110079300D01*
X157345314Y-110079299D01*
X157348262Y-110079020D01*
X157348271Y-110079020D01*
X157369478Y-110077016D01*
X157369480Y-110077016D01*
X157377127Y-110076293D01*
X157506076Y-110031009D01*
X157616010Y-109949810D01*
X157697209Y-109839876D01*
X157742493Y-109710927D01*
X157743941Y-109695614D01*
X157745200Y-109682288D01*
X157745500Y-109679115D01*
X157745499Y-109020486D01*
X157743897Y-109003525D01*
X157743216Y-108996322D01*
X157743215Y-108996318D01*
X157742493Y-108988673D01*
X157697209Y-108859724D01*
X157616010Y-108749790D01*
X157506076Y-108668591D01*
X157377127Y-108623307D01*
X157369485Y-108622585D01*
X157369482Y-108622584D01*
X157354579Y-108621176D01*
X157345315Y-108620300D01*
X157091172Y-108620300D01*
X156836686Y-108620301D01*
X156833738Y-108620580D01*
X156833729Y-108620580D01*
X156812522Y-108622584D01*
X156812520Y-108622584D01*
X156804873Y-108623307D01*
X156675924Y-108668591D01*
X156565990Y-108749790D01*
X156560398Y-108757361D01*
X156490384Y-108852151D01*
X156490383Y-108852154D01*
X156484791Y-108859724D01*
X156476249Y-108884049D01*
X156434805Y-108941694D01*
X156368776Y-108967782D01*
X156357366Y-108968300D01*
X155371835Y-108968300D01*
X155303714Y-108948298D01*
X155299590Y-108944974D01*
X155299284Y-108944516D01*
X155294804Y-108941522D01*
X155225420Y-108895161D01*
X155215101Y-108888266D01*
X155140867Y-108873500D01*
X154990825Y-108873500D01*
X154840734Y-108873501D01*
X154804982Y-108880612D01*
X154778674Y-108885844D01*
X154778672Y-108885845D01*
X154766499Y-108888266D01*
X154756179Y-108895161D01*
X154756178Y-108895162D01*
X154682316Y-108944516D01*
X154680315Y-108941522D01*
X154636548Y-108965421D01*
X154609765Y-108968300D01*
X154010013Y-108968300D01*
X153941892Y-108948298D01*
X153920918Y-108931395D01*
X152564405Y-107574882D01*
X152530379Y-107512570D01*
X152527500Y-107485787D01*
X152527500Y-101565480D01*
X152547502Y-101497359D01*
X152601158Y-101450866D01*
X152671432Y-101440762D01*
X152723318Y-101460592D01*
X152826447Y-101529240D01*
X152957549Y-101570199D01*
X153094876Y-101572716D01*
X153104109Y-101570199D01*
X153218727Y-101538951D01*
X153227391Y-101536589D01*
X153344439Y-101464721D01*
X153436612Y-101362890D01*
X153439741Y-101356432D01*
X153493718Y-101311722D01*
X153564199Y-101303183D01*
X153628108Y-101334104D01*
X153665155Y-101394668D01*
X153669500Y-101427471D01*
X153669500Y-106625865D01*
X153666914Y-106650164D01*
X153666846Y-106651602D01*
X153664655Y-106661780D01*
X153665879Y-106672120D01*
X153668627Y-106695342D01*
X153668979Y-106701320D01*
X153669072Y-106701312D01*
X153669500Y-106706490D01*
X153669500Y-106711692D01*
X153670354Y-106716822D01*
X153672686Y-106730832D01*
X153673523Y-106736711D01*
X153677337Y-106768935D01*
X153679582Y-106787907D01*
X153683567Y-106796206D01*
X153685078Y-106805283D01*
X153709558Y-106850651D01*
X153712239Y-106855914D01*
X153731127Y-106895250D01*
X153731130Y-106895254D01*
X153734560Y-106902398D01*
X153738170Y-106906692D01*
X153740102Y-106908624D01*
X153741889Y-106910573D01*
X153741918Y-106910626D01*
X153741788Y-106910745D01*
X153742289Y-106911313D01*
X153745388Y-106917057D01*
X153753033Y-106924124D01*
X153785209Y-106953867D01*
X153788775Y-106957297D01*
X154565649Y-107734171D01*
X154569881Y-107737195D01*
X154634368Y-107783279D01*
X154634370Y-107783280D01*
X154642843Y-107789335D01*
X154764524Y-107825725D01*
X154827978Y-107823232D01*
X154881029Y-107821148D01*
X154881030Y-107821148D01*
X154891433Y-107820739D01*
X154901143Y-107816983D01*
X154911344Y-107814870D01*
X154911716Y-107816667D01*
X154938321Y-107811700D01*
X155554857Y-107811700D01*
X155624859Y-107832935D01*
X155650299Y-107849934D01*
X155662468Y-107852355D01*
X155662469Y-107852355D01*
X155717414Y-107863284D01*
X155724533Y-107864700D01*
X155874575Y-107864700D01*
X156024666Y-107864699D01*
X156060418Y-107857588D01*
X156086726Y-107852356D01*
X156086728Y-107852355D01*
X156098901Y-107849934D01*
X156124341Y-107832935D01*
X156194343Y-107811700D01*
X156353222Y-107811700D01*
X156421343Y-107831702D01*
X156467836Y-107885358D01*
X156472105Y-107895952D01*
X156481669Y-107923188D01*
X156481671Y-107923192D01*
X156484791Y-107932076D01*
X156565990Y-108042010D01*
X156675924Y-108123209D01*
X156804873Y-108168493D01*
X156812515Y-108169215D01*
X156812518Y-108169216D01*
X156827421Y-108170624D01*
X156836685Y-108171500D01*
X157090828Y-108171500D01*
X157345314Y-108171499D01*
X157348262Y-108171220D01*
X157348271Y-108171220D01*
X157369478Y-108169216D01*
X157369480Y-108169216D01*
X157377127Y-108168493D01*
X157506076Y-108123209D01*
X157616010Y-108042010D01*
X157697209Y-107932076D01*
X157742493Y-107803127D01*
X157745500Y-107771315D01*
X157745499Y-107112686D01*
X157742493Y-107080873D01*
X157697209Y-106951924D01*
X157616010Y-106841990D01*
X157506076Y-106760791D01*
X157377127Y-106715507D01*
X157369485Y-106714785D01*
X157369482Y-106714784D01*
X157354579Y-106713376D01*
X157345315Y-106712500D01*
X157091172Y-106712500D01*
X156836686Y-106712501D01*
X156833738Y-106712780D01*
X156833729Y-106712780D01*
X156812522Y-106714784D01*
X156812520Y-106714784D01*
X156804873Y-106715507D01*
X156675924Y-106760791D01*
X156674666Y-106757208D01*
X156623091Y-106767775D01*
X156556876Y-106742161D01*
X156515020Y-106684815D01*
X156507600Y-106642214D01*
X156507599Y-106365532D01*
X156507229Y-106358710D01*
X156501705Y-106307848D01*
X156498079Y-106292596D01*
X156452924Y-106172146D01*
X156444386Y-106156551D01*
X156367885Y-106054476D01*
X156355324Y-106041915D01*
X156253249Y-105965414D01*
X156237654Y-105956876D01*
X156117206Y-105911722D01*
X156101951Y-105908095D01*
X156051086Y-105902569D01*
X156044273Y-105902200D01*
X155704932Y-105902201D01*
X155698110Y-105902571D01*
X155647248Y-105908095D01*
X155631996Y-105911721D01*
X155511546Y-105956876D01*
X155495951Y-105965414D01*
X155393876Y-106041915D01*
X155381315Y-106054476D01*
X155304814Y-106156551D01*
X155296276Y-106172146D01*
X155251122Y-106292594D01*
X155247495Y-106307849D01*
X155241969Y-106358714D01*
X155241600Y-106365527D01*
X155241601Y-106814868D01*
X155241971Y-106821690D01*
X155247494Y-106872549D01*
X155252489Y-106893558D01*
X155248784Y-106964458D01*
X155207336Y-107022100D01*
X155141305Y-107048183D01*
X155129905Y-107048700D01*
X155011413Y-107048700D01*
X154943292Y-107028698D01*
X154922318Y-107011795D01*
X154469405Y-106558882D01*
X154435379Y-106496570D01*
X154432500Y-106469787D01*
X154432500Y-105785082D01*
X157122605Y-105785082D01*
X157123769Y-105793984D01*
X157123769Y-105793987D01*
X157125554Y-105807633D01*
X157140414Y-105921273D01*
X157195732Y-106046992D01*
X157284111Y-106152132D01*
X157398447Y-106228240D01*
X157529549Y-106269199D01*
X157666876Y-106271716D01*
X157676109Y-106269199D01*
X157790727Y-106237951D01*
X157799391Y-106235589D01*
X157916439Y-106163721D01*
X157926929Y-106152132D01*
X158002584Y-106068550D01*
X158002585Y-106068549D01*
X158008612Y-106061890D01*
X158033791Y-106009922D01*
X158064585Y-105946362D01*
X158064585Y-105946361D01*
X158068499Y-105938283D01*
X158091286Y-105802836D01*
X158091431Y-105791000D01*
X158090584Y-105785082D01*
X158084798Y-105744685D01*
X163242000Y-105744685D01*
X163246475Y-105759924D01*
X163247865Y-105761129D01*
X163255548Y-105762800D01*
X164977885Y-105762800D01*
X164993124Y-105758325D01*
X164994329Y-105756935D01*
X164996000Y-105749252D01*
X164996000Y-105744685D01*
X165504000Y-105744685D01*
X165508475Y-105759924D01*
X165509865Y-105761129D01*
X165517548Y-105762800D01*
X167239885Y-105762800D01*
X167255124Y-105758325D01*
X167256329Y-105756935D01*
X167258000Y-105749252D01*
X167258000Y-105169704D01*
X167257663Y-105163189D01*
X167247744Y-105067597D01*
X167244850Y-105054198D01*
X167193412Y-104900017D01*
X167187238Y-104886838D01*
X167101937Y-104748993D01*
X167092901Y-104737592D01*
X166978170Y-104623061D01*
X166966759Y-104614049D01*
X166828755Y-104528982D01*
X166815577Y-104522838D01*
X166661284Y-104471661D01*
X166647919Y-104468795D01*
X166553561Y-104459128D01*
X166547144Y-104458800D01*
X165522115Y-104458800D01*
X165506876Y-104463275D01*
X165505671Y-104464665D01*
X165504000Y-104472348D01*
X165504000Y-105744685D01*
X164996000Y-105744685D01*
X164996000Y-104476915D01*
X164991525Y-104461676D01*
X164990135Y-104460471D01*
X164982452Y-104458800D01*
X163952904Y-104458800D01*
X163946389Y-104459137D01*
X163850797Y-104469056D01*
X163837398Y-104471950D01*
X163683217Y-104523388D01*
X163670038Y-104529562D01*
X163532193Y-104614863D01*
X163520792Y-104623899D01*
X163406261Y-104738630D01*
X163397249Y-104750041D01*
X163312182Y-104888045D01*
X163306038Y-104901223D01*
X163254861Y-105055516D01*
X163251995Y-105068881D01*
X163242328Y-105163239D01*
X163242000Y-105169656D01*
X163242000Y-105744685D01*
X158084798Y-105744685D01*
X158073232Y-105663923D01*
X158073232Y-105663921D01*
X158071959Y-105655036D01*
X158015110Y-105530003D01*
X157925453Y-105425951D01*
X157810196Y-105351244D01*
X157678603Y-105311890D01*
X157669627Y-105311835D01*
X157669626Y-105311835D01*
X157612080Y-105311484D01*
X157541255Y-105311051D01*
X157409192Y-105348795D01*
X157401605Y-105353582D01*
X157401603Y-105353583D01*
X157368135Y-105374700D01*
X157293031Y-105422087D01*
X157287088Y-105428816D01*
X157248811Y-105472156D01*
X157202109Y-105525036D01*
X157198295Y-105533159D01*
X157198294Y-105533161D01*
X157187348Y-105556475D01*
X157143736Y-105649366D01*
X157138827Y-105680894D01*
X157123986Y-105776209D01*
X157123986Y-105776213D01*
X157122605Y-105785082D01*
X154432500Y-105785082D01*
X154432500Y-92831082D01*
X155217605Y-92831082D01*
X155218769Y-92839984D01*
X155218769Y-92839987D01*
X155224587Y-92884473D01*
X155235414Y-92967273D01*
X155290732Y-93092992D01*
X155379111Y-93198132D01*
X155493447Y-93274240D01*
X155624549Y-93315199D01*
X155761876Y-93317716D01*
X155771109Y-93315199D01*
X155885727Y-93283951D01*
X155894391Y-93281589D01*
X155993091Y-93220987D01*
X156003791Y-93214417D01*
X156011439Y-93209721D01*
X156103612Y-93107890D01*
X156111833Y-93090923D01*
X156159585Y-92992362D01*
X156159585Y-92992361D01*
X156163499Y-92984283D01*
X156186286Y-92848836D01*
X156186431Y-92837000D01*
X156185584Y-92831082D01*
X156168232Y-92709923D01*
X156168232Y-92709921D01*
X156166959Y-92701036D01*
X156110110Y-92576003D01*
X156020453Y-92471951D01*
X155905196Y-92397244D01*
X155773603Y-92357890D01*
X155764627Y-92357835D01*
X155764626Y-92357835D01*
X155707080Y-92357484D01*
X155636255Y-92357051D01*
X155504192Y-92394795D01*
X155496605Y-92399582D01*
X155496603Y-92399583D01*
X155454174Y-92426354D01*
X155388031Y-92468087D01*
X155297109Y-92571036D01*
X155238736Y-92695366D01*
X155230354Y-92749203D01*
X155218986Y-92822209D01*
X155218986Y-92822213D01*
X155217605Y-92831082D01*
X154432500Y-92831082D01*
X154432500Y-91650212D01*
X154452502Y-91582091D01*
X154469405Y-91561117D01*
X155882676Y-90147846D01*
X155901699Y-90132482D01*
X155902758Y-90131518D01*
X155911504Y-90125871D01*
X155917952Y-90117692D01*
X155917954Y-90117690D01*
X155932434Y-90099323D01*
X155936409Y-90094850D01*
X155936337Y-90094789D01*
X155939690Y-90090832D01*
X155943371Y-90087151D01*
X155954655Y-90071360D01*
X155958219Y-90066614D01*
X155983687Y-90034308D01*
X155990134Y-90026130D01*
X155993184Y-90017445D01*
X155998535Y-90009957D01*
X156013310Y-89960550D01*
X156015126Y-89954963D01*
X156032216Y-89906298D01*
X156032216Y-89906297D01*
X156034320Y-89907036D01*
X156062777Y-89854653D01*
X156125015Y-89820493D01*
X156196295Y-89825573D01*
X156257394Y-89848478D01*
X156272649Y-89852105D01*
X156323514Y-89857631D01*
X156330327Y-89858000D01*
X156669668Y-89857999D01*
X156676490Y-89857629D01*
X156727352Y-89852105D01*
X156742604Y-89848479D01*
X156863054Y-89803324D01*
X156878649Y-89794786D01*
X156980724Y-89718285D01*
X156993285Y-89705724D01*
X157069786Y-89603649D01*
X157078324Y-89588054D01*
X157123478Y-89467606D01*
X157127105Y-89452351D01*
X157132631Y-89401486D01*
X157133000Y-89394673D01*
X157132999Y-88945332D01*
X157132630Y-88938514D01*
X157128656Y-88901932D01*
X157141185Y-88832049D01*
X157189506Y-88780034D01*
X157258278Y-88762400D01*
X157325666Y-88784747D01*
X157355270Y-88813465D01*
X157368997Y-88832049D01*
X157399990Y-88874010D01*
X157509924Y-88955209D01*
X157638873Y-89000493D01*
X157646515Y-89001215D01*
X157646518Y-89001216D01*
X157661421Y-89002624D01*
X157670685Y-89003500D01*
X157924828Y-89003500D01*
X158179314Y-89003499D01*
X158182262Y-89003220D01*
X158182271Y-89003220D01*
X158203478Y-89001216D01*
X158203480Y-89001216D01*
X158211127Y-89000493D01*
X158340076Y-88955209D01*
X158450010Y-88874010D01*
X158531209Y-88764076D01*
X158576493Y-88635127D01*
X158577451Y-88625000D01*
X158579200Y-88606488D01*
X158579500Y-88603315D01*
X158579499Y-87944686D01*
X158579499Y-87944685D01*
X158920500Y-87944685D01*
X158920501Y-88603314D01*
X158920780Y-88606262D01*
X158920780Y-88606271D01*
X158922550Y-88625000D01*
X158923507Y-88635127D01*
X158968791Y-88764076D01*
X159049990Y-88874010D01*
X159159924Y-88955209D01*
X159288873Y-89000493D01*
X159296515Y-89001215D01*
X159296518Y-89001216D01*
X159311421Y-89002624D01*
X159320685Y-89003500D01*
X159574828Y-89003500D01*
X159829314Y-89003499D01*
X159832262Y-89003220D01*
X159832271Y-89003220D01*
X159853478Y-89001216D01*
X159853480Y-89001216D01*
X159861127Y-89000493D01*
X159990076Y-88955209D01*
X160100010Y-88874010D01*
X160176730Y-88770140D01*
X160233291Y-88727230D01*
X160278081Y-88719000D01*
X160303113Y-88719000D01*
X160317923Y-88719873D01*
X160351136Y-88723804D01*
X160408141Y-88713393D01*
X160412034Y-88712745D01*
X160445412Y-88707727D01*
X160469326Y-88704132D01*
X160475757Y-88701044D01*
X160482771Y-88699763D01*
X160534185Y-88673056D01*
X160537725Y-88671287D01*
X160581456Y-88650288D01*
X160581457Y-88650287D01*
X160589952Y-88646208D01*
X160595190Y-88641366D01*
X160601518Y-88638079D01*
X160606509Y-88633816D01*
X160633420Y-88606905D01*
X160695732Y-88572879D01*
X160722515Y-88570000D01*
X160745472Y-88570000D01*
X160813593Y-88590002D01*
X160860086Y-88643658D01*
X160870190Y-88713932D01*
X160840696Y-88778512D01*
X160834567Y-88785095D01*
X160290472Y-89329190D01*
X160276059Y-89341577D01*
X160258436Y-89354546D01*
X160253692Y-89360129D01*
X160253693Y-89360129D01*
X160224021Y-89395055D01*
X160217091Y-89402571D01*
X160211347Y-89408315D01*
X160209073Y-89411189D01*
X160209067Y-89411196D01*
X160193628Y-89430711D01*
X160190837Y-89434115D01*
X160148055Y-89484472D01*
X160148052Y-89484476D01*
X160143316Y-89490051D01*
X160139988Y-89496568D01*
X160136611Y-89501632D01*
X160133384Y-89506856D01*
X160128840Y-89512600D01*
X160125741Y-89519231D01*
X160097768Y-89579082D01*
X160095837Y-89583033D01*
X160062457Y-89648404D01*
X160060716Y-89655519D01*
X160058579Y-89661265D01*
X160056655Y-89667048D01*
X160053556Y-89673679D01*
X160052066Y-89680843D01*
X160038608Y-89745547D01*
X160037639Y-89749829D01*
X160020196Y-89821112D01*
X160019500Y-89832330D01*
X160019461Y-89832328D01*
X160019228Y-89836229D01*
X160018839Y-89840588D01*
X160017348Y-89847756D01*
X160017546Y-89855073D01*
X160019454Y-89925577D01*
X160019500Y-89928986D01*
X160019500Y-94342025D01*
X160034899Y-94474107D01*
X160037395Y-94480984D01*
X160037396Y-94480987D01*
X160070292Y-94571613D01*
X160095566Y-94641241D01*
X160193054Y-94789935D01*
X160322135Y-94912214D01*
X160475884Y-95001519D01*
X160646054Y-95053058D01*
X160823516Y-95064068D01*
X160830732Y-95062828D01*
X160830734Y-95062828D01*
X160991535Y-95035197D01*
X160998751Y-95033957D01*
X161162359Y-94964341D01*
X161305564Y-94858954D01*
X161356414Y-94799100D01*
X161415945Y-94729028D01*
X161415948Y-94729024D01*
X161420684Y-94723449D01*
X161501543Y-94565096D01*
X161543804Y-94392388D01*
X161544500Y-94381170D01*
X161544500Y-92647096D01*
X163084000Y-92647096D01*
X163084337Y-92653611D01*
X163094256Y-92749203D01*
X163097150Y-92762602D01*
X163148588Y-92916783D01*
X163154762Y-92929962D01*
X163240063Y-93067807D01*
X163249099Y-93079208D01*
X163363830Y-93193739D01*
X163375241Y-93202751D01*
X163513245Y-93287818D01*
X163526423Y-93293962D01*
X163680716Y-93345139D01*
X163694081Y-93348005D01*
X163788439Y-93357672D01*
X163794855Y-93358000D01*
X164819885Y-93358000D01*
X164835124Y-93353525D01*
X164836329Y-93352135D01*
X164838000Y-93344452D01*
X164838000Y-93339885D01*
X165346000Y-93339885D01*
X165350475Y-93355124D01*
X165351865Y-93356329D01*
X165359548Y-93358000D01*
X166389096Y-93358000D01*
X166395611Y-93357663D01*
X166491203Y-93347744D01*
X166504602Y-93344850D01*
X166658783Y-93293412D01*
X166671962Y-93287238D01*
X166809807Y-93201937D01*
X166821208Y-93192901D01*
X166935739Y-93078170D01*
X166944751Y-93066759D01*
X167029818Y-92928755D01*
X167035962Y-92915577D01*
X167087139Y-92761284D01*
X167090005Y-92747919D01*
X167099672Y-92653561D01*
X167100000Y-92647145D01*
X167100000Y-92072115D01*
X167095525Y-92056876D01*
X167094135Y-92055671D01*
X167086452Y-92054000D01*
X165364115Y-92054000D01*
X165348876Y-92058475D01*
X165347671Y-92059865D01*
X165346000Y-92067548D01*
X165346000Y-93339885D01*
X164838000Y-93339885D01*
X164838000Y-92072115D01*
X164833525Y-92056876D01*
X164832135Y-92055671D01*
X164824452Y-92054000D01*
X163102115Y-92054000D01*
X163086876Y-92058475D01*
X163085671Y-92059865D01*
X163084000Y-92067548D01*
X163084000Y-92647096D01*
X161544500Y-92647096D01*
X161544500Y-91527885D01*
X163084000Y-91527885D01*
X163088475Y-91543124D01*
X163089865Y-91544329D01*
X163097548Y-91546000D01*
X164819885Y-91546000D01*
X164835124Y-91541525D01*
X164836329Y-91540135D01*
X164838000Y-91532452D01*
X164838000Y-91527885D01*
X165346000Y-91527885D01*
X165350475Y-91543124D01*
X165351865Y-91544329D01*
X165359548Y-91546000D01*
X167081885Y-91546000D01*
X167097124Y-91541525D01*
X167098329Y-91540135D01*
X167100000Y-91532452D01*
X167100000Y-90952904D01*
X167099663Y-90946389D01*
X167089744Y-90850797D01*
X167086850Y-90837398D01*
X167035412Y-90683217D01*
X167029238Y-90670038D01*
X166943937Y-90532193D01*
X166934901Y-90520792D01*
X166820170Y-90406261D01*
X166808759Y-90397249D01*
X166670755Y-90312182D01*
X166657577Y-90306038D01*
X166503284Y-90254861D01*
X166489919Y-90251995D01*
X166395561Y-90242328D01*
X166389144Y-90242000D01*
X165364115Y-90242000D01*
X165348876Y-90246475D01*
X165347671Y-90247865D01*
X165346000Y-90255548D01*
X165346000Y-91527885D01*
X164838000Y-91527885D01*
X164838000Y-90260115D01*
X164833525Y-90244876D01*
X164832135Y-90243671D01*
X164824452Y-90242000D01*
X163794904Y-90242000D01*
X163788389Y-90242337D01*
X163692797Y-90252256D01*
X163679398Y-90255150D01*
X163525217Y-90306588D01*
X163512038Y-90312762D01*
X163374193Y-90398063D01*
X163362792Y-90407099D01*
X163248261Y-90521830D01*
X163239249Y-90533241D01*
X163154182Y-90671245D01*
X163148038Y-90684423D01*
X163096861Y-90838716D01*
X163093995Y-90852081D01*
X163084328Y-90946439D01*
X163084000Y-90952856D01*
X163084000Y-91527885D01*
X161544500Y-91527885D01*
X161544500Y-90284028D01*
X161564502Y-90215907D01*
X161581405Y-90194933D01*
X161663433Y-90112905D01*
X161725745Y-90078879D01*
X161752528Y-90076000D01*
X161982525Y-90076000D01*
X162075402Y-90065172D01*
X162107335Y-90061449D01*
X162107337Y-90061449D01*
X162114607Y-90060601D01*
X162121484Y-90058105D01*
X162121487Y-90058104D01*
X162274862Y-90002431D01*
X162281741Y-89999934D01*
X162395840Y-89925127D01*
X162464925Y-89904499D01*
X162846314Y-89904499D01*
X162849262Y-89904220D01*
X162849271Y-89904220D01*
X162870478Y-89902216D01*
X162870480Y-89902216D01*
X162878127Y-89901493D01*
X163007076Y-89856209D01*
X163117010Y-89775010D01*
X163198209Y-89665076D01*
X163243493Y-89536127D01*
X163246500Y-89504315D01*
X163246499Y-88995686D01*
X163243493Y-88963873D01*
X163198209Y-88834924D01*
X163117010Y-88724990D01*
X163109439Y-88719398D01*
X163104136Y-88714095D01*
X163070110Y-88651783D01*
X163075175Y-88580968D01*
X163104136Y-88535905D01*
X163109439Y-88530602D01*
X163117010Y-88525010D01*
X163198209Y-88415076D01*
X163243493Y-88286127D01*
X163246500Y-88254315D01*
X163246499Y-87745686D01*
X163244720Y-87726852D01*
X163244216Y-87721522D01*
X163244216Y-87721520D01*
X163243493Y-87713873D01*
X163198209Y-87584924D01*
X163117010Y-87474990D01*
X163109439Y-87469398D01*
X163104136Y-87464095D01*
X163070110Y-87401783D01*
X163075175Y-87330968D01*
X163104136Y-87285905D01*
X163109439Y-87280602D01*
X163117010Y-87275010D01*
X163198209Y-87165076D01*
X163243493Y-87036127D01*
X163246500Y-87004315D01*
X163246499Y-86495686D01*
X163245085Y-86480716D01*
X163244216Y-86471522D01*
X163244216Y-86471520D01*
X163243493Y-86463873D01*
X163214124Y-86380243D01*
X163210426Y-86309343D01*
X163243912Y-86249400D01*
X163347869Y-86145443D01*
X163357176Y-86133574D01*
X163438079Y-85999988D01*
X163444285Y-85986243D01*
X163491256Y-85836356D01*
X163493869Y-85823306D01*
X163498913Y-85768414D01*
X163495525Y-85756876D01*
X163494135Y-85755671D01*
X163486452Y-85754000D01*
X160902116Y-85754000D01*
X160886877Y-85758475D01*
X160885672Y-85759865D01*
X160884709Y-85764294D01*
X160890132Y-85823315D01*
X160892743Y-85836351D01*
X160939715Y-85986243D01*
X160945921Y-85999988D01*
X161026824Y-86133574D01*
X161036131Y-86145443D01*
X161107593Y-86216905D01*
X161141619Y-86279217D01*
X161136554Y-86350032D01*
X161094007Y-86406868D01*
X161027487Y-86431679D01*
X161018498Y-86432000D01*
X160698917Y-86432000D01*
X160627281Y-86409655D01*
X160597367Y-86388980D01*
X160594196Y-86386713D01*
X160555160Y-86357880D01*
X160547581Y-86352282D01*
X160540850Y-86349918D01*
X160534984Y-86345864D01*
X160479766Y-86328401D01*
X160476025Y-86327153D01*
X160430214Y-86311065D01*
X160430209Y-86311064D01*
X160421327Y-86307945D01*
X160414198Y-86307665D01*
X160407400Y-86305515D01*
X160400857Y-86305000D01*
X160348841Y-86305000D01*
X160343895Y-86304903D01*
X160343596Y-86304891D01*
X160287616Y-86302692D01*
X160286953Y-86302868D01*
X160221586Y-86291268D01*
X160176312Y-86253294D01*
X160105602Y-86157561D01*
X160100010Y-86149990D01*
X159990076Y-86068791D01*
X159861127Y-86023507D01*
X159853485Y-86022785D01*
X159853482Y-86022784D01*
X159838579Y-86021376D01*
X159829315Y-86020500D01*
X159575172Y-86020500D01*
X159320686Y-86020501D01*
X159317738Y-86020780D01*
X159317729Y-86020780D01*
X159296522Y-86022784D01*
X159296520Y-86022784D01*
X159288873Y-86023507D01*
X159159924Y-86068791D01*
X159049990Y-86149990D01*
X158968791Y-86259924D01*
X158923507Y-86388873D01*
X158920500Y-86420685D01*
X158920501Y-87079314D01*
X158923507Y-87111127D01*
X158968791Y-87240076D01*
X159049990Y-87350010D01*
X159057561Y-87355602D01*
X159132088Y-87410649D01*
X159174998Y-87467210D01*
X159180518Y-87537992D01*
X159146894Y-87600521D01*
X159132088Y-87613351D01*
X159049990Y-87673990D01*
X158968791Y-87783924D01*
X158923507Y-87912873D01*
X158920500Y-87944685D01*
X158579499Y-87944685D01*
X158576493Y-87912873D01*
X158531209Y-87783924D01*
X158450010Y-87673990D01*
X158367912Y-87613351D01*
X158325002Y-87556790D01*
X158319482Y-87486008D01*
X158353106Y-87423479D01*
X158367912Y-87410649D01*
X158442439Y-87355602D01*
X158450010Y-87350010D01*
X158531209Y-87240076D01*
X158576493Y-87111127D01*
X158579500Y-87079315D01*
X158579499Y-86420686D01*
X158578194Y-86406868D01*
X158577216Y-86396522D01*
X158577215Y-86396518D01*
X158576493Y-86388873D01*
X158531209Y-86259924D01*
X158450010Y-86149990D01*
X158340076Y-86068791D01*
X158211127Y-86023507D01*
X158203485Y-86022785D01*
X158203482Y-86022784D01*
X158188579Y-86021376D01*
X158179315Y-86020500D01*
X157925343Y-86020500D01*
X157670686Y-86020501D01*
X157667721Y-86020781D01*
X157664863Y-86020916D01*
X157595875Y-86004147D01*
X157546905Y-85952742D01*
X157533500Y-85883023D01*
X157559916Y-85817124D01*
X157565508Y-85810501D01*
X157627612Y-85741890D01*
X157632307Y-85732201D01*
X157683585Y-85626362D01*
X157683585Y-85626361D01*
X157687499Y-85618283D01*
X157710286Y-85482836D01*
X157710431Y-85471000D01*
X157709625Y-85465368D01*
X157690959Y-85335036D01*
X157693778Y-85334632D01*
X157693840Y-85278160D01*
X157732289Y-85218476D01*
X157796903Y-85189054D01*
X157817003Y-85187812D01*
X157920876Y-85189716D01*
X157930109Y-85187199D01*
X158044727Y-85155951D01*
X158053391Y-85153589D01*
X158170439Y-85081721D01*
X158176463Y-85075066D01*
X158256584Y-84986550D01*
X158256585Y-84986549D01*
X158262612Y-84979890D01*
X158273678Y-84957051D01*
X158318585Y-84864362D01*
X158318585Y-84864361D01*
X158322499Y-84856283D01*
X158345286Y-84720836D01*
X158345431Y-84709000D01*
X158342641Y-84689513D01*
X158327232Y-84581923D01*
X158327232Y-84581921D01*
X158325959Y-84573036D01*
X158299251Y-84514294D01*
X160884709Y-84514294D01*
X160890132Y-84573315D01*
X160892743Y-84586351D01*
X160939715Y-84736243D01*
X160945920Y-84749985D01*
X160982102Y-84809728D01*
X161000281Y-84878358D01*
X160982102Y-84940272D01*
X160945920Y-85000015D01*
X160939715Y-85013757D01*
X160892744Y-85163644D01*
X160890131Y-85176694D01*
X160885087Y-85231586D01*
X160888475Y-85243124D01*
X160889865Y-85244329D01*
X160897548Y-85246000D01*
X161919885Y-85246000D01*
X161935124Y-85241525D01*
X161936329Y-85240135D01*
X161938000Y-85232452D01*
X161938000Y-85227885D01*
X162446000Y-85227885D01*
X162450475Y-85243124D01*
X162451865Y-85244329D01*
X162459548Y-85246000D01*
X163481884Y-85246000D01*
X163497123Y-85241525D01*
X163498328Y-85240135D01*
X163499291Y-85235706D01*
X163493868Y-85176685D01*
X163491257Y-85163649D01*
X163444285Y-85013757D01*
X163438080Y-85000015D01*
X163401898Y-84940272D01*
X163383719Y-84871642D01*
X163401898Y-84809728D01*
X163438080Y-84749985D01*
X163444285Y-84736243D01*
X163491256Y-84586356D01*
X163493869Y-84573306D01*
X163498913Y-84518414D01*
X163495525Y-84506876D01*
X163494135Y-84505671D01*
X163486452Y-84504000D01*
X162464115Y-84504000D01*
X162448876Y-84508475D01*
X162447671Y-84509865D01*
X162446000Y-84517548D01*
X162446000Y-85227885D01*
X161938000Y-85227885D01*
X161938000Y-84522115D01*
X161933525Y-84506876D01*
X161932135Y-84505671D01*
X161924452Y-84504000D01*
X160902116Y-84504000D01*
X160886877Y-84508475D01*
X160885672Y-84509865D01*
X160884709Y-84514294D01*
X158299251Y-84514294D01*
X158269110Y-84448003D01*
X158179453Y-84343951D01*
X158064196Y-84269244D01*
X157932603Y-84229890D01*
X157923627Y-84229835D01*
X157923626Y-84229835D01*
X157866080Y-84229484D01*
X157795255Y-84229051D01*
X157663192Y-84266795D01*
X157655605Y-84271582D01*
X157655603Y-84271583D01*
X157617813Y-84295427D01*
X157549528Y-84314861D01*
X157481577Y-84294292D01*
X157461483Y-84277960D01*
X157405044Y-84221521D01*
X157389685Y-84202505D01*
X157388719Y-84201444D01*
X157383071Y-84192696D01*
X157356528Y-84171771D01*
X157352050Y-84167792D01*
X157351990Y-84167863D01*
X157348033Y-84164510D01*
X157346269Y-84162746D01*
X157346123Y-84162524D01*
X157345439Y-84161916D01*
X157344352Y-84160829D01*
X157344747Y-84160434D01*
X157307630Y-84104056D01*
X157306088Y-84098174D01*
X157305493Y-84091873D01*
X157302623Y-84083699D01*
X157284680Y-84032606D01*
X157266763Y-83981586D01*
X160885087Y-83981586D01*
X160888475Y-83993124D01*
X160889865Y-83994329D01*
X160897548Y-83996000D01*
X161919885Y-83996000D01*
X161935124Y-83991525D01*
X161936329Y-83990135D01*
X161938000Y-83982452D01*
X161938000Y-83977885D01*
X162446000Y-83977885D01*
X162450475Y-83993124D01*
X162451865Y-83994329D01*
X162459548Y-83996000D01*
X163481884Y-83996000D01*
X163497123Y-83991525D01*
X163498328Y-83990135D01*
X163499291Y-83985706D01*
X163493868Y-83926685D01*
X163491257Y-83913649D01*
X163444285Y-83763757D01*
X163438079Y-83750012D01*
X163357176Y-83616426D01*
X163347869Y-83604557D01*
X163237443Y-83494131D01*
X163225574Y-83484824D01*
X163091988Y-83403921D01*
X163078243Y-83397715D01*
X162928356Y-83350744D01*
X162915306Y-83348131D01*
X162851479Y-83342266D01*
X162845691Y-83342000D01*
X162464115Y-83342000D01*
X162448876Y-83346475D01*
X162447671Y-83347865D01*
X162446000Y-83355548D01*
X162446000Y-83977885D01*
X161938000Y-83977885D01*
X161938000Y-83360116D01*
X161933525Y-83344877D01*
X161932135Y-83343672D01*
X161924452Y-83342001D01*
X161538295Y-83342001D01*
X161532546Y-83342264D01*
X161468685Y-83348132D01*
X161455649Y-83350743D01*
X161305757Y-83397715D01*
X161292012Y-83403921D01*
X161158426Y-83484824D01*
X161146557Y-83494131D01*
X161036131Y-83604557D01*
X161026824Y-83616426D01*
X160945921Y-83750012D01*
X160939715Y-83763757D01*
X160892744Y-83913644D01*
X160890131Y-83926694D01*
X160885087Y-83981586D01*
X157266763Y-83981586D01*
X157260209Y-83962924D01*
X157179010Y-83852990D01*
X157069076Y-83771791D01*
X156940127Y-83726507D01*
X156932485Y-83725785D01*
X156932482Y-83725784D01*
X156917579Y-83724376D01*
X156908315Y-83723500D01*
X156654172Y-83723500D01*
X156399686Y-83723501D01*
X156396738Y-83723780D01*
X156396729Y-83723780D01*
X156375522Y-83725784D01*
X156375520Y-83725784D01*
X156367873Y-83726507D01*
X156238924Y-83771791D01*
X156128990Y-83852990D01*
X156047791Y-83962924D01*
X156002507Y-84091873D01*
X155999500Y-84123685D01*
X155999501Y-84782314D01*
X155999780Y-84785262D01*
X155999780Y-84785271D01*
X155999969Y-84787271D01*
X156002507Y-84814127D01*
X156047791Y-84943076D01*
X156128990Y-85053010D01*
X156238924Y-85134209D01*
X156367873Y-85179493D01*
X156375515Y-85180215D01*
X156375518Y-85180216D01*
X156390421Y-85181624D01*
X156399685Y-85182500D01*
X156406057Y-85182500D01*
X156638690Y-85182499D01*
X156706809Y-85202501D01*
X156753302Y-85256156D01*
X156763407Y-85326430D01*
X156762766Y-85329302D01*
X156762736Y-85329366D01*
X156757069Y-85365761D01*
X156742986Y-85456209D01*
X156742986Y-85456213D01*
X156741605Y-85465082D01*
X156742769Y-85473984D01*
X156742769Y-85473987D01*
X156745458Y-85494550D01*
X156759414Y-85601273D01*
X156814732Y-85726992D01*
X156820510Y-85733865D01*
X156820510Y-85733866D01*
X156897331Y-85825256D01*
X156903111Y-85832132D01*
X157017447Y-85908240D01*
X157148549Y-85949199D01*
X157220840Y-85950524D01*
X157276905Y-85951552D01*
X157276908Y-85951552D01*
X157285876Y-85951716D01*
X157286592Y-85951521D01*
X157352574Y-85962281D01*
X157405344Y-86009777D01*
X157424058Y-86078263D01*
X157399431Y-86150747D01*
X157318791Y-86259924D01*
X157315670Y-86268811D01*
X157314391Y-86272453D01*
X157311928Y-86275878D01*
X157311264Y-86277133D01*
X157311092Y-86277042D01*
X157272946Y-86330097D01*
X157206915Y-86356183D01*
X157195510Y-86356700D01*
X156837920Y-86356700D01*
X156767918Y-86335465D01*
X156698620Y-86289161D01*
X156688301Y-86282266D01*
X156614067Y-86267500D01*
X156585013Y-86267500D01*
X156516892Y-86247498D01*
X156495918Y-86230595D01*
X155511326Y-85246003D01*
X155477300Y-85183691D01*
X155482365Y-85112876D01*
X155516755Y-85067246D01*
X155514775Y-85065266D01*
X155521439Y-85058602D01*
X155529010Y-85053010D01*
X155610209Y-84943076D01*
X155655493Y-84814127D01*
X155656439Y-84804127D01*
X155657624Y-84791579D01*
X155658500Y-84782315D01*
X155658499Y-84123686D01*
X155656405Y-84101518D01*
X155656216Y-84099522D01*
X155656215Y-84099518D01*
X155655493Y-84091873D01*
X155652623Y-84083699D01*
X155634680Y-84032606D01*
X155610209Y-83962924D01*
X155529010Y-83852990D01*
X155436640Y-83784764D01*
X155393730Y-83728203D01*
X155385500Y-83683413D01*
X155385500Y-82547096D01*
X163084000Y-82547096D01*
X163084337Y-82553611D01*
X163094256Y-82649203D01*
X163097150Y-82662602D01*
X163148588Y-82816783D01*
X163154762Y-82829962D01*
X163240063Y-82967807D01*
X163249099Y-82979208D01*
X163363830Y-83093739D01*
X163375241Y-83102751D01*
X163513245Y-83187818D01*
X163526423Y-83193962D01*
X163680716Y-83245139D01*
X163694081Y-83248005D01*
X163788439Y-83257672D01*
X163794855Y-83258000D01*
X164819885Y-83258000D01*
X164835124Y-83253525D01*
X164836329Y-83252135D01*
X164838000Y-83244452D01*
X164838000Y-83239885D01*
X165346000Y-83239885D01*
X165350475Y-83255124D01*
X165351865Y-83256329D01*
X165359548Y-83258000D01*
X166389096Y-83258000D01*
X166395611Y-83257663D01*
X166491203Y-83247744D01*
X166504602Y-83244850D01*
X166658783Y-83193412D01*
X166671962Y-83187238D01*
X166809807Y-83101937D01*
X166821208Y-83092901D01*
X166935739Y-82978170D01*
X166944751Y-82966759D01*
X167029818Y-82828755D01*
X167035962Y-82815577D01*
X167087139Y-82661284D01*
X167090005Y-82647919D01*
X167099672Y-82553561D01*
X167100000Y-82547145D01*
X167100000Y-81972115D01*
X167095525Y-81956876D01*
X167094135Y-81955671D01*
X167086452Y-81954000D01*
X165364115Y-81954000D01*
X165348876Y-81958475D01*
X165347671Y-81959865D01*
X165346000Y-81967548D01*
X165346000Y-83239885D01*
X164838000Y-83239885D01*
X164838000Y-81972115D01*
X164833525Y-81956876D01*
X164832135Y-81955671D01*
X164824452Y-81954000D01*
X163102115Y-81954000D01*
X163086876Y-81958475D01*
X163085671Y-81959865D01*
X163084000Y-81967548D01*
X163084000Y-82547096D01*
X155385500Y-82547096D01*
X155385500Y-81427885D01*
X163084000Y-81427885D01*
X163088475Y-81443124D01*
X163089865Y-81444329D01*
X163097548Y-81446000D01*
X164819885Y-81446000D01*
X164835124Y-81441525D01*
X164836329Y-81440135D01*
X164838000Y-81432452D01*
X164838000Y-81427885D01*
X165346000Y-81427885D01*
X165350475Y-81443124D01*
X165351865Y-81444329D01*
X165359548Y-81446000D01*
X167081885Y-81446000D01*
X167097124Y-81441525D01*
X167098329Y-81440135D01*
X167100000Y-81432452D01*
X167100000Y-80852904D01*
X167099663Y-80846389D01*
X167089744Y-80750797D01*
X167086850Y-80737398D01*
X167035412Y-80583217D01*
X167029238Y-80570038D01*
X166943937Y-80432193D01*
X166934901Y-80420792D01*
X166820170Y-80306261D01*
X166808759Y-80297249D01*
X166670755Y-80212182D01*
X166657577Y-80206038D01*
X166503284Y-80154861D01*
X166489919Y-80151995D01*
X166395561Y-80142328D01*
X166389144Y-80142000D01*
X165364115Y-80142000D01*
X165348876Y-80146475D01*
X165347671Y-80147865D01*
X165346000Y-80155548D01*
X165346000Y-81427885D01*
X164838000Y-81427885D01*
X164838000Y-80160115D01*
X164833525Y-80144876D01*
X164832135Y-80143671D01*
X164824452Y-80142000D01*
X163794904Y-80142000D01*
X163788389Y-80142337D01*
X163692797Y-80152256D01*
X163679398Y-80155150D01*
X163525217Y-80206588D01*
X163512038Y-80212762D01*
X163374193Y-80298063D01*
X163362792Y-80307099D01*
X163248261Y-80421830D01*
X163239249Y-80433241D01*
X163154182Y-80571245D01*
X163148038Y-80584423D01*
X163096861Y-80738716D01*
X163093995Y-80752081D01*
X163084328Y-80846439D01*
X163084000Y-80852856D01*
X163084000Y-81427885D01*
X155385500Y-81427885D01*
X155385500Y-80890140D01*
X155388087Y-80865824D01*
X155388154Y-80864401D01*
X155390346Y-80854220D01*
X155386373Y-80820652D01*
X155386021Y-80814678D01*
X155385928Y-80814686D01*
X155385500Y-80809508D01*
X155385500Y-80804308D01*
X155384646Y-80799176D01*
X155382314Y-80785165D01*
X155381477Y-80779286D01*
X155376642Y-80738433D01*
X155376642Y-80738432D01*
X155375418Y-80728093D01*
X155371433Y-80719794D01*
X155369922Y-80710717D01*
X155345442Y-80665349D01*
X155342761Y-80660086D01*
X155323873Y-80620750D01*
X155323870Y-80620746D01*
X155320440Y-80613602D01*
X155316830Y-80609308D01*
X155314898Y-80607376D01*
X155313111Y-80605427D01*
X155313082Y-80605374D01*
X155313212Y-80605255D01*
X155312711Y-80604687D01*
X155309612Y-80598943D01*
X155269805Y-80562146D01*
X155266238Y-80558716D01*
X154628023Y-79920500D01*
X154624352Y-79916829D01*
X154620130Y-79913812D01*
X154616154Y-79910443D01*
X154616336Y-79910228D01*
X154607070Y-79902376D01*
X153184776Y-78480082D01*
X156614605Y-78480082D01*
X156615769Y-78488984D01*
X156615769Y-78488987D01*
X156617554Y-78502633D01*
X156632414Y-78616273D01*
X156687732Y-78741992D01*
X156693510Y-78748865D01*
X156693510Y-78748866D01*
X156757200Y-78824635D01*
X156776111Y-78847132D01*
X156890447Y-78923240D01*
X157021549Y-78964199D01*
X157158876Y-78966716D01*
X157168109Y-78964199D01*
X157282727Y-78932951D01*
X157291391Y-78930589D01*
X157408439Y-78858721D01*
X157451987Y-78810610D01*
X157494584Y-78763550D01*
X157494585Y-78763549D01*
X157500612Y-78756890D01*
X157506129Y-78745504D01*
X157556585Y-78641362D01*
X157556585Y-78641361D01*
X157560499Y-78633283D01*
X157583286Y-78497836D01*
X157583431Y-78486000D01*
X157582584Y-78480082D01*
X157565232Y-78358923D01*
X157565232Y-78358921D01*
X157563959Y-78350036D01*
X157507110Y-78225003D01*
X157417453Y-78120951D01*
X157302196Y-78046244D01*
X157170603Y-78006890D01*
X157161627Y-78006835D01*
X157161626Y-78006835D01*
X157104080Y-78006484D01*
X157033255Y-78006051D01*
X156901192Y-78043795D01*
X156893605Y-78048582D01*
X156893603Y-78048583D01*
X156871001Y-78062844D01*
X156785031Y-78117087D01*
X156779089Y-78123815D01*
X156779088Y-78123816D01*
X156763859Y-78141060D01*
X156694109Y-78220036D01*
X156635736Y-78344366D01*
X156629700Y-78383136D01*
X156615986Y-78471209D01*
X156615986Y-78471213D01*
X156614605Y-78480082D01*
X153184776Y-78480082D01*
X152874478Y-78169784D01*
X152859336Y-78151036D01*
X152858221Y-78149811D01*
X152852571Y-78141060D01*
X152844393Y-78134613D01*
X152844391Y-78134611D01*
X152826200Y-78120271D01*
X152821759Y-78116325D01*
X152821697Y-78116398D01*
X152817733Y-78113039D01*
X152814056Y-78109362D01*
X152798308Y-78098108D01*
X152793638Y-78094602D01*
X152753353Y-78062844D01*
X152753352Y-78062844D01*
X152753351Y-78062843D01*
X152755693Y-78059872D01*
X152719260Y-78023253D01*
X152704344Y-77953841D01*
X152716608Y-77908210D01*
X152730585Y-77879362D01*
X152730585Y-77879361D01*
X152734499Y-77871283D01*
X152757286Y-77735836D01*
X152757431Y-77724000D01*
X152756584Y-77718082D01*
X152739232Y-77596923D01*
X152739232Y-77596921D01*
X152737959Y-77588036D01*
X152681110Y-77463003D01*
X152591453Y-77358951D01*
X152476196Y-77284244D01*
X152344603Y-77244890D01*
X152335627Y-77244835D01*
X152335626Y-77244835D01*
X152278080Y-77244484D01*
X152207255Y-77244051D01*
X152075192Y-77281795D01*
X152067605Y-77286582D01*
X152067603Y-77286583D01*
X152005850Y-77325546D01*
X151959031Y-77355087D01*
X151868109Y-77458036D01*
X151809736Y-77582366D01*
X151801576Y-77634772D01*
X151789986Y-77709209D01*
X151789986Y-77709213D01*
X151788605Y-77718082D01*
X151789769Y-77726984D01*
X151789769Y-77726987D01*
X151797510Y-77786178D01*
X151806414Y-77854273D01*
X151809498Y-77861282D01*
X151808560Y-77931607D01*
X151769383Y-77990816D01*
X151704415Y-78019446D01*
X151688148Y-78020500D01*
X148729920Y-78020500D01*
X148703399Y-78017677D01*
X148694124Y-78015680D01*
X148694242Y-78015133D01*
X148682439Y-78013121D01*
X148670201Y-78009461D01*
X148670199Y-78009461D01*
X148661603Y-78006890D01*
X148652632Y-78006835D01*
X148652631Y-78006835D01*
X148589969Y-78006452D01*
X148524255Y-78006051D01*
X148392192Y-78043795D01*
X148384605Y-78048582D01*
X148384603Y-78048583D01*
X148306057Y-78098142D01*
X148276031Y-78117087D01*
X148274069Y-78113978D01*
X148225126Y-78135789D01*
X148154948Y-78125040D01*
X148139808Y-78116644D01*
X148031196Y-78046244D01*
X147899603Y-78006890D01*
X147890627Y-78006835D01*
X147890626Y-78006835D01*
X147833080Y-78006484D01*
X147762255Y-78006051D01*
X147630192Y-78043795D01*
X147622605Y-78048582D01*
X147622603Y-78048583D01*
X147600001Y-78062844D01*
X147514031Y-78117087D01*
X147508089Y-78123815D01*
X147478087Y-78157786D01*
X147418002Y-78195604D01*
X147347008Y-78194934D01*
X147288193Y-78156626D01*
X147263315Y-78127754D01*
X147263314Y-78127753D01*
X147257453Y-78120951D01*
X147142196Y-78046244D01*
X147010603Y-78006890D01*
X147001627Y-78006835D01*
X147001626Y-78006835D01*
X146944080Y-78006484D01*
X146873255Y-78006051D01*
X146741192Y-78043795D01*
X146733605Y-78048582D01*
X146733603Y-78048583D01*
X146711001Y-78062844D01*
X146625031Y-78117087D01*
X146619089Y-78123815D01*
X146619088Y-78123816D01*
X146563778Y-78186442D01*
X146503692Y-78224260D01*
X146432698Y-78223589D01*
X146373884Y-78185282D01*
X146349193Y-78156626D01*
X146318453Y-78120951D01*
X146203196Y-78046244D01*
X146071603Y-78006890D01*
X146062627Y-78006835D01*
X146062626Y-78006835D01*
X146005080Y-78006484D01*
X145934255Y-78006051D01*
X145802192Y-78043795D01*
X145794605Y-78048582D01*
X145794603Y-78048583D01*
X145772001Y-78062844D01*
X145686031Y-78117087D01*
X145681000Y-78122783D01*
X145616792Y-78151419D01*
X145546611Y-78140691D01*
X145521200Y-78124139D01*
X145518453Y-78120951D01*
X145403196Y-78046244D01*
X145386761Y-78041329D01*
X145286129Y-78011234D01*
X145233135Y-77979612D01*
X145000043Y-77746520D01*
X144984684Y-77727504D01*
X144983720Y-77726444D01*
X144978071Y-77717696D01*
X144969896Y-77711252D01*
X144969894Y-77711249D01*
X144951528Y-77696771D01*
X144947053Y-77692794D01*
X144946992Y-77692865D01*
X144943035Y-77689512D01*
X144939352Y-77685829D01*
X144923561Y-77674545D01*
X144918815Y-77670982D01*
X144886507Y-77645512D01*
X144886506Y-77645511D01*
X144878330Y-77639066D01*
X144869643Y-77636015D01*
X144862157Y-77630666D01*
X144852181Y-77627683D01*
X144852180Y-77627682D01*
X144820798Y-77618297D01*
X144812786Y-77615901D01*
X144807157Y-77614072D01*
X144758498Y-77596984D01*
X144752909Y-77596500D01*
X144750198Y-77596500D01*
X144747531Y-77596385D01*
X144747468Y-77596366D01*
X144747475Y-77596192D01*
X144746729Y-77596145D01*
X144740476Y-77594275D01*
X144694746Y-77596072D01*
X144686322Y-77596403D01*
X144681375Y-77596500D01*
X135690135Y-77596500D01*
X135665836Y-77593914D01*
X135664398Y-77593846D01*
X135654220Y-77591655D01*
X135624516Y-77595170D01*
X135620658Y-77595627D01*
X135614680Y-77595979D01*
X135614688Y-77596072D01*
X135609510Y-77596500D01*
X135604308Y-77596500D01*
X135585154Y-77599688D01*
X135579296Y-77600522D01*
X135562682Y-77602488D01*
X135538433Y-77605358D01*
X135538432Y-77605358D01*
X135528093Y-77606582D01*
X135519794Y-77610567D01*
X135510717Y-77612078D01*
X135465349Y-77636558D01*
X135460086Y-77639239D01*
X135420750Y-77658127D01*
X135420746Y-77658130D01*
X135413602Y-77661560D01*
X135409308Y-77665170D01*
X135407376Y-77667102D01*
X135405427Y-77668889D01*
X135405374Y-77668918D01*
X135405255Y-77668788D01*
X135404687Y-77669289D01*
X135398943Y-77672388D01*
X135391876Y-77680033D01*
X135362133Y-77712209D01*
X135358703Y-77715775D01*
X130197521Y-82876956D01*
X130178505Y-82892315D01*
X130177444Y-82893281D01*
X130168696Y-82898929D01*
X130162250Y-82907106D01*
X130147771Y-82925472D01*
X130143794Y-82929947D01*
X130143865Y-82930008D01*
X130140512Y-82933965D01*
X130136829Y-82937648D01*
X130133803Y-82941883D01*
X130133801Y-82941885D01*
X130125547Y-82953436D01*
X130121982Y-82958185D01*
X130114397Y-82967807D01*
X130090066Y-82998670D01*
X130087015Y-83007357D01*
X130081666Y-83014843D01*
X130078683Y-83024819D01*
X130078682Y-83024820D01*
X130066902Y-83064211D01*
X130065072Y-83069843D01*
X130047984Y-83118502D01*
X130047500Y-83124091D01*
X130047500Y-83126802D01*
X130047385Y-83129469D01*
X130047366Y-83129532D01*
X130047192Y-83129525D01*
X130047145Y-83130271D01*
X130045275Y-83136524D01*
X130045684Y-83146928D01*
X130047403Y-83190678D01*
X130047500Y-83195625D01*
X130047500Y-105124865D01*
X130044914Y-105149164D01*
X130044846Y-105150602D01*
X130042655Y-105160780D01*
X128329500Y-105160780D01*
X128329500Y-75039852D01*
X128331414Y-75017972D01*
X128332669Y-75010855D01*
X128334583Y-75000000D01*
X128332669Y-74989145D01*
X128332669Y-74982501D01*
X128331546Y-74963566D01*
X128345895Y-74708064D01*
X128347477Y-74694023D01*
X128395270Y-74412734D01*
X128398414Y-74398959D01*
X128424962Y-74306808D01*
X128477404Y-74124780D01*
X128482065Y-74111459D01*
X128591257Y-73847846D01*
X128597385Y-73835122D01*
X128735399Y-73585403D01*
X128742913Y-73573444D01*
X128908026Y-73340739D01*
X128916836Y-73329692D01*
X129106956Y-73116947D01*
X129116947Y-73106956D01*
X129329692Y-72916836D01*
X129340739Y-72908026D01*
X129573444Y-72742913D01*
X129585403Y-72735399D01*
X129835122Y-72597385D01*
X129847846Y-72591257D01*
X129869828Y-72582152D01*
X130111459Y-72482065D01*
X130124780Y-72477404D01*
X130314553Y-72422731D01*
X130398959Y-72398414D01*
X130412734Y-72395270D01*
X130553379Y-72371373D01*
X130694028Y-72347476D01*
X130708060Y-72345895D01*
X130963569Y-72331546D01*
X130982501Y-72332669D01*
X130989145Y-72332669D01*
X131000000Y-72334583D01*
X131017972Y-72331414D01*
X131039852Y-72329500D01*
X164960148Y-72329500D01*
X164982028Y-72331414D01*
G37*
%TD.AperFunction*%
%TA.AperFunction,Conductor*%
G36*
X151850029Y-107941969D02*
G01*
X151880209Y-107969867D01*
X151883775Y-107973297D01*
X153357170Y-109446692D01*
X153491757Y-109581280D01*
X153507116Y-109600296D01*
X153508080Y-109601356D01*
X153513729Y-109610104D01*
X153521904Y-109616548D01*
X153521906Y-109616551D01*
X153540272Y-109631029D01*
X153544747Y-109635006D01*
X153544808Y-109634935D01*
X153548765Y-109638288D01*
X153552448Y-109641971D01*
X153556683Y-109644997D01*
X153556685Y-109644999D01*
X153568236Y-109653253D01*
X153572985Y-109656818D01*
X153597509Y-109676151D01*
X153613470Y-109688734D01*
X153622157Y-109691785D01*
X153629643Y-109697134D01*
X153639619Y-109700117D01*
X153639620Y-109700118D01*
X153679011Y-109711898D01*
X153684643Y-109713728D01*
X153733302Y-109730816D01*
X153738891Y-109731300D01*
X153741602Y-109731300D01*
X153744269Y-109731415D01*
X153744332Y-109731434D01*
X153744325Y-109731608D01*
X153745071Y-109731655D01*
X153751324Y-109733525D01*
X153801183Y-109731566D01*
X153805478Y-109731397D01*
X153810425Y-109731300D01*
X154237860Y-109731300D01*
X154305981Y-109751302D01*
X154352474Y-109804958D01*
X154363123Y-109870907D01*
X154358169Y-109916512D01*
X154357800Y-109923327D01*
X154357801Y-110372668D01*
X154358171Y-110379490D01*
X154363695Y-110430352D01*
X154367321Y-110445604D01*
X154412476Y-110566054D01*
X154421014Y-110581649D01*
X154495275Y-110680735D01*
X154520123Y-110747242D01*
X154505070Y-110816624D01*
X154454896Y-110866854D01*
X154394449Y-110882300D01*
X153638013Y-110882300D01*
X153569892Y-110862298D01*
X153548918Y-110845395D01*
X151675405Y-108971882D01*
X151641379Y-108909570D01*
X151638500Y-108882787D01*
X151638500Y-108034494D01*
X151658502Y-107966373D01*
X151712158Y-107919880D01*
X151782432Y-107909776D01*
X151850029Y-107941969D01*
G37*
%TD.AperFunction*%
%TA.AperFunction,Conductor*%
G36*
X147382128Y-78841807D02*
G01*
X147434792Y-78889421D01*
X147452508Y-78940484D01*
X147455315Y-78964199D01*
X147456582Y-78974907D01*
X147460567Y-78983206D01*
X147462078Y-78992283D01*
X147486558Y-79037651D01*
X147489239Y-79042914D01*
X147508127Y-79082250D01*
X147508130Y-79082254D01*
X147511560Y-79089398D01*
X147515170Y-79093692D01*
X147517102Y-79095624D01*
X147518889Y-79097573D01*
X147518918Y-79097626D01*
X147518788Y-79097745D01*
X147519289Y-79098313D01*
X147522388Y-79104057D01*
X147530033Y-79111124D01*
X147562208Y-79140866D01*
X147565774Y-79144296D01*
X148535958Y-80114480D01*
X148551311Y-80133489D01*
X148552278Y-80134552D01*
X148557929Y-80143304D01*
X148583527Y-80163484D01*
X148584472Y-80164229D01*
X148588947Y-80168206D01*
X148589008Y-80168135D01*
X148592965Y-80171488D01*
X148596648Y-80175171D01*
X148600883Y-80178197D01*
X148600885Y-80178199D01*
X148612436Y-80186453D01*
X148617185Y-80190018D01*
X148645300Y-80212182D01*
X148657670Y-80221934D01*
X148666357Y-80224985D01*
X148673843Y-80230334D01*
X148683819Y-80233317D01*
X148683820Y-80233318D01*
X148723211Y-80245098D01*
X148728843Y-80246928D01*
X148777502Y-80264016D01*
X148783091Y-80264500D01*
X148785802Y-80264500D01*
X148788469Y-80264615D01*
X148788532Y-80264634D01*
X148788525Y-80264808D01*
X148789271Y-80264855D01*
X148795524Y-80266725D01*
X148845383Y-80264766D01*
X148849678Y-80264597D01*
X148854625Y-80264500D01*
X151681787Y-80264500D01*
X151749908Y-80284502D01*
X151770883Y-80301405D01*
X152171596Y-80702119D01*
X152205621Y-80764431D01*
X152208500Y-80791214D01*
X152208500Y-83685413D01*
X152188498Y-83753534D01*
X152157360Y-83786764D01*
X152138349Y-83800806D01*
X152064990Y-83854990D01*
X151983791Y-83964924D01*
X151938507Y-84093873D01*
X151935500Y-84125685D01*
X151935501Y-84784314D01*
X151935780Y-84787262D01*
X151935780Y-84787271D01*
X151937784Y-84808477D01*
X151938507Y-84816127D01*
X151983791Y-84945076D01*
X152064990Y-85055010D01*
X152092550Y-85075366D01*
X152157360Y-85123236D01*
X152200270Y-85179797D01*
X152208500Y-85224587D01*
X152208500Y-86749865D01*
X152205914Y-86774164D01*
X152205846Y-86775602D01*
X152203655Y-86785780D01*
X152207170Y-86815484D01*
X152207627Y-86819342D01*
X152207979Y-86825320D01*
X152208072Y-86825312D01*
X152208500Y-86830490D01*
X152208500Y-86835692D01*
X152209354Y-86840822D01*
X152211686Y-86854832D01*
X152212522Y-86860704D01*
X152218582Y-86911907D01*
X152222567Y-86920206D01*
X152224078Y-86929283D01*
X152248558Y-86974651D01*
X152251239Y-86979914D01*
X152270127Y-87019250D01*
X152270130Y-87019254D01*
X152273560Y-87026398D01*
X152277170Y-87030692D01*
X152279102Y-87032624D01*
X152280889Y-87034573D01*
X152280918Y-87034626D01*
X152280788Y-87034745D01*
X152281289Y-87035313D01*
X152284388Y-87041057D01*
X152292033Y-87048124D01*
X152324208Y-87077866D01*
X152327774Y-87081296D01*
X153751958Y-88505480D01*
X153767311Y-88524489D01*
X153768278Y-88525552D01*
X153773929Y-88534304D01*
X153799527Y-88554484D01*
X153800472Y-88555229D01*
X153804947Y-88559206D01*
X153805008Y-88559135D01*
X153808965Y-88562488D01*
X153812648Y-88566171D01*
X153816883Y-88569197D01*
X153816885Y-88569199D01*
X153828436Y-88577453D01*
X153833185Y-88581018D01*
X153857709Y-88600351D01*
X153873670Y-88612934D01*
X153882357Y-88615985D01*
X153889843Y-88621334D01*
X153899819Y-88624317D01*
X153899820Y-88624318D01*
X153939211Y-88636098D01*
X153944843Y-88637928D01*
X153993502Y-88655016D01*
X153999091Y-88655500D01*
X154001802Y-88655500D01*
X154004469Y-88655615D01*
X154004532Y-88655634D01*
X154004525Y-88655808D01*
X154005271Y-88655855D01*
X154011524Y-88657725D01*
X154061383Y-88655766D01*
X154065678Y-88655597D01*
X154070625Y-88655500D01*
X155056816Y-88655500D01*
X155124937Y-88675502D01*
X155171430Y-88729158D01*
X155181316Y-88800884D01*
X155176515Y-88831716D01*
X155169060Y-88879602D01*
X155166805Y-88894082D01*
X155167969Y-88902984D01*
X155167969Y-88902987D01*
X155174798Y-88955209D01*
X155184614Y-89030273D01*
X155239932Y-89155992D01*
X155245708Y-89162863D01*
X155250453Y-89170487D01*
X155247279Y-89172463D01*
X155268686Y-89221380D01*
X155269700Y-89237329D01*
X155269700Y-89629587D01*
X155249698Y-89697708D01*
X155232795Y-89718682D01*
X153819521Y-91131956D01*
X153800505Y-91147315D01*
X153799444Y-91148281D01*
X153790696Y-91153929D01*
X153784250Y-91162106D01*
X153769771Y-91180472D01*
X153765794Y-91184947D01*
X153765865Y-91185008D01*
X153762512Y-91188965D01*
X153758829Y-91192648D01*
X153755803Y-91196883D01*
X153755801Y-91196885D01*
X153747547Y-91208436D01*
X153743984Y-91213182D01*
X153712066Y-91253670D01*
X153709015Y-91262357D01*
X153703666Y-91269843D01*
X153700683Y-91279819D01*
X153700682Y-91279820D01*
X153688902Y-91319211D01*
X153687072Y-91324843D01*
X153669984Y-91373502D01*
X153669500Y-91379091D01*
X153669500Y-91381802D01*
X153669385Y-91384469D01*
X153669366Y-91384532D01*
X153669192Y-91384525D01*
X153669145Y-91385271D01*
X153667275Y-91391524D01*
X153668571Y-91424491D01*
X153668683Y-91427348D01*
X153651371Y-91496201D01*
X153599583Y-91544766D01*
X153529760Y-91557621D01*
X153464071Y-91530687D01*
X153429197Y-91486839D01*
X153411285Y-91449538D01*
X153411285Y-91449537D01*
X153407208Y-91441048D01*
X153402366Y-91435810D01*
X153399079Y-91429482D01*
X153394816Y-91424491D01*
X153358037Y-91387712D01*
X153354608Y-91384146D01*
X153322770Y-91349704D01*
X153316375Y-91342786D01*
X153310081Y-91339130D01*
X153304078Y-91333753D01*
X153238432Y-91268107D01*
X153212827Y-91231164D01*
X153192829Y-91187180D01*
X153192825Y-91187174D01*
X153189110Y-91179003D01*
X153099453Y-91074951D01*
X152984196Y-91000244D01*
X152852603Y-90960890D01*
X152843627Y-90960835D01*
X152843626Y-90960835D01*
X152786080Y-90960484D01*
X152715255Y-90960051D01*
X152583192Y-90997795D01*
X152575605Y-91002582D01*
X152575603Y-91002583D01*
X152486292Y-91058934D01*
X152467031Y-91071087D01*
X152466222Y-91069806D01*
X152410363Y-91094712D01*
X152340183Y-91083979D01*
X152304456Y-91058934D01*
X147085559Y-85840036D01*
X146583605Y-85338082D01*
X150010605Y-85338082D01*
X150011769Y-85346984D01*
X150011769Y-85346987D01*
X150017970Y-85394406D01*
X150028414Y-85474273D01*
X150083732Y-85599992D01*
X150089510Y-85606865D01*
X150089510Y-85606866D01*
X150172111Y-85705132D01*
X150170301Y-85706653D01*
X150200986Y-85756075D01*
X150199881Y-85827063D01*
X150193609Y-85843231D01*
X150136736Y-85964366D01*
X150127952Y-86020780D01*
X150116986Y-86091209D01*
X150116986Y-86091213D01*
X150115605Y-86100082D01*
X150116769Y-86108984D01*
X150116769Y-86108987D01*
X150121777Y-86147283D01*
X150133414Y-86236273D01*
X150188732Y-86361992D01*
X150194510Y-86368865D01*
X150194510Y-86368866D01*
X150271331Y-86460256D01*
X150277111Y-86467132D01*
X150391447Y-86543240D01*
X150522549Y-86584199D01*
X150659876Y-86586716D01*
X150669109Y-86584199D01*
X150783727Y-86552951D01*
X150792391Y-86550589D01*
X150909439Y-86478721D01*
X150951729Y-86432000D01*
X150995584Y-86383550D01*
X150995585Y-86383549D01*
X151001612Y-86376890D01*
X151006836Y-86366109D01*
X151057585Y-86261362D01*
X151057585Y-86261361D01*
X151061499Y-86253283D01*
X151084286Y-86117836D01*
X151084431Y-86106000D01*
X151083584Y-86100082D01*
X151066232Y-85978923D01*
X151066232Y-85978921D01*
X151064959Y-85970036D01*
X151056238Y-85950854D01*
X151034600Y-85903265D01*
X151008110Y-85845003D01*
X150919405Y-85742056D01*
X150890091Y-85677393D01*
X150901465Y-85604872D01*
X150956499Y-85491283D01*
X150979286Y-85355836D01*
X150979431Y-85344000D01*
X150977191Y-85328362D01*
X150987332Y-85258096D01*
X151033853Y-85204465D01*
X151101918Y-85184499D01*
X151194314Y-85184499D01*
X151197262Y-85184220D01*
X151197271Y-85184220D01*
X151218478Y-85182216D01*
X151218480Y-85182216D01*
X151226127Y-85181493D01*
X151239793Y-85176694D01*
X151321500Y-85148000D01*
X151355076Y-85136209D01*
X151465010Y-85055010D01*
X151546209Y-84945076D01*
X151591493Y-84816127D01*
X151592628Y-84804127D01*
X151593624Y-84793579D01*
X151594500Y-84784315D01*
X151594499Y-84125686D01*
X151594032Y-84120735D01*
X151592216Y-84101522D01*
X151592215Y-84101518D01*
X151591493Y-84093873D01*
X151546209Y-83964924D01*
X151465010Y-83854990D01*
X151355076Y-83773791D01*
X151341747Y-83769110D01*
X151284103Y-83727664D01*
X151258017Y-83661634D01*
X151257500Y-83650229D01*
X151257500Y-83521953D01*
X151277687Y-83455926D01*
X151277612Y-83455890D01*
X151277845Y-83455409D01*
X151332296Y-83343022D01*
X151333585Y-83340362D01*
X151333585Y-83340361D01*
X151337499Y-83332283D01*
X151360286Y-83196836D01*
X151360431Y-83185000D01*
X151359584Y-83179082D01*
X151342232Y-83057923D01*
X151342232Y-83057921D01*
X151340959Y-83049036D01*
X151284110Y-82924003D01*
X151194453Y-82819951D01*
X151079196Y-82745244D01*
X150947603Y-82705890D01*
X150938627Y-82705835D01*
X150938626Y-82705835D01*
X150881080Y-82705484D01*
X150810255Y-82705051D01*
X150678192Y-82742795D01*
X150670605Y-82747582D01*
X150670603Y-82747583D01*
X150646028Y-82763089D01*
X150562031Y-82816087D01*
X150471109Y-82919036D01*
X150467295Y-82927159D01*
X150467294Y-82927161D01*
X150448703Y-82966759D01*
X150412736Y-83043366D01*
X150403490Y-83102751D01*
X150392986Y-83170209D01*
X150392986Y-83170213D01*
X150391605Y-83179082D01*
X150392769Y-83187984D01*
X150392769Y-83187987D01*
X150394554Y-83201633D01*
X150409414Y-83315273D01*
X150464732Y-83440992D01*
X150470508Y-83447863D01*
X150475253Y-83455487D01*
X150472079Y-83457463D01*
X150493486Y-83506380D01*
X150494500Y-83522329D01*
X150494500Y-83732685D01*
X150474498Y-83800806D01*
X150443361Y-83834035D01*
X150414990Y-83854990D01*
X150333791Y-83964924D01*
X150288507Y-84093873D01*
X150285500Y-84125685D01*
X150285501Y-84784314D01*
X150285780Y-84787262D01*
X150285780Y-84787271D01*
X150287784Y-84808477D01*
X150287918Y-84809895D01*
X150287918Y-84809896D01*
X150288507Y-84816127D01*
X150287477Y-84816224D01*
X150283024Y-84880107D01*
X150240580Y-84937020D01*
X150232128Y-84942847D01*
X150181031Y-84975087D01*
X150175088Y-84981816D01*
X150114655Y-85050243D01*
X150090109Y-85078036D01*
X150086295Y-85086159D01*
X150086294Y-85086161D01*
X150066363Y-85128613D01*
X150031736Y-85202366D01*
X150022027Y-85264724D01*
X150011986Y-85329209D01*
X150011986Y-85329213D01*
X150010605Y-85338082D01*
X146583605Y-85338082D01*
X141786044Y-80540521D01*
X141770685Y-80521505D01*
X141769719Y-80520444D01*
X141764071Y-80511696D01*
X141737528Y-80490771D01*
X141733053Y-80486794D01*
X141732992Y-80486865D01*
X141729035Y-80483512D01*
X141725352Y-80479829D01*
X141709561Y-80468545D01*
X141704815Y-80464982D01*
X141698496Y-80460000D01*
X141693063Y-80455717D01*
X141672507Y-80439512D01*
X141672506Y-80439511D01*
X141664330Y-80433066D01*
X141655643Y-80430015D01*
X141648157Y-80424666D01*
X141638181Y-80421683D01*
X141638180Y-80421682D01*
X141598789Y-80409902D01*
X141593157Y-80408072D01*
X141544498Y-80390984D01*
X141538909Y-80390500D01*
X141536198Y-80390500D01*
X141533531Y-80390385D01*
X141533468Y-80390366D01*
X141533475Y-80390192D01*
X141532729Y-80390145D01*
X141526476Y-80388275D01*
X141477692Y-80390192D01*
X141472322Y-80390403D01*
X141467375Y-80390500D01*
X140457093Y-80390500D01*
X140388567Y-80370236D01*
X140383938Y-80367236D01*
X140337651Y-80313403D01*
X140327816Y-80243091D01*
X140357556Y-80178623D01*
X140417429Y-80140469D01*
X140452464Y-80135500D01*
X145615080Y-80135500D01*
X145639028Y-80138049D01*
X145640693Y-80138128D01*
X145650876Y-80140320D01*
X145661217Y-80139096D01*
X145684223Y-80136373D01*
X145690154Y-80136023D01*
X145690146Y-80135928D01*
X145695324Y-80135500D01*
X145700524Y-80135500D01*
X145705653Y-80134646D01*
X145705656Y-80134646D01*
X145719565Y-80132331D01*
X145725443Y-80131494D01*
X145766001Y-80126694D01*
X145766002Y-80126694D01*
X145776341Y-80125470D01*
X145784593Y-80121507D01*
X145793626Y-80120004D01*
X145802795Y-80115057D01*
X145802797Y-80115056D01*
X145838732Y-80095666D01*
X145844025Y-80092969D01*
X145883082Y-80074215D01*
X145883086Y-80074212D01*
X145890232Y-80070781D01*
X145894508Y-80067186D01*
X145896431Y-80065263D01*
X145898363Y-80063491D01*
X145898442Y-80063448D01*
X145898555Y-80063572D01*
X145899095Y-80063096D01*
X145904814Y-80060010D01*
X145941417Y-80020413D01*
X145944846Y-80016848D01*
X146969852Y-78991842D01*
X147025805Y-78959374D01*
X147131391Y-78930589D01*
X147248439Y-78858721D01*
X147249981Y-78857017D01*
X147312083Y-78830224D01*
X147382128Y-78841807D01*
G37*
%TD.AperFunction*%
%TA.AperFunction,Conductor*%
G36*
X152426737Y-78799502D02*
G01*
X152447711Y-78816405D01*
X154050510Y-80419204D01*
X154060441Y-80431498D01*
X154060560Y-80431398D01*
X154064170Y-80435692D01*
X154066097Y-80437619D01*
X154585596Y-80957119D01*
X154619621Y-81019431D01*
X154622500Y-81046214D01*
X154622500Y-83683413D01*
X154602498Y-83751534D01*
X154571360Y-83784764D01*
X154478990Y-83852990D01*
X154397791Y-83962924D01*
X154352507Y-84091873D01*
X154349500Y-84123685D01*
X154349501Y-84448003D01*
X154349501Y-84689513D01*
X154329499Y-84757634D01*
X154275843Y-84804127D01*
X154205570Y-84814231D01*
X154154968Y-84795245D01*
X154134727Y-84782125D01*
X154134725Y-84782124D01*
X154127196Y-84777244D01*
X153995603Y-84737890D01*
X153986627Y-84737835D01*
X153986626Y-84737835D01*
X153929080Y-84737484D01*
X153858255Y-84737051D01*
X153726192Y-84774795D01*
X153718605Y-84779582D01*
X153718603Y-84779583D01*
X153672801Y-84808482D01*
X153610031Y-84848087D01*
X153519109Y-84951036D01*
X153460736Y-85075366D01*
X153452134Y-85130613D01*
X153440986Y-85202209D01*
X153440986Y-85202213D01*
X153439605Y-85211082D01*
X153440769Y-85219984D01*
X153440769Y-85219987D01*
X153444171Y-85246000D01*
X153457414Y-85347273D01*
X153512732Y-85472992D01*
X153518510Y-85479865D01*
X153518510Y-85479866D01*
X153545484Y-85511955D01*
X153601111Y-85578132D01*
X153715447Y-85654240D01*
X153846549Y-85695199D01*
X153983876Y-85697716D01*
X153993109Y-85695199D01*
X154107727Y-85663951D01*
X154116391Y-85661589D01*
X154233439Y-85589721D01*
X154264417Y-85555497D01*
X154319584Y-85494550D01*
X154319585Y-85494549D01*
X154325612Y-85487890D01*
X154332210Y-85474273D01*
X154381584Y-85372364D01*
X154381584Y-85372363D01*
X154385499Y-85364283D01*
X154386876Y-85356101D01*
X154426451Y-85297570D01*
X154491703Y-85269592D01*
X154561722Y-85281333D01*
X154614278Y-85329066D01*
X154627098Y-85366154D01*
X154628451Y-85365761D01*
X154631358Y-85375767D01*
X154632582Y-85386107D01*
X154636567Y-85394406D01*
X154638078Y-85403483D01*
X154662558Y-85448851D01*
X154665239Y-85454114D01*
X154684127Y-85493450D01*
X154684130Y-85493454D01*
X154687560Y-85500598D01*
X154691170Y-85504892D01*
X154693102Y-85506824D01*
X154694889Y-85508773D01*
X154694918Y-85508826D01*
X154694788Y-85508945D01*
X154695289Y-85509513D01*
X154698388Y-85515257D01*
X154706033Y-85522324D01*
X154738209Y-85552067D01*
X154741775Y-85555497D01*
X155992957Y-86806679D01*
X156026983Y-86868991D01*
X156021918Y-86939806D01*
X155987742Y-86985481D01*
X155989626Y-86987365D01*
X155970715Y-87006276D01*
X155894214Y-87108351D01*
X155885676Y-87123946D01*
X155840522Y-87244394D01*
X155836895Y-87259649D01*
X155831369Y-87310514D01*
X155831000Y-87317327D01*
X155831001Y-87766500D01*
X155810999Y-87834621D01*
X155757344Y-87881114D01*
X155705001Y-87892500D01*
X154270212Y-87892500D01*
X154202091Y-87872498D01*
X154181117Y-87855595D01*
X153008405Y-86682882D01*
X152974379Y-86620570D01*
X152971500Y-86593787D01*
X152971500Y-85224587D01*
X152991502Y-85156466D01*
X153022640Y-85123236D01*
X153087450Y-85075366D01*
X153115010Y-85055010D01*
X153196209Y-84945076D01*
X153241493Y-84816127D01*
X153242628Y-84804127D01*
X153243624Y-84793579D01*
X153244500Y-84784315D01*
X153244499Y-84125686D01*
X153244032Y-84120735D01*
X153242216Y-84101522D01*
X153242215Y-84101518D01*
X153241493Y-84093873D01*
X153196209Y-83964924D01*
X153115010Y-83854990D01*
X153041651Y-83800806D01*
X153022640Y-83786764D01*
X152979730Y-83730203D01*
X152971500Y-83685413D01*
X152971500Y-80635135D01*
X152974086Y-80610836D01*
X152974154Y-80609398D01*
X152976345Y-80599220D01*
X152972373Y-80565658D01*
X152972021Y-80559680D01*
X152971928Y-80559688D01*
X152971500Y-80554510D01*
X152971500Y-80549308D01*
X152968312Y-80530154D01*
X152967477Y-80524289D01*
X152962642Y-80483433D01*
X152962642Y-80483432D01*
X152961418Y-80473093D01*
X152957433Y-80464794D01*
X152955922Y-80455717D01*
X152931442Y-80410349D01*
X152928761Y-80405086D01*
X152909873Y-80365750D01*
X152909870Y-80365746D01*
X152906440Y-80358602D01*
X152902830Y-80354308D01*
X152900898Y-80352376D01*
X152899111Y-80350427D01*
X152899082Y-80350374D01*
X152899212Y-80350255D01*
X152898711Y-80349687D01*
X152895612Y-80343943D01*
X152855805Y-80307146D01*
X152852238Y-80303716D01*
X152200040Y-79651517D01*
X152184686Y-79632506D01*
X152183720Y-79631444D01*
X152178071Y-79622696D01*
X152169896Y-79616252D01*
X152169894Y-79616249D01*
X152151528Y-79601771D01*
X152147053Y-79597794D01*
X152146992Y-79597865D01*
X152143035Y-79594512D01*
X152139352Y-79590829D01*
X152123561Y-79579545D01*
X152118815Y-79575982D01*
X152086507Y-79550512D01*
X152086506Y-79550511D01*
X152078330Y-79544066D01*
X152069643Y-79541015D01*
X152062157Y-79535666D01*
X152052181Y-79532683D01*
X152052180Y-79532682D01*
X152012789Y-79520902D01*
X152007157Y-79519072D01*
X151958498Y-79501984D01*
X151952909Y-79501500D01*
X151950198Y-79501500D01*
X151947531Y-79501385D01*
X151947468Y-79501366D01*
X151947475Y-79501192D01*
X151946729Y-79501145D01*
X151940476Y-79499275D01*
X151891692Y-79501192D01*
X151886322Y-79501403D01*
X151881375Y-79501500D01*
X149054213Y-79501500D01*
X148986092Y-79481498D01*
X148965117Y-79464595D01*
X148659907Y-79159384D01*
X148625882Y-79097072D01*
X148630947Y-79026256D01*
X148673494Y-78969421D01*
X148715857Y-78948728D01*
X148782391Y-78930589D01*
X148899439Y-78858721D01*
X148933632Y-78820945D01*
X148994175Y-78783864D01*
X149027047Y-78779500D01*
X152358616Y-78779500D01*
X152426737Y-78799502D01*
G37*
%TD.AperFunction*%
%TD*%
M02*
