%TF.GenerationSoftware,KiCad,Pcbnew,(6.0.6)*%
%TF.CreationDate,2022-07-08T14:59:32+02:00*%
%TF.ProjectId,XCOMMS_Interface,58434f4d-4d53-45f4-996e-746572666163,rev?*%
%TF.SameCoordinates,Original*%
%TF.FileFunction,Copper,L3,Inr*%
%TF.FilePolarity,Positive*%
%FSLAX46Y46*%
G04 Gerber Fmt 4.6, Leading zero omitted, Abs format (unit mm)*
G04 Created by KiCad (PCBNEW (6.0.6)) date 2022-07-08 14:59:32*
%MOMM*%
%LPD*%
G01*
G04 APERTURE LIST*
%TA.AperFunction,ComponentPad*%
%ADD10C,5.400000*%
%TD*%
%TA.AperFunction,ViaPad*%
%ADD11C,0.450000*%
%TD*%
G04 APERTURE END LIST*
D10*
%TO.N,GND*%
%TO.C,SCRW4*%
X165000000Y-75000000D03*
%TD*%
%TO.N,GND*%
%TO.C,SCRW2*%
X165000000Y-134000000D03*
%TD*%
%TO.N,GND*%
%TO.C,SCRW1*%
X131000000Y-134000000D03*
%TD*%
%TO.N,GND*%
%TO.C,SCRW3*%
X131000000Y-75000000D03*
%TD*%
D11*
%TO.N,GND*%
X129000002Y-104500133D03*
X135388898Y-118700135D03*
X164338000Y-123317000D03*
X137922000Y-83947000D03*
X129000002Y-87000135D03*
X167000002Y-104500133D03*
X167000002Y-119500135D03*
X158115000Y-123190000D03*
X129000002Y-117000135D03*
X167000002Y-87000135D03*
X167000002Y-97000135D03*
X148000002Y-136000135D03*
X138000002Y-73000135D03*
X142494222Y-82600000D03*
X158000002Y-73000135D03*
X167000002Y-102000133D03*
X136271000Y-126619000D03*
X140500002Y-73000135D03*
X157226000Y-92837000D03*
X167000002Y-127000135D03*
X141351000Y-110617000D03*
X129000002Y-84500135D03*
X138000002Y-136000135D03*
X155500002Y-136000135D03*
X158000002Y-136000135D03*
X151400000Y-75600000D03*
X140500002Y-136000135D03*
X157988000Y-119634000D03*
X155500002Y-73000135D03*
X164465000Y-126492000D03*
X143000002Y-73000135D03*
X167000002Y-109500133D03*
X167000002Y-114500133D03*
X167000002Y-122000135D03*
X136398000Y-103886000D03*
X129000002Y-114500133D03*
X135500000Y-73000135D03*
X167000002Y-89500135D03*
X129000002Y-122000135D03*
X129000002Y-102000133D03*
X167000002Y-92000135D03*
X167005000Y-82042000D03*
X129000002Y-109500133D03*
X147447000Y-124968000D03*
X142875000Y-120650000D03*
X157861000Y-83820000D03*
X167000002Y-124500135D03*
X129000002Y-107000133D03*
X154432000Y-122301000D03*
X129000002Y-94500135D03*
X129000002Y-127000135D03*
X160500002Y-136000135D03*
X147447000Y-126619000D03*
X135388898Y-119638535D03*
X167000002Y-129500135D03*
X146431000Y-119634000D03*
X149700000Y-75600000D03*
X157988000Y-118745000D03*
X150194079Y-79028030D03*
X167000002Y-112000133D03*
X151200000Y-87757000D03*
X148000002Y-73000135D03*
X142748000Y-103192905D03*
X157607000Y-104267000D03*
X129000002Y-97000135D03*
X129000002Y-99500133D03*
X153000002Y-136000135D03*
X145500002Y-136000135D03*
X136271000Y-123317000D03*
X155702000Y-78486000D03*
X163830000Y-109982000D03*
X132080000Y-120650000D03*
X129000002Y-129500135D03*
X167005000Y-84582000D03*
X164465000Y-124968000D03*
X157180244Y-88877500D03*
X147447000Y-123317000D03*
X143000002Y-136000135D03*
X167000002Y-99500133D03*
X129000002Y-89500135D03*
X142240000Y-98700000D03*
X129000002Y-124500135D03*
X136271000Y-124968000D03*
X145500002Y-73000135D03*
X163000002Y-136000135D03*
X153000002Y-73000135D03*
X129000002Y-119384535D03*
X163830000Y-108204000D03*
X146431000Y-118734002D03*
X150500002Y-136000135D03*
X154432000Y-120650000D03*
X135500000Y-136000135D03*
X138176000Y-97790000D03*
X146431000Y-110617000D03*
X129000002Y-92000135D03*
X160500002Y-73000135D03*
X129000002Y-79500135D03*
X129000002Y-82000135D03*
X129000002Y-112000133D03*
X167000002Y-94500135D03*
X137922000Y-90297000D03*
X150500002Y-73000135D03*
X167000002Y-79500135D03*
X150368000Y-93218000D03*
%TO.N,+12V*%
X138684000Y-128270000D03*
X138684000Y-130048000D03*
X160782000Y-93563500D03*
X160782000Y-94297500D03*
X162306000Y-128270000D03*
X149860000Y-128270000D03*
X160782000Y-92763500D03*
X162306000Y-130048000D03*
X149860000Y-130048000D03*
%TO.N,+3V3*%
X156718000Y-112903000D03*
X157861000Y-84709000D03*
X152273000Y-77724000D03*
X150600000Y-86106000D03*
X150876000Y-83185000D03*
X137967756Y-82318500D03*
X137922000Y-91948000D03*
X155956000Y-112897223D03*
X157226000Y-85471000D03*
X157099000Y-78486000D03*
X155194000Y-112903000D03*
X132000000Y-103900000D03*
X155702000Y-92837000D03*
X149479000Y-93218000D03*
X153797000Y-113538000D03*
%TO.N,+5V*%
X131953000Y-108966000D03*
X134493000Y-108966000D03*
X157607000Y-105791000D03*
%TO.N,/Vg_PA*%
X142748000Y-108966000D03*
%TO.N,/SDI*%
X137287000Y-96139000D03*
%TO.N,/SDO*%
X139700000Y-95103300D03*
%TO.N,/SCK*%
X139700000Y-94361000D03*
%TO.N,/PLL_CSB*%
X146939000Y-78486000D03*
%TO.N,/T_CSB*%
X145200000Y-78486000D03*
%TO.N,/Pout_PA*%
X139700000Y-96400000D03*
%TO.N,/Vd_PA*%
X148821104Y-102963600D03*
X134493000Y-110236000D03*
X146000000Y-103000000D03*
X131953000Y-110236000D03*
%TO.N,/Id_PA*%
X153035000Y-101092000D03*
X152781000Y-91440000D03*
%TO.N,/NRST*%
X150495000Y-85344000D03*
X155651200Y-88900000D03*
X153924000Y-85217000D03*
%TO.N,/SCK{slash}SWCLK*%
X140126756Y-80772000D03*
%TO.N,/TMS{slash}SWDIO*%
X140126756Y-83258300D03*
%TO.N,/I2C1_SDA*%
X148590000Y-78486000D03*
X143434961Y-86000000D03*
%TO.N,/I2C1_SCL*%
X143428756Y-85200000D03*
X147828000Y-78486000D03*
%TO.N,/PLL_CE*%
X146000000Y-78486000D03*
%TO.N,/EN_6V*%
X145400000Y-122000000D03*
X146217449Y-93218000D03*
%TO.N,/EN_5V*%
X145415000Y-93218000D03*
X134500000Y-122000000D03*
%TD*%
%TA.AperFunction,Conductor*%
%TO.N,GND*%
G36*
X164985037Y-72277921D02*
G01*
X164987827Y-72278476D01*
X164987829Y-72278476D01*
X165000000Y-72280897D01*
X165012171Y-72278476D01*
X165024436Y-72278476D01*
X165037124Y-72277585D01*
X165203960Y-72286954D01*
X165297986Y-72292234D01*
X165312018Y-72293815D01*
X165455653Y-72318220D01*
X165599282Y-72342624D01*
X165613057Y-72345768D01*
X165893047Y-72426432D01*
X165906384Y-72431099D01*
X166071148Y-72499346D01*
X166175583Y-72542604D01*
X166188306Y-72548731D01*
X166213199Y-72562489D01*
X166443329Y-72689678D01*
X166455292Y-72697195D01*
X166692924Y-72865803D01*
X166703972Y-72874613D01*
X166921236Y-73068773D01*
X166931227Y-73078764D01*
X167125387Y-73296028D01*
X167134196Y-73307074D01*
X167192011Y-73388557D01*
X167302805Y-73544708D01*
X167310322Y-73556671D01*
X167451267Y-73811690D01*
X167457398Y-73824421D01*
X167568901Y-74093616D01*
X167573568Y-74106953D01*
X167654232Y-74386943D01*
X167657376Y-74400718D01*
X167700946Y-74657147D01*
X167706184Y-74687977D01*
X167707766Y-74702018D01*
X167722415Y-74962876D01*
X167721524Y-74975564D01*
X167721524Y-74987829D01*
X167719103Y-75000000D01*
X167721524Y-75012171D01*
X167721524Y-75012173D01*
X167722079Y-75014963D01*
X167724500Y-75039543D01*
X167724500Y-133960457D01*
X167722079Y-133985037D01*
X167719103Y-134000000D01*
X167721524Y-134012171D01*
X167721524Y-134024436D01*
X167722415Y-134037124D01*
X167707766Y-134297982D01*
X167706185Y-134312018D01*
X167681780Y-134455652D01*
X167657376Y-134599282D01*
X167654232Y-134613057D01*
X167573568Y-134893047D01*
X167568901Y-134906384D01*
X167457398Y-135175579D01*
X167451267Y-135188310D01*
X167310322Y-135443329D01*
X167302805Y-135455292D01*
X167134197Y-135692924D01*
X167125387Y-135703972D01*
X166931227Y-135921236D01*
X166921236Y-135931227D01*
X166703972Y-136125387D01*
X166692924Y-136134197D01*
X166455292Y-136302805D01*
X166443329Y-136310322D01*
X166188306Y-136451269D01*
X166175583Y-136457396D01*
X166071148Y-136500654D01*
X165906384Y-136568901D01*
X165893047Y-136573568D01*
X165613057Y-136654232D01*
X165599282Y-136657376D01*
X165455652Y-136681780D01*
X165312018Y-136706185D01*
X165297986Y-136707766D01*
X165203960Y-136713046D01*
X165037124Y-136722415D01*
X165024436Y-136721524D01*
X165012171Y-136721524D01*
X165000000Y-136719103D01*
X164987829Y-136721524D01*
X164987827Y-136721524D01*
X164985037Y-136722079D01*
X164960457Y-136724500D01*
X131039543Y-136724500D01*
X131014963Y-136722079D01*
X131012173Y-136721524D01*
X131012171Y-136721524D01*
X131000000Y-136719103D01*
X130987829Y-136721524D01*
X130975564Y-136721524D01*
X130962876Y-136722415D01*
X130796040Y-136713046D01*
X130702014Y-136707766D01*
X130687982Y-136706185D01*
X130544348Y-136681780D01*
X130400718Y-136657376D01*
X130386943Y-136654232D01*
X130106953Y-136573568D01*
X130093616Y-136568901D01*
X129928852Y-136500654D01*
X129824417Y-136457396D01*
X129811694Y-136451269D01*
X129556671Y-136310322D01*
X129544708Y-136302805D01*
X129307076Y-136134197D01*
X129296028Y-136125387D01*
X129078764Y-135931227D01*
X129068773Y-135921236D01*
X128874613Y-135703972D01*
X128865803Y-135692924D01*
X128697195Y-135455292D01*
X128689678Y-135443329D01*
X128548733Y-135188310D01*
X128542602Y-135175579D01*
X128431099Y-134906384D01*
X128426432Y-134893047D01*
X128345768Y-134613057D01*
X128342624Y-134599282D01*
X128318220Y-134455652D01*
X128293815Y-134312018D01*
X128292234Y-134297982D01*
X128277585Y-134037124D01*
X128278476Y-134024436D01*
X128278476Y-134012171D01*
X128280897Y-134000000D01*
X128277921Y-133985037D01*
X128275500Y-133960457D01*
X128275500Y-130048000D01*
X138253196Y-130048000D01*
X138274281Y-130181126D01*
X138335472Y-130301220D01*
X138430780Y-130396528D01*
X138550874Y-130457719D01*
X138560663Y-130459269D01*
X138560665Y-130459270D01*
X138674207Y-130477253D01*
X138684000Y-130478804D01*
X138693793Y-130477253D01*
X138807335Y-130459270D01*
X138807337Y-130459269D01*
X138817126Y-130457719D01*
X138937220Y-130396528D01*
X139032528Y-130301220D01*
X139093719Y-130181126D01*
X139114804Y-130048000D01*
X149429196Y-130048000D01*
X149450281Y-130181126D01*
X149511472Y-130301220D01*
X149606780Y-130396528D01*
X149726874Y-130457719D01*
X149736663Y-130459269D01*
X149736665Y-130459270D01*
X149850207Y-130477253D01*
X149860000Y-130478804D01*
X149869793Y-130477253D01*
X149983335Y-130459270D01*
X149983337Y-130459269D01*
X149993126Y-130457719D01*
X150113220Y-130396528D01*
X150208528Y-130301220D01*
X150269719Y-130181126D01*
X150290804Y-130048000D01*
X161875196Y-130048000D01*
X161896281Y-130181126D01*
X161957472Y-130301220D01*
X162052780Y-130396528D01*
X162172874Y-130457719D01*
X162182663Y-130459269D01*
X162182665Y-130459270D01*
X162296207Y-130477253D01*
X162306000Y-130478804D01*
X162315793Y-130477253D01*
X162429335Y-130459270D01*
X162429337Y-130459269D01*
X162439126Y-130457719D01*
X162559220Y-130396528D01*
X162654528Y-130301220D01*
X162715719Y-130181126D01*
X162736804Y-130048000D01*
X162715719Y-129914874D01*
X162654528Y-129794780D01*
X162559220Y-129699472D01*
X162439126Y-129638281D01*
X162429337Y-129636731D01*
X162429335Y-129636730D01*
X162315793Y-129618747D01*
X162306000Y-129617196D01*
X162296207Y-129618747D01*
X162182665Y-129636730D01*
X162182663Y-129636731D01*
X162172874Y-129638281D01*
X162052780Y-129699472D01*
X161957472Y-129794780D01*
X161896281Y-129914874D01*
X161875196Y-130048000D01*
X150290804Y-130048000D01*
X150269719Y-129914874D01*
X150208528Y-129794780D01*
X150113220Y-129699472D01*
X149993126Y-129638281D01*
X149983337Y-129636731D01*
X149983335Y-129636730D01*
X149869793Y-129618747D01*
X149860000Y-129617196D01*
X149850207Y-129618747D01*
X149736665Y-129636730D01*
X149736663Y-129636731D01*
X149726874Y-129638281D01*
X149606780Y-129699472D01*
X149511472Y-129794780D01*
X149450281Y-129914874D01*
X149429196Y-130048000D01*
X139114804Y-130048000D01*
X139093719Y-129914874D01*
X139032528Y-129794780D01*
X138937220Y-129699472D01*
X138817126Y-129638281D01*
X138807337Y-129636731D01*
X138807335Y-129636730D01*
X138693793Y-129618747D01*
X138684000Y-129617196D01*
X138674207Y-129618747D01*
X138560665Y-129636730D01*
X138560663Y-129636731D01*
X138550874Y-129638281D01*
X138430780Y-129699472D01*
X138335472Y-129794780D01*
X138274281Y-129914874D01*
X138253196Y-130048000D01*
X128275500Y-130048000D01*
X128275500Y-128270000D01*
X138253196Y-128270000D01*
X138274281Y-128403126D01*
X138335472Y-128523220D01*
X138430780Y-128618528D01*
X138550874Y-128679719D01*
X138560663Y-128681269D01*
X138560665Y-128681270D01*
X138674207Y-128699253D01*
X138684000Y-128700804D01*
X138693793Y-128699253D01*
X138807335Y-128681270D01*
X138807337Y-128681269D01*
X138817126Y-128679719D01*
X138937220Y-128618528D01*
X139032528Y-128523220D01*
X139093719Y-128403126D01*
X139114804Y-128270000D01*
X149429196Y-128270000D01*
X149450281Y-128403126D01*
X149511472Y-128523220D01*
X149606780Y-128618528D01*
X149726874Y-128679719D01*
X149736663Y-128681269D01*
X149736665Y-128681270D01*
X149850207Y-128699253D01*
X149860000Y-128700804D01*
X149869793Y-128699253D01*
X149983335Y-128681270D01*
X149983337Y-128681269D01*
X149993126Y-128679719D01*
X150113220Y-128618528D01*
X150208528Y-128523220D01*
X150269719Y-128403126D01*
X150290804Y-128270000D01*
X161875196Y-128270000D01*
X161896281Y-128403126D01*
X161957472Y-128523220D01*
X162052780Y-128618528D01*
X162172874Y-128679719D01*
X162182663Y-128681269D01*
X162182665Y-128681270D01*
X162296207Y-128699253D01*
X162306000Y-128700804D01*
X162315793Y-128699253D01*
X162429335Y-128681270D01*
X162429337Y-128681269D01*
X162439126Y-128679719D01*
X162559220Y-128618528D01*
X162654528Y-128523220D01*
X162715719Y-128403126D01*
X162736804Y-128270000D01*
X162715719Y-128136874D01*
X162654528Y-128016780D01*
X162559220Y-127921472D01*
X162439126Y-127860281D01*
X162429337Y-127858731D01*
X162429335Y-127858730D01*
X162315793Y-127840747D01*
X162306000Y-127839196D01*
X162296207Y-127840747D01*
X162182665Y-127858730D01*
X162182663Y-127858731D01*
X162172874Y-127860281D01*
X162052780Y-127921472D01*
X161957472Y-128016780D01*
X161896281Y-128136874D01*
X161875196Y-128270000D01*
X150290804Y-128270000D01*
X150269719Y-128136874D01*
X150208528Y-128016780D01*
X150113220Y-127921472D01*
X149993126Y-127860281D01*
X149983337Y-127858731D01*
X149983335Y-127858730D01*
X149869793Y-127840747D01*
X149860000Y-127839196D01*
X149850207Y-127840747D01*
X149736665Y-127858730D01*
X149736663Y-127858731D01*
X149726874Y-127860281D01*
X149606780Y-127921472D01*
X149511472Y-128016780D01*
X149450281Y-128136874D01*
X149429196Y-128270000D01*
X139114804Y-128270000D01*
X139093719Y-128136874D01*
X139032528Y-128016780D01*
X138937220Y-127921472D01*
X138817126Y-127860281D01*
X138807337Y-127858731D01*
X138807335Y-127858730D01*
X138693793Y-127840747D01*
X138684000Y-127839196D01*
X138674207Y-127840747D01*
X138560665Y-127858730D01*
X138560663Y-127858731D01*
X138550874Y-127860281D01*
X138430780Y-127921472D01*
X138335472Y-128016780D01*
X138274281Y-128136874D01*
X138253196Y-128270000D01*
X128275500Y-128270000D01*
X128275500Y-122000000D01*
X134069196Y-122000000D01*
X134090281Y-122133126D01*
X134151472Y-122253220D01*
X134246780Y-122348528D01*
X134366874Y-122409719D01*
X134376663Y-122411269D01*
X134376665Y-122411270D01*
X134490207Y-122429253D01*
X134500000Y-122430804D01*
X134509793Y-122429253D01*
X134623335Y-122411270D01*
X134623337Y-122411269D01*
X134633126Y-122409719D01*
X134753220Y-122348528D01*
X134848528Y-122253220D01*
X134909719Y-122133126D01*
X134930804Y-122000000D01*
X144969196Y-122000000D01*
X144990281Y-122133126D01*
X145051472Y-122253220D01*
X145146780Y-122348528D01*
X145266874Y-122409719D01*
X145276663Y-122411269D01*
X145276665Y-122411270D01*
X145390207Y-122429253D01*
X145400000Y-122430804D01*
X145409793Y-122429253D01*
X145523335Y-122411270D01*
X145523337Y-122411269D01*
X145533126Y-122409719D01*
X145653220Y-122348528D01*
X145748528Y-122253220D01*
X145809719Y-122133126D01*
X145830804Y-122000000D01*
X145809719Y-121866874D01*
X145748528Y-121746780D01*
X145653220Y-121651472D01*
X145533126Y-121590281D01*
X145523337Y-121588731D01*
X145523335Y-121588730D01*
X145409793Y-121570747D01*
X145400000Y-121569196D01*
X145390207Y-121570747D01*
X145276665Y-121588730D01*
X145276663Y-121588731D01*
X145266874Y-121590281D01*
X145146780Y-121651472D01*
X145051472Y-121746780D01*
X144990281Y-121866874D01*
X144969196Y-122000000D01*
X134930804Y-122000000D01*
X134909719Y-121866874D01*
X134848528Y-121746780D01*
X134753220Y-121651472D01*
X134633126Y-121590281D01*
X134623337Y-121588731D01*
X134623335Y-121588730D01*
X134509793Y-121570747D01*
X134500000Y-121569196D01*
X134490207Y-121570747D01*
X134376665Y-121588730D01*
X134376663Y-121588731D01*
X134366874Y-121590281D01*
X134246780Y-121651472D01*
X134151472Y-121746780D01*
X134090281Y-121866874D01*
X134069196Y-122000000D01*
X128275500Y-122000000D01*
X128275500Y-113538000D01*
X153366196Y-113538000D01*
X153387281Y-113671126D01*
X153448472Y-113791220D01*
X153543780Y-113886528D01*
X153663874Y-113947719D01*
X153673663Y-113949269D01*
X153673665Y-113949270D01*
X153787207Y-113967253D01*
X153797000Y-113968804D01*
X153806793Y-113967253D01*
X153920335Y-113949270D01*
X153920337Y-113949269D01*
X153930126Y-113947719D01*
X154050220Y-113886528D01*
X154145528Y-113791220D01*
X154206719Y-113671126D01*
X154227804Y-113538000D01*
X154206719Y-113404874D01*
X154145528Y-113284780D01*
X154050220Y-113189472D01*
X153930126Y-113128281D01*
X153920337Y-113126731D01*
X153920335Y-113126730D01*
X153806793Y-113108747D01*
X153797000Y-113107196D01*
X153787207Y-113108747D01*
X153673665Y-113126730D01*
X153673663Y-113126731D01*
X153663874Y-113128281D01*
X153543780Y-113189472D01*
X153448472Y-113284780D01*
X153387281Y-113404874D01*
X153366196Y-113538000D01*
X128275500Y-113538000D01*
X128275500Y-112903000D01*
X154763196Y-112903000D01*
X154784281Y-113036126D01*
X154845472Y-113156220D01*
X154940780Y-113251528D01*
X155060874Y-113312719D01*
X155070663Y-113314269D01*
X155070665Y-113314270D01*
X155184207Y-113332253D01*
X155194000Y-113333804D01*
X155203793Y-113332253D01*
X155317335Y-113314270D01*
X155317337Y-113314269D01*
X155327126Y-113312719D01*
X155447220Y-113251528D01*
X155488795Y-113209953D01*
X155551107Y-113175929D01*
X155621923Y-113180995D01*
X155666984Y-113209955D01*
X155702780Y-113245751D01*
X155822874Y-113306942D01*
X155832663Y-113308492D01*
X155832665Y-113308493D01*
X155946207Y-113326476D01*
X155956000Y-113328027D01*
X155965793Y-113326476D01*
X156079335Y-113308493D01*
X156079337Y-113308492D01*
X156089126Y-113306942D01*
X156209220Y-113245751D01*
X156245018Y-113209953D01*
X156307330Y-113175929D01*
X156378146Y-113180995D01*
X156423207Y-113209955D01*
X156464780Y-113251528D01*
X156584874Y-113312719D01*
X156594663Y-113314269D01*
X156594665Y-113314270D01*
X156708207Y-113332253D01*
X156718000Y-113333804D01*
X156727793Y-113332253D01*
X156841335Y-113314270D01*
X156841337Y-113314269D01*
X156851126Y-113312719D01*
X156971220Y-113251528D01*
X157066528Y-113156220D01*
X157127719Y-113036126D01*
X157148804Y-112903000D01*
X157127719Y-112769874D01*
X157066528Y-112649780D01*
X156971220Y-112554472D01*
X156851126Y-112493281D01*
X156841337Y-112491731D01*
X156841335Y-112491730D01*
X156727793Y-112473747D01*
X156718000Y-112472196D01*
X156708207Y-112473747D01*
X156594665Y-112491730D01*
X156594663Y-112491731D01*
X156584874Y-112493281D01*
X156464780Y-112554472D01*
X156428982Y-112590270D01*
X156366674Y-112624294D01*
X156295858Y-112619230D01*
X156250794Y-112590269D01*
X156209220Y-112548695D01*
X156089126Y-112487504D01*
X156079337Y-112485954D01*
X156079335Y-112485953D01*
X155965793Y-112467970D01*
X155956000Y-112466419D01*
X155946207Y-112467970D01*
X155832665Y-112485953D01*
X155832663Y-112485954D01*
X155822874Y-112487504D01*
X155702780Y-112548695D01*
X155661205Y-112590270D01*
X155598897Y-112624294D01*
X155528081Y-112619230D01*
X155483017Y-112590269D01*
X155447220Y-112554472D01*
X155327126Y-112493281D01*
X155317337Y-112491731D01*
X155317335Y-112491730D01*
X155203793Y-112473747D01*
X155194000Y-112472196D01*
X155184207Y-112473747D01*
X155070665Y-112491730D01*
X155070663Y-112491731D01*
X155060874Y-112493281D01*
X154940780Y-112554472D01*
X154845472Y-112649780D01*
X154784281Y-112769874D01*
X154763196Y-112903000D01*
X128275500Y-112903000D01*
X128275500Y-111900686D01*
X134601700Y-111900686D01*
X134641493Y-112087899D01*
X134719341Y-112262746D01*
X134723221Y-112268087D01*
X134723222Y-112268088D01*
X134827957Y-112412243D01*
X134831840Y-112417588D01*
X134836750Y-112422009D01*
X134836751Y-112422010D01*
X134920905Y-112497782D01*
X134974074Y-112545656D01*
X135139827Y-112641354D01*
X135321854Y-112700498D01*
X135328415Y-112701188D01*
X135328417Y-112701188D01*
X135381315Y-112706748D01*
X135464485Y-112715489D01*
X135559915Y-112715489D01*
X135643085Y-112706748D01*
X135695983Y-112701188D01*
X135695985Y-112701188D01*
X135702546Y-112700498D01*
X135884573Y-112641354D01*
X136050326Y-112545656D01*
X136103496Y-112497782D01*
X136187649Y-112422010D01*
X136187650Y-112422009D01*
X136192560Y-112417588D01*
X136305059Y-112262747D01*
X136382907Y-112087899D01*
X136422700Y-111900686D01*
X136422700Y-111709292D01*
X136382907Y-111522079D01*
X136305059Y-111347232D01*
X136301177Y-111341889D01*
X136196443Y-111197734D01*
X136196441Y-111197732D01*
X136192560Y-111192390D01*
X136050326Y-111064322D01*
X135884573Y-110968624D01*
X135702546Y-110909480D01*
X135695985Y-110908790D01*
X135695983Y-110908790D01*
X135643085Y-110903230D01*
X135559915Y-110894489D01*
X135464485Y-110894489D01*
X135381315Y-110903230D01*
X135328417Y-110908790D01*
X135328415Y-110908790D01*
X135321854Y-110909480D01*
X135139827Y-110968624D01*
X134974074Y-111064322D01*
X134831840Y-111192390D01*
X134719341Y-111347231D01*
X134641493Y-111522079D01*
X134601700Y-111709292D01*
X134601700Y-111900686D01*
X128275500Y-111900686D01*
X128275500Y-110236000D01*
X131522196Y-110236000D01*
X131543281Y-110369126D01*
X131604472Y-110489220D01*
X131699780Y-110584528D01*
X131819874Y-110645719D01*
X131829663Y-110647269D01*
X131829665Y-110647270D01*
X131943207Y-110665253D01*
X131953000Y-110666804D01*
X131962793Y-110665253D01*
X132076335Y-110647270D01*
X132076337Y-110647269D01*
X132086126Y-110645719D01*
X132206220Y-110584528D01*
X132301528Y-110489220D01*
X132362719Y-110369126D01*
X132383804Y-110236000D01*
X134062196Y-110236000D01*
X134083281Y-110369126D01*
X134144472Y-110489220D01*
X134239780Y-110584528D01*
X134359874Y-110645719D01*
X134369663Y-110647269D01*
X134369665Y-110647270D01*
X134483207Y-110665253D01*
X134493000Y-110666804D01*
X134502793Y-110665253D01*
X134616335Y-110647270D01*
X134616337Y-110647269D01*
X134626126Y-110645719D01*
X134746220Y-110584528D01*
X134841528Y-110489220D01*
X134902719Y-110369126D01*
X134923804Y-110236000D01*
X134902719Y-110102874D01*
X134841528Y-109982780D01*
X134746220Y-109887472D01*
X134626126Y-109826281D01*
X134616337Y-109824731D01*
X134616335Y-109824730D01*
X134502793Y-109806747D01*
X134493000Y-109805196D01*
X134483207Y-109806747D01*
X134369665Y-109824730D01*
X134369663Y-109824731D01*
X134359874Y-109826281D01*
X134239780Y-109887472D01*
X134144472Y-109982780D01*
X134083281Y-110102874D01*
X134062196Y-110236000D01*
X132383804Y-110236000D01*
X132362719Y-110102874D01*
X132301528Y-109982780D01*
X132206220Y-109887472D01*
X132086126Y-109826281D01*
X132076337Y-109824731D01*
X132076335Y-109824730D01*
X131962793Y-109806747D01*
X131953000Y-109805196D01*
X131943207Y-109806747D01*
X131829665Y-109824730D01*
X131829663Y-109824731D01*
X131819874Y-109826281D01*
X131699780Y-109887472D01*
X131604472Y-109982780D01*
X131543281Y-110102874D01*
X131522196Y-110236000D01*
X128275500Y-110236000D01*
X128275500Y-108966000D01*
X131522196Y-108966000D01*
X131543281Y-109099126D01*
X131604472Y-109219220D01*
X131699780Y-109314528D01*
X131819874Y-109375719D01*
X131829663Y-109377269D01*
X131829665Y-109377270D01*
X131943207Y-109395253D01*
X131953000Y-109396804D01*
X131962793Y-109395253D01*
X132076335Y-109377270D01*
X132076337Y-109377269D01*
X132086126Y-109375719D01*
X132206220Y-109314528D01*
X132301528Y-109219220D01*
X132362719Y-109099126D01*
X132383804Y-108966000D01*
X134062196Y-108966000D01*
X134083281Y-109099126D01*
X134144472Y-109219220D01*
X134239780Y-109314528D01*
X134359874Y-109375719D01*
X134369663Y-109377269D01*
X134369665Y-109377270D01*
X134483207Y-109395253D01*
X134493000Y-109396804D01*
X134502793Y-109395253D01*
X134616335Y-109377270D01*
X134616337Y-109377269D01*
X134626126Y-109375719D01*
X134746220Y-109314528D01*
X134841528Y-109219220D01*
X134902719Y-109099126D01*
X134923804Y-108966000D01*
X142317196Y-108966000D01*
X142338281Y-109099126D01*
X142399472Y-109219220D01*
X142494780Y-109314528D01*
X142614874Y-109375719D01*
X142624663Y-109377269D01*
X142624665Y-109377270D01*
X142738207Y-109395253D01*
X142748000Y-109396804D01*
X142757793Y-109395253D01*
X142871335Y-109377270D01*
X142871337Y-109377269D01*
X142881126Y-109375719D01*
X143001220Y-109314528D01*
X143096528Y-109219220D01*
X143157719Y-109099126D01*
X143178804Y-108966000D01*
X143157719Y-108832874D01*
X143096528Y-108712780D01*
X143001220Y-108617472D01*
X142881126Y-108556281D01*
X142871337Y-108554731D01*
X142871335Y-108554730D01*
X142757793Y-108536747D01*
X142748000Y-108535196D01*
X142738207Y-108536747D01*
X142624665Y-108554730D01*
X142624663Y-108554731D01*
X142614874Y-108556281D01*
X142494780Y-108617472D01*
X142399472Y-108712780D01*
X142338281Y-108832874D01*
X142317196Y-108966000D01*
X134923804Y-108966000D01*
X134902719Y-108832874D01*
X134841528Y-108712780D01*
X134746220Y-108617472D01*
X134626126Y-108556281D01*
X134616337Y-108554731D01*
X134616335Y-108554730D01*
X134502793Y-108536747D01*
X134493000Y-108535196D01*
X134483207Y-108536747D01*
X134369665Y-108554730D01*
X134369663Y-108554731D01*
X134359874Y-108556281D01*
X134239780Y-108617472D01*
X134144472Y-108712780D01*
X134083281Y-108832874D01*
X134062196Y-108966000D01*
X132383804Y-108966000D01*
X132362719Y-108832874D01*
X132301528Y-108712780D01*
X132206220Y-108617472D01*
X132086126Y-108556281D01*
X132076337Y-108554731D01*
X132076335Y-108554730D01*
X131962793Y-108536747D01*
X131953000Y-108535196D01*
X131943207Y-108536747D01*
X131829665Y-108554730D01*
X131829663Y-108554731D01*
X131819874Y-108556281D01*
X131699780Y-108617472D01*
X131604472Y-108712780D01*
X131543281Y-108832874D01*
X131522196Y-108966000D01*
X128275500Y-108966000D01*
X128275500Y-105791000D01*
X157176196Y-105791000D01*
X157197281Y-105924126D01*
X157258472Y-106044220D01*
X157353780Y-106139528D01*
X157473874Y-106200719D01*
X157483663Y-106202269D01*
X157483665Y-106202270D01*
X157597207Y-106220253D01*
X157607000Y-106221804D01*
X157616793Y-106220253D01*
X157730335Y-106202270D01*
X157730337Y-106202269D01*
X157740126Y-106200719D01*
X157860220Y-106139528D01*
X157955528Y-106044220D01*
X158016719Y-105924126D01*
X158037804Y-105791000D01*
X158016719Y-105657874D01*
X157955528Y-105537780D01*
X157860220Y-105442472D01*
X157740126Y-105381281D01*
X157730337Y-105379731D01*
X157730335Y-105379730D01*
X157616793Y-105361747D01*
X157607000Y-105360196D01*
X157597207Y-105361747D01*
X157483665Y-105379730D01*
X157483663Y-105379731D01*
X157473874Y-105381281D01*
X157353780Y-105442472D01*
X157258472Y-105537780D01*
X157197281Y-105657874D01*
X157176196Y-105791000D01*
X128275500Y-105791000D01*
X128275500Y-103900000D01*
X131569196Y-103900000D01*
X131590281Y-104033126D01*
X131651472Y-104153220D01*
X131746780Y-104248528D01*
X131866874Y-104309719D01*
X131876663Y-104311269D01*
X131876665Y-104311270D01*
X131990207Y-104329253D01*
X132000000Y-104330804D01*
X132009793Y-104329253D01*
X132123335Y-104311270D01*
X132123337Y-104311269D01*
X132133126Y-104309719D01*
X132253220Y-104248528D01*
X132348528Y-104153220D01*
X132409719Y-104033126D01*
X132430804Y-103900000D01*
X132409719Y-103766874D01*
X132348528Y-103646780D01*
X132253220Y-103551472D01*
X132133126Y-103490281D01*
X132123337Y-103488731D01*
X132123335Y-103488730D01*
X132009793Y-103470747D01*
X132000000Y-103469196D01*
X131990207Y-103470747D01*
X131876665Y-103488730D01*
X131876663Y-103488731D01*
X131866874Y-103490281D01*
X131746780Y-103551472D01*
X131651472Y-103646780D01*
X131590281Y-103766874D01*
X131569196Y-103900000D01*
X128275500Y-103900000D01*
X128275500Y-103000000D01*
X145569196Y-103000000D01*
X145590281Y-103133126D01*
X145651472Y-103253220D01*
X145746780Y-103348528D01*
X145866874Y-103409719D01*
X145876663Y-103411269D01*
X145876665Y-103411270D01*
X145990207Y-103429253D01*
X146000000Y-103430804D01*
X146009793Y-103429253D01*
X146123335Y-103411270D01*
X146123337Y-103411269D01*
X146133126Y-103409719D01*
X146253220Y-103348528D01*
X146348528Y-103253220D01*
X146409719Y-103133126D01*
X146430804Y-103000000D01*
X146425039Y-102963600D01*
X148390300Y-102963600D01*
X148411385Y-103096726D01*
X148472576Y-103216820D01*
X148567884Y-103312128D01*
X148687978Y-103373319D01*
X148697767Y-103374869D01*
X148697769Y-103374870D01*
X148811311Y-103392853D01*
X148821104Y-103394404D01*
X148830897Y-103392853D01*
X148944439Y-103374870D01*
X148944441Y-103374869D01*
X148954230Y-103373319D01*
X149074324Y-103312128D01*
X149169632Y-103216820D01*
X149230823Y-103096726D01*
X149251908Y-102963600D01*
X149230823Y-102830474D01*
X149169632Y-102710380D01*
X149074324Y-102615072D01*
X148954230Y-102553881D01*
X148944441Y-102552331D01*
X148944439Y-102552330D01*
X148830897Y-102534347D01*
X148821104Y-102532796D01*
X148811311Y-102534347D01*
X148697769Y-102552330D01*
X148697767Y-102552331D01*
X148687978Y-102553881D01*
X148567884Y-102615072D01*
X148472576Y-102710380D01*
X148411385Y-102830474D01*
X148390300Y-102963600D01*
X146425039Y-102963600D01*
X146409719Y-102866874D01*
X146348528Y-102746780D01*
X146253220Y-102651472D01*
X146133126Y-102590281D01*
X146123337Y-102588731D01*
X146123335Y-102588730D01*
X146009793Y-102570747D01*
X146000000Y-102569196D01*
X145990207Y-102570747D01*
X145876665Y-102588730D01*
X145876663Y-102588731D01*
X145866874Y-102590281D01*
X145746780Y-102651472D01*
X145651472Y-102746780D01*
X145590281Y-102866874D01*
X145569196Y-103000000D01*
X128275500Y-103000000D01*
X128275500Y-101092000D01*
X152604196Y-101092000D01*
X152625281Y-101225126D01*
X152686472Y-101345220D01*
X152781780Y-101440528D01*
X152901874Y-101501719D01*
X152911663Y-101503269D01*
X152911665Y-101503270D01*
X153025207Y-101521253D01*
X153035000Y-101522804D01*
X153044793Y-101521253D01*
X153158335Y-101503270D01*
X153158337Y-101503269D01*
X153168126Y-101501719D01*
X153288220Y-101440528D01*
X153383528Y-101345220D01*
X153444719Y-101225126D01*
X153465804Y-101092000D01*
X153444719Y-100958874D01*
X153383528Y-100838780D01*
X153288220Y-100743472D01*
X153168126Y-100682281D01*
X153158337Y-100680731D01*
X153158335Y-100680730D01*
X153044793Y-100662747D01*
X153035000Y-100661196D01*
X153025207Y-100662747D01*
X152911665Y-100680730D01*
X152911663Y-100680731D01*
X152901874Y-100682281D01*
X152781780Y-100743472D01*
X152686472Y-100838780D01*
X152625281Y-100958874D01*
X152604196Y-101092000D01*
X128275500Y-101092000D01*
X128275500Y-97290686D01*
X134601700Y-97290686D01*
X134641493Y-97477899D01*
X134719341Y-97652746D01*
X134723221Y-97658087D01*
X134723222Y-97658088D01*
X134827957Y-97802243D01*
X134831840Y-97807588D01*
X134974074Y-97935656D01*
X135139827Y-98031354D01*
X135321854Y-98090498D01*
X135328415Y-98091188D01*
X135328417Y-98091188D01*
X135381315Y-98096748D01*
X135464485Y-98105489D01*
X135559915Y-98105489D01*
X135643085Y-98096748D01*
X135695983Y-98091188D01*
X135695985Y-98091188D01*
X135702546Y-98090498D01*
X135884573Y-98031354D01*
X136050326Y-97935656D01*
X136192560Y-97807588D01*
X136305059Y-97652747D01*
X136382907Y-97477899D01*
X136422700Y-97290686D01*
X136422700Y-97099292D01*
X136382907Y-96912079D01*
X136305059Y-96737232D01*
X136237604Y-96644388D01*
X136196443Y-96587734D01*
X136196441Y-96587732D01*
X136192560Y-96582390D01*
X136050326Y-96454322D01*
X135884573Y-96358624D01*
X135702546Y-96299480D01*
X135695985Y-96298790D01*
X135695983Y-96298790D01*
X135643085Y-96293230D01*
X135559915Y-96284489D01*
X135464485Y-96284489D01*
X135381315Y-96293230D01*
X135328417Y-96298790D01*
X135328415Y-96298790D01*
X135321854Y-96299480D01*
X135139827Y-96358624D01*
X134974074Y-96454322D01*
X134831840Y-96582390D01*
X134719341Y-96737231D01*
X134716657Y-96743259D01*
X134716656Y-96743261D01*
X134689071Y-96805218D01*
X134641493Y-96912079D01*
X134601700Y-97099292D01*
X134601700Y-97290686D01*
X128275500Y-97290686D01*
X128275500Y-96139000D01*
X136856196Y-96139000D01*
X136877281Y-96272126D01*
X136938472Y-96392220D01*
X137033780Y-96487528D01*
X137153874Y-96548719D01*
X137163663Y-96550269D01*
X137163665Y-96550270D01*
X137277207Y-96568253D01*
X137287000Y-96569804D01*
X137296793Y-96568253D01*
X137410335Y-96550270D01*
X137410337Y-96550269D01*
X137420126Y-96548719D01*
X137540220Y-96487528D01*
X137627748Y-96400000D01*
X139269196Y-96400000D01*
X139270747Y-96409793D01*
X139281949Y-96480517D01*
X139290281Y-96533126D01*
X139351472Y-96653220D01*
X139446780Y-96748528D01*
X139566874Y-96809719D01*
X139576663Y-96811269D01*
X139576665Y-96811270D01*
X139690207Y-96829253D01*
X139700000Y-96830804D01*
X139709793Y-96829253D01*
X139823335Y-96811270D01*
X139823337Y-96811269D01*
X139833126Y-96809719D01*
X139953220Y-96748528D01*
X140048528Y-96653220D01*
X140109719Y-96533126D01*
X140118052Y-96480517D01*
X140129253Y-96409793D01*
X140130804Y-96400000D01*
X140123927Y-96356582D01*
X140111270Y-96276665D01*
X140111269Y-96276663D01*
X140109719Y-96266874D01*
X140048528Y-96146780D01*
X139953220Y-96051472D01*
X139833126Y-95990281D01*
X139823337Y-95988731D01*
X139823335Y-95988730D01*
X139709793Y-95970747D01*
X139700000Y-95969196D01*
X139690207Y-95970747D01*
X139576665Y-95988730D01*
X139576663Y-95988731D01*
X139566874Y-95990281D01*
X139446780Y-96051472D01*
X139351472Y-96146780D01*
X139290281Y-96266874D01*
X139288731Y-96276663D01*
X139288730Y-96276665D01*
X139276073Y-96356582D01*
X139269196Y-96400000D01*
X137627748Y-96400000D01*
X137635528Y-96392220D01*
X137696719Y-96272126D01*
X137717804Y-96139000D01*
X137716253Y-96129207D01*
X137698270Y-96015665D01*
X137698269Y-96015663D01*
X137696719Y-96005874D01*
X137635528Y-95885780D01*
X137540220Y-95790472D01*
X137420126Y-95729281D01*
X137410337Y-95727731D01*
X137410335Y-95727730D01*
X137296793Y-95709747D01*
X137287000Y-95708196D01*
X137277207Y-95709747D01*
X137163665Y-95727730D01*
X137163663Y-95727731D01*
X137153874Y-95729281D01*
X137033780Y-95790472D01*
X136938472Y-95885780D01*
X136877281Y-96005874D01*
X136875731Y-96015663D01*
X136875730Y-96015665D01*
X136857747Y-96129207D01*
X136856196Y-96139000D01*
X128275500Y-96139000D01*
X128275500Y-95103300D01*
X139269196Y-95103300D01*
X139290281Y-95236426D01*
X139351472Y-95356520D01*
X139446780Y-95451828D01*
X139566874Y-95513019D01*
X139576663Y-95514569D01*
X139576665Y-95514570D01*
X139690207Y-95532553D01*
X139700000Y-95534104D01*
X139709793Y-95532553D01*
X139823335Y-95514570D01*
X139823337Y-95514569D01*
X139833126Y-95513019D01*
X139953220Y-95451828D01*
X140048528Y-95356520D01*
X140109719Y-95236426D01*
X140130804Y-95103300D01*
X140109719Y-94970174D01*
X140048528Y-94850080D01*
X140019693Y-94821245D01*
X139985667Y-94758933D01*
X139990732Y-94688118D01*
X140019693Y-94643055D01*
X140048528Y-94614220D01*
X140109719Y-94494126D01*
X140118378Y-94439459D01*
X140129253Y-94370793D01*
X140130804Y-94361000D01*
X140120747Y-94297500D01*
X160351196Y-94297500D01*
X160372281Y-94430626D01*
X160433472Y-94550720D01*
X160528780Y-94646028D01*
X160648874Y-94707219D01*
X160658663Y-94708769D01*
X160658665Y-94708770D01*
X160772207Y-94726753D01*
X160782000Y-94728304D01*
X160791793Y-94726753D01*
X160905335Y-94708770D01*
X160905337Y-94708769D01*
X160915126Y-94707219D01*
X161035220Y-94646028D01*
X161130528Y-94550720D01*
X161191719Y-94430626D01*
X161212804Y-94297500D01*
X161203327Y-94237665D01*
X161193270Y-94174165D01*
X161193269Y-94174163D01*
X161191719Y-94164374D01*
X161130528Y-94044280D01*
X161105843Y-94019595D01*
X161071817Y-93957283D01*
X161076882Y-93886468D01*
X161105843Y-93841405D01*
X161130528Y-93816720D01*
X161191719Y-93696626D01*
X161212804Y-93563500D01*
X161198564Y-93473593D01*
X161193270Y-93440165D01*
X161193269Y-93440163D01*
X161191719Y-93430374D01*
X161130528Y-93310280D01*
X161072843Y-93252595D01*
X161038817Y-93190283D01*
X161043882Y-93119468D01*
X161072843Y-93074405D01*
X161130528Y-93016720D01*
X161191719Y-92896626D01*
X161194910Y-92876483D01*
X161211253Y-92773293D01*
X161212804Y-92763500D01*
X161191719Y-92630374D01*
X161130528Y-92510280D01*
X161035220Y-92414972D01*
X160915126Y-92353781D01*
X160905337Y-92352231D01*
X160905335Y-92352230D01*
X160791793Y-92334247D01*
X160782000Y-92332696D01*
X160772207Y-92334247D01*
X160658665Y-92352230D01*
X160658663Y-92352231D01*
X160648874Y-92353781D01*
X160528780Y-92414972D01*
X160433472Y-92510280D01*
X160372281Y-92630374D01*
X160351196Y-92763500D01*
X160352747Y-92773293D01*
X160369091Y-92876483D01*
X160372281Y-92896626D01*
X160433472Y-93016720D01*
X160491157Y-93074405D01*
X160525183Y-93136717D01*
X160520118Y-93207532D01*
X160491157Y-93252595D01*
X160433472Y-93310280D01*
X160372281Y-93430374D01*
X160370731Y-93440163D01*
X160370730Y-93440165D01*
X160365436Y-93473593D01*
X160351196Y-93563500D01*
X160372281Y-93696626D01*
X160433472Y-93816720D01*
X160458157Y-93841405D01*
X160492183Y-93903717D01*
X160487118Y-93974532D01*
X160458157Y-94019595D01*
X160433472Y-94044280D01*
X160372281Y-94164374D01*
X160370731Y-94174163D01*
X160370730Y-94174165D01*
X160360673Y-94237665D01*
X160351196Y-94297500D01*
X140120747Y-94297500D01*
X140109719Y-94227874D01*
X140048528Y-94107780D01*
X139953220Y-94012472D01*
X139833126Y-93951281D01*
X139823337Y-93949731D01*
X139823335Y-93949730D01*
X139709793Y-93931747D01*
X139700000Y-93930196D01*
X139690207Y-93931747D01*
X139576665Y-93949730D01*
X139576663Y-93949731D01*
X139566874Y-93951281D01*
X139446780Y-94012472D01*
X139351472Y-94107780D01*
X139290281Y-94227874D01*
X139269196Y-94361000D01*
X139270747Y-94370793D01*
X139281623Y-94439459D01*
X139290281Y-94494126D01*
X139351472Y-94614220D01*
X139380307Y-94643055D01*
X139414333Y-94705367D01*
X139409268Y-94776182D01*
X139380307Y-94821245D01*
X139351472Y-94850080D01*
X139290281Y-94970174D01*
X139269196Y-95103300D01*
X128275500Y-95103300D01*
X128275500Y-93218000D01*
X144984196Y-93218000D01*
X144985747Y-93227793D01*
X145000211Y-93319112D01*
X145005281Y-93351126D01*
X145066472Y-93471220D01*
X145161780Y-93566528D01*
X145281874Y-93627719D01*
X145291663Y-93629269D01*
X145291665Y-93629270D01*
X145405207Y-93647253D01*
X145415000Y-93648804D01*
X145424793Y-93647253D01*
X145538335Y-93629270D01*
X145538337Y-93629269D01*
X145548126Y-93627719D01*
X145668220Y-93566528D01*
X145727130Y-93507618D01*
X145789443Y-93473593D01*
X145860258Y-93478659D01*
X145905320Y-93507619D01*
X145964229Y-93566528D01*
X146084323Y-93627719D01*
X146094112Y-93629269D01*
X146094114Y-93629270D01*
X146207656Y-93647253D01*
X146217449Y-93648804D01*
X146227242Y-93647253D01*
X146340784Y-93629270D01*
X146340786Y-93629269D01*
X146350575Y-93627719D01*
X146470669Y-93566528D01*
X146565977Y-93471220D01*
X146627168Y-93351126D01*
X146632239Y-93319112D01*
X146646702Y-93227793D01*
X146648253Y-93218000D01*
X149048196Y-93218000D01*
X149049747Y-93227793D01*
X149064211Y-93319112D01*
X149069281Y-93351126D01*
X149130472Y-93471220D01*
X149225780Y-93566528D01*
X149345874Y-93627719D01*
X149355663Y-93629269D01*
X149355665Y-93629270D01*
X149469207Y-93647253D01*
X149479000Y-93648804D01*
X149488793Y-93647253D01*
X149602335Y-93629270D01*
X149602337Y-93629269D01*
X149612126Y-93627719D01*
X149732220Y-93566528D01*
X149827528Y-93471220D01*
X149888719Y-93351126D01*
X149893790Y-93319112D01*
X149908253Y-93227793D01*
X149909804Y-93218000D01*
X149888719Y-93084874D01*
X149827528Y-92964780D01*
X149732220Y-92869472D01*
X149668490Y-92837000D01*
X155271196Y-92837000D01*
X155292281Y-92970126D01*
X155353472Y-93090220D01*
X155448780Y-93185528D01*
X155568874Y-93246719D01*
X155578663Y-93248269D01*
X155578665Y-93248270D01*
X155692207Y-93266253D01*
X155702000Y-93267804D01*
X155711793Y-93266253D01*
X155825335Y-93248270D01*
X155825337Y-93248269D01*
X155835126Y-93246719D01*
X155955220Y-93185528D01*
X156050528Y-93090220D01*
X156111719Y-92970126D01*
X156132804Y-92837000D01*
X156111719Y-92703874D01*
X156050528Y-92583780D01*
X155955220Y-92488472D01*
X155835126Y-92427281D01*
X155825337Y-92425731D01*
X155825335Y-92425730D01*
X155711793Y-92407747D01*
X155702000Y-92406196D01*
X155692207Y-92407747D01*
X155578665Y-92425730D01*
X155578663Y-92425731D01*
X155568874Y-92427281D01*
X155448780Y-92488472D01*
X155353472Y-92583780D01*
X155292281Y-92703874D01*
X155271196Y-92837000D01*
X149668490Y-92837000D01*
X149612126Y-92808281D01*
X149602337Y-92806731D01*
X149602335Y-92806730D01*
X149488793Y-92788747D01*
X149479000Y-92787196D01*
X149469207Y-92788747D01*
X149355665Y-92806730D01*
X149355663Y-92806731D01*
X149345874Y-92808281D01*
X149225780Y-92869472D01*
X149130472Y-92964780D01*
X149069281Y-93084874D01*
X149048196Y-93218000D01*
X146648253Y-93218000D01*
X146627168Y-93084874D01*
X146565977Y-92964780D01*
X146470669Y-92869472D01*
X146350575Y-92808281D01*
X146340786Y-92806731D01*
X146340784Y-92806730D01*
X146227242Y-92788747D01*
X146217449Y-92787196D01*
X146207656Y-92788747D01*
X146094114Y-92806730D01*
X146094112Y-92806731D01*
X146084323Y-92808281D01*
X145964229Y-92869472D01*
X145905317Y-92928384D01*
X145843009Y-92962407D01*
X145772194Y-92957343D01*
X145727130Y-92928382D01*
X145668220Y-92869472D01*
X145548126Y-92808281D01*
X145538337Y-92806731D01*
X145538335Y-92806730D01*
X145424793Y-92788747D01*
X145415000Y-92787196D01*
X145405207Y-92788747D01*
X145291665Y-92806730D01*
X145291663Y-92806731D01*
X145281874Y-92808281D01*
X145161780Y-92869472D01*
X145066472Y-92964780D01*
X145005281Y-93084874D01*
X144984196Y-93218000D01*
X128275500Y-93218000D01*
X128275500Y-91948000D01*
X137491196Y-91948000D01*
X137512281Y-92081126D01*
X137573472Y-92201220D01*
X137668780Y-92296528D01*
X137788874Y-92357719D01*
X137798663Y-92359269D01*
X137798665Y-92359270D01*
X137912207Y-92377253D01*
X137922000Y-92378804D01*
X137931793Y-92377253D01*
X138045335Y-92359270D01*
X138045337Y-92359269D01*
X138055126Y-92357719D01*
X138175220Y-92296528D01*
X138270528Y-92201220D01*
X138331719Y-92081126D01*
X138352804Y-91948000D01*
X138351253Y-91938207D01*
X138333270Y-91824665D01*
X138333269Y-91824663D01*
X138331719Y-91814874D01*
X138270528Y-91694780D01*
X138175220Y-91599472D01*
X138055126Y-91538281D01*
X138045337Y-91536731D01*
X138045335Y-91536730D01*
X137931793Y-91518747D01*
X137922000Y-91517196D01*
X137912207Y-91518747D01*
X137798665Y-91536730D01*
X137798663Y-91536731D01*
X137788874Y-91538281D01*
X137668780Y-91599472D01*
X137573472Y-91694780D01*
X137512281Y-91814874D01*
X137510731Y-91824663D01*
X137510730Y-91824665D01*
X137492747Y-91938207D01*
X137491196Y-91948000D01*
X128275500Y-91948000D01*
X128275500Y-91440000D01*
X152350196Y-91440000D01*
X152351747Y-91449793D01*
X152362423Y-91517196D01*
X152371281Y-91573126D01*
X152432472Y-91693220D01*
X152527780Y-91788528D01*
X152647874Y-91849719D01*
X152657663Y-91851269D01*
X152657665Y-91851270D01*
X152771207Y-91869253D01*
X152781000Y-91870804D01*
X152790793Y-91869253D01*
X152904335Y-91851270D01*
X152904337Y-91851269D01*
X152914126Y-91849719D01*
X153034220Y-91788528D01*
X153129528Y-91693220D01*
X153190719Y-91573126D01*
X153199578Y-91517196D01*
X153210253Y-91449793D01*
X153211804Y-91440000D01*
X153190719Y-91306874D01*
X153129528Y-91186780D01*
X153034220Y-91091472D01*
X152914126Y-91030281D01*
X152904337Y-91028731D01*
X152904335Y-91028730D01*
X152790793Y-91010747D01*
X152781000Y-91009196D01*
X152771207Y-91010747D01*
X152657665Y-91028730D01*
X152657663Y-91028731D01*
X152647874Y-91030281D01*
X152527780Y-91091472D01*
X152432472Y-91186780D01*
X152371281Y-91306874D01*
X152350196Y-91440000D01*
X128275500Y-91440000D01*
X128275500Y-88900000D01*
X155220396Y-88900000D01*
X155241481Y-89033126D01*
X155302672Y-89153220D01*
X155397980Y-89248528D01*
X155518074Y-89309719D01*
X155527863Y-89311269D01*
X155527865Y-89311270D01*
X155641407Y-89329253D01*
X155651200Y-89330804D01*
X155660993Y-89329253D01*
X155774535Y-89311270D01*
X155774537Y-89311269D01*
X155784326Y-89309719D01*
X155904420Y-89248528D01*
X155999728Y-89153220D01*
X156060919Y-89033126D01*
X156082004Y-88900000D01*
X156060919Y-88766874D01*
X155999728Y-88646780D01*
X155904420Y-88551472D01*
X155784326Y-88490281D01*
X155774537Y-88488731D01*
X155774535Y-88488730D01*
X155660993Y-88470747D01*
X155651200Y-88469196D01*
X155641407Y-88470747D01*
X155527865Y-88488730D01*
X155527863Y-88488731D01*
X155518074Y-88490281D01*
X155397980Y-88551472D01*
X155302672Y-88646780D01*
X155241481Y-88766874D01*
X155220396Y-88900000D01*
X128275500Y-88900000D01*
X128275500Y-85200000D01*
X142997952Y-85200000D01*
X142999503Y-85209793D01*
X143002196Y-85226793D01*
X143019037Y-85333126D01*
X143080228Y-85453220D01*
X143141016Y-85514008D01*
X143175042Y-85576320D01*
X143169977Y-85647135D01*
X143141020Y-85692193D01*
X143086433Y-85746780D01*
X143025242Y-85866874D01*
X143023692Y-85876663D01*
X143023691Y-85876665D01*
X143009852Y-85964041D01*
X143004157Y-86000000D01*
X143005708Y-86009793D01*
X143022497Y-86115793D01*
X143025242Y-86133126D01*
X143086433Y-86253220D01*
X143181741Y-86348528D01*
X143301835Y-86409719D01*
X143311624Y-86411269D01*
X143311626Y-86411270D01*
X143425168Y-86429253D01*
X143434961Y-86430804D01*
X143444754Y-86429253D01*
X143558296Y-86411270D01*
X143558298Y-86411269D01*
X143568087Y-86409719D01*
X143688181Y-86348528D01*
X143783489Y-86253220D01*
X143844680Y-86133126D01*
X143847426Y-86115793D01*
X143864214Y-86009793D01*
X143865765Y-86000000D01*
X143860070Y-85964041D01*
X143846231Y-85876665D01*
X143846230Y-85876663D01*
X143844680Y-85866874D01*
X143783489Y-85746780D01*
X143722702Y-85685993D01*
X143688676Y-85623681D01*
X143693741Y-85552866D01*
X143722701Y-85507803D01*
X143777284Y-85453220D01*
X143832934Y-85344000D01*
X150064196Y-85344000D01*
X150065747Y-85353793D01*
X150082760Y-85461207D01*
X150085281Y-85477126D01*
X150146472Y-85597220D01*
X150239845Y-85690593D01*
X150273871Y-85752905D01*
X150268806Y-85823720D01*
X150255214Y-85849038D01*
X150251472Y-85852780D01*
X150246972Y-85861612D01*
X150246970Y-85861615D01*
X150239302Y-85876665D01*
X150190281Y-85972874D01*
X150188731Y-85982663D01*
X150188730Y-85982665D01*
X150170747Y-86096207D01*
X150169196Y-86106000D01*
X150190281Y-86239126D01*
X150251472Y-86359220D01*
X150346780Y-86454528D01*
X150466874Y-86515719D01*
X150476663Y-86517269D01*
X150476665Y-86517270D01*
X150590207Y-86535253D01*
X150600000Y-86536804D01*
X150609793Y-86535253D01*
X150723335Y-86517270D01*
X150723337Y-86517269D01*
X150733126Y-86515719D01*
X150853220Y-86454528D01*
X150948528Y-86359220D01*
X151009719Y-86239126D01*
X151030804Y-86106000D01*
X151029253Y-86096207D01*
X151011270Y-85982665D01*
X151011269Y-85982663D01*
X151009719Y-85972874D01*
X150948528Y-85852780D01*
X150855155Y-85759407D01*
X150821129Y-85697095D01*
X150826194Y-85626280D01*
X150839786Y-85600962D01*
X150843528Y-85597220D01*
X150904719Y-85477126D01*
X150907241Y-85461207D01*
X150924253Y-85353793D01*
X150925804Y-85344000D01*
X150919459Y-85303939D01*
X150906270Y-85220665D01*
X150906269Y-85220663D01*
X150905689Y-85217000D01*
X153493196Y-85217000D01*
X153494747Y-85226793D01*
X153511760Y-85334207D01*
X153514281Y-85350126D01*
X153575472Y-85470220D01*
X153670780Y-85565528D01*
X153790874Y-85626719D01*
X153800663Y-85628269D01*
X153800665Y-85628270D01*
X153914207Y-85646253D01*
X153924000Y-85647804D01*
X153933793Y-85646253D01*
X154047335Y-85628270D01*
X154047337Y-85628269D01*
X154057126Y-85626719D01*
X154177220Y-85565528D01*
X154271748Y-85471000D01*
X156795196Y-85471000D01*
X156796747Y-85480793D01*
X156810168Y-85565528D01*
X156816281Y-85604126D01*
X156877472Y-85724220D01*
X156972780Y-85819528D01*
X157092874Y-85880719D01*
X157102663Y-85882269D01*
X157102665Y-85882270D01*
X157216207Y-85900253D01*
X157226000Y-85901804D01*
X157235793Y-85900253D01*
X157349335Y-85882270D01*
X157349337Y-85882269D01*
X157359126Y-85880719D01*
X157479220Y-85819528D01*
X157574528Y-85724220D01*
X157635719Y-85604126D01*
X157641833Y-85565528D01*
X157655253Y-85480793D01*
X157656804Y-85471000D01*
X157639059Y-85358959D01*
X157637270Y-85347665D01*
X157637269Y-85347663D01*
X157635719Y-85337874D01*
X157628311Y-85323335D01*
X157618429Y-85303939D01*
X157605325Y-85234162D01*
X157632026Y-85168378D01*
X157690053Y-85127472D01*
X157750407Y-85122288D01*
X157851207Y-85138253D01*
X157861000Y-85139804D01*
X157870793Y-85138253D01*
X157984335Y-85120270D01*
X157984337Y-85120269D01*
X157994126Y-85118719D01*
X158114220Y-85057528D01*
X158209528Y-84962220D01*
X158270719Y-84842126D01*
X158278931Y-84790281D01*
X158290253Y-84718793D01*
X158291804Y-84709000D01*
X158270719Y-84575874D01*
X158209528Y-84455780D01*
X158114220Y-84360472D01*
X157994126Y-84299281D01*
X157984337Y-84297731D01*
X157984335Y-84297730D01*
X157870793Y-84279747D01*
X157861000Y-84278196D01*
X157851207Y-84279747D01*
X157737665Y-84297730D01*
X157737663Y-84297731D01*
X157727874Y-84299281D01*
X157607780Y-84360472D01*
X157512472Y-84455780D01*
X157451281Y-84575874D01*
X157430196Y-84709000D01*
X157431747Y-84718793D01*
X157443070Y-84790281D01*
X157451281Y-84842126D01*
X157455782Y-84850959D01*
X157455783Y-84850962D01*
X157468571Y-84876061D01*
X157481675Y-84945838D01*
X157454974Y-85011622D01*
X157396947Y-85052528D01*
X157336593Y-85057712D01*
X157235793Y-85041747D01*
X157226000Y-85040196D01*
X157216207Y-85041747D01*
X157102665Y-85059730D01*
X157102663Y-85059731D01*
X157092874Y-85061281D01*
X156972780Y-85122472D01*
X156877472Y-85217780D01*
X156816281Y-85337874D01*
X156814731Y-85347663D01*
X156814730Y-85347665D01*
X156812941Y-85358959D01*
X156795196Y-85471000D01*
X154271748Y-85471000D01*
X154272528Y-85470220D01*
X154333719Y-85350126D01*
X154336241Y-85334207D01*
X154353253Y-85226793D01*
X154354804Y-85217000D01*
X154352435Y-85202041D01*
X154335270Y-85093665D01*
X154335269Y-85093663D01*
X154333719Y-85083874D01*
X154272528Y-84963780D01*
X154177220Y-84868472D01*
X154057126Y-84807281D01*
X154047337Y-84805731D01*
X154047335Y-84805730D01*
X153933793Y-84787747D01*
X153924000Y-84786196D01*
X153914207Y-84787747D01*
X153800665Y-84805730D01*
X153800663Y-84805731D01*
X153790874Y-84807281D01*
X153670780Y-84868472D01*
X153575472Y-84963780D01*
X153514281Y-85083874D01*
X153512731Y-85093663D01*
X153512730Y-85093665D01*
X153495565Y-85202041D01*
X153493196Y-85217000D01*
X150905689Y-85217000D01*
X150904719Y-85210874D01*
X150843528Y-85090780D01*
X150748220Y-84995472D01*
X150628126Y-84934281D01*
X150618337Y-84932731D01*
X150618335Y-84932730D01*
X150504793Y-84914747D01*
X150495000Y-84913196D01*
X150485207Y-84914747D01*
X150371665Y-84932730D01*
X150371663Y-84932731D01*
X150361874Y-84934281D01*
X150241780Y-84995472D01*
X150146472Y-85090780D01*
X150085281Y-85210874D01*
X150083731Y-85220663D01*
X150083730Y-85220665D01*
X150070541Y-85303939D01*
X150064196Y-85344000D01*
X143832934Y-85344000D01*
X143838475Y-85333126D01*
X143855317Y-85226793D01*
X143858009Y-85209793D01*
X143859560Y-85200000D01*
X143846932Y-85120270D01*
X143840026Y-85076665D01*
X143840025Y-85076663D01*
X143838475Y-85066874D01*
X143777284Y-84946780D01*
X143681976Y-84851472D01*
X143561882Y-84790281D01*
X143552093Y-84788731D01*
X143552091Y-84788730D01*
X143438549Y-84770747D01*
X143428756Y-84769196D01*
X143418963Y-84770747D01*
X143305421Y-84788730D01*
X143305419Y-84788731D01*
X143295630Y-84790281D01*
X143175536Y-84851472D01*
X143080228Y-84946780D01*
X143019037Y-85066874D01*
X143017487Y-85076663D01*
X143017486Y-85076665D01*
X143010580Y-85120270D01*
X142997952Y-85200000D01*
X128275500Y-85200000D01*
X128275500Y-83258300D01*
X139695952Y-83258300D01*
X139717037Y-83391426D01*
X139778228Y-83511520D01*
X139873536Y-83606828D01*
X139993630Y-83668019D01*
X140003419Y-83669569D01*
X140003421Y-83669570D01*
X140116963Y-83687553D01*
X140126756Y-83689104D01*
X140136549Y-83687553D01*
X140250091Y-83669570D01*
X140250093Y-83669569D01*
X140259882Y-83668019D01*
X140379976Y-83606828D01*
X140475284Y-83511520D01*
X140536475Y-83391426D01*
X140557560Y-83258300D01*
X140547502Y-83194793D01*
X140545951Y-83185000D01*
X150445196Y-83185000D01*
X150446747Y-83194793D01*
X150458357Y-83268093D01*
X150466281Y-83318126D01*
X150527472Y-83438220D01*
X150622780Y-83533528D01*
X150742874Y-83594719D01*
X150752663Y-83596269D01*
X150752665Y-83596270D01*
X150866207Y-83614253D01*
X150876000Y-83615804D01*
X150885793Y-83614253D01*
X150999335Y-83596270D01*
X150999337Y-83596269D01*
X151009126Y-83594719D01*
X151129220Y-83533528D01*
X151224528Y-83438220D01*
X151285719Y-83318126D01*
X151293644Y-83268093D01*
X151305253Y-83194793D01*
X151306804Y-83185000D01*
X151285719Y-83051874D01*
X151224528Y-82931780D01*
X151129220Y-82836472D01*
X151009126Y-82775281D01*
X150999337Y-82773731D01*
X150999335Y-82773730D01*
X150885793Y-82755747D01*
X150876000Y-82754196D01*
X150866207Y-82755747D01*
X150752665Y-82773730D01*
X150752663Y-82773731D01*
X150742874Y-82775281D01*
X150622780Y-82836472D01*
X150527472Y-82931780D01*
X150466281Y-83051874D01*
X150445196Y-83185000D01*
X140545951Y-83185000D01*
X140538026Y-83134965D01*
X140538025Y-83134963D01*
X140536475Y-83125174D01*
X140475284Y-83005080D01*
X140379976Y-82909772D01*
X140259882Y-82848581D01*
X140250093Y-82847031D01*
X140250091Y-82847030D01*
X140136549Y-82829047D01*
X140126756Y-82827496D01*
X140116963Y-82829047D01*
X140003421Y-82847030D01*
X140003419Y-82847031D01*
X139993630Y-82848581D01*
X139873536Y-82909772D01*
X139778228Y-83005080D01*
X139717037Y-83125174D01*
X139715487Y-83134963D01*
X139715486Y-83134965D01*
X139706010Y-83194793D01*
X139695952Y-83258300D01*
X128275500Y-83258300D01*
X128275500Y-82318500D01*
X137536952Y-82318500D01*
X137558037Y-82451626D01*
X137619228Y-82571720D01*
X137714536Y-82667028D01*
X137834630Y-82728219D01*
X137844419Y-82729769D01*
X137844421Y-82729770D01*
X137957963Y-82747753D01*
X137967756Y-82749304D01*
X137977549Y-82747753D01*
X138091091Y-82729770D01*
X138091093Y-82729769D01*
X138100882Y-82728219D01*
X138220976Y-82667028D01*
X138316284Y-82571720D01*
X138377475Y-82451626D01*
X138398560Y-82318500D01*
X138377475Y-82185374D01*
X138316284Y-82065280D01*
X138220976Y-81969972D01*
X138100882Y-81908781D01*
X138091093Y-81907231D01*
X138091091Y-81907230D01*
X137977549Y-81889247D01*
X137967756Y-81887696D01*
X137957963Y-81889247D01*
X137844421Y-81907230D01*
X137844419Y-81907231D01*
X137834630Y-81908781D01*
X137714536Y-81969972D01*
X137619228Y-82065280D01*
X137558037Y-82185374D01*
X137536952Y-82318500D01*
X128275500Y-82318500D01*
X128275500Y-80772000D01*
X139695952Y-80772000D01*
X139717037Y-80905126D01*
X139778228Y-81025220D01*
X139873536Y-81120528D01*
X139993630Y-81181719D01*
X140003419Y-81183269D01*
X140003421Y-81183270D01*
X140116963Y-81201253D01*
X140126756Y-81202804D01*
X140136549Y-81201253D01*
X140250091Y-81183270D01*
X140250093Y-81183269D01*
X140259882Y-81181719D01*
X140379976Y-81120528D01*
X140475284Y-81025220D01*
X140536475Y-80905126D01*
X140557560Y-80772000D01*
X140536475Y-80638874D01*
X140475284Y-80518780D01*
X140379976Y-80423472D01*
X140259882Y-80362281D01*
X140250093Y-80360731D01*
X140250091Y-80360730D01*
X140136549Y-80342747D01*
X140126756Y-80341196D01*
X140116963Y-80342747D01*
X140003421Y-80360730D01*
X140003419Y-80360731D01*
X139993630Y-80362281D01*
X139873536Y-80423472D01*
X139778228Y-80518780D01*
X139717037Y-80638874D01*
X139695952Y-80772000D01*
X128275500Y-80772000D01*
X128275500Y-78486000D01*
X144769196Y-78486000D01*
X144790281Y-78619126D01*
X144851472Y-78739220D01*
X144946780Y-78834528D01*
X145066874Y-78895719D01*
X145076663Y-78897269D01*
X145076665Y-78897270D01*
X145190207Y-78915253D01*
X145200000Y-78916804D01*
X145209793Y-78915253D01*
X145323335Y-78897270D01*
X145323337Y-78897269D01*
X145333126Y-78895719D01*
X145453220Y-78834528D01*
X145510905Y-78776843D01*
X145573217Y-78742817D01*
X145644032Y-78747882D01*
X145689095Y-78776843D01*
X145746780Y-78834528D01*
X145866874Y-78895719D01*
X145876663Y-78897269D01*
X145876665Y-78897270D01*
X145990207Y-78915253D01*
X146000000Y-78916804D01*
X146009793Y-78915253D01*
X146123335Y-78897270D01*
X146123337Y-78897269D01*
X146133126Y-78895719D01*
X146253220Y-78834528D01*
X146348528Y-78739220D01*
X146353027Y-78730390D01*
X146353030Y-78730386D01*
X146357233Y-78722136D01*
X146405980Y-78670521D01*
X146474895Y-78653454D01*
X146542097Y-78676354D01*
X146581767Y-78722136D01*
X146585970Y-78730386D01*
X146585973Y-78730390D01*
X146590472Y-78739220D01*
X146685780Y-78834528D01*
X146805874Y-78895719D01*
X146815663Y-78897269D01*
X146815665Y-78897270D01*
X146929207Y-78915253D01*
X146939000Y-78916804D01*
X146948793Y-78915253D01*
X147062335Y-78897270D01*
X147062337Y-78897269D01*
X147072126Y-78895719D01*
X147192220Y-78834528D01*
X147287528Y-78739220D01*
X147288075Y-78739767D01*
X147337788Y-78701434D01*
X147408525Y-78695360D01*
X147471316Y-78728493D01*
X147477846Y-78736029D01*
X147479472Y-78739220D01*
X147574780Y-78834528D01*
X147694874Y-78895719D01*
X147704663Y-78897269D01*
X147704665Y-78897270D01*
X147818207Y-78915253D01*
X147828000Y-78916804D01*
X147837793Y-78915253D01*
X147951335Y-78897270D01*
X147951337Y-78897269D01*
X147961126Y-78895719D01*
X148081220Y-78834528D01*
X148119905Y-78795843D01*
X148182217Y-78761817D01*
X148253032Y-78766882D01*
X148298095Y-78795843D01*
X148336780Y-78834528D01*
X148456874Y-78895719D01*
X148466663Y-78897269D01*
X148466665Y-78897270D01*
X148580207Y-78915253D01*
X148590000Y-78916804D01*
X148599793Y-78915253D01*
X148713335Y-78897270D01*
X148713337Y-78897269D01*
X148723126Y-78895719D01*
X148843220Y-78834528D01*
X148938528Y-78739220D01*
X148999719Y-78619126D01*
X149020804Y-78486000D01*
X156668196Y-78486000D01*
X156689281Y-78619126D01*
X156750472Y-78739220D01*
X156845780Y-78834528D01*
X156965874Y-78895719D01*
X156975663Y-78897269D01*
X156975665Y-78897270D01*
X157089207Y-78915253D01*
X157099000Y-78916804D01*
X157108793Y-78915253D01*
X157222335Y-78897270D01*
X157222337Y-78897269D01*
X157232126Y-78895719D01*
X157352220Y-78834528D01*
X157447528Y-78739220D01*
X157508719Y-78619126D01*
X157529804Y-78486000D01*
X157508719Y-78352874D01*
X157447528Y-78232780D01*
X157352220Y-78137472D01*
X157232126Y-78076281D01*
X157222337Y-78074731D01*
X157222335Y-78074730D01*
X157108793Y-78056747D01*
X157099000Y-78055196D01*
X157089207Y-78056747D01*
X156975665Y-78074730D01*
X156975663Y-78074731D01*
X156965874Y-78076281D01*
X156845780Y-78137472D01*
X156750472Y-78232780D01*
X156689281Y-78352874D01*
X156668196Y-78486000D01*
X149020804Y-78486000D01*
X148999719Y-78352874D01*
X148938528Y-78232780D01*
X148843220Y-78137472D01*
X148723126Y-78076281D01*
X148713337Y-78074731D01*
X148713335Y-78074730D01*
X148599793Y-78056747D01*
X148590000Y-78055196D01*
X148580207Y-78056747D01*
X148466665Y-78074730D01*
X148466663Y-78074731D01*
X148456874Y-78076281D01*
X148336780Y-78137472D01*
X148298095Y-78176157D01*
X148235783Y-78210183D01*
X148164968Y-78205118D01*
X148119905Y-78176157D01*
X148081220Y-78137472D01*
X147961126Y-78076281D01*
X147951337Y-78074731D01*
X147951335Y-78074730D01*
X147837793Y-78056747D01*
X147828000Y-78055196D01*
X147818207Y-78056747D01*
X147704665Y-78074730D01*
X147704663Y-78074731D01*
X147694874Y-78076281D01*
X147574780Y-78137472D01*
X147479472Y-78232780D01*
X147478925Y-78232233D01*
X147429212Y-78270566D01*
X147358475Y-78276640D01*
X147295684Y-78243507D01*
X147289154Y-78235971D01*
X147287528Y-78232780D01*
X147192220Y-78137472D01*
X147072126Y-78076281D01*
X147062337Y-78074731D01*
X147062335Y-78074730D01*
X146948793Y-78056747D01*
X146939000Y-78055196D01*
X146929207Y-78056747D01*
X146815665Y-78074730D01*
X146815663Y-78074731D01*
X146805874Y-78076281D01*
X146685780Y-78137472D01*
X146590472Y-78232780D01*
X146585973Y-78241610D01*
X146585970Y-78241614D01*
X146581767Y-78249864D01*
X146533020Y-78301479D01*
X146464105Y-78318546D01*
X146396903Y-78295646D01*
X146357233Y-78249864D01*
X146353030Y-78241614D01*
X146353027Y-78241610D01*
X146348528Y-78232780D01*
X146253220Y-78137472D01*
X146133126Y-78076281D01*
X146123337Y-78074731D01*
X146123335Y-78074730D01*
X146009793Y-78056747D01*
X146000000Y-78055196D01*
X145990207Y-78056747D01*
X145876665Y-78074730D01*
X145876663Y-78074731D01*
X145866874Y-78076281D01*
X145746780Y-78137472D01*
X145689095Y-78195157D01*
X145626783Y-78229183D01*
X145555968Y-78224118D01*
X145510905Y-78195157D01*
X145453220Y-78137472D01*
X145333126Y-78076281D01*
X145323337Y-78074731D01*
X145323335Y-78074730D01*
X145209793Y-78056747D01*
X145200000Y-78055196D01*
X145190207Y-78056747D01*
X145076665Y-78074730D01*
X145076663Y-78074731D01*
X145066874Y-78076281D01*
X144946780Y-78137472D01*
X144851472Y-78232780D01*
X144790281Y-78352874D01*
X144769196Y-78486000D01*
X128275500Y-78486000D01*
X128275500Y-77724000D01*
X151842196Y-77724000D01*
X151863281Y-77857126D01*
X151924472Y-77977220D01*
X152019780Y-78072528D01*
X152139874Y-78133719D01*
X152149663Y-78135269D01*
X152149665Y-78135270D01*
X152263207Y-78153253D01*
X152273000Y-78154804D01*
X152282793Y-78153253D01*
X152396335Y-78135270D01*
X152396337Y-78135269D01*
X152406126Y-78133719D01*
X152526220Y-78072528D01*
X152621528Y-77977220D01*
X152682719Y-77857126D01*
X152703804Y-77724000D01*
X152682719Y-77590874D01*
X152621528Y-77470780D01*
X152526220Y-77375472D01*
X152406126Y-77314281D01*
X152396337Y-77312731D01*
X152396335Y-77312730D01*
X152282793Y-77294747D01*
X152273000Y-77293196D01*
X152263207Y-77294747D01*
X152149665Y-77312730D01*
X152149663Y-77312731D01*
X152139874Y-77314281D01*
X152019780Y-77375472D01*
X151924472Y-77470780D01*
X151863281Y-77590874D01*
X151842196Y-77724000D01*
X128275500Y-77724000D01*
X128275500Y-75039543D01*
X128277921Y-75014963D01*
X128278476Y-75012173D01*
X128278476Y-75012171D01*
X128280897Y-75000000D01*
X128278476Y-74987829D01*
X128278476Y-74975564D01*
X128277585Y-74962876D01*
X128292234Y-74702018D01*
X128293816Y-74687977D01*
X128299055Y-74657147D01*
X128342624Y-74400718D01*
X128345768Y-74386943D01*
X128426432Y-74106953D01*
X128431099Y-74093616D01*
X128542602Y-73824421D01*
X128548733Y-73811690D01*
X128689678Y-73556671D01*
X128697195Y-73544708D01*
X128807989Y-73388557D01*
X128865804Y-73307074D01*
X128874613Y-73296028D01*
X129068773Y-73078764D01*
X129078764Y-73068773D01*
X129296028Y-72874613D01*
X129307076Y-72865803D01*
X129544708Y-72697195D01*
X129556671Y-72689678D01*
X129786801Y-72562489D01*
X129811694Y-72548731D01*
X129824417Y-72542604D01*
X129928852Y-72499346D01*
X130093616Y-72431099D01*
X130106953Y-72426432D01*
X130386943Y-72345768D01*
X130400718Y-72342624D01*
X130544348Y-72318220D01*
X130687982Y-72293815D01*
X130702014Y-72292234D01*
X130796040Y-72286954D01*
X130962876Y-72277585D01*
X130975564Y-72278476D01*
X130987829Y-72278476D01*
X131000000Y-72280897D01*
X131012171Y-72278476D01*
X131012173Y-72278476D01*
X131014963Y-72277921D01*
X131039543Y-72275500D01*
X164960457Y-72275500D01*
X164985037Y-72277921D01*
G37*
%TD.AperFunction*%
%TD*%
M02*
