%TF.GenerationSoftware,KiCad,Pcbnew,(6.0.6)*%
%TF.CreationDate,2022-07-08T14:59:32+02:00*%
%TF.ProjectId,XCOMMS_Interface,58434f4d-4d53-45f4-996e-746572666163,rev?*%
%TF.SameCoordinates,Original*%
%TF.FileFunction,Paste,Top*%
%TF.FilePolarity,Positive*%
%FSLAX46Y46*%
G04 Gerber Fmt 4.6, Leading zero omitted, Abs format (unit mm)*
G04 Created by KiCad (PCBNEW (6.0.6)) date 2022-07-08 14:59:32*
%MOMM*%
%LPD*%
G01*
G04 APERTURE LIST*
G04 Aperture macros list*
%AMRoundRect*
0 Rectangle with rounded corners*
0 $1 Rounding radius*
0 $2 $3 $4 $5 $6 $7 $8 $9 X,Y pos of 4 corners*
0 Add a 4 corners polygon primitive as box body*
4,1,4,$2,$3,$4,$5,$6,$7,$8,$9,$2,$3,0*
0 Add four circle primitives for the rounded corners*
1,1,$1+$1,$2,$3*
1,1,$1+$1,$4,$5*
1,1,$1+$1,$6,$7*
1,1,$1+$1,$8,$9*
0 Add four rect primitives between the rounded corners*
20,1,$1+$1,$2,$3,$4,$5,0*
20,1,$1+$1,$4,$5,$6,$7,0*
20,1,$1+$1,$6,$7,$8,$9,0*
20,1,$1+$1,$8,$9,$2,$3,0*%
G04 Aperture macros list end*
%ADD10R,2.920000X0.740000*%
%ADD11R,0.250000X0.360000*%
%ADD12RoundRect,0.200000X-0.200000X-0.275000X0.200000X-0.275000X0.200000X0.275000X-0.200000X0.275000X0*%
%ADD13RoundRect,0.200000X0.600000X-0.200000X0.600000X0.200000X-0.600000X0.200000X-0.600000X-0.200000X0*%
%ADD14RoundRect,0.250001X1.249999X-0.799999X1.249999X0.799999X-1.249999X0.799999X-1.249999X-0.799999X0*%
%ADD15RoundRect,0.200000X0.200000X0.275000X-0.200000X0.275000X-0.200000X-0.275000X0.200000X-0.275000X0*%
G04 APERTURE END LIST*
D10*
%TO.C,J1*%
X133797200Y-98784989D03*
X137227200Y-98784989D03*
X133797200Y-100054989D03*
X137227200Y-100054989D03*
X133797200Y-101324989D03*
X137227200Y-101324989D03*
X133797200Y-102594989D03*
X137227200Y-102594989D03*
X133797200Y-103864989D03*
X137227200Y-103864989D03*
X133797200Y-105134989D03*
X137227200Y-105134989D03*
X133797200Y-106404989D03*
X137227200Y-106404989D03*
X133797200Y-107674989D03*
X137227200Y-107674989D03*
X133797200Y-108944989D03*
X137227200Y-108944989D03*
X133797200Y-110214989D03*
X137227200Y-110214989D03*
%TD*%
D11*
%TO.C,D2*%
X154990800Y-110148000D03*
X154990800Y-109308000D03*
%TD*%
%TO.C,D5*%
X156464000Y-87542000D03*
X156464000Y-86702000D03*
%TD*%
D12*
%TO.C,R28*%
X157925000Y-88274000D03*
X159575000Y-88274000D03*
%TD*%
D11*
%TO.C,D4*%
X156500000Y-89170000D03*
X156500000Y-88330000D03*
%TD*%
D13*
%TO.C,J4*%
X162339600Y-123125000D03*
X162339600Y-121875000D03*
D14*
X165239600Y-125675000D03*
X165239600Y-119325000D03*
%TD*%
D12*
%TO.C,R23*%
X150940000Y-84455000D03*
X152590000Y-84455000D03*
%TD*%
%TO.C,R27*%
X157091000Y-107442000D03*
X158741000Y-107442000D03*
%TD*%
%TO.C,R25*%
X157091000Y-111252000D03*
X158741000Y-111252000D03*
%TD*%
D11*
%TO.C,D1*%
X155874600Y-112103800D03*
X155874600Y-111263800D03*
%TD*%
D15*
%TO.C,R24*%
X156654000Y-84453000D03*
X155004000Y-84453000D03*
%TD*%
D11*
%TO.C,D3*%
X155874600Y-106590200D03*
X155874600Y-107430200D03*
%TD*%
D13*
%TO.C,J3*%
X162192000Y-89250000D03*
X162192000Y-88000000D03*
X162192000Y-86750000D03*
X162192000Y-85500000D03*
X162192000Y-84250000D03*
D14*
X165092000Y-81700000D03*
X165092000Y-91800000D03*
%TD*%
D12*
%TO.C,R29*%
X157925000Y-86750000D03*
X159575000Y-86750000D03*
%TD*%
D13*
%TO.C,J2*%
X162350000Y-113566800D03*
X162350000Y-112316800D03*
X162350000Y-111066800D03*
X162350000Y-109816800D03*
X162350000Y-108566800D03*
D14*
X165250000Y-106016800D03*
X165250000Y-116116800D03*
%TD*%
D12*
%TO.C,R26*%
X157091000Y-109349800D03*
X158741000Y-109349800D03*
%TD*%
M02*
