M48
; DRILL file {KiCad (6.0.6)} date Fri Jul  8 14:59:35 2022
; FORMAT={2:4/ absolute / inch / keep zeros}
; #@! TF.CreationDate,2022-07-08T14:59:35+02:00
; #@! TF.GenerationSoftware,Kicad,Pcbnew,(6.0.6)
; #@! TF.FileFunction,MixedPlating,1,4
FMAT,2
INCH
; #@! TA.AperFunction,Plated,PTH,ViaDrill
T1C0.0079
; #@! TA.AperFunction,Plated,PTH,ComponentDrill
T2C0.1063
; #@! TA.AperFunction,NonPlated,NPTH,ComponentDrill
T3C0.0559
%
G90
G05
T1
X050787Y-031299
X050787Y-032284
X050787Y-033268
X050787Y-034252
X050787Y-035236
X050787Y-036221
X050787Y-037205
X050787Y-038189
X050787Y-039173
X050787Y-040158
X050787Y-041142
X050787Y-042126
X050787Y-043110
X050787Y-044095
X050787Y-045079
X050787Y-046063
X050787Y-047002
X050787Y-048032
X050787Y-049016
X050787Y-050000
X050787Y-050984
X051950Y-042900
X051950Y-043400
X051969Y-040906
X052000Y-047500
X052950Y-042900
X052950Y-043400
X052953Y-048031
X053303Y-046732
X053303Y-047102
X053346Y-028740
X053346Y-053543
X053650Y-048550
X053650Y-049200
X053650Y-049850
X053700Y-040900
X054050Y-037850
X054300Y-033050
X054300Y-035550
X054300Y-036200
X054318Y-032409
X054331Y-028740
X054331Y-053543
X054400Y-038500
X054600Y-050500
X054600Y-051200
X055000Y-037150
X055000Y-037442
X055000Y-037953
X055168Y-031800
X055168Y-032779
X055315Y-028740
X055315Y-053543
X055650Y-043550
X056000Y-038858
X056100Y-032520
X056200Y-040627
X056200Y-042900
X056250Y-047500
X056299Y-028740
X056299Y-053543
X056468Y-033543
X056470Y-033858
X057165Y-030900
X057244Y-048031
X057250Y-036700
X057283Y-028740
X057283Y-053543
X057480Y-030900
X057480Y-040551
X057566Y-036700
X057650Y-043550
X057650Y-046746
X057650Y-047100
X057850Y-030900
X058050Y-048550
X058050Y-049200
X058050Y-049850
X058200Y-030900
X058268Y-028740
X058268Y-053543
X058500Y-030900
X058591Y-040537
X058850Y-036700
X058937Y-029764
X059000Y-050500
X059000Y-051200
X059132Y-031113
X059200Y-036700
X059250Y-033600
X059252Y-028740
X059252Y-053543
X059291Y-033900
X059400Y-032750
X059528Y-034550
X059606Y-029764
X059950Y-030600
X060150Y-036000
X060236Y-028740
X060236Y-053543
X060250Y-039800
X060550Y-044700
X060600Y-033550
X060800Y-047500
X060800Y-048150
X061100Y-044450
X061220Y-028740
X061220Y-053543
X061280Y-035000
X061300Y-030900
X061300Y-036550
X061400Y-044448
X061700Y-044450
X061850Y-030900
X061882Y-034991
X061900Y-033650
X061900Y-036550
X062050Y-041050
X062050Y-041650
X062150Y-033000
X062150Y-033350
X062200Y-046750
X062200Y-047100
X062205Y-028740
X062205Y-053543
X062250Y-048500
X063189Y-028740
X063189Y-053543
X063300Y-036521
X063300Y-036836
X063300Y-037125
X063900Y-050500
X063900Y-051200
X064173Y-053543
X064500Y-042600
X064500Y-043300
X064700Y-048550
X064750Y-049200
X064750Y-049800
X065748Y-031299
X065748Y-034252
X065748Y-035236
X065748Y-036221
X065748Y-037205
X065748Y-038189
X065748Y-039173
X065748Y-040158
X065748Y-041142
X065748Y-043110
X065748Y-044095
X065748Y-045079
X065748Y-047047
X065748Y-048032
X065748Y-049016
X065748Y-050000
X065748Y-050984
X065750Y-032300
X065750Y-033300
T2
X051575Y-029528
X051575Y-052756
X064961Y-029528
X064961Y-052756
T3
X053351Y-038266
X053351Y-044018
T0
M30
