%TF.GenerationSoftware,KiCad,Pcbnew,(6.0.6)*%
%TF.CreationDate,2022-07-08T14:59:32+02:00*%
%TF.ProjectId,XCOMMS_Interface,58434f4d-4d53-45f4-996e-746572666163,rev?*%
%TF.SameCoordinates,Original*%
%TF.FileFunction,Paste,Bot*%
%TF.FilePolarity,Positive*%
%FSLAX46Y46*%
G04 Gerber Fmt 4.6, Leading zero omitted, Abs format (unit mm)*
G04 Created by KiCad (PCBNEW (6.0.6)) date 2022-07-08 14:59:32*
%MOMM*%
%LPD*%
G01*
G04 APERTURE LIST*
G04 Aperture macros list*
%AMRoundRect*
0 Rectangle with rounded corners*
0 $1 Rounding radius*
0 $2 $3 $4 $5 $6 $7 $8 $9 X,Y pos of 4 corners*
0 Add a 4 corners polygon primitive as box body*
4,1,4,$2,$3,$4,$5,$6,$7,$8,$9,$2,$3,0*
0 Add four circle primitives for the rounded corners*
1,1,$1+$1,$2,$3*
1,1,$1+$1,$4,$5*
1,1,$1+$1,$6,$7*
1,1,$1+$1,$8,$9*
0 Add four rect primitives between the rounded corners*
20,1,$1+$1,$2,$3,$4,$5,0*
20,1,$1+$1,$4,$5,$6,$7,0*
20,1,$1+$1,$6,$7,$8,$9,0*
20,1,$1+$1,$8,$9,$2,$3,0*%
G04 Aperture macros list end*
%ADD10C,0.010000*%
%ADD11RoundRect,0.150000X-0.150000X0.512500X-0.150000X-0.512500X0.150000X-0.512500X0.150000X0.512500X0*%
%ADD12RoundRect,0.225000X0.225000X0.250000X-0.225000X0.250000X-0.225000X-0.250000X0.225000X-0.250000X0*%
%ADD13RoundRect,0.200000X0.200000X0.275000X-0.200000X0.275000X-0.200000X-0.275000X0.200000X-0.275000X0*%
%ADD14RoundRect,0.225000X-0.225000X-0.250000X0.225000X-0.250000X0.225000X0.250000X-0.225000X0.250000X0*%
%ADD15RoundRect,0.200000X-0.275000X0.200000X-0.275000X-0.200000X0.275000X-0.200000X0.275000X0.200000X0*%
%ADD16RoundRect,0.225000X-0.250000X0.225000X-0.250000X-0.225000X0.250000X-0.225000X0.250000X0.225000X0*%
%ADD17RoundRect,0.225000X0.250000X-0.225000X0.250000X0.225000X-0.250000X0.225000X-0.250000X-0.225000X0*%
%ADD18RoundRect,0.250000X0.625000X-0.312500X0.625000X0.312500X-0.625000X0.312500X-0.625000X-0.312500X0*%
%ADD19RoundRect,0.450000X0.450000X-0.550000X0.450000X0.550000X-0.450000X0.550000X-0.450000X-0.550000X0*%
%ADD20R,0.850900X0.304800*%
%ADD21RoundRect,0.200000X0.275000X-0.200000X0.275000X0.200000X-0.275000X0.200000X-0.275000X-0.200000X0*%
%ADD22RoundRect,0.015000X-0.285000X-0.110000X0.285000X-0.110000X0.285000X0.110000X-0.285000X0.110000X0*%
%ADD23RoundRect,0.015000X-0.110000X0.285000X-0.110000X-0.285000X0.110000X-0.285000X0.110000X0.285000X0*%
%ADD24RoundRect,0.200000X-0.200000X-0.275000X0.200000X-0.275000X0.200000X0.275000X-0.200000X0.275000X0*%
%ADD25RoundRect,0.075000X0.700000X0.075000X-0.700000X0.075000X-0.700000X-0.075000X0.700000X-0.075000X0*%
%ADD26RoundRect,0.075000X0.075000X0.700000X-0.075000X0.700000X-0.075000X-0.700000X0.075000X-0.700000X0*%
%ADD27RoundRect,0.062500X0.062500X0.375000X-0.062500X0.375000X-0.062500X-0.375000X0.062500X-0.375000X0*%
%ADD28RoundRect,0.062500X0.375000X0.062500X-0.375000X0.062500X-0.375000X-0.062500X0.375000X-0.062500X0*%
%ADD29RoundRect,0.232500X0.232500X0.232500X-0.232500X0.232500X-0.232500X-0.232500X0.232500X-0.232500X0*%
%ADD30R,5.500000X1.430000*%
%ADD31R,0.700000X0.800000*%
G04 APERTURE END LIST*
%TO.C,U3*%
G36*
X137601401Y-121197835D02*
G01*
X137603401Y-121197835D01*
X137606401Y-121198835D01*
X137608401Y-121198835D01*
X137611401Y-121199835D01*
X137613401Y-121200835D01*
X137616401Y-121201835D01*
X137618401Y-121203835D01*
X137620401Y-121204835D01*
X137622401Y-121206835D01*
X137624401Y-121207835D01*
X137632401Y-121215835D01*
X137633401Y-121217835D01*
X137635401Y-121219835D01*
X137636401Y-121221835D01*
X137638401Y-121223835D01*
X137639401Y-121226835D01*
X137640401Y-121228835D01*
X137641401Y-121231835D01*
X137641401Y-121233835D01*
X137642401Y-121236835D01*
X137642401Y-121238835D01*
X137643401Y-121241835D01*
X137643401Y-122101835D01*
X137642401Y-122104835D01*
X137642401Y-122106835D01*
X137641401Y-122109835D01*
X137641401Y-122111835D01*
X137640401Y-122114835D01*
X137639401Y-122116835D01*
X137638401Y-122119835D01*
X137636401Y-122121835D01*
X137635401Y-122123835D01*
X137633401Y-122125835D01*
X137632401Y-122127835D01*
X137624401Y-122135835D01*
X137622401Y-122136835D01*
X137620401Y-122138835D01*
X137618401Y-122139835D01*
X137616401Y-122141835D01*
X137613401Y-122142835D01*
X137611401Y-122143835D01*
X137608401Y-122144835D01*
X137606401Y-122144835D01*
X137603401Y-122145835D01*
X137601401Y-122145835D01*
X137598401Y-122146835D01*
X137288401Y-122146835D01*
X137285401Y-122145835D01*
X137283401Y-122145835D01*
X137280401Y-122144835D01*
X137278401Y-122144835D01*
X137275401Y-122143835D01*
X137273401Y-122142835D01*
X137270401Y-122141835D01*
X137268401Y-122139835D01*
X137266401Y-122138835D01*
X137264401Y-122136835D01*
X137262401Y-122135835D01*
X137254401Y-122127835D01*
X137253401Y-122125835D01*
X137251401Y-122123835D01*
X137250401Y-122121835D01*
X137248401Y-122119835D01*
X137247401Y-122116835D01*
X137246401Y-122114835D01*
X137245401Y-122111835D01*
X137245401Y-122109835D01*
X137244401Y-122106835D01*
X137244401Y-122104835D01*
X137243401Y-122101835D01*
X137243401Y-121241835D01*
X137244401Y-121238835D01*
X137244401Y-121236835D01*
X137245401Y-121233835D01*
X137245401Y-121231835D01*
X137246401Y-121228835D01*
X137247401Y-121226835D01*
X137248401Y-121223835D01*
X137250401Y-121221835D01*
X137251401Y-121219835D01*
X137253401Y-121217835D01*
X137254401Y-121215835D01*
X137262401Y-121207835D01*
X137264401Y-121206835D01*
X137266401Y-121204835D01*
X137268401Y-121203835D01*
X137270401Y-121201835D01*
X137273401Y-121200835D01*
X137275401Y-121199835D01*
X137278401Y-121198835D01*
X137280401Y-121198835D01*
X137283401Y-121197835D01*
X137285401Y-121197835D01*
X137288401Y-121196835D01*
X137598401Y-121196835D01*
X137601401Y-121197835D01*
G37*
D10*
X137601401Y-121197835D02*
X137603401Y-121197835D01*
X137606401Y-121198835D01*
X137608401Y-121198835D01*
X137611401Y-121199835D01*
X137613401Y-121200835D01*
X137616401Y-121201835D01*
X137618401Y-121203835D01*
X137620401Y-121204835D01*
X137622401Y-121206835D01*
X137624401Y-121207835D01*
X137632401Y-121215835D01*
X137633401Y-121217835D01*
X137635401Y-121219835D01*
X137636401Y-121221835D01*
X137638401Y-121223835D01*
X137639401Y-121226835D01*
X137640401Y-121228835D01*
X137641401Y-121231835D01*
X137641401Y-121233835D01*
X137642401Y-121236835D01*
X137642401Y-121238835D01*
X137643401Y-121241835D01*
X137643401Y-122101835D01*
X137642401Y-122104835D01*
X137642401Y-122106835D01*
X137641401Y-122109835D01*
X137641401Y-122111835D01*
X137640401Y-122114835D01*
X137639401Y-122116835D01*
X137638401Y-122119835D01*
X137636401Y-122121835D01*
X137635401Y-122123835D01*
X137633401Y-122125835D01*
X137632401Y-122127835D01*
X137624401Y-122135835D01*
X137622401Y-122136835D01*
X137620401Y-122138835D01*
X137618401Y-122139835D01*
X137616401Y-122141835D01*
X137613401Y-122142835D01*
X137611401Y-122143835D01*
X137608401Y-122144835D01*
X137606401Y-122144835D01*
X137603401Y-122145835D01*
X137601401Y-122145835D01*
X137598401Y-122146835D01*
X137288401Y-122146835D01*
X137285401Y-122145835D01*
X137283401Y-122145835D01*
X137280401Y-122144835D01*
X137278401Y-122144835D01*
X137275401Y-122143835D01*
X137273401Y-122142835D01*
X137270401Y-122141835D01*
X137268401Y-122139835D01*
X137266401Y-122138835D01*
X137264401Y-122136835D01*
X137262401Y-122135835D01*
X137254401Y-122127835D01*
X137253401Y-122125835D01*
X137251401Y-122123835D01*
X137250401Y-122121835D01*
X137248401Y-122119835D01*
X137247401Y-122116835D01*
X137246401Y-122114835D01*
X137245401Y-122111835D01*
X137245401Y-122109835D01*
X137244401Y-122106835D01*
X137244401Y-122104835D01*
X137243401Y-122101835D01*
X137243401Y-121241835D01*
X137244401Y-121238835D01*
X137244401Y-121236835D01*
X137245401Y-121233835D01*
X137245401Y-121231835D01*
X137246401Y-121228835D01*
X137247401Y-121226835D01*
X137248401Y-121223835D01*
X137250401Y-121221835D01*
X137251401Y-121219835D01*
X137253401Y-121217835D01*
X137254401Y-121215835D01*
X137262401Y-121207835D01*
X137264401Y-121206835D01*
X137266401Y-121204835D01*
X137268401Y-121203835D01*
X137270401Y-121201835D01*
X137273401Y-121200835D01*
X137275401Y-121199835D01*
X137278401Y-121198835D01*
X137280401Y-121198835D01*
X137283401Y-121197835D01*
X137285401Y-121197835D01*
X137288401Y-121196835D01*
X137598401Y-121196835D01*
X137601401Y-121197835D01*
G36*
X138112401Y-119697835D02*
G01*
X138115401Y-119697835D01*
X138121401Y-119700835D01*
X138124401Y-119701835D01*
X138130401Y-119704835D01*
X138131401Y-119706835D01*
X138133401Y-119707835D01*
X138137401Y-119711835D01*
X138138401Y-119713835D01*
X138140401Y-119714835D01*
X138143401Y-119720835D01*
X138144401Y-119723835D01*
X138147401Y-119729835D01*
X138147401Y-119732835D01*
X138148401Y-119734835D01*
X138148401Y-120408835D01*
X138147401Y-120410835D01*
X138147401Y-120413835D01*
X138144401Y-120419835D01*
X138143401Y-120422835D01*
X138140401Y-120428835D01*
X138138401Y-120429835D01*
X138137401Y-120431835D01*
X138133401Y-120435835D01*
X138131401Y-120436835D01*
X138130401Y-120438835D01*
X138124401Y-120441835D01*
X138121401Y-120442835D01*
X138115401Y-120445835D01*
X138112401Y-120445835D01*
X138110401Y-120446835D01*
X137943401Y-120446835D01*
X137940401Y-120445835D01*
X137938401Y-120445835D01*
X137935401Y-120444835D01*
X137933401Y-120444835D01*
X137930401Y-120443835D01*
X137928401Y-120442835D01*
X137925401Y-120441835D01*
X137923401Y-120439835D01*
X137921401Y-120438835D01*
X137919401Y-120436835D01*
X137917401Y-120435835D01*
X137909401Y-120427835D01*
X137908401Y-120425835D01*
X137906401Y-120423835D01*
X137905401Y-120421835D01*
X137903401Y-120419835D01*
X137902401Y-120416835D01*
X137901401Y-120414835D01*
X137900401Y-120411835D01*
X137900401Y-120409835D01*
X137899401Y-120406835D01*
X137899401Y-120404835D01*
X137898401Y-120401835D01*
X137898401Y-119741835D01*
X137899401Y-119738835D01*
X137899401Y-119736835D01*
X137900401Y-119733835D01*
X137900401Y-119731835D01*
X137901401Y-119728835D01*
X137902401Y-119726835D01*
X137903401Y-119723835D01*
X137905401Y-119721835D01*
X137906401Y-119719835D01*
X137908401Y-119717835D01*
X137909401Y-119715835D01*
X137917401Y-119707835D01*
X137919401Y-119706835D01*
X137921401Y-119704835D01*
X137923401Y-119703835D01*
X137925401Y-119701835D01*
X137928401Y-119700835D01*
X137930401Y-119699835D01*
X137933401Y-119698835D01*
X137935401Y-119698835D01*
X137938401Y-119697835D01*
X137940401Y-119697835D01*
X137943401Y-119696835D01*
X138110401Y-119696835D01*
X138112401Y-119697835D01*
G37*
X138112401Y-119697835D02*
X138115401Y-119697835D01*
X138121401Y-119700835D01*
X138124401Y-119701835D01*
X138130401Y-119704835D01*
X138131401Y-119706835D01*
X138133401Y-119707835D01*
X138137401Y-119711835D01*
X138138401Y-119713835D01*
X138140401Y-119714835D01*
X138143401Y-119720835D01*
X138144401Y-119723835D01*
X138147401Y-119729835D01*
X138147401Y-119732835D01*
X138148401Y-119734835D01*
X138148401Y-120408835D01*
X138147401Y-120410835D01*
X138147401Y-120413835D01*
X138144401Y-120419835D01*
X138143401Y-120422835D01*
X138140401Y-120428835D01*
X138138401Y-120429835D01*
X138137401Y-120431835D01*
X138133401Y-120435835D01*
X138131401Y-120436835D01*
X138130401Y-120438835D01*
X138124401Y-120441835D01*
X138121401Y-120442835D01*
X138115401Y-120445835D01*
X138112401Y-120445835D01*
X138110401Y-120446835D01*
X137943401Y-120446835D01*
X137940401Y-120445835D01*
X137938401Y-120445835D01*
X137935401Y-120444835D01*
X137933401Y-120444835D01*
X137930401Y-120443835D01*
X137928401Y-120442835D01*
X137925401Y-120441835D01*
X137923401Y-120439835D01*
X137921401Y-120438835D01*
X137919401Y-120436835D01*
X137917401Y-120435835D01*
X137909401Y-120427835D01*
X137908401Y-120425835D01*
X137906401Y-120423835D01*
X137905401Y-120421835D01*
X137903401Y-120419835D01*
X137902401Y-120416835D01*
X137901401Y-120414835D01*
X137900401Y-120411835D01*
X137900401Y-120409835D01*
X137899401Y-120406835D01*
X137899401Y-120404835D01*
X137898401Y-120401835D01*
X137898401Y-119741835D01*
X137899401Y-119738835D01*
X137899401Y-119736835D01*
X137900401Y-119733835D01*
X137900401Y-119731835D01*
X137901401Y-119728835D01*
X137902401Y-119726835D01*
X137903401Y-119723835D01*
X137905401Y-119721835D01*
X137906401Y-119719835D01*
X137908401Y-119717835D01*
X137909401Y-119715835D01*
X137917401Y-119707835D01*
X137919401Y-119706835D01*
X137921401Y-119704835D01*
X137923401Y-119703835D01*
X137925401Y-119701835D01*
X137928401Y-119700835D01*
X137930401Y-119699835D01*
X137933401Y-119698835D01*
X137935401Y-119698835D01*
X137938401Y-119697835D01*
X137940401Y-119697835D01*
X137943401Y-119696835D01*
X138110401Y-119696835D01*
X138112401Y-119697835D01*
G36*
X138112401Y-118747835D02*
G01*
X138115401Y-118747835D01*
X138121401Y-118750835D01*
X138124401Y-118751835D01*
X138130401Y-118754835D01*
X138131401Y-118756835D01*
X138133401Y-118757835D01*
X138137401Y-118761835D01*
X138138401Y-118763835D01*
X138140401Y-118764835D01*
X138143401Y-118770835D01*
X138144401Y-118773835D01*
X138147401Y-118779835D01*
X138147401Y-118782835D01*
X138148401Y-118784835D01*
X138148401Y-119458835D01*
X138147401Y-119460835D01*
X138147401Y-119463835D01*
X138144401Y-119469835D01*
X138143401Y-119472835D01*
X138140401Y-119478835D01*
X138138401Y-119479835D01*
X138137401Y-119481835D01*
X138133401Y-119485835D01*
X138131401Y-119486835D01*
X138130401Y-119488835D01*
X138124401Y-119491835D01*
X138121401Y-119492835D01*
X138115401Y-119495835D01*
X138112401Y-119495835D01*
X138110401Y-119496835D01*
X137943401Y-119496835D01*
X137940401Y-119495835D01*
X137938401Y-119495835D01*
X137935401Y-119494835D01*
X137933401Y-119494835D01*
X137930401Y-119493835D01*
X137928401Y-119492835D01*
X137925401Y-119491835D01*
X137923401Y-119489835D01*
X137921401Y-119488835D01*
X137919401Y-119486835D01*
X137917401Y-119485835D01*
X137909401Y-119477835D01*
X137908401Y-119475835D01*
X137906401Y-119473835D01*
X137905401Y-119471835D01*
X137903401Y-119469835D01*
X137902401Y-119466835D01*
X137901401Y-119464835D01*
X137900401Y-119461835D01*
X137900401Y-119459835D01*
X137899401Y-119456835D01*
X137899401Y-119454835D01*
X137898401Y-119451835D01*
X137898401Y-118791835D01*
X137899401Y-118788835D01*
X137899401Y-118786835D01*
X137900401Y-118783835D01*
X137900401Y-118781835D01*
X137901401Y-118778835D01*
X137902401Y-118776835D01*
X137903401Y-118773835D01*
X137905401Y-118771835D01*
X137906401Y-118769835D01*
X137908401Y-118767835D01*
X137909401Y-118765835D01*
X137917401Y-118757835D01*
X137919401Y-118756835D01*
X137921401Y-118754835D01*
X137923401Y-118753835D01*
X137925401Y-118751835D01*
X137928401Y-118750835D01*
X137930401Y-118749835D01*
X137933401Y-118748835D01*
X137935401Y-118748835D01*
X137938401Y-118747835D01*
X137940401Y-118747835D01*
X137943401Y-118746835D01*
X138110401Y-118746835D01*
X138112401Y-118747835D01*
G37*
X138112401Y-118747835D02*
X138115401Y-118747835D01*
X138121401Y-118750835D01*
X138124401Y-118751835D01*
X138130401Y-118754835D01*
X138131401Y-118756835D01*
X138133401Y-118757835D01*
X138137401Y-118761835D01*
X138138401Y-118763835D01*
X138140401Y-118764835D01*
X138143401Y-118770835D01*
X138144401Y-118773835D01*
X138147401Y-118779835D01*
X138147401Y-118782835D01*
X138148401Y-118784835D01*
X138148401Y-119458835D01*
X138147401Y-119460835D01*
X138147401Y-119463835D01*
X138144401Y-119469835D01*
X138143401Y-119472835D01*
X138140401Y-119478835D01*
X138138401Y-119479835D01*
X138137401Y-119481835D01*
X138133401Y-119485835D01*
X138131401Y-119486835D01*
X138130401Y-119488835D01*
X138124401Y-119491835D01*
X138121401Y-119492835D01*
X138115401Y-119495835D01*
X138112401Y-119495835D01*
X138110401Y-119496835D01*
X137943401Y-119496835D01*
X137940401Y-119495835D01*
X137938401Y-119495835D01*
X137935401Y-119494835D01*
X137933401Y-119494835D01*
X137930401Y-119493835D01*
X137928401Y-119492835D01*
X137925401Y-119491835D01*
X137923401Y-119489835D01*
X137921401Y-119488835D01*
X137919401Y-119486835D01*
X137917401Y-119485835D01*
X137909401Y-119477835D01*
X137908401Y-119475835D01*
X137906401Y-119473835D01*
X137905401Y-119471835D01*
X137903401Y-119469835D01*
X137902401Y-119466835D01*
X137901401Y-119464835D01*
X137900401Y-119461835D01*
X137900401Y-119459835D01*
X137899401Y-119456835D01*
X137899401Y-119454835D01*
X137898401Y-119451835D01*
X137898401Y-118791835D01*
X137899401Y-118788835D01*
X137899401Y-118786835D01*
X137900401Y-118783835D01*
X137900401Y-118781835D01*
X137901401Y-118778835D01*
X137902401Y-118776835D01*
X137903401Y-118773835D01*
X137905401Y-118771835D01*
X137906401Y-118769835D01*
X137908401Y-118767835D01*
X137909401Y-118765835D01*
X137917401Y-118757835D01*
X137919401Y-118756835D01*
X137921401Y-118754835D01*
X137923401Y-118753835D01*
X137925401Y-118751835D01*
X137928401Y-118750835D01*
X137930401Y-118749835D01*
X137933401Y-118748835D01*
X137935401Y-118748835D01*
X137938401Y-118747835D01*
X137940401Y-118747835D01*
X137943401Y-118746835D01*
X138110401Y-118746835D01*
X138112401Y-118747835D01*
G36*
X138803401Y-120071835D02*
G01*
X139313401Y-120071835D01*
X139328401Y-120076835D01*
X139331401Y-120078835D01*
X139334401Y-120079835D01*
X139340401Y-120083835D01*
X139347401Y-120090835D01*
X139349401Y-120093835D01*
X139351401Y-120095835D01*
X139357401Y-120104835D01*
X139358401Y-120107835D01*
X139360401Y-120110835D01*
X139363401Y-120119835D01*
X139363401Y-120122835D01*
X139364401Y-120126835D01*
X139364401Y-120142835D01*
X139363401Y-120146835D01*
X139363401Y-120246835D01*
X139364401Y-120250835D01*
X139364401Y-120266835D01*
X139363401Y-120270835D01*
X139363401Y-120273835D01*
X139360401Y-120282835D01*
X139358401Y-120285835D01*
X139357401Y-120288835D01*
X139351401Y-120297835D01*
X139349401Y-120299835D01*
X139347401Y-120302835D01*
X139340401Y-120309835D01*
X139334401Y-120313835D01*
X139331401Y-120314835D01*
X139328401Y-120316835D01*
X139313401Y-120321835D01*
X138803401Y-120321835D01*
X138803401Y-120571835D01*
X139318401Y-120571835D01*
X139321401Y-120572835D01*
X139323401Y-120572835D01*
X139326401Y-120573835D01*
X139328401Y-120573835D01*
X139331401Y-120574835D01*
X139333401Y-120575835D01*
X139336401Y-120576835D01*
X139338401Y-120578835D01*
X139340401Y-120579835D01*
X139342401Y-120581835D01*
X139344401Y-120582835D01*
X139352401Y-120590835D01*
X139353401Y-120592835D01*
X139355401Y-120594835D01*
X139356401Y-120596835D01*
X139358401Y-120598835D01*
X139359401Y-120601835D01*
X139360401Y-120603835D01*
X139361401Y-120606835D01*
X139361401Y-120608835D01*
X139362401Y-120611835D01*
X139362401Y-120613835D01*
X139363401Y-120616835D01*
X139363401Y-120776835D01*
X139362401Y-120779835D01*
X139362401Y-120781835D01*
X139361401Y-120784835D01*
X139361401Y-120786835D01*
X139360401Y-120789835D01*
X139359401Y-120791835D01*
X139358401Y-120794835D01*
X139356401Y-120796835D01*
X139355401Y-120798835D01*
X139353401Y-120800835D01*
X139352401Y-120802835D01*
X139344401Y-120810835D01*
X139342401Y-120811835D01*
X139340401Y-120813835D01*
X139338401Y-120814835D01*
X139336401Y-120816835D01*
X139333401Y-120817835D01*
X139331401Y-120818835D01*
X139328401Y-120819835D01*
X139326401Y-120819835D01*
X139323401Y-120820835D01*
X139321401Y-120820835D01*
X139318401Y-120821835D01*
X138803401Y-120821835D01*
X138803401Y-121071835D01*
X139318401Y-121071835D01*
X139321401Y-121072835D01*
X139323401Y-121072835D01*
X139326401Y-121073835D01*
X139328401Y-121073835D01*
X139331401Y-121074835D01*
X139333401Y-121075835D01*
X139336401Y-121076835D01*
X139338401Y-121078835D01*
X139340401Y-121079835D01*
X139342401Y-121081835D01*
X139344401Y-121082835D01*
X139352401Y-121090835D01*
X139353401Y-121092835D01*
X139355401Y-121094835D01*
X139356401Y-121096835D01*
X139358401Y-121098835D01*
X139359401Y-121101835D01*
X139360401Y-121103835D01*
X139361401Y-121106835D01*
X139361401Y-121108835D01*
X139362401Y-121111835D01*
X139362401Y-121113835D01*
X139363401Y-121116835D01*
X139363401Y-121276835D01*
X139362401Y-121279835D01*
X139362401Y-121281835D01*
X139361401Y-121284835D01*
X139361401Y-121286835D01*
X139360401Y-121289835D01*
X139359401Y-121291835D01*
X139358401Y-121294835D01*
X139356401Y-121296835D01*
X139355401Y-121298835D01*
X139353401Y-121300835D01*
X139352401Y-121302835D01*
X139344401Y-121310835D01*
X139342401Y-121311835D01*
X139340401Y-121313835D01*
X139338401Y-121314835D01*
X139336401Y-121316835D01*
X139333401Y-121317835D01*
X139331401Y-121318835D01*
X139328401Y-121319835D01*
X139326401Y-121319835D01*
X139323401Y-121320835D01*
X139321401Y-121320835D01*
X139318401Y-121321835D01*
X138803401Y-121321835D01*
X138803401Y-122101835D01*
X138802401Y-122104835D01*
X138802401Y-122106835D01*
X138801401Y-122109835D01*
X138801401Y-122111835D01*
X138800401Y-122114835D01*
X138799401Y-122116835D01*
X138798401Y-122119835D01*
X138796401Y-122121835D01*
X138795401Y-122123835D01*
X138793401Y-122125835D01*
X138792401Y-122127835D01*
X138784401Y-122135835D01*
X138782401Y-122136835D01*
X138780401Y-122138835D01*
X138778401Y-122139835D01*
X138776401Y-122141835D01*
X138773401Y-122142835D01*
X138771401Y-122143835D01*
X138768401Y-122144835D01*
X138766401Y-122144835D01*
X138763401Y-122145835D01*
X138761401Y-122145835D01*
X138758401Y-122146835D01*
X138448401Y-122146835D01*
X138445401Y-122145835D01*
X138443401Y-122145835D01*
X138440401Y-122144835D01*
X138438401Y-122144835D01*
X138435401Y-122143835D01*
X138433401Y-122142835D01*
X138430401Y-122141835D01*
X138428401Y-122139835D01*
X138426401Y-122138835D01*
X138424401Y-122136835D01*
X138422401Y-122135835D01*
X138414401Y-122127835D01*
X138413401Y-122125835D01*
X138411401Y-122123835D01*
X138410401Y-122121835D01*
X138408401Y-122119835D01*
X138407401Y-122116835D01*
X138406401Y-122114835D01*
X138405401Y-122111835D01*
X138405401Y-122109835D01*
X138404401Y-122106835D01*
X138404401Y-122104835D01*
X138403401Y-122101835D01*
X138403401Y-120091835D01*
X138404401Y-120088835D01*
X138404401Y-120086835D01*
X138405401Y-120083835D01*
X138405401Y-120081835D01*
X138406401Y-120078835D01*
X138407401Y-120076835D01*
X138408401Y-120073835D01*
X138410401Y-120071835D01*
X138411401Y-120069835D01*
X138413401Y-120067835D01*
X138414401Y-120065835D01*
X138422401Y-120057835D01*
X138424401Y-120056835D01*
X138426401Y-120054835D01*
X138428401Y-120053835D01*
X138430401Y-120051835D01*
X138433401Y-120050835D01*
X138435401Y-120049835D01*
X138438401Y-120048835D01*
X138440401Y-120048835D01*
X138443401Y-120047835D01*
X138445401Y-120047835D01*
X138448401Y-120046835D01*
X138803401Y-120046835D01*
X138803401Y-120071835D01*
G37*
X138803401Y-120071835D02*
X139313401Y-120071835D01*
X139328401Y-120076835D01*
X139331401Y-120078835D01*
X139334401Y-120079835D01*
X139340401Y-120083835D01*
X139347401Y-120090835D01*
X139349401Y-120093835D01*
X139351401Y-120095835D01*
X139357401Y-120104835D01*
X139358401Y-120107835D01*
X139360401Y-120110835D01*
X139363401Y-120119835D01*
X139363401Y-120122835D01*
X139364401Y-120126835D01*
X139364401Y-120142835D01*
X139363401Y-120146835D01*
X139363401Y-120246835D01*
X139364401Y-120250835D01*
X139364401Y-120266835D01*
X139363401Y-120270835D01*
X139363401Y-120273835D01*
X139360401Y-120282835D01*
X139358401Y-120285835D01*
X139357401Y-120288835D01*
X139351401Y-120297835D01*
X139349401Y-120299835D01*
X139347401Y-120302835D01*
X139340401Y-120309835D01*
X139334401Y-120313835D01*
X139331401Y-120314835D01*
X139328401Y-120316835D01*
X139313401Y-120321835D01*
X138803401Y-120321835D01*
X138803401Y-120571835D01*
X139318401Y-120571835D01*
X139321401Y-120572835D01*
X139323401Y-120572835D01*
X139326401Y-120573835D01*
X139328401Y-120573835D01*
X139331401Y-120574835D01*
X139333401Y-120575835D01*
X139336401Y-120576835D01*
X139338401Y-120578835D01*
X139340401Y-120579835D01*
X139342401Y-120581835D01*
X139344401Y-120582835D01*
X139352401Y-120590835D01*
X139353401Y-120592835D01*
X139355401Y-120594835D01*
X139356401Y-120596835D01*
X139358401Y-120598835D01*
X139359401Y-120601835D01*
X139360401Y-120603835D01*
X139361401Y-120606835D01*
X139361401Y-120608835D01*
X139362401Y-120611835D01*
X139362401Y-120613835D01*
X139363401Y-120616835D01*
X139363401Y-120776835D01*
X139362401Y-120779835D01*
X139362401Y-120781835D01*
X139361401Y-120784835D01*
X139361401Y-120786835D01*
X139360401Y-120789835D01*
X139359401Y-120791835D01*
X139358401Y-120794835D01*
X139356401Y-120796835D01*
X139355401Y-120798835D01*
X139353401Y-120800835D01*
X139352401Y-120802835D01*
X139344401Y-120810835D01*
X139342401Y-120811835D01*
X139340401Y-120813835D01*
X139338401Y-120814835D01*
X139336401Y-120816835D01*
X139333401Y-120817835D01*
X139331401Y-120818835D01*
X139328401Y-120819835D01*
X139326401Y-120819835D01*
X139323401Y-120820835D01*
X139321401Y-120820835D01*
X139318401Y-120821835D01*
X138803401Y-120821835D01*
X138803401Y-121071835D01*
X139318401Y-121071835D01*
X139321401Y-121072835D01*
X139323401Y-121072835D01*
X139326401Y-121073835D01*
X139328401Y-121073835D01*
X139331401Y-121074835D01*
X139333401Y-121075835D01*
X139336401Y-121076835D01*
X139338401Y-121078835D01*
X139340401Y-121079835D01*
X139342401Y-121081835D01*
X139344401Y-121082835D01*
X139352401Y-121090835D01*
X139353401Y-121092835D01*
X139355401Y-121094835D01*
X139356401Y-121096835D01*
X139358401Y-121098835D01*
X139359401Y-121101835D01*
X139360401Y-121103835D01*
X139361401Y-121106835D01*
X139361401Y-121108835D01*
X139362401Y-121111835D01*
X139362401Y-121113835D01*
X139363401Y-121116835D01*
X139363401Y-121276835D01*
X139362401Y-121279835D01*
X139362401Y-121281835D01*
X139361401Y-121284835D01*
X139361401Y-121286835D01*
X139360401Y-121289835D01*
X139359401Y-121291835D01*
X139358401Y-121294835D01*
X139356401Y-121296835D01*
X139355401Y-121298835D01*
X139353401Y-121300835D01*
X139352401Y-121302835D01*
X139344401Y-121310835D01*
X139342401Y-121311835D01*
X139340401Y-121313835D01*
X139338401Y-121314835D01*
X139336401Y-121316835D01*
X139333401Y-121317835D01*
X139331401Y-121318835D01*
X139328401Y-121319835D01*
X139326401Y-121319835D01*
X139323401Y-121320835D01*
X139321401Y-121320835D01*
X139318401Y-121321835D01*
X138803401Y-121321835D01*
X138803401Y-122101835D01*
X138802401Y-122104835D01*
X138802401Y-122106835D01*
X138801401Y-122109835D01*
X138801401Y-122111835D01*
X138800401Y-122114835D01*
X138799401Y-122116835D01*
X138798401Y-122119835D01*
X138796401Y-122121835D01*
X138795401Y-122123835D01*
X138793401Y-122125835D01*
X138792401Y-122127835D01*
X138784401Y-122135835D01*
X138782401Y-122136835D01*
X138780401Y-122138835D01*
X138778401Y-122139835D01*
X138776401Y-122141835D01*
X138773401Y-122142835D01*
X138771401Y-122143835D01*
X138768401Y-122144835D01*
X138766401Y-122144835D01*
X138763401Y-122145835D01*
X138761401Y-122145835D01*
X138758401Y-122146835D01*
X138448401Y-122146835D01*
X138445401Y-122145835D01*
X138443401Y-122145835D01*
X138440401Y-122144835D01*
X138438401Y-122144835D01*
X138435401Y-122143835D01*
X138433401Y-122142835D01*
X138430401Y-122141835D01*
X138428401Y-122139835D01*
X138426401Y-122138835D01*
X138424401Y-122136835D01*
X138422401Y-122135835D01*
X138414401Y-122127835D01*
X138413401Y-122125835D01*
X138411401Y-122123835D01*
X138410401Y-122121835D01*
X138408401Y-122119835D01*
X138407401Y-122116835D01*
X138406401Y-122114835D01*
X138405401Y-122111835D01*
X138405401Y-122109835D01*
X138404401Y-122106835D01*
X138404401Y-122104835D01*
X138403401Y-122101835D01*
X138403401Y-120091835D01*
X138404401Y-120088835D01*
X138404401Y-120086835D01*
X138405401Y-120083835D01*
X138405401Y-120081835D01*
X138406401Y-120078835D01*
X138407401Y-120076835D01*
X138408401Y-120073835D01*
X138410401Y-120071835D01*
X138411401Y-120069835D01*
X138413401Y-120067835D01*
X138414401Y-120065835D01*
X138422401Y-120057835D01*
X138424401Y-120056835D01*
X138426401Y-120054835D01*
X138428401Y-120053835D01*
X138430401Y-120051835D01*
X138433401Y-120050835D01*
X138435401Y-120049835D01*
X138438401Y-120048835D01*
X138440401Y-120048835D01*
X138443401Y-120047835D01*
X138445401Y-120047835D01*
X138448401Y-120046835D01*
X138803401Y-120046835D01*
X138803401Y-120071835D01*
G36*
X137601401Y-120047835D02*
G01*
X137603401Y-120047835D01*
X137606401Y-120048835D01*
X137608401Y-120048835D01*
X137611401Y-120049835D01*
X137613401Y-120050835D01*
X137616401Y-120051835D01*
X137618401Y-120053835D01*
X137620401Y-120054835D01*
X137622401Y-120056835D01*
X137624401Y-120057835D01*
X137632401Y-120065835D01*
X137633401Y-120067835D01*
X137635401Y-120069835D01*
X137636401Y-120071835D01*
X137638401Y-120073835D01*
X137639401Y-120076835D01*
X137640401Y-120078835D01*
X137641401Y-120081835D01*
X137641401Y-120083835D01*
X137642401Y-120086835D01*
X137642401Y-120088835D01*
X137643401Y-120091835D01*
X137643401Y-120951835D01*
X137642401Y-120954835D01*
X137642401Y-120956835D01*
X137641401Y-120959835D01*
X137641401Y-120961835D01*
X137640401Y-120964835D01*
X137639401Y-120966835D01*
X137638401Y-120969835D01*
X137636401Y-120971835D01*
X137635401Y-120973835D01*
X137633401Y-120975835D01*
X137632401Y-120977835D01*
X137624401Y-120985835D01*
X137622401Y-120986835D01*
X137620401Y-120988835D01*
X137618401Y-120989835D01*
X137616401Y-120991835D01*
X137613401Y-120992835D01*
X137611401Y-120993835D01*
X137608401Y-120994835D01*
X137606401Y-120994835D01*
X137603401Y-120995835D01*
X137601401Y-120995835D01*
X137598401Y-120996835D01*
X137288401Y-120996835D01*
X137285401Y-120995835D01*
X137283401Y-120995835D01*
X137280401Y-120994835D01*
X137278401Y-120994835D01*
X137275401Y-120993835D01*
X137273401Y-120992835D01*
X137270401Y-120991835D01*
X137268401Y-120989835D01*
X137266401Y-120988835D01*
X137264401Y-120986835D01*
X137262401Y-120985835D01*
X137254401Y-120977835D01*
X137253401Y-120975835D01*
X137251401Y-120973835D01*
X137250401Y-120971835D01*
X137248401Y-120969835D01*
X137247401Y-120966835D01*
X137246401Y-120964835D01*
X137245401Y-120961835D01*
X137245401Y-120959835D01*
X137244401Y-120956835D01*
X137244401Y-120954835D01*
X137243401Y-120951835D01*
X137243401Y-120091835D01*
X137244401Y-120088835D01*
X137244401Y-120086835D01*
X137245401Y-120083835D01*
X137245401Y-120081835D01*
X137246401Y-120078835D01*
X137247401Y-120076835D01*
X137248401Y-120073835D01*
X137250401Y-120071835D01*
X137251401Y-120069835D01*
X137253401Y-120067835D01*
X137254401Y-120065835D01*
X137262401Y-120057835D01*
X137264401Y-120056835D01*
X137266401Y-120054835D01*
X137268401Y-120053835D01*
X137270401Y-120051835D01*
X137273401Y-120050835D01*
X137275401Y-120049835D01*
X137278401Y-120048835D01*
X137280401Y-120048835D01*
X137283401Y-120047835D01*
X137285401Y-120047835D01*
X137288401Y-120046835D01*
X137598401Y-120046835D01*
X137601401Y-120047835D01*
G37*
X137601401Y-120047835D02*
X137603401Y-120047835D01*
X137606401Y-120048835D01*
X137608401Y-120048835D01*
X137611401Y-120049835D01*
X137613401Y-120050835D01*
X137616401Y-120051835D01*
X137618401Y-120053835D01*
X137620401Y-120054835D01*
X137622401Y-120056835D01*
X137624401Y-120057835D01*
X137632401Y-120065835D01*
X137633401Y-120067835D01*
X137635401Y-120069835D01*
X137636401Y-120071835D01*
X137638401Y-120073835D01*
X137639401Y-120076835D01*
X137640401Y-120078835D01*
X137641401Y-120081835D01*
X137641401Y-120083835D01*
X137642401Y-120086835D01*
X137642401Y-120088835D01*
X137643401Y-120091835D01*
X137643401Y-120951835D01*
X137642401Y-120954835D01*
X137642401Y-120956835D01*
X137641401Y-120959835D01*
X137641401Y-120961835D01*
X137640401Y-120964835D01*
X137639401Y-120966835D01*
X137638401Y-120969835D01*
X137636401Y-120971835D01*
X137635401Y-120973835D01*
X137633401Y-120975835D01*
X137632401Y-120977835D01*
X137624401Y-120985835D01*
X137622401Y-120986835D01*
X137620401Y-120988835D01*
X137618401Y-120989835D01*
X137616401Y-120991835D01*
X137613401Y-120992835D01*
X137611401Y-120993835D01*
X137608401Y-120994835D01*
X137606401Y-120994835D01*
X137603401Y-120995835D01*
X137601401Y-120995835D01*
X137598401Y-120996835D01*
X137288401Y-120996835D01*
X137285401Y-120995835D01*
X137283401Y-120995835D01*
X137280401Y-120994835D01*
X137278401Y-120994835D01*
X137275401Y-120993835D01*
X137273401Y-120992835D01*
X137270401Y-120991835D01*
X137268401Y-120989835D01*
X137266401Y-120988835D01*
X137264401Y-120986835D01*
X137262401Y-120985835D01*
X137254401Y-120977835D01*
X137253401Y-120975835D01*
X137251401Y-120973835D01*
X137250401Y-120971835D01*
X137248401Y-120969835D01*
X137247401Y-120966835D01*
X137246401Y-120964835D01*
X137245401Y-120961835D01*
X137245401Y-120959835D01*
X137244401Y-120956835D01*
X137244401Y-120954835D01*
X137243401Y-120951835D01*
X137243401Y-120091835D01*
X137244401Y-120088835D01*
X137244401Y-120086835D01*
X137245401Y-120083835D01*
X137245401Y-120081835D01*
X137246401Y-120078835D01*
X137247401Y-120076835D01*
X137248401Y-120073835D01*
X137250401Y-120071835D01*
X137251401Y-120069835D01*
X137253401Y-120067835D01*
X137254401Y-120065835D01*
X137262401Y-120057835D01*
X137264401Y-120056835D01*
X137266401Y-120054835D01*
X137268401Y-120053835D01*
X137270401Y-120051835D01*
X137273401Y-120050835D01*
X137275401Y-120049835D01*
X137278401Y-120048835D01*
X137280401Y-120048835D01*
X137283401Y-120047835D01*
X137285401Y-120047835D01*
X137288401Y-120046835D01*
X137598401Y-120046835D01*
X137601401Y-120047835D01*
%TO.C,U2*%
G36*
X148777398Y-121197835D02*
G01*
X148779398Y-121197835D01*
X148782398Y-121198835D01*
X148784398Y-121198835D01*
X148787398Y-121199835D01*
X148789398Y-121200835D01*
X148792398Y-121201835D01*
X148794398Y-121203835D01*
X148796398Y-121204835D01*
X148798398Y-121206835D01*
X148800398Y-121207835D01*
X148808398Y-121215835D01*
X148809398Y-121217835D01*
X148811398Y-121219835D01*
X148812398Y-121221835D01*
X148814398Y-121223835D01*
X148815398Y-121226835D01*
X148816398Y-121228835D01*
X148817398Y-121231835D01*
X148817398Y-121233835D01*
X148818398Y-121236835D01*
X148818398Y-121238835D01*
X148819398Y-121241835D01*
X148819398Y-122101835D01*
X148818398Y-122104835D01*
X148818398Y-122106835D01*
X148817398Y-122109835D01*
X148817398Y-122111835D01*
X148816398Y-122114835D01*
X148815398Y-122116835D01*
X148814398Y-122119835D01*
X148812398Y-122121835D01*
X148811398Y-122123835D01*
X148809398Y-122125835D01*
X148808398Y-122127835D01*
X148800398Y-122135835D01*
X148798398Y-122136835D01*
X148796398Y-122138835D01*
X148794398Y-122139835D01*
X148792398Y-122141835D01*
X148789398Y-122142835D01*
X148787398Y-122143835D01*
X148784398Y-122144835D01*
X148782398Y-122144835D01*
X148779398Y-122145835D01*
X148777398Y-122145835D01*
X148774398Y-122146835D01*
X148464398Y-122146835D01*
X148461398Y-122145835D01*
X148459398Y-122145835D01*
X148456398Y-122144835D01*
X148454398Y-122144835D01*
X148451398Y-122143835D01*
X148449398Y-122142835D01*
X148446398Y-122141835D01*
X148444398Y-122139835D01*
X148442398Y-122138835D01*
X148440398Y-122136835D01*
X148438398Y-122135835D01*
X148430398Y-122127835D01*
X148429398Y-122125835D01*
X148427398Y-122123835D01*
X148426398Y-122121835D01*
X148424398Y-122119835D01*
X148423398Y-122116835D01*
X148422398Y-122114835D01*
X148421398Y-122111835D01*
X148421398Y-122109835D01*
X148420398Y-122106835D01*
X148420398Y-122104835D01*
X148419398Y-122101835D01*
X148419398Y-121241835D01*
X148420398Y-121238835D01*
X148420398Y-121236835D01*
X148421398Y-121233835D01*
X148421398Y-121231835D01*
X148422398Y-121228835D01*
X148423398Y-121226835D01*
X148424398Y-121223835D01*
X148426398Y-121221835D01*
X148427398Y-121219835D01*
X148429398Y-121217835D01*
X148430398Y-121215835D01*
X148438398Y-121207835D01*
X148440398Y-121206835D01*
X148442398Y-121204835D01*
X148444398Y-121203835D01*
X148446398Y-121201835D01*
X148449398Y-121200835D01*
X148451398Y-121199835D01*
X148454398Y-121198835D01*
X148456398Y-121198835D01*
X148459398Y-121197835D01*
X148461398Y-121197835D01*
X148464398Y-121196835D01*
X148774398Y-121196835D01*
X148777398Y-121197835D01*
G37*
X148777398Y-121197835D02*
X148779398Y-121197835D01*
X148782398Y-121198835D01*
X148784398Y-121198835D01*
X148787398Y-121199835D01*
X148789398Y-121200835D01*
X148792398Y-121201835D01*
X148794398Y-121203835D01*
X148796398Y-121204835D01*
X148798398Y-121206835D01*
X148800398Y-121207835D01*
X148808398Y-121215835D01*
X148809398Y-121217835D01*
X148811398Y-121219835D01*
X148812398Y-121221835D01*
X148814398Y-121223835D01*
X148815398Y-121226835D01*
X148816398Y-121228835D01*
X148817398Y-121231835D01*
X148817398Y-121233835D01*
X148818398Y-121236835D01*
X148818398Y-121238835D01*
X148819398Y-121241835D01*
X148819398Y-122101835D01*
X148818398Y-122104835D01*
X148818398Y-122106835D01*
X148817398Y-122109835D01*
X148817398Y-122111835D01*
X148816398Y-122114835D01*
X148815398Y-122116835D01*
X148814398Y-122119835D01*
X148812398Y-122121835D01*
X148811398Y-122123835D01*
X148809398Y-122125835D01*
X148808398Y-122127835D01*
X148800398Y-122135835D01*
X148798398Y-122136835D01*
X148796398Y-122138835D01*
X148794398Y-122139835D01*
X148792398Y-122141835D01*
X148789398Y-122142835D01*
X148787398Y-122143835D01*
X148784398Y-122144835D01*
X148782398Y-122144835D01*
X148779398Y-122145835D01*
X148777398Y-122145835D01*
X148774398Y-122146835D01*
X148464398Y-122146835D01*
X148461398Y-122145835D01*
X148459398Y-122145835D01*
X148456398Y-122144835D01*
X148454398Y-122144835D01*
X148451398Y-122143835D01*
X148449398Y-122142835D01*
X148446398Y-122141835D01*
X148444398Y-122139835D01*
X148442398Y-122138835D01*
X148440398Y-122136835D01*
X148438398Y-122135835D01*
X148430398Y-122127835D01*
X148429398Y-122125835D01*
X148427398Y-122123835D01*
X148426398Y-122121835D01*
X148424398Y-122119835D01*
X148423398Y-122116835D01*
X148422398Y-122114835D01*
X148421398Y-122111835D01*
X148421398Y-122109835D01*
X148420398Y-122106835D01*
X148420398Y-122104835D01*
X148419398Y-122101835D01*
X148419398Y-121241835D01*
X148420398Y-121238835D01*
X148420398Y-121236835D01*
X148421398Y-121233835D01*
X148421398Y-121231835D01*
X148422398Y-121228835D01*
X148423398Y-121226835D01*
X148424398Y-121223835D01*
X148426398Y-121221835D01*
X148427398Y-121219835D01*
X148429398Y-121217835D01*
X148430398Y-121215835D01*
X148438398Y-121207835D01*
X148440398Y-121206835D01*
X148442398Y-121204835D01*
X148444398Y-121203835D01*
X148446398Y-121201835D01*
X148449398Y-121200835D01*
X148451398Y-121199835D01*
X148454398Y-121198835D01*
X148456398Y-121198835D01*
X148459398Y-121197835D01*
X148461398Y-121197835D01*
X148464398Y-121196835D01*
X148774398Y-121196835D01*
X148777398Y-121197835D01*
G36*
X148777398Y-120047835D02*
G01*
X148779398Y-120047835D01*
X148782398Y-120048835D01*
X148784398Y-120048835D01*
X148787398Y-120049835D01*
X148789398Y-120050835D01*
X148792398Y-120051835D01*
X148794398Y-120053835D01*
X148796398Y-120054835D01*
X148798398Y-120056835D01*
X148800398Y-120057835D01*
X148808398Y-120065835D01*
X148809398Y-120067835D01*
X148811398Y-120069835D01*
X148812398Y-120071835D01*
X148814398Y-120073835D01*
X148815398Y-120076835D01*
X148816398Y-120078835D01*
X148817398Y-120081835D01*
X148817398Y-120083835D01*
X148818398Y-120086835D01*
X148818398Y-120088835D01*
X148819398Y-120091835D01*
X148819398Y-120951835D01*
X148818398Y-120954835D01*
X148818398Y-120956835D01*
X148817398Y-120959835D01*
X148817398Y-120961835D01*
X148816398Y-120964835D01*
X148815398Y-120966835D01*
X148814398Y-120969835D01*
X148812398Y-120971835D01*
X148811398Y-120973835D01*
X148809398Y-120975835D01*
X148808398Y-120977835D01*
X148800398Y-120985835D01*
X148798398Y-120986835D01*
X148796398Y-120988835D01*
X148794398Y-120989835D01*
X148792398Y-120991835D01*
X148789398Y-120992835D01*
X148787398Y-120993835D01*
X148784398Y-120994835D01*
X148782398Y-120994835D01*
X148779398Y-120995835D01*
X148777398Y-120995835D01*
X148774398Y-120996835D01*
X148464398Y-120996835D01*
X148461398Y-120995835D01*
X148459398Y-120995835D01*
X148456398Y-120994835D01*
X148454398Y-120994835D01*
X148451398Y-120993835D01*
X148449398Y-120992835D01*
X148446398Y-120991835D01*
X148444398Y-120989835D01*
X148442398Y-120988835D01*
X148440398Y-120986835D01*
X148438398Y-120985835D01*
X148430398Y-120977835D01*
X148429398Y-120975835D01*
X148427398Y-120973835D01*
X148426398Y-120971835D01*
X148424398Y-120969835D01*
X148423398Y-120966835D01*
X148422398Y-120964835D01*
X148421398Y-120961835D01*
X148421398Y-120959835D01*
X148420398Y-120956835D01*
X148420398Y-120954835D01*
X148419398Y-120951835D01*
X148419398Y-120091835D01*
X148420398Y-120088835D01*
X148420398Y-120086835D01*
X148421398Y-120083835D01*
X148421398Y-120081835D01*
X148422398Y-120078835D01*
X148423398Y-120076835D01*
X148424398Y-120073835D01*
X148426398Y-120071835D01*
X148427398Y-120069835D01*
X148429398Y-120067835D01*
X148430398Y-120065835D01*
X148438398Y-120057835D01*
X148440398Y-120056835D01*
X148442398Y-120054835D01*
X148444398Y-120053835D01*
X148446398Y-120051835D01*
X148449398Y-120050835D01*
X148451398Y-120049835D01*
X148454398Y-120048835D01*
X148456398Y-120048835D01*
X148459398Y-120047835D01*
X148461398Y-120047835D01*
X148464398Y-120046835D01*
X148774398Y-120046835D01*
X148777398Y-120047835D01*
G37*
X148777398Y-120047835D02*
X148779398Y-120047835D01*
X148782398Y-120048835D01*
X148784398Y-120048835D01*
X148787398Y-120049835D01*
X148789398Y-120050835D01*
X148792398Y-120051835D01*
X148794398Y-120053835D01*
X148796398Y-120054835D01*
X148798398Y-120056835D01*
X148800398Y-120057835D01*
X148808398Y-120065835D01*
X148809398Y-120067835D01*
X148811398Y-120069835D01*
X148812398Y-120071835D01*
X148814398Y-120073835D01*
X148815398Y-120076835D01*
X148816398Y-120078835D01*
X148817398Y-120081835D01*
X148817398Y-120083835D01*
X148818398Y-120086835D01*
X148818398Y-120088835D01*
X148819398Y-120091835D01*
X148819398Y-120951835D01*
X148818398Y-120954835D01*
X148818398Y-120956835D01*
X148817398Y-120959835D01*
X148817398Y-120961835D01*
X148816398Y-120964835D01*
X148815398Y-120966835D01*
X148814398Y-120969835D01*
X148812398Y-120971835D01*
X148811398Y-120973835D01*
X148809398Y-120975835D01*
X148808398Y-120977835D01*
X148800398Y-120985835D01*
X148798398Y-120986835D01*
X148796398Y-120988835D01*
X148794398Y-120989835D01*
X148792398Y-120991835D01*
X148789398Y-120992835D01*
X148787398Y-120993835D01*
X148784398Y-120994835D01*
X148782398Y-120994835D01*
X148779398Y-120995835D01*
X148777398Y-120995835D01*
X148774398Y-120996835D01*
X148464398Y-120996835D01*
X148461398Y-120995835D01*
X148459398Y-120995835D01*
X148456398Y-120994835D01*
X148454398Y-120994835D01*
X148451398Y-120993835D01*
X148449398Y-120992835D01*
X148446398Y-120991835D01*
X148444398Y-120989835D01*
X148442398Y-120988835D01*
X148440398Y-120986835D01*
X148438398Y-120985835D01*
X148430398Y-120977835D01*
X148429398Y-120975835D01*
X148427398Y-120973835D01*
X148426398Y-120971835D01*
X148424398Y-120969835D01*
X148423398Y-120966835D01*
X148422398Y-120964835D01*
X148421398Y-120961835D01*
X148421398Y-120959835D01*
X148420398Y-120956835D01*
X148420398Y-120954835D01*
X148419398Y-120951835D01*
X148419398Y-120091835D01*
X148420398Y-120088835D01*
X148420398Y-120086835D01*
X148421398Y-120083835D01*
X148421398Y-120081835D01*
X148422398Y-120078835D01*
X148423398Y-120076835D01*
X148424398Y-120073835D01*
X148426398Y-120071835D01*
X148427398Y-120069835D01*
X148429398Y-120067835D01*
X148430398Y-120065835D01*
X148438398Y-120057835D01*
X148440398Y-120056835D01*
X148442398Y-120054835D01*
X148444398Y-120053835D01*
X148446398Y-120051835D01*
X148449398Y-120050835D01*
X148451398Y-120049835D01*
X148454398Y-120048835D01*
X148456398Y-120048835D01*
X148459398Y-120047835D01*
X148461398Y-120047835D01*
X148464398Y-120046835D01*
X148774398Y-120046835D01*
X148777398Y-120047835D01*
G36*
X149288398Y-119697835D02*
G01*
X149291398Y-119697835D01*
X149297398Y-119700835D01*
X149300398Y-119701835D01*
X149306398Y-119704835D01*
X149307398Y-119706835D01*
X149309398Y-119707835D01*
X149313398Y-119711835D01*
X149314398Y-119713835D01*
X149316398Y-119714835D01*
X149319398Y-119720835D01*
X149320398Y-119723835D01*
X149323398Y-119729835D01*
X149323398Y-119732835D01*
X149324398Y-119734835D01*
X149324398Y-120408835D01*
X149323398Y-120410835D01*
X149323398Y-120413835D01*
X149320398Y-120419835D01*
X149319398Y-120422835D01*
X149316398Y-120428835D01*
X149314398Y-120429835D01*
X149313398Y-120431835D01*
X149309398Y-120435835D01*
X149307398Y-120436835D01*
X149306398Y-120438835D01*
X149300398Y-120441835D01*
X149297398Y-120442835D01*
X149291398Y-120445835D01*
X149288398Y-120445835D01*
X149286398Y-120446835D01*
X149119398Y-120446835D01*
X149116398Y-120445835D01*
X149114398Y-120445835D01*
X149111398Y-120444835D01*
X149109398Y-120444835D01*
X149106398Y-120443835D01*
X149104398Y-120442835D01*
X149101398Y-120441835D01*
X149099398Y-120439835D01*
X149097398Y-120438835D01*
X149095398Y-120436835D01*
X149093398Y-120435835D01*
X149085398Y-120427835D01*
X149084398Y-120425835D01*
X149082398Y-120423835D01*
X149081398Y-120421835D01*
X149079398Y-120419835D01*
X149078398Y-120416835D01*
X149077398Y-120414835D01*
X149076398Y-120411835D01*
X149076398Y-120409835D01*
X149075398Y-120406835D01*
X149075398Y-120404835D01*
X149074398Y-120401835D01*
X149074398Y-119741835D01*
X149075398Y-119738835D01*
X149075398Y-119736835D01*
X149076398Y-119733835D01*
X149076398Y-119731835D01*
X149077398Y-119728835D01*
X149078398Y-119726835D01*
X149079398Y-119723835D01*
X149081398Y-119721835D01*
X149082398Y-119719835D01*
X149084398Y-119717835D01*
X149085398Y-119715835D01*
X149093398Y-119707835D01*
X149095398Y-119706835D01*
X149097398Y-119704835D01*
X149099398Y-119703835D01*
X149101398Y-119701835D01*
X149104398Y-119700835D01*
X149106398Y-119699835D01*
X149109398Y-119698835D01*
X149111398Y-119698835D01*
X149114398Y-119697835D01*
X149116398Y-119697835D01*
X149119398Y-119696835D01*
X149286398Y-119696835D01*
X149288398Y-119697835D01*
G37*
X149288398Y-119697835D02*
X149291398Y-119697835D01*
X149297398Y-119700835D01*
X149300398Y-119701835D01*
X149306398Y-119704835D01*
X149307398Y-119706835D01*
X149309398Y-119707835D01*
X149313398Y-119711835D01*
X149314398Y-119713835D01*
X149316398Y-119714835D01*
X149319398Y-119720835D01*
X149320398Y-119723835D01*
X149323398Y-119729835D01*
X149323398Y-119732835D01*
X149324398Y-119734835D01*
X149324398Y-120408835D01*
X149323398Y-120410835D01*
X149323398Y-120413835D01*
X149320398Y-120419835D01*
X149319398Y-120422835D01*
X149316398Y-120428835D01*
X149314398Y-120429835D01*
X149313398Y-120431835D01*
X149309398Y-120435835D01*
X149307398Y-120436835D01*
X149306398Y-120438835D01*
X149300398Y-120441835D01*
X149297398Y-120442835D01*
X149291398Y-120445835D01*
X149288398Y-120445835D01*
X149286398Y-120446835D01*
X149119398Y-120446835D01*
X149116398Y-120445835D01*
X149114398Y-120445835D01*
X149111398Y-120444835D01*
X149109398Y-120444835D01*
X149106398Y-120443835D01*
X149104398Y-120442835D01*
X149101398Y-120441835D01*
X149099398Y-120439835D01*
X149097398Y-120438835D01*
X149095398Y-120436835D01*
X149093398Y-120435835D01*
X149085398Y-120427835D01*
X149084398Y-120425835D01*
X149082398Y-120423835D01*
X149081398Y-120421835D01*
X149079398Y-120419835D01*
X149078398Y-120416835D01*
X149077398Y-120414835D01*
X149076398Y-120411835D01*
X149076398Y-120409835D01*
X149075398Y-120406835D01*
X149075398Y-120404835D01*
X149074398Y-120401835D01*
X149074398Y-119741835D01*
X149075398Y-119738835D01*
X149075398Y-119736835D01*
X149076398Y-119733835D01*
X149076398Y-119731835D01*
X149077398Y-119728835D01*
X149078398Y-119726835D01*
X149079398Y-119723835D01*
X149081398Y-119721835D01*
X149082398Y-119719835D01*
X149084398Y-119717835D01*
X149085398Y-119715835D01*
X149093398Y-119707835D01*
X149095398Y-119706835D01*
X149097398Y-119704835D01*
X149099398Y-119703835D01*
X149101398Y-119701835D01*
X149104398Y-119700835D01*
X149106398Y-119699835D01*
X149109398Y-119698835D01*
X149111398Y-119698835D01*
X149114398Y-119697835D01*
X149116398Y-119697835D01*
X149119398Y-119696835D01*
X149286398Y-119696835D01*
X149288398Y-119697835D01*
G36*
X149288398Y-118747835D02*
G01*
X149291398Y-118747835D01*
X149297398Y-118750835D01*
X149300398Y-118751835D01*
X149306398Y-118754835D01*
X149307398Y-118756835D01*
X149309398Y-118757835D01*
X149313398Y-118761835D01*
X149314398Y-118763835D01*
X149316398Y-118764835D01*
X149319398Y-118770835D01*
X149320398Y-118773835D01*
X149323398Y-118779835D01*
X149323398Y-118782835D01*
X149324398Y-118784835D01*
X149324398Y-119458835D01*
X149323398Y-119460835D01*
X149323398Y-119463835D01*
X149320398Y-119469835D01*
X149319398Y-119472835D01*
X149316398Y-119478835D01*
X149314398Y-119479835D01*
X149313398Y-119481835D01*
X149309398Y-119485835D01*
X149307398Y-119486835D01*
X149306398Y-119488835D01*
X149300398Y-119491835D01*
X149297398Y-119492835D01*
X149291398Y-119495835D01*
X149288398Y-119495835D01*
X149286398Y-119496835D01*
X149119398Y-119496835D01*
X149116398Y-119495835D01*
X149114398Y-119495835D01*
X149111398Y-119494835D01*
X149109398Y-119494835D01*
X149106398Y-119493835D01*
X149104398Y-119492835D01*
X149101398Y-119491835D01*
X149099398Y-119489835D01*
X149097398Y-119488835D01*
X149095398Y-119486835D01*
X149093398Y-119485835D01*
X149085398Y-119477835D01*
X149084398Y-119475835D01*
X149082398Y-119473835D01*
X149081398Y-119471835D01*
X149079398Y-119469835D01*
X149078398Y-119466835D01*
X149077398Y-119464835D01*
X149076398Y-119461835D01*
X149076398Y-119459835D01*
X149075398Y-119456835D01*
X149075398Y-119454835D01*
X149074398Y-119451835D01*
X149074398Y-118791835D01*
X149075398Y-118788835D01*
X149075398Y-118786835D01*
X149076398Y-118783835D01*
X149076398Y-118781835D01*
X149077398Y-118778835D01*
X149078398Y-118776835D01*
X149079398Y-118773835D01*
X149081398Y-118771835D01*
X149082398Y-118769835D01*
X149084398Y-118767835D01*
X149085398Y-118765835D01*
X149093398Y-118757835D01*
X149095398Y-118756835D01*
X149097398Y-118754835D01*
X149099398Y-118753835D01*
X149101398Y-118751835D01*
X149104398Y-118750835D01*
X149106398Y-118749835D01*
X149109398Y-118748835D01*
X149111398Y-118748835D01*
X149114398Y-118747835D01*
X149116398Y-118747835D01*
X149119398Y-118746835D01*
X149286398Y-118746835D01*
X149288398Y-118747835D01*
G37*
X149288398Y-118747835D02*
X149291398Y-118747835D01*
X149297398Y-118750835D01*
X149300398Y-118751835D01*
X149306398Y-118754835D01*
X149307398Y-118756835D01*
X149309398Y-118757835D01*
X149313398Y-118761835D01*
X149314398Y-118763835D01*
X149316398Y-118764835D01*
X149319398Y-118770835D01*
X149320398Y-118773835D01*
X149323398Y-118779835D01*
X149323398Y-118782835D01*
X149324398Y-118784835D01*
X149324398Y-119458835D01*
X149323398Y-119460835D01*
X149323398Y-119463835D01*
X149320398Y-119469835D01*
X149319398Y-119472835D01*
X149316398Y-119478835D01*
X149314398Y-119479835D01*
X149313398Y-119481835D01*
X149309398Y-119485835D01*
X149307398Y-119486835D01*
X149306398Y-119488835D01*
X149300398Y-119491835D01*
X149297398Y-119492835D01*
X149291398Y-119495835D01*
X149288398Y-119495835D01*
X149286398Y-119496835D01*
X149119398Y-119496835D01*
X149116398Y-119495835D01*
X149114398Y-119495835D01*
X149111398Y-119494835D01*
X149109398Y-119494835D01*
X149106398Y-119493835D01*
X149104398Y-119492835D01*
X149101398Y-119491835D01*
X149099398Y-119489835D01*
X149097398Y-119488835D01*
X149095398Y-119486835D01*
X149093398Y-119485835D01*
X149085398Y-119477835D01*
X149084398Y-119475835D01*
X149082398Y-119473835D01*
X149081398Y-119471835D01*
X149079398Y-119469835D01*
X149078398Y-119466835D01*
X149077398Y-119464835D01*
X149076398Y-119461835D01*
X149076398Y-119459835D01*
X149075398Y-119456835D01*
X149075398Y-119454835D01*
X149074398Y-119451835D01*
X149074398Y-118791835D01*
X149075398Y-118788835D01*
X149075398Y-118786835D01*
X149076398Y-118783835D01*
X149076398Y-118781835D01*
X149077398Y-118778835D01*
X149078398Y-118776835D01*
X149079398Y-118773835D01*
X149081398Y-118771835D01*
X149082398Y-118769835D01*
X149084398Y-118767835D01*
X149085398Y-118765835D01*
X149093398Y-118757835D01*
X149095398Y-118756835D01*
X149097398Y-118754835D01*
X149099398Y-118753835D01*
X149101398Y-118751835D01*
X149104398Y-118750835D01*
X149106398Y-118749835D01*
X149109398Y-118748835D01*
X149111398Y-118748835D01*
X149114398Y-118747835D01*
X149116398Y-118747835D01*
X149119398Y-118746835D01*
X149286398Y-118746835D01*
X149288398Y-118747835D01*
G36*
X149979398Y-120071835D02*
G01*
X150489398Y-120071835D01*
X150504398Y-120076835D01*
X150507398Y-120078835D01*
X150510398Y-120079835D01*
X150516398Y-120083835D01*
X150523398Y-120090835D01*
X150525398Y-120093835D01*
X150527398Y-120095835D01*
X150533398Y-120104835D01*
X150534398Y-120107835D01*
X150536398Y-120110835D01*
X150539398Y-120119835D01*
X150539398Y-120122835D01*
X150540398Y-120126835D01*
X150540398Y-120142835D01*
X150539398Y-120146835D01*
X150539398Y-120246835D01*
X150540398Y-120250835D01*
X150540398Y-120266835D01*
X150539398Y-120270835D01*
X150539398Y-120273835D01*
X150536398Y-120282835D01*
X150534398Y-120285835D01*
X150533398Y-120288835D01*
X150527398Y-120297835D01*
X150525398Y-120299835D01*
X150523398Y-120302835D01*
X150516398Y-120309835D01*
X150510398Y-120313835D01*
X150507398Y-120314835D01*
X150504398Y-120316835D01*
X150489398Y-120321835D01*
X149979398Y-120321835D01*
X149979398Y-120571835D01*
X150494398Y-120571835D01*
X150497398Y-120572835D01*
X150499398Y-120572835D01*
X150502398Y-120573835D01*
X150504398Y-120573835D01*
X150507398Y-120574835D01*
X150509398Y-120575835D01*
X150512398Y-120576835D01*
X150514398Y-120578835D01*
X150516398Y-120579835D01*
X150518398Y-120581835D01*
X150520398Y-120582835D01*
X150528398Y-120590835D01*
X150529398Y-120592835D01*
X150531398Y-120594835D01*
X150532398Y-120596835D01*
X150534398Y-120598835D01*
X150535398Y-120601835D01*
X150536398Y-120603835D01*
X150537398Y-120606835D01*
X150537398Y-120608835D01*
X150538398Y-120611835D01*
X150538398Y-120613835D01*
X150539398Y-120616835D01*
X150539398Y-120776835D01*
X150538398Y-120779835D01*
X150538398Y-120781835D01*
X150537398Y-120784835D01*
X150537398Y-120786835D01*
X150536398Y-120789835D01*
X150535398Y-120791835D01*
X150534398Y-120794835D01*
X150532398Y-120796835D01*
X150531398Y-120798835D01*
X150529398Y-120800835D01*
X150528398Y-120802835D01*
X150520398Y-120810835D01*
X150518398Y-120811835D01*
X150516398Y-120813835D01*
X150514398Y-120814835D01*
X150512398Y-120816835D01*
X150509398Y-120817835D01*
X150507398Y-120818835D01*
X150504398Y-120819835D01*
X150502398Y-120819835D01*
X150499398Y-120820835D01*
X150497398Y-120820835D01*
X150494398Y-120821835D01*
X149979398Y-120821835D01*
X149979398Y-121071835D01*
X150494398Y-121071835D01*
X150497398Y-121072835D01*
X150499398Y-121072835D01*
X150502398Y-121073835D01*
X150504398Y-121073835D01*
X150507398Y-121074835D01*
X150509398Y-121075835D01*
X150512398Y-121076835D01*
X150514398Y-121078835D01*
X150516398Y-121079835D01*
X150518398Y-121081835D01*
X150520398Y-121082835D01*
X150528398Y-121090835D01*
X150529398Y-121092835D01*
X150531398Y-121094835D01*
X150532398Y-121096835D01*
X150534398Y-121098835D01*
X150535398Y-121101835D01*
X150536398Y-121103835D01*
X150537398Y-121106835D01*
X150537398Y-121108835D01*
X150538398Y-121111835D01*
X150538398Y-121113835D01*
X150539398Y-121116835D01*
X150539398Y-121276835D01*
X150538398Y-121279835D01*
X150538398Y-121281835D01*
X150537398Y-121284835D01*
X150537398Y-121286835D01*
X150536398Y-121289835D01*
X150535398Y-121291835D01*
X150534398Y-121294835D01*
X150532398Y-121296835D01*
X150531398Y-121298835D01*
X150529398Y-121300835D01*
X150528398Y-121302835D01*
X150520398Y-121310835D01*
X150518398Y-121311835D01*
X150516398Y-121313835D01*
X150514398Y-121314835D01*
X150512398Y-121316835D01*
X150509398Y-121317835D01*
X150507398Y-121318835D01*
X150504398Y-121319835D01*
X150502398Y-121319835D01*
X150499398Y-121320835D01*
X150497398Y-121320835D01*
X150494398Y-121321835D01*
X149979398Y-121321835D01*
X149979398Y-122101835D01*
X149978398Y-122104835D01*
X149978398Y-122106835D01*
X149977398Y-122109835D01*
X149977398Y-122111835D01*
X149976398Y-122114835D01*
X149975398Y-122116835D01*
X149974398Y-122119835D01*
X149972398Y-122121835D01*
X149971398Y-122123835D01*
X149969398Y-122125835D01*
X149968398Y-122127835D01*
X149960398Y-122135835D01*
X149958398Y-122136835D01*
X149956398Y-122138835D01*
X149954398Y-122139835D01*
X149952398Y-122141835D01*
X149949398Y-122142835D01*
X149947398Y-122143835D01*
X149944398Y-122144835D01*
X149942398Y-122144835D01*
X149939398Y-122145835D01*
X149937398Y-122145835D01*
X149934398Y-122146835D01*
X149624398Y-122146835D01*
X149621398Y-122145835D01*
X149619398Y-122145835D01*
X149616398Y-122144835D01*
X149614398Y-122144835D01*
X149611398Y-122143835D01*
X149609398Y-122142835D01*
X149606398Y-122141835D01*
X149604398Y-122139835D01*
X149602398Y-122138835D01*
X149600398Y-122136835D01*
X149598398Y-122135835D01*
X149590398Y-122127835D01*
X149589398Y-122125835D01*
X149587398Y-122123835D01*
X149586398Y-122121835D01*
X149584398Y-122119835D01*
X149583398Y-122116835D01*
X149582398Y-122114835D01*
X149581398Y-122111835D01*
X149581398Y-122109835D01*
X149580398Y-122106835D01*
X149580398Y-122104835D01*
X149579398Y-122101835D01*
X149579398Y-120091835D01*
X149580398Y-120088835D01*
X149580398Y-120086835D01*
X149581398Y-120083835D01*
X149581398Y-120081835D01*
X149582398Y-120078835D01*
X149583398Y-120076835D01*
X149584398Y-120073835D01*
X149586398Y-120071835D01*
X149587398Y-120069835D01*
X149589398Y-120067835D01*
X149590398Y-120065835D01*
X149598398Y-120057835D01*
X149600398Y-120056835D01*
X149602398Y-120054835D01*
X149604398Y-120053835D01*
X149606398Y-120051835D01*
X149609398Y-120050835D01*
X149611398Y-120049835D01*
X149614398Y-120048835D01*
X149616398Y-120048835D01*
X149619398Y-120047835D01*
X149621398Y-120047835D01*
X149624398Y-120046835D01*
X149979398Y-120046835D01*
X149979398Y-120071835D01*
G37*
X149979398Y-120071835D02*
X150489398Y-120071835D01*
X150504398Y-120076835D01*
X150507398Y-120078835D01*
X150510398Y-120079835D01*
X150516398Y-120083835D01*
X150523398Y-120090835D01*
X150525398Y-120093835D01*
X150527398Y-120095835D01*
X150533398Y-120104835D01*
X150534398Y-120107835D01*
X150536398Y-120110835D01*
X150539398Y-120119835D01*
X150539398Y-120122835D01*
X150540398Y-120126835D01*
X150540398Y-120142835D01*
X150539398Y-120146835D01*
X150539398Y-120246835D01*
X150540398Y-120250835D01*
X150540398Y-120266835D01*
X150539398Y-120270835D01*
X150539398Y-120273835D01*
X150536398Y-120282835D01*
X150534398Y-120285835D01*
X150533398Y-120288835D01*
X150527398Y-120297835D01*
X150525398Y-120299835D01*
X150523398Y-120302835D01*
X150516398Y-120309835D01*
X150510398Y-120313835D01*
X150507398Y-120314835D01*
X150504398Y-120316835D01*
X150489398Y-120321835D01*
X149979398Y-120321835D01*
X149979398Y-120571835D01*
X150494398Y-120571835D01*
X150497398Y-120572835D01*
X150499398Y-120572835D01*
X150502398Y-120573835D01*
X150504398Y-120573835D01*
X150507398Y-120574835D01*
X150509398Y-120575835D01*
X150512398Y-120576835D01*
X150514398Y-120578835D01*
X150516398Y-120579835D01*
X150518398Y-120581835D01*
X150520398Y-120582835D01*
X150528398Y-120590835D01*
X150529398Y-120592835D01*
X150531398Y-120594835D01*
X150532398Y-120596835D01*
X150534398Y-120598835D01*
X150535398Y-120601835D01*
X150536398Y-120603835D01*
X150537398Y-120606835D01*
X150537398Y-120608835D01*
X150538398Y-120611835D01*
X150538398Y-120613835D01*
X150539398Y-120616835D01*
X150539398Y-120776835D01*
X150538398Y-120779835D01*
X150538398Y-120781835D01*
X150537398Y-120784835D01*
X150537398Y-120786835D01*
X150536398Y-120789835D01*
X150535398Y-120791835D01*
X150534398Y-120794835D01*
X150532398Y-120796835D01*
X150531398Y-120798835D01*
X150529398Y-120800835D01*
X150528398Y-120802835D01*
X150520398Y-120810835D01*
X150518398Y-120811835D01*
X150516398Y-120813835D01*
X150514398Y-120814835D01*
X150512398Y-120816835D01*
X150509398Y-120817835D01*
X150507398Y-120818835D01*
X150504398Y-120819835D01*
X150502398Y-120819835D01*
X150499398Y-120820835D01*
X150497398Y-120820835D01*
X150494398Y-120821835D01*
X149979398Y-120821835D01*
X149979398Y-121071835D01*
X150494398Y-121071835D01*
X150497398Y-121072835D01*
X150499398Y-121072835D01*
X150502398Y-121073835D01*
X150504398Y-121073835D01*
X150507398Y-121074835D01*
X150509398Y-121075835D01*
X150512398Y-121076835D01*
X150514398Y-121078835D01*
X150516398Y-121079835D01*
X150518398Y-121081835D01*
X150520398Y-121082835D01*
X150528398Y-121090835D01*
X150529398Y-121092835D01*
X150531398Y-121094835D01*
X150532398Y-121096835D01*
X150534398Y-121098835D01*
X150535398Y-121101835D01*
X150536398Y-121103835D01*
X150537398Y-121106835D01*
X150537398Y-121108835D01*
X150538398Y-121111835D01*
X150538398Y-121113835D01*
X150539398Y-121116835D01*
X150539398Y-121276835D01*
X150538398Y-121279835D01*
X150538398Y-121281835D01*
X150537398Y-121284835D01*
X150537398Y-121286835D01*
X150536398Y-121289835D01*
X150535398Y-121291835D01*
X150534398Y-121294835D01*
X150532398Y-121296835D01*
X150531398Y-121298835D01*
X150529398Y-121300835D01*
X150528398Y-121302835D01*
X150520398Y-121310835D01*
X150518398Y-121311835D01*
X150516398Y-121313835D01*
X150514398Y-121314835D01*
X150512398Y-121316835D01*
X150509398Y-121317835D01*
X150507398Y-121318835D01*
X150504398Y-121319835D01*
X150502398Y-121319835D01*
X150499398Y-121320835D01*
X150497398Y-121320835D01*
X150494398Y-121321835D01*
X149979398Y-121321835D01*
X149979398Y-122101835D01*
X149978398Y-122104835D01*
X149978398Y-122106835D01*
X149977398Y-122109835D01*
X149977398Y-122111835D01*
X149976398Y-122114835D01*
X149975398Y-122116835D01*
X149974398Y-122119835D01*
X149972398Y-122121835D01*
X149971398Y-122123835D01*
X149969398Y-122125835D01*
X149968398Y-122127835D01*
X149960398Y-122135835D01*
X149958398Y-122136835D01*
X149956398Y-122138835D01*
X149954398Y-122139835D01*
X149952398Y-122141835D01*
X149949398Y-122142835D01*
X149947398Y-122143835D01*
X149944398Y-122144835D01*
X149942398Y-122144835D01*
X149939398Y-122145835D01*
X149937398Y-122145835D01*
X149934398Y-122146835D01*
X149624398Y-122146835D01*
X149621398Y-122145835D01*
X149619398Y-122145835D01*
X149616398Y-122144835D01*
X149614398Y-122144835D01*
X149611398Y-122143835D01*
X149609398Y-122142835D01*
X149606398Y-122141835D01*
X149604398Y-122139835D01*
X149602398Y-122138835D01*
X149600398Y-122136835D01*
X149598398Y-122135835D01*
X149590398Y-122127835D01*
X149589398Y-122125835D01*
X149587398Y-122123835D01*
X149586398Y-122121835D01*
X149584398Y-122119835D01*
X149583398Y-122116835D01*
X149582398Y-122114835D01*
X149581398Y-122111835D01*
X149581398Y-122109835D01*
X149580398Y-122106835D01*
X149580398Y-122104835D01*
X149579398Y-122101835D01*
X149579398Y-120091835D01*
X149580398Y-120088835D01*
X149580398Y-120086835D01*
X149581398Y-120083835D01*
X149581398Y-120081835D01*
X149582398Y-120078835D01*
X149583398Y-120076835D01*
X149584398Y-120073835D01*
X149586398Y-120071835D01*
X149587398Y-120069835D01*
X149589398Y-120067835D01*
X149590398Y-120065835D01*
X149598398Y-120057835D01*
X149600398Y-120056835D01*
X149602398Y-120054835D01*
X149604398Y-120053835D01*
X149606398Y-120051835D01*
X149609398Y-120050835D01*
X149611398Y-120049835D01*
X149614398Y-120048835D01*
X149616398Y-120048835D01*
X149619398Y-120047835D01*
X149621398Y-120047835D01*
X149624398Y-120046835D01*
X149979398Y-120046835D01*
X149979398Y-120071835D01*
%TO.C,U4*%
G36*
X160759102Y-120047835D02*
G01*
X160761102Y-120047835D01*
X160764102Y-120048835D01*
X160766102Y-120048835D01*
X160769102Y-120049835D01*
X160771102Y-120050835D01*
X160774102Y-120051835D01*
X160776102Y-120053835D01*
X160778102Y-120054835D01*
X160780102Y-120056835D01*
X160782102Y-120057835D01*
X160790102Y-120065835D01*
X160791102Y-120067835D01*
X160793102Y-120069835D01*
X160794102Y-120071835D01*
X160796102Y-120073835D01*
X160797102Y-120076835D01*
X160798102Y-120078835D01*
X160799102Y-120081835D01*
X160799102Y-120083835D01*
X160800102Y-120086835D01*
X160800102Y-120088835D01*
X160801102Y-120091835D01*
X160801102Y-120951835D01*
X160800102Y-120954835D01*
X160800102Y-120956835D01*
X160799102Y-120959835D01*
X160799102Y-120961835D01*
X160798102Y-120964835D01*
X160797102Y-120966835D01*
X160796102Y-120969835D01*
X160794102Y-120971835D01*
X160793102Y-120973835D01*
X160791102Y-120975835D01*
X160790102Y-120977835D01*
X160782102Y-120985835D01*
X160780102Y-120986835D01*
X160778102Y-120988835D01*
X160776102Y-120989835D01*
X160774102Y-120991835D01*
X160771102Y-120992835D01*
X160769102Y-120993835D01*
X160766102Y-120994835D01*
X160764102Y-120994835D01*
X160761102Y-120995835D01*
X160759102Y-120995835D01*
X160756102Y-120996835D01*
X160446102Y-120996835D01*
X160443102Y-120995835D01*
X160441102Y-120995835D01*
X160438102Y-120994835D01*
X160436102Y-120994835D01*
X160433102Y-120993835D01*
X160431102Y-120992835D01*
X160428102Y-120991835D01*
X160426102Y-120989835D01*
X160424102Y-120988835D01*
X160422102Y-120986835D01*
X160420102Y-120985835D01*
X160412102Y-120977835D01*
X160411102Y-120975835D01*
X160409102Y-120973835D01*
X160408102Y-120971835D01*
X160406102Y-120969835D01*
X160405102Y-120966835D01*
X160404102Y-120964835D01*
X160403102Y-120961835D01*
X160403102Y-120959835D01*
X160402102Y-120956835D01*
X160402102Y-120954835D01*
X160401102Y-120951835D01*
X160401102Y-120091835D01*
X160402102Y-120088835D01*
X160402102Y-120086835D01*
X160403102Y-120083835D01*
X160403102Y-120081835D01*
X160404102Y-120078835D01*
X160405102Y-120076835D01*
X160406102Y-120073835D01*
X160408102Y-120071835D01*
X160409102Y-120069835D01*
X160411102Y-120067835D01*
X160412102Y-120065835D01*
X160420102Y-120057835D01*
X160422102Y-120056835D01*
X160424102Y-120054835D01*
X160426102Y-120053835D01*
X160428102Y-120051835D01*
X160431102Y-120050835D01*
X160433102Y-120049835D01*
X160436102Y-120048835D01*
X160438102Y-120048835D01*
X160441102Y-120047835D01*
X160443102Y-120047835D01*
X160446102Y-120046835D01*
X160756102Y-120046835D01*
X160759102Y-120047835D01*
G37*
X160759102Y-120047835D02*
X160761102Y-120047835D01*
X160764102Y-120048835D01*
X160766102Y-120048835D01*
X160769102Y-120049835D01*
X160771102Y-120050835D01*
X160774102Y-120051835D01*
X160776102Y-120053835D01*
X160778102Y-120054835D01*
X160780102Y-120056835D01*
X160782102Y-120057835D01*
X160790102Y-120065835D01*
X160791102Y-120067835D01*
X160793102Y-120069835D01*
X160794102Y-120071835D01*
X160796102Y-120073835D01*
X160797102Y-120076835D01*
X160798102Y-120078835D01*
X160799102Y-120081835D01*
X160799102Y-120083835D01*
X160800102Y-120086835D01*
X160800102Y-120088835D01*
X160801102Y-120091835D01*
X160801102Y-120951835D01*
X160800102Y-120954835D01*
X160800102Y-120956835D01*
X160799102Y-120959835D01*
X160799102Y-120961835D01*
X160798102Y-120964835D01*
X160797102Y-120966835D01*
X160796102Y-120969835D01*
X160794102Y-120971835D01*
X160793102Y-120973835D01*
X160791102Y-120975835D01*
X160790102Y-120977835D01*
X160782102Y-120985835D01*
X160780102Y-120986835D01*
X160778102Y-120988835D01*
X160776102Y-120989835D01*
X160774102Y-120991835D01*
X160771102Y-120992835D01*
X160769102Y-120993835D01*
X160766102Y-120994835D01*
X160764102Y-120994835D01*
X160761102Y-120995835D01*
X160759102Y-120995835D01*
X160756102Y-120996835D01*
X160446102Y-120996835D01*
X160443102Y-120995835D01*
X160441102Y-120995835D01*
X160438102Y-120994835D01*
X160436102Y-120994835D01*
X160433102Y-120993835D01*
X160431102Y-120992835D01*
X160428102Y-120991835D01*
X160426102Y-120989835D01*
X160424102Y-120988835D01*
X160422102Y-120986835D01*
X160420102Y-120985835D01*
X160412102Y-120977835D01*
X160411102Y-120975835D01*
X160409102Y-120973835D01*
X160408102Y-120971835D01*
X160406102Y-120969835D01*
X160405102Y-120966835D01*
X160404102Y-120964835D01*
X160403102Y-120961835D01*
X160403102Y-120959835D01*
X160402102Y-120956835D01*
X160402102Y-120954835D01*
X160401102Y-120951835D01*
X160401102Y-120091835D01*
X160402102Y-120088835D01*
X160402102Y-120086835D01*
X160403102Y-120083835D01*
X160403102Y-120081835D01*
X160404102Y-120078835D01*
X160405102Y-120076835D01*
X160406102Y-120073835D01*
X160408102Y-120071835D01*
X160409102Y-120069835D01*
X160411102Y-120067835D01*
X160412102Y-120065835D01*
X160420102Y-120057835D01*
X160422102Y-120056835D01*
X160424102Y-120054835D01*
X160426102Y-120053835D01*
X160428102Y-120051835D01*
X160431102Y-120050835D01*
X160433102Y-120049835D01*
X160436102Y-120048835D01*
X160438102Y-120048835D01*
X160441102Y-120047835D01*
X160443102Y-120047835D01*
X160446102Y-120046835D01*
X160756102Y-120046835D01*
X160759102Y-120047835D01*
G36*
X160759102Y-121197835D02*
G01*
X160761102Y-121197835D01*
X160764102Y-121198835D01*
X160766102Y-121198835D01*
X160769102Y-121199835D01*
X160771102Y-121200835D01*
X160774102Y-121201835D01*
X160776102Y-121203835D01*
X160778102Y-121204835D01*
X160780102Y-121206835D01*
X160782102Y-121207835D01*
X160790102Y-121215835D01*
X160791102Y-121217835D01*
X160793102Y-121219835D01*
X160794102Y-121221835D01*
X160796102Y-121223835D01*
X160797102Y-121226835D01*
X160798102Y-121228835D01*
X160799102Y-121231835D01*
X160799102Y-121233835D01*
X160800102Y-121236835D01*
X160800102Y-121238835D01*
X160801102Y-121241835D01*
X160801102Y-122101835D01*
X160800102Y-122104835D01*
X160800102Y-122106835D01*
X160799102Y-122109835D01*
X160799102Y-122111835D01*
X160798102Y-122114835D01*
X160797102Y-122116835D01*
X160796102Y-122119835D01*
X160794102Y-122121835D01*
X160793102Y-122123835D01*
X160791102Y-122125835D01*
X160790102Y-122127835D01*
X160782102Y-122135835D01*
X160780102Y-122136835D01*
X160778102Y-122138835D01*
X160776102Y-122139835D01*
X160774102Y-122141835D01*
X160771102Y-122142835D01*
X160769102Y-122143835D01*
X160766102Y-122144835D01*
X160764102Y-122144835D01*
X160761102Y-122145835D01*
X160759102Y-122145835D01*
X160756102Y-122146835D01*
X160446102Y-122146835D01*
X160443102Y-122145835D01*
X160441102Y-122145835D01*
X160438102Y-122144835D01*
X160436102Y-122144835D01*
X160433102Y-122143835D01*
X160431102Y-122142835D01*
X160428102Y-122141835D01*
X160426102Y-122139835D01*
X160424102Y-122138835D01*
X160422102Y-122136835D01*
X160420102Y-122135835D01*
X160412102Y-122127835D01*
X160411102Y-122125835D01*
X160409102Y-122123835D01*
X160408102Y-122121835D01*
X160406102Y-122119835D01*
X160405102Y-122116835D01*
X160404102Y-122114835D01*
X160403102Y-122111835D01*
X160403102Y-122109835D01*
X160402102Y-122106835D01*
X160402102Y-122104835D01*
X160401102Y-122101835D01*
X160401102Y-121241835D01*
X160402102Y-121238835D01*
X160402102Y-121236835D01*
X160403102Y-121233835D01*
X160403102Y-121231835D01*
X160404102Y-121228835D01*
X160405102Y-121226835D01*
X160406102Y-121223835D01*
X160408102Y-121221835D01*
X160409102Y-121219835D01*
X160411102Y-121217835D01*
X160412102Y-121215835D01*
X160420102Y-121207835D01*
X160422102Y-121206835D01*
X160424102Y-121204835D01*
X160426102Y-121203835D01*
X160428102Y-121201835D01*
X160431102Y-121200835D01*
X160433102Y-121199835D01*
X160436102Y-121198835D01*
X160438102Y-121198835D01*
X160441102Y-121197835D01*
X160443102Y-121197835D01*
X160446102Y-121196835D01*
X160756102Y-121196835D01*
X160759102Y-121197835D01*
G37*
X160759102Y-121197835D02*
X160761102Y-121197835D01*
X160764102Y-121198835D01*
X160766102Y-121198835D01*
X160769102Y-121199835D01*
X160771102Y-121200835D01*
X160774102Y-121201835D01*
X160776102Y-121203835D01*
X160778102Y-121204835D01*
X160780102Y-121206835D01*
X160782102Y-121207835D01*
X160790102Y-121215835D01*
X160791102Y-121217835D01*
X160793102Y-121219835D01*
X160794102Y-121221835D01*
X160796102Y-121223835D01*
X160797102Y-121226835D01*
X160798102Y-121228835D01*
X160799102Y-121231835D01*
X160799102Y-121233835D01*
X160800102Y-121236835D01*
X160800102Y-121238835D01*
X160801102Y-121241835D01*
X160801102Y-122101835D01*
X160800102Y-122104835D01*
X160800102Y-122106835D01*
X160799102Y-122109835D01*
X160799102Y-122111835D01*
X160798102Y-122114835D01*
X160797102Y-122116835D01*
X160796102Y-122119835D01*
X160794102Y-122121835D01*
X160793102Y-122123835D01*
X160791102Y-122125835D01*
X160790102Y-122127835D01*
X160782102Y-122135835D01*
X160780102Y-122136835D01*
X160778102Y-122138835D01*
X160776102Y-122139835D01*
X160774102Y-122141835D01*
X160771102Y-122142835D01*
X160769102Y-122143835D01*
X160766102Y-122144835D01*
X160764102Y-122144835D01*
X160761102Y-122145835D01*
X160759102Y-122145835D01*
X160756102Y-122146835D01*
X160446102Y-122146835D01*
X160443102Y-122145835D01*
X160441102Y-122145835D01*
X160438102Y-122144835D01*
X160436102Y-122144835D01*
X160433102Y-122143835D01*
X160431102Y-122142835D01*
X160428102Y-122141835D01*
X160426102Y-122139835D01*
X160424102Y-122138835D01*
X160422102Y-122136835D01*
X160420102Y-122135835D01*
X160412102Y-122127835D01*
X160411102Y-122125835D01*
X160409102Y-122123835D01*
X160408102Y-122121835D01*
X160406102Y-122119835D01*
X160405102Y-122116835D01*
X160404102Y-122114835D01*
X160403102Y-122111835D01*
X160403102Y-122109835D01*
X160402102Y-122106835D01*
X160402102Y-122104835D01*
X160401102Y-122101835D01*
X160401102Y-121241835D01*
X160402102Y-121238835D01*
X160402102Y-121236835D01*
X160403102Y-121233835D01*
X160403102Y-121231835D01*
X160404102Y-121228835D01*
X160405102Y-121226835D01*
X160406102Y-121223835D01*
X160408102Y-121221835D01*
X160409102Y-121219835D01*
X160411102Y-121217835D01*
X160412102Y-121215835D01*
X160420102Y-121207835D01*
X160422102Y-121206835D01*
X160424102Y-121204835D01*
X160426102Y-121203835D01*
X160428102Y-121201835D01*
X160431102Y-121200835D01*
X160433102Y-121199835D01*
X160436102Y-121198835D01*
X160438102Y-121198835D01*
X160441102Y-121197835D01*
X160443102Y-121197835D01*
X160446102Y-121196835D01*
X160756102Y-121196835D01*
X160759102Y-121197835D01*
G36*
X161270102Y-119697835D02*
G01*
X161273102Y-119697835D01*
X161279102Y-119700835D01*
X161282102Y-119701835D01*
X161288102Y-119704835D01*
X161289102Y-119706835D01*
X161291102Y-119707835D01*
X161295102Y-119711835D01*
X161296102Y-119713835D01*
X161298102Y-119714835D01*
X161301102Y-119720835D01*
X161302102Y-119723835D01*
X161305102Y-119729835D01*
X161305102Y-119732835D01*
X161306102Y-119734835D01*
X161306102Y-120408835D01*
X161305102Y-120410835D01*
X161305102Y-120413835D01*
X161302102Y-120419835D01*
X161301102Y-120422835D01*
X161298102Y-120428835D01*
X161296102Y-120429835D01*
X161295102Y-120431835D01*
X161291102Y-120435835D01*
X161289102Y-120436835D01*
X161288102Y-120438835D01*
X161282102Y-120441835D01*
X161279102Y-120442835D01*
X161273102Y-120445835D01*
X161270102Y-120445835D01*
X161268102Y-120446835D01*
X161101102Y-120446835D01*
X161098102Y-120445835D01*
X161096102Y-120445835D01*
X161093102Y-120444835D01*
X161091102Y-120444835D01*
X161088102Y-120443835D01*
X161086102Y-120442835D01*
X161083102Y-120441835D01*
X161081102Y-120439835D01*
X161079102Y-120438835D01*
X161077102Y-120436835D01*
X161075102Y-120435835D01*
X161067102Y-120427835D01*
X161066102Y-120425835D01*
X161064102Y-120423835D01*
X161063102Y-120421835D01*
X161061102Y-120419835D01*
X161060102Y-120416835D01*
X161059102Y-120414835D01*
X161058102Y-120411835D01*
X161058102Y-120409835D01*
X161057102Y-120406835D01*
X161057102Y-120404835D01*
X161056102Y-120401835D01*
X161056102Y-119741835D01*
X161057102Y-119738835D01*
X161057102Y-119736835D01*
X161058102Y-119733835D01*
X161058102Y-119731835D01*
X161059102Y-119728835D01*
X161060102Y-119726835D01*
X161061102Y-119723835D01*
X161063102Y-119721835D01*
X161064102Y-119719835D01*
X161066102Y-119717835D01*
X161067102Y-119715835D01*
X161075102Y-119707835D01*
X161077102Y-119706835D01*
X161079102Y-119704835D01*
X161081102Y-119703835D01*
X161083102Y-119701835D01*
X161086102Y-119700835D01*
X161088102Y-119699835D01*
X161091102Y-119698835D01*
X161093102Y-119698835D01*
X161096102Y-119697835D01*
X161098102Y-119697835D01*
X161101102Y-119696835D01*
X161268102Y-119696835D01*
X161270102Y-119697835D01*
G37*
X161270102Y-119697835D02*
X161273102Y-119697835D01*
X161279102Y-119700835D01*
X161282102Y-119701835D01*
X161288102Y-119704835D01*
X161289102Y-119706835D01*
X161291102Y-119707835D01*
X161295102Y-119711835D01*
X161296102Y-119713835D01*
X161298102Y-119714835D01*
X161301102Y-119720835D01*
X161302102Y-119723835D01*
X161305102Y-119729835D01*
X161305102Y-119732835D01*
X161306102Y-119734835D01*
X161306102Y-120408835D01*
X161305102Y-120410835D01*
X161305102Y-120413835D01*
X161302102Y-120419835D01*
X161301102Y-120422835D01*
X161298102Y-120428835D01*
X161296102Y-120429835D01*
X161295102Y-120431835D01*
X161291102Y-120435835D01*
X161289102Y-120436835D01*
X161288102Y-120438835D01*
X161282102Y-120441835D01*
X161279102Y-120442835D01*
X161273102Y-120445835D01*
X161270102Y-120445835D01*
X161268102Y-120446835D01*
X161101102Y-120446835D01*
X161098102Y-120445835D01*
X161096102Y-120445835D01*
X161093102Y-120444835D01*
X161091102Y-120444835D01*
X161088102Y-120443835D01*
X161086102Y-120442835D01*
X161083102Y-120441835D01*
X161081102Y-120439835D01*
X161079102Y-120438835D01*
X161077102Y-120436835D01*
X161075102Y-120435835D01*
X161067102Y-120427835D01*
X161066102Y-120425835D01*
X161064102Y-120423835D01*
X161063102Y-120421835D01*
X161061102Y-120419835D01*
X161060102Y-120416835D01*
X161059102Y-120414835D01*
X161058102Y-120411835D01*
X161058102Y-120409835D01*
X161057102Y-120406835D01*
X161057102Y-120404835D01*
X161056102Y-120401835D01*
X161056102Y-119741835D01*
X161057102Y-119738835D01*
X161057102Y-119736835D01*
X161058102Y-119733835D01*
X161058102Y-119731835D01*
X161059102Y-119728835D01*
X161060102Y-119726835D01*
X161061102Y-119723835D01*
X161063102Y-119721835D01*
X161064102Y-119719835D01*
X161066102Y-119717835D01*
X161067102Y-119715835D01*
X161075102Y-119707835D01*
X161077102Y-119706835D01*
X161079102Y-119704835D01*
X161081102Y-119703835D01*
X161083102Y-119701835D01*
X161086102Y-119700835D01*
X161088102Y-119699835D01*
X161091102Y-119698835D01*
X161093102Y-119698835D01*
X161096102Y-119697835D01*
X161098102Y-119697835D01*
X161101102Y-119696835D01*
X161268102Y-119696835D01*
X161270102Y-119697835D01*
G36*
X161270102Y-118747835D02*
G01*
X161273102Y-118747835D01*
X161279102Y-118750835D01*
X161282102Y-118751835D01*
X161288102Y-118754835D01*
X161289102Y-118756835D01*
X161291102Y-118757835D01*
X161295102Y-118761835D01*
X161296102Y-118763835D01*
X161298102Y-118764835D01*
X161301102Y-118770835D01*
X161302102Y-118773835D01*
X161305102Y-118779835D01*
X161305102Y-118782835D01*
X161306102Y-118784835D01*
X161306102Y-119458835D01*
X161305102Y-119460835D01*
X161305102Y-119463835D01*
X161302102Y-119469835D01*
X161301102Y-119472835D01*
X161298102Y-119478835D01*
X161296102Y-119479835D01*
X161295102Y-119481835D01*
X161291102Y-119485835D01*
X161289102Y-119486835D01*
X161288102Y-119488835D01*
X161282102Y-119491835D01*
X161279102Y-119492835D01*
X161273102Y-119495835D01*
X161270102Y-119495835D01*
X161268102Y-119496835D01*
X161101102Y-119496835D01*
X161098102Y-119495835D01*
X161096102Y-119495835D01*
X161093102Y-119494835D01*
X161091102Y-119494835D01*
X161088102Y-119493835D01*
X161086102Y-119492835D01*
X161083102Y-119491835D01*
X161081102Y-119489835D01*
X161079102Y-119488835D01*
X161077102Y-119486835D01*
X161075102Y-119485835D01*
X161067102Y-119477835D01*
X161066102Y-119475835D01*
X161064102Y-119473835D01*
X161063102Y-119471835D01*
X161061102Y-119469835D01*
X161060102Y-119466835D01*
X161059102Y-119464835D01*
X161058102Y-119461835D01*
X161058102Y-119459835D01*
X161057102Y-119456835D01*
X161057102Y-119454835D01*
X161056102Y-119451835D01*
X161056102Y-118791835D01*
X161057102Y-118788835D01*
X161057102Y-118786835D01*
X161058102Y-118783835D01*
X161058102Y-118781835D01*
X161059102Y-118778835D01*
X161060102Y-118776835D01*
X161061102Y-118773835D01*
X161063102Y-118771835D01*
X161064102Y-118769835D01*
X161066102Y-118767835D01*
X161067102Y-118765835D01*
X161075102Y-118757835D01*
X161077102Y-118756835D01*
X161079102Y-118754835D01*
X161081102Y-118753835D01*
X161083102Y-118751835D01*
X161086102Y-118750835D01*
X161088102Y-118749835D01*
X161091102Y-118748835D01*
X161093102Y-118748835D01*
X161096102Y-118747835D01*
X161098102Y-118747835D01*
X161101102Y-118746835D01*
X161268102Y-118746835D01*
X161270102Y-118747835D01*
G37*
X161270102Y-118747835D02*
X161273102Y-118747835D01*
X161279102Y-118750835D01*
X161282102Y-118751835D01*
X161288102Y-118754835D01*
X161289102Y-118756835D01*
X161291102Y-118757835D01*
X161295102Y-118761835D01*
X161296102Y-118763835D01*
X161298102Y-118764835D01*
X161301102Y-118770835D01*
X161302102Y-118773835D01*
X161305102Y-118779835D01*
X161305102Y-118782835D01*
X161306102Y-118784835D01*
X161306102Y-119458835D01*
X161305102Y-119460835D01*
X161305102Y-119463835D01*
X161302102Y-119469835D01*
X161301102Y-119472835D01*
X161298102Y-119478835D01*
X161296102Y-119479835D01*
X161295102Y-119481835D01*
X161291102Y-119485835D01*
X161289102Y-119486835D01*
X161288102Y-119488835D01*
X161282102Y-119491835D01*
X161279102Y-119492835D01*
X161273102Y-119495835D01*
X161270102Y-119495835D01*
X161268102Y-119496835D01*
X161101102Y-119496835D01*
X161098102Y-119495835D01*
X161096102Y-119495835D01*
X161093102Y-119494835D01*
X161091102Y-119494835D01*
X161088102Y-119493835D01*
X161086102Y-119492835D01*
X161083102Y-119491835D01*
X161081102Y-119489835D01*
X161079102Y-119488835D01*
X161077102Y-119486835D01*
X161075102Y-119485835D01*
X161067102Y-119477835D01*
X161066102Y-119475835D01*
X161064102Y-119473835D01*
X161063102Y-119471835D01*
X161061102Y-119469835D01*
X161060102Y-119466835D01*
X161059102Y-119464835D01*
X161058102Y-119461835D01*
X161058102Y-119459835D01*
X161057102Y-119456835D01*
X161057102Y-119454835D01*
X161056102Y-119451835D01*
X161056102Y-118791835D01*
X161057102Y-118788835D01*
X161057102Y-118786835D01*
X161058102Y-118783835D01*
X161058102Y-118781835D01*
X161059102Y-118778835D01*
X161060102Y-118776835D01*
X161061102Y-118773835D01*
X161063102Y-118771835D01*
X161064102Y-118769835D01*
X161066102Y-118767835D01*
X161067102Y-118765835D01*
X161075102Y-118757835D01*
X161077102Y-118756835D01*
X161079102Y-118754835D01*
X161081102Y-118753835D01*
X161083102Y-118751835D01*
X161086102Y-118750835D01*
X161088102Y-118749835D01*
X161091102Y-118748835D01*
X161093102Y-118748835D01*
X161096102Y-118747835D01*
X161098102Y-118747835D01*
X161101102Y-118746835D01*
X161268102Y-118746835D01*
X161270102Y-118747835D01*
G36*
X161961102Y-120071835D02*
G01*
X162471102Y-120071835D01*
X162486102Y-120076835D01*
X162489102Y-120078835D01*
X162492102Y-120079835D01*
X162498102Y-120083835D01*
X162505102Y-120090835D01*
X162507102Y-120093835D01*
X162509102Y-120095835D01*
X162515102Y-120104835D01*
X162516102Y-120107835D01*
X162518102Y-120110835D01*
X162521102Y-120119835D01*
X162521102Y-120122835D01*
X162522102Y-120126835D01*
X162522102Y-120142835D01*
X162521102Y-120146835D01*
X162521102Y-120246835D01*
X162522102Y-120250835D01*
X162522102Y-120266835D01*
X162521102Y-120270835D01*
X162521102Y-120273835D01*
X162518102Y-120282835D01*
X162516102Y-120285835D01*
X162515102Y-120288835D01*
X162509102Y-120297835D01*
X162507102Y-120299835D01*
X162505102Y-120302835D01*
X162498102Y-120309835D01*
X162492102Y-120313835D01*
X162489102Y-120314835D01*
X162486102Y-120316835D01*
X162471102Y-120321835D01*
X161961102Y-120321835D01*
X161961102Y-120571835D01*
X162476102Y-120571835D01*
X162479102Y-120572835D01*
X162481102Y-120572835D01*
X162484102Y-120573835D01*
X162486102Y-120573835D01*
X162489102Y-120574835D01*
X162491102Y-120575835D01*
X162494102Y-120576835D01*
X162496102Y-120578835D01*
X162498102Y-120579835D01*
X162500102Y-120581835D01*
X162502102Y-120582835D01*
X162510102Y-120590835D01*
X162511102Y-120592835D01*
X162513102Y-120594835D01*
X162514102Y-120596835D01*
X162516102Y-120598835D01*
X162517102Y-120601835D01*
X162518102Y-120603835D01*
X162519102Y-120606835D01*
X162519102Y-120608835D01*
X162520102Y-120611835D01*
X162520102Y-120613835D01*
X162521102Y-120616835D01*
X162521102Y-120776835D01*
X162520102Y-120779835D01*
X162520102Y-120781835D01*
X162519102Y-120784835D01*
X162519102Y-120786835D01*
X162518102Y-120789835D01*
X162517102Y-120791835D01*
X162516102Y-120794835D01*
X162514102Y-120796835D01*
X162513102Y-120798835D01*
X162511102Y-120800835D01*
X162510102Y-120802835D01*
X162502102Y-120810835D01*
X162500102Y-120811835D01*
X162498102Y-120813835D01*
X162496102Y-120814835D01*
X162494102Y-120816835D01*
X162491102Y-120817835D01*
X162489102Y-120818835D01*
X162486102Y-120819835D01*
X162484102Y-120819835D01*
X162481102Y-120820835D01*
X162479102Y-120820835D01*
X162476102Y-120821835D01*
X161961102Y-120821835D01*
X161961102Y-121071835D01*
X162476102Y-121071835D01*
X162479102Y-121072835D01*
X162481102Y-121072835D01*
X162484102Y-121073835D01*
X162486102Y-121073835D01*
X162489102Y-121074835D01*
X162491102Y-121075835D01*
X162494102Y-121076835D01*
X162496102Y-121078835D01*
X162498102Y-121079835D01*
X162500102Y-121081835D01*
X162502102Y-121082835D01*
X162510102Y-121090835D01*
X162511102Y-121092835D01*
X162513102Y-121094835D01*
X162514102Y-121096835D01*
X162516102Y-121098835D01*
X162517102Y-121101835D01*
X162518102Y-121103835D01*
X162519102Y-121106835D01*
X162519102Y-121108835D01*
X162520102Y-121111835D01*
X162520102Y-121113835D01*
X162521102Y-121116835D01*
X162521102Y-121276835D01*
X162520102Y-121279835D01*
X162520102Y-121281835D01*
X162519102Y-121284835D01*
X162519102Y-121286835D01*
X162518102Y-121289835D01*
X162517102Y-121291835D01*
X162516102Y-121294835D01*
X162514102Y-121296835D01*
X162513102Y-121298835D01*
X162511102Y-121300835D01*
X162510102Y-121302835D01*
X162502102Y-121310835D01*
X162500102Y-121311835D01*
X162498102Y-121313835D01*
X162496102Y-121314835D01*
X162494102Y-121316835D01*
X162491102Y-121317835D01*
X162489102Y-121318835D01*
X162486102Y-121319835D01*
X162484102Y-121319835D01*
X162481102Y-121320835D01*
X162479102Y-121320835D01*
X162476102Y-121321835D01*
X161961102Y-121321835D01*
X161961102Y-122101835D01*
X161960102Y-122104835D01*
X161960102Y-122106835D01*
X161959102Y-122109835D01*
X161959102Y-122111835D01*
X161958102Y-122114835D01*
X161957102Y-122116835D01*
X161956102Y-122119835D01*
X161954102Y-122121835D01*
X161953102Y-122123835D01*
X161951102Y-122125835D01*
X161950102Y-122127835D01*
X161942102Y-122135835D01*
X161940102Y-122136835D01*
X161938102Y-122138835D01*
X161936102Y-122139835D01*
X161934102Y-122141835D01*
X161931102Y-122142835D01*
X161929102Y-122143835D01*
X161926102Y-122144835D01*
X161924102Y-122144835D01*
X161921102Y-122145835D01*
X161919102Y-122145835D01*
X161916102Y-122146835D01*
X161606102Y-122146835D01*
X161603102Y-122145835D01*
X161601102Y-122145835D01*
X161598102Y-122144835D01*
X161596102Y-122144835D01*
X161593102Y-122143835D01*
X161591102Y-122142835D01*
X161588102Y-122141835D01*
X161586102Y-122139835D01*
X161584102Y-122138835D01*
X161582102Y-122136835D01*
X161580102Y-122135835D01*
X161572102Y-122127835D01*
X161571102Y-122125835D01*
X161569102Y-122123835D01*
X161568102Y-122121835D01*
X161566102Y-122119835D01*
X161565102Y-122116835D01*
X161564102Y-122114835D01*
X161563102Y-122111835D01*
X161563102Y-122109835D01*
X161562102Y-122106835D01*
X161562102Y-122104835D01*
X161561102Y-122101835D01*
X161561102Y-120091835D01*
X161562102Y-120088835D01*
X161562102Y-120086835D01*
X161563102Y-120083835D01*
X161563102Y-120081835D01*
X161564102Y-120078835D01*
X161565102Y-120076835D01*
X161566102Y-120073835D01*
X161568102Y-120071835D01*
X161569102Y-120069835D01*
X161571102Y-120067835D01*
X161572102Y-120065835D01*
X161580102Y-120057835D01*
X161582102Y-120056835D01*
X161584102Y-120054835D01*
X161586102Y-120053835D01*
X161588102Y-120051835D01*
X161591102Y-120050835D01*
X161593102Y-120049835D01*
X161596102Y-120048835D01*
X161598102Y-120048835D01*
X161601102Y-120047835D01*
X161603102Y-120047835D01*
X161606102Y-120046835D01*
X161961102Y-120046835D01*
X161961102Y-120071835D01*
G37*
X161961102Y-120071835D02*
X162471102Y-120071835D01*
X162486102Y-120076835D01*
X162489102Y-120078835D01*
X162492102Y-120079835D01*
X162498102Y-120083835D01*
X162505102Y-120090835D01*
X162507102Y-120093835D01*
X162509102Y-120095835D01*
X162515102Y-120104835D01*
X162516102Y-120107835D01*
X162518102Y-120110835D01*
X162521102Y-120119835D01*
X162521102Y-120122835D01*
X162522102Y-120126835D01*
X162522102Y-120142835D01*
X162521102Y-120146835D01*
X162521102Y-120246835D01*
X162522102Y-120250835D01*
X162522102Y-120266835D01*
X162521102Y-120270835D01*
X162521102Y-120273835D01*
X162518102Y-120282835D01*
X162516102Y-120285835D01*
X162515102Y-120288835D01*
X162509102Y-120297835D01*
X162507102Y-120299835D01*
X162505102Y-120302835D01*
X162498102Y-120309835D01*
X162492102Y-120313835D01*
X162489102Y-120314835D01*
X162486102Y-120316835D01*
X162471102Y-120321835D01*
X161961102Y-120321835D01*
X161961102Y-120571835D01*
X162476102Y-120571835D01*
X162479102Y-120572835D01*
X162481102Y-120572835D01*
X162484102Y-120573835D01*
X162486102Y-120573835D01*
X162489102Y-120574835D01*
X162491102Y-120575835D01*
X162494102Y-120576835D01*
X162496102Y-120578835D01*
X162498102Y-120579835D01*
X162500102Y-120581835D01*
X162502102Y-120582835D01*
X162510102Y-120590835D01*
X162511102Y-120592835D01*
X162513102Y-120594835D01*
X162514102Y-120596835D01*
X162516102Y-120598835D01*
X162517102Y-120601835D01*
X162518102Y-120603835D01*
X162519102Y-120606835D01*
X162519102Y-120608835D01*
X162520102Y-120611835D01*
X162520102Y-120613835D01*
X162521102Y-120616835D01*
X162521102Y-120776835D01*
X162520102Y-120779835D01*
X162520102Y-120781835D01*
X162519102Y-120784835D01*
X162519102Y-120786835D01*
X162518102Y-120789835D01*
X162517102Y-120791835D01*
X162516102Y-120794835D01*
X162514102Y-120796835D01*
X162513102Y-120798835D01*
X162511102Y-120800835D01*
X162510102Y-120802835D01*
X162502102Y-120810835D01*
X162500102Y-120811835D01*
X162498102Y-120813835D01*
X162496102Y-120814835D01*
X162494102Y-120816835D01*
X162491102Y-120817835D01*
X162489102Y-120818835D01*
X162486102Y-120819835D01*
X162484102Y-120819835D01*
X162481102Y-120820835D01*
X162479102Y-120820835D01*
X162476102Y-120821835D01*
X161961102Y-120821835D01*
X161961102Y-121071835D01*
X162476102Y-121071835D01*
X162479102Y-121072835D01*
X162481102Y-121072835D01*
X162484102Y-121073835D01*
X162486102Y-121073835D01*
X162489102Y-121074835D01*
X162491102Y-121075835D01*
X162494102Y-121076835D01*
X162496102Y-121078835D01*
X162498102Y-121079835D01*
X162500102Y-121081835D01*
X162502102Y-121082835D01*
X162510102Y-121090835D01*
X162511102Y-121092835D01*
X162513102Y-121094835D01*
X162514102Y-121096835D01*
X162516102Y-121098835D01*
X162517102Y-121101835D01*
X162518102Y-121103835D01*
X162519102Y-121106835D01*
X162519102Y-121108835D01*
X162520102Y-121111835D01*
X162520102Y-121113835D01*
X162521102Y-121116835D01*
X162521102Y-121276835D01*
X162520102Y-121279835D01*
X162520102Y-121281835D01*
X162519102Y-121284835D01*
X162519102Y-121286835D01*
X162518102Y-121289835D01*
X162517102Y-121291835D01*
X162516102Y-121294835D01*
X162514102Y-121296835D01*
X162513102Y-121298835D01*
X162511102Y-121300835D01*
X162510102Y-121302835D01*
X162502102Y-121310835D01*
X162500102Y-121311835D01*
X162498102Y-121313835D01*
X162496102Y-121314835D01*
X162494102Y-121316835D01*
X162491102Y-121317835D01*
X162489102Y-121318835D01*
X162486102Y-121319835D01*
X162484102Y-121319835D01*
X162481102Y-121320835D01*
X162479102Y-121320835D01*
X162476102Y-121321835D01*
X161961102Y-121321835D01*
X161961102Y-122101835D01*
X161960102Y-122104835D01*
X161960102Y-122106835D01*
X161959102Y-122109835D01*
X161959102Y-122111835D01*
X161958102Y-122114835D01*
X161957102Y-122116835D01*
X161956102Y-122119835D01*
X161954102Y-122121835D01*
X161953102Y-122123835D01*
X161951102Y-122125835D01*
X161950102Y-122127835D01*
X161942102Y-122135835D01*
X161940102Y-122136835D01*
X161938102Y-122138835D01*
X161936102Y-122139835D01*
X161934102Y-122141835D01*
X161931102Y-122142835D01*
X161929102Y-122143835D01*
X161926102Y-122144835D01*
X161924102Y-122144835D01*
X161921102Y-122145835D01*
X161919102Y-122145835D01*
X161916102Y-122146835D01*
X161606102Y-122146835D01*
X161603102Y-122145835D01*
X161601102Y-122145835D01*
X161598102Y-122144835D01*
X161596102Y-122144835D01*
X161593102Y-122143835D01*
X161591102Y-122142835D01*
X161588102Y-122141835D01*
X161586102Y-122139835D01*
X161584102Y-122138835D01*
X161582102Y-122136835D01*
X161580102Y-122135835D01*
X161572102Y-122127835D01*
X161571102Y-122125835D01*
X161569102Y-122123835D01*
X161568102Y-122121835D01*
X161566102Y-122119835D01*
X161565102Y-122116835D01*
X161564102Y-122114835D01*
X161563102Y-122111835D01*
X161563102Y-122109835D01*
X161562102Y-122106835D01*
X161562102Y-122104835D01*
X161561102Y-122101835D01*
X161561102Y-120091835D01*
X161562102Y-120088835D01*
X161562102Y-120086835D01*
X161563102Y-120083835D01*
X161563102Y-120081835D01*
X161564102Y-120078835D01*
X161565102Y-120076835D01*
X161566102Y-120073835D01*
X161568102Y-120071835D01*
X161569102Y-120069835D01*
X161571102Y-120067835D01*
X161572102Y-120065835D01*
X161580102Y-120057835D01*
X161582102Y-120056835D01*
X161584102Y-120054835D01*
X161586102Y-120053835D01*
X161588102Y-120051835D01*
X161591102Y-120050835D01*
X161593102Y-120049835D01*
X161596102Y-120048835D01*
X161598102Y-120048835D01*
X161601102Y-120047835D01*
X161603102Y-120047835D01*
X161606102Y-120046835D01*
X161961102Y-120046835D01*
X161961102Y-120071835D01*
%TD*%
D11*
%TO.C,U6*%
X139639000Y-100912405D03*
X140589000Y-100912405D03*
X141539000Y-100912405D03*
X141539000Y-103187405D03*
X139639000Y-103187405D03*
%TD*%
D12*
%TO.C,C9*%
X149873000Y-123317000D03*
X148323000Y-123317000D03*
%TD*%
D13*
%TO.C,R10*%
X145357898Y-120700000D03*
X143707898Y-120700000D03*
%TD*%
D12*
%TO.C,C41*%
X157239000Y-80899000D03*
X155689000Y-80899000D03*
%TD*%
D13*
%TO.C,R11*%
X134435898Y-120654535D03*
X132785898Y-120654535D03*
%TD*%
D12*
%TO.C,C12*%
X138697000Y-123317000D03*
X137147000Y-123317000D03*
%TD*%
D14*
%TO.C,C13*%
X162039000Y-126492000D03*
X163589000Y-126492000D03*
%TD*%
D15*
%TO.C,R7*%
X156724898Y-115511535D03*
X156724898Y-117161535D03*
%TD*%
D14*
%TO.C,C5*%
X155689000Y-87884000D03*
X157239000Y-87884000D03*
%TD*%
D12*
%TO.C,C26*%
X134375000Y-119000000D03*
X132825000Y-119000000D03*
%TD*%
%TO.C,C25*%
X145307898Y-119000000D03*
X143757898Y-119000000D03*
%TD*%
D14*
%TO.C,C15*%
X162039000Y-123317000D03*
X163589000Y-123317000D03*
%TD*%
D16*
%TO.C,C16*%
X152152898Y-119240000D03*
X152152898Y-120790000D03*
%TD*%
%TO.C,C29*%
X137922000Y-99301000D03*
X137922000Y-100851000D03*
%TD*%
D14*
%TO.C,C20*%
X139814000Y-108077000D03*
X141364000Y-108077000D03*
%TD*%
D17*
%TO.C,C3*%
X138811000Y-91834000D03*
X138811000Y-90284000D03*
%TD*%
D14*
%TO.C,C2*%
X155689000Y-90297000D03*
X157239000Y-90297000D03*
%TD*%
D12*
%TO.C,C6*%
X157239000Y-79248000D03*
X155689000Y-79248000D03*
%TD*%
D16*
%TO.C,C17*%
X140722898Y-119371535D03*
X140722898Y-120921535D03*
%TD*%
D15*
%TO.C,R6*%
X132848898Y-115465402D03*
X132848898Y-117115402D03*
%TD*%
D18*
%TO.C,Rsense1*%
X150250000Y-105962500D03*
X150250000Y-103037500D03*
%TD*%
D19*
%TO.C,L1*%
X149358898Y-112054535D03*
X149358898Y-116554535D03*
%TD*%
D20*
%TO.C,U7*%
X155183945Y-104429847D03*
X155183945Y-105079845D03*
X155183945Y-105729845D03*
X152936045Y-105729845D03*
X152936045Y-104429847D03*
%TD*%
D12*
%TO.C,C10*%
X138697000Y-126619000D03*
X137147000Y-126619000D03*
%TD*%
D15*
%TO.C,R8*%
X155200898Y-115511535D03*
X155200898Y-117161535D03*
%TD*%
D13*
%TO.C,R22*%
X157289000Y-86233000D03*
X155639000Y-86233000D03*
%TD*%
D14*
%TO.C,C23*%
X139814000Y-109755535D03*
X141364000Y-109755535D03*
%TD*%
D21*
%TO.C,R2*%
X156718000Y-126555000D03*
X156718000Y-124905000D03*
%TD*%
D22*
%TO.C,U3*%
X136253401Y-121196835D03*
X136253401Y-120696835D03*
X136253401Y-120196835D03*
X136253401Y-119696835D03*
D23*
X136723401Y-119046835D03*
X138523401Y-119046835D03*
X136723401Y-121846835D03*
%TD*%
D24*
%TO.C,R14*%
X136335000Y-105410000D03*
X137985000Y-105410000D03*
%TD*%
D15*
%TO.C,R5*%
X134372898Y-115465402D03*
X134372898Y-117115402D03*
%TD*%
D12*
%TO.C,C22*%
X146418000Y-108071465D03*
X147968000Y-108071465D03*
%TD*%
D13*
%TO.C,R12*%
X156787898Y-120654535D03*
X155137898Y-120654535D03*
%TD*%
D14*
%TO.C,C24*%
X161277000Y-109904000D03*
X162827000Y-109904000D03*
%TD*%
D18*
%TO.C,Rsense2*%
X147456000Y-105962500D03*
X147456000Y-103037500D03*
%TD*%
D25*
%TO.C,U11*%
X152614749Y-82251495D03*
X152614749Y-82751495D03*
X152614749Y-83251495D03*
X152614749Y-83751495D03*
X152614749Y-84251495D03*
X152614749Y-84751495D03*
X152614749Y-85251495D03*
X152614749Y-85751495D03*
X152614749Y-86251495D03*
X152614749Y-86751495D03*
X152614749Y-87251495D03*
X152614749Y-87751495D03*
X152614749Y-88251495D03*
X152614749Y-88751495D03*
X152614749Y-89251495D03*
X152614749Y-89751495D03*
D26*
X150689749Y-91676495D03*
X150189749Y-91676495D03*
X149689749Y-91676495D03*
X149189749Y-91676495D03*
X148689749Y-91676495D03*
X148189749Y-91676495D03*
X147689749Y-91676495D03*
X147189749Y-91676495D03*
X146689749Y-91676495D03*
X146189749Y-91676495D03*
X145689749Y-91676495D03*
X145189749Y-91676495D03*
X144689749Y-91676495D03*
X144189749Y-91676495D03*
X143689749Y-91676495D03*
X143189749Y-91676495D03*
D25*
X141264749Y-89751495D03*
X141264749Y-89251495D03*
X141264749Y-88751495D03*
X141264749Y-88251495D03*
X141264749Y-87751495D03*
X141264749Y-87251495D03*
X141264749Y-86751495D03*
X141264749Y-86251495D03*
X141264749Y-85751495D03*
X141264749Y-85251495D03*
X141264749Y-84751495D03*
X141264749Y-84251495D03*
X141264749Y-83751495D03*
X141264749Y-83251495D03*
X141264749Y-82751495D03*
X141264749Y-82251495D03*
D26*
X143189749Y-80326495D03*
X143689749Y-80326495D03*
X144189749Y-80326495D03*
X144689749Y-80326495D03*
X145189749Y-80326495D03*
X145689749Y-80326495D03*
X146189749Y-80326495D03*
X146689749Y-80326495D03*
X147189749Y-80326495D03*
X147689749Y-80326495D03*
X148189749Y-80326495D03*
X148689749Y-80326495D03*
X149189749Y-80326495D03*
X149689749Y-80326495D03*
X150189749Y-80326495D03*
X150689749Y-80326495D03*
%TD*%
D19*
%TO.C,L2*%
X138182898Y-116554535D03*
X138182898Y-112054535D03*
%TD*%
D15*
%TO.C,R3*%
X145294898Y-117125000D03*
X145294898Y-115475000D03*
%TD*%
D16*
%TO.C,C18*%
X163836898Y-119371535D03*
X163836898Y-120921535D03*
%TD*%
D21*
%TO.C,R1*%
X149733000Y-77914000D03*
X149733000Y-76264000D03*
%TD*%
D14*
%TO.C,C1*%
X155689000Y-91948000D03*
X157239000Y-91948000D03*
%TD*%
D12*
%TO.C,C33*%
X141364000Y-98700000D03*
X139814000Y-98700000D03*
%TD*%
%TO.C,C7*%
X149873000Y-126619000D03*
X148323000Y-126619000D03*
%TD*%
D16*
%TO.C,C42*%
X138856756Y-82305500D03*
X138856756Y-83855500D03*
%TD*%
D12*
%TO.C,C8*%
X149873000Y-124968000D03*
X148323000Y-124968000D03*
%TD*%
D22*
%TO.C,U2*%
X147429398Y-121196835D03*
X147429398Y-120696835D03*
X147429398Y-120196835D03*
X147429398Y-119696835D03*
D23*
X147899398Y-119046835D03*
X149699398Y-119046835D03*
X147899398Y-121846835D03*
%TD*%
D12*
%TO.C,C27*%
X156737898Y-119000000D03*
X155187898Y-119000000D03*
%TD*%
D14*
%TO.C,C14*%
X162039000Y-124968000D03*
X163589000Y-124968000D03*
%TD*%
D13*
%TO.C,R9*%
X156781000Y-122301000D03*
X155131000Y-122301000D03*
%TD*%
D16*
%TO.C,C28*%
X156750000Y-104233000D03*
X156750000Y-105783000D03*
%TD*%
D12*
%TO.C,C19*%
X146418000Y-109750000D03*
X147968000Y-109750000D03*
%TD*%
D27*
%TO.C,U1*%
X148689749Y-83564000D03*
X148189749Y-83564000D03*
X147689749Y-83564000D03*
X147189749Y-83564000D03*
X146689749Y-83564000D03*
X146189749Y-83564000D03*
X145689749Y-83564000D03*
X145189749Y-83564000D03*
D28*
X144502249Y-84251500D03*
X144502249Y-84751500D03*
X144502249Y-85251500D03*
X144502249Y-85751500D03*
X144502249Y-86251500D03*
X144502249Y-86751500D03*
X144502249Y-87251500D03*
X144502249Y-87751500D03*
D27*
X145189749Y-88439000D03*
X145689749Y-88439000D03*
X146189749Y-88439000D03*
X146689749Y-88439000D03*
X147189749Y-88439000D03*
X147689749Y-88439000D03*
X148189749Y-88439000D03*
X148689749Y-88439000D03*
D28*
X149377249Y-87751500D03*
X149377249Y-87251500D03*
X149377249Y-86751500D03*
X149377249Y-86251500D03*
X149377249Y-85751500D03*
X149377249Y-85251500D03*
X149377249Y-84751500D03*
X149377249Y-84251500D03*
D29*
X145789749Y-84851500D03*
X146939749Y-86001500D03*
X148089749Y-87151500D03*
X145789749Y-87151500D03*
X146939749Y-84851500D03*
X148089749Y-86001500D03*
X146939749Y-87151500D03*
X145789749Y-86001500D03*
X148089749Y-84851500D03*
%TD*%
D15*
%TO.C,R4*%
X143770898Y-117125000D03*
X143770898Y-115475000D03*
%TD*%
D17*
%TO.C,C4*%
X151384000Y-77851000D03*
X151384000Y-76301000D03*
%TD*%
D30*
%TO.C,L3*%
X161296885Y-116324536D03*
X161296885Y-112284536D03*
%TD*%
D12*
%TO.C,C11*%
X138697000Y-124968000D03*
X137147000Y-124968000D03*
%TD*%
D14*
%TO.C,C21*%
X161277000Y-108204000D03*
X162827000Y-108204000D03*
%TD*%
D15*
%TO.C,R13*%
X137922000Y-102299000D03*
X137922000Y-103949000D03*
%TD*%
D31*
%TO.C,Y1*%
X156977002Y-82948200D03*
X156977002Y-84248200D03*
X155977001Y-84248200D03*
X155977001Y-82948200D03*
%TD*%
D22*
%TO.C,U4*%
X159411102Y-121196835D03*
X159411102Y-120696835D03*
X159411102Y-120196835D03*
X159411102Y-119696835D03*
D23*
X159881102Y-119046835D03*
X161681102Y-119046835D03*
X159881102Y-121846835D03*
%TD*%
D12*
%TO.C,C34*%
X141364000Y-105400000D03*
X139814000Y-105400000D03*
%TD*%
M02*
