%TF.GenerationSoftware,KiCad,Pcbnew,(6.0.6)*%
%TF.CreationDate,2022-07-08T14:59:32+02:00*%
%TF.ProjectId,XCOMMS_Interface,58434f4d-4d53-45f4-996e-746572666163,rev?*%
%TF.SameCoordinates,Original*%
%TF.FileFunction,Legend,Top*%
%TF.FilePolarity,Positive*%
%FSLAX46Y46*%
G04 Gerber Fmt 4.6, Leading zero omitted, Abs format (unit mm)*
G04 Created by KiCad (PCBNEW (6.0.6)) date 2022-07-08 14:59:32*
%MOMM*%
%LPD*%
G01*
G04 APERTURE LIST*
%ADD10C,0.200000*%
%ADD11C,0.150000*%
%ADD12C,0.127000*%
%ADD13C,0.025400*%
%ADD14C,0.120000*%
G04 APERTURE END LIST*
D10*
X138771428Y-127285714D02*
X139009523Y-127952380D01*
X139247619Y-127285714D01*
X139580952Y-127047619D02*
X139628571Y-127000000D01*
X139723809Y-126952380D01*
X139961904Y-126952380D01*
X140057142Y-127000000D01*
X140104761Y-127047619D01*
X140152380Y-127142857D01*
X140152380Y-127238095D01*
X140104761Y-127380952D01*
X139533333Y-127952380D01*
X140152380Y-127952380D01*
X140580952Y-127857142D02*
X140628571Y-127904761D01*
X140580952Y-127952380D01*
X140533333Y-127904761D01*
X140580952Y-127857142D01*
X140580952Y-127952380D01*
X141009523Y-127047619D02*
X141057142Y-127000000D01*
X141152380Y-126952380D01*
X141390476Y-126952380D01*
X141485714Y-127000000D01*
X141533333Y-127047619D01*
X141580952Y-127142857D01*
X141580952Y-127238095D01*
X141533333Y-127380952D01*
X140961904Y-127952380D01*
X141580952Y-127952380D01*
D11*
X164452380Y-103782666D02*
X165166666Y-103782666D01*
X165309523Y-103830285D01*
X165404761Y-103925523D01*
X165452380Y-104068380D01*
X165452380Y-104163619D01*
X164452380Y-103449333D02*
X164452380Y-102877904D01*
X165452380Y-103163619D02*
X164452380Y-103163619D01*
X165166666Y-102592190D02*
X165166666Y-102116000D01*
X165452380Y-102687428D02*
X164452380Y-102354095D01*
X165452380Y-102020761D01*
X164500000Y-101163619D02*
X164452380Y-101258857D01*
X164452380Y-101401714D01*
X164500000Y-101544571D01*
X164595238Y-101639809D01*
X164690476Y-101687428D01*
X164880952Y-101735047D01*
X165023809Y-101735047D01*
X165214285Y-101687428D01*
X165309523Y-101639809D01*
X165404761Y-101544571D01*
X165452380Y-101401714D01*
X165452380Y-101306476D01*
X165404761Y-101163619D01*
X165357142Y-101116000D01*
X165023809Y-101116000D01*
X165023809Y-101306476D01*
D10*
X138333333Y-124052380D02*
X139000000Y-125052380D01*
X139000000Y-124052380D02*
X138333333Y-125052380D01*
X139952380Y-124957142D02*
X139904761Y-125004761D01*
X139761904Y-125052380D01*
X139666666Y-125052380D01*
X139523809Y-125004761D01*
X139428571Y-124909523D01*
X139380952Y-124814285D01*
X139333333Y-124623809D01*
X139333333Y-124480952D01*
X139380952Y-124290476D01*
X139428571Y-124195238D01*
X139523809Y-124100000D01*
X139666666Y-124052380D01*
X139761904Y-124052380D01*
X139904761Y-124100000D01*
X139952380Y-124147619D01*
X140571428Y-124052380D02*
X140761904Y-124052380D01*
X140857142Y-124100000D01*
X140952380Y-124195238D01*
X141000000Y-124385714D01*
X141000000Y-124719047D01*
X140952380Y-124909523D01*
X140857142Y-125004761D01*
X140761904Y-125052380D01*
X140571428Y-125052380D01*
X140476190Y-125004761D01*
X140380952Y-124909523D01*
X140333333Y-124719047D01*
X140333333Y-124385714D01*
X140380952Y-124195238D01*
X140476190Y-124100000D01*
X140571428Y-124052380D01*
X141428571Y-125052380D02*
X141428571Y-124052380D01*
X141761904Y-124766666D01*
X142095238Y-124052380D01*
X142095238Y-125052380D01*
X142571428Y-125052380D02*
X142571428Y-124052380D01*
X142904761Y-124766666D01*
X143238095Y-124052380D01*
X143238095Y-125052380D01*
X143666666Y-125004761D02*
X143809523Y-125052380D01*
X144047619Y-125052380D01*
X144142857Y-125004761D01*
X144190476Y-124957142D01*
X144238095Y-124861904D01*
X144238095Y-124766666D01*
X144190476Y-124671428D01*
X144142857Y-124623809D01*
X144047619Y-124576190D01*
X143857142Y-124528571D01*
X143761904Y-124480952D01*
X143714285Y-124433333D01*
X143666666Y-124338095D01*
X143666666Y-124242857D01*
X143714285Y-124147619D01*
X143761904Y-124100000D01*
X143857142Y-124052380D01*
X144095238Y-124052380D01*
X144238095Y-124100000D01*
X145428571Y-125052380D02*
X145428571Y-124052380D01*
X145904761Y-124385714D02*
X145904761Y-125052380D01*
X145904761Y-124480952D02*
X145952380Y-124433333D01*
X146047619Y-124385714D01*
X146190476Y-124385714D01*
X146285714Y-124433333D01*
X146333333Y-124528571D01*
X146333333Y-125052380D01*
X146666666Y-124385714D02*
X147047619Y-124385714D01*
X146809523Y-124052380D02*
X146809523Y-124909523D01*
X146857142Y-125004761D01*
X146952380Y-125052380D01*
X147047619Y-125052380D01*
X147761904Y-125004761D02*
X147666666Y-125052380D01*
X147476190Y-125052380D01*
X147380952Y-125004761D01*
X147333333Y-124909523D01*
X147333333Y-124528571D01*
X147380952Y-124433333D01*
X147476190Y-124385714D01*
X147666666Y-124385714D01*
X147761904Y-124433333D01*
X147809523Y-124528571D01*
X147809523Y-124623809D01*
X147333333Y-124719047D01*
X148238095Y-125052380D02*
X148238095Y-124385714D01*
X148238095Y-124576190D02*
X148285714Y-124480952D01*
X148333333Y-124433333D01*
X148428571Y-124385714D01*
X148523809Y-124385714D01*
X148714285Y-124385714D02*
X149095238Y-124385714D01*
X148857142Y-125052380D02*
X148857142Y-124195238D01*
X148904761Y-124100000D01*
X149000000Y-124052380D01*
X149095238Y-124052380D01*
X149857142Y-125052380D02*
X149857142Y-124528571D01*
X149809523Y-124433333D01*
X149714285Y-124385714D01*
X149523809Y-124385714D01*
X149428571Y-124433333D01*
X149857142Y-125004761D02*
X149761904Y-125052380D01*
X149523809Y-125052380D01*
X149428571Y-125004761D01*
X149380952Y-124909523D01*
X149380952Y-124814285D01*
X149428571Y-124719047D01*
X149523809Y-124671428D01*
X149761904Y-124671428D01*
X149857142Y-124623809D01*
X150761904Y-125004761D02*
X150666666Y-125052380D01*
X150476190Y-125052380D01*
X150380952Y-125004761D01*
X150333333Y-124957142D01*
X150285714Y-124861904D01*
X150285714Y-124576190D01*
X150333333Y-124480952D01*
X150380952Y-124433333D01*
X150476190Y-124385714D01*
X150666666Y-124385714D01*
X150761904Y-124433333D01*
X151571428Y-125004761D02*
X151476190Y-125052380D01*
X151285714Y-125052380D01*
X151190476Y-125004761D01*
X151142857Y-124909523D01*
X151142857Y-124528571D01*
X151190476Y-124433333D01*
X151285714Y-124385714D01*
X151476190Y-124385714D01*
X151571428Y-124433333D01*
X151619047Y-124528571D01*
X151619047Y-124623809D01*
X151142857Y-124719047D01*
D11*
X165452382Y-130333334D02*
X164452382Y-130333334D01*
X164452382Y-129952381D01*
X164500002Y-129857143D01*
X164547621Y-129809524D01*
X164642859Y-129761905D01*
X164785716Y-129761905D01*
X164880954Y-129809524D01*
X164928573Y-129857143D01*
X164976192Y-129952381D01*
X164976192Y-130333334D01*
X164452382Y-129428572D02*
X165452382Y-129190477D01*
X164738097Y-129000001D01*
X165452382Y-128809524D01*
X164452382Y-128571429D01*
X165452382Y-127619048D02*
X164976192Y-127952381D01*
X165452382Y-128190477D02*
X164452382Y-128190477D01*
X164452382Y-127809524D01*
X164500002Y-127714286D01*
X164547621Y-127666667D01*
X164642859Y-127619048D01*
X164785716Y-127619048D01*
X164880954Y-127666667D01*
X164928573Y-127714286D01*
X164976192Y-127809524D01*
X164976192Y-128190477D01*
X164425380Y-95964238D02*
X164425380Y-95773761D01*
X164473000Y-95678523D01*
X164568238Y-95583285D01*
X164758714Y-95535666D01*
X165092047Y-95535666D01*
X165282523Y-95583285D01*
X165377761Y-95678523D01*
X165425380Y-95773761D01*
X165425380Y-95964238D01*
X165377761Y-96059476D01*
X165282523Y-96154714D01*
X165092047Y-96202333D01*
X164758714Y-96202333D01*
X164568238Y-96154714D01*
X164473000Y-96059476D01*
X164425380Y-95964238D01*
X164901571Y-94773761D02*
X164949190Y-94630904D01*
X164996809Y-94583285D01*
X165092047Y-94535666D01*
X165234904Y-94535666D01*
X165330142Y-94583285D01*
X165377761Y-94630904D01*
X165425380Y-94726142D01*
X165425380Y-95107095D01*
X164425380Y-95107095D01*
X164425380Y-94773761D01*
X164473000Y-94678523D01*
X164520619Y-94630904D01*
X164615857Y-94583285D01*
X164711095Y-94583285D01*
X164806333Y-94630904D01*
X164853952Y-94678523D01*
X164901571Y-94773761D01*
X164901571Y-95107095D01*
X165330142Y-93535666D02*
X165377761Y-93583285D01*
X165425380Y-93726142D01*
X165425380Y-93821380D01*
X165377761Y-93964238D01*
X165282523Y-94059476D01*
X165187285Y-94107095D01*
X164996809Y-94154714D01*
X164853952Y-94154714D01*
X164663476Y-94107095D01*
X164568238Y-94059476D01*
X164473000Y-93964238D01*
X164425380Y-93821380D01*
X164425380Y-93726142D01*
X164473000Y-93583285D01*
X164520619Y-93535666D01*
X159657142Y-132451928D02*
X159548285Y-132397500D01*
X159493857Y-132343071D01*
X159439428Y-132234214D01*
X159439428Y-132179785D01*
X159493857Y-132070928D01*
X159548285Y-132016500D01*
X159657142Y-131962071D01*
X159874857Y-131962071D01*
X159983714Y-132016500D01*
X160038142Y-132070928D01*
X160092571Y-132179785D01*
X160092571Y-132234214D01*
X160038142Y-132343071D01*
X159983714Y-132397500D01*
X159874857Y-132451928D01*
X159657142Y-132451928D01*
X159548285Y-132506357D01*
X159493857Y-132560785D01*
X159439428Y-132669642D01*
X159439428Y-132887357D01*
X159493857Y-132996214D01*
X159548285Y-133050642D01*
X159657142Y-133105071D01*
X159874857Y-133105071D01*
X159983714Y-133050642D01*
X160038142Y-132996214D01*
X160092571Y-132887357D01*
X160092571Y-132669642D01*
X160038142Y-132560785D01*
X159983714Y-132506357D01*
X159874857Y-132451928D01*
D12*
%TO.C,J1*%
X139794764Y-111521199D02*
X139794764Y-111884056D01*
X139770574Y-111956628D01*
X139722193Y-112005009D01*
X139649621Y-112029199D01*
X139601240Y-112029199D01*
X140302764Y-112029199D02*
X140012478Y-112029199D01*
X140157621Y-112029199D02*
X140157621Y-111521199D01*
X140109240Y-111593770D01*
X140060859Y-111642151D01*
X140012478Y-111666342D01*
%TO.C,D2*%
X154029809Y-110580152D02*
X153521809Y-110580152D01*
X153521809Y-110459200D01*
X153546000Y-110386628D01*
X153594380Y-110338247D01*
X153642761Y-110314057D01*
X153739523Y-110289866D01*
X153812095Y-110289866D01*
X153908857Y-110314057D01*
X153957238Y-110338247D01*
X154005619Y-110386628D01*
X154029809Y-110459200D01*
X154029809Y-110580152D01*
X153570190Y-110096342D02*
X153546000Y-110072152D01*
X153521809Y-110023771D01*
X153521809Y-109902819D01*
X153546000Y-109854438D01*
X153570190Y-109830247D01*
X153618571Y-109806057D01*
X153666952Y-109806057D01*
X153739523Y-109830247D01*
X154029809Y-110120533D01*
X154029809Y-109806057D01*
%TO.C,D5*%
X155423809Y-87496952D02*
X154915809Y-87496952D01*
X154915809Y-87376000D01*
X154940000Y-87303428D01*
X154988380Y-87255047D01*
X155036761Y-87230857D01*
X155133523Y-87206666D01*
X155206095Y-87206666D01*
X155302857Y-87230857D01*
X155351238Y-87255047D01*
X155399619Y-87303428D01*
X155423809Y-87376000D01*
X155423809Y-87496952D01*
X154915809Y-86747047D02*
X154915809Y-86988952D01*
X155157714Y-87013142D01*
X155133523Y-86988952D01*
X155109333Y-86940571D01*
X155109333Y-86819619D01*
X155133523Y-86771238D01*
X155157714Y-86747047D01*
X155206095Y-86722857D01*
X155327047Y-86722857D01*
X155375428Y-86747047D01*
X155399619Y-86771238D01*
X155423809Y-86819619D01*
X155423809Y-86940571D01*
X155399619Y-86988952D01*
X155375428Y-87013142D01*
D10*
%TO.C,Annotation2*%
X145091904Y-127000000D02*
X144996666Y-126952380D01*
X144853809Y-126952380D01*
X144710952Y-127000000D01*
X144615714Y-127095238D01*
X144568095Y-127190476D01*
X144520476Y-127380952D01*
X144520476Y-127523809D01*
X144568095Y-127714285D01*
X144615714Y-127809523D01*
X144710952Y-127904761D01*
X144853809Y-127952380D01*
X144949047Y-127952380D01*
X145091904Y-127904761D01*
X145139523Y-127857142D01*
X145139523Y-127523809D01*
X144949047Y-127523809D01*
X146091904Y-127000000D02*
X145996666Y-126952380D01*
X145853809Y-126952380D01*
X145710952Y-127000000D01*
X145615714Y-127095238D01*
X145568095Y-127190476D01*
X145520476Y-127380952D01*
X145520476Y-127523809D01*
X145568095Y-127714285D01*
X145615714Y-127809523D01*
X145710952Y-127904761D01*
X145853809Y-127952380D01*
X145949047Y-127952380D01*
X146091904Y-127904761D01*
X146139523Y-127857142D01*
X146139523Y-127523809D01*
X145949047Y-127523809D01*
X146520476Y-127904761D02*
X146663333Y-127952380D01*
X146901428Y-127952380D01*
X146996666Y-127904761D01*
X147044285Y-127857142D01*
X147091904Y-127761904D01*
X147091904Y-127666666D01*
X147044285Y-127571428D01*
X146996666Y-127523809D01*
X146901428Y-127476190D01*
X146710952Y-127428571D01*
X146615714Y-127380952D01*
X146568095Y-127333333D01*
X146520476Y-127238095D01*
X146520476Y-127142857D01*
X146568095Y-127047619D01*
X146615714Y-127000000D01*
X146710952Y-126952380D01*
X146949047Y-126952380D01*
X147091904Y-127000000D01*
D12*
%TO.C,R28*%
X158419428Y-89637809D02*
X158250095Y-89395904D01*
X158129142Y-89637809D02*
X158129142Y-89129809D01*
X158322666Y-89129809D01*
X158371047Y-89154000D01*
X158395238Y-89178190D01*
X158419428Y-89226571D01*
X158419428Y-89299142D01*
X158395238Y-89347523D01*
X158371047Y-89371714D01*
X158322666Y-89395904D01*
X158129142Y-89395904D01*
X158612952Y-89178190D02*
X158637142Y-89154000D01*
X158685523Y-89129809D01*
X158806476Y-89129809D01*
X158854857Y-89154000D01*
X158879047Y-89178190D01*
X158903238Y-89226571D01*
X158903238Y-89274952D01*
X158879047Y-89347523D01*
X158588761Y-89637809D01*
X158903238Y-89637809D01*
X159193523Y-89347523D02*
X159145142Y-89323333D01*
X159120952Y-89299142D01*
X159096761Y-89250761D01*
X159096761Y-89226571D01*
X159120952Y-89178190D01*
X159145142Y-89154000D01*
X159193523Y-89129809D01*
X159290285Y-89129809D01*
X159338666Y-89154000D01*
X159362857Y-89178190D01*
X159387047Y-89226571D01*
X159387047Y-89250761D01*
X159362857Y-89299142D01*
X159338666Y-89323333D01*
X159290285Y-89347523D01*
X159193523Y-89347523D01*
X159145142Y-89371714D01*
X159120952Y-89395904D01*
X159096761Y-89444285D01*
X159096761Y-89541047D01*
X159120952Y-89589428D01*
X159145142Y-89613619D01*
X159193523Y-89637809D01*
X159290285Y-89637809D01*
X159338666Y-89613619D01*
X159362857Y-89589428D01*
X159387047Y-89541047D01*
X159387047Y-89444285D01*
X159362857Y-89395904D01*
X159338666Y-89371714D01*
X159290285Y-89347523D01*
D10*
%TO.C,Annotation5*%
X135939523Y-127952380D02*
X135606190Y-127476190D01*
X135368095Y-127952380D02*
X135368095Y-126952380D01*
X135749047Y-126952380D01*
X135844285Y-127000000D01*
X135891904Y-127047619D01*
X135939523Y-127142857D01*
X135939523Y-127285714D01*
X135891904Y-127380952D01*
X135844285Y-127428571D01*
X135749047Y-127476190D01*
X135368095Y-127476190D01*
X136749047Y-127904761D02*
X136653809Y-127952380D01*
X136463333Y-127952380D01*
X136368095Y-127904761D01*
X136320476Y-127809523D01*
X136320476Y-127428571D01*
X136368095Y-127333333D01*
X136463333Y-127285714D01*
X136653809Y-127285714D01*
X136749047Y-127333333D01*
X136796666Y-127428571D01*
X136796666Y-127523809D01*
X136320476Y-127619047D01*
X137130000Y-127285714D02*
X137368095Y-127952380D01*
X137606190Y-127285714D01*
X137987142Y-127857142D02*
X138034761Y-127904761D01*
X137987142Y-127952380D01*
X137939523Y-127904761D01*
X137987142Y-127857142D01*
X137987142Y-127952380D01*
X137987142Y-127333333D02*
X138034761Y-127380952D01*
X137987142Y-127428571D01*
X137939523Y-127380952D01*
X137987142Y-127333333D01*
X137987142Y-127428571D01*
D12*
%TO.C,D4*%
X155455809Y-89147952D02*
X154947809Y-89147952D01*
X154947809Y-89027000D01*
X154972000Y-88954428D01*
X155020380Y-88906047D01*
X155068761Y-88881857D01*
X155165523Y-88857666D01*
X155238095Y-88857666D01*
X155334857Y-88881857D01*
X155383238Y-88906047D01*
X155431619Y-88954428D01*
X155455809Y-89027000D01*
X155455809Y-89147952D01*
X155117142Y-88422238D02*
X155455809Y-88422238D01*
X154923619Y-88543190D02*
X155286476Y-88664142D01*
X155286476Y-88349666D01*
%TO.C,J4*%
X161830666Y-124288609D02*
X161830666Y-124651466D01*
X161806476Y-124724038D01*
X161758095Y-124772419D01*
X161685523Y-124796609D01*
X161637142Y-124796609D01*
X162290285Y-124457942D02*
X162290285Y-124796609D01*
X162169333Y-124264419D02*
X162048380Y-124627276D01*
X162362857Y-124627276D01*
%TO.C,R23*%
X151565428Y-83541809D02*
X151396095Y-83299904D01*
X151275142Y-83541809D02*
X151275142Y-83033809D01*
X151468666Y-83033809D01*
X151517047Y-83058000D01*
X151541238Y-83082190D01*
X151565428Y-83130571D01*
X151565428Y-83203142D01*
X151541238Y-83251523D01*
X151517047Y-83275714D01*
X151468666Y-83299904D01*
X151275142Y-83299904D01*
X151758952Y-83082190D02*
X151783142Y-83058000D01*
X151831523Y-83033809D01*
X151952476Y-83033809D01*
X152000857Y-83058000D01*
X152025047Y-83082190D01*
X152049238Y-83130571D01*
X152049238Y-83178952D01*
X152025047Y-83251523D01*
X151734761Y-83541809D01*
X152049238Y-83541809D01*
X152218571Y-83033809D02*
X152533047Y-83033809D01*
X152363714Y-83227333D01*
X152436285Y-83227333D01*
X152484666Y-83251523D01*
X152508857Y-83275714D01*
X152533047Y-83324095D01*
X152533047Y-83445047D01*
X152508857Y-83493428D01*
X152484666Y-83517619D01*
X152436285Y-83541809D01*
X152291142Y-83541809D01*
X152242761Y-83517619D01*
X152218571Y-83493428D01*
%TO.C,R27*%
X159947428Y-107918809D02*
X159778095Y-107676904D01*
X159657142Y-107918809D02*
X159657142Y-107410809D01*
X159850666Y-107410809D01*
X159899047Y-107435000D01*
X159923238Y-107459190D01*
X159947428Y-107507571D01*
X159947428Y-107580142D01*
X159923238Y-107628523D01*
X159899047Y-107652714D01*
X159850666Y-107676904D01*
X159657142Y-107676904D01*
X160140952Y-107459190D02*
X160165142Y-107435000D01*
X160213523Y-107410809D01*
X160334476Y-107410809D01*
X160382857Y-107435000D01*
X160407047Y-107459190D01*
X160431238Y-107507571D01*
X160431238Y-107555952D01*
X160407047Y-107628523D01*
X160116761Y-107918809D01*
X160431238Y-107918809D01*
X160600571Y-107410809D02*
X160939238Y-107410809D01*
X160721523Y-107918809D01*
D10*
%TO.C,Annotation4*%
X135368095Y-124952380D02*
X135368095Y-123952380D01*
X135749047Y-123952380D01*
X135844285Y-124000000D01*
X135891904Y-124047619D01*
X135939523Y-124142857D01*
X135939523Y-124285714D01*
X135891904Y-124380952D01*
X135844285Y-124428571D01*
X135749047Y-124476190D01*
X135368095Y-124476190D01*
X136368095Y-124952380D02*
X136368095Y-124285714D01*
X136368095Y-124476190D02*
X136415714Y-124380952D01*
X136463333Y-124333333D01*
X136558571Y-124285714D01*
X136653809Y-124285714D01*
X136987142Y-124285714D02*
X136987142Y-125142857D01*
X136939523Y-125238095D01*
X136844285Y-125285714D01*
X136796666Y-125285714D01*
X136987142Y-123952380D02*
X136939523Y-124000000D01*
X136987142Y-124047619D01*
X137034761Y-124000000D01*
X136987142Y-123952380D01*
X136987142Y-124047619D01*
X137463333Y-124857142D02*
X137510952Y-124904761D01*
X137463333Y-124952380D01*
X137415714Y-124904761D01*
X137463333Y-124857142D01*
X137463333Y-124952380D01*
X137463333Y-124333333D02*
X137510952Y-124380952D01*
X137463333Y-124428571D01*
X137415714Y-124380952D01*
X137463333Y-124333333D01*
X137463333Y-124428571D01*
D12*
%TO.C,R25*%
X159947428Y-111474809D02*
X159778095Y-111232904D01*
X159657142Y-111474809D02*
X159657142Y-110966809D01*
X159850666Y-110966809D01*
X159899047Y-110991000D01*
X159923238Y-111015190D01*
X159947428Y-111063571D01*
X159947428Y-111136142D01*
X159923238Y-111184523D01*
X159899047Y-111208714D01*
X159850666Y-111232904D01*
X159657142Y-111232904D01*
X160140952Y-111015190D02*
X160165142Y-110991000D01*
X160213523Y-110966809D01*
X160334476Y-110966809D01*
X160382857Y-110991000D01*
X160407047Y-111015190D01*
X160431238Y-111063571D01*
X160431238Y-111111952D01*
X160407047Y-111184523D01*
X160116761Y-111474809D01*
X160431238Y-111474809D01*
X160890857Y-110966809D02*
X160648952Y-110966809D01*
X160624761Y-111208714D01*
X160648952Y-111184523D01*
X160697333Y-111160333D01*
X160818285Y-111160333D01*
X160866666Y-111184523D01*
X160890857Y-111208714D01*
X160915047Y-111257095D01*
X160915047Y-111378047D01*
X160890857Y-111426428D01*
X160866666Y-111450619D01*
X160818285Y-111474809D01*
X160697333Y-111474809D01*
X160648952Y-111450619D01*
X160624761Y-111426428D01*
%TO.C,D1*%
X155029809Y-112511952D02*
X154521809Y-112511952D01*
X154521809Y-112391000D01*
X154546000Y-112318428D01*
X154594380Y-112270047D01*
X154642761Y-112245857D01*
X154739523Y-112221666D01*
X154812095Y-112221666D01*
X154908857Y-112245857D01*
X154957238Y-112270047D01*
X155005619Y-112318428D01*
X155029809Y-112391000D01*
X155029809Y-112511952D01*
X155029809Y-111737857D02*
X155029809Y-112028142D01*
X155029809Y-111883000D02*
X154521809Y-111883000D01*
X154594380Y-111931380D01*
X154642761Y-111979761D01*
X154666952Y-112028142D01*
%TO.C,R24*%
X155502428Y-83541809D02*
X155333095Y-83299904D01*
X155212142Y-83541809D02*
X155212142Y-83033809D01*
X155405666Y-83033809D01*
X155454047Y-83058000D01*
X155478238Y-83082190D01*
X155502428Y-83130571D01*
X155502428Y-83203142D01*
X155478238Y-83251523D01*
X155454047Y-83275714D01*
X155405666Y-83299904D01*
X155212142Y-83299904D01*
X155695952Y-83082190D02*
X155720142Y-83058000D01*
X155768523Y-83033809D01*
X155889476Y-83033809D01*
X155937857Y-83058000D01*
X155962047Y-83082190D01*
X155986238Y-83130571D01*
X155986238Y-83178952D01*
X155962047Y-83251523D01*
X155671761Y-83541809D01*
X155986238Y-83541809D01*
X156421666Y-83203142D02*
X156421666Y-83541809D01*
X156300714Y-83009619D02*
X156179761Y-83372476D01*
X156494238Y-83372476D01*
%TO.C,D3*%
X155169809Y-107435952D02*
X154661809Y-107435952D01*
X154661809Y-107315000D01*
X154686000Y-107242428D01*
X154734380Y-107194047D01*
X154782761Y-107169857D01*
X154879523Y-107145666D01*
X154952095Y-107145666D01*
X155048857Y-107169857D01*
X155097238Y-107194047D01*
X155145619Y-107242428D01*
X155169809Y-107315000D01*
X155169809Y-107435952D01*
X154661809Y-106976333D02*
X154661809Y-106661857D01*
X154855333Y-106831190D01*
X154855333Y-106758619D01*
X154879523Y-106710238D01*
X154903714Y-106686047D01*
X154952095Y-106661857D01*
X155073047Y-106661857D01*
X155121428Y-106686047D01*
X155145619Y-106710238D01*
X155169809Y-106758619D01*
X155169809Y-106903761D01*
X155145619Y-106952142D01*
X155121428Y-106976333D01*
%TO.C,J3*%
X161755666Y-90526809D02*
X161755666Y-90889666D01*
X161731476Y-90962238D01*
X161683095Y-91010619D01*
X161610523Y-91034809D01*
X161562142Y-91034809D01*
X161949190Y-90526809D02*
X162263666Y-90526809D01*
X162094333Y-90720333D01*
X162166904Y-90720333D01*
X162215285Y-90744523D01*
X162239476Y-90768714D01*
X162263666Y-90817095D01*
X162263666Y-90938047D01*
X162239476Y-90986428D01*
X162215285Y-91010619D01*
X162166904Y-91034809D01*
X162021761Y-91034809D01*
X161973380Y-91010619D01*
X161949190Y-90986428D01*
%TO.C,R29*%
X158423428Y-85827809D02*
X158254095Y-85585904D01*
X158133142Y-85827809D02*
X158133142Y-85319809D01*
X158326666Y-85319809D01*
X158375047Y-85344000D01*
X158399238Y-85368190D01*
X158423428Y-85416571D01*
X158423428Y-85489142D01*
X158399238Y-85537523D01*
X158375047Y-85561714D01*
X158326666Y-85585904D01*
X158133142Y-85585904D01*
X158616952Y-85368190D02*
X158641142Y-85344000D01*
X158689523Y-85319809D01*
X158810476Y-85319809D01*
X158858857Y-85344000D01*
X158883047Y-85368190D01*
X158907238Y-85416571D01*
X158907238Y-85464952D01*
X158883047Y-85537523D01*
X158592761Y-85827809D01*
X158907238Y-85827809D01*
X159149142Y-85827809D02*
X159245904Y-85827809D01*
X159294285Y-85803619D01*
X159318476Y-85779428D01*
X159366857Y-85706857D01*
X159391047Y-85610095D01*
X159391047Y-85416571D01*
X159366857Y-85368190D01*
X159342666Y-85344000D01*
X159294285Y-85319809D01*
X159197523Y-85319809D01*
X159149142Y-85344000D01*
X159124952Y-85368190D01*
X159100761Y-85416571D01*
X159100761Y-85537523D01*
X159124952Y-85585904D01*
X159149142Y-85610095D01*
X159197523Y-85634285D01*
X159294285Y-85634285D01*
X159342666Y-85610095D01*
X159366857Y-85585904D01*
X159391047Y-85537523D01*
%TO.C,J2*%
X161930666Y-114988609D02*
X161930666Y-115351466D01*
X161906476Y-115424038D01*
X161858095Y-115472419D01*
X161785523Y-115496609D01*
X161737142Y-115496609D01*
X162148380Y-115036990D02*
X162172571Y-115012800D01*
X162220952Y-114988609D01*
X162341904Y-114988609D01*
X162390285Y-115012800D01*
X162414476Y-115036990D01*
X162438666Y-115085371D01*
X162438666Y-115133752D01*
X162414476Y-115206323D01*
X162124190Y-115496609D01*
X162438666Y-115496609D01*
%TO.C,R26*%
X159947428Y-109572609D02*
X159778095Y-109330704D01*
X159657142Y-109572609D02*
X159657142Y-109064609D01*
X159850666Y-109064609D01*
X159899047Y-109088800D01*
X159923238Y-109112990D01*
X159947428Y-109161371D01*
X159947428Y-109233942D01*
X159923238Y-109282323D01*
X159899047Y-109306514D01*
X159850666Y-109330704D01*
X159657142Y-109330704D01*
X160140952Y-109112990D02*
X160165142Y-109088800D01*
X160213523Y-109064609D01*
X160334476Y-109064609D01*
X160382857Y-109088800D01*
X160407047Y-109112990D01*
X160431238Y-109161371D01*
X160431238Y-109209752D01*
X160407047Y-109282323D01*
X160116761Y-109572609D01*
X160431238Y-109572609D01*
X160866666Y-109064609D02*
X160769904Y-109064609D01*
X160721523Y-109088800D01*
X160697333Y-109112990D01*
X160648952Y-109185561D01*
X160624761Y-109282323D01*
X160624761Y-109475847D01*
X160648952Y-109524228D01*
X160673142Y-109548419D01*
X160721523Y-109572609D01*
X160818285Y-109572609D01*
X160866666Y-109548419D01*
X160890857Y-109524228D01*
X160915047Y-109475847D01*
X160915047Y-109354895D01*
X160890857Y-109306514D01*
X160866666Y-109282323D01*
X160818285Y-109258133D01*
X160721523Y-109258133D01*
X160673142Y-109282323D01*
X160648952Y-109306514D01*
X160624761Y-109354895D01*
D10*
%TO.C,J1*%
X137327200Y-113339989D02*
G75*
G03*
X137327200Y-113339989I-100000J0D01*
G01*
X132652200Y-112439989D02*
X134448200Y-112439989D01*
X138372200Y-110934989D02*
X138372200Y-112439989D01*
X132652200Y-112439989D02*
X132652200Y-110934989D01*
X134448200Y-96559989D02*
X132652200Y-96559989D01*
X136576200Y-112439989D02*
X138372200Y-112439989D01*
X132652200Y-98064989D02*
X132652200Y-96559989D01*
X138372200Y-98064989D02*
X138372200Y-96559989D01*
X138372200Y-96559989D02*
X136576200Y-96559989D01*
D13*
%TO.C,Annotation3*%
X155247176Y-128082925D02*
X155424976Y-128082925D01*
X155882176Y-133188325D02*
X155958376Y-133188325D01*
X155882176Y-130572125D02*
X157507776Y-130572125D01*
X157126776Y-131486525D02*
X158523776Y-131486525D01*
X154993176Y-128540125D02*
X155170976Y-128540125D01*
X153062776Y-128946525D02*
X153189776Y-128946525D01*
X153062776Y-130089525D02*
X153189776Y-130089525D01*
X153062776Y-129733925D02*
X153189776Y-129733925D01*
X155882176Y-131435725D02*
X156999776Y-131435725D01*
X157152176Y-131410325D02*
X158523776Y-131410325D01*
X157964976Y-130038725D02*
X158523776Y-130038725D01*
X155882176Y-131969125D02*
X156694976Y-131969125D01*
X155221776Y-130114925D02*
X155475776Y-130114925D01*
X157914176Y-130114925D02*
X158523776Y-130114925D01*
X155780575Y-127727325D02*
X155907575Y-127727325D01*
X153062776Y-129378325D02*
X153189776Y-129378325D01*
X157253776Y-131257925D02*
X158523776Y-131257925D01*
X155399575Y-130216525D02*
X155628176Y-130216525D01*
X154129575Y-131435725D02*
X155755176Y-131435725D01*
X153062776Y-131715125D02*
X153316776Y-131715125D01*
X154231176Y-128133725D02*
X154485176Y-128133725D01*
X156567976Y-127828925D02*
X156821976Y-127828925D01*
X158447575Y-129225925D02*
X158523776Y-129225925D01*
X155882176Y-132832725D02*
X156186976Y-132832725D01*
X153799376Y-132426325D02*
X155755176Y-132426325D01*
X155780575Y-127905125D02*
X155907575Y-127905125D01*
X157025176Y-129733925D02*
X157990376Y-129733925D01*
X155069376Y-128362325D02*
X155272575Y-128362325D01*
X156542575Y-127803525D02*
X156771176Y-127803525D01*
X157660176Y-129378325D02*
X158218976Y-129378325D01*
X153062776Y-131461125D02*
X153189776Y-131461125D01*
X153062776Y-131130925D02*
X153189776Y-131130925D01*
X153062776Y-131207125D02*
X153189776Y-131207125D01*
X155780575Y-128413125D02*
X155907575Y-128413125D01*
X153062776Y-131257925D02*
X153189776Y-131257925D01*
X153519976Y-132273925D02*
X155755176Y-132273925D01*
X153062776Y-130876925D02*
X153189776Y-130876925D01*
X155297976Y-130749925D02*
X155755176Y-130749925D01*
X156186976Y-127600325D02*
X156440976Y-127600325D01*
X154129575Y-129479925D02*
X154383575Y-129479925D01*
X154916976Y-127727325D02*
X155170976Y-127727325D01*
X155526575Y-127574925D02*
X155729776Y-127574925D01*
X153392976Y-131308725D02*
X153570776Y-131308725D01*
X157939575Y-129225925D02*
X158295176Y-129225925D01*
X153596176Y-130978525D02*
X153748575Y-130978525D01*
X155272575Y-127524125D02*
X155526575Y-127524125D01*
X154053376Y-128235325D02*
X154307376Y-128235325D01*
X155094776Y-133188325D02*
X155755176Y-133188325D01*
X153621575Y-130927725D02*
X153773976Y-130927725D01*
X155755176Y-129022725D02*
X155882176Y-129022725D01*
X153062776Y-129962525D02*
X153189776Y-129962525D01*
X155094776Y-128311525D02*
X155297976Y-128311525D01*
X156313976Y-132832725D02*
X157126776Y-132832725D01*
X155755176Y-129937125D02*
X155882176Y-129937125D01*
X155882176Y-131130925D02*
X157177575Y-131130925D01*
X155882176Y-131537325D02*
X156948976Y-131537325D01*
X154891575Y-127752725D02*
X155145575Y-127752725D01*
X154535976Y-127955925D02*
X154789976Y-127955925D01*
X155882176Y-133010525D02*
X156085376Y-133010525D01*
X153824776Y-129302125D02*
X154078776Y-129302125D01*
X156313976Y-127676525D02*
X156567976Y-127676525D01*
X155882176Y-131486525D02*
X156974376Y-131486525D01*
X155755176Y-129835525D02*
X155882176Y-129835525D01*
X155780575Y-128133725D02*
X155907575Y-128133725D01*
X153062776Y-129556125D02*
X153189776Y-129556125D01*
X154434376Y-128006725D02*
X154688376Y-128006725D01*
X156237776Y-127625725D02*
X156491776Y-127625725D01*
X153062776Y-130165725D02*
X153189776Y-130165725D01*
X154307376Y-128082925D02*
X154561376Y-128082925D01*
X156618776Y-132324725D02*
X157990376Y-132324725D01*
X155882176Y-130546725D02*
X157533176Y-130546725D01*
X155704376Y-127270125D02*
X155907575Y-127270125D01*
X155882176Y-132502525D02*
X156364776Y-132502525D01*
X158345976Y-129403725D02*
X158523776Y-129403725D01*
X158218976Y-129048125D02*
X158396776Y-129048125D01*
X155018575Y-133137525D02*
X155755176Y-133137525D01*
X156872776Y-131918325D02*
X158523776Y-131918325D01*
X156110776Y-133188325D02*
X156517176Y-133188325D01*
X153951776Y-130318125D02*
X154129575Y-130318125D01*
X157660176Y-130546725D02*
X158523776Y-130546725D01*
X155780575Y-128108325D02*
X155907575Y-128108325D01*
X154612176Y-127905125D02*
X154866176Y-127905125D01*
X153900976Y-129352925D02*
X154154976Y-129352925D01*
X155882176Y-133213725D02*
X155958376Y-133213725D01*
X154358176Y-131283325D02*
X155755176Y-131283325D01*
X155882176Y-132527925D02*
X156364776Y-132527925D01*
X155755176Y-130216525D02*
X155882176Y-130216525D01*
X154815376Y-129886325D02*
X155069376Y-129886325D01*
X154688376Y-131105525D02*
X155755176Y-131105525D01*
X155882176Y-131867525D02*
X156745776Y-131867525D01*
X153164376Y-128743325D02*
X153418376Y-128743325D01*
X154739176Y-127828925D02*
X154993176Y-127828925D01*
X153265976Y-131537325D02*
X153418376Y-131537325D01*
X153875575Y-130470525D02*
X154053376Y-130470525D01*
X155882176Y-130851525D02*
X157329976Y-130851525D01*
X158396776Y-129327525D02*
X158523776Y-129327525D01*
X153748575Y-130699125D02*
X153926376Y-130699125D01*
X156999776Y-131689725D02*
X158523776Y-131689725D01*
X153570776Y-128514725D02*
X153824776Y-128514725D01*
X155196376Y-133239125D02*
X155755176Y-133239125D01*
X155348776Y-130191125D02*
X155602776Y-130191125D01*
X153062776Y-131664325D02*
X153189776Y-131664325D01*
X153062776Y-130749925D02*
X153189776Y-130749925D01*
X153062776Y-129149725D02*
X153189776Y-129149725D01*
X153748575Y-131638925D02*
X155755176Y-131638925D01*
X153062776Y-128870325D02*
X158498376Y-128870325D01*
X153062776Y-128844925D02*
X158498376Y-128844925D01*
X155755176Y-129098925D02*
X155882176Y-129098925D01*
X155221776Y-133264525D02*
X155755176Y-133264525D01*
X155424976Y-130241925D02*
X155678976Y-130241925D01*
X153646976Y-130902325D02*
X153799376Y-130902325D01*
X153215176Y-128946525D02*
X153469176Y-128946525D01*
X153062776Y-131638925D02*
X153189776Y-131638925D01*
X154688376Y-132959725D02*
X155755176Y-132959725D01*
X154967776Y-127701925D02*
X155221776Y-127701925D01*
X153062776Y-131181725D02*
X153189776Y-131181725D01*
X156059976Y-130318125D02*
X157660176Y-130318125D01*
X153646976Y-130851525D02*
X153824776Y-130851525D01*
X153875575Y-128336925D02*
X154129575Y-128336925D01*
X155526575Y-127371725D02*
X156059976Y-127371725D01*
X156694976Y-129937125D02*
X157888776Y-129937125D01*
X154993176Y-128489325D02*
X155196376Y-128489325D01*
X154002575Y-130241925D02*
X154180376Y-130241925D01*
X155170976Y-130089525D02*
X155424976Y-130089525D01*
X153291376Y-131511925D02*
X153443776Y-131511925D01*
X153215176Y-131664325D02*
X153342176Y-131664325D01*
X154180376Y-129987925D02*
X154332776Y-129987925D01*
X155882176Y-132172325D02*
X156567976Y-132172325D01*
X155196376Y-130800725D02*
X155755176Y-130800725D01*
X153062776Y-129251325D02*
X153189776Y-129251325D01*
X154510575Y-129708525D02*
X154764575Y-129708525D01*
X155018575Y-127676525D02*
X155272575Y-127676525D01*
X157634776Y-130622925D02*
X158523776Y-130622925D01*
X153062776Y-131232525D02*
X153189776Y-131232525D01*
X155882176Y-133289925D02*
X155907575Y-133289925D01*
X155678976Y-133518525D02*
X155755176Y-133518525D01*
X155577376Y-130597525D02*
X155755176Y-130597525D01*
X158244376Y-129581525D02*
X158523776Y-129581525D01*
X157456976Y-130902325D02*
X158523776Y-130902325D01*
X154916976Y-128667125D02*
X155094776Y-128667125D01*
X155272575Y-128006725D02*
X155475776Y-128006725D01*
X153062776Y-130546725D02*
X153189776Y-130546725D01*
X155780575Y-128387725D02*
X155907575Y-128387725D01*
X155882176Y-130927725D02*
X157304575Y-130927725D01*
X154561376Y-132883525D02*
X155755176Y-132883525D01*
X158015776Y-129962525D02*
X158523776Y-129962525D01*
X153392976Y-132197725D02*
X155755176Y-132197725D01*
X153316776Y-131461125D02*
X153469176Y-131461125D01*
X154358176Y-128057525D02*
X154612176Y-128057525D01*
X157050575Y-131588125D02*
X158523776Y-131588125D01*
X153062776Y-130216525D02*
X153189776Y-130216525D01*
X157964976Y-130064125D02*
X158523776Y-130064125D01*
X155755176Y-130140325D02*
X155882176Y-130140325D01*
X153570776Y-129149725D02*
X153824776Y-129149725D01*
X155526575Y-127600325D02*
X155704376Y-127600325D01*
X154256575Y-131359525D02*
X155755176Y-131359525D01*
X158371376Y-129352925D02*
X158523776Y-129352925D01*
X155882176Y-131384925D02*
X157025176Y-131384925D01*
X156136176Y-133162925D02*
X156542575Y-133162925D01*
X156491776Y-130064125D02*
X157787176Y-130064125D01*
X155780575Y-128336925D02*
X155907575Y-128336925D01*
X155755176Y-130013325D02*
X155882176Y-130013325D01*
X156745776Y-127930525D02*
X156999776Y-127930525D01*
X153062776Y-131283325D02*
X153189776Y-131283325D01*
X153062776Y-129784725D02*
X153189776Y-129784725D01*
X153291376Y-132146925D02*
X155755176Y-132146925D01*
X157304575Y-131156325D02*
X158523776Y-131156325D01*
X158091976Y-129835525D02*
X158523776Y-129835525D01*
X154180376Y-128159125D02*
X154434376Y-128159125D01*
X155882176Y-132959725D02*
X156110776Y-132959725D01*
X156720376Y-132146925D02*
X158320575Y-132146925D01*
X155526575Y-130622925D02*
X155755176Y-130622925D01*
X154713776Y-128971925D02*
X154916976Y-128971925D01*
X154739176Y-129835525D02*
X154993176Y-129835525D01*
X157990376Y-129987925D02*
X158523776Y-129987925D01*
X155196376Y-127574925D02*
X155450376Y-127574925D01*
X155882176Y-130826125D02*
X157355376Y-130826125D01*
X155170976Y-128209925D02*
X155374176Y-128209925D01*
X157025176Y-131638925D02*
X158523776Y-131638925D01*
X154002575Y-128260725D02*
X154256575Y-128260725D01*
X153850176Y-130546725D02*
X154002575Y-130546725D01*
X156237776Y-130191125D02*
X157736376Y-130191125D01*
X157456976Y-129505325D02*
X158142776Y-129505325D01*
X158269776Y-129022725D02*
X158396776Y-129022725D01*
X158422176Y-129251325D02*
X158523776Y-129251325D01*
X156440976Y-132629525D02*
X157456976Y-132629525D01*
X153951776Y-130343525D02*
X154129575Y-130343525D01*
X155882176Y-131232525D02*
X157126776Y-131232525D01*
X155780575Y-127625725D02*
X155907575Y-127625725D01*
X153062776Y-130368925D02*
X153189776Y-130368925D01*
X157126776Y-128159125D02*
X157355376Y-128159125D01*
X155780575Y-128717925D02*
X155907575Y-128717925D01*
X156567976Y-132400925D02*
X157863376Y-132400925D01*
X155323376Y-130724525D02*
X155755176Y-130724525D01*
X153265976Y-131943725D02*
X155755176Y-131943725D01*
X155755176Y-129251325D02*
X155882176Y-129251325D01*
X154180376Y-129937125D02*
X154358176Y-129937125D01*
X155882176Y-132883525D02*
X156136176Y-132883525D01*
X155399575Y-127447925D02*
X155907575Y-127447925D01*
X154485176Y-127981325D02*
X154739176Y-127981325D01*
X153062776Y-131613525D02*
X153189776Y-131613525D01*
X155882176Y-130495925D02*
X157558575Y-130495925D01*
X153392976Y-128616325D02*
X153646976Y-128616325D01*
X154993176Y-130927725D02*
X155755176Y-130927725D01*
X156847376Y-129860925D02*
X157914176Y-129860925D01*
X154967776Y-128565525D02*
X155145575Y-128565525D01*
X153824776Y-130572125D02*
X153977176Y-130572125D01*
X155374176Y-127473325D02*
X155907575Y-127473325D01*
X155475776Y-130267325D02*
X155729776Y-130267325D01*
X153062776Y-129225925D02*
X153189776Y-129225925D01*
X155882176Y-133086725D02*
X156034575Y-133086725D01*
X158498376Y-129149725D02*
X158523776Y-129149725D01*
X153062776Y-129403725D02*
X153189776Y-129403725D01*
X155780575Y-127676525D02*
X155907575Y-127676525D01*
X155882176Y-130699125D02*
X157431575Y-130699125D01*
X156034575Y-133315325D02*
X156288575Y-133315325D01*
X157202976Y-129632325D02*
X158066575Y-129632325D01*
X154104176Y-130038725D02*
X154307376Y-130038725D01*
X155780575Y-127524125D02*
X155907575Y-127524125D01*
X153062776Y-130902325D02*
X153189776Y-130902325D01*
X156923575Y-128032125D02*
X157152176Y-128032125D01*
X156491776Y-127778125D02*
X156745776Y-127778125D01*
X154586776Y-127930525D02*
X154840776Y-127930525D01*
X155755176Y-129683125D02*
X155882176Y-129683125D01*
X157964976Y-128667125D02*
X158193575Y-128667125D01*
X158422176Y-129276725D02*
X158523776Y-129276725D01*
X153850176Y-130495925D02*
X154027976Y-130495925D01*
X153418376Y-131283325D02*
X153570776Y-131283325D01*
X157380776Y-131029325D02*
X158523776Y-131029325D01*
X155729776Y-130419725D02*
X155780575Y-130419725D01*
X155094776Y-128336925D02*
X155297976Y-128336925D01*
X155755176Y-129632325D02*
X155882176Y-129632325D01*
X157837976Y-129276725D02*
X158269776Y-129276725D01*
X153062776Y-129683125D02*
X153189776Y-129683125D01*
X157507776Y-130800725D02*
X158523776Y-130800725D01*
X155120176Y-128286125D02*
X155323376Y-128286125D01*
X156720376Y-132172325D02*
X158244376Y-132172325D01*
X155882176Y-130775325D02*
X157380776Y-130775325D01*
X157406176Y-129530725D02*
X158117376Y-129530725D01*
X157837976Y-128590925D02*
X158091976Y-128590925D01*
X154739176Y-128946525D02*
X154942376Y-128946525D01*
X156618776Y-127854325D02*
X156872776Y-127854325D01*
X155882176Y-130648325D02*
X157456976Y-130648325D01*
X158269776Y-129505325D02*
X158523776Y-129505325D01*
X153418376Y-131257925D02*
X153596176Y-131257925D01*
X156186976Y-133086725D02*
X156694976Y-133086725D01*
X156491776Y-132553325D02*
X157609376Y-132553325D01*
X157456976Y-128362325D02*
X157710976Y-128362325D01*
X155882176Y-132731125D02*
X156237776Y-132731125D01*
X154332776Y-129708525D02*
X154485176Y-129708525D01*
X154332776Y-129683125D02*
X154739176Y-129683125D01*
X153545376Y-131080125D02*
X153697776Y-131080125D01*
X154942376Y-128641725D02*
X155120176Y-128641725D01*
X157482376Y-130851525D02*
X158523776Y-130851525D01*
X153062776Y-131969125D02*
X153164376Y-131969125D01*
X153062776Y-130114925D02*
X153189776Y-130114925D01*
X155882176Y-131359525D02*
X157050575Y-131359525D01*
X157990376Y-130013325D02*
X158523776Y-130013325D01*
X154180376Y-132654925D02*
X155755176Y-132654925D01*
X156339376Y-132807325D02*
X157152176Y-132807325D01*
X153494575Y-132248525D02*
X155755176Y-132248525D01*
X155983776Y-127473325D02*
X156237776Y-127473325D01*
X155882176Y-132705725D02*
X156263176Y-132705725D01*
X155755176Y-129200525D02*
X155882176Y-129200525D01*
X153062776Y-129200525D02*
X153189776Y-129200525D01*
X155780575Y-128362325D02*
X155907575Y-128362325D01*
X155450376Y-127701925D02*
X155653575Y-127701925D01*
X155196376Y-128184525D02*
X155374176Y-128184525D01*
X155780575Y-127701925D02*
X155907575Y-127701925D01*
X155882176Y-131334125D02*
X157050575Y-131334125D01*
X155755176Y-129479925D02*
X155882176Y-129479925D01*
X154180376Y-131384925D02*
X155755176Y-131384925D01*
X155399575Y-127803525D02*
X155602776Y-127803525D01*
X155628176Y-130546725D02*
X155755176Y-130546725D01*
X153062776Y-129657725D02*
X153189776Y-129657725D01*
X154281976Y-128108325D02*
X154510575Y-128108325D01*
X156288575Y-127651125D02*
X156517176Y-127651125D01*
X155043976Y-127651125D02*
X155297976Y-127651125D01*
X156923575Y-131816725D02*
X158523776Y-131816725D01*
X153392976Y-131842125D02*
X155755176Y-131842125D01*
X156440976Y-127752725D02*
X156694976Y-127752725D01*
X153596176Y-132324725D02*
X155755176Y-132324725D01*
X154002575Y-129403725D02*
X154256575Y-129403725D01*
X156466376Y-132578725D02*
X157533176Y-132578725D01*
X155882176Y-131664325D02*
X156872776Y-131664325D01*
X156110776Y-133213725D02*
X156466376Y-133213725D01*
X156669575Y-132248525D02*
X158142776Y-132248525D01*
X155882176Y-132375525D02*
X156440976Y-132375525D01*
X157634776Y-128463925D02*
X157863376Y-128463925D01*
X153062776Y-130851525D02*
X153189776Y-130851525D01*
X155780575Y-128667125D02*
X155907575Y-128667125D01*
X153062776Y-129860925D02*
X153189776Y-129860925D01*
X157837976Y-130267325D02*
X158523776Y-130267325D01*
X155755176Y-129403725D02*
X155882176Y-129403725D01*
X153062776Y-129302125D02*
X153189776Y-129302125D01*
X155780575Y-128057525D02*
X155907575Y-128057525D01*
X157075976Y-131537325D02*
X158523776Y-131537325D01*
X153062776Y-130699125D02*
X153189776Y-130699125D01*
X155882176Y-132807325D02*
X156186976Y-132807325D01*
X156948976Y-129784725D02*
X157964976Y-129784725D01*
X154586776Y-129251325D02*
X154764575Y-129251325D01*
X157761776Y-130394325D02*
X158523776Y-130394325D01*
X153062776Y-131334125D02*
X153189776Y-131334125D01*
X153773976Y-130648325D02*
X153951776Y-130648325D01*
X154942376Y-133086725D02*
X155755176Y-133086725D01*
X158472976Y-129175125D02*
X158523776Y-129175125D01*
X154840776Y-133035925D02*
X155755176Y-133035925D01*
X155882176Y-131156325D02*
X157152176Y-131156325D01*
X153723176Y-130749925D02*
X153875575Y-130749925D01*
X158447575Y-129200525D02*
X158523776Y-129200525D01*
X157685575Y-129352925D02*
X158218976Y-129352925D01*
X154078776Y-130140325D02*
X154231176Y-130140325D01*
X153977176Y-130292725D02*
X154154976Y-130292725D01*
X156440976Y-132654925D02*
X157406176Y-132654925D01*
X156059976Y-127524125D02*
X156313976Y-127524125D01*
X156186976Y-133061325D02*
X156720376Y-133061325D01*
X156009176Y-130343525D02*
X157634776Y-130343525D01*
X157812575Y-130292725D02*
X158523776Y-130292725D01*
X155018575Y-128438525D02*
X155221776Y-128438525D01*
X155882176Y-132756525D02*
X156212376Y-132756525D01*
X155247176Y-133289925D02*
X155755176Y-133289925D01*
X155882176Y-130622925D02*
X157482376Y-130622925D01*
X155755176Y-130038725D02*
X155882176Y-130038725D01*
X157609376Y-130648325D02*
X158523776Y-130648325D01*
X157507776Y-128387725D02*
X157736376Y-128387725D01*
X155780575Y-127778125D02*
X155907575Y-127778125D01*
X154434376Y-129479925D02*
X154612176Y-129479925D01*
X157253776Y-128235325D02*
X157482376Y-128235325D01*
X155755176Y-128997325D02*
X155882176Y-128997325D01*
X158168176Y-129683125D02*
X158523776Y-129683125D01*
X153240575Y-131613525D02*
X153392976Y-131613525D01*
X155882176Y-131613525D02*
X156898176Y-131613525D01*
X156288575Y-132908925D02*
X156974376Y-132908925D01*
X154358176Y-129606925D02*
X154586776Y-129606925D01*
X153062776Y-129124325D02*
X153189776Y-129124325D01*
X157304575Y-129581525D02*
X158091976Y-129581525D01*
X157736376Y-130419725D02*
X158523776Y-130419725D01*
X157558575Y-130749925D02*
X158523776Y-130749925D01*
X157025176Y-128108325D02*
X157279176Y-128108325D01*
X157228376Y-131283325D02*
X158523776Y-131283325D01*
X156059976Y-133289925D02*
X156339376Y-133289925D01*
X153062776Y-131029325D02*
X153189776Y-131029325D01*
X158193575Y-129632325D02*
X158523776Y-129632325D01*
X155043976Y-133162925D02*
X155755176Y-133162925D01*
X156161575Y-130241925D02*
X157710976Y-130241925D01*
X155882176Y-131689725D02*
X156847376Y-131689725D01*
X157914176Y-128641725D02*
X158168176Y-128641725D01*
X155882176Y-131892925D02*
X156720376Y-131892925D01*
X153062776Y-131384925D02*
X153189776Y-131384925D01*
X155882176Y-130800725D02*
X157380776Y-130800725D01*
X154078776Y-131461125D02*
X155755176Y-131461125D01*
X155882176Y-130521325D02*
X157533176Y-130521325D01*
X157329976Y-128286125D02*
X157583976Y-128286125D01*
X155780575Y-128209925D02*
X155907575Y-128209925D01*
X156872776Y-129835525D02*
X157939575Y-129835525D01*
X155475776Y-130648325D02*
X155755176Y-130648325D01*
X154129575Y-130064125D02*
X154281976Y-130064125D01*
X153723176Y-130724525D02*
X153900976Y-130724525D01*
X154129575Y-132629525D02*
X155755176Y-132629525D01*
X153824776Y-130597525D02*
X153977176Y-130597525D01*
X157710976Y-130495925D02*
X158523776Y-130495925D01*
X153062776Y-128921125D02*
X158472976Y-128921125D01*
X153469176Y-131207125D02*
X153621575Y-131207125D01*
X153062776Y-131511925D02*
X153189776Y-131511925D01*
X156364776Y-132756525D02*
X157253776Y-132756525D01*
X158091976Y-128743325D02*
X158320575Y-128743325D01*
X155755176Y-129606925D02*
X155882176Y-129606925D01*
X155755176Y-129327525D02*
X155882176Y-129327525D01*
X153443776Y-131232525D02*
X153596176Y-131232525D01*
X155501176Y-127625725D02*
X155704376Y-127625725D01*
X157533176Y-130775325D02*
X158523776Y-130775325D01*
X155424976Y-127752725D02*
X155628176Y-127752725D01*
X156923575Y-129810125D02*
X157964976Y-129810125D01*
X157126776Y-129683125D02*
X158015776Y-129683125D01*
X155094776Y-127625725D02*
X155348776Y-127625725D01*
X153062776Y-128794125D02*
X153342176Y-128794125D01*
X157177575Y-131384925D02*
X158523776Y-131384925D01*
X154205776Y-129530725D02*
X154586776Y-129530725D01*
X155475776Y-133416925D02*
X155755176Y-133416925D01*
X153062776Y-130622925D02*
X153189776Y-130622925D01*
X157202976Y-131359525D02*
X158523776Y-131359525D01*
X157533176Y-129454525D02*
X158168176Y-129454525D01*
X154916976Y-129937125D02*
X155170976Y-129937125D01*
X154281976Y-129784725D02*
X154434376Y-129784725D01*
X153062776Y-131562725D02*
X153189776Y-131562725D01*
X154205776Y-129886325D02*
X154383575Y-129886325D01*
X155780575Y-128286125D02*
X155907575Y-128286125D01*
X154840776Y-131003925D02*
X155755176Y-131003925D01*
X154535976Y-129327525D02*
X154713776Y-129327525D01*
X154027976Y-131486525D02*
X155755176Y-131486525D01*
X153596176Y-130953125D02*
X153773976Y-130953125D01*
X155729776Y-130495925D02*
X155755176Y-130495925D01*
X155882176Y-131791325D02*
X156796575Y-131791325D01*
X153062776Y-131359525D02*
X153189776Y-131359525D01*
X157634776Y-130597525D02*
X158523776Y-130597525D01*
X154561376Y-129733925D02*
X154815376Y-129733925D01*
X153748575Y-128413125D02*
X154002575Y-128413125D01*
X154332776Y-132731125D02*
X155755176Y-132731125D01*
X155882176Y-131562725D02*
X156923575Y-131562725D01*
X155882176Y-132858125D02*
X156161575Y-132858125D01*
X155755176Y-129860925D02*
X155882176Y-129860925D01*
X156821976Y-127981325D02*
X157075976Y-127981325D01*
X153062776Y-130292725D02*
X153189776Y-130292725D01*
X154561376Y-129302125D02*
X154739176Y-129302125D01*
X153062776Y-130800725D02*
X153189776Y-130800725D01*
X153469176Y-131181725D02*
X153621575Y-131181725D01*
X158168176Y-129098925D02*
X158371376Y-129098925D01*
X155882176Y-131003925D02*
X157253776Y-131003925D01*
X153672376Y-130826125D02*
X153850176Y-130826125D01*
X154307376Y-129581525D02*
X154561376Y-129581525D01*
X153900976Y-131562725D02*
X155755176Y-131562725D01*
X155882176Y-132553325D02*
X156339376Y-132553325D01*
X155882176Y-131943725D02*
X156694976Y-131943725D01*
X157888776Y-130165725D02*
X158523776Y-130165725D01*
X154866176Y-133061325D02*
X155755176Y-133061325D01*
X154637575Y-131130925D02*
X155755176Y-131130925D01*
X155145575Y-127600325D02*
X155399575Y-127600325D01*
X156948976Y-131765925D02*
X158523776Y-131765925D01*
X153062776Y-130775325D02*
X153189776Y-130775325D01*
X155755176Y-130114925D02*
X155882176Y-130114925D01*
X155755176Y-129657725D02*
X155882176Y-129657725D01*
X154459776Y-129429125D02*
X154662976Y-129429125D01*
X153799376Y-132451725D02*
X155755176Y-132451725D01*
X153265976Y-131918325D02*
X155755176Y-131918325D01*
X153062776Y-130826125D02*
X153189776Y-130826125D01*
X155882176Y-132146925D02*
X156593376Y-132146925D01*
X154688376Y-129073525D02*
X154866176Y-129073525D01*
X154993176Y-128514725D02*
X155196376Y-128514725D01*
X153494575Y-131156325D02*
X153646976Y-131156325D01*
X153062776Y-130673725D02*
X153189776Y-130673725D01*
X158142776Y-129759325D02*
X158523776Y-129759325D01*
X154256575Y-131334125D02*
X155755176Y-131334125D01*
X157329976Y-131130925D02*
X158523776Y-131130925D01*
X157126776Y-131461125D02*
X158523776Y-131461125D01*
X154612176Y-129200525D02*
X154789976Y-129200525D01*
X155882176Y-132426325D02*
X156415575Y-132426325D01*
X155780575Y-128514725D02*
X155907575Y-128514725D01*
X154612176Y-132908925D02*
X155755176Y-132908925D01*
X156161575Y-133112125D02*
X156644176Y-133112125D01*
X155882176Y-132985125D02*
X156085376Y-132985125D01*
X153062776Y-129048125D02*
X153189776Y-129048125D01*
X153062776Y-129505325D02*
X153189776Y-129505325D01*
X154688376Y-129048125D02*
X154866176Y-129048125D01*
X153342176Y-131410325D02*
X153494575Y-131410325D01*
X154205776Y-129911725D02*
X154383575Y-129911725D01*
X154154976Y-130013325D02*
X154307376Y-130013325D01*
X153672376Y-132350125D02*
X155755176Y-132350125D01*
X153062776Y-130572125D02*
X153189776Y-130572125D01*
X155755176Y-129149725D02*
X155882176Y-129149725D01*
X153062776Y-129911725D02*
X153189776Y-129911725D01*
X155882176Y-133061325D02*
X156034575Y-133061325D01*
X153062776Y-131740525D02*
X153316776Y-131740525D01*
X155348776Y-127879725D02*
X155551976Y-127879725D01*
X154053376Y-130165725D02*
X154231176Y-130165725D01*
X157685575Y-130521325D02*
X158523776Y-130521325D01*
X153062776Y-130013325D02*
X153189776Y-130013325D01*
X153646976Y-131715125D02*
X155755176Y-131715125D01*
X153494575Y-131105525D02*
X153672376Y-131105525D01*
X153392976Y-129048125D02*
X153646976Y-129048125D01*
X155755176Y-130165725D02*
X155882176Y-130165725D01*
X156237776Y-132985125D02*
X156872776Y-132985125D01*
X158498376Y-129124325D02*
X158523776Y-129124325D01*
X158320575Y-129429125D02*
X158523776Y-129429125D01*
X155882176Y-131461125D02*
X156974376Y-131461125D01*
X154942376Y-128590925D02*
X155145575Y-128590925D01*
X154739176Y-128997325D02*
X154891575Y-128997325D01*
X154840776Y-128794125D02*
X155018575Y-128794125D01*
X154078776Y-130114925D02*
X154256575Y-130114925D01*
X155882176Y-133137525D02*
X156009176Y-133137525D01*
X154586776Y-131156325D02*
X155755176Y-131156325D01*
X157888776Y-130191125D02*
X158523776Y-130191125D01*
X158066575Y-129149725D02*
X158345976Y-129149725D01*
X154256575Y-129810125D02*
X154434376Y-129810125D01*
X155882176Y-131308725D02*
X157075976Y-131308725D01*
X157736376Y-129327525D02*
X158244376Y-129327525D01*
X155882176Y-130445125D02*
X157583976Y-130445125D01*
X157507776Y-130826125D02*
X158523776Y-130826125D01*
X153773976Y-129276725D02*
X154027976Y-129276725D01*
X155780575Y-127600325D02*
X155907575Y-127600325D01*
X156898176Y-131867525D02*
X158523776Y-131867525D01*
X155780575Y-127930525D02*
X155907575Y-127930525D01*
X156212376Y-133010525D02*
X156821976Y-133010525D01*
X153062776Y-129835525D02*
X153189776Y-129835525D01*
X153062776Y-128895725D02*
X158498376Y-128895725D01*
X153062776Y-130978525D02*
X153189776Y-130978525D01*
X153697776Y-132375525D02*
X155755176Y-132375525D01*
X157660176Y-128489325D02*
X157914176Y-128489325D01*
X153824776Y-128362325D02*
X154078776Y-128362325D01*
X153443776Y-131816725D02*
X155755176Y-131816725D01*
X153062776Y-131943725D02*
X153189776Y-131943725D01*
X153799376Y-130622925D02*
X153951776Y-130622925D01*
X155399575Y-133366125D02*
X155755176Y-133366125D01*
X153062776Y-130191125D02*
X153189776Y-130191125D01*
X153342176Y-132172325D02*
X155755176Y-132172325D01*
X154789976Y-131054725D02*
X155755176Y-131054725D01*
X158193575Y-129073525D02*
X158396776Y-129073525D01*
X155856776Y-130419725D02*
X157583976Y-130419725D01*
X155780575Y-128438525D02*
X155907575Y-128438525D01*
X153367575Y-131359525D02*
X153519976Y-131359525D01*
X156644176Y-132299325D02*
X158041176Y-132299325D01*
X153062776Y-131791325D02*
X153291376Y-131791325D01*
X153875575Y-132477125D02*
X155755176Y-132477125D01*
X155882176Y-131029325D02*
X157228376Y-131029325D01*
X154231176Y-129860925D02*
X154408976Y-129860925D01*
X155755176Y-129962525D02*
X155882176Y-129962525D01*
X158117376Y-129784725D02*
X158523776Y-129784725D01*
X153926376Y-128311525D02*
X154180376Y-128311525D01*
X153062776Y-130064125D02*
X153189776Y-130064125D01*
X157837976Y-130241925D02*
X158523776Y-130241925D01*
X154180376Y-129505325D02*
X154612176Y-129505325D01*
X157050575Y-131613525D02*
X158523776Y-131613525D01*
X153062776Y-130495925D02*
X153189776Y-130495925D01*
X157406176Y-130978525D02*
X158523776Y-130978525D01*
X155399575Y-127778125D02*
X155602776Y-127778125D01*
X158066575Y-129860925D02*
X158523776Y-129860925D01*
X156694976Y-127905125D02*
X156948976Y-127905125D01*
X155882176Y-130724525D02*
X157406176Y-130724525D01*
X155882176Y-132197725D02*
X156542575Y-132197725D01*
X153062776Y-131410325D02*
X153189776Y-131410325D01*
X153240575Y-131588125D02*
X153392976Y-131588125D01*
X156034575Y-133340725D02*
X156263176Y-133340725D01*
X155755176Y-128946525D02*
X155882176Y-128946525D01*
X155882176Y-132248525D02*
X156517176Y-132248525D01*
X154053376Y-129429125D02*
X154281976Y-129429125D01*
X155882176Y-130953125D02*
X157279176Y-130953125D01*
X153265976Y-131562725D02*
X153418376Y-131562725D01*
X153697776Y-130800725D02*
X153850176Y-130800725D01*
X155145575Y-133213725D02*
X155755176Y-133213725D01*
X155882176Y-131207125D02*
X157126776Y-131207125D01*
X155780575Y-128463925D02*
X155907575Y-128463925D01*
X155755176Y-129454525D02*
X155882176Y-129454525D01*
X155882176Y-130902325D02*
X157304575Y-130902325D01*
X156288575Y-132883525D02*
X157050575Y-132883525D01*
X154307376Y-129733925D02*
X154485176Y-129733925D01*
X155297976Y-127955925D02*
X155501176Y-127955925D01*
X157406176Y-131003925D02*
X158523776Y-131003925D01*
X158320575Y-129454525D02*
X158523776Y-129454525D01*
X157812575Y-129302125D02*
X158244376Y-129302125D01*
X155780575Y-128159125D02*
X155907575Y-128159125D01*
X153062776Y-129073525D02*
X153189776Y-129073525D01*
X155882176Y-133035925D02*
X156059976Y-133035925D01*
X153062776Y-130419725D02*
X153189776Y-130419725D01*
X153062776Y-129937125D02*
X153189776Y-129937125D01*
X153062776Y-129632325D02*
X153189776Y-129632325D01*
X155043976Y-130013325D02*
X155297976Y-130013325D01*
X153062776Y-129886325D02*
X153189776Y-129886325D01*
X153418376Y-132223125D02*
X155755176Y-132223125D01*
X155780575Y-127574925D02*
X155907575Y-127574925D01*
X155755176Y-129733925D02*
X155882176Y-129733925D01*
X153240575Y-131969125D02*
X155755176Y-131969125D01*
X157787176Y-128565525D02*
X158041176Y-128565525D01*
X153062776Y-131689725D02*
X153342176Y-131689725D01*
X153545376Y-131029325D02*
X153723176Y-131029325D01*
X157329976Y-131105525D02*
X158523776Y-131105525D01*
X153900976Y-130419725D02*
X154078776Y-130419725D01*
X156745776Y-132121525D02*
X158320575Y-132121525D01*
X153951776Y-129378325D02*
X154205776Y-129378325D01*
X157939575Y-130089525D02*
X158523776Y-130089525D01*
X154713776Y-129022725D02*
X154891575Y-129022725D01*
X158269776Y-129530725D02*
X158523776Y-129530725D01*
X157964976Y-129200525D02*
X158320575Y-129200525D01*
X155755176Y-130089525D02*
X155882176Y-130089525D01*
X155780575Y-127828925D02*
X155907575Y-127828925D01*
X154002575Y-130267325D02*
X154154976Y-130267325D01*
X153596176Y-131740525D02*
X155755176Y-131740525D01*
X154688376Y-129810125D02*
X154942376Y-129810125D01*
X153062776Y-128819525D02*
X158447575Y-128819525D01*
X155882176Y-132604125D02*
X156313976Y-132604125D01*
X155780575Y-128032125D02*
X155907575Y-128032125D01*
X155780575Y-128616325D02*
X155907575Y-128616325D01*
X156593376Y-130013325D02*
X157837976Y-130013325D01*
X153062776Y-129175125D02*
X153189776Y-129175125D01*
X154408976Y-128032125D02*
X154662976Y-128032125D01*
X155780575Y-127803525D02*
X155907575Y-127803525D01*
X155882176Y-132273925D02*
X156517176Y-132273925D01*
X155882176Y-131105525D02*
X157202976Y-131105525D01*
X154789976Y-129860925D02*
X155043976Y-129860925D01*
X155577376Y-127346325D02*
X156034575Y-127346325D01*
X156542575Y-132477125D02*
X157736376Y-132477125D01*
X154408976Y-132781925D02*
X155755176Y-132781925D01*
X155374176Y-133340725D02*
X155755176Y-133340725D01*
X155678976Y-130521325D02*
X155755176Y-130521325D01*
X155882176Y-131765925D02*
X156796575Y-131765925D01*
X155882176Y-132299325D02*
X156491776Y-132299325D01*
X157888776Y-129251325D02*
X158269776Y-129251325D01*
X155882176Y-131080125D02*
X157202976Y-131080125D01*
X154662976Y-129098925D02*
X154840776Y-129098925D01*
X157177575Y-129657725D02*
X158041176Y-129657725D01*
X158168176Y-128794125D02*
X158422176Y-128794125D01*
X157533176Y-128413125D02*
X157787176Y-128413125D01*
X153062776Y-131054725D02*
X153189776Y-131054725D01*
X154942376Y-129962525D02*
X155196376Y-129962525D01*
X155882176Y-130597525D02*
X157482376Y-130597525D01*
X153062776Y-130445125D02*
X153189776Y-130445125D01*
X157482376Y-129479925D02*
X158142776Y-129479925D01*
X153062776Y-129530725D02*
X153189776Y-129530725D01*
X156364776Y-132781925D02*
X157228376Y-132781925D01*
X156999776Y-131664325D02*
X158523776Y-131664325D01*
X153062776Y-131765925D02*
X153291376Y-131765925D01*
X154510575Y-129352925D02*
X154688376Y-129352925D01*
X157202976Y-131334125D02*
X158523776Y-131334125D01*
X155450376Y-133391525D02*
X155755176Y-133391525D01*
X153062776Y-131892925D02*
X153215176Y-131892925D01*
X156136176Y-133137525D02*
X156593376Y-133137525D01*
X156898176Y-131842125D02*
X158523776Y-131842125D01*
X155501176Y-127651125D02*
X155678976Y-127651125D01*
X153799376Y-131613525D02*
X155755176Y-131613525D01*
X155882176Y-133264525D02*
X155932976Y-133264525D01*
X156415575Y-132680325D02*
X157406176Y-132680325D01*
X155755176Y-130064125D02*
X155882176Y-130064125D01*
X155704376Y-130394325D02*
X155882176Y-130394325D01*
X155120176Y-130064125D02*
X155374176Y-130064125D01*
X153570776Y-131054725D02*
X153697776Y-131054725D01*
X156567976Y-132426325D02*
X157812575Y-132426325D01*
X157812575Y-130318125D02*
X158523776Y-130318125D01*
X156085376Y-130292725D02*
X157660176Y-130292725D01*
X158168176Y-129708525D02*
X158523776Y-129708525D01*
X156110776Y-127549525D02*
X156364776Y-127549525D01*
X156847376Y-131943725D02*
X158523776Y-131943725D01*
X153494575Y-131791325D02*
X155755176Y-131791325D01*
X155780575Y-127955925D02*
X155907575Y-127955925D01*
X154408976Y-131257925D02*
X155755176Y-131257925D01*
X156390176Y-132731125D02*
X157304575Y-132731125D01*
X155755176Y-127244725D02*
X155856776Y-127244725D01*
X155755176Y-129302125D02*
X155882176Y-129302125D01*
X155450376Y-127727325D02*
X155653575Y-127727325D01*
X155755176Y-129708525D02*
X155882176Y-129708525D01*
X155551976Y-127524125D02*
X155755176Y-127524125D01*
X153799376Y-128387725D02*
X154053376Y-128387725D01*
X154637575Y-129175125D02*
X154789976Y-129175125D01*
X155882176Y-131740525D02*
X156821976Y-131740525D01*
X153519976Y-129124325D02*
X153773976Y-129124325D01*
X155602776Y-130572125D02*
X155755176Y-130572125D01*
X156390176Y-132705725D02*
X157329976Y-132705725D01*
X155882176Y-130673725D02*
X157456976Y-130673725D01*
X157380776Y-128311525D02*
X157609376Y-128311525D01*
X155755176Y-129759325D02*
X155882176Y-129759325D01*
X153062776Y-130267325D02*
X153189776Y-130267325D01*
X154180376Y-131410325D02*
X155755176Y-131410325D01*
X154358176Y-129632325D02*
X154637575Y-129632325D01*
X155323376Y-127498725D02*
X155907575Y-127498725D01*
X156212376Y-130216525D02*
X157710976Y-130216525D01*
X158320575Y-128997325D02*
X158396776Y-128997325D01*
X154713776Y-127854325D02*
X154967776Y-127854325D01*
X158015776Y-129175125D02*
X158320575Y-129175125D01*
X157406176Y-128336925D02*
X157660176Y-128336925D01*
X156618776Y-132350125D02*
X157939575Y-132350125D01*
X155323376Y-127905125D02*
X155526575Y-127905125D01*
X155145575Y-128235325D02*
X155348776Y-128235325D01*
X155755176Y-129505325D02*
X155882176Y-129505325D01*
X155602776Y-130343525D02*
X155882176Y-130343525D01*
X155882176Y-133162925D02*
X155983776Y-133162925D01*
X154891575Y-130978525D02*
X155755176Y-130978525D01*
X157025176Y-129759325D02*
X157990376Y-129759325D01*
X156009176Y-133366125D02*
X156212376Y-133366125D01*
X153215176Y-128717925D02*
X153469176Y-128717925D01*
X155882176Y-130978525D02*
X157253776Y-130978525D01*
X157456976Y-130927725D02*
X158523776Y-130927725D01*
X153265976Y-128971925D02*
X153519976Y-128971925D01*
X155475776Y-127676525D02*
X155678976Y-127676525D01*
X154891575Y-128692525D02*
X155069376Y-128692525D01*
X156821976Y-131969125D02*
X158523776Y-131969125D01*
X155297976Y-133315325D02*
X155755176Y-133315325D01*
X155755176Y-129530725D02*
X155882176Y-129530725D01*
X157634776Y-129403725D02*
X158193575Y-129403725D01*
X154789976Y-127803525D02*
X155043976Y-127803525D01*
X154815376Y-133010525D02*
X155755176Y-133010525D01*
X155882176Y-131816725D02*
X156771176Y-131816725D01*
X154231176Y-132680325D02*
X155755176Y-132680325D01*
X154332776Y-132756525D02*
X155755176Y-132756525D01*
X153062776Y-131003925D02*
X153189776Y-131003925D01*
X157710976Y-130470525D02*
X158523776Y-130470525D01*
X156872776Y-128006725D02*
X157126776Y-128006725D01*
X155755176Y-129175125D02*
X155882176Y-129175125D01*
X155551976Y-130318125D02*
X155882176Y-130318125D01*
X158193575Y-129657725D02*
X158523776Y-129657725D01*
X156517176Y-132527925D02*
X157660176Y-132527925D01*
X155755176Y-129276725D02*
X155882176Y-129276725D01*
X156694976Y-132197725D02*
X158218976Y-132197725D01*
X153062776Y-128971925D02*
X153189776Y-128971925D01*
X155882176Y-132654925D02*
X156288575Y-132654925D01*
X155907575Y-130394325D02*
X157609376Y-130394325D01*
X155755176Y-129987925D02*
X155882176Y-129987925D01*
X158066575Y-129886325D02*
X158523776Y-129886325D01*
X154637575Y-129124325D02*
X154840776Y-129124325D01*
X156263176Y-132934325D02*
X156948976Y-132934325D01*
X154307376Y-131308725D02*
X155755176Y-131308725D01*
X155755176Y-129810125D02*
X155882176Y-129810125D01*
X155882176Y-131511925D02*
X156948976Y-131511925D01*
X153977176Y-131511925D02*
X155755176Y-131511925D01*
X155882176Y-132477125D02*
X156390176Y-132477125D01*
X156669575Y-129962525D02*
X157863376Y-129962525D01*
X156212376Y-133035925D02*
X156796575Y-133035925D01*
X155882176Y-131181725D02*
X157152176Y-131181725D01*
X153646976Y-128463925D02*
X153900976Y-128463925D01*
X153062776Y-129276725D02*
X153189776Y-129276725D01*
X154612176Y-129759325D02*
X154866176Y-129759325D01*
X154281976Y-132705725D02*
X155755176Y-132705725D01*
X153596176Y-129175125D02*
X153850176Y-129175125D01*
X153773976Y-130673725D02*
X153926376Y-130673725D01*
X157558575Y-129429125D02*
X158168176Y-129429125D01*
X155882176Y-132400925D02*
X156440976Y-132400925D01*
X153062776Y-129479925D02*
X153189776Y-129479925D01*
X154866176Y-128768725D02*
X155043976Y-128768725D01*
X153062776Y-131156325D02*
X153189776Y-131156325D01*
X153062776Y-128997325D02*
X153189776Y-128997325D01*
X156542575Y-132451725D02*
X157787176Y-132451725D01*
X153062776Y-131842125D02*
X153240575Y-131842125D01*
X153062776Y-130521325D02*
X153189776Y-130521325D01*
X154459776Y-131232525D02*
X155755176Y-131232525D01*
X153062776Y-129987925D02*
X153189776Y-129987925D01*
X155882176Y-131918325D02*
X156720376Y-131918325D01*
X158345976Y-129378325D02*
X158523776Y-129378325D01*
X153316776Y-128667125D02*
X153570776Y-128667125D01*
X153062776Y-131308725D02*
X153189776Y-131308725D01*
X156796575Y-127955925D02*
X157025176Y-127955925D01*
X154891575Y-128717925D02*
X155069376Y-128717925D01*
X157075976Y-131562725D02*
X158523776Y-131562725D01*
X155755176Y-129581525D02*
X155882176Y-129581525D01*
X156009176Y-133391525D02*
X156161575Y-133391525D01*
X156161575Y-127574925D02*
X156390176Y-127574925D01*
X155882176Y-132121525D02*
X156593376Y-132121525D01*
X158091976Y-129124325D02*
X158345976Y-129124325D01*
X153265976Y-132121525D02*
X155755176Y-132121525D01*
X155932976Y-133493125D02*
X155983776Y-133493125D01*
X157914176Y-130140325D02*
X158523776Y-130140325D01*
X156085376Y-133239125D02*
X156440976Y-133239125D01*
X153062776Y-131080125D02*
X153189776Y-131080125D01*
X156136176Y-130267325D02*
X157685575Y-130267325D01*
X155145575Y-128260725D02*
X155323376Y-128260725D01*
X155755176Y-129886325D02*
X155882176Y-129886325D01*
X155526575Y-133442325D02*
X155755176Y-133442325D01*
X154459776Y-132832725D02*
X155755176Y-132832725D01*
X154332776Y-129657725D02*
X154688376Y-129657725D01*
X154104176Y-128209925D02*
X154358176Y-128209925D01*
X155755176Y-129124325D02*
X155882176Y-129124325D01*
X157863376Y-128616325D02*
X158117376Y-128616325D01*
X154027976Y-132553325D02*
X155755176Y-132553325D01*
X158041176Y-129911725D02*
X158523776Y-129911725D01*
X155221776Y-128108325D02*
X155424976Y-128108325D01*
X154662976Y-132934325D02*
X155755176Y-132934325D01*
X154485176Y-129403725D02*
X154662976Y-129403725D01*
X157101376Y-129708525D02*
X158015776Y-129708525D01*
X157152176Y-128184525D02*
X157406176Y-128184525D01*
X154510575Y-131207125D02*
X155755176Y-131207125D01*
X157075976Y-128133725D02*
X157329976Y-128133725D01*
X157583976Y-128438525D02*
X157837976Y-128438525D01*
X157279176Y-131207125D02*
X158523776Y-131207125D01*
X156669575Y-127879725D02*
X156898176Y-127879725D01*
X155780575Y-128692525D02*
X155907575Y-128692525D01*
X153062776Y-129022725D02*
X153189776Y-129022725D01*
X153342176Y-131435725D02*
X153494575Y-131435725D01*
X155882176Y-132908925D02*
X156136176Y-132908925D01*
X156618776Y-129987925D02*
X157837976Y-129987925D01*
X156872776Y-131892925D02*
X158523776Y-131892925D01*
X155780575Y-127981325D02*
X155907575Y-127981325D01*
X153265976Y-128692525D02*
X153519976Y-128692525D01*
X154281976Y-129759325D02*
X154459776Y-129759325D01*
X155755176Y-130191125D02*
X155882176Y-130191125D01*
X156034575Y-127498725D02*
X156288575Y-127498725D01*
X157304575Y-131181725D02*
X158523776Y-131181725D01*
X156771176Y-129886325D02*
X157914176Y-129886325D01*
X153697776Y-130775325D02*
X153875575Y-130775325D01*
X155424976Y-130673725D02*
X155755176Y-130673725D01*
X154459776Y-129454525D02*
X154637575Y-129454525D01*
X153062776Y-129708525D02*
X153189776Y-129708525D01*
X153926376Y-130394325D02*
X154104176Y-130394325D01*
X153062776Y-130140325D02*
X153189776Y-130140325D01*
X153951776Y-128286125D02*
X154205776Y-128286125D01*
X155882176Y-132578725D02*
X156313976Y-132578725D01*
X153646976Y-130876925D02*
X153799376Y-130876925D01*
X156313976Y-130165725D02*
X157736376Y-130165725D01*
X153062776Y-129352925D02*
X153189776Y-129352925D01*
X155780575Y-127651125D02*
X155907575Y-127651125D01*
X155780575Y-127549525D02*
X155907575Y-127549525D01*
X153646976Y-129200525D02*
X153900976Y-129200525D01*
X157787176Y-130343525D02*
X158523776Y-130343525D01*
X155628176Y-127320925D02*
X155983776Y-127320925D01*
X155272575Y-128032125D02*
X155475776Y-128032125D01*
X155882176Y-131638925D02*
X156872776Y-131638925D01*
X156948976Y-131791325D02*
X158523776Y-131791325D01*
X153469176Y-129098925D02*
X153723176Y-129098925D01*
X153062776Y-130597525D02*
X153189776Y-130597525D01*
X155653575Y-130368925D02*
X155882176Y-130368925D01*
X155577376Y-133467725D02*
X155755176Y-133467725D01*
X155882176Y-131588125D02*
X156898176Y-131588125D01*
X153850176Y-130521325D02*
X154027976Y-130521325D01*
X153570776Y-131003925D02*
X153748575Y-131003925D01*
X153062776Y-129606925D02*
X153189776Y-129606925D01*
X153545376Y-131765925D02*
X155755176Y-131765925D01*
X153748575Y-129251325D02*
X154002575Y-129251325D01*
X153062776Y-130318125D02*
X153189776Y-130318125D01*
X155958376Y-127447925D02*
X156186976Y-127447925D01*
X153062776Y-131105525D02*
X153189776Y-131105525D01*
X156313976Y-132858125D02*
X157075976Y-132858125D01*
X158218976Y-129606925D02*
X158523776Y-129606925D01*
X153062776Y-129454525D02*
X153189776Y-129454525D01*
X157279176Y-128260725D02*
X157533176Y-128260725D01*
X153062776Y-130038725D02*
X153189776Y-130038725D01*
X154942376Y-133112125D02*
X155755176Y-133112125D01*
X153392976Y-131334125D02*
X153545376Y-131334125D01*
X153062776Y-130241925D02*
X153189776Y-130241925D01*
X157583976Y-130673725D02*
X158523776Y-130673725D01*
X155780575Y-128235325D02*
X155907575Y-128235325D01*
X155755176Y-129073525D02*
X155882176Y-129073525D01*
X157736376Y-130445125D02*
X158523776Y-130445125D01*
X157279176Y-129606925D02*
X158066575Y-129606925D01*
X155882176Y-133239125D02*
X155932976Y-133239125D01*
X157583976Y-130699125D02*
X158523776Y-130699125D01*
X155755176Y-129378325D02*
X155882176Y-129378325D01*
X155018575Y-128463925D02*
X155221776Y-128463925D01*
X155755176Y-130241925D02*
X155882176Y-130241925D01*
X158117376Y-128768725D02*
X158371376Y-128768725D01*
X155780575Y-128565525D02*
X155907575Y-128565525D01*
X155882176Y-133112125D02*
X156009176Y-133112125D01*
X153062776Y-131867525D02*
X153240575Y-131867525D01*
X156466376Y-132604125D02*
X157507776Y-132604125D01*
X157660176Y-130572125D02*
X158523776Y-130572125D01*
X154561376Y-129276725D02*
X154739176Y-129276725D01*
X157355376Y-131080125D02*
X158523776Y-131080125D01*
X155374176Y-130699125D02*
X155755176Y-130699125D01*
X156694976Y-132223125D02*
X158193575Y-132223125D01*
X155882176Y-131283325D02*
X157075976Y-131283325D01*
X153443776Y-128590925D02*
X153697776Y-128590925D01*
X154866176Y-128743325D02*
X155043976Y-128743325D01*
X155043976Y-130902325D02*
X155755176Y-130902325D01*
X153062776Y-131537325D02*
X153189776Y-131537325D01*
X155374176Y-127854325D02*
X155577376Y-127854325D01*
X154789976Y-131029325D02*
X155755176Y-131029325D01*
X154637575Y-129784725D02*
X154891575Y-129784725D01*
X158295176Y-129479925D02*
X158523776Y-129479925D01*
X155247176Y-128057525D02*
X155450376Y-128057525D01*
X155882176Y-132629525D02*
X156288575Y-132629525D01*
X155755176Y-129225925D02*
X155882176Y-129225925D01*
X155780575Y-128743325D02*
X155907575Y-128743325D01*
X156948976Y-128057525D02*
X157202976Y-128057525D01*
X157202976Y-128209925D02*
X157456976Y-128209925D01*
X153062776Y-129098925D02*
X153189776Y-129098925D01*
X155882176Y-132451725D02*
X156390176Y-132451725D01*
X155780575Y-128006725D02*
X155907575Y-128006725D01*
X155450376Y-127422525D02*
X156161575Y-127422525D01*
X156263176Y-132959725D02*
X156898176Y-132959725D01*
X155882176Y-130470525D02*
X157558575Y-130470525D01*
X155882176Y-131054725D02*
X157228376Y-131054725D01*
X155094776Y-130038725D02*
X155348776Y-130038725D01*
X153875575Y-129327525D02*
X154129575Y-129327525D01*
X153062776Y-129581525D02*
X153189776Y-129581525D01*
X154942376Y-130953125D02*
X155755176Y-130953125D01*
X155780575Y-128184525D02*
X155907575Y-128184525D01*
X158091976Y-129810125D02*
X158523776Y-129810125D01*
X153697776Y-128438525D02*
X153951776Y-128438525D01*
X156059976Y-133264525D02*
X156364776Y-133264525D01*
X154866176Y-129911725D02*
X155120176Y-129911725D01*
X155297976Y-130165725D02*
X155551976Y-130165725D01*
X155882176Y-132934325D02*
X156110776Y-132934325D01*
X155755176Y-129429125D02*
X155882176Y-129429125D01*
X153621575Y-128489325D02*
X153875575Y-128489325D01*
X155247176Y-130140325D02*
X155501176Y-130140325D01*
X153291376Y-128997325D02*
X153545376Y-128997325D01*
X154154976Y-129962525D02*
X154332776Y-129962525D01*
X154535976Y-131181725D02*
X155755176Y-131181725D01*
X157761776Y-130368925D02*
X158523776Y-130368925D01*
X155780575Y-128768725D02*
X155907575Y-128768725D01*
X156517176Y-130038725D02*
X157812575Y-130038725D01*
X157863376Y-130216525D02*
X158523776Y-130216525D01*
X155780575Y-128540125D02*
X155907575Y-128540125D01*
X155221776Y-127549525D02*
X155475776Y-127549525D01*
X153062776Y-131918325D02*
X153215176Y-131918325D01*
X153062776Y-129810125D02*
X153189776Y-129810125D01*
X153342176Y-131384925D02*
X153519976Y-131384925D01*
X157228376Y-131308725D02*
X158523776Y-131308725D01*
X153062776Y-130927725D02*
X153189776Y-130927725D01*
X155780575Y-128794125D02*
X155907575Y-128794125D01*
X155196376Y-128159125D02*
X155399575Y-128159125D01*
X153062776Y-131816725D02*
X153265976Y-131816725D01*
X155323376Y-127930525D02*
X155526575Y-127930525D01*
X155882176Y-131842125D02*
X156771176Y-131842125D01*
X157101376Y-131511925D02*
X158523776Y-131511925D01*
X157710976Y-128514725D02*
X157964976Y-128514725D01*
X154840776Y-127778125D02*
X155094776Y-127778125D01*
X154078776Y-132604125D02*
X155755176Y-132604125D01*
X153062776Y-130343525D02*
X153189776Y-130343525D01*
X154129575Y-128184525D02*
X154383575Y-128184525D01*
X155094776Y-130851525D02*
X155755176Y-130851525D01*
X155882176Y-132223125D02*
X156542575Y-132223125D01*
X153342176Y-129022725D02*
X153596176Y-129022725D01*
X153062776Y-130470525D02*
X153189776Y-130470525D01*
X154256575Y-129835525D02*
X154408976Y-129835525D01*
X155069376Y-130876925D02*
X155755176Y-130876925D01*
X153062776Y-130648325D02*
X153189776Y-130648325D01*
X153062776Y-131588125D02*
X153189776Y-131588125D01*
X155780575Y-128489325D02*
X155907575Y-128489325D01*
X154586776Y-129225925D02*
X154764575Y-129225925D01*
X154027976Y-130191125D02*
X154205776Y-130191125D01*
X155882176Y-132680325D02*
X156263176Y-132680325D01*
X155755176Y-129911725D02*
X155882176Y-129911725D01*
X153088176Y-128768725D02*
X153392976Y-128768725D01*
X155755176Y-130267325D02*
X155882176Y-130267325D01*
X157558575Y-130724525D02*
X158523776Y-130724525D01*
X156517176Y-132502525D02*
X157685575Y-132502525D01*
X155882176Y-131257925D02*
X157101376Y-131257925D01*
X158396776Y-129302125D02*
X158523776Y-129302125D01*
X154662976Y-127879725D02*
X154916976Y-127879725D01*
X158041176Y-128717925D02*
X158295176Y-128717925D01*
X153697776Y-129225925D02*
X153951776Y-129225925D01*
X156339376Y-130140325D02*
X157761776Y-130140325D01*
X155780575Y-128311525D02*
X155907575Y-128311525D01*
X157380776Y-131054725D02*
X158523776Y-131054725D01*
X154434376Y-132807325D02*
X155755176Y-132807325D01*
X153926376Y-132502525D02*
X155755176Y-132502525D01*
X156745776Y-129911725D02*
X157888776Y-129911725D01*
X153494575Y-128565525D02*
X153748575Y-128565525D01*
X155983776Y-133416925D02*
X156110776Y-133416925D01*
X157253776Y-131232525D02*
X158523776Y-131232525D01*
X153215176Y-131638925D02*
X153367575Y-131638925D01*
X156593376Y-132375525D02*
X157939575Y-132375525D01*
X154637575Y-129149725D02*
X154815376Y-129149725D01*
X155297976Y-127981325D02*
X155501176Y-127981325D01*
X155882176Y-132781925D02*
X156212376Y-132781925D01*
X154027976Y-130216525D02*
X154205776Y-130216525D01*
X154104176Y-130089525D02*
X154256575Y-130089525D01*
X156974376Y-131740525D02*
X158523776Y-131740525D01*
X153748575Y-132400925D02*
X155755176Y-132400925D01*
X155374176Y-127828925D02*
X155577376Y-127828925D01*
X156974376Y-131715125D02*
X158523776Y-131715125D01*
X155551976Y-127549525D02*
X155755176Y-127549525D01*
X155958376Y-133442325D02*
X156059976Y-133442325D01*
X154713776Y-131080125D02*
X155755176Y-131080125D01*
X155628176Y-133493125D02*
X155755176Y-133493125D01*
X155882176Y-132324725D02*
X156466376Y-132324725D01*
X155145575Y-130826125D02*
X155755176Y-130826125D01*
X154078776Y-129454525D02*
X154332776Y-129454525D01*
X155501176Y-127397125D02*
X156110776Y-127397125D01*
X153646976Y-131689725D02*
X155755176Y-131689725D01*
X153367575Y-131867525D02*
X155755176Y-131867525D01*
X153062776Y-130724525D02*
X153189776Y-130724525D01*
X155755176Y-129352925D02*
X155882176Y-129352925D01*
X155780575Y-127879725D02*
X155907575Y-127879725D01*
X154053376Y-132578725D02*
X155755176Y-132578725D01*
X155755176Y-129048125D02*
X155882176Y-129048125D01*
X155780575Y-128082925D02*
X155907575Y-128082925D01*
X155882176Y-132350125D02*
X156466376Y-132350125D01*
X155043976Y-128413125D02*
X155247176Y-128413125D01*
X155069376Y-128387725D02*
X155247176Y-128387725D01*
X155780575Y-128590925D02*
X155907575Y-128590925D01*
X156440976Y-130089525D02*
X157787176Y-130089525D01*
X153824776Y-131588125D02*
X155755176Y-131588125D01*
X154942376Y-128616325D02*
X155120176Y-128616325D01*
X154510575Y-132858125D02*
X155755176Y-132858125D01*
X156999776Y-128082925D02*
X157228376Y-128082925D01*
X153062776Y-131435725D02*
X153189776Y-131435725D01*
X153519976Y-131130925D02*
X153672376Y-131130925D01*
X155882176Y-130749925D02*
X157406176Y-130749925D01*
X155729776Y-133543925D02*
X155755176Y-133543925D01*
X157990376Y-128692525D02*
X158244376Y-128692525D01*
X155958376Y-130368925D02*
X157634776Y-130368925D01*
X153951776Y-132527925D02*
X155755176Y-132527925D01*
X154739176Y-132985125D02*
X155755176Y-132985125D01*
X155755176Y-129784725D02*
X155882176Y-129784725D01*
X157761776Y-128540125D02*
X157990376Y-128540125D01*
X155221776Y-128133725D02*
X155399575Y-128133725D01*
X153062776Y-131486525D02*
X153189776Y-131486525D01*
X155780575Y-127854325D02*
X155907575Y-127854325D01*
X153545376Y-132299325D02*
X155755176Y-132299325D01*
X154993176Y-129987925D02*
X155247176Y-129987925D01*
X155958376Y-133467725D02*
X156009176Y-133467725D01*
X153062776Y-130394325D02*
X153189776Y-130394325D01*
X155882176Y-130876925D02*
X157329976Y-130876925D01*
X153900976Y-130445125D02*
X154053376Y-130445125D01*
X153926376Y-131537325D02*
X155755176Y-131537325D01*
X155932976Y-133518525D02*
X155958376Y-133518525D01*
X157152176Y-131435725D02*
X158523776Y-131435725D01*
X155780575Y-128260725D02*
X155907575Y-128260725D01*
X153951776Y-130368925D02*
X154104176Y-130368925D01*
X155526575Y-130292725D02*
X155882176Y-130292725D01*
X156415575Y-127727325D02*
X156644176Y-127727325D01*
X156390176Y-130114925D02*
X157787176Y-130114925D01*
X153062776Y-130953125D02*
X153189776Y-130953125D01*
X155247176Y-130775325D02*
X155755176Y-130775325D01*
X156364776Y-127701925D02*
X156618776Y-127701925D01*
X155678976Y-127295525D02*
X155932976Y-127295525D01*
X156644176Y-132273925D02*
X158066575Y-132273925D01*
X158015776Y-129937125D02*
X158523776Y-129937125D01*
X153291376Y-131486525D02*
X153443776Y-131486525D01*
X157431575Y-130953125D02*
X158523776Y-130953125D01*
X157355376Y-129556125D02*
X158091976Y-129556125D01*
X158244376Y-129556125D02*
X158523776Y-129556125D01*
X154510575Y-129378325D02*
X154688376Y-129378325D01*
X153062776Y-129429125D02*
X153189776Y-129429125D01*
X153062776Y-129327525D02*
X153189776Y-129327525D01*
X153316776Y-131892925D02*
X155755176Y-131892925D01*
X153443776Y-129073525D02*
X153697776Y-129073525D01*
X155882176Y-131410325D02*
X157025176Y-131410325D01*
X155755176Y-129556125D02*
X155882176Y-129556125D01*
X155755176Y-128971925D02*
X155882176Y-128971925D01*
X153062776Y-129759325D02*
X153189776Y-129759325D01*
X155780575Y-127752725D02*
X155907575Y-127752725D01*
X154256575Y-129556125D02*
X154586776Y-129556125D01*
X153723176Y-131664325D02*
X155755176Y-131664325D01*
X153519976Y-128540125D02*
X153773976Y-128540125D01*
X157482376Y-130876925D02*
X158523776Y-130876925D01*
X158142776Y-129733925D02*
X158523776Y-129733925D01*
X155882176Y-131715125D02*
X156847376Y-131715125D01*
X153342176Y-128641725D02*
X153596176Y-128641725D01*
X155780575Y-128641725D02*
X155907575Y-128641725D01*
D14*
%TO.C,R28*%
X158512742Y-88796500D02*
X158987258Y-88796500D01*
X158512742Y-87751500D02*
X158987258Y-87751500D01*
%TO.C,J4*%
X163479600Y-124735000D02*
X163029600Y-124735000D01*
X163029600Y-123785000D02*
X161539600Y-123785000D01*
X166999600Y-124735000D02*
X167449600Y-124735000D01*
X167449600Y-120265000D02*
X166999600Y-120265000D01*
X163029600Y-120265000D02*
X163029600Y-121215000D01*
X163479600Y-120265000D02*
X163029600Y-120265000D01*
X163029600Y-124735000D02*
X163029600Y-123785000D01*
X167449600Y-124735000D02*
X167449600Y-120265000D01*
%TO.C,R23*%
X151527742Y-84977500D02*
X152002258Y-84977500D01*
X151527742Y-83932500D02*
X152002258Y-83932500D01*
%TO.C,R27*%
X157678742Y-106919500D02*
X158153258Y-106919500D01*
X157678742Y-107964500D02*
X158153258Y-107964500D01*
%TO.C,R25*%
X157678742Y-110729500D02*
X158153258Y-110729500D01*
X157678742Y-111774500D02*
X158153258Y-111774500D01*
%TO.C,R24*%
X156066258Y-84975500D02*
X155591742Y-84975500D01*
X156066258Y-83930500D02*
X155591742Y-83930500D01*
D13*
%TO.C,Annotation6*%
X141132750Y-131128851D02*
X141335950Y-131128851D01*
X143698150Y-130874851D02*
X143926750Y-130874851D01*
X145907950Y-130925651D02*
X146111150Y-130925651D01*
X137525950Y-132398851D02*
X137627550Y-132398851D01*
X137932350Y-130874851D02*
X138313350Y-130874851D01*
X140853350Y-132525851D02*
X140954950Y-132525851D01*
X148549550Y-130849451D02*
X148676550Y-130849451D01*
X138973750Y-132221051D02*
X139583350Y-132221051D01*
X143240950Y-131027251D02*
X143367950Y-131027251D01*
X137271950Y-132525851D02*
X137398950Y-132525851D01*
X139964350Y-132551251D02*
X140015150Y-132551251D01*
X141183550Y-130925651D02*
X141335950Y-130925651D01*
X148016150Y-131052651D02*
X148143150Y-131052651D01*
X144815750Y-130773251D02*
X144891950Y-130773251D01*
X147787550Y-130976451D02*
X147889150Y-130976451D01*
X144815750Y-130824051D02*
X144866550Y-130824051D01*
X135417750Y-131738451D02*
X136230550Y-131738451D01*
X143469550Y-131484451D02*
X143596550Y-131484451D01*
X147000150Y-130874851D02*
X147381150Y-130874851D01*
X135417750Y-133338651D02*
X149819550Y-133338651D01*
X135417750Y-132195651D02*
X136332150Y-132195651D01*
X138846750Y-130925651D02*
X139583350Y-130925651D01*
X137017950Y-132475051D02*
X137119550Y-132475051D01*
X142910750Y-131052651D02*
X143113950Y-131052651D01*
X144104550Y-131687651D02*
X144256950Y-131687651D01*
X141970950Y-131535251D02*
X142072550Y-131535251D01*
X141691550Y-130747851D02*
X141793150Y-130747851D01*
X137957750Y-131763851D02*
X138287950Y-131763851D01*
X143444150Y-131459051D02*
X143596550Y-131459051D01*
X139024550Y-131357451D02*
X149819550Y-131357451D01*
X142961550Y-132398851D02*
X143063150Y-132398851D01*
X147304950Y-130824051D02*
X147381150Y-130824051D01*
X143901350Y-132449651D02*
X144104550Y-132449651D01*
X139710350Y-131586051D02*
X139837350Y-131586051D01*
X137017950Y-131230451D02*
X137297350Y-131230451D01*
X135417750Y-131814651D02*
X136230550Y-131814651D01*
X139659550Y-132297251D02*
X139811950Y-132297251D01*
X138033950Y-131687651D02*
X138237150Y-131687651D01*
X135417750Y-132678251D02*
X136636950Y-132678251D01*
X143799750Y-131128851D02*
X143926750Y-131128851D01*
X140192950Y-131103451D02*
X140319950Y-131103451D01*
X142377350Y-132602051D02*
X142478950Y-132602051D01*
X142174150Y-130951051D02*
X142377350Y-130951051D01*
X141920150Y-131052651D02*
X142072550Y-131052651D01*
X141716950Y-131154251D02*
X141793150Y-131154251D01*
X148016150Y-130925651D02*
X148092350Y-130925651D01*
X138973750Y-131205051D02*
X149819550Y-131205051D01*
X138846750Y-132449651D02*
X139583350Y-132449651D01*
X140345350Y-130900251D02*
X140370750Y-130900251D01*
X140421550Y-131484451D02*
X140751750Y-131484451D01*
X140751750Y-131052651D02*
X140929550Y-131052651D01*
X142834550Y-132576651D02*
X142986950Y-132576651D01*
X137754550Y-132373451D02*
X137830750Y-132373451D01*
X144460150Y-132576651D02*
X144536350Y-132576651D01*
X139964350Y-132500451D02*
X140040550Y-132500451D01*
X144714150Y-132322651D02*
X144790350Y-132322651D01*
X138033950Y-131027251D02*
X138237150Y-131027251D01*
X142936150Y-131713051D02*
X143088550Y-131713051D01*
X143342550Y-132576651D02*
X143520350Y-132576651D01*
X144028350Y-132246451D02*
X144104550Y-132246451D01*
X141335950Y-132602051D02*
X141462950Y-132602051D01*
X139659550Y-132602051D02*
X139811950Y-132602051D01*
X139024550Y-132017851D02*
X149819550Y-132017851D01*
X138770550Y-130824051D02*
X139583350Y-130824051D01*
X135417750Y-133719651D02*
X149819550Y-133719651D01*
X141462950Y-131586051D02*
X141691550Y-131586051D01*
X141716950Y-131103451D02*
X141793150Y-131103451D01*
X135417750Y-131509851D02*
X136230550Y-131509851D01*
X144942750Y-132348051D02*
X144993550Y-132348051D01*
X137271950Y-132500451D02*
X137398950Y-132500451D01*
X147000150Y-130925651D02*
X147381150Y-130925651D01*
X138008550Y-131713051D02*
X138262550Y-131713051D01*
X149032150Y-131128851D02*
X149819550Y-131128851D01*
X148701950Y-131128851D02*
X148879750Y-131128851D01*
X135417750Y-130087451D02*
X149819550Y-130087451D01*
X142351950Y-132576651D02*
X142529750Y-132576651D01*
X147787550Y-130900251D02*
X147889150Y-130900251D01*
X147533550Y-130722451D02*
X147660550Y-130722451D01*
X135417750Y-132068651D02*
X136281350Y-132068651D01*
X138795950Y-132525851D02*
X139583350Y-132525851D01*
X138668950Y-132678251D02*
X139583350Y-132678251D01*
X135417750Y-132348051D02*
X136382950Y-132348051D01*
X141818550Y-131890851D02*
X141920150Y-131890851D01*
X141132750Y-131103451D02*
X141335950Y-131103451D01*
X138541950Y-132779851D02*
X149819550Y-132779851D01*
X137271950Y-132271851D02*
X137398950Y-132271851D01*
X136992550Y-130798651D02*
X137322750Y-130798651D01*
X137525950Y-131001851D02*
X137779950Y-131001851D01*
X135417750Y-133414851D02*
X149819550Y-133414851D01*
X137017950Y-132449651D02*
X137119550Y-132449651D01*
X137043350Y-131713051D02*
X137297350Y-131713051D01*
X146238150Y-130824051D02*
X146441350Y-130824051D01*
X146238150Y-131078051D02*
X146441350Y-131078051D01*
X139659550Y-132525851D02*
X139862750Y-132525851D01*
X143748950Y-131001851D02*
X143926750Y-131001851D01*
X141259750Y-131865451D02*
X141437550Y-131865451D01*
X138008550Y-131484451D02*
X138262550Y-131484451D01*
X143901350Y-132322651D02*
X144104550Y-132322651D01*
X140345350Y-130925651D02*
X140370750Y-130925651D01*
X137017950Y-132525851D02*
X137119550Y-132525851D01*
X139049950Y-131865451D02*
X139583350Y-131865451D01*
X147787550Y-130951051D02*
X147889150Y-130951051D01*
X143291750Y-132678251D02*
X143545750Y-132678251D01*
X143901350Y-132602051D02*
X144104550Y-132602051D01*
X135417750Y-129884251D02*
X149819550Y-129884251D01*
X147482750Y-130976451D02*
X147533550Y-130976451D01*
X142936150Y-131789251D02*
X143063150Y-131789251D01*
X145501550Y-130849451D02*
X145780950Y-130849451D01*
X148016150Y-131103451D02*
X148168550Y-131103451D01*
X147609750Y-130874851D02*
X147660550Y-130874851D01*
X148981350Y-131027251D02*
X149819550Y-131027251D01*
X141818550Y-131865451D02*
X141945550Y-131865451D01*
X141259750Y-131916251D02*
X141462950Y-131916251D01*
X144917350Y-132271851D02*
X144993550Y-132271851D01*
X142631350Y-130722451D02*
X142783750Y-130722451D01*
X148549550Y-131027251D02*
X148600350Y-131027251D01*
X145120550Y-132348051D02*
X145272950Y-132348051D01*
X135417750Y-130697051D02*
X136636950Y-130697051D01*
X143774350Y-131027251D02*
X143926750Y-131027251D01*
X140853350Y-132271851D02*
X140980350Y-132271851D01*
X135417750Y-129604851D02*
X149819550Y-129604851D01*
X149006750Y-131078051D02*
X149819550Y-131078051D01*
X142605950Y-132627451D02*
X142758350Y-132627451D01*
X144942750Y-132551251D02*
X144993550Y-132551251D01*
X139989750Y-130747851D02*
X140091350Y-130747851D01*
X135417750Y-132830651D02*
X136814750Y-132830651D01*
X143672750Y-130798651D02*
X143926750Y-130798651D01*
X142834550Y-132678251D02*
X143037750Y-132678251D01*
X142250350Y-131484451D02*
X142428150Y-131484451D01*
X144815750Y-130798651D02*
X144866550Y-130798651D01*
X137271950Y-132297251D02*
X137398950Y-132297251D01*
X144612550Y-131840051D02*
X149819550Y-131840051D01*
X138668950Y-130697051D02*
X139583350Y-130697051D01*
X137017950Y-130976451D02*
X137322750Y-130976451D01*
X137475150Y-130849451D02*
X137830750Y-130849451D01*
X142199550Y-131027251D02*
X142275750Y-131027251D01*
X142199550Y-130824051D02*
X142301150Y-130824051D01*
X141793150Y-132221051D02*
X141894750Y-132221051D01*
X143596550Y-132551251D02*
X143774350Y-132551251D01*
X143317150Y-132602051D02*
X143520350Y-132602051D01*
X141361350Y-132297251D02*
X141462950Y-132297251D01*
X138110150Y-130341451D02*
X149819550Y-130341451D01*
X144307750Y-131916251D02*
X144510950Y-131916251D01*
X138364150Y-132906851D02*
X149819550Y-132906851D01*
X146238150Y-130925651D02*
X146441350Y-130925651D01*
X135417750Y-132576651D02*
X136535350Y-132576651D01*
X146238150Y-131027251D02*
X146441350Y-131027251D01*
X143723550Y-131763851D02*
X143926750Y-131763851D01*
X140853350Y-132373451D02*
X140954950Y-132373451D01*
X140751750Y-130747851D02*
X140853350Y-130747851D01*
X138160950Y-133008451D02*
X149819550Y-133008451D01*
X141031150Y-132475051D02*
X141462950Y-132475051D01*
X143723550Y-131840051D02*
X143926750Y-131840051D01*
X145501550Y-130747851D02*
X145780950Y-130747851D01*
X143901350Y-132500451D02*
X144104550Y-132500451D01*
X140167550Y-132398851D02*
X140218350Y-132398851D01*
X139075350Y-131662251D02*
X139583350Y-131662251D01*
X143367950Y-130773251D02*
X143469550Y-130773251D01*
X140853350Y-132322651D02*
X140954950Y-132322651D01*
X147787550Y-131103451D02*
X147889150Y-131103451D01*
X144637950Y-132398851D02*
X144993550Y-132398851D01*
X142986950Y-132424251D02*
X143063150Y-132424251D01*
X142656750Y-130925651D02*
X142783750Y-130925651D01*
X136992550Y-131865451D02*
X137348150Y-131865451D01*
X144688750Y-132551251D02*
X144815750Y-132551251D01*
X144993550Y-131001851D02*
X145171350Y-131001851D01*
X141285150Y-132221051D02*
X141462950Y-132221051D01*
X143545750Y-130900251D02*
X143596550Y-130900251D01*
X142428150Y-131052651D02*
X142529750Y-131052651D01*
X142555150Y-131535251D02*
X142809150Y-131535251D01*
X143545750Y-130951051D02*
X143596550Y-130951051D01*
X140294550Y-132348051D02*
X140472350Y-132348051D01*
X138491150Y-132830651D02*
X149819550Y-132830651D01*
X141920150Y-131078051D02*
X142072550Y-131078051D01*
X135417750Y-132500451D02*
X136484550Y-132500451D01*
X138008550Y-130747851D02*
X138262550Y-130747851D01*
X137017950Y-131255851D02*
X137322750Y-131255851D01*
X137271950Y-132475051D02*
X137398950Y-132475051D01*
X142428150Y-130798651D02*
X142529750Y-130798651D01*
X138059350Y-131179651D02*
X138186350Y-131179651D01*
X135417750Y-133618051D02*
X149819550Y-133618051D01*
X141970950Y-132221051D02*
X142326550Y-132221051D01*
X135417750Y-133008451D02*
X137144950Y-133008451D01*
X144561750Y-131154251D02*
X144993550Y-131154251D01*
X146822350Y-131103451D02*
X146923950Y-131103451D01*
X147558950Y-130773251D02*
X147660550Y-130773251D01*
X135417750Y-132094051D02*
X136281350Y-132094051D01*
X142682150Y-131052651D02*
X142783750Y-131052651D01*
X136992550Y-131382851D02*
X137348150Y-131382851D01*
X148905150Y-130773251D02*
X149819550Y-130773251D01*
X148016150Y-131027251D02*
X148117750Y-131027251D01*
X143469550Y-131128851D02*
X143672750Y-131128851D01*
X137017950Y-132348051D02*
X137119550Y-132348051D01*
X137017950Y-131459051D02*
X137322750Y-131459051D01*
X139659550Y-132576651D02*
X139862750Y-132576651D01*
X146568350Y-130824051D02*
X146873150Y-130824051D01*
X143672750Y-130773251D02*
X143774350Y-130773251D01*
X141818550Y-131586051D02*
X142047150Y-131586051D01*
X142148750Y-131687651D02*
X142174150Y-131687651D01*
X145907950Y-131103451D02*
X146111150Y-131103451D01*
X139913550Y-131484451D02*
X140065950Y-131484451D01*
X145501550Y-130976451D02*
X145780950Y-130976451D01*
X137525950Y-132500451D02*
X137754550Y-132500451D01*
X135417750Y-132856051D02*
X136840150Y-132856051D01*
X145196750Y-130697051D02*
X145374550Y-130697051D01*
X135417750Y-130519251D02*
X136840150Y-130519251D01*
X138313350Y-132932251D02*
X149819550Y-132932251D01*
X142656750Y-131103451D02*
X142783750Y-131103451D01*
X146822350Y-131154251D02*
X147000150Y-131154251D01*
X135417750Y-132881451D02*
X136890950Y-132881451D01*
X138821350Y-132500451D02*
X139583350Y-132500451D01*
X143723550Y-131586051D02*
X143825150Y-131586051D01*
X137957750Y-131281251D02*
X138287950Y-131281251D01*
X137119550Y-132652851D02*
X137297350Y-132652851D01*
X141767750Y-132424251D02*
X141894750Y-132424251D01*
X135417750Y-131078051D02*
X136357550Y-131078051D01*
X145907950Y-130874851D02*
X146111150Y-130874851D01*
X139964350Y-131814651D02*
X140065950Y-131814651D01*
X142199550Y-132678251D02*
X142326550Y-132678251D01*
X148016150Y-130722451D02*
X148193950Y-130722451D01*
X143901350Y-132551251D02*
X144104550Y-132551251D01*
X138186350Y-130366851D02*
X149819550Y-130366851D01*
X138084750Y-132652851D02*
X138237150Y-132652851D01*
X139989750Y-130824051D02*
X140091350Y-130824051D01*
X141539150Y-131763851D02*
X141691550Y-131763851D01*
X138287950Y-132957651D02*
X149819550Y-132957651D01*
X139710350Y-130874851D02*
X139862750Y-130874851D01*
X140751750Y-130951051D02*
X140904150Y-130951051D01*
X136992550Y-131433651D02*
X137322750Y-131433651D01*
X140573950Y-132627451D02*
X140777150Y-132627451D01*
X140497750Y-130849451D02*
X140624750Y-130849451D01*
X143621950Y-132576651D02*
X143774350Y-132576651D01*
X139964350Y-131052651D02*
X140091350Y-131052651D01*
X140370750Y-132500451D02*
X140472350Y-132500451D01*
X137500550Y-130976451D02*
X137805350Y-130976451D01*
X141005750Y-130824051D02*
X141081950Y-130824051D01*
X137043350Y-131484451D02*
X137297350Y-131484451D01*
X143215550Y-131713051D02*
X143317150Y-131713051D01*
X139913550Y-132424251D02*
X140065950Y-132424251D01*
X144079150Y-131738451D02*
X144231550Y-131738451D01*
X141970950Y-132551251D02*
X142224950Y-132551251D01*
X139710350Y-130849451D02*
X139862750Y-130849451D01*
X144764950Y-130976451D02*
X144841150Y-130976451D01*
X148016150Y-130849451D02*
X148117750Y-130849451D01*
X145399950Y-132475051D02*
X149819550Y-132475051D01*
X135417750Y-133465651D02*
X149819550Y-133465651D01*
X142199550Y-130773251D02*
X142301150Y-130773251D01*
X143215550Y-131814651D02*
X143317150Y-131814651D01*
X148549550Y-130976451D02*
X148625750Y-130976451D01*
X137983150Y-131001851D02*
X138262550Y-131001851D01*
X135417750Y-131611451D02*
X136230550Y-131611451D01*
X141335950Y-132271851D02*
X141462950Y-132271851D01*
X137983150Y-133059251D02*
X149819550Y-133059251D01*
X142682150Y-130951051D02*
X142783750Y-130951051D01*
X142910750Y-130747851D02*
X142961550Y-130747851D01*
X138973750Y-131154251D02*
X139659550Y-131154251D01*
X143723550Y-131535251D02*
X143799750Y-131535251D01*
X143621950Y-132602051D02*
X143774350Y-132602051D01*
X145399950Y-132576651D02*
X149819550Y-132576651D01*
X141056550Y-131484451D02*
X141285150Y-131484451D01*
X141081950Y-132322651D02*
X141259750Y-132322651D01*
X144231550Y-132500451D02*
X144510950Y-132500451D01*
X145907950Y-131052651D02*
X146111150Y-131052651D01*
X147304950Y-130798651D02*
X147381150Y-130798651D01*
X142656750Y-132348051D02*
X142758350Y-132348051D01*
X135417750Y-129960451D02*
X149819550Y-129960451D01*
X142580550Y-132652851D02*
X142758350Y-132652851D01*
X147076350Y-131052651D02*
X147127150Y-131052651D01*
X135417750Y-132627451D02*
X136586150Y-132627451D01*
X142555150Y-131459051D02*
X142809150Y-131459051D01*
X143494950Y-132271851D02*
X143647350Y-132271851D01*
X138872150Y-132398851D02*
X139583350Y-132398851D01*
X141716950Y-131052651D02*
X141793150Y-131052651D01*
X143291750Y-132652851D02*
X143545750Y-132652851D01*
X136992550Y-131763851D02*
X137322750Y-131763851D01*
X135417750Y-129782651D02*
X149819550Y-129782651D01*
X148016150Y-130976451D02*
X148117750Y-130976451D01*
X139049950Y-131509851D02*
X139583350Y-131509851D01*
X143215550Y-131763851D02*
X143317150Y-131763851D01*
X147787550Y-130874851D02*
X147889150Y-130874851D01*
X140192950Y-131560651D02*
X140700950Y-131560651D01*
X143139350Y-132246451D02*
X143367950Y-132246451D01*
X145171350Y-131154251D02*
X145374550Y-131154251D01*
X141462950Y-130976451D02*
X141793150Y-130976451D01*
X142555150Y-131560651D02*
X142809150Y-131560651D01*
X138897550Y-132348051D02*
X139583350Y-132348051D01*
X141970950Y-132322651D02*
X142224950Y-132322651D01*
X148549550Y-130824051D02*
X148676550Y-130824051D01*
X141488350Y-131662251D02*
X141691550Y-131662251D01*
X141208950Y-130849451D02*
X141335950Y-130849451D01*
X141310550Y-132246451D02*
X141462950Y-132246451D01*
X146568350Y-130798651D02*
X146873150Y-130798651D01*
X137475150Y-130798651D02*
X137830750Y-130798651D01*
X144637950Y-131916251D02*
X149819550Y-131916251D01*
X137068750Y-131205051D02*
X137271950Y-131205051D01*
X142834550Y-132652851D02*
X143012350Y-132652851D01*
X140294550Y-132297251D02*
X140472350Y-132297251D01*
X145399950Y-132500451D02*
X149819550Y-132500451D01*
X144180750Y-131535251D02*
X144307750Y-131535251D01*
X142555150Y-131789251D02*
X142809150Y-131789251D01*
X142656750Y-130824051D02*
X142783750Y-130824051D01*
X141158150Y-131027251D02*
X141335950Y-131027251D01*
X140802550Y-132449651D02*
X140929550Y-132449651D01*
X142783750Y-131890851D02*
X142859950Y-131890851D01*
X137500550Y-131941651D02*
X137805350Y-131941651D01*
X145907950Y-131001851D02*
X146111150Y-131001851D01*
X144942750Y-132297251D02*
X144993550Y-132297251D01*
X143596550Y-132500451D02*
X143774350Y-132500451D01*
X137957750Y-131382851D02*
X138313350Y-131382851D01*
X140065950Y-132678251D02*
X140319950Y-132678251D01*
X139710350Y-131713051D02*
X139862750Y-131713051D01*
X140269150Y-132246451D02*
X140472350Y-132246451D01*
X135417750Y-130773251D02*
X136560750Y-130773251D01*
X140980350Y-130722451D02*
X141107350Y-130722451D01*
X135417750Y-131586051D02*
X136230550Y-131586051D01*
X141589950Y-131890851D02*
X141691550Y-131890851D01*
X135417750Y-133033851D02*
X137221150Y-133033851D01*
X141539150Y-132500451D02*
X141894750Y-132500451D01*
X140573950Y-132398851D02*
X140751750Y-132398851D01*
X142123350Y-131713051D02*
X142199550Y-131713051D01*
X147000150Y-130900251D02*
X147381150Y-130900251D01*
X142834550Y-132449651D02*
X142885350Y-132449651D01*
X140192950Y-132348051D02*
X140218350Y-132348051D01*
X140319950Y-130874851D02*
X140370750Y-130874851D01*
X143240950Y-130900251D02*
X143418750Y-130900251D01*
X143748950Y-130976451D02*
X143926750Y-130976451D01*
X143571150Y-131636851D02*
X143596550Y-131636851D01*
X135417750Y-132144851D02*
X136306750Y-132144851D01*
X139710350Y-130925651D02*
X139862750Y-130925651D01*
X147482750Y-131128851D02*
X147635150Y-131128851D01*
X140421550Y-132627451D02*
X140472350Y-132627451D01*
X140192950Y-131738451D02*
X140675550Y-131738451D01*
X135417750Y-129808051D02*
X149819550Y-129808051D01*
X142377350Y-131840051D02*
X142428150Y-131840051D01*
X144815750Y-130925651D02*
X144841150Y-130925651D01*
X141081950Y-131535251D02*
X141259750Y-131535251D01*
X142656750Y-130747851D02*
X142783750Y-130747851D01*
X138033950Y-132627451D02*
X138262550Y-132627451D01*
X143342550Y-132551251D02*
X143494950Y-132551251D01*
X147787550Y-131128851D02*
X147889150Y-131128851D01*
X141335950Y-131636851D02*
X141361350Y-131636851D01*
X138033950Y-130722451D02*
X138237150Y-130722451D01*
X139710350Y-130798651D02*
X139862750Y-130798651D01*
X147787550Y-130747851D02*
X147889150Y-130747851D01*
X148854350Y-130697051D02*
X149819550Y-130697051D01*
X142783750Y-131814651D02*
X142809150Y-131814651D01*
X143444150Y-131840051D02*
X143545750Y-131840051D01*
X145298350Y-131052651D02*
X145374550Y-131052651D01*
X143901350Y-132525851D02*
X144104550Y-132525851D01*
X138084750Y-133033851D02*
X149819550Y-133033851D01*
X142275750Y-131611451D02*
X142428150Y-131611451D01*
X137983150Y-131255851D02*
X138287950Y-131255851D01*
X141539150Y-131789251D02*
X141691550Y-131789251D01*
X135417750Y-130976451D02*
X136408350Y-130976451D01*
X139989750Y-131611451D02*
X140065950Y-131611451D01*
X137525950Y-131230451D02*
X137779950Y-131230451D01*
X137068750Y-131687651D02*
X137271950Y-131687651D01*
X135417750Y-130112851D02*
X149819550Y-130112851D01*
X146695350Y-130646251D02*
X149819550Y-130646251D01*
X142224950Y-131128851D02*
X142326550Y-131128851D01*
X135417750Y-130900251D02*
X136459150Y-130900251D01*
X147000150Y-131001851D02*
X147177950Y-131001851D01*
X138008550Y-132602051D02*
X138262550Y-132602051D01*
X149006750Y-131052651D02*
X149819550Y-131052651D01*
X141437550Y-131509851D02*
X141564550Y-131509851D01*
X137983150Y-132576651D02*
X138110150Y-132576651D01*
X142199550Y-131001851D02*
X142275750Y-131001851D01*
X144104550Y-131662251D02*
X144256950Y-131662251D01*
X139989750Y-130722451D02*
X140091350Y-130722451D01*
X141793150Y-132652851D02*
X141894750Y-132652851D01*
X142936150Y-131662251D02*
X143088550Y-131662251D01*
X141539150Y-131738451D02*
X141691550Y-131738451D01*
X142631350Y-132576651D02*
X142758350Y-132576651D01*
X141920150Y-130824051D02*
X142072550Y-130824051D01*
X137525950Y-132551251D02*
X137602150Y-132551251D01*
X143494950Y-131509851D02*
X143596550Y-131509851D01*
X141259750Y-130722451D02*
X141335950Y-130722451D01*
X141818550Y-131713051D02*
X141996350Y-131713051D01*
X145501550Y-131027251D02*
X145780950Y-131027251D01*
X144409350Y-131662251D02*
X144434750Y-131662251D01*
X148955950Y-130925651D02*
X149819550Y-130925651D01*
X137525950Y-131967051D02*
X137779950Y-131967051D01*
X141539150Y-132297251D02*
X141894750Y-132297251D01*
X137043350Y-131001851D02*
X137297350Y-131001851D01*
X145399950Y-132652851D02*
X149819550Y-132652851D01*
X144968150Y-130874851D02*
X145171350Y-130874851D01*
X144993550Y-130824051D02*
X145145950Y-130824051D01*
X139989750Y-131713051D02*
X140065950Y-131713051D01*
X135417750Y-131128851D02*
X136332150Y-131128851D01*
X142250350Y-131509851D02*
X142428150Y-131509851D01*
X135417750Y-131713051D02*
X136230550Y-131713051D01*
X137271950Y-132373451D02*
X137398950Y-132373451D01*
X137983150Y-130976451D02*
X138287950Y-130976451D01*
X140802550Y-131713051D02*
X141183550Y-131713051D01*
X140421550Y-131916251D02*
X140802550Y-131916251D01*
X137271950Y-132246451D02*
X137398950Y-132246451D01*
X143494950Y-131103451D02*
X143647350Y-131103451D01*
X138872150Y-130951051D02*
X139583350Y-130951051D01*
X137983150Y-131941651D02*
X138287950Y-131941651D01*
X144587150Y-131713051D02*
X149819550Y-131713051D01*
X135417750Y-133795851D02*
X149819550Y-133795851D01*
X137500550Y-131738451D02*
X137805350Y-131738451D01*
X135417750Y-130798651D02*
X136535350Y-130798651D01*
X137932350Y-130900251D02*
X138313350Y-130900251D01*
X140497750Y-130925651D02*
X140624750Y-130925651D01*
X148016150Y-130747851D02*
X148168550Y-130747851D01*
X142910750Y-131027251D02*
X143113950Y-131027251D01*
X139024550Y-131332051D02*
X149819550Y-131332051D01*
X139710350Y-131738451D02*
X139862750Y-131738451D01*
X135417750Y-133592651D02*
X149819550Y-133592651D01*
X141259750Y-131890851D02*
X141437550Y-131890851D01*
X135417750Y-131052651D02*
X136382950Y-131052651D01*
X144942750Y-132373451D02*
X144993550Y-132373451D01*
X146238150Y-130874851D02*
X146441350Y-130874851D01*
X140192950Y-131763851D02*
X140675550Y-131763851D01*
X144053750Y-130824051D02*
X144434750Y-130824051D01*
X137906950Y-130290651D02*
X149819550Y-130290651D01*
X144231550Y-131459051D02*
X144333150Y-131459051D01*
X143240950Y-131128851D02*
X143342550Y-131128851D01*
X138694350Y-132652851D02*
X139583350Y-132652851D01*
X142326550Y-131738451D02*
X142428150Y-131738451D01*
X143139350Y-132576651D02*
X143240950Y-132576651D01*
X141462950Y-130824051D02*
X141793150Y-130824051D01*
X139049950Y-131738451D02*
X139583350Y-131738451D01*
X138414950Y-132881451D02*
X149819550Y-132881451D01*
X141970950Y-132449651D02*
X142199550Y-132449651D01*
X143494950Y-131535251D02*
X143596550Y-131535251D01*
X137017950Y-132246451D02*
X137119550Y-132246451D01*
X135417750Y-130189051D02*
X149819550Y-130189051D01*
X145323750Y-130951051D02*
X145374550Y-130951051D01*
X135417750Y-130163651D02*
X149819550Y-130163651D01*
X144587150Y-131763851D02*
X149819550Y-131763851D01*
X140497750Y-130874851D02*
X140624750Y-130874851D01*
X141462950Y-131027251D02*
X141793150Y-131027251D01*
X141513750Y-131687651D02*
X141691550Y-131687651D01*
X143545750Y-132398851D02*
X143774350Y-132398851D01*
X142377350Y-132297251D02*
X142504350Y-132297251D01*
X135417750Y-133440251D02*
X149819550Y-133440251D01*
X139710350Y-131763851D02*
X139862750Y-131763851D01*
X140192950Y-130925651D02*
X140218350Y-130925651D01*
X142656750Y-132475051D02*
X142758350Y-132475051D01*
X137525950Y-132627451D02*
X137602150Y-132627451D01*
X136992550Y-130849451D02*
X137348150Y-130849451D01*
X140269150Y-132271851D02*
X140472350Y-132271851D01*
X140294550Y-130824051D02*
X140370750Y-130824051D01*
X142834550Y-132475051D02*
X142910750Y-132475051D01*
X148727350Y-131078051D02*
X148879750Y-131078051D01*
X137017950Y-132322651D02*
X137119550Y-132322651D01*
X141818550Y-131814651D02*
X141945550Y-131814651D01*
X137525950Y-132322651D02*
X137627550Y-132322651D01*
X144790350Y-130722451D02*
X144917350Y-130722451D01*
X143444150Y-131738451D02*
X143494950Y-131738451D01*
X140497750Y-130951051D02*
X140624750Y-130951051D01*
X139049950Y-131611451D02*
X139583350Y-131611451D01*
X145501550Y-131001851D02*
X145780950Y-131001851D01*
X143723550Y-131890851D02*
X143926750Y-131890851D01*
X142936150Y-131611451D02*
X143088550Y-131611451D01*
X148524150Y-131052651D02*
X148600350Y-131052651D01*
X141031150Y-132424251D02*
X141462950Y-132424251D01*
X144053750Y-131052651D02*
X144434750Y-131052651D01*
X138389550Y-130468451D02*
X149819550Y-130468451D01*
X141005750Y-130849451D02*
X141081950Y-130849451D01*
X148498750Y-130722451D02*
X148727350Y-130722451D01*
X146796950Y-130925651D02*
X146873150Y-130925651D01*
X143139350Y-132678251D02*
X143190150Y-132678251D01*
X148752750Y-130951051D02*
X148828950Y-130951051D01*
X148016150Y-130874851D02*
X148117750Y-130874851D01*
X140192950Y-131611451D02*
X140675550Y-131611451D01*
X145399950Y-132246451D02*
X149819550Y-132246451D01*
X135417750Y-131281251D02*
X136281350Y-131281251D01*
X137957750Y-131408251D02*
X138313350Y-131408251D01*
X135417750Y-130265251D02*
X149819550Y-130265251D01*
X140878750Y-132678251D02*
X141056550Y-132678251D01*
X141691550Y-130773251D02*
X141793150Y-130773251D01*
X142301150Y-132500451D02*
X142580550Y-132500451D01*
X145730150Y-131128851D02*
X145780950Y-131128851D01*
X141970950Y-131459051D02*
X142097950Y-131459051D01*
X141208950Y-130874851D02*
X141335950Y-130874851D01*
X135417750Y-129554051D02*
X149819550Y-129554051D01*
X139938950Y-132602051D02*
X140015150Y-132602051D01*
X145120550Y-132602051D02*
X145272950Y-132602051D01*
X144714150Y-132576651D02*
X144764950Y-132576651D01*
X145298350Y-130798651D02*
X145374550Y-130798651D01*
X143723550Y-131789251D02*
X143926750Y-131789251D01*
X143723550Y-131738451D02*
X143926750Y-131738451D01*
X144460150Y-132652851D02*
X144612550Y-132652851D01*
X139024550Y-132043251D02*
X149819550Y-132043251D01*
X140497750Y-130773251D02*
X140624750Y-130773251D01*
X143393350Y-132424251D02*
X143469550Y-132424251D01*
X135417750Y-132017851D02*
X136281350Y-132017851D01*
X140192950Y-131078051D02*
X140319950Y-131078051D01*
X143469550Y-132221051D02*
X143647350Y-132221051D01*
X141539150Y-132525851D02*
X141894750Y-132525851D01*
X141513750Y-131713051D02*
X141691550Y-131713051D01*
X140751750Y-130773251D02*
X140853350Y-130773251D01*
X139913550Y-131128851D02*
X140091350Y-131128851D01*
X141539150Y-132551251D02*
X141894750Y-132551251D01*
X144434750Y-132449651D02*
X144510950Y-132449651D01*
X140751750Y-131154251D02*
X140980350Y-131154251D01*
X145120550Y-132373451D02*
X145272950Y-132373451D01*
X144231550Y-132348051D02*
X144536350Y-132348051D01*
X144637950Y-132500451D02*
X144841150Y-132500451D01*
X143723550Y-130900251D02*
X143926750Y-130900251D01*
X142224950Y-131154251D02*
X142377350Y-131154251D01*
X142656750Y-130798651D02*
X142783750Y-130798651D01*
X137525950Y-131484451D02*
X137779950Y-131484451D01*
X144231550Y-132322651D02*
X144536350Y-132322651D01*
X143723550Y-131459051D02*
X143774350Y-131459051D01*
X144180750Y-130747851D02*
X144434750Y-130747851D01*
X140294550Y-132322651D02*
X140472350Y-132322651D01*
X147000150Y-130951051D02*
X147381150Y-130951051D01*
X138770550Y-132551251D02*
X139583350Y-132551251D01*
X141056550Y-131890851D02*
X141132750Y-131890851D01*
X142301150Y-132373451D02*
X142555150Y-132373451D01*
X143215550Y-131687651D02*
X143317150Y-131687651D01*
X146568350Y-131027251D02*
X146873150Y-131027251D01*
X140243750Y-130747851D02*
X140370750Y-130747851D01*
X137525950Y-130747851D02*
X137779950Y-130747851D01*
X135417750Y-130341451D02*
X137195750Y-130341451D01*
X140370750Y-132551251D02*
X140472350Y-132551251D01*
X140573950Y-132678251D02*
X140777150Y-132678251D01*
X147584350Y-130824051D02*
X147660550Y-130824051D01*
X141107350Y-131738451D02*
X141183550Y-131738451D01*
X142910750Y-132297251D02*
X143063150Y-132297251D01*
X147787550Y-131052651D02*
X147889150Y-131052651D01*
X147304950Y-131027251D02*
X147381150Y-131027251D01*
X145399950Y-132602051D02*
X149819550Y-132602051D01*
X144536350Y-131611451D02*
X149819550Y-131611451D01*
X139049950Y-131916251D02*
X139583350Y-131916251D01*
X145907950Y-130976451D02*
X146111150Y-130976451D01*
X141818550Y-131763851D02*
X141970950Y-131763851D01*
X139710350Y-131611451D02*
X139862750Y-131611451D01*
X142301150Y-131662251D02*
X142428150Y-131662251D01*
X141488350Y-131636851D02*
X141691550Y-131636851D01*
X135417750Y-133821251D02*
X149819550Y-133821251D01*
X145120550Y-132271851D02*
X145272950Y-132271851D01*
X141691550Y-130874851D02*
X141793150Y-130874851D01*
X141462950Y-131001851D02*
X141793150Y-131001851D01*
X138897550Y-131027251D02*
X139583350Y-131027251D01*
X135417750Y-130443051D02*
X136967150Y-130443051D01*
X147635150Y-130925651D02*
X147660550Y-130925651D01*
X137957750Y-132398851D02*
X138059350Y-132398851D01*
X140243750Y-132221051D02*
X140472350Y-132221051D01*
X141107350Y-131789251D02*
X141158150Y-131789251D01*
X137551350Y-131509851D02*
X137754550Y-131509851D01*
X139913550Y-132246451D02*
X140142150Y-132246451D01*
X145323750Y-130874851D02*
X145374550Y-130874851D01*
X144561750Y-131128851D02*
X144942750Y-131128851D01*
X140853350Y-132398851D02*
X140954950Y-132398851D01*
X142936150Y-131687651D02*
X143088550Y-131687651D01*
X137525950Y-132348051D02*
X137627550Y-132348051D01*
X137983150Y-130773251D02*
X138287950Y-130773251D01*
X144612550Y-131814651D02*
X149819550Y-131814651D01*
X137602150Y-131052651D02*
X137703750Y-131052651D01*
X138618150Y-130646251D02*
X146568350Y-130646251D01*
X144866550Y-132221051D02*
X144993550Y-132221051D01*
X136992550Y-131332051D02*
X137348150Y-131332051D01*
X144637950Y-132424251D02*
X144993550Y-132424251D01*
X140167550Y-132449651D02*
X140243750Y-132449651D01*
X145501550Y-130874851D02*
X145780950Y-130874851D01*
X139964350Y-131535251D02*
X140065950Y-131535251D01*
X142631350Y-132322651D02*
X142758350Y-132322651D01*
X145120550Y-132652851D02*
X145272950Y-132652851D01*
X141539150Y-132576651D02*
X141894750Y-132576651D01*
X148905150Y-130824051D02*
X149819550Y-130824051D01*
X143647350Y-130697051D02*
X143774350Y-130697051D01*
X147787550Y-131027251D02*
X147889150Y-131027251D01*
X145272950Y-130747851D02*
X145374550Y-130747851D01*
X140497750Y-131103451D02*
X140624750Y-131103451D01*
X147482750Y-131154251D02*
X147660550Y-131154251D01*
X138999150Y-132144851D02*
X149819550Y-132144851D01*
X135417750Y-130747851D02*
X136586150Y-130747851D01*
X146796950Y-130874851D02*
X146873150Y-130874851D01*
X143317150Y-132627451D02*
X143520350Y-132627451D01*
X137525950Y-132652851D02*
X137602150Y-132652851D01*
X142555150Y-131713051D02*
X142809150Y-131713051D01*
X145907950Y-131128851D02*
X146111150Y-131128851D01*
X144561750Y-131103451D02*
X144917350Y-131103451D01*
X145730150Y-131052651D02*
X145780950Y-131052651D01*
X140751750Y-130900251D02*
X140878750Y-130900251D01*
X141031150Y-132398851D02*
X141462950Y-132398851D01*
X142631350Y-132602051D02*
X142758350Y-132602051D01*
X135417750Y-131205051D02*
X136306750Y-131205051D01*
X139049950Y-131484451D02*
X139583350Y-131484451D01*
X137932350Y-131840051D02*
X138313350Y-131840051D01*
X139710350Y-131560651D02*
X139786550Y-131560651D01*
X140777150Y-132221051D02*
X141056550Y-132221051D01*
X143723550Y-131687651D02*
X143901350Y-131687651D01*
X141107350Y-131154251D02*
X141335950Y-131154251D01*
X137475150Y-131865451D02*
X137830750Y-131865451D01*
X143139350Y-132652851D02*
X143215550Y-132652851D01*
X135417750Y-130671651D02*
X136662350Y-130671651D01*
X135417750Y-133694251D02*
X149819550Y-133694251D01*
X143393350Y-132373451D02*
X143444150Y-132373451D01*
X141361350Y-132500451D02*
X141462950Y-132500451D01*
X139659550Y-132322651D02*
X139837350Y-132322651D01*
X141462950Y-131535251D02*
X141564550Y-131535251D01*
X144053750Y-131840051D02*
X144206150Y-131840051D01*
X140192950Y-131027251D02*
X140269150Y-131027251D01*
X141107350Y-131611451D02*
X141234350Y-131611451D01*
X137017950Y-132551251D02*
X137119550Y-132551251D01*
X143444150Y-131789251D02*
X143520350Y-131789251D01*
X138770550Y-130798651D02*
X139583350Y-130798651D01*
X142199550Y-130900251D02*
X142301150Y-130900251D01*
X142656750Y-132449651D02*
X142758350Y-132449651D01*
X135417750Y-130620851D02*
X136713150Y-130620851D01*
X137043350Y-130747851D02*
X137297350Y-130747851D01*
X141056550Y-132348051D02*
X141259750Y-132348051D01*
X140853350Y-132602051D02*
X140980350Y-132602051D01*
X143240950Y-131001851D02*
X143393350Y-131001851D01*
X137017950Y-132398851D02*
X137119550Y-132398851D01*
X140954950Y-130697051D02*
X141132750Y-130697051D01*
X135417750Y-130824051D02*
X136509950Y-130824051D01*
X137957750Y-130925651D02*
X138313350Y-130925651D01*
X135417750Y-132373451D02*
X136408350Y-132373451D01*
X142580550Y-131154251D02*
X142783750Y-131154251D01*
X135417750Y-132983051D02*
X137068750Y-132983051D01*
X144231550Y-131484451D02*
X144333150Y-131484451D01*
X135417750Y-133084651D02*
X137424350Y-133084651D01*
X143367950Y-130722451D02*
X143494950Y-130722451D01*
X144460150Y-132678251D02*
X144637950Y-132678251D01*
X137957750Y-131433651D02*
X138287950Y-131433651D01*
X135417750Y-131433651D02*
X136255950Y-131433651D01*
X139710350Y-130697051D02*
X139862750Y-130697051D01*
X147254150Y-131103451D02*
X147381150Y-131103451D01*
X142834550Y-132398851D02*
X142859950Y-132398851D01*
X140751750Y-131103451D02*
X140954950Y-131103451D01*
X140827950Y-131789251D02*
X140954950Y-131789251D01*
X145323750Y-130976451D02*
X145374550Y-130976451D01*
X147228750Y-131128851D02*
X147381150Y-131128851D01*
X135417750Y-131154251D02*
X136332150Y-131154251D01*
X144790350Y-130747851D02*
X144891950Y-130747851D01*
X137754550Y-132348051D02*
X137830750Y-132348051D01*
X140853350Y-132576651D02*
X140954950Y-132576651D01*
X142961550Y-132373451D02*
X143063150Y-132373451D01*
X144510950Y-131509851D02*
X149819550Y-131509851D01*
X141107350Y-131763851D02*
X141158150Y-131763851D01*
X137017950Y-131738451D02*
X137322750Y-131738451D01*
X140421550Y-131840051D02*
X140700950Y-131840051D01*
X141208950Y-130900251D02*
X141335950Y-130900251D01*
X145120550Y-132678251D02*
X145272950Y-132678251D01*
X143139350Y-132602051D02*
X143215550Y-132602051D01*
X141107350Y-131586051D02*
X141234350Y-131586051D01*
X141818550Y-131611451D02*
X142021750Y-131611451D01*
X139075350Y-131687651D02*
X139583350Y-131687651D01*
X146390550Y-130747851D02*
X146441350Y-130747851D01*
X135417750Y-133491051D02*
X149819550Y-133491051D01*
X137551350Y-131992451D02*
X137754550Y-131992451D01*
X148905150Y-130798651D02*
X149819550Y-130798651D01*
X148549550Y-130798651D02*
X148676550Y-130798651D01*
X143520350Y-132348051D02*
X143774350Y-132348051D01*
X140573950Y-132525851D02*
X140751750Y-132525851D01*
X146644550Y-130595451D02*
X149819550Y-130595451D01*
X148701950Y-131154251D02*
X148905150Y-131154251D01*
X141920150Y-130874851D02*
X142047150Y-130874851D01*
X143240950Y-130874851D02*
X143444150Y-130874851D01*
X144460150Y-132246451D02*
X144587150Y-132246451D01*
X141335950Y-131662251D02*
X141361350Y-131662251D01*
X137043350Y-132602051D02*
X137348150Y-132602051D01*
X137271950Y-132398851D02*
X137398950Y-132398851D01*
X135417750Y-131103451D02*
X136357550Y-131103451D01*
X136992550Y-130925651D02*
X137348150Y-130925651D01*
X138237150Y-130392251D02*
X149819550Y-130392251D01*
X141285150Y-131840051D02*
X141437550Y-131840051D01*
X138719750Y-132627451D02*
X139583350Y-132627451D01*
X143037750Y-132525851D02*
X143063150Y-132525851D01*
X137932350Y-132449651D02*
X138059350Y-132449651D01*
X139659550Y-132348051D02*
X139862750Y-132348051D01*
X143240950Y-130824051D02*
X143444150Y-130824051D01*
X142834550Y-132525851D02*
X142936150Y-132525851D01*
X137475150Y-130824051D02*
X137830750Y-130824051D01*
X141818550Y-131840051D02*
X141945550Y-131840051D01*
X135417750Y-131662251D02*
X136230550Y-131662251D01*
X139989750Y-131636851D02*
X140065950Y-131636851D01*
X143240950Y-131052651D02*
X143367950Y-131052651D01*
X141970950Y-132398851D02*
X142199550Y-132398851D01*
X142910750Y-130697051D02*
X142961550Y-130697051D01*
X144053750Y-131078051D02*
X144434750Y-131078051D01*
X135417750Y-132551251D02*
X136509950Y-132551251D01*
X135417750Y-133237051D02*
X149819550Y-133237051D01*
X135417750Y-133643451D02*
X149819550Y-133643451D01*
X138922950Y-132297251D02*
X139583350Y-132297251D01*
X135417750Y-133059251D02*
X137297350Y-133059251D01*
X138821350Y-132475051D02*
X139583350Y-132475051D01*
X145120550Y-132221051D02*
X145272950Y-132221051D01*
X144053750Y-131001851D02*
X144434750Y-131001851D01*
X144663350Y-132348051D02*
X144815750Y-132348051D01*
X135417750Y-129528651D02*
X149819550Y-129528651D01*
X143139350Y-132424251D02*
X143291750Y-132424251D01*
X141793150Y-132246451D02*
X141894750Y-132246451D01*
X140853350Y-132551251D02*
X140954950Y-132551251D01*
X138465750Y-130519251D02*
X149819550Y-130519251D01*
X143723550Y-130925651D02*
X143926750Y-130925651D01*
X143723550Y-131865451D02*
X143926750Y-131865451D01*
X135417750Y-132221051D02*
X136332150Y-132221051D01*
X137475150Y-131890851D02*
X137830750Y-131890851D01*
X147304950Y-130976451D02*
X147381150Y-130976451D01*
X141920150Y-130849451D02*
X142072550Y-130849451D01*
X145399950Y-132678251D02*
X149819550Y-132678251D01*
X141818550Y-131662251D02*
X142021750Y-131662251D01*
X146238150Y-130976451D02*
X146441350Y-130976451D01*
X143901350Y-132398851D02*
X144104550Y-132398851D01*
X135417750Y-130570051D02*
X136763950Y-130570051D01*
X142580550Y-132246451D02*
X142758350Y-132246451D01*
X148778150Y-130900251D02*
X148803550Y-130900251D01*
X140116750Y-132576651D02*
X140294550Y-132576651D01*
X139049950Y-131789251D02*
X139583350Y-131789251D01*
X140396150Y-131713051D02*
X140675550Y-131713051D01*
X147787550Y-131078051D02*
X147889150Y-131078051D01*
X144637950Y-132449651D02*
X144993550Y-132449651D01*
X139710350Y-131789251D02*
X139837350Y-131789251D01*
X142682150Y-131001851D02*
X142783750Y-131001851D01*
X144053750Y-131916251D02*
X144180750Y-131916251D01*
X144942750Y-132602051D02*
X144993550Y-132602051D01*
X142656750Y-131078051D02*
X142783750Y-131078051D01*
X144561750Y-131078051D02*
X144891950Y-131078051D01*
X140396150Y-132576651D02*
X140472350Y-132576651D01*
X148270150Y-131027251D02*
X148397150Y-131027251D01*
X137957750Y-131789251D02*
X138313350Y-131789251D01*
X142478950Y-130849451D02*
X142783750Y-130849451D01*
X140396150Y-131636851D02*
X140675550Y-131636851D01*
X142910750Y-130824051D02*
X143113950Y-130824051D01*
X142910750Y-130900251D02*
X143113950Y-130900251D01*
X146238150Y-131154251D02*
X146441350Y-131154251D01*
X135417750Y-131890851D02*
X136255950Y-131890851D01*
X135417750Y-130138251D02*
X149819550Y-130138251D01*
X138491150Y-130544651D02*
X149819550Y-130544651D01*
X142377350Y-131865451D02*
X142428150Y-131865451D01*
X144460150Y-132627451D02*
X144561750Y-132627451D01*
X139989750Y-131789251D02*
X140065950Y-131789251D01*
X148270150Y-130824051D02*
X148397150Y-130824051D01*
X147254150Y-130722451D02*
X147381150Y-130722451D01*
X138287950Y-130417651D02*
X149819550Y-130417651D01*
X137500550Y-131459051D02*
X137805350Y-131459051D01*
X137525950Y-132271851D02*
X137805350Y-132271851D01*
X144510950Y-131560651D02*
X149819550Y-131560651D01*
X140421550Y-132652851D02*
X140472350Y-132652851D01*
X143240950Y-130798651D02*
X143469550Y-130798651D01*
X141259750Y-132678251D02*
X141462950Y-132678251D01*
X142199550Y-131103451D02*
X142301150Y-131103451D01*
X144968150Y-130900251D02*
X145196750Y-130900251D01*
X142326550Y-132348051D02*
X142555150Y-132348051D01*
X141818550Y-131560651D02*
X142047150Y-131560651D01*
X148016150Y-130773251D02*
X148143150Y-130773251D01*
X138059350Y-131052651D02*
X138186350Y-131052651D01*
X137983150Y-131459051D02*
X138287950Y-131459051D01*
X148244750Y-131001851D02*
X148422550Y-131001851D01*
X145298350Y-130849451D02*
X145374550Y-130849451D01*
X148320950Y-131052651D02*
X148371750Y-131052651D01*
X140853350Y-131560651D02*
X140954950Y-131560651D01*
X144561750Y-130849451D02*
X144688750Y-130849451D01*
X142936150Y-131535251D02*
X143088550Y-131535251D01*
X148981350Y-130976451D02*
X149819550Y-130976451D01*
X144510950Y-131535251D02*
X149819550Y-131535251D01*
X140751750Y-130925651D02*
X140904150Y-130925651D01*
X144485550Y-131459051D02*
X149819550Y-131459051D01*
X139888150Y-132221051D02*
X140142150Y-132221051D01*
X137957750Y-132475051D02*
X138059350Y-132475051D01*
X147279550Y-130773251D02*
X147381150Y-130773251D01*
X142199550Y-131078051D02*
X142275750Y-131078051D01*
X138999150Y-132094051D02*
X149819550Y-132094051D01*
X135417750Y-131306651D02*
X136281350Y-131306651D01*
X140497750Y-131128851D02*
X140624750Y-131128851D01*
X141818550Y-131738451D02*
X141996350Y-131738451D01*
X137043350Y-131967051D02*
X137297350Y-131967051D01*
X148473350Y-131128851D02*
X148549550Y-131128851D01*
X135417750Y-133516451D02*
X149819550Y-133516451D01*
X145399950Y-132348051D02*
X149819550Y-132348051D01*
X140853350Y-132297251D02*
X140980350Y-132297251D01*
X139710350Y-130773251D02*
X139862750Y-130773251D01*
X144561750Y-131027251D02*
X144866550Y-131027251D01*
X148778150Y-130925651D02*
X148828950Y-130925651D01*
X135417750Y-131687651D02*
X136230550Y-131687651D01*
X143952150Y-131509851D02*
X144053750Y-131509851D01*
X137119550Y-132017851D02*
X137221150Y-132017851D01*
X148016150Y-131001851D02*
X148117750Y-131001851D01*
X141081950Y-131840051D02*
X141132750Y-131840051D01*
X135417750Y-130468451D02*
X136916350Y-130468451D01*
X142631350Y-132297251D02*
X142758350Y-132297251D01*
X145501550Y-130900251D02*
X145780950Y-130900251D01*
X136992550Y-131281251D02*
X137348150Y-131281251D01*
X139938950Y-131865451D02*
X140065950Y-131865451D01*
X139075350Y-131636851D02*
X139583350Y-131636851D01*
X142834550Y-132500451D02*
X142936150Y-132500451D01*
X142910750Y-130976451D02*
X143113950Y-130976451D01*
X140497750Y-131078051D02*
X140624750Y-131078051D01*
X140497750Y-131027251D02*
X140624750Y-131027251D01*
X144561750Y-131687651D02*
X149819550Y-131687651D01*
X142910750Y-131154251D02*
X143113950Y-131154251D01*
X138237150Y-132576651D02*
X138262550Y-132576651D01*
X142910750Y-130874851D02*
X143113950Y-130874851D01*
X142199550Y-130976451D02*
X142478950Y-130976451D01*
X137983150Y-131738451D02*
X138287950Y-131738451D01*
X141361350Y-132322651D02*
X141462950Y-132322651D01*
X135417750Y-131560651D02*
X136230550Y-131560651D01*
X135417750Y-129706451D02*
X149819550Y-129706451D01*
X143444150Y-131890851D02*
X143571150Y-131890851D01*
X145730150Y-131154251D02*
X145780950Y-131154251D01*
X141361350Y-132348051D02*
X141462950Y-132348051D01*
X147050950Y-130798651D02*
X147127150Y-130798651D01*
X142351950Y-131763851D02*
X142428150Y-131763851D01*
X140345350Y-132424251D02*
X140472350Y-132424251D01*
X141361350Y-132576651D02*
X141462950Y-132576651D01*
X141691550Y-130722451D02*
X141793150Y-130722451D01*
X143139350Y-132475051D02*
X143266350Y-132475051D01*
X141767750Y-132475051D02*
X141894750Y-132475051D01*
X145907950Y-130824051D02*
X146111150Y-130824051D01*
X144637950Y-132475051D02*
X144993550Y-132475051D01*
X140091350Y-132627451D02*
X140319950Y-132627451D01*
X140802550Y-131662251D02*
X141208950Y-131662251D01*
X142555150Y-131738451D02*
X142809150Y-131738451D01*
X143647350Y-132678251D02*
X143774350Y-132678251D01*
X140497750Y-130722451D02*
X140624750Y-130722451D01*
X140421550Y-131509851D02*
X140726350Y-131509851D01*
X135417750Y-133364051D02*
X149819550Y-133364051D01*
X139989750Y-131586051D02*
X140065950Y-131586051D01*
X143215550Y-131560651D02*
X143317150Y-131560651D01*
X144028350Y-132271851D02*
X144104550Y-132271851D01*
X141031150Y-130951051D02*
X141056550Y-130951051D01*
X135417750Y-132170251D02*
X136306750Y-132170251D01*
X142783750Y-131840051D02*
X142809150Y-131840051D01*
X139049950Y-131586051D02*
X139583350Y-131586051D01*
X143037750Y-132500451D02*
X143063150Y-132500451D01*
X135417750Y-131941651D02*
X136255950Y-131941651D01*
X148016150Y-131128851D02*
X148193950Y-131128851D01*
X138821350Y-130874851D02*
X139583350Y-130874851D01*
X142656750Y-132525851D02*
X142758350Y-132525851D01*
X142326550Y-132551251D02*
X142555150Y-132551251D01*
X145044350Y-131052651D02*
X145095150Y-131052651D01*
X144561750Y-130824051D02*
X144688750Y-130824051D01*
X144053750Y-131865451D02*
X144180750Y-131865451D01*
X137932350Y-132424251D02*
X138059350Y-132424251D01*
X140497750Y-130697051D02*
X140624750Y-130697051D01*
X135417750Y-133567251D02*
X149819550Y-133567251D01*
X140751750Y-130976451D02*
X140904150Y-130976451D01*
X141970950Y-132500451D02*
X142199550Y-132500451D01*
X143494950Y-132297251D02*
X143647350Y-132297251D01*
X147482750Y-131078051D02*
X147609750Y-131078051D01*
X140421550Y-131535251D02*
X140700950Y-131535251D01*
X144891950Y-132652851D02*
X144993550Y-132652851D01*
X141259750Y-130697051D02*
X141335950Y-130697051D01*
X144180750Y-130773251D02*
X144434750Y-130773251D01*
X135417750Y-131408251D02*
X136255950Y-131408251D01*
X137957750Y-130951051D02*
X138287950Y-130951051D01*
X143723550Y-131509851D02*
X143799750Y-131509851D01*
X142936150Y-132348051D02*
X143063150Y-132348051D01*
X143901350Y-132678251D02*
X144104550Y-132678251D01*
X145501550Y-130722451D02*
X145780950Y-130722451D01*
X135417750Y-131459051D02*
X136255950Y-131459051D01*
X147787550Y-130773251D02*
X147889150Y-130773251D01*
X141818550Y-131916251D02*
X141920150Y-131916251D01*
X144053750Y-131128851D02*
X144434750Y-131128851D01*
X137068750Y-131509851D02*
X137246550Y-131509851D01*
X140345350Y-132449651D02*
X140472350Y-132449651D01*
X137271950Y-132322651D02*
X137398950Y-132322651D01*
X148447950Y-130697051D02*
X148727350Y-130697051D01*
X137475150Y-131763851D02*
X137830750Y-131763851D01*
X139938950Y-132475051D02*
X140040550Y-132475051D01*
X143545750Y-132424251D02*
X143774350Y-132424251D01*
X139989750Y-130925651D02*
X140091350Y-130925651D01*
X141691550Y-130697051D02*
X141793150Y-130697051D01*
X135417750Y-129681051D02*
X149819550Y-129681051D01*
X143723550Y-131814651D02*
X143926750Y-131814651D01*
X145323750Y-130900251D02*
X145374550Y-130900251D01*
X142351950Y-131789251D02*
X142428150Y-131789251D01*
X142529750Y-132678251D02*
X142758350Y-132678251D01*
X144968150Y-130951051D02*
X145171350Y-130951051D01*
X135417750Y-130290651D02*
X137373550Y-130290651D01*
X140751750Y-130798651D02*
X140853350Y-130798651D01*
X140827950Y-131586051D02*
X140980350Y-131586051D01*
X147533550Y-130747851D02*
X147660550Y-130747851D01*
X142428150Y-130824051D02*
X142529750Y-130824051D01*
X144536350Y-131586051D02*
X149819550Y-131586051D01*
X145907950Y-130900251D02*
X146111150Y-130900251D01*
X141970950Y-132297251D02*
X142250350Y-132297251D01*
X137602150Y-131179651D02*
X137729150Y-131179651D01*
X148244750Y-130976451D02*
X148422550Y-130976451D01*
X140396150Y-132602051D02*
X140472350Y-132602051D01*
X147000150Y-130849451D02*
X147177950Y-130849451D01*
X140497750Y-131154251D02*
X140624750Y-131154251D01*
X145501550Y-130925651D02*
X145780950Y-130925651D01*
X140218350Y-130697051D02*
X140370750Y-130697051D01*
X137475150Y-130951051D02*
X137830750Y-130951051D01*
X140573950Y-132652851D02*
X140777150Y-132652851D01*
X138541950Y-130570051D02*
X146492150Y-130570051D01*
X142555150Y-131484451D02*
X142809150Y-131484451D01*
X140370750Y-132525851D02*
X140472350Y-132525851D01*
X139710350Y-131001851D02*
X139862750Y-131001851D01*
X142555150Y-131586051D02*
X142809150Y-131586051D01*
X147609750Y-130849451D02*
X147660550Y-130849451D01*
X145120550Y-132525851D02*
X145272950Y-132525851D01*
X147787550Y-130697051D02*
X147889150Y-130697051D01*
X144053750Y-131890851D02*
X144180750Y-131890851D01*
X147279550Y-131052651D02*
X147381150Y-131052651D01*
X144587150Y-131738451D02*
X149819550Y-131738451D01*
X141056550Y-132525851D02*
X141285150Y-132525851D01*
X141031150Y-132373451D02*
X141462950Y-132373451D01*
X140751750Y-131078051D02*
X140954950Y-131078051D01*
X139964350Y-131078051D02*
X140091350Y-131078051D01*
X139888150Y-131154251D02*
X140091350Y-131154251D01*
X144053750Y-130874851D02*
X144434750Y-130874851D01*
X139938950Y-131509851D02*
X140065950Y-131509851D01*
X137475150Y-130900251D02*
X137830750Y-130900251D01*
X143723550Y-131662251D02*
X143875950Y-131662251D01*
X142555150Y-131763851D02*
X142809150Y-131763851D01*
X147279550Y-131078051D02*
X147381150Y-131078051D01*
X139735750Y-131052651D02*
X139811950Y-131052651D01*
X135417750Y-130722451D02*
X136611550Y-130722451D01*
X148244750Y-130900251D02*
X148651150Y-130900251D01*
X143571150Y-132475051D02*
X143774350Y-132475051D01*
X136992550Y-130900251D02*
X137348150Y-130900251D01*
X143240950Y-131078051D02*
X143367950Y-131078051D01*
X142885350Y-132271851D02*
X143063150Y-132271851D01*
X141970950Y-132576651D02*
X142224950Y-132576651D01*
X142910750Y-130951051D02*
X143113950Y-130951051D01*
X141920150Y-131154251D02*
X142097950Y-131154251D01*
X145907950Y-130773251D02*
X145984150Y-130773251D01*
X145501550Y-130773251D02*
X145780950Y-130773251D01*
X139989750Y-131560651D02*
X140065950Y-131560651D01*
X143571150Y-131662251D02*
X143596550Y-131662251D01*
X137475150Y-131408251D02*
X137830750Y-131408251D01*
X140421550Y-131814651D02*
X140700950Y-131814651D01*
X143139350Y-132627451D02*
X143215550Y-132627451D01*
X144231550Y-132551251D02*
X144536350Y-132551251D01*
X147203350Y-130697051D02*
X147381150Y-130697051D01*
X142936150Y-131560651D02*
X143088550Y-131560651D01*
X136967150Y-130874851D02*
X137348150Y-130874851D01*
X141793150Y-132678251D02*
X141894750Y-132678251D01*
X143190150Y-131840051D02*
X143317150Y-131840051D01*
X144815750Y-130874851D02*
X144841150Y-130874851D01*
X146390550Y-130697051D02*
X146441350Y-130697051D01*
X143012350Y-132475051D02*
X143063150Y-132475051D01*
X141081950Y-131509851D02*
X141259750Y-131509851D01*
X148016150Y-130798651D02*
X148117750Y-130798651D01*
X138999150Y-132119451D02*
X149819550Y-132119451D01*
X147304950Y-131001851D02*
X147381150Y-131001851D01*
X140497750Y-130747851D02*
X140624750Y-130747851D01*
X140802550Y-131687651D02*
X141208950Y-131687651D01*
X143444150Y-131763851D02*
X143494950Y-131763851D01*
X139989750Y-131001851D02*
X140091350Y-131001851D01*
X140751750Y-130697051D02*
X140827950Y-130697051D01*
X137602150Y-131662251D02*
X137703750Y-131662251D01*
X136967150Y-131357451D02*
X137348150Y-131357451D01*
X142910750Y-130849451D02*
X143113950Y-130849451D01*
X141081950Y-132576651D02*
X141259750Y-132576651D01*
X143215550Y-131662251D02*
X143317150Y-131662251D01*
X142656750Y-132500451D02*
X142758350Y-132500451D01*
X142199550Y-132652851D02*
X142301150Y-132652851D01*
X141335950Y-131687651D02*
X141386750Y-131687651D01*
X135417750Y-133211651D02*
X149819550Y-133211651D01*
X143444150Y-131814651D02*
X143545750Y-131814651D01*
X146390550Y-130773251D02*
X146441350Y-130773251D01*
X140421550Y-132678251D02*
X140472350Y-132678251D01*
X142047150Y-131916251D02*
X142250350Y-131916251D01*
X139989750Y-131027251D02*
X140091350Y-131027251D01*
X141818550Y-131636851D02*
X142021750Y-131636851D01*
X146238150Y-131128851D02*
X146441350Y-131128851D01*
X144968150Y-132500451D02*
X144993550Y-132500451D01*
X145120550Y-132576651D02*
X145272950Y-132576651D01*
X135417750Y-129655651D02*
X149819550Y-129655651D01*
X137957750Y-131916251D02*
X138287950Y-131916251D01*
X135417750Y-130951051D02*
X136433750Y-130951051D01*
X142351950Y-132322651D02*
X142529750Y-132322651D01*
X144053750Y-131103451D02*
X144434750Y-131103451D01*
X137068750Y-131992451D02*
X137271950Y-131992451D01*
X142656750Y-132551251D02*
X142758350Y-132551251D01*
X142148750Y-130697051D02*
X142351950Y-130697051D01*
X135417750Y-132475051D02*
X136459150Y-132475051D01*
X143215550Y-131484451D02*
X143317150Y-131484451D01*
X141107350Y-132297251D02*
X141234350Y-132297251D01*
X142605950Y-132271851D02*
X142758350Y-132271851D01*
X145323750Y-130925651D02*
X145374550Y-130925651D01*
X141107350Y-131560651D02*
X141259750Y-131560651D01*
X142148750Y-131662251D02*
X142174150Y-131662251D01*
X135417750Y-131992451D02*
X136255950Y-131992451D01*
X142351950Y-131814651D02*
X142428150Y-131814651D01*
X139049950Y-131408251D02*
X149819550Y-131408251D01*
X146238150Y-130798651D02*
X146441350Y-130798651D01*
X135417750Y-129909651D02*
X149819550Y-129909651D01*
X137957750Y-132348051D02*
X138084750Y-132348051D01*
X147000150Y-130976451D02*
X147177950Y-130976451D01*
X145907950Y-131027251D02*
X146111150Y-131027251D01*
X137525950Y-132475051D02*
X137805350Y-132475051D01*
X139710350Y-131027251D02*
X139837350Y-131027251D01*
X138973750Y-132195651D02*
X149819550Y-132195651D01*
X141818550Y-131789251D02*
X141970950Y-131789251D01*
X143139350Y-132221051D02*
X143367950Y-132221051D01*
X144180750Y-130697051D02*
X144434750Y-130697051D01*
X138033950Y-130316051D02*
X149819550Y-130316051D01*
X135417750Y-131763851D02*
X136230550Y-131763851D01*
X148016150Y-130951051D02*
X148117750Y-130951051D01*
X147635150Y-130900251D02*
X147660550Y-130900251D01*
X139710350Y-131636851D02*
X139862750Y-131636851D01*
X144561750Y-130874851D02*
X144688750Y-130874851D01*
X145907950Y-130697051D02*
X145984150Y-130697051D01*
X143139350Y-132271851D02*
X143342550Y-132271851D01*
X138440350Y-132856051D02*
X149819550Y-132856051D01*
X140802550Y-131738451D02*
X140980350Y-131738451D01*
X137119550Y-131052651D02*
X137221150Y-131052651D01*
X141234350Y-130798651D02*
X141335950Y-130798651D01*
X148524150Y-131078051D02*
X148574950Y-131078051D01*
X141031150Y-131459051D02*
X141285150Y-131459051D01*
X144637950Y-131890851D02*
X149819550Y-131890851D01*
X144053750Y-130849451D02*
X144434750Y-130849451D01*
X141361350Y-132525851D02*
X141462950Y-132525851D01*
X137525950Y-132449651D02*
X137805350Y-132449651D01*
X138999150Y-131281251D02*
X149819550Y-131281251D01*
X137068750Y-132627451D02*
X137322750Y-132627451D01*
X137602150Y-130697051D02*
X137703750Y-130697051D01*
X148930550Y-130900251D02*
X149819550Y-130900251D01*
X142199550Y-131052651D02*
X142275750Y-131052651D01*
X137017950Y-130773251D02*
X137322750Y-130773251D01*
X142555150Y-132221051D02*
X142758350Y-132221051D01*
X143901350Y-132652851D02*
X144104550Y-132652851D01*
X145120550Y-132322651D02*
X145272950Y-132322651D01*
X135417750Y-130646251D02*
X136687750Y-130646251D01*
X143977550Y-131560651D02*
X144028350Y-131560651D01*
X135417750Y-131789251D02*
X136230550Y-131789251D01*
X143190150Y-131865451D02*
X143317150Y-131865451D01*
X142631350Y-131128851D02*
X142783750Y-131128851D01*
X143215550Y-131738451D02*
X143317150Y-131738451D01*
X143215550Y-131535251D02*
X143317150Y-131535251D01*
X138084750Y-131662251D02*
X138186350Y-131662251D01*
X139710350Y-130976451D02*
X139862750Y-130976451D01*
X135417750Y-130874851D02*
X136484550Y-130874851D01*
X140269150Y-130798651D02*
X140370750Y-130798651D01*
X147304950Y-130849451D02*
X147381150Y-130849451D01*
X147787550Y-130925651D02*
X147889150Y-130925651D01*
X135417750Y-132957651D02*
X137017950Y-132957651D01*
X142199550Y-130798651D02*
X142301150Y-130798651D01*
X143926750Y-131484451D02*
X144079150Y-131484451D01*
X145298350Y-131001851D02*
X145374550Y-131001851D01*
X142936150Y-131586051D02*
X143088550Y-131586051D01*
X135417750Y-132271851D02*
X136357550Y-132271851D01*
X144053750Y-130900251D02*
X144434750Y-130900251D01*
X144993550Y-130849451D02*
X145171350Y-130849451D01*
X138999150Y-131230451D02*
X149819550Y-131230451D01*
X139049950Y-131763851D02*
X139583350Y-131763851D01*
X142199550Y-130874851D02*
X142301150Y-130874851D01*
X135417750Y-129630251D02*
X149819550Y-129630251D01*
X144739550Y-130697051D02*
X144968150Y-130697051D01*
X141005750Y-130798651D02*
X141107350Y-130798651D01*
X135417750Y-131916251D02*
X136255950Y-131916251D01*
X139989750Y-130874851D02*
X140091350Y-130874851D01*
X143621950Y-132627451D02*
X143774350Y-132627451D01*
X144231550Y-132525851D02*
X144510950Y-132525851D01*
X148016150Y-131154251D02*
X148244750Y-131154251D01*
X142555150Y-131662251D02*
X142809150Y-131662251D01*
X140396150Y-131687651D02*
X140675550Y-131687651D01*
X141412150Y-131459051D02*
X141564550Y-131459051D01*
X141564550Y-131814651D02*
X141691550Y-131814651D01*
X139024550Y-131992451D02*
X149819550Y-131992451D01*
X145222150Y-131128851D02*
X145374550Y-131128851D01*
X144485550Y-131484451D02*
X149819550Y-131484451D01*
X139989750Y-131738451D02*
X140065950Y-131738451D01*
X137475150Y-131814651D02*
X137830750Y-131814651D01*
X135417750Y-133389451D02*
X149819550Y-133389451D01*
X148981350Y-131001851D02*
X149819550Y-131001851D01*
X143774350Y-131052651D02*
X143926750Y-131052651D01*
X145907950Y-130849451D02*
X146111150Y-130849451D01*
X143469550Y-131154251D02*
X143672750Y-131154251D01*
X146796950Y-130722451D02*
X146949350Y-130722451D01*
X140980350Y-130773251D02*
X141107350Y-130773251D01*
X140497750Y-131001851D02*
X140624750Y-131001851D01*
X141716950Y-131128851D02*
X141793150Y-131128851D01*
X137017950Y-132424251D02*
X137119550Y-132424251D01*
X139938950Y-132322651D02*
X140116750Y-132322651D01*
X142250350Y-131535251D02*
X142428150Y-131535251D01*
X138643550Y-130671651D02*
X149819550Y-130671651D01*
X145247550Y-131103451D02*
X145374550Y-131103451D01*
X135417750Y-132119451D02*
X136306750Y-132119451D01*
X147787550Y-131001851D02*
X147889150Y-131001851D01*
X135417750Y-132043251D02*
X136281350Y-132043251D01*
X137475150Y-131840051D02*
X137830750Y-131840051D01*
X136992550Y-130951051D02*
X137322750Y-130951051D01*
X137957750Y-132500451D02*
X138059350Y-132500451D01*
X142072550Y-131840051D02*
X142224950Y-131840051D01*
X145730150Y-131103451D02*
X145780950Y-131103451D01*
X141234350Y-130824051D02*
X141335950Y-130824051D01*
X137983150Y-132322651D02*
X138084750Y-132322651D01*
X140497750Y-130976451D02*
X140624750Y-130976451D01*
X144206150Y-131509851D02*
X144333150Y-131509851D01*
X141310550Y-132652851D02*
X141462950Y-132652851D01*
X140573950Y-132576651D02*
X140751750Y-132576651D01*
X139024550Y-131967051D02*
X149819550Y-131967051D01*
X142936150Y-131763851D02*
X143088550Y-131763851D01*
X140091350Y-132602051D02*
X140294550Y-132602051D01*
X143444150Y-131713051D02*
X143469550Y-131713051D01*
X139710350Y-130747851D02*
X139862750Y-130747851D01*
X141920150Y-131001851D02*
X142047150Y-131001851D01*
X146238150Y-131001851D02*
X146441350Y-131001851D01*
X142174150Y-130722451D02*
X142326550Y-130722451D01*
X144561750Y-131636851D02*
X149819550Y-131636851D01*
X148016150Y-130824051D02*
X148117750Y-130824051D01*
X143596550Y-132525851D02*
X143774350Y-132525851D01*
X137525950Y-132576651D02*
X137602150Y-132576651D01*
X137983150Y-132297251D02*
X138262550Y-132297251D01*
X142859950Y-132246451D02*
X143063150Y-132246451D01*
X139938950Y-132449651D02*
X140065950Y-132449651D01*
X135417750Y-131535251D02*
X136230550Y-131535251D01*
X136992550Y-131306651D02*
X137348150Y-131306651D01*
X140421550Y-131459051D02*
X140777150Y-131459051D01*
X144968150Y-132525851D02*
X144993550Y-132525851D01*
X138999150Y-131255851D02*
X149819550Y-131255851D01*
X142301150Y-132398851D02*
X142580550Y-132398851D01*
X145044350Y-130798651D02*
X145120550Y-130798651D01*
X142631350Y-130900251D02*
X142783750Y-130900251D01*
X139710350Y-130900251D02*
X139862750Y-130900251D01*
X145399950Y-132271851D02*
X149819550Y-132271851D01*
X142402750Y-131916251D02*
X142428150Y-131916251D01*
X140192950Y-132373451D02*
X140218350Y-132373451D01*
X137983150Y-131230451D02*
X138262550Y-131230451D01*
X137525950Y-132246451D02*
X137779950Y-132246451D01*
X135417750Y-132297251D02*
X136357550Y-132297251D01*
X143698150Y-130849451D02*
X143926750Y-130849451D01*
X146822350Y-131128851D02*
X146949350Y-131128851D01*
X135417750Y-131840051D02*
X136230550Y-131840051D01*
X144053750Y-131154251D02*
X144434750Y-131154251D01*
X137957750Y-130824051D02*
X138313350Y-130824051D01*
X141539150Y-132602051D02*
X141894750Y-132602051D01*
X145399950Y-132551251D02*
X149819550Y-132551251D01*
X145120550Y-132500451D02*
X145272950Y-132500451D01*
X145399950Y-132424251D02*
X149819550Y-132424251D01*
X142656750Y-132424251D02*
X142758350Y-132424251D01*
X146238150Y-130951051D02*
X146441350Y-130951051D01*
X143926750Y-131459051D02*
X144079150Y-131459051D01*
X144917350Y-132627451D02*
X144993550Y-132627451D01*
X139049950Y-131814651D02*
X139583350Y-131814651D01*
X135417750Y-129833451D02*
X149819550Y-129833451D01*
X136992550Y-131408251D02*
X137348150Y-131408251D01*
X141031150Y-130900251D02*
X141056550Y-130900251D01*
X135417750Y-133745051D02*
X149819550Y-133745051D01*
X135417750Y-130062051D02*
X149819550Y-130062051D01*
X138973750Y-131179651D02*
X149819550Y-131179651D01*
X135417750Y-131001851D02*
X136408350Y-131001851D01*
X137551350Y-131027251D02*
X137754550Y-131027251D01*
X135417750Y-130925651D02*
X136433750Y-130925651D01*
X142555150Y-131687651D02*
X142809150Y-131687651D01*
X147203350Y-131154251D02*
X147381150Y-131154251D01*
X142910750Y-131103451D02*
X143113950Y-131103451D01*
X137957750Y-130849451D02*
X138313350Y-130849451D01*
X137017950Y-132271851D02*
X137119550Y-132271851D01*
X146796950Y-130773251D02*
X146898550Y-130773251D01*
X135417750Y-133313251D02*
X149819550Y-133313251D01*
X144663350Y-132373451D02*
X144815750Y-132373451D01*
X144841150Y-132678251D02*
X144993550Y-132678251D01*
X144663350Y-132525851D02*
X144815750Y-132525851D01*
X142402750Y-131001851D02*
X142529750Y-131001851D01*
X143139350Y-132500451D02*
X143266350Y-132500451D01*
X141920150Y-131103451D02*
X142072550Y-131103451D01*
X139710350Y-131662251D02*
X139862750Y-131662251D01*
X141691550Y-130951051D02*
X141793150Y-130951051D01*
X141793150Y-132627451D02*
X141894750Y-132627451D01*
X138948350Y-132246451D02*
X139583350Y-132246451D01*
X144333150Y-131865451D02*
X144485550Y-131865451D01*
X143215550Y-131459051D02*
X143317150Y-131459051D01*
X141107350Y-131814651D02*
X141158150Y-131814651D01*
X143164750Y-131890851D02*
X143317150Y-131890851D01*
X138414950Y-130493851D02*
X149819550Y-130493851D01*
X145399950Y-132449651D02*
X149819550Y-132449651D01*
X136992550Y-131814651D02*
X137348150Y-131814651D01*
X142275750Y-131586051D02*
X142428150Y-131586051D01*
X135417750Y-129757251D02*
X149819550Y-129757251D01*
X137017950Y-132373451D02*
X137119550Y-132373451D01*
X142910750Y-130722451D02*
X142961550Y-130722451D01*
X143901350Y-132373451D02*
X144104550Y-132373451D01*
X137475150Y-131357451D02*
X137830750Y-131357451D01*
X145120550Y-132297251D02*
X145272950Y-132297251D01*
X138948350Y-131128851D02*
X139634150Y-131128851D01*
X140573950Y-132602051D02*
X140777150Y-132602051D01*
X149006750Y-131103451D02*
X149819550Y-131103451D01*
X139938950Y-132271851D02*
X140142150Y-132271851D01*
X143748950Y-130951051D02*
X143926750Y-130951051D01*
X135417750Y-132754451D02*
X136713150Y-132754451D01*
X146568350Y-131001851D02*
X146873150Y-131001851D01*
X137017950Y-131941651D02*
X137322750Y-131941651D01*
X139049950Y-131890851D02*
X139583350Y-131890851D01*
X148016150Y-130697051D02*
X148219350Y-130697051D01*
X146238150Y-130849451D02*
X146441350Y-130849451D01*
X145120550Y-132627451D02*
X145272950Y-132627451D01*
X137957750Y-132525851D02*
X138059350Y-132525851D01*
X142936150Y-131459051D02*
X143088550Y-131459051D01*
X138922950Y-131078051D02*
X139583350Y-131078051D01*
X144561750Y-131001851D02*
X144841150Y-131001851D01*
X137627550Y-131535251D02*
X137678350Y-131535251D01*
X138745150Y-130773251D02*
X139583350Y-130773251D01*
X138059350Y-132246451D02*
X138262550Y-132246451D01*
X148701950Y-131103451D02*
X148879750Y-131103451D01*
X146796950Y-130951051D02*
X146873150Y-130951051D01*
X135417750Y-133262451D02*
X149819550Y-133262451D01*
X137729150Y-132424251D02*
X137830750Y-132424251D01*
X136992550Y-130824051D02*
X137348150Y-130824051D01*
X140192950Y-131128851D02*
X140345350Y-131128851D01*
X147787550Y-131154251D02*
X147889150Y-131154251D01*
X138008550Y-131967051D02*
X138262550Y-131967051D01*
X141259750Y-130747851D02*
X141335950Y-130747851D01*
X144079150Y-131713051D02*
X144256950Y-131713051D01*
X137271950Y-132551251D02*
X137373550Y-132551251D01*
X135417750Y-131255851D02*
X136306750Y-131255851D01*
X142555150Y-131509851D02*
X142809150Y-131509851D01*
X142174150Y-130925651D02*
X142326550Y-130925651D01*
X146238150Y-131103451D02*
X146441350Y-131103451D01*
X148422550Y-131154251D02*
X148549550Y-131154251D01*
X137525950Y-132602051D02*
X137602150Y-132602051D01*
X140878750Y-132652851D02*
X141031150Y-132652851D01*
X135417750Y-133287851D02*
X149819550Y-133287851D01*
X143545750Y-131611451D02*
X143596550Y-131611451D01*
X137475150Y-131306651D02*
X137830750Y-131306651D01*
X135417750Y-132449651D02*
X136459150Y-132449651D01*
X141335950Y-132627451D02*
X141462950Y-132627451D01*
X141539150Y-132373451D02*
X141894750Y-132373451D01*
X141462950Y-130849451D02*
X141793150Y-130849451D01*
X137475150Y-131789251D02*
X137830750Y-131789251D01*
X141691550Y-130900251D02*
X141793150Y-130900251D01*
X141183550Y-130951051D02*
X141335950Y-130951051D01*
X146796950Y-130747851D02*
X146923950Y-130747851D01*
X143240950Y-130976451D02*
X143393350Y-130976451D01*
X144383950Y-131713051D02*
X144434750Y-131713051D01*
X142834550Y-132424251D02*
X142885350Y-132424251D01*
X142682150Y-131027251D02*
X142783750Y-131027251D01*
X143139350Y-132297251D02*
X143342550Y-132297251D01*
X140192950Y-131586051D02*
X140675550Y-131586051D01*
X135417750Y-132398851D02*
X136408350Y-132398851D01*
X147279550Y-130747851D02*
X147381150Y-130747851D01*
X140497750Y-130798651D02*
X140624750Y-130798651D01*
X135417750Y-130849451D02*
X136509950Y-130849451D01*
X139938950Y-131103451D02*
X140091350Y-131103451D01*
X142275750Y-131560651D02*
X142428150Y-131560651D01*
X144053750Y-130925651D02*
X144434750Y-130925651D01*
X137475150Y-131382851D02*
X137830750Y-131382851D01*
X141564550Y-131840051D02*
X141691550Y-131840051D01*
X136992550Y-131916251D02*
X137322750Y-131916251D01*
X144231550Y-132373451D02*
X144510950Y-132373451D01*
X137856150Y-133084651D02*
X149819550Y-133084651D01*
X140751750Y-131027251D02*
X140929550Y-131027251D01*
X144129950Y-131636851D02*
X144282350Y-131636851D01*
X143647350Y-130722451D02*
X143774350Y-130722451D01*
X139913550Y-131890851D02*
X140065950Y-131890851D01*
X137475150Y-131332051D02*
X137830750Y-131332051D01*
X142936150Y-131509851D02*
X143088550Y-131509851D01*
X144053750Y-131814651D02*
X144206150Y-131814651D01*
X137525950Y-132424251D02*
X137627550Y-132424251D01*
X141361350Y-132551251D02*
X141462950Y-132551251D01*
X137525950Y-131713051D02*
X137779950Y-131713051D01*
X135417750Y-129579451D02*
X149819550Y-129579451D01*
X137068750Y-131027251D02*
X137271950Y-131027251D01*
X145399950Y-132525851D02*
X149819550Y-132525851D01*
X143901350Y-132348051D02*
X144104550Y-132348051D01*
X137602150Y-132017851D02*
X137703750Y-132017851D01*
X141970950Y-131484451D02*
X142072550Y-131484451D01*
X139938950Y-132373451D02*
X140091350Y-132373451D01*
X138745150Y-132576651D02*
X139583350Y-132576651D01*
X138821350Y-130900251D02*
X139583350Y-130900251D01*
X148549550Y-131001851D02*
X148600350Y-131001851D01*
X135417750Y-130544651D02*
X136789350Y-130544651D01*
X148016150Y-130900251D02*
X148117750Y-130900251D01*
X144053750Y-131027251D02*
X144434750Y-131027251D01*
X144333150Y-131840051D02*
X144485550Y-131840051D01*
X147787550Y-130722451D02*
X147889150Y-130722451D01*
X144460150Y-132297251D02*
X144536350Y-132297251D01*
X140802550Y-131611451D02*
X140980350Y-131611451D01*
X142656750Y-132373451D02*
X142758350Y-132373451D01*
X143774350Y-131078051D02*
X143926750Y-131078051D01*
X139049950Y-131941651D02*
X149819550Y-131941651D01*
X135417750Y-129731851D02*
X149819550Y-129731851D01*
X145501550Y-130798651D02*
X145780950Y-130798651D01*
X139938950Y-132297251D02*
X140116750Y-132297251D01*
X144028350Y-132297251D02*
X144104550Y-132297251D01*
X142936150Y-131738451D02*
X143088550Y-131738451D01*
X139710350Y-131687651D02*
X139862750Y-131687651D01*
X147025550Y-130824051D02*
X147177950Y-130824051D01*
X141539150Y-132322651D02*
X141894750Y-132322651D01*
X137551350Y-131687651D02*
X137754550Y-131687651D01*
X141031150Y-130925651D02*
X141056550Y-130925651D01*
X146822350Y-131078051D02*
X146898550Y-131078051D01*
X137094150Y-131179651D02*
X137221150Y-131179651D01*
X141691550Y-130925651D02*
X141793150Y-130925651D01*
X143367950Y-130747851D02*
X143494950Y-130747851D01*
X140802550Y-131636851D02*
X141208950Y-131636851D01*
X138592750Y-132754451D02*
X149819550Y-132754451D01*
X138338750Y-130443051D02*
X149819550Y-130443051D01*
X137932350Y-131357451D02*
X138313350Y-131357451D01*
X148244750Y-130874851D02*
X148651150Y-130874851D01*
X135417750Y-131332051D02*
X136281350Y-131332051D01*
X135417750Y-130392251D02*
X137068750Y-130392251D01*
X137068750Y-130722451D02*
X137271950Y-130722451D01*
X139964350Y-132576651D02*
X140015150Y-132576651D01*
X143240950Y-130951051D02*
X143418750Y-130951051D01*
X140853350Y-132348051D02*
X140954950Y-132348051D01*
X137475150Y-130925651D02*
X137830750Y-130925651D01*
X147787550Y-130798651D02*
X147889150Y-130798651D01*
X148524150Y-130747851D02*
X148701950Y-130747851D01*
X143901350Y-132627451D02*
X144104550Y-132627451D01*
X140497750Y-130824051D02*
X140624750Y-130824051D01*
X145907950Y-130722451D02*
X145984150Y-130722451D01*
X137144950Y-131535251D02*
X137195750Y-131535251D01*
X143444150Y-131916251D02*
X143596550Y-131916251D01*
X142072550Y-131865451D02*
X142250350Y-131865451D01*
X138897550Y-132373451D02*
X139583350Y-132373451D01*
X140751750Y-131128851D02*
X140954950Y-131128851D01*
X143367950Y-132449651D02*
X143469550Y-132449651D01*
X146796950Y-130900251D02*
X146873150Y-130900251D01*
X141437550Y-131484451D02*
X141564550Y-131484451D01*
X137475150Y-131281251D02*
X137830750Y-131281251D01*
X135417750Y-130417651D02*
X136992550Y-130417651D01*
X140827950Y-132500451D02*
X140954950Y-132500451D01*
X142301150Y-132424251D02*
X142580550Y-132424251D01*
X143723550Y-131713051D02*
X143926750Y-131713051D01*
X144815750Y-130900251D02*
X144841150Y-130900251D01*
X141767750Y-132449651D02*
X141894750Y-132449651D01*
X144155350Y-131611451D02*
X144282350Y-131611451D01*
X139049950Y-131535251D02*
X139583350Y-131535251D01*
X144790350Y-130951051D02*
X144841150Y-130951051D01*
X141920150Y-131027251D02*
X142072550Y-131027251D01*
X142656750Y-132398851D02*
X142758350Y-132398851D01*
X146822350Y-131052651D02*
X146898550Y-131052651D01*
X140878750Y-131814651D02*
X140929550Y-131814651D01*
X135417750Y-133770451D02*
X149819550Y-133770451D01*
X142682150Y-130976451D02*
X142783750Y-130976451D01*
X139913550Y-132652851D02*
X139989750Y-132652851D01*
X135417750Y-131484451D02*
X136255950Y-131484451D01*
X140573950Y-132297251D02*
X140726350Y-132297251D01*
X143240950Y-130925651D02*
X143418750Y-130925651D01*
X143520350Y-132322651D02*
X143774350Y-132322651D01*
X141970950Y-131509851D02*
X142072550Y-131509851D01*
X135417750Y-131027251D02*
X136382950Y-131027251D01*
X143723550Y-131636851D02*
X143875950Y-131636851D01*
X148879750Y-130747851D02*
X149819550Y-130747851D01*
X137271950Y-132449651D02*
X137398950Y-132449651D01*
X137525950Y-132297251D02*
X137830750Y-132297251D01*
X137729150Y-132322651D02*
X137830750Y-132322651D01*
X135417750Y-132932251D02*
X136967150Y-132932251D01*
X135417750Y-130214451D02*
X149819550Y-130214451D01*
X147787550Y-130824051D02*
X147889150Y-130824051D01*
X145120550Y-132246451D02*
X145272950Y-132246451D01*
X142326550Y-131713051D02*
X142428150Y-131713051D01*
X139989750Y-130951051D02*
X140091350Y-130951051D01*
X143723550Y-131611451D02*
X143850550Y-131611451D01*
X145298350Y-130824051D02*
X145374550Y-130824051D01*
X146390550Y-130722451D02*
X146441350Y-130722451D01*
X140827950Y-132424251D02*
X140929550Y-132424251D01*
X140573950Y-132322651D02*
X140751750Y-132322651D01*
X143215550Y-131789251D02*
X143317150Y-131789251D01*
X140116750Y-132551251D02*
X140294550Y-132551251D01*
X143901350Y-132475051D02*
X144104550Y-132475051D01*
X142986950Y-131814651D02*
X143037750Y-131814651D01*
X140091350Y-132652851D02*
X140319950Y-132652851D01*
X135417750Y-132805251D02*
X136763950Y-132805251D01*
X137957750Y-132373451D02*
X138059350Y-132373451D01*
X142936150Y-131484451D02*
X143088550Y-131484451D01*
X135417750Y-131382851D02*
X136255950Y-131382851D01*
X139075350Y-131713051D02*
X139583350Y-131713051D01*
X145907950Y-131154251D02*
X146111150Y-131154251D01*
X140167550Y-132424251D02*
X140243750Y-132424251D01*
X142580550Y-130874851D02*
X142783750Y-130874851D01*
X141031150Y-132449651D02*
X141462950Y-132449651D01*
X135417750Y-132652851D02*
X136611550Y-132652851D01*
X141539150Y-132398851D02*
X141894750Y-132398851D01*
X139659550Y-132398851D02*
X139786550Y-132398851D01*
X135417750Y-132424251D02*
X136433750Y-132424251D01*
X135417750Y-132729051D02*
X136687750Y-132729051D01*
X145501550Y-130824051D02*
X145780950Y-130824051D01*
X147482750Y-131103451D02*
X147609750Y-131103451D01*
X139837350Y-131916251D02*
X140065950Y-131916251D01*
X138084750Y-132017851D02*
X138186350Y-132017851D01*
X145399950Y-132297251D02*
X149819550Y-132297251D01*
X135417750Y-129935051D02*
X149819550Y-129935051D01*
X144180750Y-131560651D02*
X144307750Y-131560651D01*
X144637950Y-131865451D02*
X149819550Y-131865451D01*
X145298350Y-131027251D02*
X145374550Y-131027251D01*
X143012350Y-132449651D02*
X143063150Y-132449651D01*
X141462950Y-130798651D02*
X141793150Y-130798651D01*
X148244750Y-130849451D02*
X148422550Y-130849451D01*
X146796950Y-130697051D02*
X146974750Y-130697051D01*
X139989750Y-130773251D02*
X140091350Y-130773251D01*
X143647350Y-132652851D02*
X143774350Y-132652851D01*
X140827950Y-132246451D02*
X141005750Y-132246451D01*
X139862750Y-131459051D02*
X140065950Y-131459051D01*
X135417750Y-133668851D02*
X149819550Y-133668851D01*
X139989750Y-131763851D02*
X140065950Y-131763851D01*
X145907950Y-130798651D02*
X146111150Y-130798651D01*
X138922950Y-131052651D02*
X139583350Y-131052651D01*
X135417750Y-130366851D02*
X137119550Y-130366851D01*
X144053750Y-130951051D02*
X144434750Y-130951051D01*
X137932350Y-131814651D02*
X138313350Y-131814651D01*
X138592750Y-130620851D02*
X146542950Y-130620851D01*
X141564550Y-131865451D02*
X141691550Y-131865451D01*
X141970950Y-132271851D02*
X142250350Y-132271851D01*
X139989750Y-130976451D02*
X140091350Y-130976451D01*
X141970950Y-132348051D02*
X142224950Y-132348051D01*
X138516550Y-132805251D02*
X149819550Y-132805251D01*
X142910750Y-131001851D02*
X143113950Y-131001851D01*
X144434750Y-132475051D02*
X144510950Y-132475051D01*
X141970950Y-132373451D02*
X142224950Y-132373451D01*
X145907950Y-131078051D02*
X146111150Y-131078051D01*
X135417750Y-130595451D02*
X136738550Y-130595451D01*
X148879750Y-130722451D02*
X149819550Y-130722451D01*
X140319950Y-132373451D02*
X140472350Y-132373451D01*
X139659550Y-132500451D02*
X139862750Y-132500451D01*
X145907950Y-130951051D02*
X146111150Y-130951051D01*
X138872150Y-130976451D02*
X139583350Y-130976451D01*
X142555150Y-131636851D02*
X142809150Y-131636851D01*
X137932350Y-131865451D02*
X138313350Y-131865451D01*
X140827950Y-131763851D02*
X140980350Y-131763851D01*
X144460150Y-132271851D02*
X144561750Y-132271851D01*
X137525950Y-132525851D02*
X137602150Y-132525851D01*
X140751750Y-130874851D02*
X140878750Y-130874851D01*
X142656750Y-130773251D02*
X142783750Y-130773251D01*
X136967150Y-131840051D02*
X137348150Y-131840051D01*
X135417750Y-132602051D02*
X136560750Y-132602051D01*
X138973750Y-132170251D02*
X149819550Y-132170251D01*
X138211750Y-132983051D02*
X149819550Y-132983051D01*
X149032150Y-131154251D02*
X149819550Y-131154251D01*
X139659550Y-132551251D02*
X139862750Y-132551251D01*
X147482750Y-130951051D02*
X147533550Y-130951051D01*
X140421550Y-131865451D02*
X140726350Y-131865451D01*
X141970950Y-132475051D02*
X142199550Y-132475051D01*
X135417750Y-133186251D02*
X149819550Y-133186251D01*
X137017950Y-132576651D02*
X137144950Y-132576651D01*
X143139350Y-132525851D02*
X143240950Y-132525851D01*
X139989750Y-130849451D02*
X140091350Y-130849451D01*
X137246550Y-132576651D02*
X137373550Y-132576651D01*
X141539150Y-132348051D02*
X141894750Y-132348051D01*
X138110150Y-131535251D02*
X138160950Y-131535251D01*
X140573950Y-132373451D02*
X140751750Y-132373451D01*
X139049950Y-131459051D02*
X139583350Y-131459051D01*
X148930550Y-130849451D02*
X149819550Y-130849451D01*
X143139350Y-132551251D02*
X143240950Y-132551251D01*
X144561750Y-131662251D02*
X149819550Y-131662251D01*
X140218350Y-130722451D02*
X140370750Y-130722451D01*
X141970950Y-132246451D02*
X142275750Y-132246451D01*
X142936150Y-131636851D02*
X143088550Y-131636851D01*
X137271950Y-132424251D02*
X137398950Y-132424251D01*
X135417750Y-132246451D02*
X136332150Y-132246451D01*
X143672750Y-130747851D02*
X143774350Y-130747851D01*
X138033950Y-131509851D02*
X138211750Y-131509851D01*
X142910750Y-130798651D02*
X143113950Y-130798651D01*
X140751750Y-130849451D02*
X140878750Y-130849451D01*
X142834550Y-132551251D02*
X142961550Y-132551251D01*
X135417750Y-129985851D02*
X149819550Y-129985851D01*
X138618150Y-132729051D02*
X149819550Y-132729051D01*
X138719750Y-130747851D02*
X139583350Y-130747851D01*
X137119550Y-130697051D02*
X137195750Y-130697051D01*
X135417750Y-130036651D02*
X149819550Y-130036651D01*
X137551350Y-130722451D02*
X137754550Y-130722451D01*
X139862750Y-132678251D02*
X139989750Y-132678251D01*
X139049950Y-131560651D02*
X139583350Y-131560651D01*
X147787550Y-130849451D02*
X147889150Y-130849451D01*
X135417750Y-132322651D02*
X136382950Y-132322651D01*
X143240950Y-131154251D02*
X143342550Y-131154251D01*
X140396150Y-131662251D02*
X140675550Y-131662251D01*
X142301150Y-131636851D02*
X142428150Y-131636851D01*
X142224950Y-131459051D02*
X142428150Y-131459051D01*
X135417750Y-132525851D02*
X136509950Y-132525851D01*
X143545750Y-131586051D02*
X143596550Y-131586051D01*
X143698150Y-130824051D02*
X143926750Y-130824051D01*
X137475150Y-131916251D02*
X137830750Y-131916251D01*
X139989750Y-130798651D02*
X140091350Y-130798651D01*
X147482750Y-130925651D02*
X147508150Y-130925651D01*
X147025550Y-131027251D02*
X147152550Y-131027251D01*
X141488350Y-131611451D02*
X141691550Y-131611451D01*
X144383950Y-131687651D02*
X144434750Y-131687651D01*
X140269150Y-130773251D02*
X140370750Y-130773251D01*
X137475150Y-130874851D02*
X137830750Y-130874851D01*
X144307750Y-131890851D02*
X144510950Y-131890851D01*
X145272950Y-130773251D02*
X145374550Y-130773251D01*
X141970950Y-132602051D02*
X142250350Y-132602051D01*
X139989750Y-130697051D02*
X140091350Y-130697051D01*
X140421550Y-131890851D02*
X140751750Y-131890851D01*
X142910750Y-131078051D02*
X143113950Y-131078051D01*
X143139350Y-132348051D02*
X143317150Y-132348051D01*
X142555150Y-131611451D02*
X142809150Y-131611451D01*
X143520350Y-131560651D02*
X143596550Y-131560651D01*
X142199550Y-130849451D02*
X142301150Y-130849451D01*
X138948350Y-131103451D02*
X139608750Y-131103451D01*
X137957750Y-131306651D02*
X138313350Y-131306651D01*
X142834550Y-132627451D02*
X143012350Y-132627451D01*
X143139350Y-132449651D02*
X143291750Y-132449651D01*
X144891950Y-132246451D02*
X144993550Y-132246451D01*
X143952150Y-131535251D02*
X144028350Y-131535251D01*
X142301150Y-132525851D02*
X142555150Y-132525851D01*
X136992550Y-131789251D02*
X137348150Y-131789251D01*
X135417750Y-131865451D02*
X136230550Y-131865451D01*
X147508150Y-130697051D02*
X147660550Y-130697051D01*
X142402750Y-131890851D02*
X142428150Y-131890851D01*
X139989750Y-131662251D02*
X140065950Y-131662251D01*
X137500550Y-131255851D02*
X137805350Y-131255851D01*
X140497750Y-130900251D02*
X140624750Y-130900251D01*
X143367950Y-130697051D02*
X143494950Y-130697051D01*
X137271950Y-132348051D02*
X137398950Y-132348051D01*
X140751750Y-131001851D02*
X140929550Y-131001851D01*
X139710350Y-130722451D02*
X139862750Y-130722451D01*
X145730150Y-131078051D02*
X145780950Y-131078051D01*
X138897550Y-131001851D02*
X139583350Y-131001851D01*
X142301150Y-132449651D02*
X142580550Y-132449651D01*
X147482750Y-131027251D02*
X147558950Y-131027251D01*
X141462950Y-131560651D02*
X141691550Y-131560651D01*
X135417750Y-130493851D02*
X136865550Y-130493851D01*
X144968150Y-130925651D02*
X145196750Y-130925651D01*
X137525950Y-132373451D02*
X137627550Y-132373451D01*
X143240950Y-130849451D02*
X143444150Y-130849451D01*
X141716950Y-131078051D02*
X141793150Y-131078051D01*
X137932350Y-131332051D02*
X138313350Y-131332051D01*
X148524150Y-130773251D02*
X148701950Y-130773251D01*
X144053750Y-131789251D02*
X144231550Y-131789251D01*
X145399950Y-132398851D02*
X149819550Y-132398851D01*
X144155350Y-131586051D02*
X144307750Y-131586051D01*
X144053750Y-130798651D02*
X144434750Y-130798651D01*
X142199550Y-130747851D02*
X142301150Y-130747851D01*
X140573950Y-132500451D02*
X140726350Y-132500451D01*
X145501550Y-130697051D02*
X145780950Y-130697051D01*
X135417750Y-133110051D02*
X149819550Y-133110051D01*
X141056550Y-132551251D02*
X141259750Y-132551251D01*
X146669950Y-130620851D02*
X149819550Y-130620851D01*
X143215550Y-131636851D02*
X143317150Y-131636851D01*
X143494950Y-131078051D02*
X143647350Y-131078051D01*
X138795950Y-130849451D02*
X139583350Y-130849451D01*
X143901350Y-132576651D02*
X144104550Y-132576651D01*
X135417750Y-131179651D02*
X136332150Y-131179651D01*
X143545750Y-132373451D02*
X143774350Y-132373451D01*
X145399950Y-132221051D02*
X149819550Y-132221051D01*
X138567350Y-130595451D02*
X146517550Y-130595451D01*
X140345350Y-132475051D02*
X140472350Y-132475051D01*
X145501550Y-130951051D02*
X145780950Y-130951051D01*
X140980350Y-130747851D02*
X141107350Y-130747851D01*
X141183550Y-130976451D02*
X141335950Y-130976451D01*
X143139350Y-132398851D02*
X143291750Y-132398851D01*
X141818550Y-131687651D02*
X141996350Y-131687651D01*
X142910750Y-132322651D02*
X143063150Y-132322651D01*
X143545750Y-130925651D02*
X143596550Y-130925651D01*
X140192950Y-130976451D02*
X140243750Y-130976451D01*
X139938950Y-132348051D02*
X140091350Y-132348051D01*
X144434750Y-132424251D02*
X144510950Y-132424251D01*
X143139350Y-132373451D02*
X143317150Y-132373451D01*
X139938950Y-132398851D02*
X140091350Y-132398851D01*
X148498750Y-131103451D02*
X148574950Y-131103451D01*
X138643550Y-132703651D02*
X149819550Y-132703651D01*
X138719750Y-132602051D02*
X139583350Y-132602051D01*
X144460150Y-132602051D02*
X144561750Y-132602051D01*
X143723550Y-131916251D02*
X143926750Y-131916251D01*
X140192950Y-131001851D02*
X140269150Y-131001851D01*
X142605950Y-130697051D02*
X142783750Y-130697051D01*
X141589950Y-131916251D02*
X141691550Y-131916251D01*
X142301150Y-132475051D02*
X142580550Y-132475051D01*
X144815750Y-130849451D02*
X144841150Y-130849451D01*
X139049950Y-131433651D02*
X149819550Y-131433651D01*
X145247550Y-130722451D02*
X145374550Y-130722451D01*
X139989750Y-130900251D02*
X140091350Y-130900251D01*
X139710350Y-130951051D02*
X139862750Y-130951051D01*
X148778150Y-130874851D02*
X148803550Y-130874851D01*
X143444150Y-131865451D02*
X143571150Y-131865451D01*
X146238150Y-131052651D02*
X146441350Y-131052651D01*
X145399950Y-132627451D02*
X149819550Y-132627451D01*
X145907950Y-130747851D02*
X145984150Y-130747851D01*
X141970950Y-132424251D02*
X142199550Y-132424251D01*
X148244750Y-130925651D02*
X148651150Y-130925651D01*
X143723550Y-131560651D02*
X143825150Y-131560651D01*
X142326550Y-131687651D02*
X142428150Y-131687651D01*
X138084750Y-130697051D02*
X138160950Y-130697051D01*
X145272950Y-131078051D02*
X145374550Y-131078051D01*
X135417750Y-132779851D02*
X136738550Y-132779851D01*
X138008550Y-131205051D02*
X138237150Y-131205051D01*
X137017950Y-132500451D02*
X137119550Y-132500451D01*
X143215550Y-131509851D02*
X143317150Y-131509851D01*
X142199550Y-132627451D02*
X142275750Y-132627451D01*
X141031150Y-132500451D02*
X141285150Y-132500451D01*
X145399950Y-132373451D02*
X149819550Y-132373451D01*
X135417750Y-131967051D02*
X136255950Y-131967051D01*
X143799750Y-131154251D02*
X143926750Y-131154251D01*
X139024550Y-131382851D02*
X149819550Y-131382851D01*
X140192950Y-131789251D02*
X140675550Y-131789251D01*
X141158150Y-131001851D02*
X141335950Y-131001851D01*
X137551350Y-131205051D02*
X137754550Y-131205051D01*
X142072550Y-131890851D02*
X142250350Y-131890851D01*
X140853350Y-132627451D02*
X140980350Y-132627451D01*
X142402750Y-131027251D02*
X142555150Y-131027251D01*
X140573950Y-132551251D02*
X140751750Y-132551251D01*
X141970950Y-132525851D02*
X142224950Y-132525851D01*
X135417750Y-130316051D02*
X137271950Y-130316051D01*
X148955950Y-130951051D02*
X149819550Y-130951051D01*
X140751750Y-130722451D02*
X140827950Y-130722451D01*
X135417750Y-129858851D02*
X149819550Y-129858851D01*
X146568350Y-130976451D02*
X146873150Y-130976451D01*
X143901350Y-132424251D02*
X144104550Y-132424251D01*
X141920150Y-130798651D02*
X142047150Y-130798651D01*
X136992550Y-131890851D02*
X137348150Y-131890851D01*
X141031150Y-130874851D02*
X141081950Y-130874851D01*
X140192950Y-130951051D02*
X140218350Y-130951051D01*
X140827950Y-132475051D02*
X140929550Y-132475051D01*
X138694350Y-130722451D02*
X139583350Y-130722451D01*
X138008550Y-132271851D02*
X138262550Y-132271851D01*
X143139350Y-132322651D02*
X143342550Y-132322651D01*
X146238150Y-130900251D02*
X146441350Y-130900251D01*
X141920150Y-131128851D02*
X142072550Y-131128851D01*
X143494950Y-132246451D02*
X143647350Y-132246451D01*
X141158150Y-131052651D02*
X141335950Y-131052651D01*
X144942750Y-132322651D02*
X144993550Y-132322651D01*
X139659550Y-132373451D02*
X139837350Y-132373451D01*
X145120550Y-132551251D02*
X145272950Y-132551251D01*
X145018950Y-131027251D02*
X145145950Y-131027251D01*
X140497750Y-131052651D02*
X140624750Y-131052651D01*
X138922950Y-132322651D02*
X139583350Y-132322651D01*
X135417750Y-130239851D02*
X149819550Y-130239851D01*
X141081950Y-131865451D02*
X141132750Y-131865451D01*
X137983150Y-132551251D02*
X138084750Y-132551251D01*
X143393350Y-132398851D02*
X143444150Y-132398851D01*
X135417750Y-133541851D02*
X149819550Y-133541851D01*
X137017950Y-132297251D02*
X137119550Y-132297251D01*
X140192950Y-131052651D02*
X140294550Y-131052651D01*
X139049950Y-131840051D02*
X139583350Y-131840051D01*
X135417750Y-133135451D02*
X149819550Y-133135451D01*
X141005750Y-131916251D02*
X141107350Y-131916251D01*
X139024550Y-131306651D02*
X149819550Y-131306651D01*
X146568350Y-130849451D02*
X146873150Y-130849451D01*
X140573950Y-132348051D02*
X140777150Y-132348051D01*
X135417750Y-133160851D02*
X149819550Y-133160851D01*
X147482750Y-131001851D02*
X147558950Y-131001851D01*
X138033950Y-131992451D02*
X138237150Y-131992451D01*
X142783750Y-131865451D02*
X142834550Y-131865451D01*
X141132750Y-131078051D02*
X141335950Y-131078051D01*
X142910750Y-130773251D02*
X142961550Y-130773251D01*
X142148750Y-131636851D02*
X142174150Y-131636851D01*
X148930550Y-130874851D02*
X149819550Y-130874851D01*
X141310550Y-131713051D02*
X141386750Y-131713051D01*
X140319950Y-132398851D02*
X140472350Y-132398851D01*
X144561750Y-130798651D02*
X144663350Y-130798651D01*
X140319950Y-130849451D02*
X140370750Y-130849451D01*
X143240950Y-131103451D02*
X143342550Y-131103451D01*
X139710350Y-130824051D02*
X139862750Y-130824051D01*
X139964350Y-132525851D02*
X140040550Y-132525851D01*
X143113950Y-131916251D02*
X143317150Y-131916251D01*
X141234350Y-130773251D02*
X141335950Y-130773251D01*
X148244750Y-130951051D02*
X148625750Y-130951051D01*
X135417750Y-131357451D02*
X136255950Y-131357451D01*
X138872150Y-132424251D02*
X139583350Y-132424251D01*
X139938950Y-132627451D02*
X139989750Y-132627451D01*
X144434750Y-132398851D02*
X144510950Y-132398851D01*
X135417750Y-130011251D02*
X149819550Y-130011251D01*
X139989750Y-131687651D02*
X140065950Y-131687651D01*
X135417750Y-131636851D02*
X136230550Y-131636851D01*
X144053750Y-130976451D02*
X144434750Y-130976451D01*
X148016150Y-131078051D02*
X148143150Y-131078051D01*
X137729150Y-132398851D02*
X137830750Y-132398851D01*
X142859950Y-132221051D02*
X143063150Y-132221051D01*
X144053750Y-131763851D02*
X144231550Y-131763851D01*
X140751750Y-130824051D02*
X140853350Y-130824051D01*
X139024550Y-132068651D02*
X149819550Y-132068651D01*
X139964350Y-131840051D02*
X140065950Y-131840051D01*
X135417750Y-131230451D02*
X136306750Y-131230451D01*
X142910750Y-131128851D02*
X143113950Y-131128851D01*
X141107350Y-132602051D02*
X141208950Y-132602051D01*
X137500550Y-131433651D02*
X137805350Y-131433651D01*
X142834550Y-132602051D02*
X142986950Y-132602051D01*
X145399950Y-132322651D02*
X149819550Y-132322651D01*
X138948350Y-132271851D02*
X139583350Y-132271851D01*
X140192950Y-131154251D02*
X140345350Y-131154251D01*
X142910750Y-130925651D02*
X143113950Y-130925651D01*
X143723550Y-131484451D02*
X143774350Y-131484451D01*
X144612550Y-131789251D02*
X149819550Y-131789251D01*
X138110150Y-132221051D02*
X138211750Y-132221051D01*
X141793150Y-132271851D02*
X141894750Y-132271851D01*
X137957750Y-131890851D02*
X138313350Y-131890851D01*
X144942750Y-132576651D02*
X144993550Y-132576651D01*
X135417750Y-132703651D02*
X136662350Y-132703651D01*
X144460150Y-132221051D02*
X144637950Y-132221051D01*
X143215550Y-131611451D02*
X143317150Y-131611451D01*
X144028350Y-132221051D02*
X144104550Y-132221051D01*
X135417750Y-132906851D02*
X136916350Y-132906851D01*
X143571150Y-132449651D02*
X143774350Y-132449651D01*
X144180750Y-130722451D02*
X144434750Y-130722451D01*
X146644550Y-130570051D02*
X149819550Y-130570051D01*
X148295550Y-130798651D02*
X148371750Y-130798651D01*
X144993550Y-130976451D02*
X145171350Y-130976451D01*
X144561750Y-131052651D02*
X144866550Y-131052651D01*
X147558950Y-130798651D02*
X147660550Y-130798651D01*
X143799750Y-131103451D02*
X143926750Y-131103451D01*
X142783750Y-131916251D02*
X142910750Y-131916251D01*
X147482750Y-131052651D02*
X147584350Y-131052651D01*
X137119550Y-131662251D02*
X137221150Y-131662251D01*
X137957750Y-130798651D02*
X138287950Y-130798651D01*
X137500550Y-130773251D02*
X137805350Y-130773251D01*
X143215550Y-131586051D02*
X143317150Y-131586051D01*
D14*
%TO.C,J3*%
X162882000Y-82640000D02*
X162882000Y-83590000D01*
X167302000Y-82640000D02*
X166852000Y-82640000D01*
X163332000Y-90860000D02*
X162882000Y-90860000D01*
X162882000Y-89910000D02*
X161392000Y-89910000D01*
X162882000Y-90860000D02*
X162882000Y-89910000D01*
X163332000Y-82640000D02*
X162882000Y-82640000D01*
X166852000Y-90860000D02*
X167302000Y-90860000D01*
X167302000Y-90860000D02*
X167302000Y-82640000D01*
%TO.C,R29*%
X158512742Y-86227500D02*
X158987258Y-86227500D01*
X158512742Y-87272500D02*
X158987258Y-87272500D01*
%TO.C,J2*%
X163040000Y-114226800D02*
X161550000Y-114226800D01*
X163040000Y-115176800D02*
X163040000Y-114226800D01*
X163490000Y-115176800D02*
X163040000Y-115176800D01*
X163040000Y-106956800D02*
X163040000Y-107906800D01*
X167460000Y-106956800D02*
X167010000Y-106956800D01*
X163490000Y-106956800D02*
X163040000Y-106956800D01*
X167010000Y-115176800D02*
X167460000Y-115176800D01*
X167460000Y-115176800D02*
X167460000Y-106956800D01*
D10*
%TO.C,Annotation1*%
X159004000Y-77349000D02*
X159404000Y-77349000D01*
X157504000Y-76649000D02*
X157504000Y-74949000D01*
X158804000Y-76649000D02*
X160504000Y-76649000D01*
X157504000Y-75349000D02*
X159204000Y-75349000D01*
X159404000Y-74749000D02*
X158804000Y-74749000D01*
X159204000Y-77049000D02*
X159204000Y-77349000D01*
X157504000Y-75349000D02*
X158804000Y-76649000D01*
X157504000Y-74949000D02*
X157104000Y-74949000D01*
X159204000Y-74749000D02*
X159204000Y-76649000D01*
X159204000Y-75349000D02*
X160504000Y-76649000D01*
X157104000Y-74949000D02*
G75*
G03*
X157104000Y-75349000I0J-200000D01*
G01*
X159404000Y-76849000D02*
G75*
G03*
X159404000Y-76849000I-200000J0D01*
G01*
X161211107Y-76649000D02*
G75*
G03*
X161211107Y-76649000I-707107J0D01*
G01*
X158211107Y-76649000D02*
G75*
G03*
X158211107Y-76649000I-707107J0D01*
G01*
D14*
%TO.C,R26*%
X157678742Y-108827300D02*
X158153258Y-108827300D01*
X157678742Y-109872300D02*
X158153258Y-109872300D01*
%TD*%
M02*
