%TF.GenerationSoftware,KiCad,Pcbnew,(6.0.1)*%
%TF.CreationDate,2022-03-10T13:17:56+01:00*%
%TF.ProjectId,XCOMMS_RF,58434f4d-4d53-45f5-9246-2e6b69636164,rev?*%
%TF.SameCoordinates,PX7ed6b40PY82a7440*%
%TF.FileFunction,Soldermask,Bot*%
%TF.FilePolarity,Negative*%
%FSLAX46Y46*%
G04 Gerber Fmt 4.6, Leading zero omitted, Abs format (unit mm)*
G04 Created by KiCad (PCBNEW (6.0.1)) date 2022-03-10 13:17:56*
%MOMM*%
%LPD*%
G01*
G04 APERTURE LIST*
G04 Aperture macros list*
%AMRoundRect*
0 Rectangle with rounded corners*
0 $1 Rounding radius*
0 $2 $3 $4 $5 $6 $7 $8 $9 X,Y pos of 4 corners*
0 Add a 4 corners polygon primitive as box body*
4,1,4,$2,$3,$4,$5,$6,$7,$8,$9,$2,$3,0*
0 Add four circle primitives for the rounded corners*
1,1,$1+$1,$2,$3*
1,1,$1+$1,$4,$5*
1,1,$1+$1,$6,$7*
1,1,$1+$1,$8,$9*
0 Add four rect primitives between the rounded corners*
20,1,$1+$1,$2,$3,$4,$5,0*
20,1,$1+$1,$4,$5,$6,$7,0*
20,1,$1+$1,$6,$7,$8,$9,0*
20,1,$1+$1,$8,$9,$2,$3,0*%
G04 Aperture macros list end*
%ADD10R,1.600000X4.900000*%
%ADD11C,0.800000*%
%ADD12C,6.400000*%
%ADD13R,2.220000X0.740000*%
%ADD14C,1.420000*%
%ADD15RoundRect,0.140000X-0.170000X0.140000X-0.170000X-0.140000X0.170000X-0.140000X0.170000X0.140000X0*%
%ADD16R,2.410000X3.810000*%
%ADD17RoundRect,0.150000X-0.825000X-0.150000X0.825000X-0.150000X0.825000X0.150000X-0.825000X0.150000X0*%
G04 APERTURE END LIST*
D10*
%TO.C,J1*%
X15799798Y62050200D03*
X24319798Y62050200D03*
%TD*%
D11*
%TO.C,SCRW2*%
X6697067Y58302950D03*
X5000011Y57600006D03*
X6697067Y61697062D03*
X3302955Y58302950D03*
D12*
X5000011Y60000006D03*
D11*
X5000011Y62400006D03*
X3302955Y61697062D03*
X7400011Y60000006D03*
X2600011Y60000006D03*
%TD*%
%TO.C,SCRW4*%
X36697058Y58302950D03*
X35000002Y57600006D03*
X33302946Y58302950D03*
D12*
X35000002Y60000006D03*
D11*
X32600002Y60000006D03*
X37400002Y60000006D03*
X36697058Y61697062D03*
X35000002Y62400006D03*
X33302946Y61697062D03*
%TD*%
%TO.C,SCRW1*%
X6697067Y3302933D03*
X3302955Y3302933D03*
X2600011Y4999989D03*
X3302955Y6697045D03*
X5000011Y7399989D03*
D12*
X5000011Y4999989D03*
D11*
X7400011Y4999989D03*
X5000011Y2599989D03*
X6697067Y6697045D03*
%TD*%
%TO.C,SCRW3*%
X37400002Y4999989D03*
D12*
X35000002Y4999989D03*
D11*
X32600002Y4999989D03*
X35000002Y7399989D03*
X33302946Y6697045D03*
X36697058Y6697045D03*
X36697058Y3302933D03*
X33302946Y3302933D03*
X35000002Y2599989D03*
%TD*%
D10*
%TO.C,J2*%
X24319798Y3239700D03*
X15799798Y3239700D03*
%TD*%
D13*
%TO.C,J3*%
X4969998Y38230000D03*
X7699998Y38230000D03*
X4969998Y36960000D03*
X7699998Y36960000D03*
X4969998Y35690000D03*
X7699998Y35690000D03*
X4969998Y34420000D03*
X7699998Y34420000D03*
X4969998Y33150000D03*
X7699998Y33150000D03*
X4969998Y31880000D03*
X7699998Y31880000D03*
X4969998Y30610000D03*
X7699998Y30610000D03*
X4969998Y29340000D03*
X7699998Y29340000D03*
X4969998Y28070000D03*
X7699998Y28070000D03*
X4969998Y26800000D03*
X7699998Y26800000D03*
D14*
X6334998Y25210000D03*
X6334998Y39820000D03*
%TD*%
D15*
%TO.C,C50*%
X24200000Y11219998D03*
X24200000Y12179998D03*
%TD*%
D16*
%TO.C,U7*%
X19700000Y12935002D03*
D17*
X22175000Y11030002D03*
X22175000Y12300002D03*
X22175000Y13570002D03*
X22175000Y14840002D03*
X17225000Y14840002D03*
X17225000Y13570002D03*
X17225000Y12300002D03*
X17225000Y11030002D03*
%TD*%
M02*
