M48
; DRILL file {KiCad (6.0.1)} date Thu Mar 10 13:18:04 2022
; FORMAT={-:-/ absolute / metric / decimal}
; #@! TF.CreationDate,2022-03-10T13:18:04+01:00
; #@! TF.GenerationSoftware,Kicad,Pcbnew,(6.0.1)
; #@! TF.FileFunction,Plated,1,2,PTH
FMAT,2
METRIC
; #@! TA.AperFunction,Plated,PTH,ViaDrill
T1C0.305
; #@! TA.AperFunction,Plated,PTH,ComponentDrill
T2C0.500
; #@! TA.AperFunction,Plated,PTH,ComponentDrill
T3C3.200
%
G90
G05
T1
X1.213Y60.115
X1.213Y57.615
X1.213Y55.115
X1.213Y52.615
X1.213Y50.115
X1.213Y47.615
X1.213Y45.115
X1.213Y42.615
X1.213Y40.115
X1.213Y37.615
X1.213Y35.115
X1.213Y32.615
X1.213Y30.115
X1.213Y27.615
X1.213Y25.115
X1.213Y22.615
X1.213Y20.115
X1.213Y17.615
X1.213Y15.115
X1.213Y12.615
X1.213Y10.115
X1.213Y7.615
X1.213Y5.115
X3.372Y20.609
X3.397Y38.262
X3.397Y36.992
X3.397Y35.7
X3.499Y30.642
X3.499Y29.3
X4.572Y25.689
X4.769Y20.609
X4.8Y14.5
X5.0Y64.0
X5.0Y1.0
X6.471Y20.609
X6.547Y11.719
X7.309Y44.358
X7.309Y43.342
X7.309Y42.326
X7.309Y41.31
X7.5Y64.0
X7.5Y1.0
X7.944Y22.006
X7.944Y20.863
X9.214Y38.215
X9.214Y36.945
X9.214Y35.675
X9.214Y34.452
X9.214Y31.9
X9.214Y30.6
X9.214Y29.372
X9.214Y28.102
X9.214Y26.785
X10.0Y64.0
X10.0Y1.0
X11.119Y18.9
X11.119Y15.1
X11.119Y13.2
X11.3Y9.6
X11.856Y35.7
X12.5Y64.0
X12.5Y1.0
X12.643Y36.992
X13.405Y38.262
X14.421Y40.548
X14.675Y33.055
X14.675Y31.912
X14.675Y30.642
X14.675Y29.372
X15.0Y64.0
X15.0Y1.0
X15.564Y24.506
X16.961Y8.29
X17.5Y1.0
X18.066Y8.29
X18.702Y13.121
X18.702Y11.14
X19.692Y12.13
X20.683Y13.121
X20.7Y11.3
X22.5Y1.0
X23.621Y48.841
X24.708Y35.722
X24.708Y30.515
X25.0Y64.0
X25.0Y1.0
X25.14Y24.876
X25.851Y25.816
X25.9Y13.6
X25.978Y45.247
X27.121Y25.816
X27.5Y64.0
X27.5Y1.0
X27.502Y41.564
X28.466Y9.6
X28.6Y38.0
X29.407Y32.42
X29.5Y39.0
X29.6Y22.8
X29.7Y37.0
X30.0Y64.0
X30.0Y1.0
X30.6Y39.9
X30.6Y37.9
X30.6Y36.0
X31.7Y38.8
X31.8Y36.9
X32.201Y46.517
X32.5Y64.0
X32.5Y1.0
X32.7Y37.8
X33.471Y43.85
X34.792Y27.8
X34.995Y42.834
X35.0Y64.0
X35.0Y1.0
X35.122Y41.31
X35.376Y31.277
X36.265Y42.834
X38.932Y60.115
X38.932Y57.615
X38.932Y55.115
X38.932Y52.615
X38.932Y50.115
X38.932Y47.615
X38.932Y45.115
X38.932Y42.615
X38.932Y40.115
X38.932Y37.615
X38.932Y35.115
X38.932Y32.615
X38.932Y30.115
X38.932Y27.615
X38.932Y25.115
X38.932Y22.615
X38.932Y20.115
X38.932Y17.615
X38.932Y15.115
X38.932Y12.615
X38.932Y10.115
X38.932Y7.615
X38.932Y5.115
T2
X2.6Y60.0
X2.6Y5.0
X3.303Y61.697
X3.303Y58.303
X3.303Y6.697
X3.303Y3.303
X5.0Y62.4
X5.0Y57.6
X5.0Y7.4
X5.0Y2.6
X6.697Y61.697
X6.697Y58.303
X6.697Y6.697
X6.697Y3.303
X7.4Y60.0
X7.4Y5.0
X32.6Y60.0
X32.6Y5.0
X33.303Y61.697
X33.303Y58.303
X33.303Y6.697
X33.303Y3.303
X35.0Y62.4
X35.0Y57.6
X35.0Y7.4
X35.0Y2.6
X36.697Y61.697
X36.697Y58.303
X36.697Y6.697
X36.697Y3.303
X37.4Y60.0
X37.4Y5.0
T3
X5.0Y60.0
X5.0Y5.0
X35.0Y60.0
X35.0Y5.0
T0
M30
