%TF.GenerationSoftware,KiCad,Pcbnew,(6.0.1)*%
%TF.CreationDate,2022-03-22T15:32:48+01:00*%
%TF.ProjectId,HMC952_TestBoard,484d4339-3532-45f5-9465-7374426f6172,rev?*%
%TF.SameCoordinates,Original*%
%TF.FileFunction,Copper,L1,Top*%
%TF.FilePolarity,Positive*%
%FSLAX46Y46*%
G04 Gerber Fmt 4.6, Leading zero omitted, Abs format (unit mm)*
G04 Created by KiCad (PCBNEW (6.0.1)) date 2022-03-22 15:32:48*
%MOMM*%
%LPD*%
G01*
G04 APERTURE LIST*
G04 Aperture macros list*
%AMRoundRect*
0 Rectangle with rounded corners*
0 $1 Rounding radius*
0 $2 $3 $4 $5 $6 $7 $8 $9 X,Y pos of 4 corners*
0 Add a 4 corners polygon primitive as box body*
4,1,4,$2,$3,$4,$5,$6,$7,$8,$9,$2,$3,0*
0 Add four circle primitives for the rounded corners*
1,1,$1+$1,$2,$3*
1,1,$1+$1,$4,$5*
1,1,$1+$1,$6,$7*
1,1,$1+$1,$8,$9*
0 Add four rect primitives between the rounded corners*
20,1,$1+$1,$2,$3,$4,$5,0*
20,1,$1+$1,$4,$5,$6,$7,0*
20,1,$1+$1,$6,$7,$8,$9,0*
20,1,$1+$1,$8,$9,$2,$3,0*%
G04 Aperture macros list end*
%TA.AperFunction,SMDPad,CuDef*%
%ADD10RoundRect,0.225000X0.225000X0.250000X-0.225000X0.250000X-0.225000X-0.250000X0.225000X-0.250000X0*%
%TD*%
%TA.AperFunction,SMDPad,CuDef*%
%ADD11RoundRect,0.140000X0.140000X0.170000X-0.140000X0.170000X-0.140000X-0.170000X0.140000X-0.170000X0*%
%TD*%
%TA.AperFunction,SMDPad,CuDef*%
%ADD12RoundRect,0.250000X-0.250000X-0.475000X0.250000X-0.475000X0.250000X0.475000X-0.250000X0.475000X0*%
%TD*%
%TA.AperFunction,SMDPad,CuDef*%
%ADD13RoundRect,0.140000X-0.140000X-0.170000X0.140000X-0.170000X0.140000X0.170000X-0.140000X0.170000X0*%
%TD*%
%TA.AperFunction,SMDPad,CuDef*%
%ADD14RoundRect,0.225000X-0.225000X-0.250000X0.225000X-0.250000X0.225000X0.250000X-0.225000X0.250000X0*%
%TD*%
%TA.AperFunction,SMDPad,CuDef*%
%ADD15R,5.600000X1.500000*%
%TD*%
%TA.AperFunction,SMDPad,CuDef*%
%ADD16R,4.900000X1.600000*%
%TD*%
%TA.AperFunction,SMDPad,CuDef*%
%ADD17RoundRect,0.200000X-0.600000X0.200000X-0.600000X-0.200000X0.600000X-0.200000X0.600000X0.200000X0*%
%TD*%
%TA.AperFunction,SMDPad,CuDef*%
%ADD18RoundRect,0.250001X-1.249999X0.799999X-1.249999X-0.799999X1.249999X-0.799999X1.249999X0.799999X0*%
%TD*%
%TA.AperFunction,SMDPad,CuDef*%
%ADD19RoundRect,0.250000X0.250000X0.475000X-0.250000X0.475000X-0.250000X-0.475000X0.250000X-0.475000X0*%
%TD*%
%TA.AperFunction,SMDPad,CuDef*%
%ADD20R,0.850000X0.350000*%
%TD*%
%TA.AperFunction,SMDPad,CuDef*%
%ADD21R,0.350000X0.850000*%
%TD*%
%TA.AperFunction,SMDPad,CuDef*%
%ADD22R,3.250000X3.250000*%
%TD*%
%TA.AperFunction,SMDPad,CuDef*%
%ADD23RoundRect,0.200000X0.600000X-0.200000X0.600000X0.200000X-0.600000X0.200000X-0.600000X-0.200000X0*%
%TD*%
%TA.AperFunction,SMDPad,CuDef*%
%ADD24RoundRect,0.250001X1.249999X-0.799999X1.249999X0.799999X-1.249999X0.799999X-1.249999X-0.799999X0*%
%TD*%
%TA.AperFunction,ViaPad*%
%ADD25C,0.508000*%
%TD*%
%TA.AperFunction,ViaPad*%
%ADD26C,0.800000*%
%TD*%
%TA.AperFunction,Conductor*%
%ADD27C,0.400000*%
%TD*%
%TA.AperFunction,Conductor*%
%ADD28C,1.000000*%
%TD*%
%TA.AperFunction,Conductor*%
%ADD29C,0.825500*%
%TD*%
%TA.AperFunction,Conductor*%
%ADD30C,0.500000*%
%TD*%
G04 APERTURE END LIST*
D10*
%TO.P,C16,1*%
%TO.N,GND*%
X141300000Y-86010000D03*
%TO.P,C16,2*%
%TO.N,/Vd_PA*%
X139750000Y-86010000D03*
%TD*%
D11*
%TO.P,C3,1*%
%TO.N,GND*%
X137294000Y-98772000D03*
%TO.P,C3,2*%
%TO.N,/Vg_PA*%
X136334000Y-98772000D03*
%TD*%
D12*
%TO.P,C7,1*%
%TO.N,GND*%
X128818000Y-102808000D03*
%TO.P,C7,2*%
%TO.N,/Vg_PA*%
X130718000Y-102808000D03*
%TD*%
D13*
%TO.P,C1,1*%
%TO.N,GND*%
X129730000Y-98808000D03*
%TO.P,C1,2*%
%TO.N,/Vg_PA*%
X130690000Y-98808000D03*
%TD*%
D14*
%TO.P,C5,1*%
%TO.N,GND*%
X133221000Y-100558000D03*
%TO.P,C5,2*%
%TO.N,/Vg_PA*%
X134771000Y-100558000D03*
%TD*%
D12*
%TO.P,C18,1*%
%TO.N,GND*%
X131775000Y-83750000D03*
%TO.P,C18,2*%
%TO.N,/Vd_PA*%
X133675000Y-83750000D03*
%TD*%
D15*
%TO.P,J2,1,RF*%
%TO.N,/RF_out*%
X162700000Y-93000000D03*
D16*
%TO.P,J2,S1*%
%TO.N,GND*%
X163050000Y-97260000D03*
%TO.P,J2,S2*%
X163050000Y-88740000D03*
%TD*%
D13*
%TO.P,C10,1*%
%TO.N,GND*%
X133035000Y-87750000D03*
%TO.P,C10,2*%
%TO.N,/Vd_PA*%
X133995000Y-87750000D03*
%TD*%
D17*
%TO.P,J3,1,1*%
%TO.N,/Vd_PA*%
X111900000Y-78375000D03*
%TO.P,J3,2,2*%
%TO.N,GND*%
X111900000Y-79625000D03*
D18*
%TO.P,J3,MP,MH1*%
X109000000Y-75825000D03*
X109000000Y-82175000D03*
%TD*%
D15*
%TO.P,J1,1,RF*%
%TO.N,/RF_In*%
X109117500Y-93250000D03*
D16*
%TO.P,J1,S1*%
%TO.N,GND*%
X108767500Y-88990000D03*
%TO.P,J1,S2*%
X108767500Y-97510000D03*
%TD*%
D17*
%TO.P,J4,1,1*%
%TO.N,/Vg_PA*%
X111900000Y-106375000D03*
%TO.P,J4,2,2*%
%TO.N,GND*%
X111900000Y-107625000D03*
D18*
%TO.P,J4,MP,MH1*%
X109000000Y-110175000D03*
X109000000Y-103825000D03*
%TD*%
D12*
%TO.P,C19,1*%
%TO.N,GND*%
X135785000Y-83740000D03*
%TO.P,C19,2*%
%TO.N,/Vd_PA*%
X137685000Y-83740000D03*
%TD*%
D13*
%TO.P,C11,1*%
%TO.N,GND*%
X137045000Y-87740000D03*
%TO.P,C11,2*%
%TO.N,/Vd_PA*%
X138005000Y-87740000D03*
%TD*%
D19*
%TO.P,C21,1*%
%TO.N,GND*%
X142028000Y-102808000D03*
%TO.P,C21,2*%
%TO.N,/Vd_PA*%
X140128000Y-102808000D03*
%TD*%
D14*
%TO.P,C4,1*%
%TO.N,GND*%
X129181000Y-100522000D03*
%TO.P,C4,2*%
%TO.N,/Vg_PA*%
X130731000Y-100522000D03*
%TD*%
%TO.P,C15,1*%
%TO.N,GND*%
X136180000Y-86000000D03*
%TO.P,C15,2*%
%TO.N,/Vd_PA*%
X137730000Y-86000000D03*
%TD*%
D19*
%TO.P,C20,1*%
%TO.N,GND*%
X141695000Y-83750000D03*
%TO.P,C20,2*%
%TO.N,/Vd_PA*%
X139795000Y-83750000D03*
%TD*%
D20*
%TO.P,U1,1,NC_1*%
%TO.N,GND*%
X134550000Y-91375000D03*
%TO.P,U1,2,NC_2*%
X134550000Y-92025000D03*
%TO.P,U1,3,NC_3*%
X134550000Y-92675000D03*
%TO.P,U1,4,RFIN*%
%TO.N,/RF_In*%
X134550000Y-93325000D03*
%TO.P,U1,5,GND_1*%
%TO.N,GND*%
X134550000Y-93975000D03*
%TO.P,U1,6,VGG1*%
%TO.N,/Vg_PA*%
X134550000Y-94625000D03*
D21*
%TO.P,U1,7,VGG2*%
X135375000Y-95450000D03*
%TO.P,U1,8,VGG3*%
X136025000Y-95450000D03*
%TO.P,U1,9,NC_4*%
%TO.N,GND*%
X136675000Y-95450000D03*
%TO.P,U1,10,NC_5*%
X137325000Y-95450000D03*
%TO.P,U1,11,VDD4*%
%TO.N,/Vd_PA*%
X137975000Y-95450000D03*
%TO.P,U1,12,VREF*%
%TO.N,/Vref*%
X138625000Y-95450000D03*
D20*
%TO.P,U1,13,VDET*%
%TO.N,/Vdet*%
X139450000Y-94625000D03*
%TO.P,U1,14,NC_6*%
%TO.N,GND*%
X139450000Y-93975000D03*
%TO.P,U1,15,GND_2*%
X139450000Y-93325000D03*
%TO.P,U1,16,RFOUT*%
%TO.N,/RF_out*%
X139450000Y-92675000D03*
%TO.P,U1,17,NC_7*%
%TO.N,GND*%
X139450000Y-92025000D03*
%TO.P,U1,18,NC_8*%
X139450000Y-91375000D03*
D21*
%TO.P,U1,19,NC_9*%
X138625000Y-90550000D03*
%TO.P,U1,20,VDD3*%
%TO.N,/Vd_PA*%
X137975000Y-90550000D03*
%TO.P,U1,21,VDD2*%
X137325000Y-90550000D03*
%TO.P,U1,22,VDD1*%
X136675000Y-90550000D03*
%TO.P,U1,23,NC_10*%
%TO.N,GND*%
X136025000Y-90550000D03*
%TO.P,U1,24,NC_11*%
X135375000Y-90550000D03*
D22*
%TO.P,U1,25,THERMAL_PAD*%
X137000000Y-93000000D03*
%TD*%
D10*
%TO.P,C6,1*%
%TO.N,GND*%
X137970000Y-100522000D03*
%TO.P,C6,2*%
%TO.N,/Vg_PA*%
X136420000Y-100522000D03*
%TD*%
D12*
%TO.P,C8,1*%
%TO.N,GND*%
X132796000Y-102808000D03*
%TO.P,C8,2*%
%TO.N,/Vg_PA*%
X134696000Y-102808000D03*
%TD*%
D13*
%TO.P,C2,1*%
%TO.N,GND*%
X133766000Y-98808000D03*
%TO.P,C2,2*%
%TO.N,/Vg_PA*%
X134726000Y-98808000D03*
%TD*%
D11*
%TO.P,C13,1*%
%TO.N,GND*%
X141058000Y-98808000D03*
%TO.P,C13,2*%
%TO.N,/Vd_PA*%
X140098000Y-98808000D03*
%TD*%
D23*
%TO.P,J6,1,1*%
%TO.N,/Vref*%
X160100000Y-79625000D03*
%TO.P,J6,2,2*%
%TO.N,GND*%
X160100000Y-78375000D03*
D24*
%TO.P,J6,MP,MH1*%
X163000000Y-82175000D03*
X163000000Y-75825000D03*
%TD*%
D11*
%TO.P,C12,1*%
%TO.N,GND*%
X140435000Y-87750000D03*
%TO.P,C12,2*%
%TO.N,/Vd_PA*%
X139475000Y-87750000D03*
%TD*%
D10*
%TO.P,C17,1*%
%TO.N,GND*%
X141603000Y-100548000D03*
%TO.P,C17,2*%
%TO.N,/Vd_PA*%
X140053000Y-100548000D03*
%TD*%
D14*
%TO.P,C14,1*%
%TO.N,GND*%
X132170000Y-86010000D03*
%TO.P,C14,2*%
%TO.N,/Vd_PA*%
X133720000Y-86010000D03*
%TD*%
D19*
%TO.P,C9,1*%
%TO.N,GND*%
X138272000Y-102772000D03*
%TO.P,C9,2*%
%TO.N,/Vg_PA*%
X136372000Y-102772000D03*
%TD*%
D23*
%TO.P,J5,1,1*%
%TO.N,/Vdet*%
X160100000Y-107625000D03*
%TO.P,J5,2,2*%
%TO.N,GND*%
X160100000Y-106375000D03*
D24*
%TO.P,J5,MP,MH2*%
X163000000Y-110175000D03*
X163000000Y-103825000D03*
%TD*%
D25*
%TO.N,GND*%
X111000000Y-110000000D03*
X138211000Y-93029000D03*
X126000000Y-80000000D03*
X106762000Y-111571000D03*
X162515000Y-94426000D03*
X112858000Y-92140000D03*
X110318000Y-114238000D03*
X120859000Y-94426000D03*
X106762000Y-84012000D03*
X151974000Y-94045000D03*
X149307000Y-94045000D03*
X146000000Y-85000000D03*
X165436000Y-109793000D03*
X155656972Y-114234671D03*
X126000000Y-75000000D03*
X156000000Y-85000000D03*
X134321000Y-114238000D03*
X165436000Y-78678000D03*
X165436000Y-103570000D03*
X120974323Y-70672489D03*
X157308000Y-94045000D03*
X129749000Y-92140000D03*
X155530000Y-94045000D03*
X119208000Y-114238000D03*
X143973000Y-94045000D03*
X106762000Y-102681000D03*
X165436000Y-81345000D03*
X147644323Y-70672489D03*
X146755351Y-70675818D03*
X152989972Y-114234671D03*
X106762000Y-76900000D03*
X117303000Y-92140000D03*
X164293000Y-94426000D03*
X113862351Y-70675818D03*
X156545972Y-114234671D03*
X144862000Y-94045000D03*
X131527000Y-94426000D03*
X156000000Y-90000000D03*
X135036000Y-87695000D03*
X107651000Y-114238000D03*
X123652972Y-114234671D03*
X116529351Y-70675818D03*
X165436000Y-113349000D03*
X138846000Y-99252000D03*
X165432671Y-88457028D03*
X137865351Y-70675818D03*
X112973351Y-70675818D03*
X146000000Y-90000000D03*
X144088351Y-70675818D03*
X112858000Y-94426000D03*
X145751000Y-92013000D03*
X129749000Y-94426000D03*
X115974623Y-104974623D03*
X165432671Y-71566028D03*
X106758671Y-94680028D03*
X150322972Y-114234671D03*
X121748000Y-94426000D03*
X106758671Y-92013028D03*
X121000000Y-85000000D03*
X144989000Y-114238000D03*
X122637000Y-94426000D03*
X128860000Y-94426000D03*
X121748000Y-92140000D03*
X118192000Y-94426000D03*
X126319972Y-114234671D03*
X165432671Y-100014028D03*
X151085000Y-94045000D03*
X131653972Y-114234671D03*
X106758671Y-72455028D03*
X106762000Y-75122000D03*
X106762000Y-74233000D03*
X127208972Y-114234671D03*
X143084000Y-92013000D03*
X153867323Y-70672489D03*
X157308000Y-92013000D03*
X115640351Y-70675818D03*
X121000000Y-90000000D03*
X106762000Y-79567000D03*
X123526000Y-94426000D03*
X150311323Y-70672489D03*
X164293000Y-91632000D03*
X111000000Y-90000000D03*
X165436000Y-104459000D03*
X126193000Y-92140000D03*
X137703000Y-93537000D03*
X139655000Y-114238000D03*
X136087351Y-70675818D03*
X142195000Y-92013000D03*
X127197323Y-70672489D03*
X120985972Y-114234671D03*
X165436000Y-108015000D03*
X106762000Y-100903000D03*
X106758671Y-71566028D03*
X146640000Y-94045000D03*
X152863000Y-94045000D03*
X126000000Y-90000000D03*
X159848000Y-91632000D03*
X109417351Y-70675818D03*
X144100000Y-114238000D03*
X158197000Y-94045000D03*
X123641323Y-70672489D03*
X137068000Y-94172000D03*
X135798000Y-91886000D03*
X138754351Y-70675818D03*
X165432671Y-73344028D03*
X152863000Y-92013000D03*
X165436000Y-85790000D03*
X119196351Y-70675818D03*
X114636000Y-92140000D03*
X136433000Y-93537000D03*
X111000000Y-80000000D03*
X118319000Y-114238000D03*
X133431972Y-114234671D03*
X160090323Y-70672489D03*
X113874000Y-114238000D03*
X165436000Y-74233000D03*
X106762000Y-110682000D03*
X106762000Y-83123000D03*
X119970000Y-92140000D03*
X165436000Y-108904000D03*
X116414000Y-94426000D03*
X156534323Y-70672489D03*
X131734000Y-101538000D03*
X120859000Y-92140000D03*
X122752323Y-70672489D03*
X151000000Y-110000000D03*
X146640000Y-92013000D03*
X142195000Y-94045000D03*
X139643351Y-70675818D03*
X127971000Y-94426000D03*
X132542972Y-114234671D03*
X111080000Y-91759000D03*
X141433000Y-114238000D03*
X106762000Y-84901000D03*
X165430987Y-114232987D03*
X111000000Y-100000000D03*
X106758671Y-88457028D03*
X106762000Y-108015000D03*
X158197000Y-92013000D03*
X134782000Y-86044000D03*
X146000000Y-100000000D03*
X147655972Y-114234671D03*
X151200323Y-70672489D03*
X134782000Y-81980000D03*
X146767000Y-114238000D03*
X162763987Y-114232987D03*
X163641338Y-70670805D03*
X106758671Y-70677028D03*
X132496000Y-98490000D03*
X156000000Y-110000000D03*
X165432671Y-95569028D03*
X165182000Y-91632000D03*
X134655000Y-83758000D03*
X123526000Y-92140000D03*
X160101972Y-114234671D03*
X148544972Y-114234671D03*
X164541987Y-114232987D03*
X165436000Y-86679000D03*
X121000000Y-100000000D03*
X115974623Y-74974623D03*
X117430000Y-114238000D03*
X132416000Y-94426000D03*
X146000000Y-110000000D03*
X106758671Y-89346028D03*
X131000000Y-90000000D03*
X106758671Y-98236028D03*
X126000000Y-100000000D03*
X135198351Y-70675818D03*
X165436000Y-105348000D03*
X112096000Y-114238000D03*
X121000000Y-105000000D03*
X130638000Y-94426000D03*
X110191000Y-91759000D03*
X117303000Y-94426000D03*
X119081000Y-92140000D03*
X158323972Y-114234671D03*
X159848000Y-94426000D03*
X160985987Y-114232987D03*
X111969000Y-91759000D03*
X145878000Y-114238000D03*
X152978323Y-70672489D03*
X165436000Y-102681000D03*
X156000000Y-80000000D03*
X138211000Y-94172000D03*
X125430972Y-114234671D03*
X109429000Y-114238000D03*
X165436000Y-83123000D03*
X163652987Y-114232987D03*
X115652000Y-114238000D03*
X145866351Y-70675818D03*
X114636000Y-94426000D03*
X143199351Y-70675818D03*
X143084000Y-94045000D03*
X142322000Y-114238000D03*
X161626000Y-94426000D03*
X106762000Y-105348000D03*
X118192000Y-92140000D03*
X106762000Y-106237000D03*
X107639351Y-70675818D03*
X153878972Y-114234671D03*
X136000000Y-110000000D03*
X132531323Y-70672489D03*
X153752000Y-94045000D03*
X159201323Y-70672489D03*
X151000000Y-90000000D03*
X148418000Y-92013000D03*
X165436000Y-84012000D03*
X131527000Y-92140000D03*
X128086323Y-70672489D03*
X165432671Y-89346028D03*
X131642323Y-70672489D03*
X146000000Y-75000000D03*
X131000000Y-110000000D03*
X131000000Y-85000000D03*
X165436000Y-82234000D03*
X106762000Y-81345000D03*
X125304000Y-94426000D03*
X131000000Y-105000000D03*
X126000000Y-85000000D03*
X121000000Y-75000000D03*
X165436000Y-79567000D03*
X151085000Y-92013000D03*
X147529000Y-92013000D03*
X106762000Y-112460000D03*
X165436000Y-107126000D03*
X122637000Y-92140000D03*
X165419338Y-70670805D03*
X133420323Y-70672489D03*
X106762000Y-104459000D03*
X138211000Y-91886000D03*
X133305000Y-92140000D03*
X145751000Y-94045000D03*
X128986972Y-114234671D03*
X153752000Y-92013000D03*
X142310351Y-70675818D03*
X115974623Y-84974623D03*
X125304000Y-92140000D03*
X151000000Y-80000000D03*
X165432671Y-90235028D03*
X146000000Y-80000000D03*
X111207000Y-114238000D03*
X149422323Y-70672489D03*
X135925000Y-87695000D03*
X119081000Y-94426000D03*
X124530323Y-70672489D03*
X106758671Y-96458028D03*
X111195351Y-70675818D03*
X135210000Y-114238000D03*
X121863323Y-70672489D03*
X137877000Y-114238000D03*
X138592000Y-98236000D03*
X114751351Y-70675818D03*
X150196000Y-94045000D03*
X137703000Y-92394000D03*
X165436000Y-75122000D03*
X128975323Y-70672489D03*
X120097000Y-114238000D03*
X165182000Y-94426000D03*
X112985000Y-114238000D03*
X161000000Y-85000000D03*
X137322000Y-97474000D03*
X134309351Y-70675818D03*
X135798000Y-93029000D03*
X135798000Y-94172000D03*
X115974623Y-109974623D03*
X113747000Y-92140000D03*
X165436000Y-110682000D03*
X110306351Y-70675818D03*
X111000000Y-85000000D03*
X130753323Y-70672489D03*
X115974623Y-89974623D03*
X141421351Y-70675818D03*
X154767972Y-114234671D03*
X140544000Y-91632000D03*
X120085351Y-70675818D03*
X106762000Y-85790000D03*
X131000000Y-75000000D03*
X117418351Y-70675818D03*
X108528351Y-70675818D03*
X161874987Y-114232987D03*
X147529000Y-94045000D03*
X156419000Y-94045000D03*
X106762000Y-86679000D03*
X106758671Y-87568028D03*
X141306000Y-92013000D03*
X107524000Y-91759000D03*
X108413000Y-94680000D03*
X106762000Y-114238000D03*
X156000000Y-105000000D03*
X148533323Y-70672489D03*
X106762000Y-103570000D03*
X115974623Y-79974623D03*
X143973000Y-92013000D03*
X124415000Y-94426000D03*
X106758671Y-100014028D03*
X106758671Y-99125028D03*
X113747000Y-94426000D03*
X149307000Y-92013000D03*
X129864323Y-70672489D03*
X163404000Y-94426000D03*
X106762000Y-77789000D03*
X155645323Y-70672489D03*
X109302000Y-94680000D03*
X165436000Y-112460000D03*
X162515000Y-91632000D03*
X161000000Y-110000000D03*
X111969000Y-94680000D03*
X141000000Y-110000000D03*
X136988000Y-114238000D03*
X119970000Y-94426000D03*
X140544000Y-114238000D03*
X126308323Y-70672489D03*
X159086000Y-92013000D03*
X165436000Y-76011000D03*
X136976351Y-70675818D03*
X127971000Y-92140000D03*
X160974338Y-70670805D03*
X106762000Y-76011000D03*
X115525000Y-94426000D03*
X106758671Y-91124028D03*
X133512000Y-97474000D03*
X165436000Y-76900000D03*
X151211972Y-114234671D03*
X151000000Y-100000000D03*
X128097972Y-114234671D03*
X132416000Y-92140000D03*
X165432671Y-96458028D03*
X106762000Y-107126000D03*
X126000000Y-110000000D03*
X154641000Y-94045000D03*
X131734000Y-100522000D03*
X136000000Y-75000000D03*
X131734000Y-99506000D03*
X138766000Y-114238000D03*
X106758671Y-97347028D03*
X115974623Y-99974623D03*
X121874972Y-114234671D03*
X143211000Y-114238000D03*
X165432671Y-98236028D03*
X106762000Y-82234000D03*
X111080000Y-94680000D03*
X161863338Y-70670805D03*
X108540000Y-114238000D03*
X106758671Y-73344028D03*
X150196000Y-92013000D03*
X116541000Y-114238000D03*
X148418000Y-94045000D03*
X163404000Y-91632000D03*
X136433000Y-92394000D03*
X140532351Y-70675818D03*
X136099000Y-114238000D03*
X162752338Y-70670805D03*
X165436000Y-100903000D03*
X165436000Y-80456000D03*
X156000000Y-100000000D03*
X114763000Y-114238000D03*
X165436000Y-77789000D03*
X151000000Y-75000000D03*
X161000000Y-105000000D03*
X157434972Y-114234671D03*
X152100972Y-114234671D03*
X157423323Y-70672489D03*
X141000000Y-75000000D03*
X151000000Y-105000000D03*
X129875972Y-114234671D03*
X106762000Y-108904000D03*
X106762000Y-101792000D03*
X111000000Y-105000000D03*
X125419323Y-70672489D03*
X106762000Y-109793000D03*
X165432671Y-97347028D03*
X111000000Y-75000000D03*
X141000000Y-105000000D03*
X164530338Y-70670805D03*
X121000000Y-110000000D03*
X128860000Y-92140000D03*
X106762000Y-113349000D03*
X126193000Y-94426000D03*
X109302000Y-91759000D03*
X154756323Y-70672489D03*
X165436000Y-84901000D03*
X158312323Y-70672489D03*
X160737000Y-94426000D03*
X144862000Y-92013000D03*
X106762000Y-78678000D03*
X159212972Y-114234671D03*
X165436000Y-101792000D03*
X130638000Y-92140000D03*
X154641000Y-92013000D03*
X165436000Y-106237000D03*
X139100000Y-101538000D03*
X140544000Y-93791000D03*
X160737000Y-91632000D03*
X155530000Y-92013000D03*
X112084351Y-70675818D03*
X144977351Y-70675818D03*
X121000000Y-80000000D03*
X108413000Y-91759000D03*
X159086000Y-94045000D03*
X118307351Y-70675818D03*
X139100000Y-100522000D03*
X130764972Y-114234671D03*
X165436000Y-111571000D03*
X165432671Y-72455028D03*
X151974000Y-92013000D03*
X165432671Y-87568028D03*
X161626000Y-91632000D03*
X141000000Y-90000000D03*
X137068000Y-91886000D03*
X124415000Y-92140000D03*
X161000000Y-100000000D03*
X151000000Y-85000000D03*
X133305000Y-94426000D03*
X141306000Y-94045000D03*
X107524000Y-94680000D03*
X122763972Y-114234671D03*
X137068000Y-93029000D03*
X161000000Y-75000000D03*
X156419000Y-92013000D03*
X106758671Y-95569028D03*
X116414000Y-92140000D03*
X156000000Y-75000000D03*
X152089323Y-70672489D03*
X110191000Y-94680000D03*
X124541972Y-114234671D03*
X149433972Y-114234671D03*
X115525000Y-92140000D03*
X165432671Y-99125028D03*
X106762000Y-80456000D03*
D26*
%TO.N,/Vd_PA*%
X132500000Y-78500000D03*
X140128000Y-104713000D03*
D25*
%TO.N,/Vref*%
X139600000Y-96800000D03*
X158500000Y-79600000D03*
%TD*%
D27*
%TO.N,/Vg_PA*%
X135375000Y-96373000D02*
X135375000Y-95450000D01*
X130718000Y-98744000D02*
X134550000Y-94912000D01*
X136025000Y-96558000D02*
X136025000Y-95450000D01*
D28*
X134696000Y-107466000D02*
X134696000Y-102808000D01*
D27*
X136306000Y-96839000D02*
X136025000Y-96558000D01*
X136372000Y-102772000D02*
X136372000Y-96900000D01*
D28*
X134274000Y-106618000D02*
X130718000Y-103062000D01*
X134782000Y-106618000D02*
X134274000Y-106618000D01*
X111900000Y-106375000D02*
X122375000Y-106375000D01*
D27*
X134696000Y-102808000D02*
X134696000Y-97052000D01*
X130718000Y-102808000D02*
X130718000Y-98744000D01*
X134696000Y-97052000D02*
X135375000Y-96373000D01*
D28*
X122375000Y-106375000D02*
X124396000Y-108396000D01*
X124396000Y-108396000D02*
X133766000Y-108396000D01*
D27*
X134550000Y-94912000D02*
X134550000Y-94625000D01*
D28*
X134782000Y-106872000D02*
X136372000Y-105282000D01*
X136372000Y-105282000D02*
X136372000Y-102772000D01*
X133766000Y-108396000D02*
X134696000Y-107466000D01*
X130718000Y-103062000D02*
X130718000Y-102808000D01*
%TO.N,/Vd_PA*%
X132500000Y-78500000D02*
X133675000Y-79675000D01*
X140116000Y-80710000D02*
X140116000Y-77916000D01*
D27*
X137325000Y-90550000D02*
X137325000Y-89175000D01*
X137975000Y-90550000D02*
X137975000Y-89525000D01*
X139475000Y-84070000D02*
X139795000Y-83750000D01*
X139475000Y-88025000D02*
X139475000Y-87750000D01*
X137975000Y-89525000D02*
X139475000Y-88025000D01*
D28*
X133675000Y-79675000D02*
X133675000Y-83750000D01*
D27*
X136675000Y-89675000D02*
X136675000Y-90550000D01*
X134000000Y-87750000D02*
X135000000Y-88750000D01*
D28*
X138338000Y-76138000D02*
X134528000Y-76138000D01*
X140116000Y-77916000D02*
X138338000Y-76138000D01*
X139100000Y-83055000D02*
X139795000Y-83750000D01*
X138846000Y-83055000D02*
X138846000Y-81980000D01*
D27*
X133675000Y-83750000D02*
X133995000Y-84070000D01*
D28*
X138370000Y-83055000D02*
X137685000Y-83740000D01*
D27*
X133995000Y-84070000D02*
X133995000Y-87750000D01*
X140128000Y-104713000D02*
X140128000Y-98756000D01*
X140128000Y-98756000D02*
X137975000Y-96603000D01*
X137975000Y-96603000D02*
X137975000Y-95450000D01*
X133995000Y-87750000D02*
X134000000Y-87750000D01*
X137325000Y-89175000D02*
X138000000Y-88500000D01*
X135750000Y-88750000D02*
X136675000Y-89675000D01*
D28*
X111900000Y-78375000D02*
X132500000Y-78375000D01*
X138846000Y-81980000D02*
X140116000Y-80710000D01*
X139100000Y-83055000D02*
X138370000Y-83055000D01*
D27*
X139475000Y-87750000D02*
X139475000Y-84070000D01*
D28*
X134528000Y-76138000D02*
X132496000Y-78170000D01*
D27*
X135000000Y-88750000D02*
X135750000Y-88750000D01*
X138000000Y-84055000D02*
X137685000Y-83740000D01*
X138000000Y-88500000D02*
X138000000Y-84055000D01*
%TO.N,/RF_out*%
X140575000Y-92675000D02*
X140600000Y-92700000D01*
D29*
X140900000Y-93000000D02*
X162200000Y-93000000D01*
X140900000Y-93000000D02*
X140600000Y-92700000D01*
D27*
X139450000Y-92675000D02*
X140575000Y-92675000D01*
%TO.N,/Vdet*%
X156125000Y-107625000D02*
X160100000Y-107625000D01*
X139450000Y-94625000D02*
X140825000Y-96000000D01*
X140825000Y-96000000D02*
X144500000Y-96000000D01*
X144500000Y-96000000D02*
X156125000Y-107625000D01*
%TO.N,/RF_In*%
X134550000Y-93325000D02*
X133425000Y-93325000D01*
D29*
X109117500Y-93250000D02*
X133350000Y-93250000D01*
D27*
X133425000Y-93325000D02*
X133350000Y-93250000D01*
D30*
%TO.N,/Vref*%
X160100000Y-79625000D02*
X158525000Y-79625000D01*
D27*
X139600000Y-96800000D02*
X138625000Y-95825000D01*
X138625000Y-95825000D02*
X138625000Y-95450000D01*
D30*
X158525000Y-79625000D02*
X158500000Y-79600000D01*
%TD*%
%TA.AperFunction,Conductor*%
%TO.N,GND*%
G36*
X139567121Y-93047902D02*
G01*
X139613614Y-93101558D01*
X139625000Y-93153900D01*
X139625000Y-93781885D01*
X139629475Y-93797124D01*
X139630865Y-93798329D01*
X139638548Y-93800000D01*
X140364884Y-93800000D01*
X140380123Y-93795525D01*
X140381328Y-93794135D01*
X140382999Y-93786452D01*
X140382999Y-93755331D01*
X140382629Y-93748510D01*
X140377105Y-93697646D01*
X140372706Y-93679143D01*
X140372706Y-93620854D01*
X140377105Y-93602351D01*
X140382045Y-93556877D01*
X140409286Y-93491315D01*
X140467649Y-93450888D01*
X140538603Y-93448432D01*
X140584010Y-93470520D01*
X140608179Y-93489065D01*
X140608183Y-93489067D01*
X140614734Y-93494094D01*
X140655037Y-93510788D01*
X140752336Y-93551091D01*
X140760524Y-93552169D01*
X140862908Y-93565648D01*
X140862911Y-93565648D01*
X140862924Y-93565650D01*
X140862929Y-93565650D01*
X140862939Y-93565651D01*
X140900000Y-93570530D01*
X140928881Y-93566728D01*
X140945326Y-93565650D01*
X159621101Y-93565650D01*
X159689222Y-93585652D01*
X159735715Y-93639308D01*
X159747101Y-93691650D01*
X159747101Y-93765056D01*
X159748309Y-93771128D01*
X159753036Y-93794895D01*
X159755972Y-93809658D01*
X159762867Y-93819978D01*
X159762868Y-93819979D01*
X159782873Y-93849918D01*
X159789766Y-93860234D01*
X159800082Y-93867127D01*
X159830025Y-93887135D01*
X159830028Y-93887136D01*
X159840342Y-93894028D01*
X159852509Y-93896448D01*
X159852511Y-93896449D01*
X159870743Y-93900075D01*
X159884943Y-93902900D01*
X162699772Y-93902900D01*
X165515056Y-93902899D01*
X165531710Y-93899587D01*
X165547483Y-93896450D01*
X165547485Y-93896449D01*
X165559658Y-93894028D01*
X165576598Y-93882709D01*
X165644351Y-93861494D01*
X165712818Y-93880277D01*
X165760261Y-93933094D01*
X165772600Y-93987474D01*
X165772600Y-95838903D01*
X165752598Y-95907024D01*
X165698942Y-95953517D01*
X165628668Y-95963621D01*
X165617451Y-95961485D01*
X165602352Y-95957895D01*
X165551486Y-95952369D01*
X165544672Y-95952000D01*
X163322115Y-95952000D01*
X163306876Y-95956475D01*
X163305671Y-95957865D01*
X163304000Y-95965548D01*
X163304000Y-98549884D01*
X163308475Y-98565123D01*
X163309865Y-98566328D01*
X163317548Y-98567999D01*
X165544669Y-98567999D01*
X165551490Y-98567629D01*
X165602349Y-98562105D01*
X165617455Y-98558514D01*
X165688355Y-98562217D01*
X165745998Y-98603663D01*
X165772083Y-98669694D01*
X165772600Y-98681097D01*
X165772600Y-114646600D01*
X165752598Y-114714721D01*
X165698942Y-114761214D01*
X165646600Y-114772600D01*
X106353400Y-114772600D01*
X106285279Y-114752598D01*
X106238786Y-114698942D01*
X106227400Y-114646600D01*
X106227400Y-111022096D01*
X106992000Y-111022096D01*
X106992337Y-111028611D01*
X107002256Y-111124203D01*
X107005150Y-111137602D01*
X107056588Y-111291783D01*
X107062762Y-111304962D01*
X107148063Y-111442807D01*
X107157099Y-111454208D01*
X107271830Y-111568739D01*
X107283241Y-111577751D01*
X107421245Y-111662818D01*
X107434423Y-111668962D01*
X107588716Y-111720139D01*
X107602081Y-111723005D01*
X107696439Y-111732672D01*
X107702855Y-111733000D01*
X108727885Y-111733000D01*
X108743124Y-111728525D01*
X108744329Y-111727135D01*
X108746000Y-111719452D01*
X108746000Y-111714885D01*
X109254000Y-111714885D01*
X109258475Y-111730124D01*
X109259865Y-111731329D01*
X109267548Y-111733000D01*
X110297096Y-111733000D01*
X110303611Y-111732663D01*
X110399203Y-111722744D01*
X110412602Y-111719850D01*
X110566783Y-111668412D01*
X110579962Y-111662238D01*
X110717807Y-111576937D01*
X110729208Y-111567901D01*
X110843739Y-111453170D01*
X110852751Y-111441759D01*
X110937818Y-111303755D01*
X110943962Y-111290577D01*
X110995139Y-111136284D01*
X110998005Y-111122919D01*
X111007672Y-111028561D01*
X111008000Y-111022145D01*
X111008000Y-111022096D01*
X160992000Y-111022096D01*
X160992337Y-111028611D01*
X161002256Y-111124203D01*
X161005150Y-111137602D01*
X161056588Y-111291783D01*
X161062762Y-111304962D01*
X161148063Y-111442807D01*
X161157099Y-111454208D01*
X161271830Y-111568739D01*
X161283241Y-111577751D01*
X161421245Y-111662818D01*
X161434423Y-111668962D01*
X161588716Y-111720139D01*
X161602081Y-111723005D01*
X161696439Y-111732672D01*
X161702855Y-111733000D01*
X162727885Y-111733000D01*
X162743124Y-111728525D01*
X162744329Y-111727135D01*
X162746000Y-111719452D01*
X162746000Y-111714885D01*
X163254000Y-111714885D01*
X163258475Y-111730124D01*
X163259865Y-111731329D01*
X163267548Y-111733000D01*
X164297096Y-111733000D01*
X164303611Y-111732663D01*
X164399203Y-111722744D01*
X164412602Y-111719850D01*
X164566783Y-111668412D01*
X164579962Y-111662238D01*
X164717807Y-111576937D01*
X164729208Y-111567901D01*
X164843739Y-111453170D01*
X164852751Y-111441759D01*
X164937818Y-111303755D01*
X164943962Y-111290577D01*
X164995139Y-111136284D01*
X164998005Y-111122919D01*
X165007672Y-111028561D01*
X165008000Y-111022145D01*
X165008000Y-110447115D01*
X165003525Y-110431876D01*
X165002135Y-110430671D01*
X164994452Y-110429000D01*
X163272115Y-110429000D01*
X163256876Y-110433475D01*
X163255671Y-110434865D01*
X163254000Y-110442548D01*
X163254000Y-111714885D01*
X162746000Y-111714885D01*
X162746000Y-110447115D01*
X162741525Y-110431876D01*
X162740135Y-110430671D01*
X162732452Y-110429000D01*
X161010115Y-110429000D01*
X160994876Y-110433475D01*
X160993671Y-110434865D01*
X160992000Y-110442548D01*
X160992000Y-111022096D01*
X111008000Y-111022096D01*
X111008000Y-110447115D01*
X111003525Y-110431876D01*
X111002135Y-110430671D01*
X110994452Y-110429000D01*
X109272115Y-110429000D01*
X109256876Y-110433475D01*
X109255671Y-110434865D01*
X109254000Y-110442548D01*
X109254000Y-111714885D01*
X108746000Y-111714885D01*
X108746000Y-110447115D01*
X108741525Y-110431876D01*
X108740135Y-110430671D01*
X108732452Y-110429000D01*
X107010115Y-110429000D01*
X106994876Y-110433475D01*
X106993671Y-110434865D01*
X106992000Y-110442548D01*
X106992000Y-111022096D01*
X106227400Y-111022096D01*
X106227400Y-109902885D01*
X106992000Y-109902885D01*
X106996475Y-109918124D01*
X106997865Y-109919329D01*
X107005548Y-109921000D01*
X108727885Y-109921000D01*
X108743124Y-109916525D01*
X108744329Y-109915135D01*
X108746000Y-109907452D01*
X108746000Y-109902885D01*
X109254000Y-109902885D01*
X109258475Y-109918124D01*
X109259865Y-109919329D01*
X109267548Y-109921000D01*
X110989885Y-109921000D01*
X111005124Y-109916525D01*
X111006329Y-109915135D01*
X111008000Y-109907452D01*
X111008000Y-109902885D01*
X160992000Y-109902885D01*
X160996475Y-109918124D01*
X160997865Y-109919329D01*
X161005548Y-109921000D01*
X162727885Y-109921000D01*
X162743124Y-109916525D01*
X162744329Y-109915135D01*
X162746000Y-109907452D01*
X162746000Y-109902885D01*
X163254000Y-109902885D01*
X163258475Y-109918124D01*
X163259865Y-109919329D01*
X163267548Y-109921000D01*
X164989885Y-109921000D01*
X165005124Y-109916525D01*
X165006329Y-109915135D01*
X165008000Y-109907452D01*
X165008000Y-109327904D01*
X165007663Y-109321389D01*
X164997744Y-109225797D01*
X164994850Y-109212398D01*
X164943412Y-109058217D01*
X164937238Y-109045038D01*
X164851937Y-108907193D01*
X164842901Y-108895792D01*
X164728170Y-108781261D01*
X164716759Y-108772249D01*
X164578755Y-108687182D01*
X164565577Y-108681038D01*
X164411284Y-108629861D01*
X164397919Y-108626995D01*
X164303561Y-108617328D01*
X164297144Y-108617000D01*
X163272115Y-108617000D01*
X163256876Y-108621475D01*
X163255671Y-108622865D01*
X163254000Y-108630548D01*
X163254000Y-109902885D01*
X162746000Y-109902885D01*
X162746000Y-108635115D01*
X162741525Y-108619876D01*
X162740135Y-108618671D01*
X162732452Y-108617000D01*
X161702904Y-108617000D01*
X161696389Y-108617337D01*
X161600797Y-108627256D01*
X161587398Y-108630150D01*
X161433217Y-108681588D01*
X161420038Y-108687762D01*
X161282193Y-108773063D01*
X161270792Y-108782099D01*
X161156261Y-108896830D01*
X161147249Y-108908241D01*
X161062182Y-109046245D01*
X161056038Y-109059423D01*
X161004861Y-109213716D01*
X161001995Y-109227081D01*
X160992328Y-109321439D01*
X160992000Y-109327856D01*
X160992000Y-109902885D01*
X111008000Y-109902885D01*
X111008000Y-109327904D01*
X111007663Y-109321389D01*
X110997744Y-109225797D01*
X110994850Y-109212398D01*
X110943412Y-109058217D01*
X110937238Y-109045038D01*
X110851937Y-108907193D01*
X110842901Y-108895792D01*
X110728170Y-108781261D01*
X110716759Y-108772249D01*
X110578755Y-108687182D01*
X110565577Y-108681038D01*
X110411284Y-108629861D01*
X110397919Y-108626995D01*
X110303561Y-108617328D01*
X110297144Y-108617000D01*
X109272115Y-108617000D01*
X109256876Y-108621475D01*
X109255671Y-108622865D01*
X109254000Y-108630548D01*
X109254000Y-109902885D01*
X108746000Y-109902885D01*
X108746000Y-108635115D01*
X108741525Y-108619876D01*
X108740135Y-108618671D01*
X108732452Y-108617000D01*
X107702904Y-108617000D01*
X107696389Y-108617337D01*
X107600797Y-108627256D01*
X107587398Y-108630150D01*
X107433217Y-108681588D01*
X107420038Y-108687762D01*
X107282193Y-108773063D01*
X107270792Y-108782099D01*
X107156261Y-108896830D01*
X107147249Y-108908241D01*
X107062182Y-109046245D01*
X107056038Y-109059423D01*
X107004861Y-109213716D01*
X107001995Y-109227081D01*
X106992328Y-109321439D01*
X106992000Y-109327856D01*
X106992000Y-109902885D01*
X106227400Y-109902885D01*
X106227400Y-107889294D01*
X110592709Y-107889294D01*
X110598132Y-107948315D01*
X110600743Y-107961351D01*
X110647715Y-108111243D01*
X110653921Y-108124988D01*
X110734824Y-108258574D01*
X110744131Y-108270443D01*
X110854557Y-108380869D01*
X110866426Y-108390176D01*
X111000012Y-108471079D01*
X111013757Y-108477285D01*
X111163644Y-108524256D01*
X111176694Y-108526869D01*
X111240521Y-108532734D01*
X111246309Y-108533000D01*
X111627885Y-108533000D01*
X111643124Y-108528525D01*
X111644329Y-108527135D01*
X111646000Y-108519452D01*
X111646000Y-108514884D01*
X112154000Y-108514884D01*
X112158475Y-108530123D01*
X112159865Y-108531328D01*
X112167548Y-108532999D01*
X112553705Y-108532999D01*
X112559454Y-108532736D01*
X112623315Y-108526868D01*
X112636351Y-108524257D01*
X112786243Y-108477285D01*
X112799988Y-108471079D01*
X112933574Y-108390176D01*
X112945443Y-108380869D01*
X113055869Y-108270443D01*
X113065176Y-108258574D01*
X113146079Y-108124988D01*
X113152285Y-108111243D01*
X113199256Y-107961356D01*
X113201869Y-107948306D01*
X113206913Y-107893414D01*
X113203525Y-107881876D01*
X113202135Y-107880671D01*
X113194452Y-107879000D01*
X112172115Y-107879000D01*
X112156876Y-107883475D01*
X112155671Y-107884865D01*
X112154000Y-107892548D01*
X112154000Y-108514884D01*
X111646000Y-108514884D01*
X111646000Y-107897115D01*
X111641525Y-107881876D01*
X111640135Y-107880671D01*
X111632452Y-107879000D01*
X110610116Y-107879000D01*
X110594877Y-107883475D01*
X110593672Y-107884865D01*
X110592709Y-107889294D01*
X106227400Y-107889294D01*
X106227400Y-104672096D01*
X106992000Y-104672096D01*
X106992337Y-104678611D01*
X107002256Y-104774203D01*
X107005150Y-104787602D01*
X107056588Y-104941783D01*
X107062762Y-104954962D01*
X107148063Y-105092807D01*
X107157099Y-105104208D01*
X107271830Y-105218739D01*
X107283241Y-105227751D01*
X107421245Y-105312818D01*
X107434423Y-105318962D01*
X107588716Y-105370139D01*
X107602081Y-105373005D01*
X107696439Y-105382672D01*
X107702855Y-105383000D01*
X108727885Y-105383000D01*
X108743124Y-105378525D01*
X108744329Y-105377135D01*
X108746000Y-105369452D01*
X108746000Y-105364885D01*
X109254000Y-105364885D01*
X109258475Y-105380124D01*
X109259865Y-105381329D01*
X109267548Y-105383000D01*
X110297096Y-105383000D01*
X110303611Y-105382663D01*
X110399203Y-105372744D01*
X110412602Y-105369850D01*
X110566783Y-105318412D01*
X110579962Y-105312238D01*
X110717807Y-105226937D01*
X110729208Y-105217901D01*
X110843739Y-105103170D01*
X110852751Y-105091759D01*
X110937818Y-104953755D01*
X110943962Y-104940577D01*
X110995139Y-104786284D01*
X110998005Y-104772919D01*
X111007672Y-104678561D01*
X111008000Y-104672145D01*
X111008000Y-104500000D01*
X123894551Y-104500000D01*
X123914317Y-104751148D01*
X123915471Y-104755955D01*
X123915472Y-104755961D01*
X123937845Y-104849150D01*
X123973127Y-104996111D01*
X123975020Y-105000682D01*
X123975021Y-105000684D01*
X124057215Y-105199117D01*
X124069534Y-105228859D01*
X124201164Y-105443659D01*
X124204376Y-105447419D01*
X124204379Y-105447424D01*
X124275931Y-105531200D01*
X124364776Y-105635224D01*
X124368538Y-105638437D01*
X124552576Y-105795621D01*
X124552581Y-105795624D01*
X124556341Y-105798836D01*
X124771141Y-105930466D01*
X124775711Y-105932359D01*
X124775715Y-105932361D01*
X124999316Y-106024979D01*
X125003889Y-106026873D01*
X125052940Y-106038649D01*
X125244039Y-106084528D01*
X125244045Y-106084529D01*
X125248852Y-106085683D01*
X125337149Y-106092632D01*
X125434661Y-106100307D01*
X125434670Y-106100307D01*
X125437118Y-106100500D01*
X125562882Y-106100500D01*
X125565330Y-106100307D01*
X125565339Y-106100307D01*
X125662851Y-106092632D01*
X125751148Y-106085683D01*
X125755955Y-106084529D01*
X125755961Y-106084528D01*
X125947060Y-106038649D01*
X125996111Y-106026873D01*
X126000684Y-106024979D01*
X126224285Y-105932361D01*
X126224289Y-105932359D01*
X126228859Y-105930466D01*
X126443659Y-105798836D01*
X126447419Y-105795624D01*
X126447424Y-105795621D01*
X126631462Y-105638437D01*
X126635224Y-105635224D01*
X126724069Y-105531200D01*
X126795621Y-105447424D01*
X126795624Y-105447419D01*
X126798836Y-105443659D01*
X126930466Y-105228859D01*
X126942786Y-105199117D01*
X127024979Y-105000684D01*
X127024980Y-105000682D01*
X127026873Y-104996111D01*
X127062155Y-104849150D01*
X127084528Y-104755961D01*
X127084529Y-104755955D01*
X127085683Y-104751148D01*
X127105449Y-104500000D01*
X127085683Y-104248852D01*
X127080334Y-104226568D01*
X127035859Y-104041320D01*
X127026873Y-104003889D01*
X127021887Y-103991851D01*
X126932361Y-103775715D01*
X126932359Y-103775711D01*
X126930466Y-103771141D01*
X126924357Y-103761171D01*
X126824718Y-103598576D01*
X126798836Y-103556341D01*
X126795624Y-103552581D01*
X126795621Y-103552576D01*
X126638437Y-103368538D01*
X126635224Y-103364776D01*
X126600107Y-103334783D01*
X126594618Y-103330095D01*
X127810001Y-103330095D01*
X127810338Y-103336614D01*
X127820257Y-103432206D01*
X127823149Y-103445600D01*
X127874588Y-103599784D01*
X127880761Y-103612962D01*
X127966063Y-103750807D01*
X127975099Y-103762208D01*
X128089829Y-103876739D01*
X128101240Y-103885751D01*
X128239243Y-103970816D01*
X128252424Y-103976963D01*
X128406710Y-104028138D01*
X128420086Y-104031005D01*
X128514438Y-104040672D01*
X128520854Y-104041000D01*
X128545885Y-104041000D01*
X128561124Y-104036525D01*
X128562329Y-104035135D01*
X128564000Y-104027452D01*
X128564000Y-103080115D01*
X128559525Y-103064876D01*
X128558135Y-103063671D01*
X128550452Y-103062000D01*
X127828116Y-103062000D01*
X127812877Y-103066475D01*
X127811672Y-103067865D01*
X127810001Y-103075548D01*
X127810001Y-103330095D01*
X126594618Y-103330095D01*
X126447424Y-103204379D01*
X126447419Y-103204376D01*
X126443659Y-103201164D01*
X126228859Y-103069534D01*
X126224289Y-103067641D01*
X126224285Y-103067639D01*
X126000684Y-102975021D01*
X126000682Y-102975020D01*
X125996111Y-102973127D01*
X125911711Y-102952865D01*
X125755961Y-102915472D01*
X125755955Y-102915471D01*
X125751148Y-102914317D01*
X125662851Y-102907368D01*
X125565339Y-102899693D01*
X125565330Y-102899693D01*
X125562882Y-102899500D01*
X125437118Y-102899500D01*
X125434670Y-102899693D01*
X125434661Y-102899693D01*
X125337149Y-102907368D01*
X125248852Y-102914317D01*
X125244045Y-102915471D01*
X125244039Y-102915472D01*
X125088289Y-102952865D01*
X125003889Y-102973127D01*
X124999318Y-102975020D01*
X124999316Y-102975021D01*
X124775715Y-103067639D01*
X124775711Y-103067641D01*
X124771141Y-103069534D01*
X124556341Y-103201164D01*
X124552581Y-103204376D01*
X124552576Y-103204379D01*
X124399893Y-103334783D01*
X124364776Y-103364776D01*
X124361563Y-103368538D01*
X124204379Y-103552576D01*
X124204376Y-103552581D01*
X124201164Y-103556341D01*
X124175282Y-103598576D01*
X124075644Y-103761171D01*
X124069534Y-103771141D01*
X124067641Y-103775711D01*
X124067639Y-103775715D01*
X123978113Y-103991851D01*
X123973127Y-104003889D01*
X123964141Y-104041320D01*
X123919667Y-104226568D01*
X123914317Y-104248852D01*
X123894551Y-104500000D01*
X111008000Y-104500000D01*
X111008000Y-104097115D01*
X111003525Y-104081876D01*
X111002135Y-104080671D01*
X110994452Y-104079000D01*
X109272115Y-104079000D01*
X109256876Y-104083475D01*
X109255671Y-104084865D01*
X109254000Y-104092548D01*
X109254000Y-105364885D01*
X108746000Y-105364885D01*
X108746000Y-104097115D01*
X108741525Y-104081876D01*
X108740135Y-104080671D01*
X108732452Y-104079000D01*
X107010115Y-104079000D01*
X106994876Y-104083475D01*
X106993671Y-104084865D01*
X106992000Y-104092548D01*
X106992000Y-104672096D01*
X106227400Y-104672096D01*
X106227400Y-103552885D01*
X106992000Y-103552885D01*
X106996475Y-103568124D01*
X106997865Y-103569329D01*
X107005548Y-103571000D01*
X108727885Y-103571000D01*
X108743124Y-103566525D01*
X108744329Y-103565135D01*
X108746000Y-103557452D01*
X108746000Y-103552885D01*
X109254000Y-103552885D01*
X109258475Y-103568124D01*
X109259865Y-103569329D01*
X109267548Y-103571000D01*
X110989885Y-103571000D01*
X111005124Y-103566525D01*
X111006329Y-103565135D01*
X111008000Y-103557452D01*
X111008000Y-102977904D01*
X111007663Y-102971389D01*
X110997744Y-102875797D01*
X110994850Y-102862398D01*
X110943412Y-102708217D01*
X110937238Y-102695038D01*
X110851937Y-102557193D01*
X110842901Y-102545792D01*
X110728170Y-102431261D01*
X110716759Y-102422249D01*
X110578755Y-102337182D01*
X110565577Y-102331038D01*
X110411284Y-102279861D01*
X110397919Y-102276995D01*
X110303561Y-102267328D01*
X110297144Y-102267000D01*
X109272115Y-102267000D01*
X109256876Y-102271475D01*
X109255671Y-102272865D01*
X109254000Y-102280548D01*
X109254000Y-103552885D01*
X108746000Y-103552885D01*
X108746000Y-102285115D01*
X108741525Y-102269876D01*
X108740135Y-102268671D01*
X108732452Y-102267000D01*
X107702904Y-102267000D01*
X107696389Y-102267337D01*
X107600797Y-102277256D01*
X107587398Y-102280150D01*
X107433217Y-102331588D01*
X107420038Y-102337762D01*
X107282193Y-102423063D01*
X107270792Y-102432099D01*
X107156261Y-102546830D01*
X107147249Y-102558241D01*
X107062182Y-102696245D01*
X107056038Y-102709423D01*
X107004861Y-102863716D01*
X107001995Y-102877081D01*
X106992328Y-102971439D01*
X106992000Y-102977856D01*
X106992000Y-103552885D01*
X106227400Y-103552885D01*
X106227400Y-98944000D01*
X106247402Y-98875879D01*
X106301058Y-98829386D01*
X106353400Y-98818000D01*
X108495385Y-98818000D01*
X108510624Y-98813525D01*
X108511829Y-98812135D01*
X108513500Y-98804452D01*
X108513500Y-98799884D01*
X109021500Y-98799884D01*
X109025975Y-98815123D01*
X109027365Y-98816328D01*
X109035048Y-98817999D01*
X111262169Y-98817999D01*
X111268990Y-98817629D01*
X111319852Y-98812105D01*
X111335104Y-98808479D01*
X111455554Y-98763324D01*
X111471149Y-98754786D01*
X111573224Y-98678285D01*
X111585785Y-98665724D01*
X111662286Y-98563649D01*
X111670824Y-98548054D01*
X111674740Y-98537609D01*
X128945232Y-98537609D01*
X128948052Y-98551031D01*
X128959513Y-98554000D01*
X129457885Y-98554000D01*
X129473124Y-98549525D01*
X129474329Y-98548135D01*
X129476000Y-98540452D01*
X129476000Y-98014442D01*
X129472027Y-98000911D01*
X129464129Y-97999776D01*
X129338216Y-98036357D01*
X129323780Y-98042604D01*
X129196501Y-98117876D01*
X129184074Y-98127516D01*
X129079516Y-98232074D01*
X129069876Y-98244501D01*
X128994604Y-98371780D01*
X128988357Y-98386216D01*
X128946688Y-98529641D01*
X128945232Y-98537609D01*
X111674740Y-98537609D01*
X111715978Y-98427606D01*
X111719605Y-98412351D01*
X111725131Y-98361486D01*
X111725500Y-98354672D01*
X111725500Y-97782115D01*
X111721025Y-97766876D01*
X111719635Y-97765671D01*
X111711952Y-97764000D01*
X109039615Y-97764000D01*
X109024376Y-97768475D01*
X109023171Y-97769865D01*
X109021500Y-97777548D01*
X109021500Y-98799884D01*
X108513500Y-98799884D01*
X108513500Y-97237885D01*
X109021500Y-97237885D01*
X109025975Y-97253124D01*
X109027365Y-97254329D01*
X109035048Y-97256000D01*
X111707384Y-97256000D01*
X111722623Y-97251525D01*
X111723828Y-97250135D01*
X111725499Y-97242452D01*
X111725499Y-96665331D01*
X111725129Y-96658510D01*
X111719605Y-96607648D01*
X111715979Y-96592396D01*
X111670824Y-96471946D01*
X111662286Y-96456351D01*
X111585785Y-96354276D01*
X111573224Y-96341715D01*
X111471149Y-96265214D01*
X111455554Y-96256676D01*
X111335106Y-96211522D01*
X111319851Y-96207895D01*
X111268986Y-96202369D01*
X111262172Y-96202000D01*
X109039615Y-96202000D01*
X109024376Y-96206475D01*
X109023171Y-96207865D01*
X109021500Y-96215548D01*
X109021500Y-97237885D01*
X108513500Y-97237885D01*
X108513500Y-96220116D01*
X108509025Y-96204877D01*
X108507635Y-96203672D01*
X108499952Y-96202001D01*
X106353400Y-96202001D01*
X106285279Y-96181999D01*
X106238786Y-96128343D01*
X106227400Y-96076001D01*
X106227400Y-94278900D01*
X106247402Y-94210779D01*
X106301058Y-94164286D01*
X106353400Y-94152900D01*
X111322894Y-94152899D01*
X111932556Y-94152899D01*
X111949210Y-94149587D01*
X111964983Y-94146450D01*
X111964985Y-94146449D01*
X111977158Y-94144028D01*
X111998156Y-94129998D01*
X112017418Y-94117127D01*
X112027734Y-94110234D01*
X112039837Y-94092121D01*
X112054635Y-94069975D01*
X112054636Y-94069972D01*
X112061528Y-94059658D01*
X112070400Y-94015057D01*
X112070400Y-93941650D01*
X112090402Y-93873529D01*
X112144058Y-93827036D01*
X112196400Y-93815650D01*
X133387076Y-93815650D01*
X133432591Y-93809658D01*
X133489476Y-93802169D01*
X133497664Y-93801091D01*
X133505291Y-93797932D01*
X133505294Y-93797931D01*
X133512623Y-93794895D01*
X133583213Y-93787307D01*
X133592397Y-93791701D01*
X133630548Y-93800000D01*
X134356885Y-93800000D01*
X134372124Y-93795525D01*
X134373330Y-93794133D01*
X134377032Y-93777117D01*
X134411057Y-93714804D01*
X134473369Y-93680779D01*
X134500152Y-93677900D01*
X134579318Y-93677900D01*
X134584451Y-93677046D01*
X134588620Y-93676701D01*
X134658157Y-93691023D01*
X134708912Y-93740666D01*
X134725000Y-93802273D01*
X134725000Y-94024000D01*
X134704998Y-94092121D01*
X134651342Y-94138614D01*
X134599000Y-94150000D01*
X133635116Y-94150000D01*
X133619877Y-94154475D01*
X133618672Y-94155865D01*
X133617001Y-94163548D01*
X133617001Y-94194669D01*
X133617371Y-94201490D01*
X133622895Y-94252352D01*
X133626521Y-94267604D01*
X133671676Y-94388054D01*
X133680214Y-94403649D01*
X133756715Y-94505724D01*
X133769276Y-94518285D01*
X133871356Y-94594790D01*
X133886940Y-94603322D01*
X133890334Y-94604594D01*
X133893208Y-94606753D01*
X133894817Y-94607634D01*
X133894690Y-94607866D01*
X133947097Y-94647237D01*
X133971795Y-94713800D01*
X133972101Y-94722568D01*
X133972101Y-94815056D01*
X133980972Y-94859658D01*
X133986596Y-94868075D01*
X133994014Y-94937093D01*
X133959112Y-95003812D01*
X130654728Y-98308196D01*
X130592416Y-98342222D01*
X130565633Y-98345101D01*
X130521488Y-98345101D01*
X130453367Y-98325099D01*
X130413034Y-98283240D01*
X130390124Y-98244501D01*
X130380484Y-98232074D01*
X130275926Y-98127516D01*
X130263499Y-98117876D01*
X130136220Y-98042604D01*
X130121784Y-98036357D01*
X130001395Y-98001381D01*
X129987295Y-98001421D01*
X129984000Y-98008691D01*
X129984000Y-98936000D01*
X129963998Y-99004121D01*
X129910342Y-99050614D01*
X129858000Y-99062000D01*
X128961576Y-99062000D01*
X128946781Y-99066344D01*
X128944937Y-99076775D01*
X128946688Y-99086359D01*
X128988357Y-99229784D01*
X128994604Y-99244220D01*
X129056488Y-99348861D01*
X129073947Y-99417678D01*
X129051430Y-99485009D01*
X128996085Y-99529478D01*
X128948034Y-99539000D01*
X128910562Y-99539000D01*
X128904047Y-99539337D01*
X128811943Y-99548894D01*
X128798544Y-99551788D01*
X128649893Y-99601381D01*
X128636714Y-99607555D01*
X128503827Y-99689788D01*
X128492426Y-99698824D01*
X128382014Y-99809429D01*
X128373002Y-99820840D01*
X128290996Y-99953880D01*
X128284849Y-99967061D01*
X128235509Y-100115814D01*
X128232642Y-100129190D01*
X128223328Y-100220097D01*
X128223000Y-100226514D01*
X128223000Y-100249885D01*
X128227475Y-100265124D01*
X128228865Y-100266329D01*
X128236548Y-100268000D01*
X129309000Y-100268000D01*
X129377121Y-100288002D01*
X129423614Y-100341658D01*
X129435000Y-100394000D01*
X129435000Y-100650000D01*
X129414998Y-100718121D01*
X129361342Y-100764614D01*
X129309000Y-100776000D01*
X128241115Y-100776000D01*
X128225876Y-100780475D01*
X128224671Y-100781865D01*
X128223000Y-100789548D01*
X128223000Y-100817438D01*
X128223337Y-100823953D01*
X128232894Y-100916057D01*
X128235788Y-100929456D01*
X128285381Y-101078107D01*
X128291555Y-101091286D01*
X128373788Y-101224173D01*
X128382824Y-101235574D01*
X128493429Y-101345986D01*
X128509177Y-101358423D01*
X128550240Y-101416340D01*
X128553472Y-101487263D01*
X128517847Y-101548675D01*
X128454675Y-101581077D01*
X128444089Y-101582632D01*
X128418794Y-101585257D01*
X128405400Y-101588149D01*
X128251216Y-101639588D01*
X128238038Y-101645761D01*
X128100193Y-101731063D01*
X128088792Y-101740099D01*
X127974261Y-101854829D01*
X127965249Y-101866240D01*
X127880184Y-102004243D01*
X127874037Y-102017424D01*
X127822862Y-102171710D01*
X127819995Y-102185086D01*
X127810328Y-102279438D01*
X127810000Y-102285855D01*
X127810000Y-102535885D01*
X127814475Y-102551124D01*
X127815865Y-102552329D01*
X127823548Y-102554000D01*
X128946000Y-102554000D01*
X129014121Y-102574002D01*
X129060614Y-102627658D01*
X129072000Y-102680000D01*
X129072000Y-104022884D01*
X129076475Y-104038123D01*
X129077865Y-104039328D01*
X129085548Y-104040999D01*
X129115095Y-104040999D01*
X129121614Y-104040662D01*
X129217206Y-104030743D01*
X129230600Y-104027851D01*
X129384784Y-103976412D01*
X129397962Y-103970239D01*
X129535807Y-103884937D01*
X129547208Y-103875901D01*
X129661739Y-103761171D01*
X129670751Y-103749760D01*
X129755816Y-103611757D01*
X129761963Y-103598576D01*
X129813138Y-103444290D01*
X129816005Y-103430914D01*
X129822533Y-103367201D01*
X129849374Y-103301474D01*
X129907489Y-103260691D01*
X129978427Y-103257803D01*
X130039665Y-103293724D01*
X130072326Y-103360332D01*
X130077865Y-103395301D01*
X130080043Y-103409055D01*
X130137984Y-103522771D01*
X130228229Y-103613016D01*
X130341945Y-103670957D01*
X130351734Y-103672507D01*
X130351736Y-103672508D01*
X130374789Y-103676159D01*
X130444173Y-103711513D01*
X133754827Y-107022167D01*
X133762717Y-107030837D01*
X133766934Y-107037482D01*
X133772711Y-107042907D01*
X133818149Y-107085576D01*
X133820991Y-107088331D01*
X133841374Y-107108714D01*
X133844817Y-107111385D01*
X133853830Y-107119083D01*
X133887138Y-107150361D01*
X133887185Y-107150405D01*
X133887178Y-107150413D01*
X133928357Y-107203815D01*
X133934432Y-107274551D01*
X133900037Y-107338623D01*
X133532465Y-107706195D01*
X133470153Y-107740221D01*
X133443370Y-107743100D01*
X124718630Y-107743100D01*
X124650509Y-107723098D01*
X124629535Y-107706195D01*
X122894173Y-105970833D01*
X122886283Y-105962163D01*
X122882066Y-105955518D01*
X122830850Y-105907423D01*
X122828009Y-105904669D01*
X122807626Y-105884286D01*
X122804183Y-105881615D01*
X122795168Y-105873915D01*
X122767593Y-105848020D01*
X122767589Y-105848017D01*
X122761815Y-105842595D01*
X122754871Y-105838777D01*
X122754869Y-105838776D01*
X122743258Y-105832393D01*
X122726734Y-105821539D01*
X122716259Y-105813414D01*
X122716260Y-105813414D01*
X122709995Y-105808555D01*
X122668011Y-105790387D01*
X122657351Y-105785165D01*
X122655755Y-105784288D01*
X122617259Y-105763124D01*
X122596744Y-105757857D01*
X122578044Y-105751455D01*
X122558601Y-105743041D01*
X122525833Y-105737851D01*
X122513415Y-105735884D01*
X122501794Y-105733477D01*
X122465161Y-105724072D01*
X122465160Y-105724072D01*
X122457480Y-105722100D01*
X122436299Y-105722100D01*
X122416589Y-105720549D01*
X122403500Y-105718476D01*
X122395671Y-105717236D01*
X122387779Y-105717982D01*
X122350129Y-105721541D01*
X122338271Y-105722100D01*
X111858925Y-105722100D01*
X111801141Y-105729400D01*
X111744205Y-105736592D01*
X111744202Y-105736593D01*
X111736340Y-105737586D01*
X111728975Y-105740502D01*
X111728971Y-105740503D01*
X111671838Y-105763124D01*
X111582963Y-105798312D01*
X111576549Y-105802972D01*
X111570106Y-105806514D01*
X111509404Y-105822100D01*
X111266548Y-105822100D01*
X111262000Y-105822769D01*
X111261993Y-105822770D01*
X111206873Y-105830884D01*
X111206871Y-105830885D01*
X111197188Y-105832310D01*
X111091728Y-105884089D01*
X111008726Y-105967236D01*
X111004153Y-105976591D01*
X110967446Y-106051685D01*
X110957131Y-106072786D01*
X110955719Y-106082463D01*
X110955719Y-106082464D01*
X110955193Y-106086071D01*
X110947100Y-106141548D01*
X110947100Y-106608452D01*
X110947769Y-106613000D01*
X110947770Y-106613007D01*
X110954524Y-106658884D01*
X110957310Y-106677812D01*
X110961627Y-106686604D01*
X110962604Y-106689749D01*
X110963718Y-106760737D01*
X110926277Y-106821058D01*
X110907552Y-106834917D01*
X110866426Y-106859824D01*
X110854557Y-106869131D01*
X110744131Y-106979557D01*
X110734824Y-106991426D01*
X110653921Y-107125012D01*
X110647715Y-107138757D01*
X110600744Y-107288644D01*
X110598131Y-107301694D01*
X110593087Y-107356586D01*
X110596475Y-107368124D01*
X110597865Y-107369329D01*
X110605548Y-107371000D01*
X113189884Y-107371000D01*
X113205123Y-107366525D01*
X113206328Y-107365135D01*
X113207291Y-107360706D01*
X113201868Y-107301685D01*
X113199257Y-107288649D01*
X113168838Y-107191579D01*
X113167554Y-107120594D01*
X113204851Y-107060183D01*
X113268888Y-107029527D01*
X113289072Y-107027900D01*
X122052370Y-107027900D01*
X122120491Y-107047902D01*
X122141465Y-107064805D01*
X123876827Y-108800167D01*
X123884717Y-108808837D01*
X123888934Y-108815482D01*
X123894711Y-108820907D01*
X123940149Y-108863576D01*
X123942991Y-108866331D01*
X123963375Y-108886715D01*
X123966818Y-108889386D01*
X123975833Y-108897086D01*
X124003407Y-108922980D01*
X124003411Y-108922983D01*
X124009185Y-108928405D01*
X124016130Y-108932223D01*
X124016134Y-108932226D01*
X124027746Y-108938610D01*
X124044267Y-108949462D01*
X124054737Y-108957583D01*
X124054741Y-108957585D01*
X124061006Y-108962445D01*
X124068283Y-108965594D01*
X124102996Y-108980616D01*
X124113641Y-108985831D01*
X124153741Y-109007876D01*
X124161416Y-109009847D01*
X124161420Y-109009848D01*
X124174256Y-109013143D01*
X124192956Y-109019545D01*
X124212399Y-109027959D01*
X124228417Y-109030496D01*
X124257585Y-109035116D01*
X124269206Y-109037523D01*
X124302174Y-109045987D01*
X124313520Y-109048900D01*
X124334701Y-109048900D01*
X124354411Y-109050451D01*
X124375329Y-109053764D01*
X124420875Y-109049459D01*
X124432732Y-109048900D01*
X133684688Y-109048900D01*
X133696390Y-109049452D01*
X133704069Y-109051168D01*
X133774272Y-109048962D01*
X133778229Y-109048900D01*
X133807075Y-109048900D01*
X133811388Y-109048355D01*
X133823221Y-109047423D01*
X133852845Y-109046493D01*
X133861024Y-109046236D01*
X133861025Y-109046236D01*
X133868948Y-109045987D01*
X133889292Y-109040077D01*
X133908649Y-109036068D01*
X133929660Y-109033414D01*
X133972189Y-109016576D01*
X133983418Y-109012731D01*
X133993342Y-109009848D01*
X134027359Y-108999965D01*
X134034175Y-108995934D01*
X134034184Y-108995930D01*
X134045593Y-108989182D01*
X134063352Y-108980482D01*
X134075661Y-108975609D01*
X134075666Y-108975606D01*
X134083037Y-108972688D01*
X134120048Y-108945798D01*
X134129967Y-108939282D01*
X134169348Y-108915992D01*
X134184323Y-108901017D01*
X134199357Y-108888176D01*
X134201368Y-108886715D01*
X134216493Y-108875726D01*
X134221543Y-108869622D01*
X134221548Y-108869617D01*
X134245661Y-108840469D01*
X134253651Y-108831689D01*
X135100167Y-107985173D01*
X135108837Y-107977283D01*
X135115482Y-107973066D01*
X135127849Y-107959897D01*
X135163576Y-107921851D01*
X135166331Y-107919009D01*
X135186715Y-107898625D01*
X135189386Y-107895182D01*
X135197086Y-107886167D01*
X135222980Y-107858593D01*
X135222983Y-107858589D01*
X135228405Y-107852815D01*
X135232223Y-107845870D01*
X135232226Y-107845866D01*
X135238610Y-107834254D01*
X135249462Y-107817733D01*
X135257583Y-107807263D01*
X135257585Y-107807259D01*
X135262445Y-107800994D01*
X135280616Y-107759004D01*
X135285831Y-107748359D01*
X135307876Y-107708259D01*
X135313143Y-107687744D01*
X135319545Y-107669044D01*
X135327959Y-107649601D01*
X135335116Y-107604415D01*
X135337523Y-107592794D01*
X135346928Y-107556161D01*
X135346928Y-107556160D01*
X135348900Y-107548480D01*
X135348900Y-107527299D01*
X135350451Y-107507589D01*
X135352524Y-107494500D01*
X135353764Y-107486671D01*
X135349459Y-107441125D01*
X135348900Y-107429268D01*
X135348900Y-107280630D01*
X135368902Y-107212509D01*
X135385805Y-107191535D01*
X136776167Y-105801173D01*
X136784837Y-105793283D01*
X136791482Y-105789066D01*
X136839577Y-105737850D01*
X136842331Y-105735009D01*
X136862715Y-105714625D01*
X136865386Y-105711182D01*
X136873086Y-105702167D01*
X136898980Y-105674593D01*
X136898983Y-105674589D01*
X136904405Y-105668815D01*
X136908223Y-105661870D01*
X136908226Y-105661866D01*
X136914610Y-105650254D01*
X136925462Y-105633733D01*
X136933583Y-105623263D01*
X136933585Y-105623259D01*
X136938445Y-105616994D01*
X136956616Y-105575004D01*
X136961831Y-105564359D01*
X136983876Y-105524259D01*
X136989143Y-105503744D01*
X136995545Y-105485044D01*
X137003959Y-105465601D01*
X137011116Y-105420415D01*
X137013523Y-105408794D01*
X137022928Y-105372161D01*
X137022928Y-105372160D01*
X137024900Y-105364480D01*
X137024900Y-105343299D01*
X137026451Y-105323589D01*
X137028524Y-105310500D01*
X137029764Y-105302671D01*
X137025459Y-105257125D01*
X137024900Y-105245268D01*
X137024900Y-103421896D01*
X137044902Y-103353775D01*
X137098558Y-103307282D01*
X137168832Y-103297178D01*
X137233412Y-103326672D01*
X137271796Y-103386398D01*
X137274061Y-103395301D01*
X137277148Y-103409599D01*
X137328588Y-103563784D01*
X137334761Y-103576962D01*
X137420063Y-103714807D01*
X137429099Y-103726208D01*
X137543829Y-103840739D01*
X137555240Y-103849751D01*
X137693243Y-103934816D01*
X137706424Y-103940963D01*
X137860710Y-103992138D01*
X137874086Y-103995005D01*
X137968438Y-104004672D01*
X137974854Y-104005000D01*
X137999885Y-104005000D01*
X138015124Y-104000525D01*
X138016329Y-103999135D01*
X138018000Y-103991452D01*
X138018000Y-102644000D01*
X138038002Y-102575879D01*
X138091658Y-102529386D01*
X138144000Y-102518000D01*
X138400000Y-102518000D01*
X138468121Y-102538002D01*
X138514614Y-102591658D01*
X138526000Y-102644000D01*
X138526000Y-103986884D01*
X138530475Y-104002123D01*
X138531865Y-104003328D01*
X138539548Y-104004999D01*
X138569095Y-104004999D01*
X138575614Y-104004662D01*
X138671206Y-103994743D01*
X138684600Y-103991851D01*
X138838784Y-103940412D01*
X138851962Y-103934239D01*
X138989807Y-103848937D01*
X139001208Y-103839901D01*
X139115739Y-103725171D01*
X139124751Y-103713760D01*
X139209816Y-103575757D01*
X139215964Y-103562574D01*
X139259930Y-103430020D01*
X139300361Y-103371660D01*
X139365925Y-103344423D01*
X139435806Y-103356956D01*
X139487818Y-103405281D01*
X139491790Y-103412484D01*
X139510118Y-103448455D01*
X139547984Y-103522771D01*
X139638229Y-103613016D01*
X139647061Y-103617516D01*
X139647064Y-103617518D01*
X139706302Y-103647701D01*
X139757918Y-103696449D01*
X139775100Y-103759968D01*
X139775100Y-104226568D01*
X139755098Y-104294689D01*
X139739189Y-104314430D01*
X139733667Y-104318667D01*
X139645043Y-104434165D01*
X139589331Y-104568664D01*
X139570329Y-104713000D01*
X139589331Y-104857336D01*
X139592490Y-104864962D01*
X139629770Y-104954962D01*
X139645043Y-104991835D01*
X139733667Y-105107333D01*
X139849164Y-105195957D01*
X139983664Y-105251669D01*
X140128000Y-105270671D01*
X140136188Y-105269593D01*
X140264148Y-105252747D01*
X140272336Y-105251669D01*
X140406836Y-105195957D01*
X140522333Y-105107333D01*
X140610957Y-104991835D01*
X140626231Y-104954962D01*
X140663510Y-104864962D01*
X140666669Y-104857336D01*
X140685671Y-104713000D01*
X140666669Y-104568664D01*
X140638227Y-104500000D01*
X146394551Y-104500000D01*
X146414317Y-104751148D01*
X146415471Y-104755955D01*
X146415472Y-104755961D01*
X146437845Y-104849150D01*
X146473127Y-104996111D01*
X146475020Y-105000682D01*
X146475021Y-105000684D01*
X146557215Y-105199117D01*
X146569534Y-105228859D01*
X146701164Y-105443659D01*
X146704376Y-105447419D01*
X146704379Y-105447424D01*
X146775931Y-105531200D01*
X146864776Y-105635224D01*
X146868538Y-105638437D01*
X147052576Y-105795621D01*
X147052581Y-105795624D01*
X147056341Y-105798836D01*
X147271141Y-105930466D01*
X147275711Y-105932359D01*
X147275715Y-105932361D01*
X147499316Y-106024979D01*
X147503889Y-106026873D01*
X147552940Y-106038649D01*
X147744039Y-106084528D01*
X147744045Y-106084529D01*
X147748852Y-106085683D01*
X147837149Y-106092632D01*
X147934661Y-106100307D01*
X147934670Y-106100307D01*
X147937118Y-106100500D01*
X148062882Y-106100500D01*
X148065330Y-106100307D01*
X148065339Y-106100307D01*
X148162851Y-106092632D01*
X148251148Y-106085683D01*
X148255955Y-106084529D01*
X148255961Y-106084528D01*
X148447060Y-106038649D01*
X148496111Y-106026873D01*
X148500684Y-106024979D01*
X148724285Y-105932361D01*
X148724289Y-105932359D01*
X148728859Y-105930466D01*
X148943659Y-105798836D01*
X148947419Y-105795624D01*
X148947424Y-105795621D01*
X149131462Y-105638437D01*
X149135224Y-105635224D01*
X149224069Y-105531200D01*
X149295621Y-105447424D01*
X149295624Y-105447419D01*
X149298836Y-105443659D01*
X149430466Y-105228859D01*
X149442786Y-105199117D01*
X149524979Y-105000684D01*
X149524980Y-105000682D01*
X149526873Y-104996111D01*
X149562155Y-104849150D01*
X149584528Y-104755961D01*
X149584529Y-104755955D01*
X149585683Y-104751148D01*
X149605449Y-104500000D01*
X149585683Y-104248852D01*
X149580334Y-104226568D01*
X149535859Y-104041320D01*
X149526873Y-104003889D01*
X149521887Y-103991851D01*
X149432361Y-103775715D01*
X149432359Y-103775711D01*
X149430466Y-103771141D01*
X149424357Y-103761171D01*
X149324718Y-103598576D01*
X149298836Y-103556341D01*
X149295624Y-103552581D01*
X149295621Y-103552576D01*
X149138437Y-103368538D01*
X149135224Y-103364776D01*
X149100107Y-103334783D01*
X148947424Y-103204379D01*
X148947419Y-103204376D01*
X148943659Y-103201164D01*
X148728859Y-103069534D01*
X148724289Y-103067641D01*
X148724285Y-103067639D01*
X148500684Y-102975021D01*
X148500682Y-102975020D01*
X148496111Y-102973127D01*
X148411711Y-102952865D01*
X148255961Y-102915472D01*
X148255955Y-102915471D01*
X148251148Y-102914317D01*
X148162851Y-102907368D01*
X148065339Y-102899693D01*
X148065330Y-102899693D01*
X148062882Y-102899500D01*
X147937118Y-102899500D01*
X147934670Y-102899693D01*
X147934661Y-102899693D01*
X147837149Y-102907368D01*
X147748852Y-102914317D01*
X147744045Y-102915471D01*
X147744039Y-102915472D01*
X147588289Y-102952865D01*
X147503889Y-102973127D01*
X147499318Y-102975020D01*
X147499316Y-102975021D01*
X147275715Y-103067639D01*
X147275711Y-103067641D01*
X147271141Y-103069534D01*
X147056341Y-103201164D01*
X147052581Y-103204376D01*
X147052576Y-103204379D01*
X146899893Y-103334783D01*
X146864776Y-103364776D01*
X146861563Y-103368538D01*
X146704379Y-103552576D01*
X146704376Y-103552581D01*
X146701164Y-103556341D01*
X146675282Y-103598576D01*
X146575644Y-103761171D01*
X146569534Y-103771141D01*
X146567641Y-103775711D01*
X146567639Y-103775715D01*
X146478113Y-103991851D01*
X146473127Y-104003889D01*
X146464141Y-104041320D01*
X146419667Y-104226568D01*
X146414317Y-104248852D01*
X146394551Y-104500000D01*
X140638227Y-104500000D01*
X140610957Y-104434165D01*
X140522333Y-104318667D01*
X140517363Y-104314854D01*
X140483780Y-104253355D01*
X140480900Y-104226568D01*
X140480900Y-103759968D01*
X140500902Y-103691847D01*
X140549698Y-103647701D01*
X140608936Y-103617518D01*
X140608939Y-103617516D01*
X140617771Y-103613016D01*
X140708016Y-103522771D01*
X140765957Y-103409055D01*
X140769546Y-103386398D01*
X140773701Y-103360160D01*
X140804113Y-103296007D01*
X140864381Y-103258480D01*
X140935370Y-103259493D01*
X140994542Y-103298725D01*
X141023477Y-103366866D01*
X141030257Y-103432206D01*
X141033149Y-103445600D01*
X141084588Y-103599784D01*
X141090761Y-103612962D01*
X141176063Y-103750807D01*
X141185099Y-103762208D01*
X141299829Y-103876739D01*
X141311240Y-103885751D01*
X141449243Y-103970816D01*
X141462424Y-103976963D01*
X141616710Y-104028138D01*
X141630086Y-104031005D01*
X141724438Y-104040672D01*
X141730854Y-104041000D01*
X141755885Y-104041000D01*
X141771124Y-104036525D01*
X141772329Y-104035135D01*
X141774000Y-104027452D01*
X141774000Y-104022884D01*
X142282000Y-104022884D01*
X142286475Y-104038123D01*
X142287865Y-104039328D01*
X142295548Y-104040999D01*
X142325095Y-104040999D01*
X142331614Y-104040662D01*
X142427206Y-104030743D01*
X142440600Y-104027851D01*
X142594784Y-103976412D01*
X142607962Y-103970239D01*
X142745807Y-103884937D01*
X142757208Y-103875901D01*
X142871739Y-103761171D01*
X142880751Y-103749760D01*
X142965816Y-103611757D01*
X142971963Y-103598576D01*
X143023138Y-103444290D01*
X143026005Y-103430914D01*
X143035672Y-103336562D01*
X143036000Y-103330146D01*
X143036000Y-103080115D01*
X143031525Y-103064876D01*
X143030135Y-103063671D01*
X143022452Y-103062000D01*
X142300115Y-103062000D01*
X142284876Y-103066475D01*
X142283671Y-103067865D01*
X142282000Y-103075548D01*
X142282000Y-104022884D01*
X141774000Y-104022884D01*
X141774000Y-102680000D01*
X141794002Y-102611879D01*
X141847658Y-102565386D01*
X141900000Y-102554000D01*
X143017884Y-102554000D01*
X143033123Y-102549525D01*
X143034328Y-102548135D01*
X143035999Y-102540452D01*
X143035999Y-102285905D01*
X143035662Y-102279386D01*
X143025743Y-102183794D01*
X143022851Y-102170400D01*
X142971412Y-102016216D01*
X142965239Y-102003038D01*
X142879937Y-101865193D01*
X142870901Y-101853792D01*
X142756171Y-101739261D01*
X142744760Y-101730249D01*
X142606757Y-101645184D01*
X142593576Y-101639037D01*
X142439290Y-101587862D01*
X142425914Y-101584995D01*
X142373779Y-101579653D01*
X142308052Y-101552812D01*
X142267270Y-101494697D01*
X142264382Y-101423759D01*
X142297449Y-101365291D01*
X142401986Y-101260572D01*
X142410998Y-101249160D01*
X142493004Y-101116120D01*
X142499151Y-101102939D01*
X142548491Y-100954186D01*
X142551358Y-100940810D01*
X142560672Y-100849903D01*
X142561000Y-100843487D01*
X142561000Y-100820115D01*
X142556525Y-100804876D01*
X142555135Y-100803671D01*
X142547452Y-100802000D01*
X141475000Y-100802000D01*
X141406879Y-100781998D01*
X141360386Y-100728342D01*
X141349000Y-100676000D01*
X141349000Y-100420000D01*
X141369002Y-100351879D01*
X141422658Y-100305386D01*
X141475000Y-100294000D01*
X142542885Y-100294000D01*
X142558124Y-100289525D01*
X142559329Y-100288135D01*
X142561000Y-100280452D01*
X142561000Y-100252562D01*
X142560663Y-100246047D01*
X142551106Y-100153943D01*
X142548212Y-100140544D01*
X142498619Y-99991893D01*
X142492445Y-99978714D01*
X142410212Y-99845827D01*
X142401176Y-99834426D01*
X142290571Y-99724014D01*
X142279160Y-99715002D01*
X142146120Y-99632996D01*
X142132939Y-99626849D01*
X141984186Y-99577509D01*
X141970810Y-99574642D01*
X141879903Y-99565328D01*
X141873486Y-99565000D01*
X141824590Y-99565000D01*
X141756469Y-99544998D01*
X141709976Y-99491342D01*
X141699872Y-99421068D01*
X141716136Y-99374861D01*
X141793396Y-99244220D01*
X141799643Y-99229784D01*
X141841312Y-99086359D01*
X141842768Y-99078391D01*
X141839948Y-99064969D01*
X141828487Y-99062000D01*
X140930000Y-99062000D01*
X140861879Y-99041998D01*
X140815386Y-98988342D01*
X140804000Y-98936000D01*
X140804000Y-98535885D01*
X141312000Y-98535885D01*
X141316475Y-98551124D01*
X141317865Y-98552329D01*
X141325548Y-98554000D01*
X141826424Y-98554000D01*
X141841219Y-98549656D01*
X141843063Y-98539225D01*
X141841312Y-98529641D01*
X141799643Y-98386216D01*
X141793396Y-98371780D01*
X141718124Y-98244501D01*
X141708484Y-98232074D01*
X141603926Y-98127516D01*
X141591499Y-98117876D01*
X141464220Y-98042604D01*
X141449784Y-98036357D01*
X141329395Y-98001381D01*
X141315295Y-98001421D01*
X141312000Y-98008691D01*
X141312000Y-98535885D01*
X140804000Y-98535885D01*
X140804000Y-98014442D01*
X140800027Y-98000911D01*
X140792129Y-97999776D01*
X140666216Y-98036357D01*
X140651780Y-98042604D01*
X140524501Y-98117876D01*
X140512074Y-98127516D01*
X140407516Y-98232074D01*
X140397874Y-98244503D01*
X140375654Y-98282075D01*
X140323761Y-98330527D01*
X140253910Y-98343232D01*
X140188279Y-98316156D01*
X140178106Y-98307030D01*
X139236296Y-97365220D01*
X139202270Y-97302908D01*
X139207335Y-97232093D01*
X139249882Y-97175257D01*
X139316402Y-97150446D01*
X139382594Y-97163858D01*
X139467688Y-97207216D01*
X139477477Y-97208766D01*
X139477479Y-97208767D01*
X139590207Y-97226621D01*
X139600000Y-97228172D01*
X139609793Y-97226621D01*
X139722521Y-97208767D01*
X139722523Y-97208766D01*
X139732312Y-97207216D01*
X139851673Y-97146398D01*
X139946398Y-97051673D01*
X140007216Y-96932312D01*
X140012833Y-96896851D01*
X140026621Y-96809793D01*
X140028172Y-96800000D01*
X140024794Y-96778672D01*
X140008767Y-96677479D01*
X140008766Y-96677477D01*
X140007216Y-96667688D01*
X139946398Y-96548327D01*
X139851673Y-96453602D01*
X139732312Y-96392784D01*
X139722520Y-96391233D01*
X139713087Y-96388168D01*
X139713784Y-96386024D01*
X139655297Y-96356221D01*
X139014805Y-95715729D01*
X138980779Y-95653417D01*
X138977900Y-95626634D01*
X138977900Y-95420682D01*
X138963490Y-95334109D01*
X138959398Y-95326525D01*
X138952899Y-95287483D01*
X138952899Y-95078900D01*
X138972901Y-95010779D01*
X139026557Y-94964286D01*
X139078899Y-94952900D01*
X139226634Y-94952900D01*
X139294755Y-94972902D01*
X139315729Y-94989805D01*
X140539339Y-96213415D01*
X140551672Y-96228684D01*
X140554724Y-96232038D01*
X140560375Y-96240790D01*
X140584499Y-96259808D01*
X140588466Y-96263334D01*
X140588552Y-96263233D01*
X140592515Y-96266591D01*
X140596193Y-96270269D01*
X140610627Y-96280584D01*
X140615357Y-96284135D01*
X140652638Y-96313525D01*
X140660673Y-96316347D01*
X140667599Y-96321296D01*
X140677570Y-96324278D01*
X140677574Y-96324280D01*
X140713076Y-96334897D01*
X140718692Y-96336721D01*
X140763487Y-96352452D01*
X140768659Y-96352900D01*
X140771363Y-96352900D01*
X140773595Y-96352996D01*
X140774095Y-96353146D01*
X140774093Y-96353184D01*
X140774257Y-96353194D01*
X140780158Y-96354959D01*
X140830089Y-96352997D01*
X140835035Y-96352900D01*
X144301634Y-96352900D01*
X144369755Y-96372902D01*
X144390729Y-96389805D01*
X155839339Y-107838415D01*
X155851672Y-107853684D01*
X155854724Y-107857038D01*
X155860375Y-107865790D01*
X155884499Y-107884808D01*
X155888466Y-107888334D01*
X155888552Y-107888233D01*
X155892515Y-107891591D01*
X155896193Y-107895269D01*
X155910627Y-107905584D01*
X155915357Y-107909135D01*
X155952638Y-107938525D01*
X155960673Y-107941347D01*
X155967599Y-107946296D01*
X155977570Y-107949278D01*
X155977574Y-107949280D01*
X156013076Y-107959897D01*
X156018692Y-107961721D01*
X156063487Y-107977452D01*
X156068659Y-107977900D01*
X156071363Y-107977900D01*
X156073595Y-107977996D01*
X156074095Y-107978146D01*
X156074093Y-107978184D01*
X156074257Y-107978194D01*
X156080158Y-107979959D01*
X156130089Y-107977997D01*
X156135035Y-107977900D01*
X159106794Y-107977900D01*
X159174915Y-107997902D01*
X159206448Y-108027892D01*
X159209089Y-108033272D01*
X159292236Y-108116274D01*
X159301591Y-108120847D01*
X159388999Y-108163574D01*
X159389000Y-108163574D01*
X159397786Y-108167869D01*
X159407463Y-108169281D01*
X159407464Y-108169281D01*
X159425482Y-108171909D01*
X159466548Y-108177900D01*
X160733452Y-108177900D01*
X160738000Y-108177231D01*
X160738007Y-108177230D01*
X160793127Y-108169116D01*
X160793129Y-108169115D01*
X160802812Y-108167690D01*
X160908272Y-108115911D01*
X160991274Y-108032764D01*
X161008315Y-107997902D01*
X161038574Y-107936001D01*
X161038574Y-107936000D01*
X161042869Y-107927214D01*
X161052900Y-107858452D01*
X161052900Y-107391548D01*
X161052231Y-107387000D01*
X161052230Y-107386993D01*
X161044116Y-107331876D01*
X161042690Y-107322188D01*
X161038373Y-107313396D01*
X161037396Y-107310251D01*
X161036282Y-107239263D01*
X161073723Y-107178942D01*
X161092448Y-107165083D01*
X161133574Y-107140176D01*
X161145443Y-107130869D01*
X161255869Y-107020443D01*
X161265176Y-107008574D01*
X161346079Y-106874988D01*
X161352285Y-106861243D01*
X161399256Y-106711356D01*
X161401869Y-106698306D01*
X161406913Y-106643414D01*
X161403525Y-106631876D01*
X161402135Y-106630671D01*
X161394452Y-106629000D01*
X158810116Y-106629000D01*
X158794877Y-106633475D01*
X158793672Y-106634865D01*
X158792709Y-106639294D01*
X158798132Y-106698315D01*
X158800743Y-106711351D01*
X158847715Y-106861243D01*
X158853921Y-106874988D01*
X158934824Y-107008574D01*
X158944131Y-107020443D01*
X158980693Y-107057005D01*
X159014719Y-107119317D01*
X159009654Y-107190132D01*
X158967107Y-107246968D01*
X158900587Y-107271779D01*
X158891598Y-107272100D01*
X156323366Y-107272100D01*
X156255245Y-107252098D01*
X156234271Y-107235195D01*
X155105662Y-106106586D01*
X158793087Y-106106586D01*
X158796475Y-106118124D01*
X158797865Y-106119329D01*
X158805548Y-106121000D01*
X159827885Y-106121000D01*
X159843124Y-106116525D01*
X159844329Y-106115135D01*
X159846000Y-106107452D01*
X159846000Y-106102885D01*
X160354000Y-106102885D01*
X160358475Y-106118124D01*
X160359865Y-106119329D01*
X160367548Y-106121000D01*
X161389884Y-106121000D01*
X161405123Y-106116525D01*
X161406328Y-106115135D01*
X161407291Y-106110706D01*
X161401868Y-106051685D01*
X161399257Y-106038649D01*
X161352285Y-105888757D01*
X161346079Y-105875012D01*
X161265176Y-105741426D01*
X161255869Y-105729557D01*
X161145443Y-105619131D01*
X161133574Y-105609824D01*
X160999988Y-105528921D01*
X160986243Y-105522715D01*
X160836356Y-105475744D01*
X160823306Y-105473131D01*
X160759479Y-105467266D01*
X160753691Y-105467000D01*
X160372115Y-105467000D01*
X160356876Y-105471475D01*
X160355671Y-105472865D01*
X160354000Y-105480548D01*
X160354000Y-106102885D01*
X159846000Y-106102885D01*
X159846000Y-105485116D01*
X159841525Y-105469877D01*
X159840135Y-105468672D01*
X159832452Y-105467001D01*
X159446295Y-105467001D01*
X159440546Y-105467264D01*
X159376685Y-105473132D01*
X159363649Y-105475743D01*
X159213757Y-105522715D01*
X159200012Y-105528921D01*
X159066426Y-105609824D01*
X159054557Y-105619131D01*
X158944131Y-105729557D01*
X158934824Y-105741426D01*
X158853921Y-105875012D01*
X158847715Y-105888757D01*
X158800744Y-106038644D01*
X158798131Y-106051694D01*
X158793087Y-106106586D01*
X155105662Y-106106586D01*
X153671172Y-104672096D01*
X160992000Y-104672096D01*
X160992337Y-104678611D01*
X161002256Y-104774203D01*
X161005150Y-104787602D01*
X161056588Y-104941783D01*
X161062762Y-104954962D01*
X161148063Y-105092807D01*
X161157099Y-105104208D01*
X161271830Y-105218739D01*
X161283241Y-105227751D01*
X161421245Y-105312818D01*
X161434423Y-105318962D01*
X161588716Y-105370139D01*
X161602081Y-105373005D01*
X161696439Y-105382672D01*
X161702855Y-105383000D01*
X162727885Y-105383000D01*
X162743124Y-105378525D01*
X162744329Y-105377135D01*
X162746000Y-105369452D01*
X162746000Y-105364885D01*
X163254000Y-105364885D01*
X163258475Y-105380124D01*
X163259865Y-105381329D01*
X163267548Y-105383000D01*
X164297096Y-105383000D01*
X164303611Y-105382663D01*
X164399203Y-105372744D01*
X164412602Y-105369850D01*
X164566783Y-105318412D01*
X164579962Y-105312238D01*
X164717807Y-105226937D01*
X164729208Y-105217901D01*
X164843739Y-105103170D01*
X164852751Y-105091759D01*
X164937818Y-104953755D01*
X164943962Y-104940577D01*
X164995139Y-104786284D01*
X164998005Y-104772919D01*
X165007672Y-104678561D01*
X165008000Y-104672145D01*
X165008000Y-104097115D01*
X165003525Y-104081876D01*
X165002135Y-104080671D01*
X164994452Y-104079000D01*
X163272115Y-104079000D01*
X163256876Y-104083475D01*
X163255671Y-104084865D01*
X163254000Y-104092548D01*
X163254000Y-105364885D01*
X162746000Y-105364885D01*
X162746000Y-104097115D01*
X162741525Y-104081876D01*
X162740135Y-104080671D01*
X162732452Y-104079000D01*
X161010115Y-104079000D01*
X160994876Y-104083475D01*
X160993671Y-104084865D01*
X160992000Y-104092548D01*
X160992000Y-104672096D01*
X153671172Y-104672096D01*
X152551961Y-103552885D01*
X160992000Y-103552885D01*
X160996475Y-103568124D01*
X160997865Y-103569329D01*
X161005548Y-103571000D01*
X162727885Y-103571000D01*
X162743124Y-103566525D01*
X162744329Y-103565135D01*
X162746000Y-103557452D01*
X162746000Y-103552885D01*
X163254000Y-103552885D01*
X163258475Y-103568124D01*
X163259865Y-103569329D01*
X163267548Y-103571000D01*
X164989885Y-103571000D01*
X165005124Y-103566525D01*
X165006329Y-103565135D01*
X165008000Y-103557452D01*
X165008000Y-102977904D01*
X165007663Y-102971389D01*
X164997744Y-102875797D01*
X164994850Y-102862398D01*
X164943412Y-102708217D01*
X164937238Y-102695038D01*
X164851937Y-102557193D01*
X164842901Y-102545792D01*
X164728170Y-102431261D01*
X164716759Y-102422249D01*
X164578755Y-102337182D01*
X164565577Y-102331038D01*
X164411284Y-102279861D01*
X164397919Y-102276995D01*
X164303561Y-102267328D01*
X164297144Y-102267000D01*
X163272115Y-102267000D01*
X163256876Y-102271475D01*
X163255671Y-102272865D01*
X163254000Y-102280548D01*
X163254000Y-103552885D01*
X162746000Y-103552885D01*
X162746000Y-102285115D01*
X162741525Y-102269876D01*
X162740135Y-102268671D01*
X162732452Y-102267000D01*
X161702904Y-102267000D01*
X161696389Y-102267337D01*
X161600797Y-102277256D01*
X161587398Y-102280150D01*
X161433217Y-102331588D01*
X161420038Y-102337762D01*
X161282193Y-102423063D01*
X161270792Y-102432099D01*
X161156261Y-102546830D01*
X161147249Y-102558241D01*
X161062182Y-102696245D01*
X161056038Y-102709423D01*
X161004861Y-102863716D01*
X161001995Y-102877081D01*
X160992328Y-102971439D01*
X160992000Y-102977856D01*
X160992000Y-103552885D01*
X152551961Y-103552885D01*
X147103745Y-98104669D01*
X160092001Y-98104669D01*
X160092371Y-98111490D01*
X160097895Y-98162352D01*
X160101521Y-98177604D01*
X160146676Y-98298054D01*
X160155214Y-98313649D01*
X160231715Y-98415724D01*
X160244276Y-98428285D01*
X160346351Y-98504786D01*
X160361946Y-98513324D01*
X160482394Y-98558478D01*
X160497649Y-98562105D01*
X160548514Y-98567631D01*
X160555328Y-98568000D01*
X162777885Y-98568000D01*
X162793124Y-98563525D01*
X162794329Y-98562135D01*
X162796000Y-98554452D01*
X162796000Y-97532115D01*
X162791525Y-97516876D01*
X162790135Y-97515671D01*
X162782452Y-97514000D01*
X160110116Y-97514000D01*
X160094877Y-97518475D01*
X160093672Y-97519865D01*
X160092001Y-97527548D01*
X160092001Y-98104669D01*
X147103745Y-98104669D01*
X145986961Y-96987885D01*
X160092000Y-96987885D01*
X160096475Y-97003124D01*
X160097865Y-97004329D01*
X160105548Y-97006000D01*
X162777885Y-97006000D01*
X162793124Y-97001525D01*
X162794329Y-97000135D01*
X162796000Y-96992452D01*
X162796000Y-95970116D01*
X162791525Y-95954877D01*
X162790135Y-95953672D01*
X162782452Y-95952001D01*
X160555331Y-95952001D01*
X160548510Y-95952371D01*
X160497648Y-95957895D01*
X160482396Y-95961521D01*
X160361946Y-96006676D01*
X160346351Y-96015214D01*
X160244276Y-96091715D01*
X160231715Y-96104276D01*
X160155214Y-96206351D01*
X160146676Y-96221946D01*
X160101522Y-96342394D01*
X160097895Y-96357649D01*
X160092369Y-96408514D01*
X160092000Y-96415328D01*
X160092000Y-96987885D01*
X145986961Y-96987885D01*
X144785661Y-95786585D01*
X144773328Y-95771316D01*
X144770276Y-95767962D01*
X144764625Y-95759210D01*
X144740501Y-95740192D01*
X144736534Y-95736666D01*
X144736448Y-95736767D01*
X144732485Y-95733409D01*
X144728807Y-95729731D01*
X144714373Y-95719416D01*
X144709643Y-95715865D01*
X144680541Y-95692923D01*
X144680542Y-95692923D01*
X144672362Y-95686475D01*
X144664327Y-95683653D01*
X144657401Y-95678704D01*
X144647430Y-95675722D01*
X144647426Y-95675720D01*
X144611924Y-95665103D01*
X144606308Y-95663279D01*
X144561513Y-95647548D01*
X144556341Y-95647100D01*
X144553637Y-95647100D01*
X144551405Y-95647004D01*
X144550905Y-95646854D01*
X144550907Y-95646816D01*
X144550743Y-95646806D01*
X144544842Y-95645041D01*
X144495446Y-95646982D01*
X144494912Y-95647003D01*
X144489965Y-95647100D01*
X141023366Y-95647100D01*
X140955245Y-95627098D01*
X140934271Y-95610195D01*
X140111497Y-94787421D01*
X140077471Y-94725109D01*
X140082536Y-94654294D01*
X140125027Y-94597500D01*
X140230724Y-94518285D01*
X140243285Y-94505724D01*
X140319786Y-94403649D01*
X140328324Y-94388054D01*
X140373478Y-94267606D01*
X140377105Y-94252351D01*
X140382631Y-94201486D01*
X140383000Y-94194672D01*
X140383000Y-94168115D01*
X140378525Y-94152876D01*
X140377135Y-94151671D01*
X140369452Y-94150000D01*
X139401000Y-94150000D01*
X139332879Y-94129998D01*
X139286386Y-94076342D01*
X139275000Y-94024000D01*
X139275000Y-93153900D01*
X139295002Y-93085779D01*
X139348658Y-93039286D01*
X139401000Y-93027900D01*
X139499000Y-93027900D01*
X139567121Y-93047902D01*
G37*
%TD.AperFunction*%
%TA.AperFunction,Conductor*%
G36*
X135015411Y-95132498D02*
G01*
X135045613Y-95196750D01*
X135047100Y-95216053D01*
X135047100Y-95297091D01*
X135039983Y-95338837D01*
X135022548Y-95388487D01*
X135022100Y-95393659D01*
X135022100Y-96174634D01*
X135002098Y-96242755D01*
X134985195Y-96263729D01*
X134482585Y-96766339D01*
X134467316Y-96778672D01*
X134463962Y-96781724D01*
X134455210Y-96787375D01*
X134436192Y-96811499D01*
X134432666Y-96815466D01*
X134432767Y-96815552D01*
X134429409Y-96819515D01*
X134425731Y-96823193D01*
X134415416Y-96837627D01*
X134411865Y-96842357D01*
X134382475Y-96879638D01*
X134379653Y-96887673D01*
X134374704Y-96894599D01*
X134371722Y-96904570D01*
X134371720Y-96904574D01*
X134361103Y-96940076D01*
X134359279Y-96945692D01*
X134343548Y-96990487D01*
X134343100Y-96995659D01*
X134343100Y-96998363D01*
X134343004Y-97000595D01*
X134342854Y-97001095D01*
X134342816Y-97001093D01*
X134342806Y-97001257D01*
X134341041Y-97007158D01*
X134341450Y-97017562D01*
X134343003Y-97057088D01*
X134343100Y-97062035D01*
X134343100Y-97924734D01*
X134323098Y-97992855D01*
X134269442Y-98039348D01*
X134199168Y-98049452D01*
X134167058Y-98040371D01*
X134157781Y-98036356D01*
X134037395Y-98001381D01*
X134023295Y-98001421D01*
X134020000Y-98008691D01*
X134020000Y-98936000D01*
X133999998Y-99004121D01*
X133946342Y-99050614D01*
X133894000Y-99062000D01*
X132997576Y-99062000D01*
X132982781Y-99066344D01*
X132980937Y-99076775D01*
X132982688Y-99086359D01*
X133024357Y-99229784D01*
X133030604Y-99244220D01*
X133105876Y-99371500D01*
X133106087Y-99371771D01*
X133106186Y-99372023D01*
X133109910Y-99378320D01*
X133108894Y-99378921D01*
X133132036Y-99437856D01*
X133118138Y-99507479D01*
X133068804Y-99558535D01*
X133006530Y-99575000D01*
X132950562Y-99575000D01*
X132944047Y-99575337D01*
X132851943Y-99584894D01*
X132838544Y-99587788D01*
X132689893Y-99637381D01*
X132676714Y-99643555D01*
X132543827Y-99725788D01*
X132532426Y-99734824D01*
X132422014Y-99845429D01*
X132413002Y-99856840D01*
X132330996Y-99989880D01*
X132324849Y-100003061D01*
X132275509Y-100151814D01*
X132272642Y-100165190D01*
X132263328Y-100256097D01*
X132263000Y-100262514D01*
X132263000Y-100285885D01*
X132267475Y-100301124D01*
X132268865Y-100302329D01*
X132276548Y-100304000D01*
X133349000Y-100304000D01*
X133417121Y-100324002D01*
X133463614Y-100377658D01*
X133475000Y-100430000D01*
X133475000Y-100686000D01*
X133454998Y-100754121D01*
X133401342Y-100800614D01*
X133349000Y-100812000D01*
X132281115Y-100812000D01*
X132265876Y-100816475D01*
X132264671Y-100817865D01*
X132263000Y-100825548D01*
X132263000Y-100853438D01*
X132263337Y-100859953D01*
X132272894Y-100952057D01*
X132275788Y-100965456D01*
X132325381Y-101114107D01*
X132331555Y-101127286D01*
X132413788Y-101260173D01*
X132422824Y-101271574D01*
X132517531Y-101366115D01*
X132551611Y-101428398D01*
X132546608Y-101499218D01*
X132504111Y-101556091D01*
X132441518Y-101580616D01*
X132396794Y-101585257D01*
X132383400Y-101588149D01*
X132229216Y-101639588D01*
X132216038Y-101645761D01*
X132078193Y-101731063D01*
X132066792Y-101740099D01*
X131952261Y-101854829D01*
X131943249Y-101866240D01*
X131858184Y-102004243D01*
X131852037Y-102017424D01*
X131800862Y-102171710D01*
X131797995Y-102185086D01*
X131788328Y-102279438D01*
X131788000Y-102285855D01*
X131788000Y-102535885D01*
X131792475Y-102551124D01*
X131793865Y-102552329D01*
X131801548Y-102554000D01*
X132924000Y-102554000D01*
X132992121Y-102574002D01*
X133038614Y-102627658D01*
X133050000Y-102680000D01*
X133050000Y-102936000D01*
X133029998Y-103004121D01*
X132976342Y-103050614D01*
X132924000Y-103062000D01*
X131806116Y-103062000D01*
X131759696Y-103075630D01*
X131752431Y-103080299D01*
X131681434Y-103080299D01*
X131627838Y-103048498D01*
X131407805Y-102828465D01*
X131373779Y-102766153D01*
X131370900Y-102739370D01*
X131370900Y-102301292D01*
X131361882Y-102244352D01*
X131357508Y-102216736D01*
X131357507Y-102216734D01*
X131355957Y-102206945D01*
X131298016Y-102093229D01*
X131207771Y-102002984D01*
X131198938Y-101998483D01*
X131198936Y-101998482D01*
X131139698Y-101968299D01*
X131088082Y-101919551D01*
X131070900Y-101856032D01*
X131070900Y-101215111D01*
X131090902Y-101146990D01*
X131141370Y-101102008D01*
X131169677Y-101088110D01*
X131169681Y-101088107D01*
X131179026Y-101083519D01*
X131186379Y-101076153D01*
X131186382Y-101076151D01*
X131260550Y-101001853D01*
X131260550Y-101001852D01*
X131267908Y-100994482D01*
X131323157Y-100881454D01*
X131333900Y-100807815D01*
X131333899Y-100236186D01*
X131322966Y-100161905D01*
X131289784Y-100094322D01*
X131272109Y-100058322D01*
X131272108Y-100058321D01*
X131267519Y-100048974D01*
X131212300Y-99993851D01*
X131185853Y-99967450D01*
X131185852Y-99967450D01*
X131178482Y-99960092D01*
X131164966Y-99953485D01*
X131141568Y-99942048D01*
X131089151Y-99894163D01*
X131070900Y-99828848D01*
X131070900Y-99184178D01*
X131081660Y-99133230D01*
X131102382Y-99086359D01*
X131119982Y-99046549D01*
X131122900Y-99021521D01*
X131122900Y-98890366D01*
X131142902Y-98822245D01*
X131159805Y-98801271D01*
X131423467Y-98537609D01*
X132981232Y-98537609D01*
X132984052Y-98551031D01*
X132995513Y-98554000D01*
X133493885Y-98554000D01*
X133509124Y-98549525D01*
X133510329Y-98548135D01*
X133512000Y-98540452D01*
X133512000Y-98014442D01*
X133508027Y-98000911D01*
X133500129Y-97999776D01*
X133374216Y-98036357D01*
X133359780Y-98042604D01*
X133232501Y-98117876D01*
X133220074Y-98127516D01*
X133115516Y-98232074D01*
X133105876Y-98244501D01*
X133030604Y-98371780D01*
X133024357Y-98386216D01*
X132982688Y-98529641D01*
X132981232Y-98537609D01*
X131423467Y-98537609D01*
X134763415Y-95197661D01*
X134778684Y-95185328D01*
X134782038Y-95182276D01*
X134790790Y-95176625D01*
X134809808Y-95152501D01*
X134813339Y-95148528D01*
X134813238Y-95148442D01*
X134816593Y-95144483D01*
X134820269Y-95140807D01*
X134823288Y-95136583D01*
X134824974Y-95134593D01*
X134884274Y-95095555D01*
X134955266Y-95094774D01*
X135015411Y-95132498D01*
G37*
%TD.AperFunction*%
%TA.AperFunction,Conductor*%
G36*
X137442121Y-95295002D02*
G01*
X137488614Y-95348658D01*
X137500000Y-95401000D01*
X137500000Y-96364884D01*
X137504475Y-96380123D01*
X137505867Y-96381329D01*
X137522883Y-96385031D01*
X137585196Y-96419056D01*
X137619221Y-96481368D01*
X137622100Y-96508151D01*
X137622100Y-96551917D01*
X137620023Y-96571430D01*
X137619809Y-96575968D01*
X137617618Y-96586146D01*
X137619949Y-96605839D01*
X137621227Y-96616642D01*
X137621540Y-96621950D01*
X137621672Y-96621939D01*
X137622100Y-96627117D01*
X137622100Y-96632318D01*
X137622954Y-96637447D01*
X137622954Y-96637450D01*
X137625012Y-96649814D01*
X137625849Y-96655693D01*
X137631426Y-96702817D01*
X137635112Y-96710493D01*
X137636510Y-96718891D01*
X137641455Y-96728055D01*
X137641455Y-96728056D01*
X137659047Y-96760660D01*
X137661735Y-96765933D01*
X137682283Y-96808725D01*
X137685623Y-96812699D01*
X137687561Y-96814637D01*
X137689043Y-96816253D01*
X137689292Y-96816715D01*
X137689263Y-96816741D01*
X137689375Y-96816868D01*
X137692298Y-96822286D01*
X137699946Y-96829356D01*
X137699947Y-96829357D01*
X137728994Y-96856207D01*
X137732561Y-96859637D01*
X139628195Y-98755271D01*
X139662221Y-98817583D01*
X139665100Y-98844365D01*
X139665101Y-99021520D01*
X139668138Y-99047055D01*
X139712432Y-99146774D01*
X139720664Y-99154992D01*
X139720665Y-99154993D01*
X139738117Y-99172414D01*
X139772197Y-99234697D01*
X139775100Y-99261588D01*
X139775100Y-99824448D01*
X139755098Y-99892569D01*
X139704633Y-99937551D01*
X139604974Y-99986481D01*
X139516092Y-100075518D01*
X139460843Y-100188546D01*
X139450100Y-100262185D01*
X139450101Y-100833814D01*
X139461034Y-100908095D01*
X139482619Y-100952057D01*
X139507328Y-101002383D01*
X139516481Y-101021026D01*
X139529171Y-101033694D01*
X139586864Y-101091286D01*
X139605518Y-101109908D01*
X139614874Y-101114481D01*
X139614875Y-101114482D01*
X139634566Y-101124107D01*
X139704434Y-101158259D01*
X139756849Y-101206143D01*
X139775100Y-101271458D01*
X139775100Y-101856032D01*
X139755098Y-101924153D01*
X139706302Y-101968299D01*
X139647064Y-101998482D01*
X139647062Y-101998483D01*
X139638229Y-102002984D01*
X139547984Y-102093229D01*
X139526339Y-102135710D01*
X139504997Y-102177595D01*
X139456248Y-102229210D01*
X139387333Y-102246276D01*
X139320132Y-102223375D01*
X139275980Y-102167777D01*
X139269568Y-102146985D01*
X139266850Y-102134396D01*
X139215412Y-101980216D01*
X139209239Y-101967038D01*
X139123937Y-101829193D01*
X139114901Y-101817792D01*
X139000171Y-101703261D01*
X138988760Y-101694249D01*
X138850757Y-101609184D01*
X138837576Y-101603037D01*
X138703356Y-101558518D01*
X138644997Y-101518087D01*
X138617760Y-101452523D01*
X138630294Y-101382641D01*
X138653851Y-101349907D01*
X138768986Y-101234571D01*
X138777998Y-101223160D01*
X138860004Y-101090120D01*
X138866151Y-101076939D01*
X138915491Y-100928186D01*
X138918358Y-100914810D01*
X138927672Y-100823903D01*
X138928000Y-100817487D01*
X138928000Y-100794115D01*
X138923525Y-100778876D01*
X138922135Y-100777671D01*
X138914452Y-100776000D01*
X137842000Y-100776000D01*
X137773879Y-100755998D01*
X137727386Y-100702342D01*
X137716000Y-100650000D01*
X137716000Y-100249885D01*
X138224000Y-100249885D01*
X138228475Y-100265124D01*
X138229865Y-100266329D01*
X138237548Y-100268000D01*
X138909885Y-100268000D01*
X138925124Y-100263525D01*
X138926329Y-100262135D01*
X138928000Y-100254452D01*
X138928000Y-100226562D01*
X138927663Y-100220047D01*
X138918106Y-100127943D01*
X138915212Y-100114544D01*
X138865619Y-99965893D01*
X138859445Y-99952714D01*
X138777212Y-99819827D01*
X138768176Y-99808426D01*
X138657571Y-99698014D01*
X138646160Y-99689002D01*
X138513120Y-99606996D01*
X138499939Y-99600849D01*
X138351186Y-99551509D01*
X138337810Y-99548642D01*
X138246903Y-99539328D01*
X138241874Y-99539071D01*
X138226876Y-99543475D01*
X138225671Y-99544865D01*
X138224000Y-99552548D01*
X138224000Y-100249885D01*
X137716000Y-100249885D01*
X137716000Y-99599933D01*
X137736002Y-99531812D01*
X137777860Y-99491480D01*
X137827496Y-99462125D01*
X137839929Y-99452481D01*
X137944484Y-99347926D01*
X137954124Y-99335499D01*
X138029396Y-99208220D01*
X138035643Y-99193784D01*
X138077312Y-99050359D01*
X138078768Y-99042391D01*
X138075948Y-99028969D01*
X138064487Y-99026000D01*
X137166000Y-99026000D01*
X137097879Y-99005998D01*
X137051386Y-98952342D01*
X137040000Y-98900000D01*
X137040000Y-98499885D01*
X137548000Y-98499885D01*
X137552475Y-98515124D01*
X137553865Y-98516329D01*
X137561548Y-98518000D01*
X138062424Y-98518000D01*
X138077219Y-98513656D01*
X138079063Y-98503225D01*
X138077312Y-98493641D01*
X138035643Y-98350216D01*
X138029396Y-98335780D01*
X137954124Y-98208501D01*
X137944484Y-98196074D01*
X137839926Y-98091516D01*
X137827499Y-98081876D01*
X137700220Y-98006604D01*
X137685784Y-98000357D01*
X137565395Y-97965381D01*
X137551295Y-97965421D01*
X137548000Y-97972691D01*
X137548000Y-98499885D01*
X137040000Y-98499885D01*
X137040000Y-97978442D01*
X137036027Y-97964911D01*
X137028129Y-97963776D01*
X136902219Y-98000356D01*
X136900942Y-98000909D01*
X136899855Y-98001043D01*
X136894603Y-98002569D01*
X136894357Y-98001722D01*
X136830480Y-98009606D01*
X136766501Y-97978829D01*
X136729319Y-97918347D01*
X136724900Y-97885272D01*
X136724900Y-96870682D01*
X136719395Y-96837610D01*
X136712200Y-96794381D01*
X136712200Y-96794380D01*
X136710490Y-96784109D01*
X136654702Y-96680714D01*
X136647053Y-96673644D01*
X136647052Y-96673642D01*
X136568859Y-96601362D01*
X136568855Y-96601358D01*
X136568429Y-96600965D01*
X136568303Y-96600909D01*
X136561216Y-96595140D01*
X136509268Y-96543192D01*
X136475242Y-96480880D01*
X136480307Y-96410065D01*
X136497451Y-96381170D01*
X136500000Y-96369452D01*
X136500000Y-96364884D01*
X136850000Y-96364884D01*
X136854475Y-96380123D01*
X136855865Y-96381328D01*
X136863548Y-96382999D01*
X136894669Y-96382999D01*
X136901490Y-96382629D01*
X136952354Y-96377105D01*
X136970857Y-96372706D01*
X137029146Y-96372706D01*
X137047649Y-96377105D01*
X137098514Y-96382631D01*
X137105328Y-96383000D01*
X137131885Y-96383000D01*
X137147124Y-96378525D01*
X137148329Y-96377135D01*
X137150000Y-96369452D01*
X137150000Y-95643115D01*
X137145525Y-95627876D01*
X137144135Y-95626671D01*
X137136452Y-95625000D01*
X136868115Y-95625000D01*
X136852876Y-95629475D01*
X136851671Y-95630865D01*
X136850000Y-95638548D01*
X136850000Y-96364884D01*
X136500000Y-96364884D01*
X136500000Y-95401000D01*
X136520002Y-95332879D01*
X136573658Y-95286386D01*
X136626000Y-95275000D01*
X137374000Y-95275000D01*
X137442121Y-95295002D01*
G37*
%TD.AperFunction*%
%TA.AperFunction,Conductor*%
G36*
X165714721Y-70247402D02*
G01*
X165761214Y-70301058D01*
X165772600Y-70353400D01*
X165772600Y-87318903D01*
X165752598Y-87387024D01*
X165698942Y-87433517D01*
X165628668Y-87443621D01*
X165617451Y-87441485D01*
X165602352Y-87437895D01*
X165551486Y-87432369D01*
X165544672Y-87432000D01*
X163322115Y-87432000D01*
X163306876Y-87436475D01*
X163305671Y-87437865D01*
X163304000Y-87445548D01*
X163304000Y-90029884D01*
X163308475Y-90045123D01*
X163309865Y-90046328D01*
X163317548Y-90047999D01*
X165544669Y-90047999D01*
X165551490Y-90047629D01*
X165602349Y-90042105D01*
X165617455Y-90038514D01*
X165688355Y-90042217D01*
X165745998Y-90083663D01*
X165772083Y-90149694D01*
X165772600Y-90161097D01*
X165772600Y-92012526D01*
X165752598Y-92080647D01*
X165698942Y-92127140D01*
X165628668Y-92137244D01*
X165576598Y-92117291D01*
X165569975Y-92112865D01*
X165569972Y-92112864D01*
X165559658Y-92105972D01*
X165547491Y-92103552D01*
X165547489Y-92103551D01*
X165529257Y-92099925D01*
X165515057Y-92097100D01*
X162700228Y-92097100D01*
X159884944Y-92097101D01*
X159868290Y-92100413D01*
X159852517Y-92103550D01*
X159852515Y-92103551D01*
X159840342Y-92105972D01*
X159789766Y-92139766D01*
X159782873Y-92150082D01*
X159762865Y-92180025D01*
X159762864Y-92180028D01*
X159755972Y-92190342D01*
X159753552Y-92202509D01*
X159753551Y-92202511D01*
X159752876Y-92205906D01*
X159747100Y-92234943D01*
X159747100Y-92308350D01*
X159727098Y-92376471D01*
X159673442Y-92422964D01*
X159621100Y-92434350D01*
X141186490Y-92434350D01*
X141118369Y-92414348D01*
X141097395Y-92397445D01*
X140973758Y-92273808D01*
X140885266Y-92205906D01*
X140747664Y-92148910D01*
X140600000Y-92129469D01*
X140452336Y-92148909D01*
X140444707Y-92152069D01*
X140352147Y-92190409D01*
X140303929Y-92200000D01*
X139643115Y-92200000D01*
X139627876Y-92204475D01*
X139626670Y-92205867D01*
X139622968Y-92222883D01*
X139588943Y-92285196D01*
X139526631Y-92319221D01*
X139499848Y-92322100D01*
X139420682Y-92322100D01*
X139415549Y-92322954D01*
X139411380Y-92323299D01*
X139341843Y-92308977D01*
X139291088Y-92259334D01*
X139275000Y-92197727D01*
X139275000Y-91831885D01*
X139625000Y-91831885D01*
X139629475Y-91847124D01*
X139630865Y-91848329D01*
X139638548Y-91850000D01*
X140364884Y-91850000D01*
X140380123Y-91845525D01*
X140381328Y-91844135D01*
X140382999Y-91836452D01*
X140382999Y-91805331D01*
X140382629Y-91798510D01*
X140377105Y-91747646D01*
X140372706Y-91729143D01*
X140372706Y-91670854D01*
X140377105Y-91652351D01*
X140382631Y-91601486D01*
X140383000Y-91594672D01*
X140383000Y-91568115D01*
X140378525Y-91552876D01*
X140377135Y-91551671D01*
X140369452Y-91550000D01*
X139643115Y-91550000D01*
X139627876Y-91554475D01*
X139626671Y-91555865D01*
X139625000Y-91563548D01*
X139625000Y-91831885D01*
X139275000Y-91831885D01*
X139275000Y-91568115D01*
X139270525Y-91552876D01*
X139269135Y-91551671D01*
X139261452Y-91550000D01*
X138576000Y-91550000D01*
X138507879Y-91529998D01*
X138461386Y-91476342D01*
X138450000Y-91424000D01*
X138450000Y-91181885D01*
X138800000Y-91181885D01*
X138804475Y-91197124D01*
X138805865Y-91198329D01*
X138813548Y-91200000D01*
X139256885Y-91200000D01*
X139272124Y-91195525D01*
X139273329Y-91194135D01*
X139275000Y-91186452D01*
X139275000Y-91181885D01*
X139625000Y-91181885D01*
X139629475Y-91197124D01*
X139630865Y-91198329D01*
X139638548Y-91200000D01*
X140364884Y-91200000D01*
X140380123Y-91195525D01*
X140381328Y-91194135D01*
X140382999Y-91186452D01*
X140382999Y-91155331D01*
X140382629Y-91148510D01*
X140377105Y-91097648D01*
X140373479Y-91082396D01*
X140328324Y-90961946D01*
X140319786Y-90946351D01*
X140243285Y-90844276D01*
X140230724Y-90831715D01*
X140128649Y-90755214D01*
X140113054Y-90746676D01*
X139992606Y-90701522D01*
X139977351Y-90697895D01*
X139926486Y-90692369D01*
X139919672Y-90692000D01*
X139643115Y-90692000D01*
X139627876Y-90696475D01*
X139626671Y-90697865D01*
X139625000Y-90705548D01*
X139625000Y-91181885D01*
X139275000Y-91181885D01*
X139275000Y-90743115D01*
X139270525Y-90727876D01*
X139269135Y-90726671D01*
X139261452Y-90725000D01*
X138818115Y-90725000D01*
X138802876Y-90729475D01*
X138801671Y-90730865D01*
X138800000Y-90738548D01*
X138800000Y-91181885D01*
X138450000Y-91181885D01*
X138450000Y-90356885D01*
X138800000Y-90356885D01*
X138804475Y-90372124D01*
X138805865Y-90373329D01*
X138813548Y-90375000D01*
X139289884Y-90375000D01*
X139305123Y-90370525D01*
X139306328Y-90369135D01*
X139307999Y-90361452D01*
X139307999Y-90080331D01*
X139307629Y-90073510D01*
X139302105Y-90022648D01*
X139298479Y-90007396D01*
X139253324Y-89886946D01*
X139244786Y-89871351D01*
X139168285Y-89769276D01*
X139155724Y-89756715D01*
X139053649Y-89680214D01*
X139038054Y-89671676D01*
X138917606Y-89626522D01*
X138902351Y-89622895D01*
X138851486Y-89617369D01*
X138844672Y-89617000D01*
X138818115Y-89617000D01*
X138802876Y-89621475D01*
X138801671Y-89622865D01*
X138800000Y-89630548D01*
X138800000Y-90356885D01*
X138450000Y-90356885D01*
X138450000Y-89617001D01*
X138451533Y-89617001D01*
X138451531Y-89584669D01*
X160092001Y-89584669D01*
X160092371Y-89591490D01*
X160097895Y-89642352D01*
X160101521Y-89657604D01*
X160146676Y-89778054D01*
X160155214Y-89793649D01*
X160231715Y-89895724D01*
X160244276Y-89908285D01*
X160346351Y-89984786D01*
X160361946Y-89993324D01*
X160482394Y-90038478D01*
X160497649Y-90042105D01*
X160548514Y-90047631D01*
X160555328Y-90048000D01*
X162777885Y-90048000D01*
X162793124Y-90043525D01*
X162794329Y-90042135D01*
X162796000Y-90034452D01*
X162796000Y-89012115D01*
X162791525Y-88996876D01*
X162790135Y-88995671D01*
X162782452Y-88994000D01*
X160110116Y-88994000D01*
X160094877Y-88998475D01*
X160093672Y-88999865D01*
X160092001Y-89007548D01*
X160092001Y-89584669D01*
X138451531Y-89584669D01*
X138451530Y-89569345D01*
X138483333Y-89515743D01*
X139639738Y-88359338D01*
X139702050Y-88325312D01*
X139772865Y-88330377D01*
X139817928Y-88359338D01*
X139889074Y-88430484D01*
X139901501Y-88440124D01*
X140028780Y-88515396D01*
X140043216Y-88521643D01*
X140163605Y-88556619D01*
X140177705Y-88556579D01*
X140181000Y-88549309D01*
X140181000Y-88543558D01*
X140689000Y-88543558D01*
X140692973Y-88557089D01*
X140700871Y-88558224D01*
X140826784Y-88521643D01*
X140841220Y-88515396D01*
X140921557Y-88467885D01*
X160092000Y-88467885D01*
X160096475Y-88483124D01*
X160097865Y-88484329D01*
X160105548Y-88486000D01*
X162777885Y-88486000D01*
X162793124Y-88481525D01*
X162794329Y-88480135D01*
X162796000Y-88472452D01*
X162796000Y-87450116D01*
X162791525Y-87434877D01*
X162790135Y-87433672D01*
X162782452Y-87432001D01*
X160555331Y-87432001D01*
X160548510Y-87432371D01*
X160497648Y-87437895D01*
X160482396Y-87441521D01*
X160361946Y-87486676D01*
X160346351Y-87495214D01*
X160244276Y-87571715D01*
X160231715Y-87584276D01*
X160155214Y-87686351D01*
X160146676Y-87701946D01*
X160101522Y-87822394D01*
X160097895Y-87837649D01*
X160092369Y-87888514D01*
X160092000Y-87895328D01*
X160092000Y-88467885D01*
X140921557Y-88467885D01*
X140968499Y-88440124D01*
X140980926Y-88430484D01*
X141085484Y-88325926D01*
X141095124Y-88313499D01*
X141170396Y-88186220D01*
X141176643Y-88171784D01*
X141218312Y-88028359D01*
X141219768Y-88020391D01*
X141216948Y-88006969D01*
X141205487Y-88004000D01*
X140707115Y-88004000D01*
X140691876Y-88008475D01*
X140690671Y-88009865D01*
X140689000Y-88017548D01*
X140689000Y-88543558D01*
X140181000Y-88543558D01*
X140181000Y-86956442D01*
X140177027Y-86942911D01*
X140169129Y-86941776D01*
X140043216Y-86978357D01*
X140028776Y-86984606D01*
X140018038Y-86990956D01*
X139949221Y-87008415D01*
X139881890Y-86985897D01*
X139837422Y-86930552D01*
X139827900Y-86882502D01*
X139827900Y-86763899D01*
X139847902Y-86695778D01*
X139901558Y-86649285D01*
X139953900Y-86637899D01*
X140010814Y-86637899D01*
X140085095Y-86626966D01*
X140182207Y-86579286D01*
X140188678Y-86576109D01*
X140188679Y-86576108D01*
X140198026Y-86571519D01*
X140213743Y-86555774D01*
X140276024Y-86521694D01*
X140346844Y-86526696D01*
X140403718Y-86569192D01*
X140410061Y-86578488D01*
X140492788Y-86712173D01*
X140501824Y-86723574D01*
X140612429Y-86833986D01*
X140623840Y-86842998D01*
X140629116Y-86846250D01*
X140676609Y-86899022D01*
X140689000Y-86953510D01*
X140689000Y-87477885D01*
X140693475Y-87493124D01*
X140694865Y-87494329D01*
X140702548Y-87496000D01*
X141203424Y-87496000D01*
X141218219Y-87491656D01*
X141220063Y-87481225D01*
X141218312Y-87471641D01*
X141176643Y-87328216D01*
X141170396Y-87313780D01*
X141095124Y-87186501D01*
X141085484Y-87174074D01*
X141059601Y-87148191D01*
X141025575Y-87085879D01*
X141030640Y-87015064D01*
X141042660Y-86994805D01*
X141046000Y-86979452D01*
X141046000Y-86974885D01*
X141554000Y-86974885D01*
X141558475Y-86990124D01*
X141559865Y-86991329D01*
X141567548Y-86993000D01*
X141570438Y-86993000D01*
X141576953Y-86992663D01*
X141669057Y-86983106D01*
X141682456Y-86980212D01*
X141831107Y-86930619D01*
X141844286Y-86924445D01*
X141977173Y-86842212D01*
X141988574Y-86833176D01*
X142098986Y-86722571D01*
X142107998Y-86711160D01*
X142190004Y-86578120D01*
X142196151Y-86564939D01*
X142245491Y-86416186D01*
X142248358Y-86402810D01*
X142257672Y-86311903D01*
X142258000Y-86305487D01*
X142258000Y-86282115D01*
X142253525Y-86266876D01*
X142252135Y-86265671D01*
X142244452Y-86264000D01*
X141572115Y-86264000D01*
X141556876Y-86268475D01*
X141555671Y-86269865D01*
X141554000Y-86277548D01*
X141554000Y-86974885D01*
X141046000Y-86974885D01*
X141046000Y-85882000D01*
X141066002Y-85813879D01*
X141119658Y-85767386D01*
X141172000Y-85756000D01*
X142239885Y-85756000D01*
X142255124Y-85751525D01*
X142256329Y-85750135D01*
X142258000Y-85742452D01*
X142258000Y-85714562D01*
X142257663Y-85708047D01*
X142248106Y-85615943D01*
X142245212Y-85602544D01*
X142195619Y-85453893D01*
X142189445Y-85440714D01*
X142107212Y-85307827D01*
X142098176Y-85296426D01*
X141991570Y-85190006D01*
X141957491Y-85127724D01*
X141962494Y-85056904D01*
X142004991Y-85000031D01*
X142067583Y-84975506D01*
X142094207Y-84972743D01*
X142107600Y-84969851D01*
X142261784Y-84918412D01*
X142274962Y-84912239D01*
X142412807Y-84826937D01*
X142424208Y-84817901D01*
X142538739Y-84703171D01*
X142547751Y-84691760D01*
X142632816Y-84553757D01*
X142638963Y-84540576D01*
X142690138Y-84386290D01*
X142693005Y-84372914D01*
X142702672Y-84278562D01*
X142703000Y-84272146D01*
X142703000Y-84022115D01*
X142698525Y-84006876D01*
X142697135Y-84005671D01*
X142689452Y-84004000D01*
X141567000Y-84004000D01*
X141498879Y-83983998D01*
X141452386Y-83930342D01*
X141441000Y-83878000D01*
X141441000Y-83477885D01*
X141949000Y-83477885D01*
X141953475Y-83493124D01*
X141954865Y-83494329D01*
X141962548Y-83496000D01*
X142684884Y-83496000D01*
X142700123Y-83491525D01*
X142701328Y-83490135D01*
X142702999Y-83482452D01*
X142702999Y-83227905D01*
X142702662Y-83221386D01*
X142692743Y-83125794D01*
X142689851Y-83112400D01*
X142659724Y-83022096D01*
X160992000Y-83022096D01*
X160992337Y-83028611D01*
X161002256Y-83124203D01*
X161005150Y-83137602D01*
X161056588Y-83291783D01*
X161062762Y-83304962D01*
X161148063Y-83442807D01*
X161157099Y-83454208D01*
X161271830Y-83568739D01*
X161283241Y-83577751D01*
X161421245Y-83662818D01*
X161434423Y-83668962D01*
X161588716Y-83720139D01*
X161602081Y-83723005D01*
X161696439Y-83732672D01*
X161702855Y-83733000D01*
X162727885Y-83733000D01*
X162743124Y-83728525D01*
X162744329Y-83727135D01*
X162746000Y-83719452D01*
X162746000Y-83714885D01*
X163254000Y-83714885D01*
X163258475Y-83730124D01*
X163259865Y-83731329D01*
X163267548Y-83733000D01*
X164297096Y-83733000D01*
X164303611Y-83732663D01*
X164399203Y-83722744D01*
X164412602Y-83719850D01*
X164566783Y-83668412D01*
X164579962Y-83662238D01*
X164717807Y-83576937D01*
X164729208Y-83567901D01*
X164843739Y-83453170D01*
X164852751Y-83441759D01*
X164937818Y-83303755D01*
X164943962Y-83290577D01*
X164995139Y-83136284D01*
X164998005Y-83122919D01*
X165007672Y-83028561D01*
X165008000Y-83022145D01*
X165008000Y-82447115D01*
X165003525Y-82431876D01*
X165002135Y-82430671D01*
X164994452Y-82429000D01*
X163272115Y-82429000D01*
X163256876Y-82433475D01*
X163255671Y-82434865D01*
X163254000Y-82442548D01*
X163254000Y-83714885D01*
X162746000Y-83714885D01*
X162746000Y-82447115D01*
X162741525Y-82431876D01*
X162740135Y-82430671D01*
X162732452Y-82429000D01*
X161010115Y-82429000D01*
X160994876Y-82433475D01*
X160993671Y-82434865D01*
X160992000Y-82442548D01*
X160992000Y-83022096D01*
X142659724Y-83022096D01*
X142638412Y-82958216D01*
X142632239Y-82945038D01*
X142546937Y-82807193D01*
X142537901Y-82795792D01*
X142423171Y-82681261D01*
X142411760Y-82672249D01*
X142273757Y-82587184D01*
X142260576Y-82581037D01*
X142106290Y-82529862D01*
X142092914Y-82526995D01*
X141998562Y-82517328D01*
X141992145Y-82517000D01*
X141967115Y-82517000D01*
X141951876Y-82521475D01*
X141950671Y-82522865D01*
X141949000Y-82530548D01*
X141949000Y-83477885D01*
X141441000Y-83477885D01*
X141441000Y-82535116D01*
X141436525Y-82519877D01*
X141435135Y-82518672D01*
X141427452Y-82517001D01*
X141397905Y-82517001D01*
X141391386Y-82517338D01*
X141295794Y-82527257D01*
X141282400Y-82530149D01*
X141128216Y-82581588D01*
X141115038Y-82587761D01*
X140977193Y-82673063D01*
X140965792Y-82682099D01*
X140851261Y-82796829D01*
X140842249Y-82808240D01*
X140757184Y-82946243D01*
X140751037Y-82959424D01*
X140699862Y-83113710D01*
X140696995Y-83127086D01*
X140690467Y-83190799D01*
X140663626Y-83256526D01*
X140605511Y-83297309D01*
X140534573Y-83300197D01*
X140473335Y-83264276D01*
X140440674Y-83197668D01*
X140434508Y-83158736D01*
X140434507Y-83158734D01*
X140432957Y-83148945D01*
X140375016Y-83035229D01*
X140284771Y-82944984D01*
X140171055Y-82887043D01*
X140161266Y-82885493D01*
X140161264Y-82885492D01*
X140133648Y-82881118D01*
X140076708Y-82872100D01*
X139892630Y-82872100D01*
X139824509Y-82852098D01*
X139803535Y-82835195D01*
X139619173Y-82650833D01*
X139611283Y-82642163D01*
X139607066Y-82635518D01*
X139555850Y-82587423D01*
X139553009Y-82584669D01*
X139535805Y-82567465D01*
X139501779Y-82505153D01*
X139498900Y-82478370D01*
X139498900Y-82302630D01*
X139518902Y-82234509D01*
X139535805Y-82213535D01*
X139846455Y-81902885D01*
X160992000Y-81902885D01*
X160996475Y-81918124D01*
X160997865Y-81919329D01*
X161005548Y-81921000D01*
X162727885Y-81921000D01*
X162743124Y-81916525D01*
X162744329Y-81915135D01*
X162746000Y-81907452D01*
X162746000Y-81902885D01*
X163254000Y-81902885D01*
X163258475Y-81918124D01*
X163259865Y-81919329D01*
X163267548Y-81921000D01*
X164989885Y-81921000D01*
X165005124Y-81916525D01*
X165006329Y-81915135D01*
X165008000Y-81907452D01*
X165008000Y-81327904D01*
X165007663Y-81321389D01*
X164997744Y-81225797D01*
X164994850Y-81212398D01*
X164943412Y-81058217D01*
X164937238Y-81045038D01*
X164851937Y-80907193D01*
X164842901Y-80895792D01*
X164728170Y-80781261D01*
X164716759Y-80772249D01*
X164578755Y-80687182D01*
X164565577Y-80681038D01*
X164411284Y-80629861D01*
X164397919Y-80626995D01*
X164303561Y-80617328D01*
X164297144Y-80617000D01*
X163272115Y-80617000D01*
X163256876Y-80621475D01*
X163255671Y-80622865D01*
X163254000Y-80630548D01*
X163254000Y-81902885D01*
X162746000Y-81902885D01*
X162746000Y-80635115D01*
X162741525Y-80619876D01*
X162740135Y-80618671D01*
X162732452Y-80617000D01*
X161702904Y-80617000D01*
X161696389Y-80617337D01*
X161600797Y-80627256D01*
X161587398Y-80630150D01*
X161433217Y-80681588D01*
X161420038Y-80687762D01*
X161282193Y-80773063D01*
X161270792Y-80782099D01*
X161156261Y-80896830D01*
X161147249Y-80908241D01*
X161062182Y-81046245D01*
X161056038Y-81059423D01*
X161004861Y-81213716D01*
X161001995Y-81227081D01*
X160992328Y-81321439D01*
X160992000Y-81327856D01*
X160992000Y-81902885D01*
X139846455Y-81902885D01*
X140520167Y-81229173D01*
X140528837Y-81221283D01*
X140535482Y-81217066D01*
X140583577Y-81165850D01*
X140586331Y-81163009D01*
X140606714Y-81142626D01*
X140609385Y-81139183D01*
X140617085Y-81130168D01*
X140642980Y-81102593D01*
X140642983Y-81102589D01*
X140648405Y-81096815D01*
X140658607Y-81078258D01*
X140669461Y-81061734D01*
X140677586Y-81051259D01*
X140682445Y-81044995D01*
X140700613Y-81003011D01*
X140705835Y-80992351D01*
X140706712Y-80990755D01*
X140727876Y-80952259D01*
X140733143Y-80931744D01*
X140739545Y-80913044D01*
X140747959Y-80893601D01*
X140755116Y-80848415D01*
X140757523Y-80836794D01*
X140766928Y-80800161D01*
X140766928Y-80800160D01*
X140768900Y-80792480D01*
X140768900Y-80771299D01*
X140770451Y-80751589D01*
X140772524Y-80738500D01*
X140773764Y-80730671D01*
X140769459Y-80685128D01*
X140768900Y-80673271D01*
X140768900Y-79600000D01*
X158071828Y-79600000D01*
X158073379Y-79609793D01*
X158082397Y-79666728D01*
X158092784Y-79732312D01*
X158153602Y-79851673D01*
X158248327Y-79946398D01*
X158367688Y-80007216D01*
X158377479Y-80008767D01*
X158377480Y-80008767D01*
X158394200Y-80011415D01*
X158397449Y-80012195D01*
X158398945Y-80012957D01*
X158420861Y-80016428D01*
X158440084Y-80021044D01*
X158451750Y-80024834D01*
X158451752Y-80024834D01*
X158461187Y-80027900D01*
X158498283Y-80027900D01*
X158500000Y-80028172D01*
X158501717Y-80027900D01*
X159151581Y-80027900D01*
X159219702Y-80047902D01*
X159240599Y-80064727D01*
X159292236Y-80116274D01*
X159301591Y-80120847D01*
X159388999Y-80163574D01*
X159389000Y-80163574D01*
X159397786Y-80167869D01*
X159407463Y-80169281D01*
X159407464Y-80169281D01*
X159425482Y-80171909D01*
X159466548Y-80177900D01*
X160733452Y-80177900D01*
X160738000Y-80177231D01*
X160738007Y-80177230D01*
X160793127Y-80169116D01*
X160793129Y-80169115D01*
X160802812Y-80167690D01*
X160908272Y-80115911D01*
X160991274Y-80032764D01*
X161003004Y-80008767D01*
X161038574Y-79936001D01*
X161038574Y-79936000D01*
X161042869Y-79927214D01*
X161052900Y-79858452D01*
X161052900Y-79391548D01*
X161052231Y-79387000D01*
X161052230Y-79386993D01*
X161044116Y-79331876D01*
X161042690Y-79322188D01*
X161038373Y-79313396D01*
X161037396Y-79310251D01*
X161036282Y-79239263D01*
X161073723Y-79178942D01*
X161092448Y-79165083D01*
X161133574Y-79140176D01*
X161145443Y-79130869D01*
X161255869Y-79020443D01*
X161265176Y-79008574D01*
X161346079Y-78874988D01*
X161352285Y-78861243D01*
X161399256Y-78711356D01*
X161401869Y-78698306D01*
X161406913Y-78643414D01*
X161403525Y-78631876D01*
X161402135Y-78630671D01*
X161394452Y-78629000D01*
X158810116Y-78629000D01*
X158794877Y-78633475D01*
X158793672Y-78634865D01*
X158792709Y-78639294D01*
X158798132Y-78698315D01*
X158800743Y-78711351D01*
X158847715Y-78861243D01*
X158853921Y-78874988D01*
X158934824Y-79008575D01*
X158942489Y-79018349D01*
X158968785Y-79084296D01*
X158955252Y-79153991D01*
X158906188Y-79205306D01*
X158843339Y-79222100D01*
X158720097Y-79222100D01*
X158662896Y-79208367D01*
X158632312Y-79192784D01*
X158622525Y-79191234D01*
X158622522Y-79191233D01*
X158509793Y-79173379D01*
X158500000Y-79171828D01*
X158490207Y-79173379D01*
X158377479Y-79191233D01*
X158377477Y-79191234D01*
X158367688Y-79192784D01*
X158248327Y-79253602D01*
X158153602Y-79348327D01*
X158092784Y-79467688D01*
X158091234Y-79477477D01*
X158091233Y-79477479D01*
X158077460Y-79564441D01*
X158071828Y-79600000D01*
X140768900Y-79600000D01*
X140768900Y-78106586D01*
X158793087Y-78106586D01*
X158796475Y-78118124D01*
X158797865Y-78119329D01*
X158805548Y-78121000D01*
X159827885Y-78121000D01*
X159843124Y-78116525D01*
X159844329Y-78115135D01*
X159846000Y-78107452D01*
X159846000Y-78102885D01*
X160354000Y-78102885D01*
X160358475Y-78118124D01*
X160359865Y-78119329D01*
X160367548Y-78121000D01*
X161389884Y-78121000D01*
X161405123Y-78116525D01*
X161406328Y-78115135D01*
X161407291Y-78110706D01*
X161401868Y-78051685D01*
X161399257Y-78038649D01*
X161352285Y-77888757D01*
X161346079Y-77875012D01*
X161265176Y-77741426D01*
X161255869Y-77729557D01*
X161145443Y-77619131D01*
X161133574Y-77609824D01*
X160999988Y-77528921D01*
X160986243Y-77522715D01*
X160836356Y-77475744D01*
X160823306Y-77473131D01*
X160759479Y-77467266D01*
X160753691Y-77467000D01*
X160372115Y-77467000D01*
X160356876Y-77471475D01*
X160355671Y-77472865D01*
X160354000Y-77480548D01*
X160354000Y-78102885D01*
X159846000Y-78102885D01*
X159846000Y-77485116D01*
X159841525Y-77469877D01*
X159840135Y-77468672D01*
X159832452Y-77467001D01*
X159446295Y-77467001D01*
X159440546Y-77467264D01*
X159376685Y-77473132D01*
X159363649Y-77475743D01*
X159213757Y-77522715D01*
X159200012Y-77528921D01*
X159066426Y-77609824D01*
X159054557Y-77619131D01*
X158944131Y-77729557D01*
X158934824Y-77741426D01*
X158853921Y-77875012D01*
X158847715Y-77888757D01*
X158800744Y-78038644D01*
X158798131Y-78051694D01*
X158793087Y-78106586D01*
X140768900Y-78106586D01*
X140768900Y-77997323D01*
X140769452Y-77985612D01*
X140771169Y-77977931D01*
X140768962Y-77907709D01*
X140768900Y-77903752D01*
X140768900Y-77874925D01*
X140768357Y-77870623D01*
X140767424Y-77858781D01*
X140766236Y-77820977D01*
X140765987Y-77813053D01*
X140760078Y-77792714D01*
X140756068Y-77773351D01*
X140754407Y-77760205D01*
X140753414Y-77752340D01*
X140736572Y-77709803D01*
X140732734Y-77698595D01*
X140719965Y-77654642D01*
X140709182Y-77636410D01*
X140700489Y-77618666D01*
X140692688Y-77598963D01*
X140665793Y-77561945D01*
X140659284Y-77552036D01*
X140640030Y-77519479D01*
X140640028Y-77519477D01*
X140635992Y-77512652D01*
X140621017Y-77497677D01*
X140608176Y-77482643D01*
X140606654Y-77480548D01*
X140595726Y-77465507D01*
X140589622Y-77460457D01*
X140589617Y-77460452D01*
X140560469Y-77436339D01*
X140551689Y-77428349D01*
X139795436Y-76672096D01*
X160992000Y-76672096D01*
X160992337Y-76678611D01*
X161002256Y-76774203D01*
X161005150Y-76787602D01*
X161056588Y-76941783D01*
X161062762Y-76954962D01*
X161148063Y-77092807D01*
X161157099Y-77104208D01*
X161271830Y-77218739D01*
X161283241Y-77227751D01*
X161421245Y-77312818D01*
X161434423Y-77318962D01*
X161588716Y-77370139D01*
X161602081Y-77373005D01*
X161696439Y-77382672D01*
X161702855Y-77383000D01*
X162727885Y-77383000D01*
X162743124Y-77378525D01*
X162744329Y-77377135D01*
X162746000Y-77369452D01*
X162746000Y-77364885D01*
X163254000Y-77364885D01*
X163258475Y-77380124D01*
X163259865Y-77381329D01*
X163267548Y-77383000D01*
X164297096Y-77383000D01*
X164303611Y-77382663D01*
X164399203Y-77372744D01*
X164412602Y-77369850D01*
X164566783Y-77318412D01*
X164579962Y-77312238D01*
X164717807Y-77226937D01*
X164729208Y-77217901D01*
X164843739Y-77103170D01*
X164852751Y-77091759D01*
X164937818Y-76953755D01*
X164943962Y-76940577D01*
X164995139Y-76786284D01*
X164998005Y-76772919D01*
X165007672Y-76678561D01*
X165008000Y-76672145D01*
X165008000Y-76097115D01*
X165003525Y-76081876D01*
X165002135Y-76080671D01*
X164994452Y-76079000D01*
X163272115Y-76079000D01*
X163256876Y-76083475D01*
X163255671Y-76084865D01*
X163254000Y-76092548D01*
X163254000Y-77364885D01*
X162746000Y-77364885D01*
X162746000Y-76097115D01*
X162741525Y-76081876D01*
X162740135Y-76080671D01*
X162732452Y-76079000D01*
X161010115Y-76079000D01*
X160994876Y-76083475D01*
X160993671Y-76084865D01*
X160992000Y-76092548D01*
X160992000Y-76672096D01*
X139795436Y-76672096D01*
X138857173Y-75733833D01*
X138849283Y-75725163D01*
X138845066Y-75718518D01*
X138793850Y-75670423D01*
X138791009Y-75667669D01*
X138770626Y-75647286D01*
X138767183Y-75644615D01*
X138758168Y-75636915D01*
X138730593Y-75611020D01*
X138730589Y-75611017D01*
X138724815Y-75605595D01*
X138717871Y-75601777D01*
X138717869Y-75601776D01*
X138706258Y-75595393D01*
X138689734Y-75584539D01*
X138679259Y-75576414D01*
X138679260Y-75576414D01*
X138672995Y-75571555D01*
X138631011Y-75553387D01*
X138629986Y-75552885D01*
X160992000Y-75552885D01*
X160996475Y-75568124D01*
X160997865Y-75569329D01*
X161005548Y-75571000D01*
X162727885Y-75571000D01*
X162743124Y-75566525D01*
X162744329Y-75565135D01*
X162746000Y-75557452D01*
X162746000Y-75552885D01*
X163254000Y-75552885D01*
X163258475Y-75568124D01*
X163259865Y-75569329D01*
X163267548Y-75571000D01*
X164989885Y-75571000D01*
X165005124Y-75566525D01*
X165006329Y-75565135D01*
X165008000Y-75557452D01*
X165008000Y-74977904D01*
X165007663Y-74971389D01*
X164997744Y-74875797D01*
X164994850Y-74862398D01*
X164943412Y-74708217D01*
X164937238Y-74695038D01*
X164851937Y-74557193D01*
X164842901Y-74545792D01*
X164728170Y-74431261D01*
X164716759Y-74422249D01*
X164578755Y-74337182D01*
X164565577Y-74331038D01*
X164411284Y-74279861D01*
X164397919Y-74276995D01*
X164303561Y-74267328D01*
X164297144Y-74267000D01*
X163272115Y-74267000D01*
X163256876Y-74271475D01*
X163255671Y-74272865D01*
X163254000Y-74280548D01*
X163254000Y-75552885D01*
X162746000Y-75552885D01*
X162746000Y-74285115D01*
X162741525Y-74269876D01*
X162740135Y-74268671D01*
X162732452Y-74267000D01*
X161702904Y-74267000D01*
X161696389Y-74267337D01*
X161600797Y-74277256D01*
X161587398Y-74280150D01*
X161433217Y-74331588D01*
X161420038Y-74337762D01*
X161282193Y-74423063D01*
X161270792Y-74432099D01*
X161156261Y-74546830D01*
X161147249Y-74558241D01*
X161062182Y-74696245D01*
X161056038Y-74709423D01*
X161004861Y-74863716D01*
X161001995Y-74877081D01*
X160992328Y-74971439D01*
X160992000Y-74977856D01*
X160992000Y-75552885D01*
X138629986Y-75552885D01*
X138620351Y-75548165D01*
X138601988Y-75538070D01*
X138580259Y-75526124D01*
X138559744Y-75520857D01*
X138541044Y-75514455D01*
X138521601Y-75506041D01*
X138499453Y-75502533D01*
X138476415Y-75498884D01*
X138464794Y-75496477D01*
X138428161Y-75487072D01*
X138428160Y-75487072D01*
X138420480Y-75485100D01*
X138399299Y-75485100D01*
X138379589Y-75483549D01*
X138366500Y-75481476D01*
X138358671Y-75480236D01*
X138350779Y-75480982D01*
X138313129Y-75484541D01*
X138301271Y-75485100D01*
X134609312Y-75485100D01*
X134597610Y-75484548D01*
X134589931Y-75482832D01*
X134521618Y-75484979D01*
X134519728Y-75485038D01*
X134515771Y-75485100D01*
X134486925Y-75485100D01*
X134482612Y-75485645D01*
X134470779Y-75486577D01*
X134441155Y-75487507D01*
X134432976Y-75487764D01*
X134432975Y-75487764D01*
X134425052Y-75488013D01*
X134404708Y-75493923D01*
X134385351Y-75497932D01*
X134364340Y-75500586D01*
X134342611Y-75509189D01*
X134321811Y-75517424D01*
X134310584Y-75521268D01*
X134266641Y-75534035D01*
X134259825Y-75538066D01*
X134259816Y-75538070D01*
X134248407Y-75544818D01*
X134230648Y-75553518D01*
X134218339Y-75558391D01*
X134218334Y-75558394D01*
X134210963Y-75561312D01*
X134204548Y-75565973D01*
X134173952Y-75588202D01*
X134164035Y-75594717D01*
X134124652Y-75618008D01*
X134109677Y-75632983D01*
X134094644Y-75645823D01*
X134077507Y-75658274D01*
X134072457Y-75664378D01*
X134072452Y-75664383D01*
X134048339Y-75693531D01*
X134040349Y-75702311D01*
X132057465Y-77685195D01*
X131995153Y-77719221D01*
X131968370Y-77722100D01*
X111858925Y-77722100D01*
X111801141Y-77729400D01*
X111744205Y-77736592D01*
X111744202Y-77736593D01*
X111736340Y-77737586D01*
X111728975Y-77740502D01*
X111728971Y-77740503D01*
X111659651Y-77767949D01*
X111582963Y-77798312D01*
X111576549Y-77802972D01*
X111570106Y-77806514D01*
X111509404Y-77822100D01*
X111266548Y-77822100D01*
X111262000Y-77822769D01*
X111261993Y-77822770D01*
X111206873Y-77830884D01*
X111206871Y-77830885D01*
X111197188Y-77832310D01*
X111091728Y-77884089D01*
X111008726Y-77967236D01*
X111004153Y-77976591D01*
X110967446Y-78051685D01*
X110957131Y-78072786D01*
X110947100Y-78141548D01*
X110947100Y-78608452D01*
X110947769Y-78613000D01*
X110947770Y-78613007D01*
X110954524Y-78658884D01*
X110957310Y-78677812D01*
X110961627Y-78686604D01*
X110962604Y-78689749D01*
X110963718Y-78760737D01*
X110926277Y-78821058D01*
X110907552Y-78834917D01*
X110866426Y-78859824D01*
X110854557Y-78869131D01*
X110744131Y-78979557D01*
X110734824Y-78991426D01*
X110653921Y-79125012D01*
X110647715Y-79138757D01*
X110600744Y-79288644D01*
X110598131Y-79301694D01*
X110593087Y-79356586D01*
X110596475Y-79368124D01*
X110597865Y-79369329D01*
X110605548Y-79371000D01*
X113189884Y-79371000D01*
X113205123Y-79366525D01*
X113206328Y-79365135D01*
X113207291Y-79360706D01*
X113201868Y-79301685D01*
X113199257Y-79288649D01*
X113168838Y-79191579D01*
X113167554Y-79120594D01*
X113204851Y-79060183D01*
X113268888Y-79029527D01*
X113289072Y-79027900D01*
X132052370Y-79027900D01*
X132120491Y-79047902D01*
X132141465Y-79064805D01*
X132985195Y-79908535D01*
X133019221Y-79970847D01*
X133022100Y-79997630D01*
X133022100Y-83100104D01*
X133002098Y-83168225D01*
X132948442Y-83214718D01*
X132878168Y-83224822D01*
X132813588Y-83195328D01*
X132775204Y-83135602D01*
X132772939Y-83126699D01*
X132769852Y-83112401D01*
X132718412Y-82958216D01*
X132712239Y-82945038D01*
X132626937Y-82807193D01*
X132617901Y-82795792D01*
X132503171Y-82681261D01*
X132491760Y-82672249D01*
X132353757Y-82587184D01*
X132340576Y-82581037D01*
X132186290Y-82529862D01*
X132172914Y-82526995D01*
X132078562Y-82517328D01*
X132072145Y-82517000D01*
X132047115Y-82517000D01*
X132031876Y-82521475D01*
X132030671Y-82522865D01*
X132029000Y-82530548D01*
X132029000Y-83878000D01*
X132008998Y-83946121D01*
X131955342Y-83992614D01*
X131903000Y-84004000D01*
X130785116Y-84004000D01*
X130769877Y-84008475D01*
X130768672Y-84009865D01*
X130767001Y-84017548D01*
X130767001Y-84272095D01*
X130767338Y-84278614D01*
X130777257Y-84374206D01*
X130780149Y-84387600D01*
X130831588Y-84541784D01*
X130837761Y-84554962D01*
X130923063Y-84692807D01*
X130932099Y-84704208D01*
X131046829Y-84818739D01*
X131058240Y-84827751D01*
X131196243Y-84912816D01*
X131209424Y-84918963D01*
X131363710Y-84970138D01*
X131377087Y-84973005D01*
X131402003Y-84975558D01*
X131467731Y-85002398D01*
X131508513Y-85060513D01*
X131511403Y-85131451D01*
X131478335Y-85189919D01*
X131371018Y-85297424D01*
X131362002Y-85308840D01*
X131279996Y-85441880D01*
X131273849Y-85455061D01*
X131224509Y-85603814D01*
X131221642Y-85617190D01*
X131212328Y-85708097D01*
X131212000Y-85714514D01*
X131212000Y-85737885D01*
X131216475Y-85753124D01*
X131217865Y-85754329D01*
X131225548Y-85756000D01*
X132298000Y-85756000D01*
X132366121Y-85776002D01*
X132412614Y-85829658D01*
X132424000Y-85882000D01*
X132424000Y-86974885D01*
X132438652Y-87024785D01*
X132439591Y-87026247D01*
X132439573Y-87097244D01*
X132407781Y-87150809D01*
X132384516Y-87174074D01*
X132374876Y-87186501D01*
X132299604Y-87313780D01*
X132293357Y-87328216D01*
X132251688Y-87471641D01*
X132250232Y-87479609D01*
X132253052Y-87493031D01*
X132264513Y-87496000D01*
X132762885Y-87496000D01*
X132778124Y-87491525D01*
X132779329Y-87490135D01*
X132781000Y-87482452D01*
X132781000Y-86953363D01*
X132801002Y-86885242D01*
X132840700Y-86846217D01*
X132847175Y-86842210D01*
X132858574Y-86833176D01*
X132968986Y-86722571D01*
X132977998Y-86711160D01*
X133059761Y-86578515D01*
X133112533Y-86531022D01*
X133182605Y-86519598D01*
X133247728Y-86547872D01*
X133256038Y-86555457D01*
X133264746Y-86564150D01*
X133272518Y-86571908D01*
X133281874Y-86576481D01*
X133281875Y-86576482D01*
X133318486Y-86594378D01*
X133385546Y-86627157D01*
X133418918Y-86632026D01*
X133454659Y-86637240D01*
X133454663Y-86637240D01*
X133459185Y-86637900D01*
X133516100Y-86637900D01*
X133584221Y-86657902D01*
X133630714Y-86711558D01*
X133642100Y-86763900D01*
X133642100Y-86882502D01*
X133622098Y-86950623D01*
X133568442Y-86997116D01*
X133498168Y-87007220D01*
X133451962Y-86990956D01*
X133441224Y-86984606D01*
X133426784Y-86978357D01*
X133306395Y-86943381D01*
X133292295Y-86943421D01*
X133289000Y-86950691D01*
X133289000Y-88543558D01*
X133292973Y-88557089D01*
X133300871Y-88558224D01*
X133426784Y-88521643D01*
X133441220Y-88515396D01*
X133568499Y-88440124D01*
X133580926Y-88430484D01*
X133685484Y-88325926D01*
X133695126Y-88313496D01*
X133718033Y-88274762D01*
X133769925Y-88226309D01*
X133826487Y-88212900D01*
X133911634Y-88212900D01*
X133979755Y-88232902D01*
X134000729Y-88249805D01*
X134714339Y-88963415D01*
X134726672Y-88978684D01*
X134729724Y-88982038D01*
X134735375Y-88990790D01*
X134759499Y-89009808D01*
X134763466Y-89013334D01*
X134763552Y-89013233D01*
X134767515Y-89016591D01*
X134771193Y-89020269D01*
X134785627Y-89030584D01*
X134790357Y-89034135D01*
X134827638Y-89063525D01*
X134835673Y-89066347D01*
X134842599Y-89071296D01*
X134852570Y-89074278D01*
X134852574Y-89074280D01*
X134888076Y-89084897D01*
X134893692Y-89086721D01*
X134938487Y-89102452D01*
X134943659Y-89102900D01*
X134946363Y-89102900D01*
X134948595Y-89102996D01*
X134949095Y-89103146D01*
X134949093Y-89103184D01*
X134949257Y-89103194D01*
X134955158Y-89104959D01*
X135005089Y-89102997D01*
X135010035Y-89102900D01*
X135551634Y-89102900D01*
X135619755Y-89122902D01*
X135640729Y-89139805D01*
X135902830Y-89401906D01*
X135936856Y-89464218D01*
X135931791Y-89535033D01*
X135889244Y-89591869D01*
X135822724Y-89616680D01*
X135813735Y-89617001D01*
X135805331Y-89617001D01*
X135798510Y-89617371D01*
X135747646Y-89622895D01*
X135729143Y-89627294D01*
X135670854Y-89627294D01*
X135652351Y-89622895D01*
X135601486Y-89617369D01*
X135594672Y-89617000D01*
X135568115Y-89617000D01*
X135552876Y-89621475D01*
X135551671Y-89622865D01*
X135550000Y-89630548D01*
X135550000Y-90356885D01*
X135554475Y-90372124D01*
X135555865Y-90373329D01*
X135563548Y-90375000D01*
X136074000Y-90375000D01*
X136142121Y-90395002D01*
X136188614Y-90448658D01*
X136200000Y-90501000D01*
X136200000Y-90599000D01*
X136179998Y-90667121D01*
X136126342Y-90713614D01*
X136074000Y-90725000D01*
X135568115Y-90725000D01*
X135552876Y-90729475D01*
X135551671Y-90730865D01*
X135550000Y-90738548D01*
X135550000Y-91424000D01*
X135529998Y-91492121D01*
X135476342Y-91538614D01*
X135424000Y-91550000D01*
X134743115Y-91550000D01*
X134727876Y-91554475D01*
X134726671Y-91555865D01*
X134725000Y-91563548D01*
X134725000Y-92846100D01*
X134704998Y-92914221D01*
X134651342Y-92960714D01*
X134599000Y-92972100D01*
X134501000Y-92972100D01*
X134432879Y-92952098D01*
X134386386Y-92898442D01*
X134375000Y-92846100D01*
X134375000Y-92218115D01*
X134370525Y-92202876D01*
X134369135Y-92201671D01*
X134361452Y-92200000D01*
X133635116Y-92200000D01*
X133619877Y-92204475D01*
X133618672Y-92205865D01*
X133617001Y-92213548D01*
X133617001Y-92244669D01*
X133617371Y-92251490D01*
X133622895Y-92302354D01*
X133627294Y-92320857D01*
X133627294Y-92379146D01*
X133622895Y-92397649D01*
X133617369Y-92448514D01*
X133617000Y-92455328D01*
X133617000Y-92570945D01*
X133596998Y-92639066D01*
X133543342Y-92685559D01*
X133474555Y-92695867D01*
X133387076Y-92684350D01*
X112196399Y-92684350D01*
X112128278Y-92664348D01*
X112081785Y-92610692D01*
X112070399Y-92558350D01*
X112070399Y-92484944D01*
X112061528Y-92440342D01*
X112049917Y-92422964D01*
X112034627Y-92400082D01*
X112027734Y-92389766D01*
X112007837Y-92376471D01*
X111987475Y-92362865D01*
X111987472Y-92362864D01*
X111977158Y-92355972D01*
X111964991Y-92353552D01*
X111964989Y-92353551D01*
X111946757Y-92349925D01*
X111932557Y-92347100D01*
X111322972Y-92347100D01*
X106353400Y-92347101D01*
X106285279Y-92327099D01*
X106238786Y-92273443D01*
X106227400Y-92221101D01*
X106227400Y-91831885D01*
X133617000Y-91831885D01*
X133621475Y-91847124D01*
X133622865Y-91848329D01*
X133630548Y-91850000D01*
X134356885Y-91850000D01*
X134372124Y-91845525D01*
X134373329Y-91844135D01*
X134375000Y-91836452D01*
X134375000Y-91568115D01*
X134370525Y-91552876D01*
X134369135Y-91551671D01*
X134361452Y-91550000D01*
X133635116Y-91550000D01*
X133619877Y-91554475D01*
X133618672Y-91555865D01*
X133617001Y-91563548D01*
X133617001Y-91594669D01*
X133617371Y-91601490D01*
X133622895Y-91652354D01*
X133627294Y-91670857D01*
X133627294Y-91729146D01*
X133622895Y-91747649D01*
X133617369Y-91798514D01*
X133617000Y-91805328D01*
X133617000Y-91831885D01*
X106227400Y-91831885D01*
X106227400Y-91181885D01*
X133617000Y-91181885D01*
X133621475Y-91197124D01*
X133622865Y-91198329D01*
X133630548Y-91200000D01*
X134356885Y-91200000D01*
X134372124Y-91195525D01*
X134373329Y-91194135D01*
X134375000Y-91186452D01*
X134375000Y-91181885D01*
X134725000Y-91181885D01*
X134729475Y-91197124D01*
X134730865Y-91198329D01*
X134738548Y-91200000D01*
X135181885Y-91200000D01*
X135197124Y-91195525D01*
X135198329Y-91194135D01*
X135200000Y-91186452D01*
X135200000Y-90743115D01*
X135195525Y-90727876D01*
X135194135Y-90726671D01*
X135186452Y-90725000D01*
X134743115Y-90725000D01*
X134727876Y-90729475D01*
X134726671Y-90730865D01*
X134725000Y-90738548D01*
X134725000Y-91181885D01*
X134375000Y-91181885D01*
X134375000Y-90710116D01*
X134370525Y-90694877D01*
X134369135Y-90693672D01*
X134361452Y-90692001D01*
X134080331Y-90692001D01*
X134073510Y-90692371D01*
X134022648Y-90697895D01*
X134007396Y-90701521D01*
X133886946Y-90746676D01*
X133871351Y-90755214D01*
X133769276Y-90831715D01*
X133756715Y-90844276D01*
X133680214Y-90946351D01*
X133671676Y-90961946D01*
X133626522Y-91082394D01*
X133622895Y-91097649D01*
X133617369Y-91148514D01*
X133617000Y-91155328D01*
X133617000Y-91181885D01*
X106227400Y-91181885D01*
X106227400Y-90424000D01*
X106247107Y-90356885D01*
X134692000Y-90356885D01*
X134696475Y-90372124D01*
X134697865Y-90373329D01*
X134705548Y-90375000D01*
X135181885Y-90375000D01*
X135197124Y-90370525D01*
X135198329Y-90369135D01*
X135200000Y-90361452D01*
X135200000Y-89635116D01*
X135195525Y-89619877D01*
X135194135Y-89618672D01*
X135186452Y-89617001D01*
X135155331Y-89617001D01*
X135148510Y-89617371D01*
X135097648Y-89622895D01*
X135082396Y-89626521D01*
X134961946Y-89671676D01*
X134946351Y-89680214D01*
X134844276Y-89756715D01*
X134831715Y-89769276D01*
X134755214Y-89871351D01*
X134746676Y-89886946D01*
X134701522Y-90007394D01*
X134697895Y-90022649D01*
X134692369Y-90073514D01*
X134692000Y-90080328D01*
X134692000Y-90356885D01*
X106247107Y-90356885D01*
X106247402Y-90355879D01*
X106301058Y-90309386D01*
X106353400Y-90298000D01*
X108495385Y-90298000D01*
X108510624Y-90293525D01*
X108511829Y-90292135D01*
X108513500Y-90284452D01*
X108513500Y-90279884D01*
X109021500Y-90279884D01*
X109025975Y-90295123D01*
X109027365Y-90296328D01*
X109035048Y-90297999D01*
X111262169Y-90297999D01*
X111268990Y-90297629D01*
X111319852Y-90292105D01*
X111335104Y-90288479D01*
X111455554Y-90243324D01*
X111471149Y-90234786D01*
X111573224Y-90158285D01*
X111585785Y-90145724D01*
X111662286Y-90043649D01*
X111670824Y-90028054D01*
X111715978Y-89907606D01*
X111719605Y-89892351D01*
X111725131Y-89841486D01*
X111725500Y-89834672D01*
X111725500Y-89262115D01*
X111721025Y-89246876D01*
X111719635Y-89245671D01*
X111711952Y-89244000D01*
X109039615Y-89244000D01*
X109024376Y-89248475D01*
X109023171Y-89249865D01*
X109021500Y-89257548D01*
X109021500Y-90279884D01*
X108513500Y-90279884D01*
X108513500Y-88717885D01*
X109021500Y-88717885D01*
X109025975Y-88733124D01*
X109027365Y-88734329D01*
X109035048Y-88736000D01*
X111707384Y-88736000D01*
X111722623Y-88731525D01*
X111723828Y-88730135D01*
X111725499Y-88722452D01*
X111725499Y-88145331D01*
X111725129Y-88138510D01*
X111719605Y-88087648D01*
X111715979Y-88072396D01*
X111695877Y-88018775D01*
X132249937Y-88018775D01*
X132251688Y-88028359D01*
X132293357Y-88171784D01*
X132299604Y-88186220D01*
X132374876Y-88313499D01*
X132384516Y-88325926D01*
X132489074Y-88430484D01*
X132501501Y-88440124D01*
X132628780Y-88515396D01*
X132643216Y-88521643D01*
X132763605Y-88556619D01*
X132777705Y-88556579D01*
X132781000Y-88549309D01*
X132781000Y-88022115D01*
X132776525Y-88006876D01*
X132775135Y-88005671D01*
X132767452Y-88004000D01*
X132266576Y-88004000D01*
X132251781Y-88008344D01*
X132249937Y-88018775D01*
X111695877Y-88018775D01*
X111670824Y-87951946D01*
X111662286Y-87936351D01*
X111585785Y-87834276D01*
X111573224Y-87821715D01*
X111471149Y-87745214D01*
X111455554Y-87736676D01*
X111335106Y-87691522D01*
X111319851Y-87687895D01*
X111268986Y-87682369D01*
X111262172Y-87682000D01*
X109039615Y-87682000D01*
X109024376Y-87686475D01*
X109023171Y-87687865D01*
X109021500Y-87695548D01*
X109021500Y-88717885D01*
X108513500Y-88717885D01*
X108513500Y-87700116D01*
X108509025Y-87684877D01*
X108507635Y-87683672D01*
X108499952Y-87682001D01*
X106353400Y-87682001D01*
X106285279Y-87661999D01*
X106238786Y-87608343D01*
X106227400Y-87556001D01*
X106227400Y-86305438D01*
X131212000Y-86305438D01*
X131212337Y-86311953D01*
X131221894Y-86404057D01*
X131224788Y-86417456D01*
X131274381Y-86566107D01*
X131280555Y-86579286D01*
X131362788Y-86712173D01*
X131371824Y-86723574D01*
X131482429Y-86833986D01*
X131493840Y-86842998D01*
X131626880Y-86925004D01*
X131640061Y-86931151D01*
X131788814Y-86980491D01*
X131802190Y-86983358D01*
X131893097Y-86992672D01*
X131898126Y-86992929D01*
X131913124Y-86988525D01*
X131914329Y-86987135D01*
X131916000Y-86979452D01*
X131916000Y-86282115D01*
X131911525Y-86266876D01*
X131910135Y-86265671D01*
X131902452Y-86264000D01*
X131230115Y-86264000D01*
X131214876Y-86268475D01*
X131213671Y-86269865D01*
X131212000Y-86277548D01*
X131212000Y-86305438D01*
X106227400Y-86305438D01*
X106227400Y-83022096D01*
X106992000Y-83022096D01*
X106992337Y-83028611D01*
X107002256Y-83124203D01*
X107005150Y-83137602D01*
X107056588Y-83291783D01*
X107062762Y-83304962D01*
X107148063Y-83442807D01*
X107157099Y-83454208D01*
X107271830Y-83568739D01*
X107283241Y-83577751D01*
X107421245Y-83662818D01*
X107434423Y-83668962D01*
X107588716Y-83720139D01*
X107602081Y-83723005D01*
X107696439Y-83732672D01*
X107702855Y-83733000D01*
X108727885Y-83733000D01*
X108743124Y-83728525D01*
X108744329Y-83727135D01*
X108746000Y-83719452D01*
X108746000Y-83714885D01*
X109254000Y-83714885D01*
X109258475Y-83730124D01*
X109259865Y-83731329D01*
X109267548Y-83733000D01*
X110297096Y-83733000D01*
X110303611Y-83732663D01*
X110399203Y-83722744D01*
X110412602Y-83719850D01*
X110566783Y-83668412D01*
X110579962Y-83662238D01*
X110717807Y-83576937D01*
X110729208Y-83567901D01*
X110819067Y-83477885D01*
X130767000Y-83477885D01*
X130771475Y-83493124D01*
X130772865Y-83494329D01*
X130780548Y-83496000D01*
X131502885Y-83496000D01*
X131518124Y-83491525D01*
X131519329Y-83490135D01*
X131521000Y-83482452D01*
X131521000Y-82535116D01*
X131516525Y-82519877D01*
X131515135Y-82518672D01*
X131507452Y-82517001D01*
X131477905Y-82517001D01*
X131471386Y-82517338D01*
X131375794Y-82527257D01*
X131362400Y-82530149D01*
X131208216Y-82581588D01*
X131195038Y-82587761D01*
X131057193Y-82673063D01*
X131045792Y-82682099D01*
X130931261Y-82796829D01*
X130922249Y-82808240D01*
X130837184Y-82946243D01*
X130831037Y-82959424D01*
X130779862Y-83113710D01*
X130776995Y-83127086D01*
X130767328Y-83221438D01*
X130767000Y-83227855D01*
X130767000Y-83477885D01*
X110819067Y-83477885D01*
X110843739Y-83453170D01*
X110852751Y-83441759D01*
X110937818Y-83303755D01*
X110943962Y-83290577D01*
X110995139Y-83136284D01*
X110998005Y-83122919D01*
X111007672Y-83028561D01*
X111008000Y-83022145D01*
X111008000Y-82447115D01*
X111003525Y-82431876D01*
X111002135Y-82430671D01*
X110994452Y-82429000D01*
X109272115Y-82429000D01*
X109256876Y-82433475D01*
X109255671Y-82434865D01*
X109254000Y-82442548D01*
X109254000Y-83714885D01*
X108746000Y-83714885D01*
X108746000Y-82447115D01*
X108741525Y-82431876D01*
X108740135Y-82430671D01*
X108732452Y-82429000D01*
X107010115Y-82429000D01*
X106994876Y-82433475D01*
X106993671Y-82434865D01*
X106992000Y-82442548D01*
X106992000Y-83022096D01*
X106227400Y-83022096D01*
X106227400Y-81902885D01*
X106992000Y-81902885D01*
X106996475Y-81918124D01*
X106997865Y-81919329D01*
X107005548Y-81921000D01*
X108727885Y-81921000D01*
X108743124Y-81916525D01*
X108744329Y-81915135D01*
X108746000Y-81907452D01*
X108746000Y-81902885D01*
X109254000Y-81902885D01*
X109258475Y-81918124D01*
X109259865Y-81919329D01*
X109267548Y-81921000D01*
X110989885Y-81921000D01*
X111005124Y-81916525D01*
X111006329Y-81915135D01*
X111008000Y-81907452D01*
X111008000Y-81327904D01*
X111007663Y-81321389D01*
X110997744Y-81225797D01*
X110994850Y-81212398D01*
X110943412Y-81058217D01*
X110937238Y-81045038D01*
X110851937Y-80907193D01*
X110842901Y-80895792D01*
X110728170Y-80781261D01*
X110716759Y-80772249D01*
X110578755Y-80687182D01*
X110565577Y-80681038D01*
X110411284Y-80629861D01*
X110397919Y-80626995D01*
X110303561Y-80617328D01*
X110297144Y-80617000D01*
X109272115Y-80617000D01*
X109256876Y-80621475D01*
X109255671Y-80622865D01*
X109254000Y-80630548D01*
X109254000Y-81902885D01*
X108746000Y-81902885D01*
X108746000Y-80635115D01*
X108741525Y-80619876D01*
X108740135Y-80618671D01*
X108732452Y-80617000D01*
X107702904Y-80617000D01*
X107696389Y-80617337D01*
X107600797Y-80627256D01*
X107587398Y-80630150D01*
X107433217Y-80681588D01*
X107420038Y-80687762D01*
X107282193Y-80773063D01*
X107270792Y-80782099D01*
X107156261Y-80896830D01*
X107147249Y-80908241D01*
X107062182Y-81046245D01*
X107056038Y-81059423D01*
X107004861Y-81213716D01*
X107001995Y-81227081D01*
X106992328Y-81321439D01*
X106992000Y-81327856D01*
X106992000Y-81902885D01*
X106227400Y-81902885D01*
X106227400Y-79889294D01*
X110592709Y-79889294D01*
X110598132Y-79948315D01*
X110600743Y-79961351D01*
X110647715Y-80111243D01*
X110653921Y-80124988D01*
X110734824Y-80258574D01*
X110744131Y-80270443D01*
X110854557Y-80380869D01*
X110866426Y-80390176D01*
X111000012Y-80471079D01*
X111013757Y-80477285D01*
X111163644Y-80524256D01*
X111176694Y-80526869D01*
X111240521Y-80532734D01*
X111246309Y-80533000D01*
X111627885Y-80533000D01*
X111643124Y-80528525D01*
X111644329Y-80527135D01*
X111646000Y-80519452D01*
X111646000Y-80514884D01*
X112154000Y-80514884D01*
X112158475Y-80530123D01*
X112159865Y-80531328D01*
X112167548Y-80532999D01*
X112553705Y-80532999D01*
X112559454Y-80532736D01*
X112623315Y-80526868D01*
X112636351Y-80524257D01*
X112786243Y-80477285D01*
X112799988Y-80471079D01*
X112933574Y-80390176D01*
X112945443Y-80380869D01*
X113055869Y-80270443D01*
X113065176Y-80258574D01*
X113146079Y-80124988D01*
X113152285Y-80111243D01*
X113199256Y-79961356D01*
X113201869Y-79948306D01*
X113206913Y-79893414D01*
X113203525Y-79881876D01*
X113202135Y-79880671D01*
X113194452Y-79879000D01*
X112172115Y-79879000D01*
X112156876Y-79883475D01*
X112155671Y-79884865D01*
X112154000Y-79892548D01*
X112154000Y-80514884D01*
X111646000Y-80514884D01*
X111646000Y-79897115D01*
X111641525Y-79881876D01*
X111640135Y-79880671D01*
X111632452Y-79879000D01*
X110610116Y-79879000D01*
X110594877Y-79883475D01*
X110593672Y-79884865D01*
X110592709Y-79889294D01*
X106227400Y-79889294D01*
X106227400Y-76672096D01*
X106992000Y-76672096D01*
X106992337Y-76678611D01*
X107002256Y-76774203D01*
X107005150Y-76787602D01*
X107056588Y-76941783D01*
X107062762Y-76954962D01*
X107148063Y-77092807D01*
X107157099Y-77104208D01*
X107271830Y-77218739D01*
X107283241Y-77227751D01*
X107421245Y-77312818D01*
X107434423Y-77318962D01*
X107588716Y-77370139D01*
X107602081Y-77373005D01*
X107696439Y-77382672D01*
X107702855Y-77383000D01*
X108727885Y-77383000D01*
X108743124Y-77378525D01*
X108744329Y-77377135D01*
X108746000Y-77369452D01*
X108746000Y-77364885D01*
X109254000Y-77364885D01*
X109258475Y-77380124D01*
X109259865Y-77381329D01*
X109267548Y-77383000D01*
X110297096Y-77383000D01*
X110303611Y-77382663D01*
X110399203Y-77372744D01*
X110412602Y-77369850D01*
X110566783Y-77318412D01*
X110579962Y-77312238D01*
X110717807Y-77226937D01*
X110729208Y-77217901D01*
X110843739Y-77103170D01*
X110852751Y-77091759D01*
X110937818Y-76953755D01*
X110943962Y-76940577D01*
X110995139Y-76786284D01*
X110998005Y-76772919D01*
X111007672Y-76678561D01*
X111008000Y-76672145D01*
X111008000Y-76097115D01*
X111003525Y-76081876D01*
X111002135Y-76080671D01*
X110994452Y-76079000D01*
X109272115Y-76079000D01*
X109256876Y-76083475D01*
X109255671Y-76084865D01*
X109254000Y-76092548D01*
X109254000Y-77364885D01*
X108746000Y-77364885D01*
X108746000Y-76097115D01*
X108741525Y-76081876D01*
X108740135Y-76080671D01*
X108732452Y-76079000D01*
X107010115Y-76079000D01*
X106994876Y-76083475D01*
X106993671Y-76084865D01*
X106992000Y-76092548D01*
X106992000Y-76672096D01*
X106227400Y-76672096D01*
X106227400Y-75552885D01*
X106992000Y-75552885D01*
X106996475Y-75568124D01*
X106997865Y-75569329D01*
X107005548Y-75571000D01*
X108727885Y-75571000D01*
X108743124Y-75566525D01*
X108744329Y-75565135D01*
X108746000Y-75557452D01*
X108746000Y-75552885D01*
X109254000Y-75552885D01*
X109258475Y-75568124D01*
X109259865Y-75569329D01*
X109267548Y-75571000D01*
X110989885Y-75571000D01*
X111005124Y-75566525D01*
X111006329Y-75565135D01*
X111008000Y-75557452D01*
X111008000Y-74977904D01*
X111007663Y-74971389D01*
X110997744Y-74875797D01*
X110994850Y-74862398D01*
X110943412Y-74708217D01*
X110937238Y-74695038D01*
X110851937Y-74557193D01*
X110842901Y-74545792D01*
X110728170Y-74431261D01*
X110716759Y-74422249D01*
X110578755Y-74337182D01*
X110565577Y-74331038D01*
X110411284Y-74279861D01*
X110397919Y-74276995D01*
X110303561Y-74267328D01*
X110297144Y-74267000D01*
X109272115Y-74267000D01*
X109256876Y-74271475D01*
X109255671Y-74272865D01*
X109254000Y-74280548D01*
X109254000Y-75552885D01*
X108746000Y-75552885D01*
X108746000Y-74285115D01*
X108741525Y-74269876D01*
X108740135Y-74268671D01*
X108732452Y-74267000D01*
X107702904Y-74267000D01*
X107696389Y-74267337D01*
X107600797Y-74277256D01*
X107587398Y-74280150D01*
X107433217Y-74331588D01*
X107420038Y-74337762D01*
X107282193Y-74423063D01*
X107270792Y-74432099D01*
X107156261Y-74546830D01*
X107147249Y-74558241D01*
X107062182Y-74696245D01*
X107056038Y-74709423D01*
X107004861Y-74863716D01*
X107001995Y-74877081D01*
X106992328Y-74971439D01*
X106992000Y-74977856D01*
X106992000Y-75552885D01*
X106227400Y-75552885D01*
X106227400Y-70353400D01*
X106247402Y-70285279D01*
X106301058Y-70238786D01*
X106353400Y-70227400D01*
X165646600Y-70227400D01*
X165714721Y-70247402D01*
G37*
%TD.AperFunction*%
%TA.AperFunction,Conductor*%
G36*
X138083491Y-76810902D02*
G01*
X138104465Y-76827805D01*
X139426195Y-78149535D01*
X139460221Y-78211847D01*
X139463100Y-78238630D01*
X139463100Y-80387370D01*
X139443098Y-80455491D01*
X139426195Y-80476465D01*
X138441833Y-81460827D01*
X138433163Y-81468717D01*
X138426518Y-81472934D01*
X138421093Y-81478711D01*
X138378424Y-81524149D01*
X138375669Y-81526991D01*
X138355286Y-81547374D01*
X138352615Y-81550817D01*
X138344915Y-81559832D01*
X138319020Y-81587407D01*
X138319017Y-81587411D01*
X138313595Y-81593185D01*
X138309777Y-81600129D01*
X138309776Y-81600131D01*
X138303393Y-81611742D01*
X138292539Y-81628266D01*
X138279555Y-81645005D01*
X138261591Y-81686518D01*
X138261387Y-81686989D01*
X138256165Y-81697649D01*
X138234124Y-81737741D01*
X138232152Y-81745423D01*
X138228857Y-81758256D01*
X138222455Y-81776956D01*
X138214041Y-81796399D01*
X138212801Y-81804229D01*
X138206884Y-81841585D01*
X138204477Y-81853206D01*
X138195072Y-81889839D01*
X138193100Y-81897520D01*
X138193100Y-81918701D01*
X138191549Y-81938411D01*
X138188236Y-81959329D01*
X138188982Y-81967221D01*
X138192541Y-82004871D01*
X138193100Y-82016729D01*
X138193100Y-82332803D01*
X138173098Y-82400924D01*
X138117141Y-82448440D01*
X138116251Y-82448825D01*
X138108641Y-82451036D01*
X138101818Y-82455071D01*
X138101816Y-82455072D01*
X138090414Y-82461815D01*
X138072663Y-82470512D01*
X138052963Y-82478312D01*
X138023882Y-82499441D01*
X138015945Y-82505207D01*
X138006028Y-82511721D01*
X137966652Y-82535008D01*
X137951677Y-82549983D01*
X137936644Y-82562823D01*
X137919507Y-82575274D01*
X137914457Y-82581378D01*
X137914452Y-82581383D01*
X137890339Y-82610531D01*
X137882349Y-82619311D01*
X137676465Y-82825195D01*
X137614153Y-82859221D01*
X137587370Y-82862100D01*
X137403292Y-82862100D01*
X137346352Y-82871118D01*
X137318736Y-82875492D01*
X137318734Y-82875493D01*
X137308945Y-82877043D01*
X137195229Y-82934984D01*
X137104984Y-83025229D01*
X137047043Y-83138945D01*
X137045492Y-83148736D01*
X137045492Y-83148737D01*
X137039299Y-83187840D01*
X137008887Y-83251993D01*
X136948619Y-83289520D01*
X136877630Y-83288507D01*
X136818458Y-83249275D01*
X136789523Y-83181134D01*
X136782743Y-83115794D01*
X136779851Y-83102400D01*
X136728412Y-82948216D01*
X136722239Y-82935038D01*
X136636937Y-82797193D01*
X136627901Y-82785792D01*
X136513171Y-82671261D01*
X136501760Y-82662249D01*
X136363757Y-82577184D01*
X136350576Y-82571037D01*
X136196290Y-82519862D01*
X136182914Y-82516995D01*
X136088562Y-82507328D01*
X136082145Y-82507000D01*
X136057115Y-82507000D01*
X136041876Y-82511475D01*
X136040671Y-82512865D01*
X136039000Y-82520548D01*
X136039000Y-83868000D01*
X136018998Y-83936121D01*
X135965342Y-83982614D01*
X135913000Y-83994000D01*
X134795116Y-83994000D01*
X134779877Y-83998475D01*
X134778672Y-83999865D01*
X134777001Y-84007548D01*
X134777001Y-84262095D01*
X134777338Y-84268614D01*
X134787257Y-84364206D01*
X134790149Y-84377600D01*
X134841588Y-84531784D01*
X134847761Y-84544962D01*
X134933063Y-84682807D01*
X134942099Y-84694208D01*
X135056829Y-84808739D01*
X135068240Y-84817751D01*
X135206243Y-84902816D01*
X135219424Y-84908963D01*
X135373710Y-84960138D01*
X135387087Y-84963005D01*
X135412003Y-84965558D01*
X135477731Y-84992398D01*
X135518513Y-85050513D01*
X135521403Y-85121451D01*
X135488335Y-85179919D01*
X135381018Y-85287424D01*
X135372002Y-85298840D01*
X135289996Y-85431880D01*
X135283849Y-85445061D01*
X135234509Y-85593814D01*
X135231642Y-85607190D01*
X135222328Y-85698097D01*
X135222000Y-85704514D01*
X135222000Y-85727885D01*
X135226475Y-85743124D01*
X135227865Y-85744329D01*
X135235548Y-85746000D01*
X136308000Y-85746000D01*
X136376121Y-85766002D01*
X136422614Y-85819658D01*
X136434000Y-85872000D01*
X136434000Y-86964885D01*
X136448652Y-87014785D01*
X136449591Y-87016247D01*
X136449573Y-87087244D01*
X136417781Y-87140809D01*
X136394516Y-87164074D01*
X136384876Y-87176501D01*
X136309604Y-87303780D01*
X136303357Y-87318216D01*
X136261688Y-87461641D01*
X136260232Y-87469609D01*
X136263052Y-87483031D01*
X136274513Y-87486000D01*
X136772885Y-87486000D01*
X136788124Y-87481525D01*
X136789329Y-87480135D01*
X136791000Y-87472452D01*
X136791000Y-86943363D01*
X136811002Y-86875242D01*
X136850700Y-86836217D01*
X136857175Y-86832210D01*
X136868574Y-86823176D01*
X136978986Y-86712571D01*
X136987998Y-86701160D01*
X137069761Y-86568515D01*
X137122533Y-86521022D01*
X137192605Y-86509598D01*
X137257728Y-86537872D01*
X137266038Y-86545457D01*
X137275147Y-86554550D01*
X137282518Y-86561908D01*
X137291874Y-86566481D01*
X137291875Y-86566482D01*
X137302180Y-86571519D01*
X137395546Y-86617157D01*
X137428918Y-86622026D01*
X137464659Y-86627240D01*
X137464663Y-86627240D01*
X137469185Y-86627900D01*
X137521100Y-86627900D01*
X137589221Y-86647902D01*
X137635714Y-86701558D01*
X137647100Y-86753900D01*
X137647100Y-86869545D01*
X137627098Y-86937666D01*
X137573442Y-86984159D01*
X137503168Y-86994263D01*
X137456963Y-86978000D01*
X137451222Y-86974605D01*
X137436784Y-86968357D01*
X137316395Y-86933381D01*
X137302295Y-86933421D01*
X137299000Y-86940691D01*
X137299000Y-88533558D01*
X137311915Y-88577543D01*
X137319225Y-88588919D01*
X137319219Y-88659916D01*
X137287421Y-88713503D01*
X137111585Y-88889339D01*
X137096316Y-88901672D01*
X137092962Y-88904724D01*
X137084210Y-88910375D01*
X137065192Y-88934499D01*
X137061666Y-88938466D01*
X137061767Y-88938552D01*
X137058409Y-88942515D01*
X137054731Y-88946193D01*
X137044416Y-88960627D01*
X137040865Y-88965357D01*
X137011475Y-89002638D01*
X137008653Y-89010673D01*
X137003704Y-89017599D01*
X137000722Y-89027570D01*
X137000720Y-89027574D01*
X136990103Y-89063076D01*
X136988279Y-89068692D01*
X136972548Y-89113487D01*
X136972100Y-89118659D01*
X136972100Y-89121363D01*
X136972004Y-89123595D01*
X136971854Y-89124095D01*
X136971816Y-89124093D01*
X136971806Y-89124257D01*
X136970041Y-89130158D01*
X136970450Y-89140563D01*
X136971340Y-89163225D01*
X136954027Y-89232078D01*
X136902238Y-89280642D01*
X136832415Y-89293496D01*
X136766726Y-89266561D01*
X136756342Y-89257266D01*
X136035661Y-88536585D01*
X136023328Y-88521316D01*
X136020276Y-88517962D01*
X136014625Y-88509210D01*
X135990501Y-88490192D01*
X135986534Y-88486666D01*
X135986448Y-88486767D01*
X135982485Y-88483409D01*
X135978807Y-88479731D01*
X135964373Y-88469416D01*
X135959643Y-88465865D01*
X135930541Y-88442923D01*
X135930542Y-88442923D01*
X135922362Y-88436475D01*
X135914327Y-88433653D01*
X135907401Y-88428704D01*
X135897430Y-88425722D01*
X135897426Y-88425720D01*
X135861924Y-88415103D01*
X135856308Y-88413279D01*
X135811513Y-88397548D01*
X135806341Y-88397100D01*
X135803637Y-88397100D01*
X135801405Y-88397004D01*
X135800905Y-88396854D01*
X135800907Y-88396816D01*
X135800743Y-88396806D01*
X135794842Y-88395041D01*
X135745446Y-88396982D01*
X135744912Y-88397003D01*
X135739965Y-88397100D01*
X135198366Y-88397100D01*
X135130245Y-88377098D01*
X135109271Y-88360195D01*
X134757851Y-88008775D01*
X136259937Y-88008775D01*
X136261688Y-88018359D01*
X136303357Y-88161784D01*
X136309604Y-88176220D01*
X136384876Y-88303499D01*
X136394516Y-88315926D01*
X136499074Y-88420484D01*
X136511501Y-88430124D01*
X136638780Y-88505396D01*
X136653216Y-88511643D01*
X136773605Y-88546619D01*
X136787705Y-88546579D01*
X136791000Y-88539309D01*
X136791000Y-88012115D01*
X136786525Y-87996876D01*
X136785135Y-87995671D01*
X136777452Y-87994000D01*
X136276576Y-87994000D01*
X136261781Y-87998344D01*
X136259937Y-88008775D01*
X134757851Y-88008775D01*
X134464804Y-87715728D01*
X134430778Y-87653416D01*
X134427899Y-87626633D01*
X134427899Y-87536480D01*
X134424862Y-87510945D01*
X134380568Y-87411226D01*
X134372335Y-87403008D01*
X134370060Y-87399697D01*
X134347900Y-87328330D01*
X134347900Y-86295438D01*
X135222000Y-86295438D01*
X135222337Y-86301953D01*
X135231894Y-86394057D01*
X135234788Y-86407456D01*
X135284381Y-86556107D01*
X135290555Y-86569286D01*
X135372788Y-86702173D01*
X135381824Y-86713574D01*
X135492429Y-86823986D01*
X135503840Y-86832998D01*
X135636880Y-86915004D01*
X135650061Y-86921151D01*
X135798814Y-86970491D01*
X135812190Y-86973358D01*
X135903097Y-86982672D01*
X135908126Y-86982929D01*
X135923124Y-86978525D01*
X135924329Y-86977135D01*
X135926000Y-86969452D01*
X135926000Y-86272115D01*
X135921525Y-86256876D01*
X135920135Y-86255671D01*
X135912452Y-86254000D01*
X135240115Y-86254000D01*
X135224876Y-86258475D01*
X135223671Y-86259865D01*
X135222000Y-86267548D01*
X135222000Y-86295438D01*
X134347900Y-86295438D01*
X134347900Y-84121083D01*
X134349976Y-84101575D01*
X134350190Y-84097035D01*
X134352382Y-84086854D01*
X134348773Y-84056358D01*
X134348460Y-84051049D01*
X134348328Y-84051060D01*
X134347900Y-84045883D01*
X134347900Y-84040682D01*
X134344987Y-84023182D01*
X134344150Y-84017300D01*
X134339798Y-83980523D01*
X134339798Y-83980522D01*
X134338574Y-83970182D01*
X134334888Y-83962505D01*
X134333490Y-83954109D01*
X134332177Y-83951675D01*
X134327900Y-83921635D01*
X134327900Y-83467885D01*
X134777000Y-83467885D01*
X134781475Y-83483124D01*
X134782865Y-83484329D01*
X134790548Y-83486000D01*
X135512885Y-83486000D01*
X135528124Y-83481525D01*
X135529329Y-83480135D01*
X135531000Y-83472452D01*
X135531000Y-82525116D01*
X135526525Y-82509877D01*
X135525135Y-82508672D01*
X135517452Y-82507001D01*
X135487905Y-82507001D01*
X135481386Y-82507338D01*
X135385794Y-82517257D01*
X135372400Y-82520149D01*
X135218216Y-82571588D01*
X135205038Y-82577761D01*
X135067193Y-82663063D01*
X135055792Y-82672099D01*
X134941261Y-82786829D01*
X134932249Y-82798240D01*
X134847184Y-82936243D01*
X134841037Y-82949424D01*
X134789862Y-83103710D01*
X134786995Y-83117086D01*
X134777328Y-83211438D01*
X134777000Y-83217855D01*
X134777000Y-83467885D01*
X134327900Y-83467885D01*
X134327900Y-79756312D01*
X134328452Y-79744610D01*
X134330168Y-79736931D01*
X134327962Y-79666728D01*
X134327900Y-79662771D01*
X134327900Y-79633925D01*
X134327355Y-79629612D01*
X134326423Y-79617773D01*
X134326173Y-79609793D01*
X134324987Y-79572052D01*
X134319077Y-79551708D01*
X134315068Y-79532350D01*
X134313407Y-79519202D01*
X134312414Y-79511340D01*
X134307924Y-79500000D01*
X135144551Y-79500000D01*
X135164317Y-79751148D01*
X135165471Y-79755955D01*
X135165472Y-79755961D01*
X135195702Y-79881876D01*
X135223127Y-79996111D01*
X135225020Y-80000682D01*
X135225021Y-80000684D01*
X135298149Y-80177230D01*
X135319534Y-80228859D01*
X135451164Y-80443659D01*
X135454376Y-80447419D01*
X135454379Y-80447424D01*
X135527468Y-80533000D01*
X135614776Y-80635224D01*
X135618538Y-80638437D01*
X135802576Y-80795621D01*
X135802581Y-80795624D01*
X135806341Y-80798836D01*
X136021141Y-80930466D01*
X136025711Y-80932359D01*
X136025715Y-80932361D01*
X136249316Y-81024979D01*
X136253889Y-81026873D01*
X136329373Y-81044995D01*
X136494039Y-81084528D01*
X136494045Y-81084529D01*
X136498852Y-81085683D01*
X136587149Y-81092632D01*
X136684661Y-81100307D01*
X136684670Y-81100307D01*
X136687118Y-81100500D01*
X136812882Y-81100500D01*
X136815330Y-81100307D01*
X136815339Y-81100307D01*
X136912851Y-81092632D01*
X137001148Y-81085683D01*
X137005955Y-81084529D01*
X137005961Y-81084528D01*
X137170627Y-81044995D01*
X137246111Y-81026873D01*
X137250684Y-81024979D01*
X137474285Y-80932361D01*
X137474289Y-80932359D01*
X137478859Y-80930466D01*
X137693659Y-80798836D01*
X137697419Y-80795624D01*
X137697424Y-80795621D01*
X137881462Y-80638437D01*
X137885224Y-80635224D01*
X137972532Y-80533000D01*
X138045621Y-80447424D01*
X138045624Y-80447419D01*
X138048836Y-80443659D01*
X138180466Y-80228859D01*
X138201852Y-80177230D01*
X138274979Y-80000684D01*
X138274980Y-80000682D01*
X138276873Y-79996111D01*
X138304298Y-79881876D01*
X138334528Y-79755961D01*
X138334529Y-79755955D01*
X138335683Y-79751148D01*
X138355449Y-79500000D01*
X138335683Y-79248852D01*
X138333953Y-79241643D01*
X138293249Y-79072100D01*
X138276873Y-79003889D01*
X138269826Y-78986876D01*
X138182361Y-78775715D01*
X138182359Y-78775711D01*
X138180466Y-78771141D01*
X138048836Y-78556341D01*
X138045624Y-78552581D01*
X138045621Y-78552576D01*
X137888437Y-78368538D01*
X137885224Y-78364776D01*
X137848019Y-78333000D01*
X137697424Y-78204379D01*
X137697419Y-78204376D01*
X137693659Y-78201164D01*
X137478859Y-78069534D01*
X137474289Y-78067641D01*
X137474285Y-78067639D01*
X137250684Y-77975021D01*
X137250682Y-77975020D01*
X137246111Y-77973127D01*
X137161711Y-77952865D01*
X137005961Y-77915472D01*
X137005955Y-77915471D01*
X137001148Y-77914317D01*
X136912851Y-77907368D01*
X136815339Y-77899693D01*
X136815330Y-77899693D01*
X136812882Y-77899500D01*
X136687118Y-77899500D01*
X136684670Y-77899693D01*
X136684661Y-77899693D01*
X136587149Y-77907368D01*
X136498852Y-77914317D01*
X136494045Y-77915471D01*
X136494039Y-77915472D01*
X136338289Y-77952865D01*
X136253889Y-77973127D01*
X136249318Y-77975020D01*
X136249316Y-77975021D01*
X136025715Y-78067639D01*
X136025711Y-78067641D01*
X136021141Y-78069534D01*
X135806341Y-78201164D01*
X135802581Y-78204376D01*
X135802576Y-78204379D01*
X135651981Y-78333000D01*
X135614776Y-78364776D01*
X135611563Y-78368538D01*
X135454379Y-78552576D01*
X135454376Y-78552581D01*
X135451164Y-78556341D01*
X135319534Y-78771141D01*
X135317641Y-78775711D01*
X135317639Y-78775715D01*
X135230174Y-78986876D01*
X135223127Y-79003889D01*
X135206751Y-79072100D01*
X135166048Y-79241643D01*
X135164317Y-79248852D01*
X135144551Y-79500000D01*
X134307924Y-79500000D01*
X134295576Y-79468811D01*
X134291731Y-79457582D01*
X134281175Y-79421248D01*
X134278965Y-79413641D01*
X134274934Y-79406825D01*
X134274930Y-79406816D01*
X134268182Y-79395407D01*
X134259482Y-79377648D01*
X134254609Y-79365339D01*
X134254606Y-79365334D01*
X134251688Y-79357963D01*
X134224798Y-79320952D01*
X134218282Y-79311033D01*
X134212759Y-79301694D01*
X134194992Y-79271652D01*
X134180017Y-79256677D01*
X134167176Y-79241643D01*
X134159385Y-79230920D01*
X134154726Y-79224507D01*
X134148622Y-79219457D01*
X134148617Y-79219452D01*
X134119469Y-79195339D01*
X134110689Y-79187349D01*
X133345435Y-78422095D01*
X133311409Y-78359783D01*
X133316474Y-78288968D01*
X133345435Y-78243905D01*
X134761535Y-76827805D01*
X134823847Y-76793779D01*
X134850630Y-76790900D01*
X138015370Y-76790900D01*
X138083491Y-76810902D01*
G37*
%TD.AperFunction*%
%TD*%
M02*
