M48
; DRILL file {KiCad (6.0.1)} date Tue Apr 26 10:15:03 2022
; FORMAT={2:4/ absolute / inch / keep zeros}
; #@! TF.CreationDate,2022-04-26T10:15:03+02:00
; #@! TF.GenerationSoftware,Kicad,Pcbnew,(6.0.1)
; #@! TF.FileFunction,MixedPlating,1,2
FMAT,2
INCH
; #@! TA.AperFunction,Plated,PTH,ViaDrill
T1C0.0120
; #@! TA.AperFunction,Plated,PTH,ComponentDrill
T2C0.1063
; #@! TA.AperFunction,NonPlated,NPTH,ComponentDrill
T3C0.0559
%
G90
G05
T1
X000394Y023031
X000394Y022244
X000394Y021457
X000394Y020669
X000394Y019882
X000394Y019094
X000394Y018307
X000394Y017520
X000394Y016732
X000394Y015945
X000394Y015157
X000394Y014370
X000394Y013583
X000394Y012795
X000394Y012008
X000394Y011220
X000394Y010433
X000394Y009646
X000394Y008858
X000394Y008071
X000394Y007283
X000394Y006496
X000394Y005709
X000394Y004921
X000394Y004134
X000394Y003346
X000394Y002559
X000984Y021063
X000984Y006496
X001083Y017126
X001083Y004134
X001181Y019291
X001181Y005020
X001378Y021555
X001378Y016240
X001476Y022638
X001476Y003150
X001673Y020276
X001772Y018110
X001838Y014037
X001838Y013537
X001838Y013037
X001838Y012537
X001838Y012037
X001838Y011537
X001838Y011037
X001838Y010537
X001870Y006102
X001969Y004035
X002165Y002362
X002188Y020337
X002362Y025197
X002362Y000394
X002461Y005217
X002488Y021037
X002559Y023228
X002738Y018087
X002756Y022441
X002756Y018504
X002756Y009154
X002854Y008465
X002854Y001083
X002953Y006791
X002953Y003051
X003051Y007874
X003150Y025197
X003150Y004626
X003150Y000394
X003248Y016240
X003388Y017437
X003538Y019591
X003538Y011037
X003642Y024508
X003642Y001772
X003740Y015748
X003937Y025197
X003937Y016535
X003937Y000394
X003938Y009437
X003938Y008537
X003938Y007687
X003938Y006387
X003938Y005637
X004035Y023327
X004088Y015047
X004088Y014547
X004088Y013537
X004088Y013047
X004088Y012537
X004088Y012037
X004088Y011537
X004088Y011037
X004134Y000984
X004232Y002953
X004331Y004724
X004388Y018087
X004626Y018799
X004626Y002461
X004638Y004037
X004724Y025197
X004724Y017028
X004724Y000394
X004738Y015047
X004738Y014547
X004738Y013537
X004738Y013037
X004738Y012537
X004738Y012037
X004823Y019882
X004823Y015945
X004823Y001870
X005118Y022343
X005118Y008268
X005118Y006791
X005217Y011811
X005315Y024016
X005315Y008858
X005388Y020387
X005413Y014272
X005413Y007677
X005512Y025197
X005512Y013780
X005512Y010335
X005512Y000394
X005610Y011220
X005709Y012992
X005709Y001378
X005807Y018898
X005807Y015748
X005906Y013780
X005906Y010728
X006004Y018012
X006004Y016535
X006004Y008957
X006004Y008268
X006004Y002559
X006102Y021752
X006102Y006791
X006201Y019587
X006201Y015256
X006299Y025197
X006299Y000394
X006398Y011220
X006594Y015551
X006594Y010138
X006594Y008760
X006594Y007776
X006594Y006299
X006654Y003675
X006693Y022441
X006693Y018504
X006693Y010630
X006693Y002756
X006693Y001969
X006693Y001575
X006693Y001181
X006693Y000787
X006693Y000394
X006791Y017028
X006791Y016437
X006791Y007087
X006890Y025197
X006890Y024606
X006890Y024016
X006890Y023425
X006988Y002264
X007087Y003150
X007106Y003675
X007205Y015984
X007205Y015591
X007205Y015197
X007205Y014803
X007205Y014213
X007238Y012987
X007238Y012587
X007238Y012187
X007244Y013465
X007244Y011693
X007244Y011260
X007244Y010827
X007244Y010315
X007244Y008976
X007244Y008583
X007244Y008189
X007244Y007795
X007244Y007402
X007244Y006909
X007244Y006516
X007362Y005026
X007363Y005416
X007363Y004636
X007402Y023031
X007402Y022638
X007402Y022244
X007402Y021850
X007402Y021457
X007402Y021063
X007402Y019882
X007402Y019488
X007402Y019094
X007402Y018701
X007402Y018307
X007402Y017913
X007441Y016378
X007480Y017520
X007480Y003504
X007480Y003091
X007480Y002697
X007480Y002303
X007628Y010945
X007638Y013465
X007638Y007480
X007717Y017165
X007753Y005026
X007756Y005413
X007756Y004626
X007795Y016614
X007874Y018543
X008031Y015591
X008031Y015197
X008031Y014803
X008031Y013465
X008031Y011693
X008031Y011260
X008031Y010827
X008031Y010315
X008031Y009941
X008031Y009547
X008031Y008976
X008031Y008583
X008031Y008189
X008031Y007795
X008031Y007402
X008031Y006909
X008031Y006516
X008031Y006122
X008038Y012987
X008038Y012587
X008038Y012187
X008071Y016929
X008071Y014213
X008130Y005020
X008130Y004626
X008143Y005416
X008265Y015866
X008268Y003504
X008268Y003091
X008268Y002697
X008268Y002303
X008346Y023031
X008346Y022638
X008346Y022244
X008346Y021850
X008346Y021457
X008346Y021063
X008346Y020669
X008346Y020276
X008346Y019882
X008346Y019488
X008346Y019094
X008346Y018701
X008346Y018307
X008346Y017913
X008346Y016693
X008563Y008169
X008661Y022441
X008661Y018504
X008661Y017717
X008661Y015866
X008661Y015453
X008661Y010630
X008661Y006693
X008661Y002756
X008701Y016890
X008760Y009646
X008760Y007480
X008760Y003346
X008760Y002264
X008858Y023425
X008858Y014173
X008858Y013484
X008905Y025197
X008905Y024606
X008937Y024016
X008957Y020866
X008957Y014961
X008957Y011417
X009055Y017717
X009055Y016693
X009055Y015866
X009055Y001969
X009055Y001575
X009055Y001181
X009055Y000787
X009055Y000394
X009154Y008465
X009252Y021949
X009252Y019488
X009252Y006693
X009338Y009787
X009350Y002854
X009449Y025197
X009449Y017717
X009449Y016811
X009449Y015866
X009449Y000394
X009547Y018799
X009646Y024508
X009646Y022835
X009646Y021654
X009646Y018209
X009646Y014272
X009646Y007480
X009646Y001181
X009744Y020669
X009764Y015984
X009843Y017717
X009843Y016811
X009921Y016299
X009941Y014862
X009941Y013583
X009988Y008487
X010039Y019980
X010039Y006988
X010138Y017323
X010138Y002165
X010236Y025197
X010236Y000394
X010288Y014528
X010335Y023425
X010335Y018799
X010335Y015453
X010433Y016634
X010531Y022244
X010531Y007087
X010538Y011537
X010609Y017785
X010630Y001673
X010728Y021555
X010728Y016142
X010827Y020669
X010827Y019587
X010885Y018198
X010885Y017352
X010925Y024213
X010938Y005937
X010938Y004687
X010938Y004037
X010984Y009252
X011024Y025197
X011024Y018799
X011024Y015551
X011024Y013583
X011024Y011516
X011024Y000394
X011122Y023228
X011122Y002854
X011220Y016732
X011220Y001181
X011288Y012437
X011318Y018198
X011318Y017352
X011319Y016240
X011417Y024409
X011417Y022343
X011516Y015650
X011516Y015157
X011516Y010433
X011516Y010039
X011516Y002165
X011545Y011053
X011614Y020965
X011713Y014173
X011713Y004921
X011713Y003740
X011751Y018198
X011751Y017352
X011811Y025197
X011811Y013484
X011811Y010630
X011811Y000394
X011909Y019291
X011909Y010236
X011929Y012437
X011929Y006187
X011938Y008504
X012106Y024213
X012106Y023130
X012106Y020177
X012106Y010925
X012106Y000984
X012165Y016220
X012165Y015748
X012165Y015276
X012165Y014921
X012184Y018198
X012184Y017137
X012184Y016704
X012303Y013484
X012303Y005413
X012303Y002067
X012338Y012437
X012402Y010433
X012500Y010039
X012500Y004232
X012520Y018080
X012598Y025197
X012598Y022441
X012598Y018504
X012598Y002756
X012598Y000394
X012617Y016487
X012697Y021555
X012697Y019193
X012795Y023917
X012795Y017844
X012795Y010433
X012894Y011220
X012953Y006187
X012988Y012387
X013031Y017569
X013031Y017137
X013031Y016704
X013031Y016220
X013031Y015748
X013091Y023228
X013091Y014272
X013091Y004921
X013091Y001575
X013189Y020276
X013189Y014862
X013287Y017815
X013386Y025197
X013386Y000394
X013484Y004035
X013583Y016437
X013583Y008858
X013583Y008071
X013583Y003051
X013681Y018504
X013780Y023130
X013838Y014787
X013858Y011969
X013938Y010544
X013938Y010930
X013976Y017224
X013976Y010039
X014075Y021654
X014173Y019587
X014173Y005020
X014238Y007237
X014272Y020472
X014272Y018701
X014370Y017913
X014370Y015945
X014438Y010337
X014438Y009749
X014469Y002756
X014567Y006102
X014665Y014961
X014665Y003937
X014764Y011417
X014764Y010728
X014764Y006988
X015354Y023031
X015354Y022244
X015354Y021457
X015354Y020669
X015354Y019882
X015354Y019094
X015354Y018307
X015354Y017520
X015354Y016732
X015354Y015945
X015354Y015157
X015354Y014370
X015354Y013583
X015354Y012795
X015354Y012008
X015354Y011220
X015354Y010433
X015354Y009646
X015354Y008858
X015354Y008071
X015354Y007283
X015354Y006496
X015354Y005709
X015354Y004921
X015354Y004134
X015354Y003346
X015354Y002559
T2
X001181Y024409
X001181Y001181
X014567Y024409
X014567Y001181
T3
X002953Y015671
X002953Y009919
T0
M30
