%TF.GenerationSoftware,KiCad,Pcbnew,(6.0.1)*%
%TF.CreationDate,2022-04-26T10:15:20+02:00*%
%TF.ProjectId,XCOMMS_RF,58434f4d-4d53-45f5-9246-2e6b69636164,rev?*%
%TF.SameCoordinates,PX7ed6b40PY82a7440*%
%TF.FileFunction,Legend,Top*%
%TF.FilePolarity,Positive*%
%FSLAX46Y46*%
G04 Gerber Fmt 4.6, Leading zero omitted, Abs format (unit mm)*
G04 Created by KiCad (PCBNEW (6.0.1)) date 2022-04-26 10:15:20*
%MOMM*%
%LPD*%
G01*
G04 APERTURE LIST*
%ADD10C,0.000000*%
%ADD11C,0.127000*%
%ADD12C,0.200000*%
%ADD13C,0.120000*%
%ADD14C,0.250000*%
%ADD15C,0.325000*%
%ADD16C,0.254000*%
%ADD17C,0.100000*%
G04 APERTURE END LIST*
D10*
G36*
X16585653Y11609501D02*
G01*
X16331653Y11609501D01*
X16331653Y11990501D01*
X16585653Y11990501D01*
X16585653Y11609501D01*
G37*
G36*
X23053052Y10949101D02*
G01*
X22799052Y10949101D01*
X22799052Y11330101D01*
X23053052Y11330101D01*
X23053052Y10949101D01*
G37*
D11*
%TO.C,L3*%
X18486809Y49793334D02*
X18486809Y49551429D01*
X17978809Y49551429D01*
X17978809Y49914286D02*
X17978809Y50228762D01*
X18172333Y50059429D01*
X18172333Y50132000D01*
X18196523Y50180381D01*
X18220714Y50204572D01*
X18269095Y50228762D01*
X18390047Y50228762D01*
X18438428Y50204572D01*
X18462619Y50180381D01*
X18486809Y50132000D01*
X18486809Y49986858D01*
X18462619Y49938477D01*
X18438428Y49914286D01*
%TO.C,C35*%
X29523428Y10943429D02*
X29547619Y10919239D01*
X29571809Y10846667D01*
X29571809Y10798286D01*
X29547619Y10725715D01*
X29499238Y10677334D01*
X29450857Y10653143D01*
X29354095Y10628953D01*
X29281523Y10628953D01*
X29184761Y10653143D01*
X29136380Y10677334D01*
X29088000Y10725715D01*
X29063809Y10798286D01*
X29063809Y10846667D01*
X29088000Y10919239D01*
X29112190Y10943429D01*
X29063809Y11112762D02*
X29063809Y11427239D01*
X29257333Y11257905D01*
X29257333Y11330477D01*
X29281523Y11378858D01*
X29305714Y11403048D01*
X29354095Y11427239D01*
X29475047Y11427239D01*
X29523428Y11403048D01*
X29547619Y11378858D01*
X29571809Y11330477D01*
X29571809Y11185334D01*
X29547619Y11136953D01*
X29523428Y11112762D01*
X29063809Y11886858D02*
X29063809Y11644953D01*
X29305714Y11620762D01*
X29281523Y11644953D01*
X29257333Y11693334D01*
X29257333Y11814286D01*
X29281523Y11862667D01*
X29305714Y11886858D01*
X29354095Y11911048D01*
X29475047Y11911048D01*
X29523428Y11886858D01*
X29547619Y11862667D01*
X29571809Y11814286D01*
X29571809Y11693334D01*
X29547619Y11644953D01*
X29523428Y11620762D01*
%TO.C,C12*%
X9981428Y9292429D02*
X10005619Y9268239D01*
X10029809Y9195667D01*
X10029809Y9147286D01*
X10005619Y9074715D01*
X9957238Y9026334D01*
X9908857Y9002143D01*
X9812095Y8977953D01*
X9739523Y8977953D01*
X9642761Y9002143D01*
X9594380Y9026334D01*
X9546000Y9074715D01*
X9521809Y9147286D01*
X9521809Y9195667D01*
X9546000Y9268239D01*
X9570190Y9292429D01*
X10029809Y9776239D02*
X10029809Y9485953D01*
X10029809Y9631096D02*
X9521809Y9631096D01*
X9594380Y9582715D01*
X9642761Y9534334D01*
X9666952Y9485953D01*
X9570190Y9969762D02*
X9546000Y9993953D01*
X9521809Y10042334D01*
X9521809Y10163286D01*
X9546000Y10211667D01*
X9570190Y10235858D01*
X9618571Y10260048D01*
X9666952Y10260048D01*
X9739523Y10235858D01*
X10029809Y9945572D01*
X10029809Y10260048D01*
%TO.C,C25*%
X9929428Y15573429D02*
X9953619Y15549239D01*
X9977809Y15476667D01*
X9977809Y15428286D01*
X9953619Y15355715D01*
X9905238Y15307334D01*
X9856857Y15283143D01*
X9760095Y15258953D01*
X9687523Y15258953D01*
X9590761Y15283143D01*
X9542380Y15307334D01*
X9494000Y15355715D01*
X9469809Y15428286D01*
X9469809Y15476667D01*
X9494000Y15549239D01*
X9518190Y15573429D01*
X9518190Y15766953D02*
X9494000Y15791143D01*
X9469809Y15839524D01*
X9469809Y15960477D01*
X9494000Y16008858D01*
X9518190Y16033048D01*
X9566571Y16057239D01*
X9614952Y16057239D01*
X9687523Y16033048D01*
X9977809Y15742762D01*
X9977809Y16057239D01*
X9469809Y16516858D02*
X9469809Y16274953D01*
X9711714Y16250762D01*
X9687523Y16274953D01*
X9663333Y16323334D01*
X9663333Y16444286D01*
X9687523Y16492667D01*
X9711714Y16516858D01*
X9760095Y16541048D01*
X9881047Y16541048D01*
X9929428Y16516858D01*
X9953619Y16492667D01*
X9977809Y16444286D01*
X9977809Y16323334D01*
X9953619Y16274953D01*
X9929428Y16250762D01*
%TO.C,R4*%
X37479809Y37251534D02*
X37237904Y37082200D01*
X37479809Y36961248D02*
X36971809Y36961248D01*
X36971809Y37154772D01*
X36996000Y37203153D01*
X37020190Y37227343D01*
X37068571Y37251534D01*
X37141142Y37251534D01*
X37189523Y37227343D01*
X37213714Y37203153D01*
X37237904Y37154772D01*
X37237904Y36961248D01*
X37141142Y37686962D02*
X37479809Y37686962D01*
X36947619Y37566010D02*
X37310476Y37445058D01*
X37310476Y37759534D01*
%TO.C,U2*%
X17012952Y29278191D02*
X17012952Y28866953D01*
X17037142Y28818572D01*
X17061333Y28794381D01*
X17109714Y28770191D01*
X17206476Y28770191D01*
X17254857Y28794381D01*
X17279047Y28818572D01*
X17303238Y28866953D01*
X17303238Y29278191D01*
X17520952Y29229810D02*
X17545142Y29254000D01*
X17593523Y29278191D01*
X17714476Y29278191D01*
X17762857Y29254000D01*
X17787047Y29229810D01*
X17811238Y29181429D01*
X17811238Y29133048D01*
X17787047Y29060477D01*
X17496761Y28770191D01*
X17811238Y28770191D01*
%TO.C,C2*%
X18581428Y30865334D02*
X18605619Y30841143D01*
X18629809Y30768572D01*
X18629809Y30720191D01*
X18605619Y30647620D01*
X18557238Y30599239D01*
X18508857Y30575048D01*
X18412095Y30550858D01*
X18339523Y30550858D01*
X18242761Y30575048D01*
X18194380Y30599239D01*
X18146000Y30647620D01*
X18121809Y30720191D01*
X18121809Y30768572D01*
X18146000Y30841143D01*
X18170190Y30865334D01*
X18170190Y31058858D02*
X18146000Y31083048D01*
X18121809Y31131429D01*
X18121809Y31252381D01*
X18146000Y31300762D01*
X18170190Y31324953D01*
X18218571Y31349143D01*
X18266952Y31349143D01*
X18339523Y31324953D01*
X18629809Y31034667D01*
X18629809Y31349143D01*
%TO.C,C34*%
X28681428Y10943429D02*
X28705619Y10919239D01*
X28729809Y10846667D01*
X28729809Y10798286D01*
X28705619Y10725715D01*
X28657238Y10677334D01*
X28608857Y10653143D01*
X28512095Y10628953D01*
X28439523Y10628953D01*
X28342761Y10653143D01*
X28294380Y10677334D01*
X28246000Y10725715D01*
X28221809Y10798286D01*
X28221809Y10846667D01*
X28246000Y10919239D01*
X28270190Y10943429D01*
X28221809Y11112762D02*
X28221809Y11427239D01*
X28415333Y11257905D01*
X28415333Y11330477D01*
X28439523Y11378858D01*
X28463714Y11403048D01*
X28512095Y11427239D01*
X28633047Y11427239D01*
X28681428Y11403048D01*
X28705619Y11378858D01*
X28729809Y11330477D01*
X28729809Y11185334D01*
X28705619Y11136953D01*
X28681428Y11112762D01*
X28391142Y11862667D02*
X28729809Y11862667D01*
X28197619Y11741715D02*
X28560476Y11620762D01*
X28560476Y11935239D01*
%TO.C,U3*%
X22012952Y9278191D02*
X22012952Y8866953D01*
X22037142Y8818572D01*
X22061333Y8794381D01*
X22109714Y8770191D01*
X22206476Y8770191D01*
X22254857Y8794381D01*
X22279047Y8818572D01*
X22303238Y8866953D01*
X22303238Y9278191D01*
X22496761Y9278191D02*
X22811238Y9278191D01*
X22641904Y9084667D01*
X22714476Y9084667D01*
X22762857Y9060477D01*
X22787047Y9036286D01*
X22811238Y8987905D01*
X22811238Y8866953D01*
X22787047Y8818572D01*
X22762857Y8794381D01*
X22714476Y8770191D01*
X22569333Y8770191D01*
X22520952Y8794381D01*
X22496761Y8818572D01*
%TO.C,J1*%
X24430666Y2678190D02*
X24430666Y2315333D01*
X24406476Y2242761D01*
X24358095Y2194380D01*
X24285523Y2170190D01*
X24237142Y2170190D01*
X24938666Y2170190D02*
X24648380Y2170190D01*
X24793523Y2170190D02*
X24793523Y2678190D01*
X24745142Y2605619D01*
X24696761Y2557238D01*
X24648380Y2533047D01*
%TO.C,FL1*%
X18363714Y37775048D02*
X18363714Y37605715D01*
X18629809Y37605715D02*
X18121809Y37605715D01*
X18121809Y37847620D01*
X18629809Y38283048D02*
X18629809Y38041143D01*
X18121809Y38041143D01*
X18629809Y38718477D02*
X18629809Y38428191D01*
X18629809Y38573334D02*
X18121809Y38573334D01*
X18194380Y38524953D01*
X18242761Y38476572D01*
X18266952Y38428191D01*
%TO.C,C28*%
X30376428Y12975429D02*
X30400619Y12951239D01*
X30424809Y12878667D01*
X30424809Y12830286D01*
X30400619Y12757715D01*
X30352238Y12709334D01*
X30303857Y12685143D01*
X30207095Y12660953D01*
X30134523Y12660953D01*
X30037761Y12685143D01*
X29989380Y12709334D01*
X29941000Y12757715D01*
X29916809Y12830286D01*
X29916809Y12878667D01*
X29941000Y12951239D01*
X29965190Y12975429D01*
X29965190Y13168953D02*
X29941000Y13193143D01*
X29916809Y13241524D01*
X29916809Y13362477D01*
X29941000Y13410858D01*
X29965190Y13435048D01*
X30013571Y13459239D01*
X30061952Y13459239D01*
X30134523Y13435048D01*
X30424809Y13144762D01*
X30424809Y13459239D01*
X30134523Y13749524D02*
X30110333Y13701143D01*
X30086142Y13676953D01*
X30037761Y13652762D01*
X30013571Y13652762D01*
X29965190Y13676953D01*
X29941000Y13701143D01*
X29916809Y13749524D01*
X29916809Y13846286D01*
X29941000Y13894667D01*
X29965190Y13918858D01*
X30013571Y13943048D01*
X30037761Y13943048D01*
X30086142Y13918858D01*
X30110333Y13894667D01*
X30134523Y13846286D01*
X30134523Y13749524D01*
X30158714Y13701143D01*
X30182904Y13676953D01*
X30231285Y13652762D01*
X30328047Y13652762D01*
X30376428Y13676953D01*
X30400619Y13701143D01*
X30424809Y13749524D01*
X30424809Y13846286D01*
X30400619Y13894667D01*
X30376428Y13918858D01*
X30328047Y13943048D01*
X30231285Y13943048D01*
X30182904Y13918858D01*
X30158714Y13894667D01*
X30134523Y13846286D01*
%TO.C,C20*%
X30376428Y9010229D02*
X30400619Y8986039D01*
X30424809Y8913467D01*
X30424809Y8865086D01*
X30400619Y8792515D01*
X30352238Y8744134D01*
X30303857Y8719943D01*
X30207095Y8695753D01*
X30134523Y8695753D01*
X30037761Y8719943D01*
X29989380Y8744134D01*
X29941000Y8792515D01*
X29916809Y8865086D01*
X29916809Y8913467D01*
X29941000Y8986039D01*
X29965190Y9010229D01*
X29965190Y9203753D02*
X29941000Y9227943D01*
X29916809Y9276324D01*
X29916809Y9397277D01*
X29941000Y9445658D01*
X29965190Y9469848D01*
X30013571Y9494039D01*
X30061952Y9494039D01*
X30134523Y9469848D01*
X30424809Y9179562D01*
X30424809Y9494039D01*
X29916809Y9808515D02*
X29916809Y9856896D01*
X29941000Y9905277D01*
X29965190Y9929467D01*
X30013571Y9953658D01*
X30110333Y9977848D01*
X30231285Y9977848D01*
X30328047Y9953658D01*
X30376428Y9929467D01*
X30400619Y9905277D01*
X30424809Y9856896D01*
X30424809Y9808515D01*
X30400619Y9760134D01*
X30376428Y9735943D01*
X30328047Y9711753D01*
X30231285Y9687562D01*
X30110333Y9687562D01*
X30013571Y9711753D01*
X29965190Y9735943D01*
X29941000Y9760134D01*
X29916809Y9808515D01*
%TO.C,C3*%
X14381428Y23182134D02*
X14405619Y23157943D01*
X14429809Y23085372D01*
X14429809Y23036991D01*
X14405619Y22964420D01*
X14357238Y22916039D01*
X14308857Y22891848D01*
X14212095Y22867658D01*
X14139523Y22867658D01*
X14042761Y22891848D01*
X13994380Y22916039D01*
X13946000Y22964420D01*
X13921809Y23036991D01*
X13921809Y23085372D01*
X13946000Y23157943D01*
X13970190Y23182134D01*
X13921809Y23351467D02*
X13921809Y23665943D01*
X14115333Y23496610D01*
X14115333Y23569181D01*
X14139523Y23617562D01*
X14163714Y23641753D01*
X14212095Y23665943D01*
X14333047Y23665943D01*
X14381428Y23641753D01*
X14405619Y23617562D01*
X14429809Y23569181D01*
X14429809Y23424039D01*
X14405619Y23375658D01*
X14381428Y23351467D01*
%TO.C,C16*%
X10781428Y19073429D02*
X10805619Y19049239D01*
X10829809Y18976667D01*
X10829809Y18928286D01*
X10805619Y18855715D01*
X10757238Y18807334D01*
X10708857Y18783143D01*
X10612095Y18758953D01*
X10539523Y18758953D01*
X10442761Y18783143D01*
X10394380Y18807334D01*
X10346000Y18855715D01*
X10321809Y18928286D01*
X10321809Y18976667D01*
X10346000Y19049239D01*
X10370190Y19073429D01*
X10829809Y19557239D02*
X10829809Y19266953D01*
X10829809Y19412096D02*
X10321809Y19412096D01*
X10394380Y19363715D01*
X10442761Y19315334D01*
X10466952Y19266953D01*
X10321809Y19992667D02*
X10321809Y19895905D01*
X10346000Y19847524D01*
X10370190Y19823334D01*
X10442761Y19774953D01*
X10539523Y19750762D01*
X10733047Y19750762D01*
X10781428Y19774953D01*
X10805619Y19799143D01*
X10829809Y19847524D01*
X10829809Y19944286D01*
X10805619Y19992667D01*
X10781428Y20016858D01*
X10733047Y20041048D01*
X10612095Y20041048D01*
X10563714Y20016858D01*
X10539523Y19992667D01*
X10515333Y19944286D01*
X10515333Y19847524D01*
X10539523Y19799143D01*
X10563714Y19774953D01*
X10612095Y19750762D01*
%TO.C,C27*%
X29487428Y12975429D02*
X29511619Y12951239D01*
X29535809Y12878667D01*
X29535809Y12830286D01*
X29511619Y12757715D01*
X29463238Y12709334D01*
X29414857Y12685143D01*
X29318095Y12660953D01*
X29245523Y12660953D01*
X29148761Y12685143D01*
X29100380Y12709334D01*
X29052000Y12757715D01*
X29027809Y12830286D01*
X29027809Y12878667D01*
X29052000Y12951239D01*
X29076190Y12975429D01*
X29076190Y13168953D02*
X29052000Y13193143D01*
X29027809Y13241524D01*
X29027809Y13362477D01*
X29052000Y13410858D01*
X29076190Y13435048D01*
X29124571Y13459239D01*
X29172952Y13459239D01*
X29245523Y13435048D01*
X29535809Y13144762D01*
X29535809Y13459239D01*
X29027809Y13628572D02*
X29027809Y13967239D01*
X29535809Y13749524D01*
%TO.C,C42*%
X28852428Y38248429D02*
X28876619Y38224239D01*
X28900809Y38151667D01*
X28900809Y38103286D01*
X28876619Y38030715D01*
X28828238Y37982334D01*
X28779857Y37958143D01*
X28683095Y37933953D01*
X28610523Y37933953D01*
X28513761Y37958143D01*
X28465380Y37982334D01*
X28417000Y38030715D01*
X28392809Y38103286D01*
X28392809Y38151667D01*
X28417000Y38224239D01*
X28441190Y38248429D01*
X28562142Y38683858D02*
X28900809Y38683858D01*
X28368619Y38562905D02*
X28731476Y38441953D01*
X28731476Y38756429D01*
X28441190Y38925762D02*
X28417000Y38949953D01*
X28392809Y38998334D01*
X28392809Y39119286D01*
X28417000Y39167667D01*
X28441190Y39191858D01*
X28489571Y39216048D01*
X28537952Y39216048D01*
X28610523Y39191858D01*
X28900809Y38901572D01*
X28900809Y39216048D01*
%TO.C,TP1*%
X17470809Y46458960D02*
X17470809Y46749246D01*
X17978809Y46604103D02*
X17470809Y46604103D01*
X17978809Y46918579D02*
X17470809Y46918579D01*
X17470809Y47112103D01*
X17495000Y47160484D01*
X17519190Y47184674D01*
X17567571Y47208865D01*
X17640142Y47208865D01*
X17688523Y47184674D01*
X17712714Y47160484D01*
X17736904Y47112103D01*
X17736904Y46918579D01*
X17978809Y47692674D02*
X17978809Y47402388D01*
X17978809Y47547531D02*
X17470809Y47547531D01*
X17543380Y47499150D01*
X17591761Y47450769D01*
X17615952Y47402388D01*
%TO.C,C54*%
X21341428Y49593429D02*
X21365619Y49569239D01*
X21389809Y49496667D01*
X21389809Y49448286D01*
X21365619Y49375715D01*
X21317238Y49327334D01*
X21268857Y49303143D01*
X21172095Y49278953D01*
X21099523Y49278953D01*
X21002761Y49303143D01*
X20954380Y49327334D01*
X20906000Y49375715D01*
X20881809Y49448286D01*
X20881809Y49496667D01*
X20906000Y49569239D01*
X20930190Y49593429D01*
X20881809Y50053048D02*
X20881809Y49811143D01*
X21123714Y49786953D01*
X21099523Y49811143D01*
X21075333Y49859524D01*
X21075333Y49980477D01*
X21099523Y50028858D01*
X21123714Y50053048D01*
X21172095Y50077239D01*
X21293047Y50077239D01*
X21341428Y50053048D01*
X21365619Y50028858D01*
X21389809Y49980477D01*
X21389809Y49859524D01*
X21365619Y49811143D01*
X21341428Y49786953D01*
X21051142Y50512667D02*
X21389809Y50512667D01*
X20857619Y50391715D02*
X21220476Y50270762D01*
X21220476Y50585239D01*
%TO.C,C47*%
X36853432Y29073429D02*
X36877623Y29049239D01*
X36901813Y28976667D01*
X36901813Y28928286D01*
X36877623Y28855715D01*
X36829242Y28807334D01*
X36780861Y28783143D01*
X36684099Y28758953D01*
X36611527Y28758953D01*
X36514765Y28783143D01*
X36466384Y28807334D01*
X36418004Y28855715D01*
X36393813Y28928286D01*
X36393813Y28976667D01*
X36418004Y29049239D01*
X36442194Y29073429D01*
X36563146Y29508858D02*
X36901813Y29508858D01*
X36369623Y29387905D02*
X36732480Y29266953D01*
X36732480Y29581429D01*
X36393813Y29726572D02*
X36393813Y30065239D01*
X36901813Y29847524D01*
%TO.C,C9*%
X22502428Y31632334D02*
X22526619Y31608143D01*
X22550809Y31535572D01*
X22550809Y31487191D01*
X22526619Y31414620D01*
X22478238Y31366239D01*
X22429857Y31342048D01*
X22333095Y31317858D01*
X22260523Y31317858D01*
X22163761Y31342048D01*
X22115380Y31366239D01*
X22067000Y31414620D01*
X22042809Y31487191D01*
X22042809Y31535572D01*
X22067000Y31608143D01*
X22091190Y31632334D01*
X22550809Y31874239D02*
X22550809Y31971000D01*
X22526619Y32019381D01*
X22502428Y32043572D01*
X22429857Y32091953D01*
X22333095Y32116143D01*
X22139571Y32116143D01*
X22091190Y32091953D01*
X22067000Y32067762D01*
X22042809Y32019381D01*
X22042809Y31922620D01*
X22067000Y31874239D01*
X22091190Y31850048D01*
X22139571Y31825858D01*
X22260523Y31825858D01*
X22308904Y31850048D01*
X22333095Y31874239D01*
X22357285Y31922620D01*
X22357285Y32019381D01*
X22333095Y32067762D01*
X22308904Y32091953D01*
X22260523Y32116143D01*
%TO.C,C15*%
X11581428Y19073429D02*
X11605619Y19049239D01*
X11629809Y18976667D01*
X11629809Y18928286D01*
X11605619Y18855715D01*
X11557238Y18807334D01*
X11508857Y18783143D01*
X11412095Y18758953D01*
X11339523Y18758953D01*
X11242761Y18783143D01*
X11194380Y18807334D01*
X11146000Y18855715D01*
X11121809Y18928286D01*
X11121809Y18976667D01*
X11146000Y19049239D01*
X11170190Y19073429D01*
X11629809Y19557239D02*
X11629809Y19266953D01*
X11629809Y19412096D02*
X11121809Y19412096D01*
X11194380Y19363715D01*
X11242761Y19315334D01*
X11266952Y19266953D01*
X11121809Y20016858D02*
X11121809Y19774953D01*
X11363714Y19750762D01*
X11339523Y19774953D01*
X11315333Y19823334D01*
X11315333Y19944286D01*
X11339523Y19992667D01*
X11363714Y20016858D01*
X11412095Y20041048D01*
X11533047Y20041048D01*
X11581428Y20016858D01*
X11605619Y19992667D01*
X11629809Y19944286D01*
X11629809Y19823334D01*
X11605619Y19774953D01*
X11581428Y19750762D01*
%TO.C,C13*%
X23391428Y31644429D02*
X23415619Y31620239D01*
X23439809Y31547667D01*
X23439809Y31499286D01*
X23415619Y31426715D01*
X23367238Y31378334D01*
X23318857Y31354143D01*
X23222095Y31329953D01*
X23149523Y31329953D01*
X23052761Y31354143D01*
X23004380Y31378334D01*
X22956000Y31426715D01*
X22931809Y31499286D01*
X22931809Y31547667D01*
X22956000Y31620239D01*
X22980190Y31644429D01*
X23439809Y32128239D02*
X23439809Y31837953D01*
X23439809Y31983096D02*
X22931809Y31983096D01*
X23004380Y31934715D01*
X23052761Y31886334D01*
X23076952Y31837953D01*
X22931809Y32297572D02*
X22931809Y32612048D01*
X23125333Y32442715D01*
X23125333Y32515286D01*
X23149523Y32563667D01*
X23173714Y32587858D01*
X23222095Y32612048D01*
X23343047Y32612048D01*
X23391428Y32587858D01*
X23415619Y32563667D01*
X23439809Y32515286D01*
X23439809Y32370143D01*
X23415619Y32321762D01*
X23391428Y32297572D01*
%TO.C,C31*%
X11581428Y12473429D02*
X11605619Y12449239D01*
X11629809Y12376667D01*
X11629809Y12328286D01*
X11605619Y12255715D01*
X11557238Y12207334D01*
X11508857Y12183143D01*
X11412095Y12158953D01*
X11339523Y12158953D01*
X11242761Y12183143D01*
X11194380Y12207334D01*
X11146000Y12255715D01*
X11121809Y12328286D01*
X11121809Y12376667D01*
X11146000Y12449239D01*
X11170190Y12473429D01*
X11121809Y12642762D02*
X11121809Y12957239D01*
X11315333Y12787905D01*
X11315333Y12860477D01*
X11339523Y12908858D01*
X11363714Y12933048D01*
X11412095Y12957239D01*
X11533047Y12957239D01*
X11581428Y12933048D01*
X11605619Y12908858D01*
X11629809Y12860477D01*
X11629809Y12715334D01*
X11605619Y12666953D01*
X11581428Y12642762D01*
X11629809Y13441048D02*
X11629809Y13150762D01*
X11629809Y13295905D02*
X11121809Y13295905D01*
X11194380Y13247524D01*
X11242761Y13199143D01*
X11266952Y13150762D01*
%TO.C,C7*%
X21613428Y21345334D02*
X21637619Y21321143D01*
X21661809Y21248572D01*
X21661809Y21200191D01*
X21637619Y21127620D01*
X21589238Y21079239D01*
X21540857Y21055048D01*
X21444095Y21030858D01*
X21371523Y21030858D01*
X21274761Y21055048D01*
X21226380Y21079239D01*
X21178000Y21127620D01*
X21153809Y21200191D01*
X21153809Y21248572D01*
X21178000Y21321143D01*
X21202190Y21345334D01*
X21153809Y21514667D02*
X21153809Y21853334D01*
X21661809Y21635620D01*
%TO.C,R10*%
X10612809Y54758429D02*
X10370904Y54589096D01*
X10612809Y54468143D02*
X10104809Y54468143D01*
X10104809Y54661667D01*
X10129000Y54710048D01*
X10153190Y54734239D01*
X10201571Y54758429D01*
X10274142Y54758429D01*
X10322523Y54734239D01*
X10346714Y54710048D01*
X10370904Y54661667D01*
X10370904Y54468143D01*
X10612809Y55242239D02*
X10612809Y54951953D01*
X10612809Y55097096D02*
X10104809Y55097096D01*
X10177380Y55048715D01*
X10225761Y55000334D01*
X10249952Y54951953D01*
X10104809Y55556715D02*
X10104809Y55605096D01*
X10129000Y55653477D01*
X10153190Y55677667D01*
X10201571Y55701858D01*
X10298333Y55726048D01*
X10419285Y55726048D01*
X10516047Y55701858D01*
X10564428Y55677667D01*
X10588619Y55653477D01*
X10612809Y55605096D01*
X10612809Y55556715D01*
X10588619Y55508334D01*
X10564428Y55484143D01*
X10516047Y55459953D01*
X10419285Y55435762D01*
X10298333Y55435762D01*
X10201571Y55459953D01*
X10153190Y55484143D01*
X10129000Y55508334D01*
X10104809Y55556715D01*
%TO.C,R7*%
X8834809Y42808334D02*
X8592904Y42639000D01*
X8834809Y42518048D02*
X8326809Y42518048D01*
X8326809Y42711572D01*
X8351000Y42759953D01*
X8375190Y42784143D01*
X8423571Y42808334D01*
X8496142Y42808334D01*
X8544523Y42784143D01*
X8568714Y42759953D01*
X8592904Y42711572D01*
X8592904Y42518048D01*
X8326809Y42977667D02*
X8326809Y43316334D01*
X8834809Y43098620D01*
%TO.C,C6*%
X25550428Y26171334D02*
X25574619Y26147143D01*
X25598809Y26074572D01*
X25598809Y26026191D01*
X25574619Y25953620D01*
X25526238Y25905239D01*
X25477857Y25881048D01*
X25381095Y25856858D01*
X25308523Y25856858D01*
X25211761Y25881048D01*
X25163380Y25905239D01*
X25115000Y25953620D01*
X25090809Y26026191D01*
X25090809Y26074572D01*
X25115000Y26147143D01*
X25139190Y26171334D01*
X25090809Y26606762D02*
X25090809Y26510000D01*
X25115000Y26461620D01*
X25139190Y26437429D01*
X25211761Y26389048D01*
X25308523Y26364858D01*
X25502047Y26364858D01*
X25550428Y26389048D01*
X25574619Y26413239D01*
X25598809Y26461620D01*
X25598809Y26558381D01*
X25574619Y26606762D01*
X25550428Y26630953D01*
X25502047Y26655143D01*
X25381095Y26655143D01*
X25332714Y26630953D01*
X25308523Y26606762D01*
X25284333Y26558381D01*
X25284333Y26461620D01*
X25308523Y26413239D01*
X25332714Y26389048D01*
X25381095Y26364858D01*
%TO.C,R1*%
X34107809Y37220334D02*
X33865904Y37051000D01*
X34107809Y36930048D02*
X33599809Y36930048D01*
X33599809Y37123572D01*
X33624000Y37171953D01*
X33648190Y37196143D01*
X33696571Y37220334D01*
X33769142Y37220334D01*
X33817523Y37196143D01*
X33841714Y37171953D01*
X33865904Y37123572D01*
X33865904Y36930048D01*
X34107809Y37704143D02*
X34107809Y37413858D01*
X34107809Y37559000D02*
X33599809Y37559000D01*
X33672380Y37510620D01*
X33720761Y37462239D01*
X33744952Y37413858D01*
%TO.C,C1*%
X18381428Y22015334D02*
X18405619Y21991143D01*
X18429809Y21918572D01*
X18429809Y21870191D01*
X18405619Y21797620D01*
X18357238Y21749239D01*
X18308857Y21725048D01*
X18212095Y21700858D01*
X18139523Y21700858D01*
X18042761Y21725048D01*
X17994380Y21749239D01*
X17946000Y21797620D01*
X17921809Y21870191D01*
X17921809Y21918572D01*
X17946000Y21991143D01*
X17970190Y22015334D01*
X18429809Y22499143D02*
X18429809Y22208858D01*
X18429809Y22354000D02*
X17921809Y22354000D01*
X17994380Y22305620D01*
X18042761Y22257239D01*
X18066952Y22208858D01*
%TO.C,R2*%
X35758809Y19694334D02*
X35516904Y19525000D01*
X35758809Y19404048D02*
X35250809Y19404048D01*
X35250809Y19597572D01*
X35275000Y19645953D01*
X35299190Y19670143D01*
X35347571Y19694334D01*
X35420142Y19694334D01*
X35468523Y19670143D01*
X35492714Y19645953D01*
X35516904Y19597572D01*
X35516904Y19404048D01*
X35299190Y19887858D02*
X35275000Y19912048D01*
X35250809Y19960429D01*
X35250809Y20081381D01*
X35275000Y20129762D01*
X35299190Y20153953D01*
X35347571Y20178143D01*
X35395952Y20178143D01*
X35468523Y20153953D01*
X35758809Y19863667D01*
X35758809Y20178143D01*
%TO.C,Y1*%
X32874095Y14965096D02*
X32874095Y14723191D01*
X32704761Y15231191D02*
X32874095Y14965096D01*
X33043428Y15231191D01*
X33478857Y14723191D02*
X33188571Y14723191D01*
X33333714Y14723191D02*
X33333714Y15231191D01*
X33285333Y15158620D01*
X33236952Y15110239D01*
X33188571Y15086048D01*
%TO.C,C43*%
X34948428Y21103429D02*
X34972619Y21079239D01*
X34996809Y21006667D01*
X34996809Y20958286D01*
X34972619Y20885715D01*
X34924238Y20837334D01*
X34875857Y20813143D01*
X34779095Y20788953D01*
X34706523Y20788953D01*
X34609761Y20813143D01*
X34561380Y20837334D01*
X34513000Y20885715D01*
X34488809Y20958286D01*
X34488809Y21006667D01*
X34513000Y21079239D01*
X34537190Y21103429D01*
X34658142Y21538858D02*
X34996809Y21538858D01*
X34464619Y21417905D02*
X34827476Y21296953D01*
X34827476Y21611429D01*
X34488809Y21756572D02*
X34488809Y22071048D01*
X34682333Y21901715D01*
X34682333Y21974286D01*
X34706523Y22022667D01*
X34730714Y22046858D01*
X34779095Y22071048D01*
X34900047Y22071048D01*
X34948428Y22046858D01*
X34972619Y22022667D01*
X34996809Y21974286D01*
X34996809Y21829143D01*
X34972619Y21780762D01*
X34948428Y21756572D01*
%TO.C,C53*%
X17168428Y49805429D02*
X17192619Y49781239D01*
X17216809Y49708667D01*
X17216809Y49660286D01*
X17192619Y49587715D01*
X17144238Y49539334D01*
X17095857Y49515143D01*
X16999095Y49490953D01*
X16926523Y49490953D01*
X16829761Y49515143D01*
X16781380Y49539334D01*
X16733000Y49587715D01*
X16708809Y49660286D01*
X16708809Y49708667D01*
X16733000Y49781239D01*
X16757190Y49805429D01*
X16708809Y50265048D02*
X16708809Y50023143D01*
X16950714Y49998953D01*
X16926523Y50023143D01*
X16902333Y50071524D01*
X16902333Y50192477D01*
X16926523Y50240858D01*
X16950714Y50265048D01*
X16999095Y50289239D01*
X17120047Y50289239D01*
X17168428Y50265048D01*
X17192619Y50240858D01*
X17216809Y50192477D01*
X17216809Y50071524D01*
X17192619Y50023143D01*
X17168428Y49998953D01*
X16708809Y50458572D02*
X16708809Y50773048D01*
X16902333Y50603715D01*
X16902333Y50676286D01*
X16926523Y50724667D01*
X16950714Y50748858D01*
X16999095Y50773048D01*
X17120047Y50773048D01*
X17168428Y50748858D01*
X17192619Y50724667D01*
X17216809Y50676286D01*
X17216809Y50531143D01*
X17192619Y50482762D01*
X17168428Y50458572D01*
%TO.C,C39*%
X24280428Y21357429D02*
X24304619Y21333239D01*
X24328809Y21260667D01*
X24328809Y21212286D01*
X24304619Y21139715D01*
X24256238Y21091334D01*
X24207857Y21067143D01*
X24111095Y21042953D01*
X24038523Y21042953D01*
X23941761Y21067143D01*
X23893380Y21091334D01*
X23845000Y21139715D01*
X23820809Y21212286D01*
X23820809Y21260667D01*
X23845000Y21333239D01*
X23869190Y21357429D01*
X23820809Y21526762D02*
X23820809Y21841239D01*
X24014333Y21671905D01*
X24014333Y21744477D01*
X24038523Y21792858D01*
X24062714Y21817048D01*
X24111095Y21841239D01*
X24232047Y21841239D01*
X24280428Y21817048D01*
X24304619Y21792858D01*
X24328809Y21744477D01*
X24328809Y21599334D01*
X24304619Y21550953D01*
X24280428Y21526762D01*
X24328809Y22083143D02*
X24328809Y22179905D01*
X24304619Y22228286D01*
X24280428Y22252477D01*
X24207857Y22300858D01*
X24111095Y22325048D01*
X23917571Y22325048D01*
X23869190Y22300858D01*
X23845000Y22276667D01*
X23820809Y22228286D01*
X23820809Y22131524D01*
X23845000Y22083143D01*
X23869190Y22058953D01*
X23917571Y22034762D01*
X24038523Y22034762D01*
X24086904Y22058953D01*
X24111095Y22083143D01*
X24135285Y22131524D01*
X24135285Y22228286D01*
X24111095Y22276667D01*
X24086904Y22300858D01*
X24038523Y22325048D01*
%TO.C,C32*%
X10781428Y12473429D02*
X10805619Y12449239D01*
X10829809Y12376667D01*
X10829809Y12328286D01*
X10805619Y12255715D01*
X10757238Y12207334D01*
X10708857Y12183143D01*
X10612095Y12158953D01*
X10539523Y12158953D01*
X10442761Y12183143D01*
X10394380Y12207334D01*
X10346000Y12255715D01*
X10321809Y12328286D01*
X10321809Y12376667D01*
X10346000Y12449239D01*
X10370190Y12473429D01*
X10321809Y12642762D02*
X10321809Y12957239D01*
X10515333Y12787905D01*
X10515333Y12860477D01*
X10539523Y12908858D01*
X10563714Y12933048D01*
X10612095Y12957239D01*
X10733047Y12957239D01*
X10781428Y12933048D01*
X10805619Y12908858D01*
X10829809Y12860477D01*
X10829809Y12715334D01*
X10805619Y12666953D01*
X10781428Y12642762D01*
X10370190Y13150762D02*
X10346000Y13174953D01*
X10321809Y13223334D01*
X10321809Y13344286D01*
X10346000Y13392667D01*
X10370190Y13416858D01*
X10418571Y13441048D01*
X10466952Y13441048D01*
X10539523Y13416858D01*
X10829809Y13126572D01*
X10829809Y13441048D01*
%TO.C,R9*%
X8961809Y54746334D02*
X8719904Y54577000D01*
X8961809Y54456048D02*
X8453809Y54456048D01*
X8453809Y54649572D01*
X8478000Y54697953D01*
X8502190Y54722143D01*
X8550571Y54746334D01*
X8623142Y54746334D01*
X8671523Y54722143D01*
X8695714Y54697953D01*
X8719904Y54649572D01*
X8719904Y54456048D01*
X8961809Y54988239D02*
X8961809Y55085000D01*
X8937619Y55133381D01*
X8913428Y55157572D01*
X8840857Y55205953D01*
X8744095Y55230143D01*
X8550571Y55230143D01*
X8502190Y55205953D01*
X8478000Y55181762D01*
X8453809Y55133381D01*
X8453809Y55036620D01*
X8478000Y54988239D01*
X8502190Y54964048D01*
X8550571Y54939858D01*
X8671523Y54939858D01*
X8719904Y54964048D01*
X8744095Y54988239D01*
X8768285Y55036620D01*
X8768285Y55133381D01*
X8744095Y55181762D01*
X8719904Y55205953D01*
X8671523Y55230143D01*
%TO.C,C49*%
X28852428Y14753429D02*
X28876619Y14729239D01*
X28900809Y14656667D01*
X28900809Y14608286D01*
X28876619Y14535715D01*
X28828238Y14487334D01*
X28779857Y14463143D01*
X28683095Y14438953D01*
X28610523Y14438953D01*
X28513761Y14463143D01*
X28465380Y14487334D01*
X28417000Y14535715D01*
X28392809Y14608286D01*
X28392809Y14656667D01*
X28417000Y14729239D01*
X28441190Y14753429D01*
X28562142Y15188858D02*
X28900809Y15188858D01*
X28368619Y15067905D02*
X28731476Y14946953D01*
X28731476Y15261429D01*
X28900809Y15479143D02*
X28900809Y15575905D01*
X28876619Y15624286D01*
X28852428Y15648477D01*
X28779857Y15696858D01*
X28683095Y15721048D01*
X28489571Y15721048D01*
X28441190Y15696858D01*
X28417000Y15672667D01*
X28392809Y15624286D01*
X28392809Y15527524D01*
X28417000Y15479143D01*
X28441190Y15454953D01*
X28489571Y15430762D01*
X28610523Y15430762D01*
X28658904Y15454953D01*
X28683095Y15479143D01*
X28707285Y15527524D01*
X28707285Y15624286D01*
X28683095Y15672667D01*
X28658904Y15696858D01*
X28610523Y15721048D01*
%TO.C,C46*%
X35710428Y22881429D02*
X35734619Y22857239D01*
X35758809Y22784667D01*
X35758809Y22736286D01*
X35734619Y22663715D01*
X35686238Y22615334D01*
X35637857Y22591143D01*
X35541095Y22566953D01*
X35468523Y22566953D01*
X35371761Y22591143D01*
X35323380Y22615334D01*
X35275000Y22663715D01*
X35250809Y22736286D01*
X35250809Y22784667D01*
X35275000Y22857239D01*
X35299190Y22881429D01*
X35420142Y23316858D02*
X35758809Y23316858D01*
X35226619Y23195905D02*
X35589476Y23074953D01*
X35589476Y23389429D01*
X35250809Y23800667D02*
X35250809Y23703905D01*
X35275000Y23655524D01*
X35299190Y23631334D01*
X35371761Y23582953D01*
X35468523Y23558762D01*
X35662047Y23558762D01*
X35710428Y23582953D01*
X35734619Y23607143D01*
X35758809Y23655524D01*
X35758809Y23752286D01*
X35734619Y23800667D01*
X35710428Y23824858D01*
X35662047Y23849048D01*
X35541095Y23849048D01*
X35492714Y23824858D01*
X35468523Y23800667D01*
X35444333Y23752286D01*
X35444333Y23655524D01*
X35468523Y23607143D01*
X35492714Y23582953D01*
X35541095Y23558762D01*
%TO.C,C24*%
X10781428Y15559624D02*
X10805619Y15535434D01*
X10829809Y15462862D01*
X10829809Y15414481D01*
X10805619Y15341910D01*
X10757238Y15293529D01*
X10708857Y15269338D01*
X10612095Y15245148D01*
X10539523Y15245148D01*
X10442761Y15269338D01*
X10394380Y15293529D01*
X10346000Y15341910D01*
X10321809Y15414481D01*
X10321809Y15462862D01*
X10346000Y15535434D01*
X10370190Y15559624D01*
X10370190Y15753148D02*
X10346000Y15777338D01*
X10321809Y15825719D01*
X10321809Y15946672D01*
X10346000Y15995053D01*
X10370190Y16019243D01*
X10418571Y16043434D01*
X10466952Y16043434D01*
X10539523Y16019243D01*
X10829809Y15728957D01*
X10829809Y16043434D01*
X10491142Y16478862D02*
X10829809Y16478862D01*
X10297619Y16357910D02*
X10660476Y16236957D01*
X10660476Y16551434D01*
%TO.C,C37*%
X23391428Y21357429D02*
X23415619Y21333239D01*
X23439809Y21260667D01*
X23439809Y21212286D01*
X23415619Y21139715D01*
X23367238Y21091334D01*
X23318857Y21067143D01*
X23222095Y21042953D01*
X23149523Y21042953D01*
X23052761Y21067143D01*
X23004380Y21091334D01*
X22956000Y21139715D01*
X22931809Y21212286D01*
X22931809Y21260667D01*
X22956000Y21333239D01*
X22980190Y21357429D01*
X22931809Y21526762D02*
X22931809Y21841239D01*
X23125333Y21671905D01*
X23125333Y21744477D01*
X23149523Y21792858D01*
X23173714Y21817048D01*
X23222095Y21841239D01*
X23343047Y21841239D01*
X23391428Y21817048D01*
X23415619Y21792858D01*
X23439809Y21744477D01*
X23439809Y21599334D01*
X23415619Y21550953D01*
X23391428Y21526762D01*
X22931809Y22010572D02*
X22931809Y22349239D01*
X23439809Y22131524D01*
%TO.C,TP3*%
X16821808Y18408953D02*
X16821808Y18699239D01*
X17329808Y18554096D02*
X16821808Y18554096D01*
X17329808Y18868572D02*
X16821808Y18868572D01*
X16821808Y19062096D01*
X16845999Y19110477D01*
X16870189Y19134667D01*
X16918570Y19158858D01*
X16991141Y19158858D01*
X17039522Y19134667D01*
X17063713Y19110477D01*
X17087903Y19062096D01*
X17087903Y18868572D01*
X16821808Y19328191D02*
X16821808Y19642667D01*
X17015332Y19473334D01*
X17015332Y19545905D01*
X17039522Y19594286D01*
X17063713Y19618477D01*
X17112094Y19642667D01*
X17233046Y19642667D01*
X17281427Y19618477D01*
X17305618Y19594286D01*
X17329808Y19545905D01*
X17329808Y19400762D01*
X17305618Y19352381D01*
X17281427Y19328191D01*
%TO.C,R5*%
X7310809Y54746334D02*
X7068904Y54577000D01*
X7310809Y54456048D02*
X6802809Y54456048D01*
X6802809Y54649572D01*
X6827000Y54697953D01*
X6851190Y54722143D01*
X6899571Y54746334D01*
X6972142Y54746334D01*
X7020523Y54722143D01*
X7044714Y54697953D01*
X7068904Y54649572D01*
X7068904Y54456048D01*
X6802809Y55205953D02*
X6802809Y54964048D01*
X7044714Y54939858D01*
X7020523Y54964048D01*
X6996333Y55012429D01*
X6996333Y55133381D01*
X7020523Y55181762D01*
X7044714Y55205953D01*
X7093095Y55230143D01*
X7214047Y55230143D01*
X7262428Y55205953D01*
X7286619Y55181762D01*
X7310809Y55133381D01*
X7310809Y55012429D01*
X7286619Y54964048D01*
X7262428Y54939858D01*
%TO.C,C11*%
X10781428Y9257525D02*
X10805619Y9233335D01*
X10829809Y9160763D01*
X10829809Y9112382D01*
X10805619Y9039811D01*
X10757238Y8991430D01*
X10708857Y8967239D01*
X10612095Y8943049D01*
X10539523Y8943049D01*
X10442761Y8967239D01*
X10394380Y8991430D01*
X10346000Y9039811D01*
X10321809Y9112382D01*
X10321809Y9160763D01*
X10346000Y9233335D01*
X10370190Y9257525D01*
X10829809Y9741335D02*
X10829809Y9451049D01*
X10829809Y9596192D02*
X10321809Y9596192D01*
X10394380Y9547811D01*
X10442761Y9499430D01*
X10466952Y9451049D01*
X10829809Y10225144D02*
X10829809Y9934858D01*
X10829809Y10080001D02*
X10321809Y10080001D01*
X10394380Y10031620D01*
X10442761Y9983239D01*
X10466952Y9934858D01*
%TO.C,U1*%
X25743952Y46600191D02*
X25743952Y46188953D01*
X25768142Y46140572D01*
X25792333Y46116381D01*
X25840714Y46092191D01*
X25937476Y46092191D01*
X25985857Y46116381D01*
X26010047Y46140572D01*
X26034238Y46188953D01*
X26034238Y46600191D01*
X26542238Y46092191D02*
X26251952Y46092191D01*
X26397095Y46092191D02*
X26397095Y46600191D01*
X26348714Y46527620D01*
X26300333Y46479239D01*
X26251952Y46455048D01*
%TO.C,C23*%
X11581428Y15573429D02*
X11605619Y15549239D01*
X11629809Y15476667D01*
X11629809Y15428286D01*
X11605619Y15355715D01*
X11557238Y15307334D01*
X11508857Y15283143D01*
X11412095Y15258953D01*
X11339523Y15258953D01*
X11242761Y15283143D01*
X11194380Y15307334D01*
X11146000Y15355715D01*
X11121809Y15428286D01*
X11121809Y15476667D01*
X11146000Y15549239D01*
X11170190Y15573429D01*
X11170190Y15766953D02*
X11146000Y15791143D01*
X11121809Y15839524D01*
X11121809Y15960477D01*
X11146000Y16008858D01*
X11170190Y16033048D01*
X11218571Y16057239D01*
X11266952Y16057239D01*
X11339523Y16033048D01*
X11629809Y15742762D01*
X11629809Y16057239D01*
X11121809Y16226572D02*
X11121809Y16541048D01*
X11315333Y16371715D01*
X11315333Y16444286D01*
X11339523Y16492667D01*
X11363714Y16516858D01*
X11412095Y16541048D01*
X11533047Y16541048D01*
X11581428Y16516858D01*
X11605619Y16492667D01*
X11629809Y16444286D01*
X11629809Y16299143D01*
X11605619Y16250762D01*
X11581428Y16226572D01*
%TO.C,C4*%
X15681428Y23215334D02*
X15705619Y23191143D01*
X15729809Y23118572D01*
X15729809Y23070191D01*
X15705619Y22997620D01*
X15657238Y22949239D01*
X15608857Y22925048D01*
X15512095Y22900858D01*
X15439523Y22900858D01*
X15342761Y22925048D01*
X15294380Y22949239D01*
X15246000Y22997620D01*
X15221809Y23070191D01*
X15221809Y23118572D01*
X15246000Y23191143D01*
X15270190Y23215334D01*
X15391142Y23650762D02*
X15729809Y23650762D01*
X15197619Y23529810D02*
X15560476Y23408858D01*
X15560476Y23723334D01*
%TO.C,C18*%
X28681428Y9038429D02*
X28705619Y9014239D01*
X28729809Y8941667D01*
X28729809Y8893286D01*
X28705619Y8820715D01*
X28657238Y8772334D01*
X28608857Y8748143D01*
X28512095Y8723953D01*
X28439523Y8723953D01*
X28342761Y8748143D01*
X28294380Y8772334D01*
X28246000Y8820715D01*
X28221809Y8893286D01*
X28221809Y8941667D01*
X28246000Y9014239D01*
X28270190Y9038429D01*
X28729809Y9522239D02*
X28729809Y9231953D01*
X28729809Y9377096D02*
X28221809Y9377096D01*
X28294380Y9328715D01*
X28342761Y9280334D01*
X28366952Y9231953D01*
X28439523Y9812524D02*
X28415333Y9764143D01*
X28391142Y9739953D01*
X28342761Y9715762D01*
X28318571Y9715762D01*
X28270190Y9739953D01*
X28246000Y9764143D01*
X28221809Y9812524D01*
X28221809Y9909286D01*
X28246000Y9957667D01*
X28270190Y9981858D01*
X28318571Y10006048D01*
X28342761Y10006048D01*
X28391142Y9981858D01*
X28415333Y9957667D01*
X28439523Y9909286D01*
X28439523Y9812524D01*
X28463714Y9764143D01*
X28487904Y9739953D01*
X28536285Y9715762D01*
X28633047Y9715762D01*
X28681428Y9739953D01*
X28705619Y9764143D01*
X28729809Y9812524D01*
X28729809Y9909286D01*
X28705619Y9957667D01*
X28681428Y9981858D01*
X28633047Y10006048D01*
X28536285Y10006048D01*
X28487904Y9981858D01*
X28463714Y9957667D01*
X28439523Y9909286D01*
%TO.C,C45*%
X35329428Y14673424D02*
X35353619Y14649234D01*
X35377809Y14576662D01*
X35377809Y14528281D01*
X35353619Y14455710D01*
X35305238Y14407329D01*
X35256857Y14383138D01*
X35160095Y14358948D01*
X35087523Y14358948D01*
X34990761Y14383138D01*
X34942380Y14407329D01*
X34894000Y14455710D01*
X34869809Y14528281D01*
X34869809Y14576662D01*
X34894000Y14649234D01*
X34918190Y14673424D01*
X35039142Y15108853D02*
X35377809Y15108853D01*
X34845619Y14987900D02*
X35208476Y14866948D01*
X35208476Y15181424D01*
X34869809Y15616853D02*
X34869809Y15374948D01*
X35111714Y15350757D01*
X35087523Y15374948D01*
X35063333Y15423329D01*
X35063333Y15544281D01*
X35087523Y15592662D01*
X35111714Y15616853D01*
X35160095Y15641043D01*
X35281047Y15641043D01*
X35329428Y15616853D01*
X35353619Y15592662D01*
X35377809Y15544281D01*
X35377809Y15423329D01*
X35353619Y15374948D01*
X35329428Y15350757D01*
%TO.C,TP2*%
X16721808Y33608948D02*
X16721808Y33899234D01*
X17229808Y33754091D02*
X16721808Y33754091D01*
X17229808Y34068567D02*
X16721808Y34068567D01*
X16721808Y34262091D01*
X16745999Y34310472D01*
X16770189Y34334662D01*
X16818570Y34358853D01*
X16891141Y34358853D01*
X16939522Y34334662D01*
X16963713Y34310472D01*
X16987903Y34262091D01*
X16987903Y34068567D01*
X16770189Y34552376D02*
X16745999Y34576567D01*
X16721808Y34624948D01*
X16721808Y34745900D01*
X16745999Y34794281D01*
X16770189Y34818472D01*
X16818570Y34842662D01*
X16866951Y34842662D01*
X16939522Y34818472D01*
X17229808Y34528186D01*
X17229808Y34842662D01*
%TO.C,C19*%
X29523428Y9038429D02*
X29547619Y9014239D01*
X29571809Y8941667D01*
X29571809Y8893286D01*
X29547619Y8820715D01*
X29499238Y8772334D01*
X29450857Y8748143D01*
X29354095Y8723953D01*
X29281523Y8723953D01*
X29184761Y8748143D01*
X29136380Y8772334D01*
X29088000Y8820715D01*
X29063809Y8893286D01*
X29063809Y8941667D01*
X29088000Y9014239D01*
X29112190Y9038429D01*
X29571809Y9522239D02*
X29571809Y9231953D01*
X29571809Y9377096D02*
X29063809Y9377096D01*
X29136380Y9328715D01*
X29184761Y9280334D01*
X29208952Y9231953D01*
X29571809Y9764143D02*
X29571809Y9860905D01*
X29547619Y9909286D01*
X29523428Y9933477D01*
X29450857Y9981858D01*
X29354095Y10006048D01*
X29160571Y10006048D01*
X29112190Y9981858D01*
X29088000Y9957667D01*
X29063809Y9909286D01*
X29063809Y9812524D01*
X29088000Y9764143D01*
X29112190Y9739953D01*
X29160571Y9715762D01*
X29281523Y9715762D01*
X29329904Y9739953D01*
X29354095Y9764143D01*
X29378285Y9812524D01*
X29378285Y9909286D01*
X29354095Y9957667D01*
X29329904Y9981858D01*
X29281523Y10006048D01*
%TO.C,C38*%
X35281428Y40394429D02*
X35305619Y40370239D01*
X35329809Y40297667D01*
X35329809Y40249286D01*
X35305619Y40176715D01*
X35257238Y40128334D01*
X35208857Y40104143D01*
X35112095Y40079953D01*
X35039523Y40079953D01*
X34942761Y40104143D01*
X34894380Y40128334D01*
X34846000Y40176715D01*
X34821809Y40249286D01*
X34821809Y40297667D01*
X34846000Y40370239D01*
X34870190Y40394429D01*
X34821809Y40563762D02*
X34821809Y40878239D01*
X35015333Y40708905D01*
X35015333Y40781477D01*
X35039523Y40829858D01*
X35063714Y40854048D01*
X35112095Y40878239D01*
X35233047Y40878239D01*
X35281428Y40854048D01*
X35305619Y40829858D01*
X35329809Y40781477D01*
X35329809Y40636334D01*
X35305619Y40587953D01*
X35281428Y40563762D01*
X35039523Y41168524D02*
X35015333Y41120143D01*
X34991142Y41095953D01*
X34942761Y41071762D01*
X34918571Y41071762D01*
X34870190Y41095953D01*
X34846000Y41120143D01*
X34821809Y41168524D01*
X34821809Y41265286D01*
X34846000Y41313667D01*
X34870190Y41337858D01*
X34918571Y41362048D01*
X34942761Y41362048D01*
X34991142Y41337858D01*
X35015333Y41313667D01*
X35039523Y41265286D01*
X35039523Y41168524D01*
X35063714Y41120143D01*
X35087904Y41095953D01*
X35136285Y41071762D01*
X35233047Y41071762D01*
X35281428Y41095953D01*
X35305619Y41120143D01*
X35329809Y41168524D01*
X35329809Y41265286D01*
X35305619Y41313667D01*
X35281428Y41337858D01*
X35233047Y41362048D01*
X35136285Y41362048D01*
X35087904Y41337858D01*
X35063714Y41313667D01*
X35039523Y41265286D01*
%TO.C,C8*%
X24280428Y29473334D02*
X24304619Y29449143D01*
X24328809Y29376572D01*
X24328809Y29328191D01*
X24304619Y29255620D01*
X24256238Y29207239D01*
X24207857Y29183048D01*
X24111095Y29158858D01*
X24038523Y29158858D01*
X23941761Y29183048D01*
X23893380Y29207239D01*
X23845000Y29255620D01*
X23820809Y29328191D01*
X23820809Y29376572D01*
X23845000Y29449143D01*
X23869190Y29473334D01*
X24038523Y29763620D02*
X24014333Y29715239D01*
X23990142Y29691048D01*
X23941761Y29666858D01*
X23917571Y29666858D01*
X23869190Y29691048D01*
X23845000Y29715239D01*
X23820809Y29763620D01*
X23820809Y29860381D01*
X23845000Y29908762D01*
X23869190Y29932953D01*
X23917571Y29957143D01*
X23941761Y29957143D01*
X23990142Y29932953D01*
X24014333Y29908762D01*
X24038523Y29860381D01*
X24038523Y29763620D01*
X24062714Y29715239D01*
X24086904Y29691048D01*
X24135285Y29666858D01*
X24232047Y29666858D01*
X24280428Y29691048D01*
X24304619Y29715239D01*
X24328809Y29763620D01*
X24328809Y29860381D01*
X24304619Y29908762D01*
X24280428Y29932953D01*
X24232047Y29957143D01*
X24135285Y29957143D01*
X24086904Y29932953D01*
X24062714Y29908762D01*
X24038523Y29860381D01*
%TO.C,U5*%
X29807952Y35678191D02*
X29807952Y35266953D01*
X29832142Y35218572D01*
X29856333Y35194381D01*
X29904714Y35170191D01*
X30001476Y35170191D01*
X30049857Y35194381D01*
X30074047Y35218572D01*
X30098238Y35266953D01*
X30098238Y35678191D01*
X30582047Y35678191D02*
X30340142Y35678191D01*
X30315952Y35436286D01*
X30340142Y35460477D01*
X30388523Y35484667D01*
X30509476Y35484667D01*
X30557857Y35460477D01*
X30582047Y35436286D01*
X30606238Y35387905D01*
X30606238Y35266953D01*
X30582047Y35218572D01*
X30557857Y35194381D01*
X30509476Y35170191D01*
X30388523Y35170191D01*
X30340142Y35194381D01*
X30315952Y35218572D01*
%TO.C,C10*%
X11581428Y9257525D02*
X11605619Y9233335D01*
X11629809Y9160763D01*
X11629809Y9112382D01*
X11605619Y9039811D01*
X11557238Y8991430D01*
X11508857Y8967239D01*
X11412095Y8943049D01*
X11339523Y8943049D01*
X11242761Y8967239D01*
X11194380Y8991430D01*
X11146000Y9039811D01*
X11121809Y9112382D01*
X11121809Y9160763D01*
X11146000Y9233335D01*
X11170190Y9257525D01*
X11629809Y9741335D02*
X11629809Y9451049D01*
X11629809Y9596192D02*
X11121809Y9596192D01*
X11194380Y9547811D01*
X11242761Y9499430D01*
X11266952Y9451049D01*
X11121809Y10055811D02*
X11121809Y10104192D01*
X11146000Y10152573D01*
X11170190Y10176763D01*
X11218571Y10200954D01*
X11315333Y10225144D01*
X11436285Y10225144D01*
X11533047Y10200954D01*
X11581428Y10176763D01*
X11605619Y10152573D01*
X11629809Y10104192D01*
X11629809Y10055811D01*
X11605619Y10007430D01*
X11581428Y9983239D01*
X11533047Y9959049D01*
X11436285Y9934858D01*
X11315333Y9934858D01*
X11218571Y9959049D01*
X11170190Y9983239D01*
X11146000Y10007430D01*
X11121809Y10055811D01*
%TO.C,TP4*%
X34121821Y41885946D02*
X34121821Y42176232D01*
X34629821Y42031089D02*
X34121821Y42031089D01*
X34629821Y42345565D02*
X34121821Y42345565D01*
X34121821Y42539089D01*
X34146012Y42587470D01*
X34170202Y42611660D01*
X34218583Y42635851D01*
X34291154Y42635851D01*
X34339535Y42611660D01*
X34363726Y42587470D01*
X34387916Y42539089D01*
X34387916Y42345565D01*
X34291154Y43071279D02*
X34629821Y43071279D01*
X34097631Y42950327D02*
X34460488Y42829374D01*
X34460488Y43143851D01*
%TO.C,C52*%
X15771428Y49805429D02*
X15795619Y49781239D01*
X15819809Y49708667D01*
X15819809Y49660286D01*
X15795619Y49587715D01*
X15747238Y49539334D01*
X15698857Y49515143D01*
X15602095Y49490953D01*
X15529523Y49490953D01*
X15432761Y49515143D01*
X15384380Y49539334D01*
X15336000Y49587715D01*
X15311809Y49660286D01*
X15311809Y49708667D01*
X15336000Y49781239D01*
X15360190Y49805429D01*
X15311809Y50265048D02*
X15311809Y50023143D01*
X15553714Y49998953D01*
X15529523Y50023143D01*
X15505333Y50071524D01*
X15505333Y50192477D01*
X15529523Y50240858D01*
X15553714Y50265048D01*
X15602095Y50289239D01*
X15723047Y50289239D01*
X15771428Y50265048D01*
X15795619Y50240858D01*
X15819809Y50192477D01*
X15819809Y50071524D01*
X15795619Y50023143D01*
X15771428Y49998953D01*
X15360190Y50482762D02*
X15336000Y50506953D01*
X15311809Y50555334D01*
X15311809Y50676286D01*
X15336000Y50724667D01*
X15360190Y50748858D01*
X15408571Y50773048D01*
X15456952Y50773048D01*
X15529523Y50748858D01*
X15819809Y50458572D01*
X15819809Y50773048D01*
%TO.C,C30*%
X34440428Y31517429D02*
X34464619Y31493239D01*
X34488809Y31420667D01*
X34488809Y31372286D01*
X34464619Y31299715D01*
X34416238Y31251334D01*
X34367857Y31227143D01*
X34271095Y31202953D01*
X34198523Y31202953D01*
X34101761Y31227143D01*
X34053380Y31251334D01*
X34005000Y31299715D01*
X33980809Y31372286D01*
X33980809Y31420667D01*
X34005000Y31493239D01*
X34029190Y31517429D01*
X33980809Y31686762D02*
X33980809Y32001239D01*
X34174333Y31831905D01*
X34174333Y31904477D01*
X34198523Y31952858D01*
X34222714Y31977048D01*
X34271095Y32001239D01*
X34392047Y32001239D01*
X34440428Y31977048D01*
X34464619Y31952858D01*
X34488809Y31904477D01*
X34488809Y31759334D01*
X34464619Y31710953D01*
X34440428Y31686762D01*
X33980809Y32315715D02*
X33980809Y32364096D01*
X34005000Y32412477D01*
X34029190Y32436667D01*
X34077571Y32460858D01*
X34174333Y32485048D01*
X34295285Y32485048D01*
X34392047Y32460858D01*
X34440428Y32436667D01*
X34464619Y32412477D01*
X34488809Y32364096D01*
X34488809Y32315715D01*
X34464619Y32267334D01*
X34440428Y32243143D01*
X34392047Y32218953D01*
X34295285Y32194762D01*
X34174333Y32194762D01*
X34077571Y32218953D01*
X34029190Y32243143D01*
X34005000Y32267334D01*
X33980809Y32315715D01*
%TO.C,C5*%
X20724428Y21345334D02*
X20748619Y21321143D01*
X20772809Y21248572D01*
X20772809Y21200191D01*
X20748619Y21127620D01*
X20700238Y21079239D01*
X20651857Y21055048D01*
X20555095Y21030858D01*
X20482523Y21030858D01*
X20385761Y21055048D01*
X20337380Y21079239D01*
X20289000Y21127620D01*
X20264809Y21200191D01*
X20264809Y21248572D01*
X20289000Y21321143D01*
X20313190Y21345334D01*
X20264809Y21804953D02*
X20264809Y21563048D01*
X20506714Y21538858D01*
X20482523Y21563048D01*
X20458333Y21611429D01*
X20458333Y21732381D01*
X20482523Y21780762D01*
X20506714Y21804953D01*
X20555095Y21829143D01*
X20676047Y21829143D01*
X20724428Y21804953D01*
X20748619Y21780762D01*
X20772809Y21732381D01*
X20772809Y21611429D01*
X20748619Y21563048D01*
X20724428Y21538858D01*
%TO.C,C44*%
X36161428Y31494629D02*
X36185619Y31470439D01*
X36209809Y31397867D01*
X36209809Y31349486D01*
X36185619Y31276915D01*
X36137238Y31228534D01*
X36088857Y31204343D01*
X35992095Y31180153D01*
X35919523Y31180153D01*
X35822761Y31204343D01*
X35774380Y31228534D01*
X35726000Y31276915D01*
X35701809Y31349486D01*
X35701809Y31397867D01*
X35726000Y31470439D01*
X35750190Y31494629D01*
X35871142Y31930058D02*
X36209809Y31930058D01*
X35677619Y31809105D02*
X36040476Y31688153D01*
X36040476Y32002629D01*
X35871142Y32413867D02*
X36209809Y32413867D01*
X35677619Y32292915D02*
X36040476Y32171962D01*
X36040476Y32486439D01*
%TO.C,L1*%
X17729809Y23215334D02*
X17729809Y22973429D01*
X17221809Y22973429D01*
X17729809Y23650762D02*
X17729809Y23360477D01*
X17729809Y23505620D02*
X17221809Y23505620D01*
X17294380Y23457239D01*
X17342761Y23408858D01*
X17366952Y23360477D01*
%TO.C,U4*%
X33744952Y30852191D02*
X33744952Y30440953D01*
X33769142Y30392572D01*
X33793333Y30368381D01*
X33841714Y30344191D01*
X33938476Y30344191D01*
X33986857Y30368381D01*
X34011047Y30392572D01*
X34035238Y30440953D01*
X34035238Y30852191D01*
X34494857Y30682858D02*
X34494857Y30344191D01*
X34373904Y30876381D02*
X34252952Y30513524D01*
X34567428Y30513524D01*
%TO.C,C48*%
X37361428Y31517429D02*
X37385619Y31493239D01*
X37409809Y31420667D01*
X37409809Y31372286D01*
X37385619Y31299715D01*
X37337238Y31251334D01*
X37288857Y31227143D01*
X37192095Y31202953D01*
X37119523Y31202953D01*
X37022761Y31227143D01*
X36974380Y31251334D01*
X36926000Y31299715D01*
X36901809Y31372286D01*
X36901809Y31420667D01*
X36926000Y31493239D01*
X36950190Y31517429D01*
X37071142Y31952858D02*
X37409809Y31952858D01*
X36877619Y31831905D02*
X37240476Y31710953D01*
X37240476Y32025429D01*
X37119523Y32291524D02*
X37095333Y32243143D01*
X37071142Y32218953D01*
X37022761Y32194762D01*
X36998571Y32194762D01*
X36950190Y32218953D01*
X36926000Y32243143D01*
X36901809Y32291524D01*
X36901809Y32388286D01*
X36926000Y32436667D01*
X36950190Y32460858D01*
X36998571Y32485048D01*
X37022761Y32485048D01*
X37071142Y32460858D01*
X37095333Y32436667D01*
X37119523Y32388286D01*
X37119523Y32291524D01*
X37143714Y32243143D01*
X37167904Y32218953D01*
X37216285Y32194762D01*
X37313047Y32194762D01*
X37361428Y32218953D01*
X37385619Y32243143D01*
X37409809Y32291524D01*
X37409809Y32388286D01*
X37385619Y32436667D01*
X37361428Y32460858D01*
X37313047Y32485048D01*
X37216285Y32485048D01*
X37167904Y32460858D01*
X37143714Y32436667D01*
X37119523Y32388286D01*
%TO.C,C40*%
X23899428Y26183429D02*
X23923619Y26159239D01*
X23947809Y26086667D01*
X23947809Y26038286D01*
X23923619Y25965715D01*
X23875238Y25917334D01*
X23826857Y25893143D01*
X23730095Y25868953D01*
X23657523Y25868953D01*
X23560761Y25893143D01*
X23512380Y25917334D01*
X23464000Y25965715D01*
X23439809Y26038286D01*
X23439809Y26086667D01*
X23464000Y26159239D01*
X23488190Y26183429D01*
X23609142Y26618858D02*
X23947809Y26618858D01*
X23415619Y26497905D02*
X23778476Y26376953D01*
X23778476Y26691429D01*
X23439809Y26981715D02*
X23439809Y27030096D01*
X23464000Y27078477D01*
X23488190Y27102667D01*
X23536571Y27126858D01*
X23633333Y27151048D01*
X23754285Y27151048D01*
X23851047Y27126858D01*
X23899428Y27102667D01*
X23923619Y27078477D01*
X23947809Y27030096D01*
X23947809Y26981715D01*
X23923619Y26933334D01*
X23899428Y26909143D01*
X23851047Y26884953D01*
X23754285Y26860762D01*
X23633333Y26860762D01*
X23536571Y26884953D01*
X23488190Y26909143D01*
X23464000Y26933334D01*
X23439809Y26981715D01*
%TO.C,C51*%
X30481428Y14753429D02*
X30505619Y14729239D01*
X30529809Y14656667D01*
X30529809Y14608286D01*
X30505619Y14535715D01*
X30457238Y14487334D01*
X30408857Y14463143D01*
X30312095Y14438953D01*
X30239523Y14438953D01*
X30142761Y14463143D01*
X30094380Y14487334D01*
X30046000Y14535715D01*
X30021809Y14608286D01*
X30021809Y14656667D01*
X30046000Y14729239D01*
X30070190Y14753429D01*
X30021809Y15213048D02*
X30021809Y14971143D01*
X30263714Y14946953D01*
X30239523Y14971143D01*
X30215333Y15019524D01*
X30215333Y15140477D01*
X30239523Y15188858D01*
X30263714Y15213048D01*
X30312095Y15237239D01*
X30433047Y15237239D01*
X30481428Y15213048D01*
X30505619Y15188858D01*
X30529809Y15140477D01*
X30529809Y15019524D01*
X30505619Y14971143D01*
X30481428Y14946953D01*
X30529809Y15721048D02*
X30529809Y15430762D01*
X30529809Y15575905D02*
X30021809Y15575905D01*
X30094380Y15527524D01*
X30142761Y15479143D01*
X30166952Y15430762D01*
%TO.C,C33*%
X9981428Y12473429D02*
X10005619Y12449239D01*
X10029809Y12376667D01*
X10029809Y12328286D01*
X10005619Y12255715D01*
X9957238Y12207334D01*
X9908857Y12183143D01*
X9812095Y12158953D01*
X9739523Y12158953D01*
X9642761Y12183143D01*
X9594380Y12207334D01*
X9546000Y12255715D01*
X9521809Y12328286D01*
X9521809Y12376667D01*
X9546000Y12449239D01*
X9570190Y12473429D01*
X9521809Y12642762D02*
X9521809Y12957239D01*
X9715333Y12787905D01*
X9715333Y12860477D01*
X9739523Y12908858D01*
X9763714Y12933048D01*
X9812095Y12957239D01*
X9933047Y12957239D01*
X9981428Y12933048D01*
X10005619Y12908858D01*
X10029809Y12860477D01*
X10029809Y12715334D01*
X10005619Y12666953D01*
X9981428Y12642762D01*
X9521809Y13126572D02*
X9521809Y13441048D01*
X9715333Y13271715D01*
X9715333Y13344286D01*
X9739523Y13392667D01*
X9763714Y13416858D01*
X9812095Y13441048D01*
X9933047Y13441048D01*
X9981428Y13416858D01*
X10005619Y13392667D01*
X10029809Y13344286D01*
X10029809Y13199143D01*
X10005619Y13150762D01*
X9981428Y13126572D01*
%TO.C,C29*%
X31281428Y31273429D02*
X31305619Y31249239D01*
X31329809Y31176667D01*
X31329809Y31128286D01*
X31305619Y31055715D01*
X31257238Y31007334D01*
X31208857Y30983143D01*
X31112095Y30958953D01*
X31039523Y30958953D01*
X30942761Y30983143D01*
X30894380Y31007334D01*
X30846000Y31055715D01*
X30821809Y31128286D01*
X30821809Y31176667D01*
X30846000Y31249239D01*
X30870190Y31273429D01*
X30870190Y31466953D02*
X30846000Y31491143D01*
X30821809Y31539524D01*
X30821809Y31660477D01*
X30846000Y31708858D01*
X30870190Y31733048D01*
X30918571Y31757239D01*
X30966952Y31757239D01*
X31039523Y31733048D01*
X31329809Y31442762D01*
X31329809Y31757239D01*
X31329809Y31999143D02*
X31329809Y32095905D01*
X31305619Y32144286D01*
X31281428Y32168477D01*
X31208857Y32216858D01*
X31112095Y32241048D01*
X30918571Y32241048D01*
X30870190Y32216858D01*
X30846000Y32192667D01*
X30821809Y32144286D01*
X30821809Y32047524D01*
X30846000Y31999143D01*
X30870190Y31974953D01*
X30918571Y31950762D01*
X31039523Y31950762D01*
X31087904Y31974953D01*
X31112095Y31999143D01*
X31136285Y32047524D01*
X31136285Y32144286D01*
X31112095Y32192667D01*
X31087904Y32216858D01*
X31039523Y32241048D01*
%TO.C,R6*%
X7183809Y42808334D02*
X6941904Y42639000D01*
X7183809Y42518048D02*
X6675809Y42518048D01*
X6675809Y42711572D01*
X6700000Y42759953D01*
X6724190Y42784143D01*
X6772571Y42808334D01*
X6845142Y42808334D01*
X6893523Y42784143D01*
X6917714Y42759953D01*
X6941904Y42711572D01*
X6941904Y42518048D01*
X6675809Y43243762D02*
X6675809Y43147000D01*
X6700000Y43098620D01*
X6724190Y43074429D01*
X6796761Y43026048D01*
X6893523Y43001858D01*
X7087047Y43001858D01*
X7135428Y43026048D01*
X7159619Y43050239D01*
X7183809Y43098620D01*
X7183809Y43195381D01*
X7159619Y43243762D01*
X7135428Y43267953D01*
X7087047Y43292143D01*
X6966095Y43292143D01*
X6917714Y43267953D01*
X6893523Y43243762D01*
X6869333Y43195381D01*
X6869333Y43098620D01*
X6893523Y43050239D01*
X6917714Y43026048D01*
X6966095Y43001858D01*
%TO.C,U8*%
X21679952Y53458191D02*
X21679952Y53046953D01*
X21704142Y52998572D01*
X21728333Y52974381D01*
X21776714Y52950191D01*
X21873476Y52950191D01*
X21921857Y52974381D01*
X21946047Y52998572D01*
X21970238Y53046953D01*
X21970238Y53458191D01*
X22284714Y53240477D02*
X22236333Y53264667D01*
X22212142Y53288858D01*
X22187952Y53337239D01*
X22187952Y53361429D01*
X22212142Y53409810D01*
X22236333Y53434000D01*
X22284714Y53458191D01*
X22381476Y53458191D01*
X22429857Y53434000D01*
X22454047Y53409810D01*
X22478238Y53361429D01*
X22478238Y53337239D01*
X22454047Y53288858D01*
X22429857Y53264667D01*
X22381476Y53240477D01*
X22284714Y53240477D01*
X22236333Y53216286D01*
X22212142Y53192096D01*
X22187952Y53143715D01*
X22187952Y53046953D01*
X22212142Y52998572D01*
X22236333Y52974381D01*
X22284714Y52950191D01*
X22381476Y52950191D01*
X22429857Y52974381D01*
X22454047Y52998572D01*
X22478238Y53046953D01*
X22478238Y53143715D01*
X22454047Y53192096D01*
X22429857Y53216286D01*
X22381476Y53240477D01*
%TO.C,R8*%
X10485809Y42808334D02*
X10243904Y42639000D01*
X10485809Y42518048D02*
X9977809Y42518048D01*
X9977809Y42711572D01*
X10002000Y42759953D01*
X10026190Y42784143D01*
X10074571Y42808334D01*
X10147142Y42808334D01*
X10195523Y42784143D01*
X10219714Y42759953D01*
X10243904Y42711572D01*
X10243904Y42518048D01*
X10195523Y43098620D02*
X10171333Y43050239D01*
X10147142Y43026048D01*
X10098761Y43001858D01*
X10074571Y43001858D01*
X10026190Y43026048D01*
X10002000Y43050239D01*
X9977809Y43098620D01*
X9977809Y43195381D01*
X10002000Y43243762D01*
X10026190Y43267953D01*
X10074571Y43292143D01*
X10098761Y43292143D01*
X10147142Y43267953D01*
X10171333Y43243762D01*
X10195523Y43195381D01*
X10195523Y43098620D01*
X10219714Y43050239D01*
X10243904Y43026048D01*
X10292285Y43001858D01*
X10389047Y43001858D01*
X10437428Y43026048D01*
X10461619Y43050239D01*
X10485809Y43098620D01*
X10485809Y43195381D01*
X10461619Y43243762D01*
X10437428Y43267953D01*
X10389047Y43292143D01*
X10292285Y43292143D01*
X10243904Y43267953D01*
X10219714Y43243762D01*
X10195523Y43195381D01*
%TO.C,C17*%
X9981428Y19073429D02*
X10005619Y19049239D01*
X10029809Y18976667D01*
X10029809Y18928286D01*
X10005619Y18855715D01*
X9957238Y18807334D01*
X9908857Y18783143D01*
X9812095Y18758953D01*
X9739523Y18758953D01*
X9642761Y18783143D01*
X9594380Y18807334D01*
X9546000Y18855715D01*
X9521809Y18928286D01*
X9521809Y18976667D01*
X9546000Y19049239D01*
X9570190Y19073429D01*
X10029809Y19557239D02*
X10029809Y19266953D01*
X10029809Y19412096D02*
X9521809Y19412096D01*
X9594380Y19363715D01*
X9642761Y19315334D01*
X9666952Y19266953D01*
X9521809Y19726572D02*
X9521809Y20065239D01*
X10029809Y19847524D01*
%TO.C,J2*%
X24430667Y57678196D02*
X24430667Y57315339D01*
X24406477Y57242767D01*
X24358096Y57194386D01*
X24285524Y57170196D01*
X24237143Y57170196D01*
X24648381Y57629815D02*
X24672572Y57654005D01*
X24720953Y57678196D01*
X24841905Y57678196D01*
X24890286Y57654005D01*
X24914477Y57629815D01*
X24938667Y57581434D01*
X24938667Y57533053D01*
X24914477Y57460482D01*
X24624191Y57170196D01*
X24938667Y57170196D01*
%TO.C,C21*%
X22502428Y21357429D02*
X22526619Y21333239D01*
X22550809Y21260667D01*
X22550809Y21212286D01*
X22526619Y21139715D01*
X22478238Y21091334D01*
X22429857Y21067143D01*
X22333095Y21042953D01*
X22260523Y21042953D01*
X22163761Y21067143D01*
X22115380Y21091334D01*
X22067000Y21139715D01*
X22042809Y21212286D01*
X22042809Y21260667D01*
X22067000Y21333239D01*
X22091190Y21357429D01*
X22091190Y21550953D02*
X22067000Y21575143D01*
X22042809Y21623524D01*
X22042809Y21744477D01*
X22067000Y21792858D01*
X22091190Y21817048D01*
X22139571Y21841239D01*
X22187952Y21841239D01*
X22260523Y21817048D01*
X22550809Y21526762D01*
X22550809Y21841239D01*
X22550809Y22325048D02*
X22550809Y22034762D01*
X22550809Y22179905D02*
X22042809Y22179905D01*
X22115380Y22131524D01*
X22163761Y22083143D01*
X22187952Y22034762D01*
%TO.C,R3*%
X36647809Y37220334D02*
X36405904Y37051000D01*
X36647809Y36930048D02*
X36139809Y36930048D01*
X36139809Y37123572D01*
X36164000Y37171953D01*
X36188190Y37196143D01*
X36236571Y37220334D01*
X36309142Y37220334D01*
X36357523Y37196143D01*
X36381714Y37171953D01*
X36405904Y37123572D01*
X36405904Y36930048D01*
X36139809Y37389667D02*
X36139809Y37704143D01*
X36333333Y37534810D01*
X36333333Y37607381D01*
X36357523Y37655762D01*
X36381714Y37679953D01*
X36430095Y37704143D01*
X36551047Y37704143D01*
X36599428Y37679953D01*
X36623619Y37655762D01*
X36647809Y37607381D01*
X36647809Y37462239D01*
X36623619Y37413858D01*
X36599428Y37389667D01*
%TO.C,C41*%
X27201428Y38162316D02*
X27225619Y38138126D01*
X27249809Y38065554D01*
X27249809Y38017173D01*
X27225619Y37944602D01*
X27177238Y37896221D01*
X27128857Y37872030D01*
X27032095Y37847840D01*
X26959523Y37847840D01*
X26862761Y37872030D01*
X26814380Y37896221D01*
X26766000Y37944602D01*
X26741809Y38017173D01*
X26741809Y38065554D01*
X26766000Y38138126D01*
X26790190Y38162316D01*
X26911142Y38597745D02*
X27249809Y38597745D01*
X26717619Y38476792D02*
X27080476Y38355840D01*
X27080476Y38670316D01*
X27249809Y39129935D02*
X27249809Y38839649D01*
X27249809Y38984792D02*
X26741809Y38984792D01*
X26814380Y38936411D01*
X26862761Y38888030D01*
X26886952Y38839649D01*
%TO.C,C14*%
X24280428Y31644429D02*
X24304619Y31620239D01*
X24328809Y31547667D01*
X24328809Y31499286D01*
X24304619Y31426715D01*
X24256238Y31378334D01*
X24207857Y31354143D01*
X24111095Y31329953D01*
X24038523Y31329953D01*
X23941761Y31354143D01*
X23893380Y31378334D01*
X23845000Y31426715D01*
X23820809Y31499286D01*
X23820809Y31547667D01*
X23845000Y31620239D01*
X23869190Y31644429D01*
X24328809Y32128239D02*
X24328809Y31837953D01*
X24328809Y31983096D02*
X23820809Y31983096D01*
X23893380Y31934715D01*
X23941761Y31886334D01*
X23965952Y31837953D01*
X23990142Y32563667D02*
X24328809Y32563667D01*
X23796619Y32442715D02*
X24159476Y32321762D01*
X24159476Y32636239D01*
%TO.C,L2*%
X30726812Y38236334D02*
X30726812Y37994429D01*
X30218812Y37994429D01*
X30267193Y38381477D02*
X30243003Y38405667D01*
X30218812Y38454048D01*
X30218812Y38575000D01*
X30243003Y38623381D01*
X30267193Y38647572D01*
X30315574Y38671762D01*
X30363955Y38671762D01*
X30436526Y38647572D01*
X30726812Y38357286D01*
X30726812Y38671762D01*
%TO.C,C22*%
X33379421Y38700424D02*
X33403612Y38676234D01*
X33427802Y38603662D01*
X33427802Y38555281D01*
X33403612Y38482710D01*
X33355231Y38434329D01*
X33306850Y38410138D01*
X33210088Y38385948D01*
X33137516Y38385948D01*
X33040754Y38410138D01*
X32992373Y38434329D01*
X32943993Y38482710D01*
X32919802Y38555281D01*
X32919802Y38603662D01*
X32943993Y38676234D01*
X32968183Y38700424D01*
X32968183Y38893948D02*
X32943993Y38918138D01*
X32919802Y38966519D01*
X32919802Y39087472D01*
X32943993Y39135853D01*
X32968183Y39160043D01*
X33016564Y39184234D01*
X33064945Y39184234D01*
X33137516Y39160043D01*
X33427802Y38869757D01*
X33427802Y39184234D01*
X32968183Y39377757D02*
X32943993Y39401948D01*
X32919802Y39450329D01*
X32919802Y39571281D01*
X32943993Y39619662D01*
X32968183Y39643853D01*
X33016564Y39668043D01*
X33064945Y39668043D01*
X33137516Y39643853D01*
X33427802Y39353567D01*
X33427802Y39668043D01*
%TO.C,C36*%
X30376428Y10943429D02*
X30400619Y10919239D01*
X30424809Y10846667D01*
X30424809Y10798286D01*
X30400619Y10725715D01*
X30352238Y10677334D01*
X30303857Y10653143D01*
X30207095Y10628953D01*
X30134523Y10628953D01*
X30037761Y10653143D01*
X29989380Y10677334D01*
X29941000Y10725715D01*
X29916809Y10798286D01*
X29916809Y10846667D01*
X29941000Y10919239D01*
X29965190Y10943429D01*
X29916809Y11112762D02*
X29916809Y11427239D01*
X30110333Y11257905D01*
X30110333Y11330477D01*
X30134523Y11378858D01*
X30158714Y11403048D01*
X30207095Y11427239D01*
X30328047Y11427239D01*
X30376428Y11403048D01*
X30400619Y11378858D01*
X30424809Y11330477D01*
X30424809Y11185334D01*
X30400619Y11136953D01*
X30376428Y11112762D01*
X29916809Y11862667D02*
X29916809Y11765905D01*
X29941000Y11717524D01*
X29965190Y11693334D01*
X30037761Y11644953D01*
X30134523Y11620762D01*
X30328047Y11620762D01*
X30376428Y11644953D01*
X30400619Y11669143D01*
X30424809Y11717524D01*
X30424809Y11814286D01*
X30400619Y11862667D01*
X30376428Y11886858D01*
X30328047Y11911048D01*
X30207095Y11911048D01*
X30158714Y11886858D01*
X30134523Y11862667D01*
X30110333Y11814286D01*
X30110333Y11717524D01*
X30134523Y11669143D01*
X30158714Y11644953D01*
X30207095Y11620762D01*
%TO.C,U6*%
X11519952Y47870191D02*
X11519952Y47458953D01*
X11544142Y47410572D01*
X11568333Y47386381D01*
X11616714Y47362191D01*
X11713476Y47362191D01*
X11761857Y47386381D01*
X11786047Y47410572D01*
X11810238Y47458953D01*
X11810238Y47870191D01*
X12269857Y47870191D02*
X12173095Y47870191D01*
X12124714Y47846000D01*
X12100523Y47821810D01*
X12052142Y47749239D01*
X12027952Y47652477D01*
X12027952Y47458953D01*
X12052142Y47410572D01*
X12076333Y47386381D01*
X12124714Y47362191D01*
X12221476Y47362191D01*
X12269857Y47386381D01*
X12294047Y47410572D01*
X12318238Y47458953D01*
X12318238Y47579905D01*
X12294047Y47628286D01*
X12269857Y47652477D01*
X12221476Y47676667D01*
X12124714Y47676667D01*
X12076333Y47652477D01*
X12052142Y47628286D01*
X12027952Y47579905D01*
%TO.C,C26*%
X28598428Y12975429D02*
X28622619Y12951239D01*
X28646809Y12878667D01*
X28646809Y12830286D01*
X28622619Y12757715D01*
X28574238Y12709334D01*
X28525857Y12685143D01*
X28429095Y12660953D01*
X28356523Y12660953D01*
X28259761Y12685143D01*
X28211380Y12709334D01*
X28163000Y12757715D01*
X28138809Y12830286D01*
X28138809Y12878667D01*
X28163000Y12951239D01*
X28187190Y12975429D01*
X28187190Y13168953D02*
X28163000Y13193143D01*
X28138809Y13241524D01*
X28138809Y13362477D01*
X28163000Y13410858D01*
X28187190Y13435048D01*
X28235571Y13459239D01*
X28283952Y13459239D01*
X28356523Y13435048D01*
X28646809Y13144762D01*
X28646809Y13459239D01*
X28138809Y13894667D02*
X28138809Y13797905D01*
X28163000Y13749524D01*
X28187190Y13725334D01*
X28259761Y13676953D01*
X28356523Y13652762D01*
X28550047Y13652762D01*
X28598428Y13676953D01*
X28622619Y13701143D01*
X28646809Y13749524D01*
X28646809Y13846286D01*
X28622619Y13894667D01*
X28598428Y13918858D01*
X28550047Y13943048D01*
X28429095Y13943048D01*
X28380714Y13918858D01*
X28356523Y13894667D01*
X28332333Y13846286D01*
X28332333Y13749524D01*
X28356523Y13701143D01*
X28380714Y13676953D01*
X28429095Y13652762D01*
D12*
%TO.C,REF\u002A\u002A*%
X7300000Y4100000D02*
X9000000Y4100000D01*
X7300000Y2800000D02*
X7300000Y4500000D01*
X7300000Y4500000D02*
X6900000Y4500000D01*
X8800000Y2100000D02*
X9200000Y2100000D01*
X9200000Y4700000D02*
X8600000Y4700000D01*
X9000000Y2400000D02*
X9000000Y2100000D01*
X9000000Y4700000D02*
X9000000Y2800000D01*
X9000000Y4100000D02*
X10300000Y2800000D01*
X7300000Y4100000D02*
X8600000Y2800000D01*
X8600000Y2800000D02*
X10300000Y2800000D01*
X6900000Y4500000D02*
G75*
G03*
X6900000Y4100000I0J-200000D01*
G01*
X9200000Y2600000D02*
G75*
G03*
X9200000Y2600000I-200000J0D01*
G01*
X8007107Y2800000D02*
G75*
G03*
X8007107Y2800000I-707107J0D01*
G01*
X11007107Y2800000D02*
G75*
G03*
X11007107Y2800000I-707107J0D01*
G01*
D13*
%TO.C,L3*%
X19362779Y52310000D02*
X19037221Y52310000D01*
X19362779Y51290000D02*
X19037221Y51290000D01*
%TO.C,C35*%
X24732000Y12825680D02*
X24732000Y12544520D01*
X25752000Y12825680D02*
X25752000Y12544520D01*
%TO.C,C12*%
X12190000Y9478420D02*
X12190000Y9759580D01*
X13210000Y9478420D02*
X13210000Y9759580D01*
%TO.C,C25*%
X13210000Y16040580D02*
X13210000Y15759420D01*
X12190000Y16040580D02*
X12190000Y15759420D01*
%TO.C,R4*%
X36800000Y35468359D02*
X36800000Y35775641D01*
X37560000Y35468359D02*
X37560000Y35775641D01*
D14*
%TO.C,U2*%
X20801005Y29150000D02*
G75*
G03*
X20801005Y29150000I-125000J0D01*
G01*
D13*
%TO.C,C2*%
X19040000Y31057836D02*
X19040000Y30842164D01*
X19760000Y31057836D02*
X19760000Y30842164D01*
%TO.C,C34*%
X23506453Y12527836D02*
X23506453Y12312164D01*
X24226453Y12527836D02*
X24226453Y12312164D01*
D15*
%TO.C,U3*%
X22454862Y15639601D02*
G75*
G03*
X22454862Y15639601I-162500J0D01*
G01*
D13*
%TO.C,C28*%
X27276000Y16005678D02*
X27276000Y15724518D01*
X26256000Y16005678D02*
X26256000Y15724518D01*
%TO.C,C20*%
X27276000Y9351420D02*
X27276000Y9632580D01*
X26256000Y9351420D02*
X26256000Y9632580D01*
%TO.C,C3*%
X13690000Y25620580D02*
X13690000Y25339420D01*
X14710000Y25620580D02*
X14710000Y25339420D01*
%TO.C,C16*%
X14810000Y19240583D02*
X14810000Y18959423D01*
X13790000Y19240583D02*
X13790000Y18959423D01*
%TO.C,C27*%
X25752000Y16005678D02*
X25752000Y15724518D01*
X24732000Y16005678D02*
X24732000Y15724518D01*
%TO.C,C42*%
X29031000Y36308164D02*
X29031000Y36523836D01*
X28311000Y36308164D02*
X28311000Y36523836D01*
%TO.C,TP1*%
X21450001Y48500007D02*
X19350001Y48500007D01*
X21450001Y45700007D02*
X18550001Y45700007D01*
X21450001Y48500007D02*
X21450001Y45700007D01*
X19250001Y48650007D02*
X18400001Y48650007D01*
X18550001Y45700007D02*
X18550001Y47700007D01*
X18400001Y48650007D02*
X18400001Y47800007D01*
%TO.C,C54*%
X19640000Y50027836D02*
X19640000Y49812164D01*
X20360000Y50027836D02*
X20360000Y49812164D01*
%TO.C,C47*%
X37182000Y27240580D02*
X37182000Y26959420D01*
X36162000Y27240580D02*
X36162000Y26959420D01*
%TO.C,C9*%
X24859000Y32492580D02*
X24859000Y32211420D01*
X25879000Y32492580D02*
X25879000Y32211420D01*
%TO.C,C15*%
X15239998Y19007840D02*
X15239998Y18792168D01*
X15959998Y19007840D02*
X15959998Y18792168D01*
%TO.C,C13*%
X26510000Y32492580D02*
X26510000Y32211420D01*
X27530000Y32492580D02*
X27530000Y32211420D01*
%TO.C,C31*%
X15240000Y12892164D02*
X15240000Y13107836D01*
X15960000Y12892164D02*
X15960000Y13107836D01*
%TO.C,C7*%
X26510000Y20654420D02*
X26510000Y20935580D01*
X27530000Y20654420D02*
X27530000Y20935580D01*
%TO.C,R10*%
X10905500Y52782258D02*
X10905500Y52307742D01*
X9860500Y52782258D02*
X9860500Y52307742D01*
%TO.C,R7*%
X9127500Y45416258D02*
X9127500Y44941742D01*
X8082500Y45416258D02*
X8082500Y44941742D01*
%TO.C,C6*%
X24859000Y23956420D02*
X24859000Y24237580D01*
X25879000Y23956420D02*
X25879000Y24237580D01*
%TO.C,R1*%
X33879000Y35446359D02*
X33879000Y35753641D01*
X34639000Y35446359D02*
X34639000Y35753641D01*
%TO.C,C1*%
X19040000Y22707836D02*
X19040000Y22492164D01*
X19760000Y22707836D02*
X19760000Y22492164D01*
%TO.C,R2*%
X36149500Y21037258D02*
X36149500Y20562742D01*
X37194500Y21037258D02*
X37194500Y20562742D01*
D12*
%TO.C,Y1*%
X33565216Y18750001D02*
X33565216Y15949999D01*
X33565216Y15949999D02*
X31165215Y15949999D01*
X31165215Y18750001D02*
X31165215Y15949999D01*
X33565216Y18750001D02*
X31165215Y18750001D01*
D16*
X34217216Y16650001D02*
G75*
G03*
X34217216Y16650001I-127000J0D01*
G01*
D13*
%TO.C,C43*%
X32987000Y20659425D02*
X32987000Y20940585D01*
X34007000Y20659425D02*
X34007000Y20940585D01*
%TO.C,C53*%
X16640000Y52407836D02*
X16640000Y52192164D01*
X17360000Y52407836D02*
X17360000Y52192164D01*
%TO.C,C39*%
X32410000Y20659428D02*
X32410000Y20940588D01*
X31390000Y20659428D02*
X31390000Y20940588D01*
%TO.C,C32*%
X14810000Y12624518D02*
X14810000Y12905678D01*
X13790000Y12624518D02*
X13790000Y12905678D01*
%TO.C,R9*%
X8209500Y52307742D02*
X8209500Y52782258D01*
X9254500Y52307742D02*
X9254500Y52782258D01*
%TO.C,C49*%
X29181000Y17334420D02*
X29181000Y17615580D01*
X28161000Y17334420D02*
X28161000Y17615580D01*
%TO.C,C46*%
X37182000Y23859420D02*
X37182000Y24140580D01*
X36162000Y23859420D02*
X36162000Y24140580D01*
%TO.C,C24*%
X14810000Y16040580D02*
X14810000Y15759420D01*
X13790000Y16040580D02*
X13790000Y15759420D01*
%TO.C,C37*%
X29790000Y20659420D02*
X29790000Y20940580D01*
X30810000Y20659420D02*
X30810000Y20940580D01*
%TO.C,TP3*%
X20849999Y20450000D02*
X18749999Y20450000D01*
X20849999Y17650000D02*
X17949999Y17650000D01*
X20849999Y20450000D02*
X20849999Y17650000D01*
X17799999Y20600000D02*
X17799999Y19750000D01*
X18649999Y20600000D02*
X17799999Y20600000D01*
X17949999Y17650000D02*
X17949999Y19650000D01*
%TO.C,R5*%
X7603500Y52782258D02*
X7603500Y52307742D01*
X6558500Y52782258D02*
X6558500Y52307742D01*
%TO.C,C11*%
X13789998Y9478420D02*
X13789998Y9759580D01*
X14809998Y9478420D02*
X14809998Y9759580D01*
D17*
%TO.C,U1*%
X28385000Y40734000D02*
X23835000Y40734000D01*
X28385000Y45814000D02*
X23835000Y45814000D01*
D12*
X22600000Y45074000D02*
X22600000Y45074000D01*
X22600000Y45274000D02*
X22600000Y45274000D01*
X22600000Y45274000D02*
G75*
G03*
X22600000Y45074000I0J-100000D01*
G01*
X22600000Y45074000D02*
G75*
G03*
X22600000Y45274000I0J100000D01*
G01*
D13*
%TO.C,C23*%
X15239998Y15807837D02*
X15239998Y15592165D01*
X15959998Y15807837D02*
X15959998Y15592165D01*
%TO.C,C18*%
X24226453Y9627064D02*
X24226453Y9842736D01*
X23506453Y9627064D02*
X23506453Y9842736D01*
%TO.C,C45*%
X35658000Y17359420D02*
X35658000Y17640580D01*
X34638000Y17359420D02*
X34638000Y17640580D01*
%TO.C,TP2*%
X20849999Y35649995D02*
X20849999Y32849995D01*
X18649999Y35799995D02*
X17799999Y35799995D01*
X20849999Y32849995D02*
X17949999Y32849995D01*
X17799999Y35799995D02*
X17799999Y34949995D01*
X17949999Y32849995D02*
X17949999Y34849995D01*
X20849999Y35649995D02*
X18749999Y35649995D01*
%TO.C,C19*%
X24732000Y9359420D02*
X24732000Y9640580D01*
X25752000Y9359420D02*
X25752000Y9640580D01*
%TO.C,C38*%
X34590000Y38461580D02*
X34590000Y38180420D01*
X35610000Y38461580D02*
X35610000Y38180420D01*
%TO.C,C8*%
X24859000Y28682580D02*
X24859000Y28401420D01*
X25879000Y28682580D02*
X25879000Y28401420D01*
D14*
%TO.C,U5*%
X30970988Y32900005D02*
G75*
G03*
X30970988Y32900005I-125000J0D01*
G01*
D13*
%TO.C,C10*%
X15959998Y9711163D02*
X15959998Y9926835D01*
X15239998Y9711163D02*
X15239998Y9926835D01*
%TO.C,TP4*%
X30650012Y40426993D02*
X32750012Y40426993D01*
X32850012Y40276993D02*
X33700012Y40276993D01*
X30650012Y43226993D02*
X33550012Y43226993D01*
X33700012Y40276993D02*
X33700012Y41126993D01*
X30650012Y40426993D02*
X30650012Y43226993D01*
X33550012Y43226993D02*
X33550012Y41226993D01*
%TO.C,C52*%
X16110000Y52685580D02*
X16110000Y52404420D01*
X15090000Y52685580D02*
X15090000Y52404420D01*
%TO.C,C30*%
X33899000Y33706841D02*
X33899000Y33491169D01*
X34619000Y33706841D02*
X34619000Y33491169D01*
%TO.C,C5*%
X24859000Y20654420D02*
X24859000Y20935580D01*
X25879000Y20654420D02*
X25879000Y20935580D01*
%TO.C,C44*%
X35620000Y33729836D02*
X35620000Y33514164D01*
X36340000Y33729836D02*
X36340000Y33514164D01*
%TO.C,L1*%
X18762779Y24240000D02*
X18437221Y24240000D01*
X18762779Y25260000D02*
X18437221Y25260000D01*
D14*
%TO.C,U4*%
X28024989Y23099998D02*
G75*
G03*
X28024989Y23099998I-125000J0D01*
G01*
D13*
%TO.C,C48*%
X37540000Y33729836D02*
X37540000Y33514164D01*
X36820000Y33729836D02*
X36820000Y33514164D01*
%TO.C,C40*%
X23208000Y23956420D02*
X23208000Y24237580D01*
X24228000Y23956420D02*
X24228000Y24237580D01*
%TO.C,C51*%
X29790004Y17615575D02*
X29790004Y17334415D01*
X30810004Y17615575D02*
X30810004Y17334415D01*
%TO.C,C33*%
X13210004Y12624518D02*
X13210004Y12905678D01*
X12190004Y12624518D02*
X12190004Y12905678D01*
%TO.C,C29*%
X32510002Y31467969D02*
X32510002Y31683641D01*
X31790002Y31467969D02*
X31790002Y31683641D01*
%TO.C,R6*%
X7476500Y45416258D02*
X7476500Y44941742D01*
X6431500Y45416258D02*
X6431500Y44941742D01*
D14*
%TO.C,U8*%
X21425001Y55749993D02*
G75*
G03*
X21425001Y55749993I-125000J0D01*
G01*
D13*
%TO.C,R8*%
X9733500Y44941742D02*
X9733500Y45416258D01*
X10778500Y44941742D02*
X10778500Y45416258D01*
%TO.C,C17*%
X12190000Y19240583D02*
X12190000Y18959423D01*
X13210000Y19240583D02*
X13210000Y18959423D01*
%TO.C,C21*%
X29181000Y20654420D02*
X29181000Y20935580D01*
X28161000Y20654420D02*
X28161000Y20935580D01*
%TO.C,R3*%
X35600000Y35468359D02*
X35600000Y35775641D01*
X36360000Y35468359D02*
X36360000Y35775641D01*
%TO.C,C41*%
X26510000Y35959420D02*
X26510000Y36240580D01*
X27530000Y35959420D02*
X27530000Y36240580D01*
%TO.C,C14*%
X29181000Y32492580D02*
X29181000Y32211420D01*
X28161000Y32492580D02*
X28161000Y32211420D01*
%TO.C,L2*%
X31462779Y36390000D02*
X31137221Y36390000D01*
X31462779Y37410000D02*
X31137221Y37410000D01*
%TO.C,C22*%
X31737995Y38919164D02*
X31737995Y39134836D01*
X32457995Y38919164D02*
X32457995Y39134836D01*
%TO.C,C36*%
X27276000Y12825680D02*
X27276000Y12544520D01*
X26256000Y12825680D02*
X26256000Y12544520D01*
%TO.C,U6*%
X9113000Y50422000D02*
X8313000Y50422000D01*
X9113000Y47302000D02*
X10913000Y47302000D01*
X9113000Y47302000D02*
X8313000Y47302000D01*
X9113000Y50422000D02*
X9913000Y50422000D01*
%TO.C,C26*%
X24226453Y15707834D02*
X24226453Y15492162D01*
X23506453Y15707834D02*
X23506453Y15492162D01*
%TD*%
M02*
