%TF.GenerationSoftware,KiCad,Pcbnew,(6.0.1)*%
%TF.CreationDate,2022-03-10T13:17:56+01:00*%
%TF.ProjectId,XCOMMS_RF,58434f4d-4d53-45f5-9246-2e6b69636164,rev?*%
%TF.SameCoordinates,PX7ed6b40PY82a7440*%
%TF.FileFunction,Legend,Top*%
%TF.FilePolarity,Positive*%
%FSLAX46Y46*%
G04 Gerber Fmt 4.6, Leading zero omitted, Abs format (unit mm)*
G04 Created by KiCad (PCBNEW (6.0.1)) date 2022-03-10 13:17:56*
%MOMM*%
%LPD*%
G01*
G04 APERTURE LIST*
%ADD10C,0.000000*%
%ADD11C,0.127000*%
%ADD12C,0.120000*%
%ADD13C,0.250000*%
%ADD14C,0.325000*%
%ADD15C,0.200000*%
%ADD16C,0.254000*%
%ADD17C,0.100000*%
G04 APERTURE END LIST*
D10*
G36*
X16585653Y11609501D02*
G01*
X16331653Y11609501D01*
X16331653Y11990501D01*
X16585653Y11990501D01*
X16585653Y11609501D01*
G37*
G36*
X23053052Y10949101D02*
G01*
X22799052Y10949101D01*
X22799052Y11330101D01*
X23053052Y11330101D01*
X23053052Y10949101D01*
G37*
D11*
%TO.C,C35*%
X29893226Y12103629D02*
X29917417Y12079439D01*
X29941607Y12006867D01*
X29941607Y11958486D01*
X29917417Y11885915D01*
X29869036Y11837534D01*
X29820655Y11813343D01*
X29723893Y11789153D01*
X29651321Y11789153D01*
X29554559Y11813343D01*
X29506178Y11837534D01*
X29457798Y11885915D01*
X29433607Y11958486D01*
X29433607Y12006867D01*
X29457798Y12079439D01*
X29481988Y12103629D01*
X29433607Y12272962D02*
X29433607Y12587439D01*
X29627131Y12418105D01*
X29627131Y12490677D01*
X29651321Y12539058D01*
X29675512Y12563248D01*
X29723893Y12587439D01*
X29844845Y12587439D01*
X29893226Y12563248D01*
X29917417Y12539058D01*
X29941607Y12490677D01*
X29941607Y12345534D01*
X29917417Y12297153D01*
X29893226Y12272962D01*
X29433607Y13047058D02*
X29433607Y12805153D01*
X29675512Y12780962D01*
X29651321Y12805153D01*
X29627131Y12853534D01*
X29627131Y12974486D01*
X29651321Y13022867D01*
X29675512Y13047058D01*
X29723893Y13071248D01*
X29844845Y13071248D01*
X29893226Y13047058D01*
X29917417Y13022867D01*
X29941607Y12974486D01*
X29941607Y12853534D01*
X29917417Y12805153D01*
X29893226Y12780962D01*
%TO.C,C12*%
X9573226Y8293629D02*
X9597417Y8269439D01*
X9621607Y8196867D01*
X9621607Y8148486D01*
X9597417Y8075915D01*
X9549036Y8027534D01*
X9500655Y8003343D01*
X9403893Y7979153D01*
X9331321Y7979153D01*
X9234559Y8003343D01*
X9186178Y8027534D01*
X9137798Y8075915D01*
X9113607Y8148486D01*
X9113607Y8196867D01*
X9137798Y8269439D01*
X9161988Y8293629D01*
X9621607Y8777439D02*
X9621607Y8487153D01*
X9621607Y8632296D02*
X9113607Y8632296D01*
X9186178Y8583915D01*
X9234559Y8535534D01*
X9258750Y8487153D01*
X9161988Y8970962D02*
X9137798Y8995153D01*
X9113607Y9043534D01*
X9113607Y9164486D01*
X9137798Y9212867D01*
X9161988Y9237058D01*
X9210369Y9261248D01*
X9258750Y9261248D01*
X9331321Y9237058D01*
X9621607Y8946772D01*
X9621607Y9261248D01*
%TO.C,C25*%
X9573226Y15659629D02*
X9597417Y15635439D01*
X9621607Y15562867D01*
X9621607Y15514486D01*
X9597417Y15441915D01*
X9549036Y15393534D01*
X9500655Y15369343D01*
X9403893Y15345153D01*
X9331321Y15345153D01*
X9234559Y15369343D01*
X9186178Y15393534D01*
X9137798Y15441915D01*
X9113607Y15514486D01*
X9113607Y15562867D01*
X9137798Y15635439D01*
X9161988Y15659629D01*
X9161988Y15853153D02*
X9137798Y15877343D01*
X9113607Y15925724D01*
X9113607Y16046677D01*
X9137798Y16095058D01*
X9161988Y16119248D01*
X9210369Y16143439D01*
X9258750Y16143439D01*
X9331321Y16119248D01*
X9621607Y15828962D01*
X9621607Y16143439D01*
X9113607Y16603058D02*
X9113607Y16361153D01*
X9355512Y16336962D01*
X9331321Y16361153D01*
X9307131Y16409534D01*
X9307131Y16530486D01*
X9331321Y16578867D01*
X9355512Y16603058D01*
X9403893Y16627248D01*
X9524845Y16627248D01*
X9573226Y16603058D01*
X9597417Y16578867D01*
X9621607Y16530486D01*
X9621607Y16409534D01*
X9597417Y16361153D01*
X9573226Y16336962D01*
%TO.C,R4*%
X36545607Y49429534D02*
X36303702Y49260200D01*
X36545607Y49139248D02*
X36037607Y49139248D01*
X36037607Y49332772D01*
X36061798Y49381153D01*
X36085988Y49405343D01*
X36134369Y49429534D01*
X36206940Y49429534D01*
X36255321Y49405343D01*
X36279512Y49381153D01*
X36303702Y49332772D01*
X36303702Y49139248D01*
X36206940Y49864962D02*
X36545607Y49864962D01*
X36013417Y49744010D02*
X36376274Y49623058D01*
X36376274Y49937534D01*
%TO.C,U2*%
X17241607Y30331153D02*
X17652845Y30331153D01*
X17701226Y30355343D01*
X17725417Y30379534D01*
X17749607Y30427915D01*
X17749607Y30524677D01*
X17725417Y30573058D01*
X17701226Y30597248D01*
X17652845Y30621439D01*
X17241607Y30621439D01*
X17289988Y30839153D02*
X17265798Y30863343D01*
X17241607Y30911724D01*
X17241607Y31032677D01*
X17265798Y31081058D01*
X17289988Y31105248D01*
X17338369Y31129439D01*
X17386750Y31129439D01*
X17459321Y31105248D01*
X17749607Y30814962D01*
X17749607Y31129439D01*
%TO.C,C2*%
X18336236Y34815339D02*
X18360427Y34791148D01*
X18384617Y34718577D01*
X18384617Y34670196D01*
X18360427Y34597625D01*
X18312046Y34549244D01*
X18263665Y34525053D01*
X18166903Y34500863D01*
X18094331Y34500863D01*
X17997569Y34525053D01*
X17949188Y34549244D01*
X17900808Y34597625D01*
X17876617Y34670196D01*
X17876617Y34718577D01*
X17900808Y34791148D01*
X17924998Y34815339D01*
X17924998Y35008863D02*
X17900808Y35033053D01*
X17876617Y35081434D01*
X17876617Y35202386D01*
X17900808Y35250767D01*
X17924998Y35274958D01*
X17973379Y35299148D01*
X18021760Y35299148D01*
X18094331Y35274958D01*
X18384617Y34984672D01*
X18384617Y35299148D01*
%TO.C,C34*%
X28877226Y12103629D02*
X28901417Y12079439D01*
X28925607Y12006867D01*
X28925607Y11958486D01*
X28901417Y11885915D01*
X28853036Y11837534D01*
X28804655Y11813343D01*
X28707893Y11789153D01*
X28635321Y11789153D01*
X28538559Y11813343D01*
X28490178Y11837534D01*
X28441798Y11885915D01*
X28417607Y11958486D01*
X28417607Y12006867D01*
X28441798Y12079439D01*
X28465988Y12103629D01*
X28417607Y12272962D02*
X28417607Y12587439D01*
X28611131Y12418105D01*
X28611131Y12490677D01*
X28635321Y12539058D01*
X28659512Y12563248D01*
X28707893Y12587439D01*
X28828845Y12587439D01*
X28877226Y12563248D01*
X28901417Y12539058D01*
X28925607Y12490677D01*
X28925607Y12345534D01*
X28901417Y12297153D01*
X28877226Y12272962D01*
X28586940Y13022867D02*
X28925607Y13022867D01*
X28393417Y12901915D02*
X28756274Y12780962D01*
X28756274Y13095439D01*
%TO.C,U3*%
X19414171Y11743154D02*
X19825409Y11743154D01*
X19873790Y11767344D01*
X19897981Y11791535D01*
X19922171Y11839916D01*
X19922171Y11936678D01*
X19897981Y11985059D01*
X19873790Y12009249D01*
X19825409Y12033440D01*
X19414171Y12033440D01*
X19414171Y12226963D02*
X19414171Y12541440D01*
X19607695Y12372106D01*
X19607695Y12444678D01*
X19631885Y12493059D01*
X19656076Y12517249D01*
X19704457Y12541440D01*
X19825409Y12541440D01*
X19873790Y12517249D01*
X19897981Y12493059D01*
X19922171Y12444678D01*
X19922171Y12299535D01*
X19897981Y12251154D01*
X19873790Y12226963D01*
%TO.C,FL1*%
X21285045Y47823286D02*
X21115712Y47823286D01*
X21115712Y47557191D02*
X21115712Y48065191D01*
X21357617Y48065191D01*
X21793045Y47557191D02*
X21551140Y47557191D01*
X21551140Y48065191D01*
X22228474Y47557191D02*
X21938188Y47557191D01*
X22083331Y47557191D02*
X22083331Y48065191D01*
X22034950Y47992620D01*
X21986569Y47944239D01*
X21938188Y47920048D01*
%TO.C,C28*%
X30909226Y15405629D02*
X30933417Y15381439D01*
X30957607Y15308867D01*
X30957607Y15260486D01*
X30933417Y15187915D01*
X30885036Y15139534D01*
X30836655Y15115343D01*
X30739893Y15091153D01*
X30667321Y15091153D01*
X30570559Y15115343D01*
X30522178Y15139534D01*
X30473798Y15187915D01*
X30449607Y15260486D01*
X30449607Y15308867D01*
X30473798Y15381439D01*
X30497988Y15405629D01*
X30497988Y15599153D02*
X30473798Y15623343D01*
X30449607Y15671724D01*
X30449607Y15792677D01*
X30473798Y15841058D01*
X30497988Y15865248D01*
X30546369Y15889439D01*
X30594750Y15889439D01*
X30667321Y15865248D01*
X30957607Y15574962D01*
X30957607Y15889439D01*
X30667321Y16179724D02*
X30643131Y16131343D01*
X30618940Y16107153D01*
X30570559Y16082962D01*
X30546369Y16082962D01*
X30497988Y16107153D01*
X30473798Y16131343D01*
X30449607Y16179724D01*
X30449607Y16276486D01*
X30473798Y16324867D01*
X30497988Y16349058D01*
X30546369Y16373248D01*
X30570559Y16373248D01*
X30618940Y16349058D01*
X30643131Y16324867D01*
X30667321Y16276486D01*
X30667321Y16179724D01*
X30691512Y16131343D01*
X30715702Y16107153D01*
X30764083Y16082962D01*
X30860845Y16082962D01*
X30909226Y16107153D01*
X30933417Y16131343D01*
X30957607Y16179724D01*
X30957607Y16276486D01*
X30933417Y16324867D01*
X30909226Y16349058D01*
X30860845Y16373248D01*
X30764083Y16373248D01*
X30715702Y16349058D01*
X30691512Y16324867D01*
X30667321Y16276486D01*
%TO.C,C20*%
X30909226Y8293629D02*
X30933417Y8269439D01*
X30957607Y8196867D01*
X30957607Y8148486D01*
X30933417Y8075915D01*
X30885036Y8027534D01*
X30836655Y8003343D01*
X30739893Y7979153D01*
X30667321Y7979153D01*
X30570559Y8003343D01*
X30522178Y8027534D01*
X30473798Y8075915D01*
X30449607Y8148486D01*
X30449607Y8196867D01*
X30473798Y8269439D01*
X30497988Y8293629D01*
X30497988Y8487153D02*
X30473798Y8511343D01*
X30449607Y8559724D01*
X30449607Y8680677D01*
X30473798Y8729058D01*
X30497988Y8753248D01*
X30546369Y8777439D01*
X30594750Y8777439D01*
X30667321Y8753248D01*
X30957607Y8462962D01*
X30957607Y8777439D01*
X30449607Y9091915D02*
X30449607Y9140296D01*
X30473798Y9188677D01*
X30497988Y9212867D01*
X30546369Y9237058D01*
X30643131Y9261248D01*
X30764083Y9261248D01*
X30860845Y9237058D01*
X30909226Y9212867D01*
X30933417Y9188677D01*
X30957607Y9140296D01*
X30957607Y9091915D01*
X30933417Y9043534D01*
X30909226Y9019343D01*
X30860845Y8995153D01*
X30764083Y8970962D01*
X30643131Y8970962D01*
X30546369Y8995153D01*
X30497988Y9019343D01*
X30473798Y9043534D01*
X30449607Y9091915D01*
%TO.C,C3*%
X15376026Y28709734D02*
X15400217Y28685543D01*
X15424407Y28612972D01*
X15424407Y28564591D01*
X15400217Y28492020D01*
X15351836Y28443639D01*
X15303455Y28419448D01*
X15206693Y28395258D01*
X15134121Y28395258D01*
X15037359Y28419448D01*
X14988978Y28443639D01*
X14940598Y28492020D01*
X14916407Y28564591D01*
X14916407Y28612972D01*
X14940598Y28685543D01*
X14964788Y28709734D01*
X14916407Y28879067D02*
X14916407Y29193543D01*
X15109931Y29024210D01*
X15109931Y29096781D01*
X15134121Y29145162D01*
X15158312Y29169353D01*
X15206693Y29193543D01*
X15327645Y29193543D01*
X15376026Y29169353D01*
X15400217Y29145162D01*
X15424407Y29096781D01*
X15424407Y28951639D01*
X15400217Y28903258D01*
X15376026Y28879067D01*
%TO.C,C16*%
X10462226Y19469629D02*
X10486417Y19445439D01*
X10510607Y19372867D01*
X10510607Y19324486D01*
X10486417Y19251915D01*
X10438036Y19203534D01*
X10389655Y19179343D01*
X10292893Y19155153D01*
X10220321Y19155153D01*
X10123559Y19179343D01*
X10075178Y19203534D01*
X10026798Y19251915D01*
X10002607Y19324486D01*
X10002607Y19372867D01*
X10026798Y19445439D01*
X10050988Y19469629D01*
X10510607Y19953439D02*
X10510607Y19663153D01*
X10510607Y19808296D02*
X10002607Y19808296D01*
X10075178Y19759915D01*
X10123559Y19711534D01*
X10147750Y19663153D01*
X10002607Y20388867D02*
X10002607Y20292105D01*
X10026798Y20243724D01*
X10050988Y20219534D01*
X10123559Y20171153D01*
X10220321Y20146962D01*
X10413845Y20146962D01*
X10462226Y20171153D01*
X10486417Y20195343D01*
X10510607Y20243724D01*
X10510607Y20340486D01*
X10486417Y20388867D01*
X10462226Y20413058D01*
X10413845Y20437248D01*
X10292893Y20437248D01*
X10244512Y20413058D01*
X10220321Y20388867D01*
X10196131Y20340486D01*
X10196131Y20243724D01*
X10220321Y20195343D01*
X10244512Y20171153D01*
X10292893Y20146962D01*
%TO.C,C27*%
X29893226Y15405629D02*
X29917417Y15381439D01*
X29941607Y15308867D01*
X29941607Y15260486D01*
X29917417Y15187915D01*
X29869036Y15139534D01*
X29820655Y15115343D01*
X29723893Y15091153D01*
X29651321Y15091153D01*
X29554559Y15115343D01*
X29506178Y15139534D01*
X29457798Y15187915D01*
X29433607Y15260486D01*
X29433607Y15308867D01*
X29457798Y15381439D01*
X29481988Y15405629D01*
X29481988Y15599153D02*
X29457798Y15623343D01*
X29433607Y15671724D01*
X29433607Y15792677D01*
X29457798Y15841058D01*
X29481988Y15865248D01*
X29530369Y15889439D01*
X29578750Y15889439D01*
X29651321Y15865248D01*
X29941607Y15574962D01*
X29941607Y15889439D01*
X29433607Y16058772D02*
X29433607Y16397439D01*
X29941607Y16179724D01*
%TO.C,C42*%
X26159426Y50254429D02*
X26183617Y50230239D01*
X26207807Y50157667D01*
X26207807Y50109286D01*
X26183617Y50036715D01*
X26135236Y49988334D01*
X26086855Y49964143D01*
X25990093Y49939953D01*
X25917521Y49939953D01*
X25820759Y49964143D01*
X25772378Y49988334D01*
X25723998Y50036715D01*
X25699807Y50109286D01*
X25699807Y50157667D01*
X25723998Y50230239D01*
X25748188Y50254429D01*
X25869140Y50689858D02*
X26207807Y50689858D01*
X25675617Y50568905D02*
X26038474Y50447953D01*
X26038474Y50762429D01*
X25748188Y50931762D02*
X25723998Y50955953D01*
X25699807Y51004334D01*
X25699807Y51125286D01*
X25723998Y51173667D01*
X25748188Y51197858D01*
X25796569Y51222048D01*
X25844950Y51222048D01*
X25917521Y51197858D01*
X26207807Y50907572D01*
X26207807Y51222048D01*
%TO.C,TP1*%
X16116750Y40826202D02*
X16407036Y40826202D01*
X16261893Y40318202D02*
X16261893Y40826202D01*
X16576369Y40318202D02*
X16576369Y40826202D01*
X16769893Y40826202D01*
X16818274Y40802011D01*
X16842464Y40777821D01*
X16866655Y40729440D01*
X16866655Y40656869D01*
X16842464Y40608488D01*
X16818274Y40584297D01*
X16769893Y40560107D01*
X16576369Y40560107D01*
X17350464Y40318202D02*
X17060178Y40318202D01*
X17205321Y40318202D02*
X17205321Y40826202D01*
X17156940Y40753631D01*
X17108559Y40705250D01*
X17060178Y40681059D01*
%TO.C,C47*%
X35000628Y40221429D02*
X35024819Y40197239D01*
X35049009Y40124667D01*
X35049009Y40076286D01*
X35024819Y40003715D01*
X34976438Y39955334D01*
X34928057Y39931143D01*
X34831295Y39906953D01*
X34758723Y39906953D01*
X34661961Y39931143D01*
X34613580Y39955334D01*
X34565200Y40003715D01*
X34541009Y40076286D01*
X34541009Y40124667D01*
X34565200Y40197239D01*
X34589390Y40221429D01*
X34710342Y40656858D02*
X35049009Y40656858D01*
X34516819Y40535905D02*
X34879676Y40414953D01*
X34879676Y40729429D01*
X34541009Y40874572D02*
X34541009Y41213239D01*
X35049009Y40995524D01*
%TO.C,C9*%
X21892226Y40285534D02*
X21916417Y40261343D01*
X21940607Y40188772D01*
X21940607Y40140391D01*
X21916417Y40067820D01*
X21868036Y40019439D01*
X21819655Y39995248D01*
X21722893Y39971058D01*
X21650321Y39971058D01*
X21553559Y39995248D01*
X21505178Y40019439D01*
X21456798Y40067820D01*
X21432607Y40140391D01*
X21432607Y40188772D01*
X21456798Y40261343D01*
X21480988Y40285534D01*
X21940607Y40527439D02*
X21940607Y40624200D01*
X21916417Y40672581D01*
X21892226Y40696772D01*
X21819655Y40745153D01*
X21722893Y40769343D01*
X21529369Y40769343D01*
X21480988Y40745153D01*
X21456798Y40720962D01*
X21432607Y40672581D01*
X21432607Y40575820D01*
X21456798Y40527439D01*
X21480988Y40503248D01*
X21529369Y40479058D01*
X21650321Y40479058D01*
X21698702Y40503248D01*
X21722893Y40527439D01*
X21747083Y40575820D01*
X21747083Y40672581D01*
X21722893Y40720962D01*
X21698702Y40745153D01*
X21650321Y40769343D01*
%TO.C,C15*%
X11351226Y19469629D02*
X11375417Y19445439D01*
X11399607Y19372867D01*
X11399607Y19324486D01*
X11375417Y19251915D01*
X11327036Y19203534D01*
X11278655Y19179343D01*
X11181893Y19155153D01*
X11109321Y19155153D01*
X11012559Y19179343D01*
X10964178Y19203534D01*
X10915798Y19251915D01*
X10891607Y19324486D01*
X10891607Y19372867D01*
X10915798Y19445439D01*
X10939988Y19469629D01*
X11399607Y19953439D02*
X11399607Y19663153D01*
X11399607Y19808296D02*
X10891607Y19808296D01*
X10964178Y19759915D01*
X11012559Y19711534D01*
X11036750Y19663153D01*
X10891607Y20413058D02*
X10891607Y20171153D01*
X11133512Y20146962D01*
X11109321Y20171153D01*
X11085131Y20219534D01*
X11085131Y20340486D01*
X11109321Y20388867D01*
X11133512Y20413058D01*
X11181893Y20437248D01*
X11302845Y20437248D01*
X11351226Y20413058D01*
X11375417Y20388867D01*
X11399607Y20340486D01*
X11399607Y20219534D01*
X11375417Y20171153D01*
X11351226Y20146962D01*
%TO.C,C13*%
X21384226Y42347772D02*
X21360036Y42323581D01*
X21287464Y42299391D01*
X21239083Y42299391D01*
X21166512Y42323581D01*
X21118131Y42371962D01*
X21093940Y42420343D01*
X21069750Y42517105D01*
X21069750Y42589677D01*
X21093940Y42686439D01*
X21118131Y42734820D01*
X21166512Y42783200D01*
X21239083Y42807391D01*
X21287464Y42807391D01*
X21360036Y42783200D01*
X21384226Y42759010D01*
X21868036Y42299391D02*
X21577750Y42299391D01*
X21722893Y42299391D02*
X21722893Y42807391D01*
X21674512Y42734820D01*
X21626131Y42686439D01*
X21577750Y42662248D01*
X22037369Y42807391D02*
X22351845Y42807391D01*
X22182512Y42613867D01*
X22255083Y42613867D01*
X22303464Y42589677D01*
X22327655Y42565486D01*
X22351845Y42517105D01*
X22351845Y42396153D01*
X22327655Y42347772D01*
X22303464Y42323581D01*
X22255083Y42299391D01*
X22109940Y42299391D01*
X22061559Y42323581D01*
X22037369Y42347772D01*
%TO.C,C31*%
X11351226Y11849629D02*
X11375417Y11825439D01*
X11399607Y11752867D01*
X11399607Y11704486D01*
X11375417Y11631915D01*
X11327036Y11583534D01*
X11278655Y11559343D01*
X11181893Y11535153D01*
X11109321Y11535153D01*
X11012559Y11559343D01*
X10964178Y11583534D01*
X10915798Y11631915D01*
X10891607Y11704486D01*
X10891607Y11752867D01*
X10915798Y11825439D01*
X10939988Y11849629D01*
X10891607Y12018962D02*
X10891607Y12333439D01*
X11085131Y12164105D01*
X11085131Y12236677D01*
X11109321Y12285058D01*
X11133512Y12309248D01*
X11181893Y12333439D01*
X11302845Y12333439D01*
X11351226Y12309248D01*
X11375417Y12285058D01*
X11399607Y12236677D01*
X11399607Y12091534D01*
X11375417Y12043153D01*
X11351226Y12018962D01*
X11399607Y12817248D02*
X11399607Y12526962D01*
X11399607Y12672105D02*
X10891607Y12672105D01*
X10964178Y12623724D01*
X11012559Y12575343D01*
X11036750Y12526962D01*
%TO.C,C7*%
X24369331Y30333572D02*
X24345140Y30309381D01*
X24272569Y30285191D01*
X24224188Y30285191D01*
X24151617Y30309381D01*
X24103236Y30357762D01*
X24079045Y30406143D01*
X24054855Y30502905D01*
X24054855Y30575477D01*
X24079045Y30672239D01*
X24103236Y30720620D01*
X24151617Y30769000D01*
X24224188Y30793191D01*
X24272569Y30793191D01*
X24345140Y30769000D01*
X24369331Y30744810D01*
X24538664Y30793191D02*
X24877331Y30793191D01*
X24659617Y30285191D01*
%TO.C,R10*%
X3350226Y8771391D02*
X3180893Y9013296D01*
X3059940Y8771391D02*
X3059940Y9279391D01*
X3253464Y9279391D01*
X3301845Y9255200D01*
X3326036Y9231010D01*
X3350226Y9182629D01*
X3350226Y9110058D01*
X3326036Y9061677D01*
X3301845Y9037486D01*
X3253464Y9013296D01*
X3059940Y9013296D01*
X3834036Y8771391D02*
X3543750Y8771391D01*
X3688893Y8771391D02*
X3688893Y9279391D01*
X3640512Y9206820D01*
X3592131Y9158439D01*
X3543750Y9134248D01*
X4148512Y9279391D02*
X4196893Y9279391D01*
X4245274Y9255200D01*
X4269464Y9231010D01*
X4293655Y9182629D01*
X4317845Y9085867D01*
X4317845Y8964915D01*
X4293655Y8868153D01*
X4269464Y8819772D01*
X4245274Y8795581D01*
X4196893Y8771391D01*
X4148512Y8771391D01*
X4100131Y8795581D01*
X4075940Y8819772D01*
X4051750Y8868153D01*
X4027559Y8964915D01*
X4027559Y9085867D01*
X4051750Y9182629D01*
X4075940Y9231010D01*
X4100131Y9255200D01*
X4148512Y9279391D01*
%TO.C,R7*%
X6827607Y21286334D02*
X6585702Y21117000D01*
X6827607Y20996048D02*
X6319607Y20996048D01*
X6319607Y21189572D01*
X6343798Y21237953D01*
X6367988Y21262143D01*
X6416369Y21286334D01*
X6488940Y21286334D01*
X6537321Y21262143D01*
X6561512Y21237953D01*
X6585702Y21189572D01*
X6585702Y20996048D01*
X6319607Y21455667D02*
X6319607Y21794334D01*
X6827607Y21576620D01*
%TO.C,C6*%
X21784222Y34433534D02*
X21808413Y34409343D01*
X21832603Y34336772D01*
X21832603Y34288391D01*
X21808413Y34215820D01*
X21760032Y34167439D01*
X21711651Y34143248D01*
X21614889Y34119058D01*
X21542317Y34119058D01*
X21445555Y34143248D01*
X21397174Y34167439D01*
X21348794Y34215820D01*
X21324603Y34288391D01*
X21324603Y34336772D01*
X21348794Y34409343D01*
X21372984Y34433534D01*
X21324603Y34868962D02*
X21324603Y34772200D01*
X21348794Y34723820D01*
X21372984Y34699629D01*
X21445555Y34651248D01*
X21542317Y34627058D01*
X21735841Y34627058D01*
X21784222Y34651248D01*
X21808413Y34675439D01*
X21832603Y34723820D01*
X21832603Y34820581D01*
X21808413Y34868962D01*
X21784222Y34893153D01*
X21735841Y34917343D01*
X21614889Y34917343D01*
X21566508Y34893153D01*
X21542317Y34868962D01*
X21518127Y34820581D01*
X21518127Y34723820D01*
X21542317Y34675439D01*
X21566508Y34651248D01*
X21614889Y34627058D01*
%TO.C,R1*%
X31414807Y49353334D02*
X31172902Y49184000D01*
X31414807Y49063048D02*
X30906807Y49063048D01*
X30906807Y49256572D01*
X30930998Y49304953D01*
X30955188Y49329143D01*
X31003569Y49353334D01*
X31076140Y49353334D01*
X31124521Y49329143D01*
X31148712Y49304953D01*
X31172902Y49256572D01*
X31172902Y49063048D01*
X31414807Y49837143D02*
X31414807Y49546858D01*
X31414807Y49692000D02*
X30906807Y49692000D01*
X30979378Y49643620D01*
X31027759Y49595239D01*
X31051950Y49546858D01*
%TO.C,J1*%
X13667464Y59317391D02*
X13667464Y58954534D01*
X13643274Y58881962D01*
X13594893Y58833581D01*
X13522321Y58809391D01*
X13473940Y58809391D01*
X14175464Y58809391D02*
X13885178Y58809391D01*
X14030321Y58809391D02*
X14030321Y59317391D01*
X13981940Y59244820D01*
X13933559Y59196439D01*
X13885178Y59172248D01*
%TO.C,C1*%
X20728634Y23226945D02*
X20752825Y23202754D01*
X20777015Y23130183D01*
X20777015Y23081802D01*
X20752825Y23009231D01*
X20704444Y22960850D01*
X20656063Y22936659D01*
X20559301Y22912469D01*
X20486729Y22912469D01*
X20389967Y22936659D01*
X20341586Y22960850D01*
X20293206Y23009231D01*
X20269015Y23081802D01*
X20269015Y23130183D01*
X20293206Y23202754D01*
X20317396Y23226945D01*
X20777015Y23710754D02*
X20777015Y23420469D01*
X20777015Y23565611D02*
X20269015Y23565611D01*
X20341586Y23517231D01*
X20389967Y23468850D01*
X20414158Y23420469D01*
%TO.C,R2*%
X38196607Y27001334D02*
X37954702Y26832000D01*
X38196607Y26711048D02*
X37688607Y26711048D01*
X37688607Y26904572D01*
X37712798Y26952953D01*
X37736988Y26977143D01*
X37785369Y27001334D01*
X37857940Y27001334D01*
X37906321Y26977143D01*
X37930512Y26952953D01*
X37954702Y26904572D01*
X37954702Y26711048D01*
X37736988Y27194858D02*
X37712798Y27219048D01*
X37688607Y27267429D01*
X37688607Y27388381D01*
X37712798Y27436762D01*
X37736988Y27460953D01*
X37785369Y27485143D01*
X37833750Y27485143D01*
X37906321Y27460953D01*
X38196607Y27170667D01*
X38196607Y27485143D01*
%TO.C,Y1*%
X32263893Y23491296D02*
X32263893Y23249391D01*
X32094559Y23757391D02*
X32263893Y23491296D01*
X32433226Y23757391D01*
X32868655Y23249391D02*
X32578369Y23249391D01*
X32723512Y23249391D02*
X32723512Y23757391D01*
X32675131Y23684820D01*
X32626750Y23636439D01*
X32578369Y23612248D01*
%TO.C,C43*%
X32560226Y29629629D02*
X32584417Y29605439D01*
X32608607Y29532867D01*
X32608607Y29484486D01*
X32584417Y29411915D01*
X32536036Y29363534D01*
X32487655Y29339343D01*
X32390893Y29315153D01*
X32318321Y29315153D01*
X32221559Y29339343D01*
X32173178Y29363534D01*
X32124798Y29411915D01*
X32100607Y29484486D01*
X32100607Y29532867D01*
X32124798Y29605439D01*
X32148988Y29629629D01*
X32269940Y30065058D02*
X32608607Y30065058D01*
X32076417Y29944105D02*
X32439274Y29823153D01*
X32439274Y30137629D01*
X32100607Y30282772D02*
X32100607Y30597248D01*
X32294131Y30427915D01*
X32294131Y30500486D01*
X32318321Y30548867D01*
X32342512Y30573058D01*
X32390893Y30597248D01*
X32511845Y30597248D01*
X32560226Y30573058D01*
X32584417Y30548867D01*
X32608607Y30500486D01*
X32608607Y30355343D01*
X32584417Y30306962D01*
X32560226Y30282772D01*
%TO.C,C39*%
X31036226Y29629629D02*
X31060417Y29605439D01*
X31084607Y29532867D01*
X31084607Y29484486D01*
X31060417Y29411915D01*
X31012036Y29363534D01*
X30963655Y29339343D01*
X30866893Y29315153D01*
X30794321Y29315153D01*
X30697559Y29339343D01*
X30649178Y29363534D01*
X30600798Y29411915D01*
X30576607Y29484486D01*
X30576607Y29532867D01*
X30600798Y29605439D01*
X30624988Y29629629D01*
X30576607Y29798962D02*
X30576607Y30113439D01*
X30770131Y29944105D01*
X30770131Y30016677D01*
X30794321Y30065058D01*
X30818512Y30089248D01*
X30866893Y30113439D01*
X30987845Y30113439D01*
X31036226Y30089248D01*
X31060417Y30065058D01*
X31084607Y30016677D01*
X31084607Y29871534D01*
X31060417Y29823153D01*
X31036226Y29798962D01*
X31084607Y30355343D02*
X31084607Y30452105D01*
X31060417Y30500486D01*
X31036226Y30524677D01*
X30963655Y30573058D01*
X30866893Y30597248D01*
X30673369Y30597248D01*
X30624988Y30573058D01*
X30600798Y30548867D01*
X30576607Y30500486D01*
X30576607Y30403724D01*
X30600798Y30355343D01*
X30624988Y30331153D01*
X30673369Y30306962D01*
X30794321Y30306962D01*
X30842702Y30331153D01*
X30866893Y30355343D01*
X30891083Y30403724D01*
X30891083Y30500486D01*
X30866893Y30548867D01*
X30842702Y30573058D01*
X30794321Y30597248D01*
%TO.C,C32*%
X10462226Y11849629D02*
X10486417Y11825439D01*
X10510607Y11752867D01*
X10510607Y11704486D01*
X10486417Y11631915D01*
X10438036Y11583534D01*
X10389655Y11559343D01*
X10292893Y11535153D01*
X10220321Y11535153D01*
X10123559Y11559343D01*
X10075178Y11583534D01*
X10026798Y11631915D01*
X10002607Y11704486D01*
X10002607Y11752867D01*
X10026798Y11825439D01*
X10050988Y11849629D01*
X10002607Y12018962D02*
X10002607Y12333439D01*
X10196131Y12164105D01*
X10196131Y12236677D01*
X10220321Y12285058D01*
X10244512Y12309248D01*
X10292893Y12333439D01*
X10413845Y12333439D01*
X10462226Y12309248D01*
X10486417Y12285058D01*
X10510607Y12236677D01*
X10510607Y12091534D01*
X10486417Y12043153D01*
X10462226Y12018962D01*
X10050988Y12526962D02*
X10026798Y12551153D01*
X10002607Y12599534D01*
X10002607Y12720486D01*
X10026798Y12768867D01*
X10050988Y12793058D01*
X10099369Y12817248D01*
X10147750Y12817248D01*
X10220321Y12793058D01*
X10510607Y12502772D01*
X10510607Y12817248D01*
%TO.C,R9*%
X3338131Y9660391D02*
X3168798Y9902296D01*
X3047845Y9660391D02*
X3047845Y10168391D01*
X3241369Y10168391D01*
X3289750Y10144200D01*
X3313940Y10120010D01*
X3338131Y10071629D01*
X3338131Y9999058D01*
X3313940Y9950677D01*
X3289750Y9926486D01*
X3241369Y9902296D01*
X3047845Y9902296D01*
X3580036Y9660391D02*
X3676798Y9660391D01*
X3725178Y9684581D01*
X3749369Y9708772D01*
X3797750Y9781343D01*
X3821940Y9878105D01*
X3821940Y10071629D01*
X3797750Y10120010D01*
X3773559Y10144200D01*
X3725178Y10168391D01*
X3628417Y10168391D01*
X3580036Y10144200D01*
X3555845Y10120010D01*
X3531655Y10071629D01*
X3531655Y9950677D01*
X3555845Y9902296D01*
X3580036Y9878105D01*
X3628417Y9853915D01*
X3725178Y9853915D01*
X3773559Y9878105D01*
X3797750Y9902296D01*
X3821940Y9950677D01*
%TO.C,C49*%
X28115226Y21247629D02*
X28139417Y21223439D01*
X28163607Y21150867D01*
X28163607Y21102486D01*
X28139417Y21029915D01*
X28091036Y20981534D01*
X28042655Y20957343D01*
X27945893Y20933153D01*
X27873321Y20933153D01*
X27776559Y20957343D01*
X27728178Y20981534D01*
X27679798Y21029915D01*
X27655607Y21102486D01*
X27655607Y21150867D01*
X27679798Y21223439D01*
X27703988Y21247629D01*
X27824940Y21683058D02*
X28163607Y21683058D01*
X27631417Y21562105D02*
X27994274Y21441153D01*
X27994274Y21755629D01*
X28163607Y21973343D02*
X28163607Y22070105D01*
X28139417Y22118486D01*
X28115226Y22142677D01*
X28042655Y22191058D01*
X27945893Y22215248D01*
X27752369Y22215248D01*
X27703988Y22191058D01*
X27679798Y22166867D01*
X27655607Y22118486D01*
X27655607Y22021724D01*
X27679798Y21973343D01*
X27703988Y21949153D01*
X27752369Y21924962D01*
X27873321Y21924962D01*
X27921702Y21949153D01*
X27945893Y21973343D01*
X27970083Y22021724D01*
X27970083Y22118486D01*
X27945893Y22166867D01*
X27921702Y22191058D01*
X27873321Y22215248D01*
%TO.C,C46*%
X38021226Y30188429D02*
X38045417Y30164239D01*
X38069607Y30091667D01*
X38069607Y30043286D01*
X38045417Y29970715D01*
X37997036Y29922334D01*
X37948655Y29898143D01*
X37851893Y29873953D01*
X37779321Y29873953D01*
X37682559Y29898143D01*
X37634178Y29922334D01*
X37585798Y29970715D01*
X37561607Y30043286D01*
X37561607Y30091667D01*
X37585798Y30164239D01*
X37609988Y30188429D01*
X37730940Y30623858D02*
X38069607Y30623858D01*
X37537417Y30502905D02*
X37900274Y30381953D01*
X37900274Y30696429D01*
X37561607Y31107667D02*
X37561607Y31010905D01*
X37585798Y30962524D01*
X37609988Y30938334D01*
X37682559Y30889953D01*
X37779321Y30865762D01*
X37972845Y30865762D01*
X38021226Y30889953D01*
X38045417Y30914143D01*
X38069607Y30962524D01*
X38069607Y31059286D01*
X38045417Y31107667D01*
X38021226Y31131858D01*
X37972845Y31156048D01*
X37851893Y31156048D01*
X37803512Y31131858D01*
X37779321Y31107667D01*
X37755131Y31059286D01*
X37755131Y30962524D01*
X37779321Y30914143D01*
X37803512Y30889953D01*
X37851893Y30865762D01*
%TO.C,C24*%
X10462226Y15659629D02*
X10486417Y15635439D01*
X10510607Y15562867D01*
X10510607Y15514486D01*
X10486417Y15441915D01*
X10438036Y15393534D01*
X10389655Y15369343D01*
X10292893Y15345153D01*
X10220321Y15345153D01*
X10123559Y15369343D01*
X10075178Y15393534D01*
X10026798Y15441915D01*
X10002607Y15514486D01*
X10002607Y15562867D01*
X10026798Y15635439D01*
X10050988Y15659629D01*
X10050988Y15853153D02*
X10026798Y15877343D01*
X10002607Y15925724D01*
X10002607Y16046677D01*
X10026798Y16095058D01*
X10050988Y16119248D01*
X10099369Y16143439D01*
X10147750Y16143439D01*
X10220321Y16119248D01*
X10510607Y15828962D01*
X10510607Y16143439D01*
X10171940Y16578867D02*
X10510607Y16578867D01*
X9978417Y16457915D02*
X10341274Y16336962D01*
X10341274Y16651439D01*
%TO.C,C37*%
X24000426Y26777572D02*
X23976236Y26753381D01*
X23903664Y26729191D01*
X23855283Y26729191D01*
X23782712Y26753381D01*
X23734331Y26801762D01*
X23710140Y26850143D01*
X23685950Y26946905D01*
X23685950Y27019477D01*
X23710140Y27116239D01*
X23734331Y27164620D01*
X23782712Y27213000D01*
X23855283Y27237191D01*
X23903664Y27237191D01*
X23976236Y27213000D01*
X24000426Y27188810D01*
X24169759Y27237191D02*
X24484236Y27237191D01*
X24314902Y27043667D01*
X24387474Y27043667D01*
X24435855Y27019477D01*
X24460045Y26995286D01*
X24484236Y26946905D01*
X24484236Y26825953D01*
X24460045Y26777572D01*
X24435855Y26753381D01*
X24387474Y26729191D01*
X24242331Y26729191D01*
X24193950Y26753381D01*
X24169759Y26777572D01*
X24653569Y27237191D02*
X24992236Y27237191D01*
X24774521Y26729191D01*
%TO.C,TP3*%
X31534550Y54135791D02*
X31824836Y54135791D01*
X31679693Y53627791D02*
X31679693Y54135791D01*
X31994169Y53627791D02*
X31994169Y54135791D01*
X32187693Y54135791D01*
X32236074Y54111600D01*
X32260264Y54087410D01*
X32284455Y54039029D01*
X32284455Y53966458D01*
X32260264Y53918077D01*
X32236074Y53893886D01*
X32187693Y53869696D01*
X31994169Y53869696D01*
X32453788Y54135791D02*
X32768264Y54135791D01*
X32598931Y53942267D01*
X32671502Y53942267D01*
X32719883Y53918077D01*
X32744074Y53893886D01*
X32768264Y53845505D01*
X32768264Y53724553D01*
X32744074Y53676172D01*
X32719883Y53651981D01*
X32671502Y53627791D01*
X32526359Y53627791D01*
X32477978Y53651981D01*
X32453788Y53676172D01*
%TO.C,R5*%
X8478607Y13996534D02*
X8236702Y13827200D01*
X8478607Y13706248D02*
X7970607Y13706248D01*
X7970607Y13899772D01*
X7994798Y13948153D01*
X8018988Y13972343D01*
X8067369Y13996534D01*
X8139940Y13996534D01*
X8188321Y13972343D01*
X8212512Y13948153D01*
X8236702Y13899772D01*
X8236702Y13706248D01*
X7970607Y14456153D02*
X7970607Y14214248D01*
X8212512Y14190058D01*
X8188321Y14214248D01*
X8164131Y14262629D01*
X8164131Y14383581D01*
X8188321Y14431962D01*
X8212512Y14456153D01*
X8260893Y14480343D01*
X8381845Y14480343D01*
X8430226Y14456153D01*
X8454417Y14431962D01*
X8478607Y14383581D01*
X8478607Y14262629D01*
X8454417Y14214248D01*
X8430226Y14190058D01*
%TO.C,C11*%
X10462226Y8293629D02*
X10486417Y8269439D01*
X10510607Y8196867D01*
X10510607Y8148486D01*
X10486417Y8075915D01*
X10438036Y8027534D01*
X10389655Y8003343D01*
X10292893Y7979153D01*
X10220321Y7979153D01*
X10123559Y8003343D01*
X10075178Y8027534D01*
X10026798Y8075915D01*
X10002607Y8148486D01*
X10002607Y8196867D01*
X10026798Y8269439D01*
X10050988Y8293629D01*
X10510607Y8777439D02*
X10510607Y8487153D01*
X10510607Y8632296D02*
X10002607Y8632296D01*
X10075178Y8583915D01*
X10123559Y8535534D01*
X10147750Y8487153D01*
X10510607Y9261248D02*
X10510607Y8970962D01*
X10510607Y9116105D02*
X10002607Y9116105D01*
X10075178Y9067724D01*
X10123559Y9019343D01*
X10147750Y8970962D01*
%TO.C,U1*%
X26530750Y58428391D02*
X26530750Y58017153D01*
X26554940Y57968772D01*
X26579131Y57944581D01*
X26627512Y57920391D01*
X26724274Y57920391D01*
X26772655Y57944581D01*
X26796845Y57968772D01*
X26821036Y58017153D01*
X26821036Y58428391D01*
X27329036Y57920391D02*
X27038750Y57920391D01*
X27183893Y57920391D02*
X27183893Y58428391D01*
X27135512Y58355820D01*
X27087131Y58307439D01*
X27038750Y58283248D01*
%TO.C,C23*%
X11351226Y15659629D02*
X11375417Y15635439D01*
X11399607Y15562867D01*
X11399607Y15514486D01*
X11375417Y15441915D01*
X11327036Y15393534D01*
X11278655Y15369343D01*
X11181893Y15345153D01*
X11109321Y15345153D01*
X11012559Y15369343D01*
X10964178Y15393534D01*
X10915798Y15441915D01*
X10891607Y15514486D01*
X10891607Y15562867D01*
X10915798Y15635439D01*
X10939988Y15659629D01*
X10939988Y15853153D02*
X10915798Y15877343D01*
X10891607Y15925724D01*
X10891607Y16046677D01*
X10915798Y16095058D01*
X10939988Y16119248D01*
X10988369Y16143439D01*
X11036750Y16143439D01*
X11109321Y16119248D01*
X11399607Y15828962D01*
X11399607Y16143439D01*
X10891607Y16312772D02*
X10891607Y16627248D01*
X11085131Y16457915D01*
X11085131Y16530486D01*
X11109321Y16578867D01*
X11133512Y16603058D01*
X11181893Y16627248D01*
X11302845Y16627248D01*
X11351226Y16603058D01*
X11375417Y16578867D01*
X11399607Y16530486D01*
X11399607Y16385343D01*
X11375417Y16336962D01*
X11351226Y16312772D01*
%TO.C,C4*%
X16616026Y28709734D02*
X16640217Y28685543D01*
X16664407Y28612972D01*
X16664407Y28564591D01*
X16640217Y28492020D01*
X16591836Y28443639D01*
X16543455Y28419448D01*
X16446693Y28395258D01*
X16374121Y28395258D01*
X16277359Y28419448D01*
X16228978Y28443639D01*
X16180598Y28492020D01*
X16156407Y28564591D01*
X16156407Y28612972D01*
X16180598Y28685543D01*
X16204788Y28709734D01*
X16325740Y29145162D02*
X16664407Y29145162D01*
X16132217Y29024210D02*
X16495074Y28903258D01*
X16495074Y29217734D01*
%TO.C,C18*%
X28877226Y8293629D02*
X28901417Y8269439D01*
X28925607Y8196867D01*
X28925607Y8148486D01*
X28901417Y8075915D01*
X28853036Y8027534D01*
X28804655Y8003343D01*
X28707893Y7979153D01*
X28635321Y7979153D01*
X28538559Y8003343D01*
X28490178Y8027534D01*
X28441798Y8075915D01*
X28417607Y8148486D01*
X28417607Y8196867D01*
X28441798Y8269439D01*
X28465988Y8293629D01*
X28925607Y8777439D02*
X28925607Y8487153D01*
X28925607Y8632296D02*
X28417607Y8632296D01*
X28490178Y8583915D01*
X28538559Y8535534D01*
X28562750Y8487153D01*
X28635321Y9067724D02*
X28611131Y9019343D01*
X28586940Y8995153D01*
X28538559Y8970962D01*
X28514369Y8970962D01*
X28465988Y8995153D01*
X28441798Y9019343D01*
X28417607Y9067724D01*
X28417607Y9164486D01*
X28441798Y9212867D01*
X28465988Y9237058D01*
X28514369Y9261248D01*
X28538559Y9261248D01*
X28586940Y9237058D01*
X28611131Y9212867D01*
X28635321Y9164486D01*
X28635321Y9067724D01*
X28659512Y9019343D01*
X28683702Y8995153D01*
X28732083Y8970962D01*
X28828845Y8970962D01*
X28877226Y8995153D01*
X28901417Y9019343D01*
X28925607Y9067724D01*
X28925607Y9164486D01*
X28901417Y9212867D01*
X28877226Y9237058D01*
X28828845Y9261248D01*
X28732083Y9261248D01*
X28683702Y9237058D01*
X28659512Y9212867D01*
X28635321Y9164486D01*
%TO.C,C45*%
X34084226Y29629629D02*
X34108417Y29605439D01*
X34132607Y29532867D01*
X34132607Y29484486D01*
X34108417Y29411915D01*
X34060036Y29363534D01*
X34011655Y29339343D01*
X33914893Y29315153D01*
X33842321Y29315153D01*
X33745559Y29339343D01*
X33697178Y29363534D01*
X33648798Y29411915D01*
X33624607Y29484486D01*
X33624607Y29532867D01*
X33648798Y29605439D01*
X33672988Y29629629D01*
X33793940Y30065058D02*
X34132607Y30065058D01*
X33600417Y29944105D02*
X33963274Y29823153D01*
X33963274Y30137629D01*
X33624607Y30573058D02*
X33624607Y30331153D01*
X33866512Y30306962D01*
X33842321Y30331153D01*
X33818131Y30379534D01*
X33818131Y30500486D01*
X33842321Y30548867D01*
X33866512Y30573058D01*
X33914893Y30597248D01*
X34035845Y30597248D01*
X34084226Y30573058D01*
X34108417Y30548867D01*
X34132607Y30500486D01*
X34132607Y30379534D01*
X34108417Y30331153D01*
X34084226Y30306962D01*
%TO.C,TP2*%
X21450750Y18169402D02*
X21741036Y18169402D01*
X21595893Y17661402D02*
X21595893Y18169402D01*
X21910369Y17661402D02*
X21910369Y18169402D01*
X22103893Y18169402D01*
X22152274Y18145211D01*
X22176464Y18121021D01*
X22200655Y18072640D01*
X22200655Y18000069D01*
X22176464Y17951688D01*
X22152274Y17927497D01*
X22103893Y17903307D01*
X21910369Y17903307D01*
X22394178Y18121021D02*
X22418369Y18145211D01*
X22466750Y18169402D01*
X22587702Y18169402D01*
X22636083Y18145211D01*
X22660274Y18121021D01*
X22684464Y18072640D01*
X22684464Y18024259D01*
X22660274Y17951688D01*
X22369988Y17661402D01*
X22684464Y17661402D01*
%TO.C,C19*%
X29893226Y8293629D02*
X29917417Y8269439D01*
X29941607Y8196867D01*
X29941607Y8148486D01*
X29917417Y8075915D01*
X29869036Y8027534D01*
X29820655Y8003343D01*
X29723893Y7979153D01*
X29651321Y7979153D01*
X29554559Y8003343D01*
X29506178Y8027534D01*
X29457798Y8075915D01*
X29433607Y8148486D01*
X29433607Y8196867D01*
X29457798Y8269439D01*
X29481988Y8293629D01*
X29941607Y8777439D02*
X29941607Y8487153D01*
X29941607Y8632296D02*
X29433607Y8632296D01*
X29506178Y8583915D01*
X29554559Y8535534D01*
X29578750Y8487153D01*
X29941607Y9019343D02*
X29941607Y9116105D01*
X29917417Y9164486D01*
X29893226Y9188677D01*
X29820655Y9237058D01*
X29723893Y9261248D01*
X29530369Y9261248D01*
X29481988Y9237058D01*
X29457798Y9212867D01*
X29433607Y9164486D01*
X29433607Y9067724D01*
X29457798Y9019343D01*
X29481988Y8995153D01*
X29530369Y8970962D01*
X29651321Y8970962D01*
X29699702Y8995153D01*
X29723893Y9019343D01*
X29748083Y9067724D01*
X29748083Y9164486D01*
X29723893Y9212867D01*
X29699702Y9237058D01*
X29651321Y9261248D01*
%TO.C,C38*%
X33525426Y44412429D02*
X33549617Y44388239D01*
X33573807Y44315667D01*
X33573807Y44267286D01*
X33549617Y44194715D01*
X33501236Y44146334D01*
X33452855Y44122143D01*
X33356093Y44097953D01*
X33283521Y44097953D01*
X33186759Y44122143D01*
X33138378Y44146334D01*
X33089998Y44194715D01*
X33065807Y44267286D01*
X33065807Y44315667D01*
X33089998Y44388239D01*
X33114188Y44412429D01*
X33065807Y44581762D02*
X33065807Y44896239D01*
X33259331Y44726905D01*
X33259331Y44799477D01*
X33283521Y44847858D01*
X33307712Y44872048D01*
X33356093Y44896239D01*
X33477045Y44896239D01*
X33525426Y44872048D01*
X33549617Y44847858D01*
X33573807Y44799477D01*
X33573807Y44654334D01*
X33549617Y44605953D01*
X33525426Y44581762D01*
X33283521Y45186524D02*
X33259331Y45138143D01*
X33235140Y45113953D01*
X33186759Y45089762D01*
X33162569Y45089762D01*
X33114188Y45113953D01*
X33089998Y45138143D01*
X33065807Y45186524D01*
X33065807Y45283286D01*
X33089998Y45331667D01*
X33114188Y45355858D01*
X33162569Y45380048D01*
X33186759Y45380048D01*
X33235140Y45355858D01*
X33259331Y45331667D01*
X33283521Y45283286D01*
X33283521Y45186524D01*
X33307712Y45138143D01*
X33331902Y45113953D01*
X33380283Y45089762D01*
X33477045Y45089762D01*
X33525426Y45113953D01*
X33549617Y45138143D01*
X33573807Y45186524D01*
X33573807Y45283286D01*
X33549617Y45331667D01*
X33525426Y45355858D01*
X33477045Y45380048D01*
X33380283Y45380048D01*
X33331902Y45355858D01*
X33307712Y45331667D01*
X33283521Y45283286D01*
%TO.C,C8*%
X21892226Y38253534D02*
X21916417Y38229343D01*
X21940607Y38156772D01*
X21940607Y38108391D01*
X21916417Y38035820D01*
X21868036Y37987439D01*
X21819655Y37963248D01*
X21722893Y37939058D01*
X21650321Y37939058D01*
X21553559Y37963248D01*
X21505178Y37987439D01*
X21456798Y38035820D01*
X21432607Y38108391D01*
X21432607Y38156772D01*
X21456798Y38229343D01*
X21480988Y38253534D01*
X21650321Y38543820D02*
X21626131Y38495439D01*
X21601940Y38471248D01*
X21553559Y38447058D01*
X21529369Y38447058D01*
X21480988Y38471248D01*
X21456798Y38495439D01*
X21432607Y38543820D01*
X21432607Y38640581D01*
X21456798Y38688962D01*
X21480988Y38713153D01*
X21529369Y38737343D01*
X21553559Y38737343D01*
X21601940Y38713153D01*
X21626131Y38688962D01*
X21650321Y38640581D01*
X21650321Y38543820D01*
X21674512Y38495439D01*
X21698702Y38471248D01*
X21747083Y38447058D01*
X21843845Y38447058D01*
X21892226Y38471248D01*
X21916417Y38495439D01*
X21940607Y38543820D01*
X21940607Y38640581D01*
X21916417Y38688962D01*
X21892226Y38713153D01*
X21843845Y38737343D01*
X21747083Y38737343D01*
X21698702Y38713153D01*
X21674512Y38688962D01*
X21650321Y38640581D01*
%TO.C,U5*%
X26639607Y45952153D02*
X27050845Y45952153D01*
X27099226Y45976343D01*
X27123417Y46000534D01*
X27147607Y46048915D01*
X27147607Y46145677D01*
X27123417Y46194058D01*
X27099226Y46218248D01*
X27050845Y46242439D01*
X26639607Y46242439D01*
X26639607Y46726248D02*
X26639607Y46484343D01*
X26881512Y46460153D01*
X26857321Y46484343D01*
X26833131Y46532724D01*
X26833131Y46653677D01*
X26857321Y46702058D01*
X26881512Y46726248D01*
X26929893Y46750439D01*
X27050845Y46750439D01*
X27099226Y46726248D01*
X27123417Y46702058D01*
X27147607Y46653677D01*
X27147607Y46532724D01*
X27123417Y46484343D01*
X27099226Y46460153D01*
%TO.C,C10*%
X11351226Y8293629D02*
X11375417Y8269439D01*
X11399607Y8196867D01*
X11399607Y8148486D01*
X11375417Y8075915D01*
X11327036Y8027534D01*
X11278655Y8003343D01*
X11181893Y7979153D01*
X11109321Y7979153D01*
X11012559Y8003343D01*
X10964178Y8027534D01*
X10915798Y8075915D01*
X10891607Y8148486D01*
X10891607Y8196867D01*
X10915798Y8269439D01*
X10939988Y8293629D01*
X11399607Y8777439D02*
X11399607Y8487153D01*
X11399607Y8632296D02*
X10891607Y8632296D01*
X10964178Y8583915D01*
X11012559Y8535534D01*
X11036750Y8487153D01*
X10891607Y9091915D02*
X10891607Y9140296D01*
X10915798Y9188677D01*
X10939988Y9212867D01*
X10988369Y9237058D01*
X11085131Y9261248D01*
X11206083Y9261248D01*
X11302845Y9237058D01*
X11351226Y9212867D01*
X11375417Y9188677D01*
X11399607Y9140296D01*
X11399607Y9091915D01*
X11375417Y9043534D01*
X11351226Y9019343D01*
X11302845Y8995153D01*
X11206083Y8970962D01*
X11085131Y8970962D01*
X10988369Y8995153D01*
X10939988Y9019343D01*
X10915798Y9043534D01*
X10891607Y9091915D01*
%TO.C,C30*%
X31366426Y43523429D02*
X31390617Y43499239D01*
X31414807Y43426667D01*
X31414807Y43378286D01*
X31390617Y43305715D01*
X31342236Y43257334D01*
X31293855Y43233143D01*
X31197093Y43208953D01*
X31124521Y43208953D01*
X31027759Y43233143D01*
X30979378Y43257334D01*
X30930998Y43305715D01*
X30906807Y43378286D01*
X30906807Y43426667D01*
X30930998Y43499239D01*
X30955188Y43523429D01*
X30906807Y43692762D02*
X30906807Y44007239D01*
X31100331Y43837905D01*
X31100331Y43910477D01*
X31124521Y43958858D01*
X31148712Y43983048D01*
X31197093Y44007239D01*
X31318045Y44007239D01*
X31366426Y43983048D01*
X31390617Y43958858D01*
X31414807Y43910477D01*
X31414807Y43765334D01*
X31390617Y43716953D01*
X31366426Y43692762D01*
X30906807Y44321715D02*
X30906807Y44370096D01*
X30930998Y44418477D01*
X30955188Y44442667D01*
X31003569Y44466858D01*
X31100331Y44491048D01*
X31221283Y44491048D01*
X31318045Y44466858D01*
X31366426Y44442667D01*
X31390617Y44418477D01*
X31414807Y44370096D01*
X31414807Y44321715D01*
X31390617Y44273334D01*
X31366426Y44249143D01*
X31318045Y44224953D01*
X31221283Y44200762D01*
X31100331Y44200762D01*
X31003569Y44224953D01*
X30955188Y44249143D01*
X30930998Y44273334D01*
X30906807Y44321715D01*
%TO.C,C5*%
X21520533Y32330777D02*
X21496342Y32306586D01*
X21423771Y32282396D01*
X21375390Y32282396D01*
X21302819Y32306586D01*
X21254438Y32354967D01*
X21230247Y32403348D01*
X21206057Y32500110D01*
X21206057Y32572682D01*
X21230247Y32669444D01*
X21254438Y32717825D01*
X21302819Y32766205D01*
X21375390Y32790396D01*
X21423771Y32790396D01*
X21496342Y32766205D01*
X21520533Y32742015D01*
X21980152Y32790396D02*
X21738247Y32790396D01*
X21714057Y32548491D01*
X21738247Y32572682D01*
X21786628Y32596872D01*
X21907580Y32596872D01*
X21955961Y32572682D01*
X21980152Y32548491D01*
X22004342Y32500110D01*
X22004342Y32379158D01*
X21980152Y32330777D01*
X21955961Y32306586D01*
X21907580Y32282396D01*
X21786628Y32282396D01*
X21738247Y32306586D01*
X21714057Y32330777D01*
%TO.C,C44*%
X35227226Y43500629D02*
X35251417Y43476439D01*
X35275607Y43403867D01*
X35275607Y43355486D01*
X35251417Y43282915D01*
X35203036Y43234534D01*
X35154655Y43210343D01*
X35057893Y43186153D01*
X34985321Y43186153D01*
X34888559Y43210343D01*
X34840178Y43234534D01*
X34791798Y43282915D01*
X34767607Y43355486D01*
X34767607Y43403867D01*
X34791798Y43476439D01*
X34815988Y43500629D01*
X34936940Y43936058D02*
X35275607Y43936058D01*
X34743417Y43815105D02*
X35106274Y43694153D01*
X35106274Y44008629D01*
X34936940Y44419867D02*
X35275607Y44419867D01*
X34743417Y44298915D02*
X35106274Y44177962D01*
X35106274Y44492439D01*
%TO.C,L1*%
X17661605Y28614536D02*
X17661605Y28372631D01*
X17153605Y28372631D01*
X17661605Y29049964D02*
X17661605Y28759679D01*
X17661605Y28904822D02*
X17153605Y28904822D01*
X17226176Y28856441D01*
X17274557Y28808060D01*
X17298748Y28759679D01*
%TO.C,U4*%
X33305403Y34705227D02*
X33596192Y34414438D01*
X33647508Y34397332D01*
X33681719Y34397332D01*
X33733034Y34414438D01*
X33801455Y34482859D01*
X33818561Y34534174D01*
X33818561Y34568385D01*
X33801455Y34619701D01*
X33510666Y34910490D01*
X33955403Y35115753D02*
X34194876Y34876279D01*
X33733034Y35167069D02*
X33904087Y34824964D01*
X34126455Y35047332D01*
%TO.C,C48*%
X36497226Y43500629D02*
X36521417Y43476439D01*
X36545607Y43403867D01*
X36545607Y43355486D01*
X36521417Y43282915D01*
X36473036Y43234534D01*
X36424655Y43210343D01*
X36327893Y43186153D01*
X36255321Y43186153D01*
X36158559Y43210343D01*
X36110178Y43234534D01*
X36061798Y43282915D01*
X36037607Y43355486D01*
X36037607Y43403867D01*
X36061798Y43476439D01*
X36085988Y43500629D01*
X36206940Y43936058D02*
X36545607Y43936058D01*
X36013417Y43815105D02*
X36376274Y43694153D01*
X36376274Y44008629D01*
X36255321Y44274724D02*
X36231131Y44226343D01*
X36206940Y44202153D01*
X36158559Y44177962D01*
X36134369Y44177962D01*
X36085988Y44202153D01*
X36061798Y44226343D01*
X36037607Y44274724D01*
X36037607Y44371486D01*
X36061798Y44419867D01*
X36085988Y44444058D01*
X36134369Y44468248D01*
X36158559Y44468248D01*
X36206940Y44444058D01*
X36231131Y44419867D01*
X36255321Y44371486D01*
X36255321Y44274724D01*
X36279512Y44226343D01*
X36303702Y44202153D01*
X36352083Y44177962D01*
X36448845Y44177962D01*
X36497226Y44202153D01*
X36521417Y44226343D01*
X36545607Y44274724D01*
X36545607Y44371486D01*
X36521417Y44419867D01*
X36497226Y44444058D01*
X36448845Y44468248D01*
X36352083Y44468248D01*
X36303702Y44444058D01*
X36279512Y44419867D01*
X36255321Y44371486D01*
%TO.C,J2*%
X21668464Y16391391D02*
X21668464Y16028534D01*
X21644274Y15955962D01*
X21595893Y15907581D01*
X21523321Y15883391D01*
X21474940Y15883391D01*
X21886178Y16343010D02*
X21910369Y16367200D01*
X21958750Y16391391D01*
X22079702Y16391391D01*
X22128083Y16367200D01*
X22152274Y16343010D01*
X22176464Y16294629D01*
X22176464Y16246248D01*
X22152274Y16173677D01*
X21861988Y15883391D01*
X22176464Y15883391D01*
%TO.C,C40*%
X22142224Y36255633D02*
X22166415Y36231443D01*
X22190605Y36158871D01*
X22190605Y36110490D01*
X22166415Y36037919D01*
X22118034Y35989538D01*
X22069653Y35965347D01*
X21972891Y35941157D01*
X21900319Y35941157D01*
X21803557Y35965347D01*
X21755176Y35989538D01*
X21706796Y36037919D01*
X21682605Y36110490D01*
X21682605Y36158871D01*
X21706796Y36231443D01*
X21730986Y36255633D01*
X21851938Y36691062D02*
X22190605Y36691062D01*
X21658415Y36570109D02*
X22021272Y36449157D01*
X22021272Y36763633D01*
X21682605Y37053919D02*
X21682605Y37102300D01*
X21706796Y37150681D01*
X21730986Y37174871D01*
X21779367Y37199062D01*
X21876129Y37223252D01*
X21997081Y37223252D01*
X22093843Y37199062D01*
X22142224Y37174871D01*
X22166415Y37150681D01*
X22190605Y37102300D01*
X22190605Y37053919D01*
X22166415Y37005538D01*
X22142224Y36981347D01*
X22093843Y36957157D01*
X21997081Y36932966D01*
X21876129Y36932966D01*
X21779367Y36957157D01*
X21730986Y36981347D01*
X21706796Y37005538D01*
X21682605Y37053919D01*
%TO.C,C51*%
X26337226Y21247629D02*
X26361417Y21223439D01*
X26385607Y21150867D01*
X26385607Y21102486D01*
X26361417Y21029915D01*
X26313036Y20981534D01*
X26264655Y20957343D01*
X26167893Y20933153D01*
X26095321Y20933153D01*
X25998559Y20957343D01*
X25950178Y20981534D01*
X25901798Y21029915D01*
X25877607Y21102486D01*
X25877607Y21150867D01*
X25901798Y21223439D01*
X25925988Y21247629D01*
X25877607Y21707248D02*
X25877607Y21465343D01*
X26119512Y21441153D01*
X26095321Y21465343D01*
X26071131Y21513724D01*
X26071131Y21634677D01*
X26095321Y21683058D01*
X26119512Y21707248D01*
X26167893Y21731439D01*
X26288845Y21731439D01*
X26337226Y21707248D01*
X26361417Y21683058D01*
X26385607Y21634677D01*
X26385607Y21513724D01*
X26361417Y21465343D01*
X26337226Y21441153D01*
X26385607Y22215248D02*
X26385607Y21924962D01*
X26385607Y22070105D02*
X25877607Y22070105D01*
X25950178Y22021724D01*
X25998559Y21973343D01*
X26022750Y21924962D01*
%TO.C,C33*%
X9573226Y11849629D02*
X9597417Y11825439D01*
X9621607Y11752867D01*
X9621607Y11704486D01*
X9597417Y11631915D01*
X9549036Y11583534D01*
X9500655Y11559343D01*
X9403893Y11535153D01*
X9331321Y11535153D01*
X9234559Y11559343D01*
X9186178Y11583534D01*
X9137798Y11631915D01*
X9113607Y11704486D01*
X9113607Y11752867D01*
X9137798Y11825439D01*
X9161988Y11849629D01*
X9113607Y12018962D02*
X9113607Y12333439D01*
X9307131Y12164105D01*
X9307131Y12236677D01*
X9331321Y12285058D01*
X9355512Y12309248D01*
X9403893Y12333439D01*
X9524845Y12333439D01*
X9573226Y12309248D01*
X9597417Y12285058D01*
X9621607Y12236677D01*
X9621607Y12091534D01*
X9597417Y12043153D01*
X9573226Y12018962D01*
X9113607Y12502772D02*
X9113607Y12817248D01*
X9307131Y12647915D01*
X9307131Y12720486D01*
X9331321Y12768867D01*
X9355512Y12793058D01*
X9403893Y12817248D01*
X9524845Y12817248D01*
X9573226Y12793058D01*
X9597417Y12768867D01*
X9621607Y12720486D01*
X9621607Y12575343D01*
X9597417Y12526962D01*
X9573226Y12502772D01*
%TO.C,C29*%
X27666426Y42761429D02*
X27690617Y42737239D01*
X27714807Y42664667D01*
X27714807Y42616286D01*
X27690617Y42543715D01*
X27642236Y42495334D01*
X27593855Y42471143D01*
X27497093Y42446953D01*
X27424521Y42446953D01*
X27327759Y42471143D01*
X27279378Y42495334D01*
X27230998Y42543715D01*
X27206807Y42616286D01*
X27206807Y42664667D01*
X27230998Y42737239D01*
X27255188Y42761429D01*
X27255188Y42954953D02*
X27230998Y42979143D01*
X27206807Y43027524D01*
X27206807Y43148477D01*
X27230998Y43196858D01*
X27255188Y43221048D01*
X27303569Y43245239D01*
X27351950Y43245239D01*
X27424521Y43221048D01*
X27714807Y42930762D01*
X27714807Y43245239D01*
X27714807Y43487143D02*
X27714807Y43583905D01*
X27690617Y43632286D01*
X27666426Y43656477D01*
X27593855Y43704858D01*
X27497093Y43729048D01*
X27303569Y43729048D01*
X27255188Y43704858D01*
X27230998Y43680667D01*
X27206807Y43632286D01*
X27206807Y43535524D01*
X27230998Y43487143D01*
X27255188Y43462953D01*
X27303569Y43438762D01*
X27424521Y43438762D01*
X27472902Y43462953D01*
X27497093Y43487143D01*
X27521283Y43535524D01*
X27521283Y43632286D01*
X27497093Y43680667D01*
X27472902Y43704858D01*
X27424521Y43729048D01*
%TO.C,R6*%
X8478607Y19457534D02*
X8236702Y19288200D01*
X8478607Y19167248D02*
X7970607Y19167248D01*
X7970607Y19360772D01*
X7994798Y19409153D01*
X8018988Y19433343D01*
X8067369Y19457534D01*
X8139940Y19457534D01*
X8188321Y19433343D01*
X8212512Y19409153D01*
X8236702Y19360772D01*
X8236702Y19167248D01*
X7970607Y19892962D02*
X7970607Y19796200D01*
X7994798Y19747820D01*
X8018988Y19723629D01*
X8091559Y19675248D01*
X8188321Y19651058D01*
X8381845Y19651058D01*
X8430226Y19675248D01*
X8454417Y19699439D01*
X8478607Y19747820D01*
X8478607Y19844581D01*
X8454417Y19892962D01*
X8430226Y19917153D01*
X8381845Y19941343D01*
X8260893Y19941343D01*
X8212512Y19917153D01*
X8188321Y19892962D01*
X8164131Y19844581D01*
X8164131Y19747820D01*
X8188321Y19699439D01*
X8212512Y19675248D01*
X8260893Y19651058D01*
%TO.C,R8*%
X3525607Y19330534D02*
X3283702Y19161200D01*
X3525607Y19040248D02*
X3017607Y19040248D01*
X3017607Y19233772D01*
X3041798Y19282153D01*
X3065988Y19306343D01*
X3114369Y19330534D01*
X3186940Y19330534D01*
X3235321Y19306343D01*
X3259512Y19282153D01*
X3283702Y19233772D01*
X3283702Y19040248D01*
X3235321Y19620820D02*
X3211131Y19572439D01*
X3186940Y19548248D01*
X3138559Y19524058D01*
X3114369Y19524058D01*
X3065988Y19548248D01*
X3041798Y19572439D01*
X3017607Y19620820D01*
X3017607Y19717581D01*
X3041798Y19765962D01*
X3065988Y19790153D01*
X3114369Y19814343D01*
X3138559Y19814343D01*
X3186940Y19790153D01*
X3211131Y19765962D01*
X3235321Y19717581D01*
X3235321Y19620820D01*
X3259512Y19572439D01*
X3283702Y19548248D01*
X3332083Y19524058D01*
X3428845Y19524058D01*
X3477226Y19548248D01*
X3501417Y19572439D01*
X3525607Y19620820D01*
X3525607Y19717581D01*
X3501417Y19765962D01*
X3477226Y19790153D01*
X3428845Y19814343D01*
X3332083Y19814343D01*
X3283702Y19790153D01*
X3259512Y19765962D01*
X3235321Y19717581D01*
%TO.C,C17*%
X9573226Y19469629D02*
X9597417Y19445439D01*
X9621607Y19372867D01*
X9621607Y19324486D01*
X9597417Y19251915D01*
X9549036Y19203534D01*
X9500655Y19179343D01*
X9403893Y19155153D01*
X9331321Y19155153D01*
X9234559Y19179343D01*
X9186178Y19203534D01*
X9137798Y19251915D01*
X9113607Y19324486D01*
X9113607Y19372867D01*
X9137798Y19445439D01*
X9161988Y19469629D01*
X9621607Y19953439D02*
X9621607Y19663153D01*
X9621607Y19808296D02*
X9113607Y19808296D01*
X9186178Y19759915D01*
X9234559Y19711534D01*
X9258750Y19663153D01*
X9113607Y20122772D02*
X9113607Y20461439D01*
X9621607Y20243724D01*
%TO.C,C21*%
X24000426Y28809572D02*
X23976236Y28785381D01*
X23903664Y28761191D01*
X23855283Y28761191D01*
X23782712Y28785381D01*
X23734331Y28833762D01*
X23710140Y28882143D01*
X23685950Y28978905D01*
X23685950Y29051477D01*
X23710140Y29148239D01*
X23734331Y29196620D01*
X23782712Y29245000D01*
X23855283Y29269191D01*
X23903664Y29269191D01*
X23976236Y29245000D01*
X24000426Y29220810D01*
X24193950Y29220810D02*
X24218140Y29245000D01*
X24266521Y29269191D01*
X24387474Y29269191D01*
X24435855Y29245000D01*
X24460045Y29220810D01*
X24484236Y29172429D01*
X24484236Y29124048D01*
X24460045Y29051477D01*
X24169759Y28761191D01*
X24484236Y28761191D01*
X24968045Y28761191D02*
X24677759Y28761191D01*
X24822902Y28761191D02*
X24822902Y29269191D01*
X24774521Y29196620D01*
X24726140Y29148239D01*
X24677759Y29124048D01*
%TO.C,R3*%
X35275607Y49429534D02*
X35033702Y49260200D01*
X35275607Y49139248D02*
X34767607Y49139248D01*
X34767607Y49332772D01*
X34791798Y49381153D01*
X34815988Y49405343D01*
X34864369Y49429534D01*
X34936940Y49429534D01*
X34985321Y49405343D01*
X35009512Y49381153D01*
X35033702Y49332772D01*
X35033702Y49139248D01*
X34767607Y49598867D02*
X34767607Y49913343D01*
X34961131Y49744010D01*
X34961131Y49816581D01*
X34985321Y49864962D01*
X35009512Y49889153D01*
X35057893Y49913343D01*
X35178845Y49913343D01*
X35227226Y49889153D01*
X35251417Y49864962D01*
X35275607Y49816581D01*
X35275607Y49671439D01*
X35251417Y49623058D01*
X35227226Y49598867D01*
%TO.C,C41*%
X24813226Y50203629D02*
X24837417Y50179439D01*
X24861607Y50106867D01*
X24861607Y50058486D01*
X24837417Y49985915D01*
X24789036Y49937534D01*
X24740655Y49913343D01*
X24643893Y49889153D01*
X24571321Y49889153D01*
X24474559Y49913343D01*
X24426178Y49937534D01*
X24377798Y49985915D01*
X24353607Y50058486D01*
X24353607Y50106867D01*
X24377798Y50179439D01*
X24401988Y50203629D01*
X24522940Y50639058D02*
X24861607Y50639058D01*
X24329417Y50518105D02*
X24692274Y50397153D01*
X24692274Y50711629D01*
X24861607Y51171248D02*
X24861607Y50880962D01*
X24861607Y51026105D02*
X24353607Y51026105D01*
X24426178Y50977724D01*
X24474559Y50929343D01*
X24498750Y50880962D01*
%TO.C,C14*%
X21384226Y43744772D02*
X21360036Y43720581D01*
X21287464Y43696391D01*
X21239083Y43696391D01*
X21166512Y43720581D01*
X21118131Y43768962D01*
X21093940Y43817343D01*
X21069750Y43914105D01*
X21069750Y43986677D01*
X21093940Y44083439D01*
X21118131Y44131820D01*
X21166512Y44180200D01*
X21239083Y44204391D01*
X21287464Y44204391D01*
X21360036Y44180200D01*
X21384226Y44156010D01*
X21868036Y43696391D02*
X21577750Y43696391D01*
X21722893Y43696391D02*
X21722893Y44204391D01*
X21674512Y44131820D01*
X21626131Y44083439D01*
X21577750Y44059248D01*
X22303464Y44035058D02*
X22303464Y43696391D01*
X22182512Y44228581D02*
X22061559Y43865724D01*
X22376036Y43865724D01*
%TO.C,L2*%
X27401607Y50191534D02*
X27401607Y49949629D01*
X26893607Y49949629D01*
X26941988Y50336677D02*
X26917798Y50360867D01*
X26893607Y50409248D01*
X26893607Y50530200D01*
X26917798Y50578581D01*
X26941988Y50602772D01*
X26990369Y50626962D01*
X27038750Y50626962D01*
X27111321Y50602772D01*
X27401607Y50312486D01*
X27401607Y50626962D01*
%TO.C,C22*%
X30477426Y50399572D02*
X30453236Y50375381D01*
X30380664Y50351191D01*
X30332283Y50351191D01*
X30259712Y50375381D01*
X30211331Y50423762D01*
X30187140Y50472143D01*
X30162950Y50568905D01*
X30162950Y50641477D01*
X30187140Y50738239D01*
X30211331Y50786620D01*
X30259712Y50835000D01*
X30332283Y50859191D01*
X30380664Y50859191D01*
X30453236Y50835000D01*
X30477426Y50810810D01*
X30670950Y50810810D02*
X30695140Y50835000D01*
X30743521Y50859191D01*
X30864474Y50859191D01*
X30912855Y50835000D01*
X30937045Y50810810D01*
X30961236Y50762429D01*
X30961236Y50714048D01*
X30937045Y50641477D01*
X30646759Y50351191D01*
X30961236Y50351191D01*
X31154759Y50810810D02*
X31178950Y50835000D01*
X31227331Y50859191D01*
X31348283Y50859191D01*
X31396664Y50835000D01*
X31420855Y50810810D01*
X31445045Y50762429D01*
X31445045Y50714048D01*
X31420855Y50641477D01*
X31130569Y50351191D01*
X31445045Y50351191D01*
%TO.C,C36*%
X30909226Y12103629D02*
X30933417Y12079439D01*
X30957607Y12006867D01*
X30957607Y11958486D01*
X30933417Y11885915D01*
X30885036Y11837534D01*
X30836655Y11813343D01*
X30739893Y11789153D01*
X30667321Y11789153D01*
X30570559Y11813343D01*
X30522178Y11837534D01*
X30473798Y11885915D01*
X30449607Y11958486D01*
X30449607Y12006867D01*
X30473798Y12079439D01*
X30497988Y12103629D01*
X30449607Y12272962D02*
X30449607Y12587439D01*
X30643131Y12418105D01*
X30643131Y12490677D01*
X30667321Y12539058D01*
X30691512Y12563248D01*
X30739893Y12587439D01*
X30860845Y12587439D01*
X30909226Y12563248D01*
X30933417Y12539058D01*
X30957607Y12490677D01*
X30957607Y12345534D01*
X30933417Y12297153D01*
X30909226Y12272962D01*
X30449607Y13022867D02*
X30449607Y12926105D01*
X30473798Y12877724D01*
X30497988Y12853534D01*
X30570559Y12805153D01*
X30667321Y12780962D01*
X30860845Y12780962D01*
X30909226Y12805153D01*
X30933417Y12829343D01*
X30957607Y12877724D01*
X30957607Y12974486D01*
X30933417Y13022867D01*
X30909226Y13047058D01*
X30860845Y13071248D01*
X30739893Y13071248D01*
X30691512Y13047058D01*
X30667321Y13022867D01*
X30643131Y12974486D01*
X30643131Y12877724D01*
X30667321Y12829343D01*
X30691512Y12805153D01*
X30739893Y12780962D01*
%TO.C,U6*%
X6845750Y16645391D02*
X6845750Y16234153D01*
X6869940Y16185772D01*
X6894131Y16161581D01*
X6942512Y16137391D01*
X7039274Y16137391D01*
X7087655Y16161581D01*
X7111845Y16185772D01*
X7136036Y16234153D01*
X7136036Y16645391D01*
X7595655Y16645391D02*
X7498893Y16645391D01*
X7450512Y16621200D01*
X7426321Y16597010D01*
X7377940Y16524439D01*
X7353750Y16427677D01*
X7353750Y16234153D01*
X7377940Y16185772D01*
X7402131Y16161581D01*
X7450512Y16137391D01*
X7547274Y16137391D01*
X7595655Y16161581D01*
X7619845Y16185772D01*
X7644036Y16234153D01*
X7644036Y16355105D01*
X7619845Y16403486D01*
X7595655Y16427677D01*
X7547274Y16451867D01*
X7450512Y16451867D01*
X7402131Y16427677D01*
X7377940Y16403486D01*
X7353750Y16355105D01*
%TO.C,C26*%
X28877226Y15405629D02*
X28901417Y15381439D01*
X28925607Y15308867D01*
X28925607Y15260486D01*
X28901417Y15187915D01*
X28853036Y15139534D01*
X28804655Y15115343D01*
X28707893Y15091153D01*
X28635321Y15091153D01*
X28538559Y15115343D01*
X28490178Y15139534D01*
X28441798Y15187915D01*
X28417607Y15260486D01*
X28417607Y15308867D01*
X28441798Y15381439D01*
X28465988Y15405629D01*
X28465988Y15599153D02*
X28441798Y15623343D01*
X28417607Y15671724D01*
X28417607Y15792677D01*
X28441798Y15841058D01*
X28465988Y15865248D01*
X28514369Y15889439D01*
X28562750Y15889439D01*
X28635321Y15865248D01*
X28925607Y15574962D01*
X28925607Y15889439D01*
X28417607Y16324867D02*
X28417607Y16228105D01*
X28441798Y16179724D01*
X28465988Y16155534D01*
X28538559Y16107153D01*
X28635321Y16082962D01*
X28828845Y16082962D01*
X28877226Y16107153D01*
X28901417Y16131343D01*
X28925607Y16179724D01*
X28925607Y16276486D01*
X28901417Y16324867D01*
X28877226Y16349058D01*
X28828845Y16373248D01*
X28707893Y16373248D01*
X28659512Y16349058D01*
X28635321Y16324867D01*
X28611131Y16276486D01*
X28611131Y16179724D01*
X28635321Y16131343D01*
X28659512Y16107153D01*
X28707893Y16082962D01*
D12*
%TO.C,C35*%
X24656456Y12340580D02*
X24656456Y12059420D01*
X25676456Y12340580D02*
X25676456Y12059420D01*
%TO.C,C12*%
X11764997Y8438752D02*
X11764997Y8961256D01*
X13234997Y8438752D02*
X13234997Y8961256D01*
%TO.C,C25*%
X11765002Y16261259D02*
X11765002Y15738755D01*
X13235002Y16261259D02*
X13235002Y15738755D01*
%TO.C,R4*%
X36625798Y47646359D02*
X36625798Y47953641D01*
X35865798Y47646359D02*
X35865798Y47953641D01*
D13*
%TO.C,U2*%
X20801005Y31077600D02*
G75*
G03*
X20801005Y31077600I-125000J0D01*
G01*
D12*
%TO.C,C2*%
X19760008Y35007841D02*
X19760008Y34792169D01*
X19040008Y35007841D02*
X19040008Y34792169D01*
%TO.C,C34*%
X24226453Y12107836D02*
X24226453Y11892164D01*
X23506453Y12107836D02*
X23506453Y11892164D01*
D14*
%TO.C,U3*%
X22454862Y15004701D02*
G75*
G03*
X22454862Y15004701I-162500J0D01*
G01*
D12*
%TO.C,C28*%
X27701457Y16161249D02*
X27701457Y15638745D01*
X26231457Y16161249D02*
X26231457Y15638745D01*
%TO.C,C20*%
X27734998Y8438748D02*
X27734998Y8961252D01*
X26264998Y8438748D02*
X26264998Y8961252D01*
%TO.C,C3*%
X14596798Y26440620D02*
X14596798Y26721780D01*
X15616798Y26440620D02*
X15616798Y26721780D01*
%TO.C,C16*%
X13790000Y19740585D02*
X13790000Y19459425D01*
X14810000Y19740585D02*
X14810000Y19459425D01*
%TO.C,C27*%
X24656456Y15840580D02*
X24656456Y15559420D01*
X25676456Y15840580D02*
X25676456Y15559420D01*
%TO.C,C42*%
X25560991Y48233479D02*
X25560991Y48449151D01*
X26280991Y48233479D02*
X26280991Y48449151D01*
D15*
%TO.C,TP1*%
X19413998Y42164211D02*
G75*
G03*
X19413998Y42064211I0J-50000D01*
G01*
X19413998Y42164211D02*
G75*
G03*
X19413998Y42064211I0J-50000D01*
G01*
X19413998Y42064211D02*
G75*
G03*
X19413998Y42164211I0J50000D01*
G01*
X19413998Y42064211D02*
X19413998Y42064211D01*
X19413998Y42164211D02*
X19413998Y42164211D01*
X19413998Y42164211D02*
X19413998Y42164211D01*
D12*
%TO.C,C47*%
X36647998Y40407420D02*
X36647998Y40688580D01*
X35627998Y40407420D02*
X35627998Y40688580D01*
%TO.C,C9*%
X23538748Y41105200D02*
X24061252Y41105200D01*
X23538748Y39635200D02*
X24061252Y39635200D01*
%TO.C,C15*%
X15959998Y19507842D02*
X15959998Y19292170D01*
X15239998Y19507842D02*
X15239998Y19292170D01*
%TO.C,C13*%
X23959420Y42909998D02*
X24240580Y42909998D01*
X23959420Y41889998D02*
X24240580Y41889998D01*
%TO.C,C31*%
X15959996Y12492166D02*
X15959996Y12707838D01*
X15239996Y12492166D02*
X15239996Y12707838D01*
%TO.C,C7*%
X27107418Y30513000D02*
X27388578Y30513000D01*
X27107418Y31533000D02*
X27388578Y31533000D01*
%TO.C,R10*%
X4295056Y11682700D02*
X3820540Y11682700D01*
X4295056Y10637700D02*
X3820540Y10637700D01*
%TO.C,R7*%
X5912336Y20115500D02*
X5437820Y20115500D01*
X5912336Y19070500D02*
X5437820Y19070500D01*
%TO.C,C6*%
X23557746Y35187000D02*
X24080250Y35187000D01*
X23557746Y33717000D02*
X24080250Y33717000D01*
%TO.C,R1*%
X31564998Y47633359D02*
X31564998Y47940641D01*
X30804998Y47633359D02*
X30804998Y47940641D01*
D15*
%TO.C,J1*%
X20159798Y58060200D02*
G75*
G03*
X20159798Y58060200I-100000J0D01*
G01*
D12*
%TO.C,C1*%
X19747206Y23419447D02*
X19747206Y23203775D01*
X19027206Y23419447D02*
X19027206Y23203775D01*
%TO.C,R2*%
X37092298Y27323258D02*
X37092298Y26848742D01*
X36047298Y27323258D02*
X36047298Y26848742D01*
D16*
%TO.C,Y1*%
X29646787Y22381198D02*
G75*
G03*
X29646787Y22381198I-127000J0D01*
G01*
D15*
X31619787Y22906198D02*
X31619787Y25306199D01*
X31619787Y25306199D02*
X28819785Y25306199D01*
X28819785Y22906198D02*
X28819785Y25306199D01*
X31619787Y22906198D02*
X28819785Y22906198D01*
D12*
%TO.C,C43*%
X32910005Y26859413D02*
X32910005Y27140573D01*
X31890005Y26859413D02*
X31890005Y27140573D01*
%TO.C,C39*%
X30390003Y26859416D02*
X30390003Y27140576D01*
X31410003Y26859416D02*
X31410003Y27140576D01*
%TO.C,C32*%
X13789996Y12259422D02*
X13789996Y12540582D01*
X14809996Y12259422D02*
X14809996Y12540582D01*
%TO.C,R9*%
X3820540Y12161700D02*
X4295056Y12161700D01*
X3820540Y13206700D02*
X4295056Y13206700D01*
%TO.C,C49*%
X28443798Y24040577D02*
X28443798Y23759417D01*
X27423798Y24040577D02*
X27423798Y23759417D01*
%TO.C,C46*%
X36059798Y30374420D02*
X36059798Y30655580D01*
X37079798Y30374420D02*
X37079798Y30655580D01*
%TO.C,C24*%
X13790000Y15940585D02*
X13790000Y15659425D01*
X14810000Y15940585D02*
X14810000Y15659425D01*
%TO.C,C37*%
X27094418Y26449000D02*
X27375578Y26449000D01*
X27094418Y27469000D02*
X27375578Y27469000D01*
D15*
%TO.C,TP3*%
X29620998Y52443000D02*
G75*
G03*
X29620998Y52343000I0J-50000D01*
G01*
X29620998Y52343000D02*
G75*
G03*
X29620998Y52443000I0J50000D01*
G01*
X29620998Y52343000D02*
G75*
G03*
X29620998Y52443000I0J50000D01*
G01*
X29620998Y52443000D02*
X29620998Y52443000D01*
X29620998Y52343000D02*
X29620998Y52343000D01*
X29620998Y52343000D02*
X29620998Y52343000D01*
D12*
%TO.C,R5*%
X7122540Y12161700D02*
X7597056Y12161700D01*
X7122540Y13206700D02*
X7597056Y13206700D01*
%TO.C,C11*%
X14809998Y8759424D02*
X14809998Y9040584D01*
X13789998Y8759424D02*
X13789998Y9040584D01*
D15*
%TO.C,U1*%
X20039598Y56902200D02*
G75*
G03*
X20039598Y57102200I0J100000D01*
G01*
X20039598Y57102200D02*
G75*
G03*
X20039598Y56902200I0J-100000D01*
G01*
X20039598Y57102200D02*
X20039598Y57102200D01*
X20039598Y56902200D02*
X20039598Y56902200D01*
D17*
X25824598Y57642200D02*
X21274598Y57642200D01*
X25824598Y52562200D02*
X21274598Y52562200D01*
D12*
%TO.C,C23*%
X15959998Y15707842D02*
X15959998Y15492170D01*
X15239998Y15707842D02*
X15239998Y15492170D01*
%TO.C,C18*%
X23506453Y8992164D02*
X23506453Y9207836D01*
X24226453Y8992164D02*
X24226453Y9207836D01*
%TO.C,C45*%
X33389995Y26859418D02*
X33389995Y27140578D01*
X34409995Y26859418D02*
X34409995Y27140578D01*
D15*
%TO.C,TP2*%
X19388598Y20701211D02*
G75*
G03*
X19388598Y20601211I0J-50000D01*
G01*
X19388598Y20601211D02*
G75*
G03*
X19388598Y20701211I0J50000D01*
G01*
X19388598Y20701211D02*
G75*
G03*
X19388598Y20601211I0J-50000D01*
G01*
X19388598Y20701211D02*
X19388598Y20701211D01*
X19388598Y20601211D02*
X19388598Y20601211D01*
X19388598Y20701211D02*
X19388598Y20701211D01*
D12*
%TO.C,C19*%
X25676453Y8759420D02*
X25676453Y9040580D01*
X24656453Y8759420D02*
X24656453Y9040580D01*
%TO.C,C38*%
X33853998Y47419580D02*
X33853998Y47138420D01*
X32833998Y47419580D02*
X32833998Y47138420D01*
%TO.C,C8*%
X23538748Y39073200D02*
X24061252Y39073200D01*
X23538748Y37603200D02*
X24061252Y37603200D01*
D13*
%TO.C,U5*%
X27467991Y44862200D02*
G75*
G03*
X27467991Y44862200I-125000J0D01*
G01*
D12*
%TO.C,C10*%
X15239998Y8992167D02*
X15239998Y9207839D01*
X15959998Y8992167D02*
X15959998Y9207839D01*
%TO.C,C30*%
X31544998Y45735836D02*
X31544998Y45520164D01*
X30824998Y45735836D02*
X30824998Y45520164D01*
%TO.C,C5*%
X23805418Y32037000D02*
X24086578Y32037000D01*
X23805418Y33057000D02*
X24086578Y33057000D01*
%TO.C,C44*%
X35405798Y45735836D02*
X35405798Y45520164D01*
X34685798Y45735836D02*
X34685798Y45520164D01*
%TO.C,L1*%
X18774777Y27723000D02*
X18449219Y27723000D01*
X18774777Y26703000D02*
X18449219Y26703000D01*
D13*
%TO.C,U4*%
X31107853Y33374516D02*
G75*
G03*
X31107853Y33374516I-125000J0D01*
G01*
D12*
%TO.C,C48*%
X35885798Y45735836D02*
X35885798Y45520164D01*
X36605798Y45735836D02*
X36605798Y45520164D01*
D15*
%TO.C,J2*%
X20159798Y7229700D02*
G75*
G03*
X20159798Y7229700I-100000J0D01*
G01*
D12*
%TO.C,C40*%
X23805418Y35974000D02*
X24086578Y35974000D01*
X23805418Y36994000D02*
X24086578Y36994000D01*
%TO.C,C51*%
X25645798Y23759422D02*
X25645798Y24040582D01*
X26665798Y23759422D02*
X26665798Y24040582D01*
%TO.C,C33*%
X11764997Y11938745D02*
X11764997Y12461249D01*
X13234997Y11938745D02*
X13234997Y12461249D01*
%TO.C,C29*%
X28284998Y42980164D02*
X28284998Y43195836D01*
X29004998Y42980164D02*
X29004998Y43195836D01*
%TO.C,R6*%
X7122540Y17495700D02*
X7597056Y17495700D01*
X7122540Y18540700D02*
X7597056Y18540700D01*
%TO.C,R8*%
X4295056Y18540700D02*
X3820540Y18540700D01*
X4295056Y17495700D02*
X3820540Y17495700D01*
%TO.C,C17*%
X13235000Y20061254D02*
X13235000Y19538750D01*
X11765000Y20061254D02*
X11765000Y19538750D01*
%TO.C,C21*%
X26732746Y28256000D02*
X27255250Y28256000D01*
X26732746Y29726000D02*
X27255250Y29726000D01*
%TO.C,R3*%
X35425798Y47646359D02*
X35425798Y47953641D01*
X34665798Y47646359D02*
X34665798Y47953641D01*
%TO.C,C41*%
X25030991Y48000733D02*
X25030991Y48281893D01*
X24010991Y48000733D02*
X24010991Y48281893D01*
%TO.C,C14*%
X23959420Y43390000D02*
X24240580Y43390000D01*
X23959420Y44410000D02*
X24240580Y44410000D01*
%TO.C,L2*%
X28096577Y49262200D02*
X27771019Y49262200D01*
X28096577Y48242200D02*
X27771019Y48242200D01*
%TO.C,C22*%
X29204305Y50250190D02*
X29356808Y50402693D01*
X28695188Y50759307D02*
X28847691Y50911810D01*
%TO.C,C36*%
X27701455Y12661252D02*
X27701455Y12138748D01*
X26231455Y12661252D02*
X26231455Y12138748D01*
%TO.C,U6*%
X4575077Y13839917D02*
X3775077Y13839917D01*
X4575077Y16959917D02*
X5375077Y16959917D01*
X4575077Y16959917D02*
X2775077Y16959917D01*
X4575077Y13839917D02*
X5375077Y13839917D01*
%TO.C,C26*%
X23506453Y15607836D02*
X23506453Y15392164D01*
X24226453Y15607836D02*
X24226453Y15392164D01*
%TD*%
M02*
