%TF.GenerationSoftware,KiCad,Pcbnew,(6.0.1)*%
%TF.CreationDate,2022-03-10T13:17:56+01:00*%
%TF.ProjectId,XCOMMS_RF,58434f4d-4d53-45f5-9246-2e6b69636164,rev?*%
%TF.SameCoordinates,PX7ed6b40PY82a7440*%
%TF.FileFunction,Legend,Bot*%
%TF.FilePolarity,Positive*%
%FSLAX46Y46*%
G04 Gerber Fmt 4.6, Leading zero omitted, Abs format (unit mm)*
G04 Created by KiCad (PCBNEW (6.0.1)) date 2022-03-10 13:17:56*
%MOMM*%
%LPD*%
G01*
G04 APERTURE LIST*
%ADD10C,0.150000*%
%ADD11C,0.200000*%
%ADD12C,0.120000*%
G04 APERTURE END LIST*
D10*
%TO.C,J3*%
X1427378Y37213334D02*
X2141664Y37213334D01*
X2284521Y37260953D01*
X2379759Y37356191D01*
X2427378Y37499048D01*
X2427378Y37594286D01*
X1427378Y36832381D02*
X1427378Y36213334D01*
X1808331Y36546667D01*
X1808331Y36403810D01*
X1855950Y36308572D01*
X1903569Y36260953D01*
X1998807Y36213334D01*
X2236902Y36213334D01*
X2332140Y36260953D01*
X2379759Y36308572D01*
X2427378Y36403810D01*
X2427378Y36689524D01*
X2379759Y36784762D01*
X2332140Y36832381D01*
%TO.C,C50*%
X23397142Y12342856D02*
X23444761Y12390475D01*
X23492380Y12533332D01*
X23492380Y12628570D01*
X23444761Y12771427D01*
X23349523Y12866665D01*
X23254285Y12914284D01*
X23063809Y12961903D01*
X22920952Y12961903D01*
X22730476Y12914284D01*
X22635238Y12866665D01*
X22540000Y12771427D01*
X22492380Y12628570D01*
X22492380Y12533332D01*
X22540000Y12390475D01*
X22587619Y12342856D01*
X22492380Y11438094D02*
X22492380Y11914284D01*
X22968571Y11961903D01*
X22920952Y11914284D01*
X22873333Y11819046D01*
X22873333Y11580951D01*
X22920952Y11485713D01*
X22968571Y11438094D01*
X23063809Y11390475D01*
X23301904Y11390475D01*
X23397142Y11438094D01*
X23444761Y11485713D01*
X23492380Y11580951D01*
X23492380Y11819046D01*
X23444761Y11914284D01*
X23397142Y11961903D01*
X22492380Y10771427D02*
X22492380Y10676189D01*
X22540000Y10580951D01*
X22587619Y10533332D01*
X22682857Y10485713D01*
X22873333Y10438094D01*
X23111428Y10438094D01*
X23301904Y10485713D01*
X23397142Y10533332D01*
X23444761Y10580951D01*
X23492380Y10676189D01*
X23492380Y10771427D01*
X23444761Y10866665D01*
X23397142Y10914284D01*
X23301904Y10961903D01*
X23111428Y11009522D01*
X22873333Y11009522D01*
X22682857Y10961903D01*
X22587619Y10914284D01*
X22540000Y10866665D01*
X22492380Y10771427D01*
%TO.C,U7*%
X20461904Y10082622D02*
X20461904Y9273098D01*
X20414285Y9177860D01*
X20366666Y9130241D01*
X20271428Y9082622D01*
X20080952Y9082622D01*
X19985714Y9130241D01*
X19938095Y9177860D01*
X19890476Y9273098D01*
X19890476Y10082622D01*
X19509523Y10082622D02*
X18842857Y10082622D01*
X19271428Y9082622D01*
D11*
%TO.C,J3*%
X9509998Y26800000D02*
G75*
G03*
X9509998Y26800000I-100000J0D01*
G01*
X7859998Y25975000D02*
X6969998Y25975000D01*
X7859998Y39055000D02*
X7859998Y38950000D01*
X4809998Y39055000D02*
X4809998Y38950000D01*
X4809998Y25975000D02*
X4809998Y26080000D01*
X4809998Y39055000D02*
X5699998Y39055000D01*
X4809998Y25975000D02*
X5699998Y25975000D01*
X7859998Y39055000D02*
X6969998Y39055000D01*
X7859998Y25975000D02*
X7859998Y26080000D01*
D12*
%TO.C,C50*%
X23840000Y11807834D02*
X23840000Y11592162D01*
X24560000Y11807834D02*
X24560000Y11592162D01*
%TO.C,U7*%
X19700000Y15495002D02*
X21650000Y15495002D01*
X19700000Y10375002D02*
X16250000Y10375002D01*
X19700000Y10375002D02*
X21650000Y10375002D01*
X19700000Y15495002D02*
X17750000Y15495002D01*
%TD*%
M02*
