%TF.GenerationSoftware,KiCad,Pcbnew,(6.0.1)*%
%TF.CreationDate,2022-04-26T10:15:20+02:00*%
%TF.ProjectId,XCOMMS_RF,58434f4d-4d53-45f5-9246-2e6b69636164,rev?*%
%TF.SameCoordinates,PX7ed6b40PY82a7440*%
%TF.FileFunction,Copper,L2,Bot*%
%TF.FilePolarity,Positive*%
%FSLAX46Y46*%
G04 Gerber Fmt 4.6, Leading zero omitted, Abs format (unit mm)*
G04 Created by KiCad (PCBNEW (6.0.1)) date 2022-04-26 10:15:20*
%MOMM*%
%LPD*%
G01*
G04 APERTURE LIST*
G04 Aperture macros list*
%AMRoundRect*
0 Rectangle with rounded corners*
0 $1 Rounding radius*
0 $2 $3 $4 $5 $6 $7 $8 $9 X,Y pos of 4 corners*
0 Add a 4 corners polygon primitive as box body*
4,1,4,$2,$3,$4,$5,$6,$7,$8,$9,$2,$3,0*
0 Add four circle primitives for the rounded corners*
1,1,$1+$1,$2,$3*
1,1,$1+$1,$4,$5*
1,1,$1+$1,$6,$7*
1,1,$1+$1,$8,$9*
0 Add four rect primitives between the rounded corners*
20,1,$1+$1,$2,$3,$4,$5,0*
20,1,$1+$1,$4,$5,$6,$7,0*
20,1,$1+$1,$6,$7,$8,$9,0*
20,1,$1+$1,$8,$9,$2,$3,0*%
G04 Aperture macros list end*
%TA.AperFunction,ComponentPad*%
%ADD10C,5.399999*%
%TD*%
%TA.AperFunction,SMDPad,CuDef*%
%ADD11R,2.220000X0.740000*%
%TD*%
%TA.AperFunction,SMDPad,CuDef*%
%ADD12RoundRect,0.140000X-0.170000X0.140000X-0.170000X-0.140000X0.170000X-0.140000X0.170000X0.140000X0*%
%TD*%
%TA.AperFunction,SMDPad,CuDef*%
%ADD13RoundRect,0.150000X-0.825000X-0.150000X0.825000X-0.150000X0.825000X0.150000X-0.825000X0.150000X0*%
%TD*%
%TA.AperFunction,SMDPad,CuDef*%
%ADD14R,2.410000X3.810000*%
%TD*%
%TA.AperFunction,ViaPad*%
%ADD15C,0.508000*%
%TD*%
%TA.AperFunction,Conductor*%
%ADD16C,0.381000*%
%TD*%
%TA.AperFunction,Conductor*%
%ADD17C,0.508000*%
%TD*%
%TA.AperFunction,Conductor*%
%ADD18C,0.254000*%
%TD*%
%TA.AperFunction,Conductor*%
%ADD19C,0.152400*%
%TD*%
%TA.AperFunction,Conductor*%
%ADD20C,0.700000*%
%TD*%
G04 APERTURE END LIST*
D10*
%TO.P,SCRW2,1,1*%
%TO.N,GND*%
X3000000Y62000000D03*
%TD*%
%TO.P,SCRW4,1,1*%
%TO.N,GND*%
X37000000Y62000000D03*
%TD*%
%TO.P,SCRW1,1,1*%
%TO.N,GND*%
X3000000Y3000000D03*
%TD*%
%TO.P,SCRW3,1,1*%
%TO.N,GND*%
X37000000Y3000000D03*
%TD*%
D11*
%TO.P,J3,01*%
%TO.N,/Vdd_PA*%
X8865000Y26785011D03*
%TO.P,J3,02*%
%TO.N,/Vg_PA3*%
X6135000Y26785011D03*
%TO.P,J3,03*%
%TO.N,/Vdd_AMP*%
X8865000Y28055011D03*
%TO.P,J3,04*%
%TO.N,/Vg_PA2*%
X6135000Y28055011D03*
%TO.P,J3,05*%
%TO.N,GND*%
X8865000Y29325011D03*
%TO.P,J3,06*%
%TO.N,/Vg_PA1*%
X6135000Y29325011D03*
%TO.P,J3,07*%
%TO.N,/T_CSB*%
X8865000Y30595011D03*
%TO.P,J3,08*%
%TO.N,GND*%
X6135000Y30595011D03*
%TO.P,J3,09*%
%TO.N,/PLL_CE*%
X8865000Y31865011D03*
%TO.P,J3,10*%
%TO.N,GND*%
X6135000Y31865011D03*
%TO.P,J3,11*%
%TO.N,+3V3*%
X8865000Y33135011D03*
%TO.P,J3,12*%
%TO.N,GND*%
X6135000Y33135011D03*
%TO.P,J3,13*%
%TO.N,/PLL_CSB*%
X8865000Y34405011D03*
%TO.P,J3,14*%
%TO.N,GND*%
X6135000Y34405011D03*
%TO.P,J3,15*%
%TO.N,unconnected-(J3-Pad15)*%
X8865000Y35675011D03*
%TO.P,J3,16*%
%TO.N,GND*%
X6135000Y35675011D03*
%TO.P,J3,17*%
%TO.N,/SCK*%
X8865000Y36945011D03*
%TO.P,J3,18*%
%TO.N,/Tx_PM*%
X6135000Y36945011D03*
%TO.P,J3,19*%
%TO.N,/SDO*%
X8865000Y38215011D03*
%TO.P,J3,20*%
%TO.N,/SDI*%
X6135000Y38215011D03*
%TD*%
D12*
%TO.P,C50,1*%
%TO.N,GND*%
X24200000Y12280000D03*
%TO.P,C50,2*%
%TO.N,+3V3*%
X24200000Y11320000D03*
%TD*%
D13*
%TO.P,U7,1,SCLK*%
%TO.N,/SCK*%
X17225001Y11344999D03*
%TO.P,U7,2,DOUT*%
%TO.N,/SDO*%
X17225001Y12614999D03*
%TO.P,U7,3,DIN*%
%TO.N,/SDI*%
X17225001Y13884999D03*
%TO.P,U7,4,CS*%
%TO.N,/T_CSB*%
X17225001Y15154999D03*
%TO.P,U7,5,INT*%
%TO.N,unconnected-(U7-Pad5)*%
X22175001Y15154999D03*
%TO.P,U7,6,CT*%
%TO.N,unconnected-(U7-Pad6)*%
X22175001Y13884999D03*
%TO.P,U7,7,GND*%
%TO.N,GND*%
X22175001Y12614999D03*
%TO.P,U7,8,VDD*%
%TO.N,+3V3*%
X22175001Y11344999D03*
D14*
%TO.P,U7,9,EP*%
%TO.N,GND*%
X19700001Y13249999D03*
%TD*%
D15*
%TO.N,GND*%
X36500000Y45500000D03*
X20416000Y31971000D03*
X21200000Y56500000D03*
X4668000Y31844000D03*
X25000000Y42700000D03*
X20400000Y27500000D03*
X20400000Y37600000D03*
X22500000Y59500000D03*
X29250000Y26500000D03*
X25500000Y17750000D03*
X30250000Y26000000D03*
X33097995Y42426999D03*
X39000000Y8500000D03*
X33100000Y41200000D03*
X17250000Y18000000D03*
X15750000Y38750000D03*
X9250000Y4500000D03*
X23500000Y49500000D03*
X22250000Y19000000D03*
X20400000Y17550000D03*
X7500000Y17250000D03*
X20000000Y47100000D03*
X32047995Y41877000D03*
X22000000Y57000000D03*
X4750000Y15500000D03*
X17500000Y64000000D03*
X18700000Y12765101D03*
X1000000Y56500000D03*
X39000000Y10500000D03*
X37250000Y38000000D03*
X13000000Y21000000D03*
X29500000Y53250000D03*
X27500000Y49750000D03*
X28250000Y7250000D03*
X19800000Y42200000D03*
X27250000Y54750000D03*
X31338000Y31590000D03*
X31500000Y26500000D03*
X29750000Y12500000D03*
X19692352Y12765101D03*
X16750000Y16000000D03*
X35500000Y43750000D03*
X1000000Y48500000D03*
X34000000Y64000000D03*
X10002000Y14318000D03*
X18384000Y32987000D03*
X7250000Y21500000D03*
X32989000Y31463000D03*
X33250000Y4000000D03*
X37000000Y15500000D03*
X33097995Y43526999D03*
X32000000Y57000000D03*
X17000000Y2000000D03*
X30900000Y40000000D03*
X16750000Y39500000D03*
X14500000Y33000000D03*
X1000000Y10500000D03*
X17000000Y3000000D03*
X29847995Y46224000D03*
X7000000Y23250000D03*
X21750000Y20750000D03*
X32750000Y28500000D03*
X26500000Y42250000D03*
X35500000Y25500000D03*
X12250000Y50500000D03*
X4250000Y51500000D03*
X21200000Y57500000D03*
X30900000Y37900000D03*
X21000000Y5850000D03*
X10000000Y1000000D03*
X20650000Y11750000D03*
X17500000Y59500000D03*
X33500000Y37750000D03*
X21200000Y45500000D03*
X25750000Y5500000D03*
X3500000Y41250000D03*
X18300000Y39600000D03*
X18400000Y28600000D03*
X22700000Y61000000D03*
X18400000Y18800000D03*
X18800000Y53500000D03*
X20400000Y28600000D03*
X26250000Y39250000D03*
X15250000Y21000000D03*
X30947995Y42426999D03*
X18800000Y55500000D03*
X11750000Y47750000D03*
X33500000Y51500000D03*
X39000000Y50500000D03*
X14750000Y48000000D03*
X18800000Y47500000D03*
X28250000Y59000000D03*
X3750000Y57500000D03*
X28747995Y46224000D03*
X5000000Y10250000D03*
X24500000Y3000000D03*
X29250000Y39750000D03*
X19700000Y11750000D03*
X3000000Y49000000D03*
X17500000Y61000000D03*
X22750000Y38000000D03*
X24000000Y64000000D03*
X10000000Y64000000D03*
X23000000Y5000000D03*
X21000000Y8900000D03*
X20400000Y20800000D03*
X1000000Y20500000D03*
X10500000Y2500000D03*
X39000000Y14500000D03*
X24500000Y46250000D03*
X16000000Y1000000D03*
X18400000Y34200000D03*
X21200000Y49500000D03*
X4500000Y46000000D03*
X18384000Y31971000D03*
X39000000Y22500000D03*
X1000000Y8500000D03*
X8000000Y1000000D03*
X10250000Y59250000D03*
X1000000Y26500000D03*
X31250000Y5250000D03*
X22000000Y39250000D03*
X1000000Y28500000D03*
X28000000Y64000000D03*
X20400000Y29700000D03*
X37500000Y27250000D03*
X23500000Y55750000D03*
X16750000Y19750000D03*
X23000000Y1000000D03*
X12000000Y1000000D03*
X15250000Y42000000D03*
X21000000Y6850000D03*
X17000000Y47000000D03*
X20400000Y19800000D03*
X1000000Y6500000D03*
X21200000Y42400000D03*
X1000000Y34500000D03*
X39000000Y48500000D03*
X36250000Y52000000D03*
X23250000Y21500000D03*
X39000000Y20500000D03*
X23000000Y2000000D03*
X21000000Y7850000D03*
X30000000Y1000000D03*
X30750000Y51250000D03*
X27647996Y46224000D03*
X7750000Y20000000D03*
X10000000Y42000000D03*
X33100000Y40000000D03*
X2750000Y43500000D03*
X20993073Y40300000D03*
X26250000Y47750000D03*
X3500000Y54750000D03*
X14000000Y64000000D03*
X1000000Y44500000D03*
X32000000Y7000000D03*
X30000000Y27000000D03*
X19700000Y13750000D03*
X1000000Y54500000D03*
X18400000Y19800000D03*
X17000000Y57000000D03*
X12250000Y4750000D03*
X15500000Y17250000D03*
X34000000Y1000000D03*
X24250000Y47750000D03*
X39000000Y12500000D03*
X22618300Y64000000D03*
X14500000Y3500000D03*
X22750000Y53000000D03*
X1000000Y52500000D03*
X19000000Y5850000D03*
X14000000Y1000000D03*
X16250000Y28500000D03*
X11750000Y6250000D03*
X18400000Y27500000D03*
X20400000Y26200000D03*
X26947995Y45174000D03*
X18800000Y56500000D03*
X32500000Y60750000D03*
X18384000Y30955000D03*
X18400000Y17550000D03*
X7500000Y7750000D03*
X4668000Y33114000D03*
X33250000Y59000000D03*
X18800000Y54500000D03*
X18300000Y37600000D03*
X34500000Y7750000D03*
X17500000Y62500000D03*
X39000000Y38500000D03*
X23000000Y40299732D03*
X18800000Y58500000D03*
X1000000Y12500000D03*
X17000000Y5000000D03*
X4668000Y35654000D03*
X8250000Y41250000D03*
X21200000Y58500000D03*
X19400000Y19000000D03*
X28750000Y41250000D03*
X6500000Y59000000D03*
X29000000Y62000000D03*
X20500000Y36100000D03*
X24000000Y40299732D03*
X22250000Y8500000D03*
X28500000Y3000000D03*
X22618300Y62500000D03*
X39000000Y16500000D03*
X39000000Y44500000D03*
X18800000Y57500000D03*
X34250000Y10250000D03*
X34500000Y22500000D03*
X27647996Y44074000D03*
X24500000Y55000000D03*
X28500000Y42500000D03*
X16750000Y25750000D03*
X27000000Y4250000D03*
X22000000Y27000000D03*
X30750000Y58750000D03*
X15750000Y49750000D03*
X34500000Y20500000D03*
X31750000Y25500000D03*
X33250000Y36250000D03*
X23750000Y7250000D03*
X37500000Y29000000D03*
X22000000Y7000000D03*
X15250000Y6500000D03*
X24750000Y52500000D03*
X39000000Y54500000D03*
X20500000Y43000000D03*
X5500000Y6000000D03*
X39000000Y26500000D03*
X6000000Y1000000D03*
X39000000Y34500000D03*
X22000000Y47000000D03*
X21200000Y55500000D03*
X1000000Y14500000D03*
X1000000Y38500000D03*
X13250000Y30000000D03*
X18400000Y20800000D03*
X26000000Y64000000D03*
X19000000Y6850000D03*
X20400000Y39600000D03*
X1000000Y16500000D03*
X22000000Y40299732D03*
X32000000Y64000000D03*
X18400000Y26200000D03*
X26250000Y59500000D03*
X39000000Y30500000D03*
X28000000Y29250000D03*
X1000000Y40500000D03*
X19000000Y7850000D03*
X4668000Y30574000D03*
X32000000Y47000000D03*
X22500000Y34250000D03*
X22500000Y36000000D03*
X24800000Y40600000D03*
X30900000Y38800000D03*
X15250000Y45750000D03*
X18300000Y40600000D03*
X17000000Y4000000D03*
X24000000Y45000000D03*
X2500000Y16500000D03*
X21200000Y47500000D03*
X17250000Y43250000D03*
X32500000Y45324000D03*
X31250000Y13750000D03*
X22100000Y42900000D03*
X25000000Y45000000D03*
X21200000Y48500000D03*
X20400000Y18800000D03*
X18400000Y21800000D03*
X30250000Y49000000D03*
X1000000Y22500000D03*
X3750000Y8000000D03*
X20416000Y30955000D03*
X24000000Y1000000D03*
X10750000Y7500000D03*
X39000000Y52500000D03*
X15000000Y35000000D03*
X39000000Y56500000D03*
X11000000Y12000000D03*
X23000000Y3000000D03*
X36750000Y7000000D03*
X7000000Y47000000D03*
X35750000Y55000000D03*
X18800000Y49500000D03*
X1000000Y18500000D03*
X26750000Y18000000D03*
X36500000Y40500000D03*
X28000000Y1000000D03*
X12250000Y40500000D03*
X7000000Y57000000D03*
X29000000Y56750000D03*
X33097995Y44624000D03*
X16750000Y22250000D03*
X25250000Y34500000D03*
X24500000Y19000000D03*
X30750000Y61500000D03*
X28747995Y44074000D03*
X39000000Y40500000D03*
X20400000Y24250000D03*
X14750000Y40000000D03*
X17750000Y5750000D03*
X25500000Y50750000D03*
X33750000Y45250000D03*
X36000000Y12750000D03*
X15500000Y55250000D03*
X18400000Y29700000D03*
X39000000Y24500000D03*
X23000000Y42400000D03*
X8000000Y11750000D03*
X20400000Y25250000D03*
X26766000Y29304000D03*
X23000000Y4000000D03*
X26000000Y1000000D03*
X18000000Y8000000D03*
X1000000Y50500000D03*
X31750000Y10750000D03*
X1000000Y30500000D03*
X1000000Y36500000D03*
X18800000Y46500000D03*
X20400000Y15550000D03*
X30750000Y27750000D03*
X13000000Y17250000D03*
X29847995Y44074000D03*
X31800000Y45924000D03*
X35000000Y58750000D03*
X30750000Y2500000D03*
X34500000Y41750000D03*
X15250000Y22750000D03*
X30000000Y34250000D03*
X12000000Y64000000D03*
X22000000Y17000000D03*
X18800000Y48500000D03*
X28000000Y39500000D03*
X29750000Y9500000D03*
X22250000Y5750000D03*
X25750000Y44000000D03*
X10002000Y16223000D03*
X39000000Y32500000D03*
X1000000Y24500000D03*
X10002000Y19525000D03*
X18400000Y16550000D03*
X13500000Y22500000D03*
X29250000Y25500000D03*
X16000000Y64000000D03*
X20400000Y34200000D03*
X17000000Y1000000D03*
X30947995Y43526999D03*
X12000000Y43250000D03*
X1000000Y58500000D03*
X25250000Y37750000D03*
X39000000Y28500000D03*
X14250000Y28500000D03*
X1000000Y42500000D03*
X27500000Y52500000D03*
X17250000Y41750000D03*
X7250000Y2750000D03*
X21200000Y52500000D03*
X20400000Y38600000D03*
X20650000Y12750000D03*
X22000000Y45000000D03*
X30947995Y46224000D03*
X9500000Y40000000D03*
X18800000Y50500000D03*
X26750000Y56500000D03*
X21200000Y51500000D03*
X1000000Y32500000D03*
X25200000Y41400000D03*
X36250000Y47500000D03*
X2500000Y53500000D03*
X39000000Y46500000D03*
X10002000Y23970000D03*
X18800000Y45500000D03*
X27250000Y41000000D03*
X20400000Y16550000D03*
X9250000Y62250000D03*
X34750000Y47000000D03*
X24500000Y58000000D03*
X29750000Y36000000D03*
X36000000Y49750000D03*
X39000000Y58500000D03*
X19376005Y27800000D03*
X18400000Y22800000D03*
X18300000Y38600000D03*
X19400000Y34200000D03*
X32500000Y26500000D03*
X23500000Y17000000D03*
X29324994Y28074994D03*
X37500000Y17750000D03*
X2750000Y10500000D03*
X8000000Y64000000D03*
X20416000Y32987000D03*
X32000000Y1000000D03*
X18701752Y11774501D03*
X29250000Y5500000D03*
X30000000Y64000000D03*
X18300000Y36100000D03*
X19600000Y43600000D03*
X20400000Y21800000D03*
X13750000Y36250000D03*
X22750000Y29000000D03*
X39000000Y36500000D03*
X22250000Y24500000D03*
X27750000Y61500000D03*
X19000000Y8900000D03*
X10002000Y21684000D03*
X32250000Y54750000D03*
X37250000Y10000000D03*
X30900000Y41200000D03*
X23000000Y45000000D03*
X10383000Y29304000D03*
X14000000Y35000000D03*
X29250000Y38500000D03*
X3000000Y12750000D03*
X24500000Y62250000D03*
X33250000Y12500000D03*
X15000000Y27250000D03*
X21200000Y46500000D03*
X28000000Y47750000D03*
X21200000Y54500000D03*
X21200000Y53500000D03*
X28000000Y34500000D03*
X20682952Y13755701D03*
X17000000Y7000000D03*
X24500000Y36250000D03*
X13750000Y19500000D03*
X4668000Y34384000D03*
X39000000Y18500000D03*
X20400000Y22800000D03*
X24000000Y42700000D03*
X6000000Y64000000D03*
X13500000Y61000000D03*
X39000000Y6500000D03*
X18701752Y13755701D03*
X13000000Y56750000D03*
X21200000Y50500000D03*
X6250000Y13250000D03*
X32250000Y48750000D03*
X39000000Y42500000D03*
X18900000Y41600000D03*
X31250000Y34250000D03*
X14000000Y26250000D03*
X1000000Y46500000D03*
X19000000Y44500000D03*
X17000000Y27000000D03*
%TO.N,+3V3*%
X30300000Y15715000D03*
X25369000Y21557000D03*
X12034000Y33114000D03*
X36164000Y18382000D03*
X36672000Y26256000D03*
X30322000Y21600000D03*
X35148000Y37559000D03*
X28671000Y31590000D03*
X10383000Y33139400D03*
%TO.N,/Vdd_AMP*%
X26131000Y36900000D03*
X8986000Y28034000D03*
X5557000Y51656000D03*
X10383000Y28034000D03*
X13685000Y51783000D03*
%TO.N,/Vg_PA1*%
X4668000Y29304000D03*
%TO.N,/Vg_PA2*%
X4668000Y28034000D03*
%TO.N,/Vg_PA3*%
X4668000Y26764000D03*
%TO.N,/LocalOscillator/VTune*%
X36672000Y24762000D03*
X23718000Y24859000D03*
%TO.N,/SDI*%
X35402012Y27761692D03*
%TO.N,/SDO*%
X12034000Y38219400D03*
X35200000Y30400000D03*
X10383000Y38219400D03*
%TO.N,/SCK*%
X12034000Y36949400D03*
X35402000Y26782900D03*
X10383000Y36949400D03*
%TO.N,/PLL_CSB*%
X30299990Y31590000D03*
X12034000Y34384000D03*
X10383000Y34384000D03*
%TO.N,/T_CSB*%
X10383000Y30574000D03*
X12034000Y30574000D03*
%TO.N,/Tx_PM*%
X11145000Y45941000D03*
%TO.N,/Vdd_PA*%
X27782000Y15080000D03*
X27782000Y11905000D03*
X27782000Y10254000D03*
X11780000Y10254000D03*
%TO.N,/Vref*%
X6319000Y53434000D03*
X16900000Y9334900D03*
%TO.N,/Vdet*%
X6954000Y45941000D03*
X18050000Y9334900D03*
%TO.N,/PLL_CE*%
X32900000Y15715000D03*
X27900000Y23500000D03*
X12034000Y31844000D03*
X10383000Y31844000D03*
%TO.N,/AD8031_IN-*%
X8986000Y49761919D03*
X8605000Y44290000D03*
%TD*%
D16*
%TO.N,GND*%
X6113989Y30574000D02*
X6135000Y30595011D01*
X4668000Y33114000D02*
X6113989Y33114000D01*
X4668000Y30574000D02*
X6113989Y30574000D01*
X4668000Y34384000D02*
X6113989Y34384000D01*
X6113989Y33114000D02*
X6135000Y33135011D01*
X6113989Y31844000D02*
X6135000Y31865011D01*
X4668000Y35654000D02*
X6113989Y35654000D01*
X4668000Y31844000D02*
X6113989Y31844000D01*
D17*
X6130000Y30600000D02*
X6135000Y30595000D01*
D16*
X6113989Y35654000D02*
X6135000Y35675011D01*
D17*
X8886000Y29304000D02*
X8865000Y29325000D01*
X10383000Y29304000D02*
X8886000Y29304000D01*
D16*
X6113989Y34384000D02*
X6135000Y34405011D01*
D18*
%TO.N,+3V3*%
X36164000Y22364000D02*
X37700000Y23900000D01*
D16*
X24200000Y11320000D02*
X25820000Y11320000D01*
X26750000Y12250000D02*
X26750000Y15250000D01*
X27272420Y15772420D02*
X30242580Y15772420D01*
X30242580Y15772420D02*
X30300000Y15715000D01*
D18*
X35628751Y26256000D02*
X35622740Y26249989D01*
D16*
X26750000Y15250000D02*
X27272420Y15772420D01*
D17*
X8869400Y33139400D02*
X8865000Y33135000D01*
D18*
X27401000Y30320000D02*
X14828000Y30320000D01*
X30322000Y21600000D02*
X25412000Y21600000D01*
X37053000Y26256000D02*
X36672000Y26256000D01*
X34011011Y26249989D02*
X28671000Y31590000D01*
X36164000Y18382000D02*
X36164000Y15588000D01*
X30300000Y21578000D02*
X30300000Y15715000D01*
X31515000Y14500000D02*
X30300000Y15715000D01*
D17*
X10383000Y33139400D02*
X8869400Y33139400D01*
D16*
X22175000Y11345000D02*
X24175000Y11345000D01*
D18*
X37700000Y23900000D02*
X37700000Y25609000D01*
X30322000Y21600000D02*
X30300000Y21578000D01*
X36672000Y36035000D02*
X35148000Y37559000D01*
X35076000Y14500000D02*
X31515000Y14500000D01*
X35622740Y26249989D02*
X34011011Y26249989D01*
X37700000Y25609000D02*
X37053000Y26256000D01*
X36164000Y18382000D02*
X36164000Y22364000D01*
X14828000Y30320000D02*
X12034000Y33114000D01*
D16*
X25820000Y11320000D02*
X26750000Y12250000D01*
D18*
X36672000Y26256000D02*
X36672000Y36035000D01*
D16*
X24175000Y11345000D02*
X24200000Y11320000D01*
D18*
X36164000Y15588000D02*
X35076000Y14500000D01*
X36672000Y26256000D02*
X35628751Y26256000D01*
X25412000Y21600000D02*
X25369000Y21557000D01*
X28671000Y31590000D02*
X27401000Y30320000D01*
D16*
%TO.N,/Vdd_AMP*%
X15741000Y36900000D02*
X26131000Y36900000D01*
D17*
X8886000Y28034000D02*
X8865000Y28055000D01*
D16*
X13685000Y53561000D02*
X12796000Y54450000D01*
X5557000Y53815000D02*
X5557000Y51656000D01*
X13685000Y51783000D02*
X13685000Y53561000D01*
D17*
X10383000Y28034000D02*
X8886000Y28034000D01*
D16*
X13685000Y51783000D02*
X13685000Y38956000D01*
X13685000Y38956000D02*
X15741000Y36900000D01*
X6192000Y54450000D02*
X5557000Y53815000D01*
X12796000Y54450000D02*
X6192000Y54450000D01*
D17*
%TO.N,/Vg_PA1*%
X6114000Y29304000D02*
X6135000Y29325000D01*
X6113989Y29304000D02*
X6135000Y29325011D01*
X4668000Y29304000D02*
X6113989Y29304000D01*
%TO.N,/Vg_PA2*%
X6113989Y28034000D02*
X6135000Y28055011D01*
X4668000Y28034000D02*
X6113989Y28034000D01*
X6114000Y28034000D02*
X6135000Y28055000D01*
%TO.N,/Vg_PA3*%
X6113989Y26764000D02*
X6135000Y26785011D01*
X4668000Y26764000D02*
X6113989Y26764000D01*
X6120000Y26800000D02*
X6135000Y26785000D01*
D18*
%TO.N,/LocalOscillator/VTune*%
X23815000Y24762000D02*
X36672000Y24762000D01*
X23718000Y24859000D02*
X23815000Y24762000D01*
D19*
%TO.N,/SDI*%
X16940000Y13850000D02*
X13772000Y13850000D01*
X13772000Y13850000D02*
X11526000Y16096000D01*
X35402000Y27761682D02*
X35783000Y28142682D01*
X35783000Y28142682D02*
X35783000Y30701000D01*
X11526000Y16096000D02*
X11526000Y38829000D01*
X6135000Y38215011D02*
X6135000Y38215000D01*
X31211000Y35273000D02*
X15971000Y35273000D01*
X15971000Y35273000D02*
X12427910Y38816090D01*
X12427910Y38816090D02*
X6736079Y38816090D01*
X35783000Y30701000D02*
X31211000Y35273000D01*
X6736079Y38816090D02*
X6135000Y38215011D01*
%TO.N,/SDO*%
X10383000Y38219400D02*
X10738600Y38219400D01*
X12389600Y38219400D02*
X12846320Y37762680D01*
X12846320Y37762680D02*
X12846320Y34206680D01*
X14133000Y12600000D02*
X16960000Y12600000D01*
D17*
X10383000Y38219400D02*
X10378611Y38215011D01*
D19*
X11195320Y37762680D02*
X11195320Y15537680D01*
X12846320Y34206680D02*
X13558000Y33495000D01*
X13558000Y33495000D02*
X32417500Y33495000D01*
X32417500Y33495000D02*
X35200000Y30712500D01*
D18*
X8880000Y38200000D02*
X8865000Y38215000D01*
D19*
X12034000Y38219400D02*
X12389600Y38219400D01*
X35200000Y30712500D02*
X35200000Y30400000D01*
D17*
X10378611Y38215011D02*
X8864999Y38215011D01*
D19*
X11195320Y15537680D02*
X14133000Y12600000D01*
X10738600Y38219400D02*
X11195320Y37762680D01*
%TO.N,/SCK*%
X10891000Y36797000D02*
X10891000Y15080000D01*
X14066000Y32479000D02*
X32862000Y32479000D01*
X12034000Y36949400D02*
X12389600Y36949400D01*
X12542000Y34003000D02*
X14066000Y32479000D01*
X34386000Y30955000D02*
X34386000Y27780000D01*
X10891000Y15080000D02*
X14621000Y11350000D01*
X8869400Y36949400D02*
X8865000Y36945000D01*
X10383000Y36949400D02*
X10738600Y36949400D01*
X35383100Y26782900D02*
X35402000Y26782900D01*
X34386000Y27780000D02*
X35383100Y26782900D01*
X32862000Y32479000D02*
X34386000Y30955000D01*
X12542000Y36797000D02*
X12542000Y34003000D01*
D17*
X10383000Y36949400D02*
X10382995Y36949405D01*
D19*
X10738600Y36949400D02*
X10891000Y36797000D01*
X14621000Y11350000D02*
X16980000Y11350000D01*
X12389600Y36949400D02*
X12542000Y36797000D01*
D17*
X10382995Y36949405D02*
X8869401Y36949405D01*
D19*
%TO.N,/PLL_CSB*%
X29827889Y32072111D02*
X30300000Y31600000D01*
D17*
X10383000Y34384000D02*
X8886000Y34384000D01*
D19*
X27631595Y31463000D02*
X28240706Y32072111D01*
X28240706Y32072111D02*
X29827889Y32072111D01*
D17*
X8886000Y34384000D02*
X8865000Y34405000D01*
D19*
X14574000Y31463000D02*
X27631595Y31463000D01*
X12034000Y34003000D02*
X14574000Y31463000D01*
X12034000Y34384000D02*
X12034000Y34003000D01*
%TO.N,/T_CSB*%
X12034000Y16350000D02*
X13229001Y15154999D01*
D17*
X10383000Y30574000D02*
X8886000Y30574000D01*
X8886000Y30574000D02*
X8865000Y30595000D01*
D19*
X12034000Y30574000D02*
X12034000Y16350000D01*
X13229001Y15154999D02*
X16975000Y15154999D01*
D18*
%TO.N,/Tx_PM*%
X4773989Y36945011D02*
X6135000Y36945011D01*
X4287000Y38829000D02*
X4287000Y37432000D01*
X4287000Y37432000D02*
X4773989Y36945011D01*
X11145000Y45687000D02*
X4287000Y38829000D01*
X11145000Y45941000D02*
X11145000Y45687000D01*
D20*
%TO.N,/Vdd_PA*%
X21046000Y10254000D02*
X11164100Y10254000D01*
X11145000Y10254000D02*
X8865000Y12534000D01*
X27274000Y9746000D02*
X21554000Y9746000D01*
X27782000Y10254000D02*
X27782000Y15080000D01*
X21554000Y9746000D02*
X21046000Y10254000D01*
X8865000Y12534000D02*
X8865000Y26785000D01*
X27782000Y10254000D02*
X27274000Y9746000D01*
D18*
%TO.N,/Vref*%
X3779000Y14275499D02*
X8754499Y9300000D01*
X3779000Y39210000D02*
X3779000Y14275499D01*
X8754499Y9300000D02*
X16865100Y9300000D01*
X7843000Y43274000D02*
X3779000Y39210000D01*
X7843000Y52418000D02*
X7843000Y43274000D01*
X6319000Y53434000D02*
X6827000Y53434000D01*
X16865100Y9300000D02*
X16900000Y9334900D01*
X6827000Y53434000D02*
X7843000Y52418000D01*
%TO.N,/Vdet*%
X6954000Y43274000D02*
X3271000Y39591000D01*
X17445100Y8730000D02*
X18050000Y9334900D01*
X3271000Y39591000D02*
X3271000Y13978998D01*
X6954000Y45941000D02*
X6954000Y43274000D01*
X3271000Y13978998D02*
X8519998Y8730000D01*
X8519998Y8730000D02*
X17445100Y8730000D01*
D19*
%TO.N,/PLL_CE*%
X32900000Y15715000D02*
X32900000Y22500000D01*
X31900000Y23500000D02*
X27900000Y23500000D01*
X12351500Y31844000D02*
X12542000Y31653500D01*
X32900000Y22500000D02*
X31900000Y23500000D01*
X13266000Y23500000D02*
X27900000Y23500000D01*
X12542000Y24224000D02*
X13266000Y23500000D01*
D17*
X10383000Y31844000D02*
X8886000Y31844000D01*
D19*
X12034000Y31844000D02*
X12351500Y31844000D01*
X12542000Y31653500D02*
X12542000Y24224000D01*
D17*
X8886000Y31844000D02*
X8865000Y31865000D01*
D18*
%TO.N,/AD8031_IN-*%
X8986000Y49761919D02*
X8605000Y49380919D01*
X8605000Y49380919D02*
X8605000Y44290000D01*
%TD*%
%TA.AperFunction,Conductor*%
%TO.N,GND*%
G36*
X17638921Y64701798D02*
G01*
X17685414Y64648142D01*
X17696800Y64595800D01*
X17696800Y59839809D01*
X17694379Y59815228D01*
X17691350Y59800000D01*
X17696800Y59772602D01*
X17712942Y59691452D01*
X17774429Y59599429D01*
X17866452Y59537942D01*
X17878623Y59535521D01*
X17959773Y59519379D01*
X17975000Y59516350D01*
X17990228Y59519379D01*
X18014809Y59521800D01*
X22010191Y59521800D01*
X22034772Y59519379D01*
X22050000Y59516350D01*
X22077398Y59521800D01*
X22158548Y59537942D01*
X22250571Y59599429D01*
X22312058Y59691452D01*
X22333650Y59800000D01*
X22330621Y59815228D01*
X22328200Y59839809D01*
X22328200Y64595800D01*
X22348202Y64663921D01*
X22401858Y64710414D01*
X22454200Y64721800D01*
X36960191Y64721800D01*
X36984772Y64719379D01*
X37000000Y64716350D01*
X37012171Y64718771D01*
X37024053Y64718771D01*
X37037329Y64719703D01*
X37231459Y64708802D01*
X37297682Y64705083D01*
X37311716Y64703502D01*
X37460564Y64678211D01*
X37598687Y64654743D01*
X37612454Y64651601D01*
X37892162Y64571018D01*
X37905485Y64566355D01*
X38174413Y64454963D01*
X38187138Y64448834D01*
X38441888Y64308039D01*
X38453845Y64300527D01*
X38691253Y64132077D01*
X38702285Y64123279D01*
X38919099Y63929522D01*
X38919327Y63929318D01*
X38929317Y63919328D01*
X39123279Y63702285D01*
X39132077Y63691253D01*
X39300527Y63453845D01*
X39308039Y63441888D01*
X39448834Y63187138D01*
X39454965Y63174408D01*
X39566355Y62905486D01*
X39571018Y62892162D01*
X39651601Y62612454D01*
X39654743Y62598687D01*
X39703501Y62311721D01*
X39705083Y62297679D01*
X39719703Y62037329D01*
X39718771Y62024053D01*
X39718771Y62012171D01*
X39716350Y62000000D01*
X39718771Y61987830D01*
X39719379Y61984774D01*
X39721800Y61960191D01*
X39721800Y3039809D01*
X39719379Y3015228D01*
X39716350Y3000000D01*
X39718771Y2987829D01*
X39718771Y2975947D01*
X39719703Y2962671D01*
X39705083Y2702321D01*
X39703501Y2688279D01*
X39654743Y2401313D01*
X39651601Y2387546D01*
X39571018Y2107838D01*
X39566355Y2094514D01*
X39454965Y1825592D01*
X39448834Y1812862D01*
X39308039Y1558112D01*
X39300527Y1546155D01*
X39132077Y1308747D01*
X39123279Y1297715D01*
X38929318Y1080673D01*
X38919328Y1070683D01*
X38702285Y876721D01*
X38691253Y867923D01*
X38453845Y699473D01*
X38441888Y691961D01*
X38187138Y551166D01*
X38174413Y545037D01*
X37905486Y433645D01*
X37892162Y428982D01*
X37612454Y348399D01*
X37598687Y345257D01*
X37460564Y321789D01*
X37311716Y296498D01*
X37297682Y294917D01*
X37231459Y291198D01*
X37037329Y280297D01*
X37024053Y281229D01*
X37012171Y281229D01*
X37000000Y283650D01*
X36984772Y280621D01*
X36960191Y278200D01*
X22429200Y278200D01*
X22361079Y298202D01*
X22314586Y351858D01*
X22303200Y404200D01*
X22303200Y5160191D01*
X22305621Y5184774D01*
X22306229Y5187830D01*
X22308650Y5200000D01*
X22287058Y5308548D01*
X22225571Y5400571D01*
X22133548Y5462058D01*
X22052398Y5478200D01*
X22025000Y5483650D01*
X22009772Y5480621D01*
X21985191Y5478200D01*
X17989809Y5478200D01*
X17965228Y5480621D01*
X17950000Y5483650D01*
X17922602Y5478200D01*
X17841452Y5462058D01*
X17749429Y5400571D01*
X17687942Y5308548D01*
X17666350Y5200000D01*
X17668771Y5187830D01*
X17669379Y5184774D01*
X17671800Y5160191D01*
X17671800Y404200D01*
X17651798Y336079D01*
X17598142Y289586D01*
X17545800Y278200D01*
X3039809Y278200D01*
X3015228Y280621D01*
X3000000Y283650D01*
X2987829Y281229D01*
X2975947Y281229D01*
X2962671Y280297D01*
X2768541Y291198D01*
X2702318Y294917D01*
X2688284Y296498D01*
X2539436Y321789D01*
X2401313Y345257D01*
X2387546Y348399D01*
X2107838Y428982D01*
X2094514Y433645D01*
X1825587Y545037D01*
X1812862Y551166D01*
X1558112Y691961D01*
X1546155Y699473D01*
X1308747Y867923D01*
X1297715Y876721D01*
X1080672Y1070683D01*
X1070682Y1080673D01*
X876721Y1297715D01*
X867923Y1308747D01*
X699473Y1546155D01*
X691961Y1558112D01*
X551166Y1812862D01*
X545035Y1825592D01*
X433645Y2094514D01*
X428982Y2107838D01*
X348399Y2387546D01*
X345257Y2401313D01*
X296499Y2688279D01*
X294917Y2702321D01*
X280297Y2962671D01*
X281229Y2975947D01*
X281229Y2987829D01*
X283650Y3000000D01*
X280621Y3015228D01*
X278200Y3039809D01*
X278200Y13978998D01*
X2985616Y13978998D01*
X2991100Y13951429D01*
X3007340Y13869786D01*
X3014232Y13859471D01*
X3014233Y13859469D01*
X3062310Y13787517D01*
X3069203Y13777201D01*
X3079519Y13770308D01*
X3079521Y13770306D01*
X3082260Y13768476D01*
X3101354Y13752806D01*
X8293806Y8560354D01*
X8309476Y8541260D01*
X8311306Y8538521D01*
X8311308Y8538519D01*
X8318201Y8528203D01*
X8328517Y8521310D01*
X8400469Y8473233D01*
X8400471Y8473232D01*
X8410786Y8466340D01*
X8422953Y8463920D01*
X8422955Y8463919D01*
X8492429Y8450100D01*
X8519998Y8444616D01*
X8535397Y8447679D01*
X8559978Y8450100D01*
X17405120Y8450100D01*
X17429701Y8447679D01*
X17445100Y8444616D01*
X17472669Y8450100D01*
X17542143Y8463919D01*
X17542145Y8463920D01*
X17554312Y8466340D01*
X17564627Y8473232D01*
X17564629Y8473233D01*
X17636581Y8521310D01*
X17646897Y8528203D01*
X17653790Y8538519D01*
X17653792Y8538521D01*
X17655620Y8541257D01*
X17671290Y8560352D01*
X18001882Y8890943D01*
X18071266Y8926296D01*
X18167514Y8941540D01*
X18167515Y8941540D01*
X18177306Y8943091D01*
X18292151Y9001608D01*
X18383292Y9092749D01*
X18441809Y9207594D01*
X18461972Y9334900D01*
X18441809Y9462206D01*
X18387956Y9567898D01*
X18374852Y9637673D01*
X18401552Y9703458D01*
X18459579Y9744365D01*
X18500223Y9751100D01*
X20785502Y9751100D01*
X20853623Y9731098D01*
X20874597Y9714195D01*
X21148582Y9440210D01*
X21156092Y9430811D01*
X21156476Y9431138D01*
X21162291Y9424305D01*
X21167084Y9416709D01*
X21173815Y9410764D01*
X21173818Y9410761D01*
X21206944Y9381506D01*
X21212632Y9376160D01*
X21223927Y9364865D01*
X21227512Y9362178D01*
X21227518Y9362173D01*
X21232166Y9358689D01*
X21240004Y9352308D01*
X21268328Y9327293D01*
X21268331Y9327291D01*
X21275057Y9321351D01*
X21283182Y9317536D01*
X21286127Y9315602D01*
X21299744Y9307420D01*
X21302831Y9305730D01*
X21310012Y9300348D01*
X21353804Y9283931D01*
X21363116Y9280007D01*
X21405454Y9260129D01*
X21414326Y9258748D01*
X21417727Y9257708D01*
X21433046Y9253690D01*
X21436496Y9252931D01*
X21444899Y9249781D01*
X21453846Y9249116D01*
X21453847Y9249116D01*
X21491532Y9246316D01*
X21501580Y9245162D01*
X21510008Y9243850D01*
X21510009Y9243850D01*
X21514825Y9243100D01*
X21530127Y9243100D01*
X21539464Y9242754D01*
X21546927Y9242199D01*
X21588557Y9239106D01*
X21597332Y9240979D01*
X21606204Y9241584D01*
X21620567Y9243100D01*
X27203554Y9243100D01*
X27215511Y9241765D01*
X27215551Y9242266D01*
X27224497Y9241546D01*
X27233253Y9239565D01*
X27286332Y9242858D01*
X27294133Y9243100D01*
X27310107Y9243100D01*
X27320304Y9244561D01*
X27330352Y9245590D01*
X27345910Y9246555D01*
X27368071Y9247929D01*
X27368073Y9247929D01*
X27377030Y9248485D01*
X27385470Y9251532D01*
X27388917Y9252246D01*
X27404305Y9256082D01*
X27407713Y9257079D01*
X27416599Y9258351D01*
X27424773Y9262067D01*
X27424775Y9262068D01*
X27459166Y9277704D01*
X27468531Y9281517D01*
X27483115Y9286782D01*
X27512525Y9297399D01*
X27519776Y9302696D01*
X27522871Y9304342D01*
X27536588Y9312357D01*
X27539559Y9314257D01*
X27547734Y9317974D01*
X27583166Y9348504D01*
X27591085Y9354792D01*
X27597968Y9359820D01*
X27597971Y9359822D01*
X27601903Y9362695D01*
X27612718Y9373510D01*
X27619565Y9379868D01*
X27650064Y9406148D01*
X27656864Y9412007D01*
X27661748Y9419542D01*
X27667596Y9426246D01*
X27676675Y9437467D01*
X28087790Y9848582D01*
X28097189Y9856092D01*
X28096862Y9856476D01*
X28103695Y9862291D01*
X28111291Y9867084D01*
X28117236Y9873815D01*
X28117239Y9873818D01*
X28146494Y9906944D01*
X28151840Y9912632D01*
X28163135Y9923927D01*
X28165822Y9927512D01*
X28165827Y9927518D01*
X28169311Y9932166D01*
X28175692Y9940004D01*
X28200707Y9968328D01*
X28200709Y9968331D01*
X28206649Y9975057D01*
X28210464Y9983182D01*
X28212398Y9986127D01*
X28220580Y9999744D01*
X28222270Y10002831D01*
X28227652Y10010012D01*
X28244069Y10053804D01*
X28247995Y10063121D01*
X28264054Y10097325D01*
X28267871Y10105454D01*
X28269252Y10114326D01*
X28270292Y10117727D01*
X28274310Y10133046D01*
X28275069Y10136496D01*
X28278219Y10144899D01*
X28281684Y10191532D01*
X28282838Y10201580D01*
X28284150Y10210008D01*
X28284150Y10210009D01*
X28284900Y10214825D01*
X28284900Y10230127D01*
X28285246Y10239464D01*
X28288229Y10279609D01*
X28288894Y10288557D01*
X28287021Y10297332D01*
X28286416Y10306204D01*
X28284900Y10320567D01*
X28284900Y15116107D01*
X28269649Y15222599D01*
X28256795Y15250871D01*
X28246810Y15321162D01*
X28276412Y15385693D01*
X28336202Y15423976D01*
X28371497Y15429020D01*
X29958347Y15429020D01*
X30026468Y15409018D01*
X30047442Y15392115D01*
X30057849Y15381708D01*
X30172694Y15323191D01*
X30182487Y15321640D01*
X30278735Y15306396D01*
X30342889Y15275984D01*
X30348120Y15271042D01*
X31288808Y14330354D01*
X31304478Y14311260D01*
X31306308Y14308521D01*
X31306310Y14308519D01*
X31313203Y14298203D01*
X31323519Y14291310D01*
X31395471Y14243233D01*
X31395473Y14243232D01*
X31405788Y14236340D01*
X31417955Y14233920D01*
X31417957Y14233919D01*
X31502829Y14217037D01*
X31515000Y14214616D01*
X31530399Y14217679D01*
X31554980Y14220100D01*
X35036020Y14220100D01*
X35060601Y14217679D01*
X35076000Y14214616D01*
X35103569Y14220100D01*
X35173043Y14233919D01*
X35173045Y14233920D01*
X35185212Y14236340D01*
X35195527Y14243232D01*
X35195529Y14243233D01*
X35267481Y14291310D01*
X35277797Y14298203D01*
X35284690Y14308519D01*
X35284692Y14308521D01*
X35286522Y14311260D01*
X35302192Y14330354D01*
X36333646Y15361808D01*
X36352740Y15377478D01*
X36355479Y15379308D01*
X36355481Y15379310D01*
X36365797Y15386203D01*
X36378315Y15404937D01*
X36420767Y15468471D01*
X36420768Y15468473D01*
X36427660Y15478788D01*
X36431857Y15499884D01*
X36443900Y15560431D01*
X36446963Y15575829D01*
X36449384Y15588000D01*
X36446321Y15603399D01*
X36443900Y15627980D01*
X36443900Y18034267D01*
X36463902Y18102388D01*
X36480805Y18123362D01*
X36497292Y18139849D01*
X36555809Y18254694D01*
X36575972Y18382000D01*
X36555809Y18509306D01*
X36497292Y18624151D01*
X36480805Y18640638D01*
X36446779Y18702950D01*
X36443900Y18729733D01*
X36443900Y22195872D01*
X36463902Y22263993D01*
X36480805Y22284967D01*
X37869646Y23673808D01*
X37888740Y23689478D01*
X37891479Y23691308D01*
X37891481Y23691310D01*
X37901797Y23698203D01*
X37922894Y23729777D01*
X37956767Y23780471D01*
X37956768Y23780473D01*
X37963660Y23790788D01*
X37979900Y23872431D01*
X37985384Y23900000D01*
X37982321Y23915399D01*
X37979900Y23939980D01*
X37979900Y25569020D01*
X37982321Y25593603D01*
X37982963Y25596830D01*
X37985384Y25609000D01*
X37976358Y25654378D01*
X37963660Y25718212D01*
X37901797Y25810797D01*
X37891481Y25817690D01*
X37891479Y25817692D01*
X37888740Y25819522D01*
X37869646Y25835192D01*
X37279192Y26425646D01*
X37263522Y26444740D01*
X37261692Y26447479D01*
X37261690Y26447481D01*
X37254797Y26457797D01*
X37244481Y26464690D01*
X37172529Y26512767D01*
X37172527Y26512768D01*
X37162212Y26519660D01*
X37150045Y26522080D01*
X37150043Y26522081D01*
X37080569Y26535900D01*
X37053317Y26541321D01*
X36990408Y26574230D01*
X36955277Y26635925D01*
X36951900Y26664900D01*
X36951900Y35995020D01*
X36954321Y36019603D01*
X36954963Y36022830D01*
X36957384Y36035000D01*
X36941473Y36114990D01*
X36938081Y36132043D01*
X36938080Y36132045D01*
X36935660Y36144212D01*
X36928768Y36154527D01*
X36928767Y36154529D01*
X36928288Y36155245D01*
X36880690Y36226481D01*
X36873797Y36236797D01*
X36863481Y36243690D01*
X36863479Y36243692D01*
X36860740Y36245522D01*
X36841646Y36261192D01*
X35591958Y37510880D01*
X35557932Y37573192D01*
X35556604Y37580265D01*
X35541360Y37676513D01*
X35539809Y37686306D01*
X35481292Y37801151D01*
X35390151Y37892292D01*
X35275306Y37950809D01*
X35148000Y37970972D01*
X35020694Y37950809D01*
X34905849Y37892292D01*
X34814708Y37801151D01*
X34756191Y37686306D01*
X34736028Y37559000D01*
X34756191Y37431694D01*
X34814708Y37316849D01*
X34905849Y37225708D01*
X35020694Y37167191D01*
X35030487Y37165640D01*
X35126735Y37150396D01*
X35190889Y37119984D01*
X35196120Y37115042D01*
X36355195Y35955967D01*
X36389221Y35893655D01*
X36392100Y35866872D01*
X36392100Y26661900D01*
X36372098Y26593779D01*
X36318442Y26547286D01*
X36266100Y26535900D01*
X35922378Y26535900D01*
X35854257Y26555902D01*
X35807764Y26609558D01*
X35797929Y26681609D01*
X35813972Y26782900D01*
X35793809Y26910206D01*
X35735292Y27025051D01*
X35644151Y27116192D01*
X35635319Y27120692D01*
X35635318Y27120693D01*
X35558123Y27160026D01*
X35506508Y27208775D01*
X35489442Y27277690D01*
X35512343Y27344891D01*
X35558123Y27384560D01*
X35560162Y27385599D01*
X35644163Y27428400D01*
X35735304Y27519541D01*
X35793821Y27634386D01*
X35813984Y27761692D01*
X35811998Y27774234D01*
X35812433Y27777600D01*
X35812433Y27781403D01*
X35812925Y27781403D01*
X35821098Y27844645D01*
X35847352Y27883038D01*
X35938412Y27974098D01*
X35943196Y27978639D01*
X35962646Y27996152D01*
X35972486Y28005012D01*
X35977871Y28017106D01*
X35977872Y28017108D01*
X35980926Y28023969D01*
X35990360Y28041343D01*
X36001661Y28058745D01*
X36003733Y28071829D01*
X36005619Y28076742D01*
X36006712Y28081885D01*
X36012100Y28093985D01*
X36012100Y28114735D01*
X36013651Y28134446D01*
X36014826Y28141863D01*
X36014826Y28141864D01*
X36016897Y28154940D01*
X36013470Y28167729D01*
X36012777Y28180957D01*
X36013213Y28180980D01*
X36012100Y28189432D01*
X36012100Y30691718D01*
X36012273Y30698312D01*
X36013641Y30724413D01*
X36013641Y30724414D01*
X36014334Y30737640D01*
X36006900Y30757007D01*
X36001283Y30775969D01*
X35999723Y30783309D01*
X35999723Y30783310D01*
X35996969Y30796265D01*
X35989185Y30806978D01*
X35987044Y30811787D01*
X35984177Y30816201D01*
X35979432Y30828564D01*
X35964761Y30843235D01*
X35951920Y30858269D01*
X35947505Y30864346D01*
X35947504Y30864346D01*
X35939722Y30875058D01*
X35928255Y30881678D01*
X35918412Y30890541D01*
X35918704Y30890866D01*
X35911940Y30896056D01*
X31379575Y35428422D01*
X31375034Y35433206D01*
X31348670Y35462486D01*
X31329714Y35470926D01*
X31312342Y35480358D01*
X31306043Y35484449D01*
X31306041Y35484450D01*
X31294936Y35491661D01*
X31281857Y35493732D01*
X31276942Y35495619D01*
X31271796Y35496713D01*
X31259697Y35502100D01*
X31238947Y35502100D01*
X31219236Y35503651D01*
X31211819Y35504826D01*
X31211818Y35504826D01*
X31198742Y35506897D01*
X31185953Y35503470D01*
X31172725Y35502777D01*
X31172702Y35503213D01*
X31164250Y35502100D01*
X16118086Y35502100D01*
X16049965Y35522102D01*
X16028991Y35539005D01*
X14325259Y37242738D01*
X12596485Y38971512D01*
X12591944Y38976296D01*
X12588073Y38980595D01*
X12565580Y39005576D01*
X12546624Y39014016D01*
X12529252Y39023448D01*
X12522953Y39027539D01*
X12522951Y39027540D01*
X12511846Y39034751D01*
X12498767Y39036822D01*
X12493852Y39038709D01*
X12488706Y39039803D01*
X12476607Y39045190D01*
X12455857Y39045190D01*
X12436146Y39046741D01*
X12428729Y39047916D01*
X12428728Y39047916D01*
X12415652Y39049987D01*
X12402863Y39046560D01*
X12389635Y39045867D01*
X12389612Y39046303D01*
X12381160Y39045190D01*
X11629628Y39045190D01*
X11602233Y39049529D01*
X11598377Y39051755D01*
X11555384Y39056274D01*
X11514690Y39060551D01*
X11514688Y39060551D01*
X11501518Y39061935D01*
X11488921Y39057842D01*
X11468962Y39051357D01*
X11430026Y39045190D01*
X8324642Y39045190D01*
X8256521Y39065192D01*
X8210028Y39118848D01*
X8199924Y39189122D01*
X8222706Y39245251D01*
X8291765Y39340302D01*
X8291766Y39340303D01*
X8295646Y39345644D01*
X8353267Y39475062D01*
X8371082Y39515076D01*
X8371082Y39515077D01*
X8373767Y39521107D01*
X8407076Y39677812D01*
X8412328Y39702520D01*
X8412328Y39702524D01*
X8413700Y39708977D01*
X8413700Y39901045D01*
X8373767Y40088915D01*
X8295646Y40264377D01*
X8182752Y40419763D01*
X8040018Y40548282D01*
X8034303Y40551581D01*
X8034301Y40551583D01*
X7879403Y40641012D01*
X7873682Y40644315D01*
X7867400Y40646356D01*
X7867398Y40646357D01*
X7697294Y40701627D01*
X7697293Y40701627D01*
X7691015Y40703667D01*
X7684452Y40704357D01*
X7684451Y40704357D01*
X7663354Y40706574D01*
X7547885Y40718711D01*
X7452115Y40718711D01*
X7336646Y40706574D01*
X7315549Y40704357D01*
X7315548Y40704357D01*
X7308985Y40703667D01*
X7302707Y40701627D01*
X7302706Y40701627D01*
X7132602Y40646357D01*
X7132600Y40646356D01*
X7126318Y40644315D01*
X7120597Y40641012D01*
X6965699Y40551583D01*
X6965697Y40551581D01*
X6959982Y40548282D01*
X6817248Y40419763D01*
X6704354Y40264378D01*
X6626233Y40088915D01*
X6586300Y39901045D01*
X6586300Y39708977D01*
X6587672Y39702524D01*
X6587672Y39702520D01*
X6592924Y39677812D01*
X6626233Y39521107D01*
X6628918Y39515078D01*
X6628918Y39515076D01*
X6692428Y39372432D01*
X6704354Y39345645D01*
X6708234Y39340304D01*
X6708235Y39340303D01*
X6779117Y39242742D01*
X6802976Y39175874D01*
X6786895Y39106722D01*
X6735981Y39057242D01*
X6705522Y39047105D01*
X6699440Y39047424D01*
X6680065Y39039987D01*
X6661117Y39034375D01*
X6653768Y39032813D01*
X6653767Y39032812D01*
X6640814Y39030059D01*
X6630103Y39022277D01*
X6625295Y39020136D01*
X6620878Y39017267D01*
X6608515Y39012522D01*
X6593844Y38997851D01*
X6578810Y38985010D01*
X6562021Y38972812D01*
X6555401Y38961345D01*
X6546538Y38951502D01*
X6546214Y38951794D01*
X6541024Y38945033D01*
X6370807Y38774816D01*
X6308495Y38740790D01*
X6281712Y38737911D01*
X5150300Y38737910D01*
X5009944Y38737910D01*
X4993290Y38734598D01*
X4977517Y38731461D01*
X4977515Y38731460D01*
X4965342Y38729039D01*
X4955022Y38722144D01*
X4955021Y38722143D01*
X4925082Y38702138D01*
X4914766Y38695245D01*
X4907873Y38684929D01*
X4887865Y38654986D01*
X4887864Y38654983D01*
X4880972Y38644669D01*
X4872100Y38600068D01*
X4872101Y37829955D01*
X4874147Y37819668D01*
X4878528Y37797642D01*
X4880972Y37785353D01*
X4914766Y37734777D01*
X4965342Y37700983D01*
X4977511Y37698562D01*
X4982688Y37696418D01*
X5037968Y37651869D01*
X5060388Y37584505D01*
X5042829Y37515714D01*
X4990866Y37467337D01*
X4982683Y37463600D01*
X4977518Y37461461D01*
X4965342Y37459039D01*
X4914766Y37425245D01*
X4907873Y37414929D01*
X4899096Y37406152D01*
X4897592Y37407656D01*
X4855388Y37372390D01*
X4784944Y37363546D01*
X4716011Y37398827D01*
X4603805Y37511033D01*
X4569779Y37573345D01*
X4566900Y37600128D01*
X4566900Y38660872D01*
X4586902Y38728993D01*
X4603805Y38749967D01*
X11314649Y45460810D01*
X11333743Y45476480D01*
X11336477Y45478307D01*
X11336478Y45478308D01*
X11346797Y45485203D01*
X11389553Y45549191D01*
X11408661Y45577789D01*
X11413974Y45604500D01*
X11448458Y45669015D01*
X11478292Y45698849D01*
X11536809Y45813694D01*
X11556972Y45941000D01*
X11536809Y46068306D01*
X11478292Y46183151D01*
X11387151Y46274292D01*
X11272306Y46332809D01*
X11145000Y46352972D01*
X11017694Y46332809D01*
X10902849Y46274292D01*
X10811708Y46183151D01*
X10753191Y46068306D01*
X10733028Y45941000D01*
X10753191Y45813694D01*
X10757692Y45804861D01*
X10760644Y45795777D01*
X10762672Y45724809D01*
X10729906Y45667745D01*
X9228098Y44165937D01*
X9165788Y44131913D01*
X9094973Y44136977D01*
X9038137Y44179524D01*
X9013326Y44246044D01*
X9014556Y44274740D01*
X9015421Y44280202D01*
X9015421Y44280207D01*
X9016972Y44290000D01*
X8996809Y44417306D01*
X8938292Y44532151D01*
X8921805Y44548638D01*
X8887779Y44610950D01*
X8884900Y44637733D01*
X8884900Y49212791D01*
X8904902Y49280912D01*
X8921805Y49301886D01*
X8937880Y49317961D01*
X9000192Y49351987D01*
X9007265Y49353315D01*
X9103513Y49368559D01*
X9113306Y49370110D01*
X9228151Y49428627D01*
X9319292Y49519768D01*
X9377809Y49634613D01*
X9397972Y49761919D01*
X9377809Y49889225D01*
X9319292Y50004070D01*
X9228151Y50095211D01*
X9113306Y50153728D01*
X8986000Y50173891D01*
X8858694Y50153728D01*
X8743849Y50095211D01*
X8652708Y50004070D01*
X8594191Y49889225D01*
X8592640Y49879432D01*
X8577396Y49783184D01*
X8546984Y49719030D01*
X8542042Y49713799D01*
X8435354Y49607111D01*
X8416260Y49591441D01*
X8413521Y49589611D01*
X8413519Y49589609D01*
X8403203Y49582716D01*
X8396310Y49572400D01*
X8353665Y49508577D01*
X8299188Y49463049D01*
X8228745Y49454201D01*
X8164701Y49484842D01*
X8127390Y49545244D01*
X8122900Y49578579D01*
X8122900Y52378020D01*
X8125321Y52402603D01*
X8125963Y52405830D01*
X8128384Y52418000D01*
X8106660Y52527211D01*
X8106660Y52527212D01*
X8044797Y52619797D01*
X8034481Y52626690D01*
X8034479Y52626692D01*
X8031740Y52628522D01*
X8012646Y52644192D01*
X7053192Y53603646D01*
X7037522Y53622740D01*
X7035692Y53625479D01*
X7035690Y53625481D01*
X7028797Y53635797D01*
X6978493Y53669409D01*
X6946529Y53690767D01*
X6946527Y53690768D01*
X6936212Y53697660D01*
X6924045Y53700080D01*
X6924043Y53700081D01*
X6854569Y53713900D01*
X6839171Y53716963D01*
X6827000Y53719384D01*
X6811601Y53716321D01*
X6787020Y53713900D01*
X6666733Y53713900D01*
X6598612Y53733902D01*
X6577638Y53750805D01*
X6561151Y53767292D01*
X6446306Y53825809D01*
X6351409Y53840839D01*
X6287255Y53871251D01*
X6249728Y53931519D01*
X6250742Y54002509D01*
X6282024Y54054383D01*
X6297336Y54069695D01*
X6359648Y54103721D01*
X6386431Y54106600D01*
X12601569Y54106600D01*
X12669690Y54086598D01*
X12690664Y54069695D01*
X13304695Y53455664D01*
X13338721Y53393352D01*
X13341600Y53366569D01*
X13341600Y52035564D01*
X13327867Y51978361D01*
X13293191Y51910306D01*
X13273028Y51783000D01*
X13293191Y51655694D01*
X13297692Y51646861D01*
X13327867Y51587639D01*
X13341600Y51530436D01*
X13341600Y38976492D01*
X13341121Y38965510D01*
X13340356Y38956761D01*
X13337630Y38925609D01*
X13348000Y38886906D01*
X13350375Y38876191D01*
X13357332Y38836739D01*
X13362842Y38827196D01*
X13364311Y38823159D01*
X13366121Y38819277D01*
X13368973Y38808634D01*
X13375294Y38799607D01*
X13375295Y38799604D01*
X13391958Y38775806D01*
X13397858Y38766545D01*
X13417883Y38731862D01*
X13426330Y38724774D01*
X13448561Y38706120D01*
X13456665Y38698694D01*
X15483689Y36671670D01*
X15491116Y36663566D01*
X15516862Y36632883D01*
X15526409Y36627371D01*
X15551556Y36612852D01*
X15560822Y36606948D01*
X15593634Y36583974D01*
X15604287Y36581120D01*
X15608185Y36579302D01*
X15612195Y36577842D01*
X15621739Y36572332D01*
X15632590Y36570419D01*
X15632597Y36570416D01*
X15661196Y36565373D01*
X15671923Y36562995D01*
X15699963Y36555482D01*
X15699966Y36555482D01*
X15710609Y36552630D01*
X15721583Y36553590D01*
X15721585Y36553590D01*
X15750510Y36556121D01*
X15761492Y36556600D01*
X25878436Y36556600D01*
X25935639Y36542867D01*
X25939403Y36540949D01*
X26003694Y36508191D01*
X26131000Y36488028D01*
X26258306Y36508191D01*
X26373151Y36566708D01*
X26464292Y36657849D01*
X26522809Y36772694D01*
X26542972Y36900000D01*
X26522809Y37027306D01*
X26464292Y37142151D01*
X26373151Y37233292D01*
X26258306Y37291809D01*
X26131000Y37311972D01*
X26003694Y37291809D01*
X25960044Y37269568D01*
X25935639Y37257133D01*
X25878436Y37243400D01*
X15935431Y37243400D01*
X15867310Y37263402D01*
X15846336Y37280305D01*
X14065305Y39061336D01*
X14031279Y39123648D01*
X14028400Y39150431D01*
X14028400Y51530436D01*
X14042133Y51587639D01*
X14072308Y51646861D01*
X14076809Y51655694D01*
X14096972Y51783000D01*
X14076809Y51910306D01*
X14042133Y51978361D01*
X14028400Y52035564D01*
X14028400Y53540508D01*
X14028879Y53551490D01*
X14031410Y53580415D01*
X14031410Y53580417D01*
X14032370Y53591391D01*
X14022000Y53630094D01*
X14019624Y53640812D01*
X14014582Y53669409D01*
X14014581Y53669411D01*
X14012668Y53680261D01*
X14007158Y53689804D01*
X14005689Y53693841D01*
X14003879Y53697723D01*
X14001027Y53708366D01*
X13994706Y53717393D01*
X13994705Y53717396D01*
X13978042Y53741194D01*
X13972138Y53750461D01*
X13971940Y53750805D01*
X13952117Y53785138D01*
X13921439Y53810880D01*
X13913335Y53818306D01*
X13053311Y54678330D01*
X13045884Y54686434D01*
X13027222Y54708675D01*
X13027221Y54708676D01*
X13020138Y54717117D01*
X12985455Y54737142D01*
X12976194Y54743042D01*
X12952396Y54759705D01*
X12952393Y54759706D01*
X12943366Y54766027D01*
X12932723Y54768879D01*
X12928841Y54770689D01*
X12924804Y54772158D01*
X12915261Y54777668D01*
X12904411Y54779581D01*
X12904409Y54779582D01*
X12883403Y54783286D01*
X12875809Y54784625D01*
X12865094Y54787000D01*
X12826391Y54797370D01*
X12815417Y54796410D01*
X12815415Y54796410D01*
X12786490Y54793879D01*
X12775508Y54793400D01*
X6212493Y54793400D01*
X6201511Y54793879D01*
X6194230Y54794516D01*
X6161610Y54797370D01*
X6150959Y54794516D01*
X6150958Y54794516D01*
X6122918Y54787003D01*
X6112187Y54784624D01*
X6099087Y54782314D01*
X6083593Y54779582D01*
X6083592Y54779582D01*
X6072739Y54777668D01*
X6063196Y54772158D01*
X6059156Y54770688D01*
X6055275Y54768878D01*
X6044634Y54766027D01*
X6035607Y54759706D01*
X6035604Y54759705D01*
X6011806Y54743042D01*
X6002545Y54737142D01*
X5967862Y54717117D01*
X5960774Y54708670D01*
X5942120Y54686439D01*
X5934694Y54678335D01*
X5328670Y54072311D01*
X5320566Y54064884D01*
X5289883Y54039138D01*
X5284373Y54029594D01*
X5269862Y54004461D01*
X5263958Y53995194D01*
X5247295Y53971396D01*
X5247294Y53971393D01*
X5240973Y53962366D01*
X5238121Y53951723D01*
X5236311Y53947841D01*
X5234842Y53943804D01*
X5229332Y53934261D01*
X5227419Y53923411D01*
X5227418Y53923409D01*
X5222376Y53894812D01*
X5220000Y53884094D01*
X5209630Y53845391D01*
X5210590Y53834417D01*
X5210590Y53834415D01*
X5213121Y53805490D01*
X5213600Y53794508D01*
X5213600Y51908564D01*
X5199867Y51851361D01*
X5165191Y51783306D01*
X5145028Y51656000D01*
X5165191Y51528694D01*
X5223708Y51413849D01*
X5314849Y51322708D01*
X5429694Y51264191D01*
X5557000Y51244028D01*
X5684306Y51264191D01*
X5799151Y51322708D01*
X5890292Y51413849D01*
X5948809Y51528694D01*
X5968972Y51656000D01*
X5948809Y51783306D01*
X5914133Y51851361D01*
X5900400Y51908564D01*
X5900400Y52985000D01*
X5920402Y53053121D01*
X5974058Y53099614D01*
X6044332Y53109718D01*
X6083604Y53097266D01*
X6170243Y53053121D01*
X6191694Y53042191D01*
X6319000Y53022028D01*
X6446306Y53042191D01*
X6561151Y53100708D01*
X6573711Y53113268D01*
X6636025Y53147291D01*
X6706840Y53142223D01*
X6751898Y53113264D01*
X7526195Y52338967D01*
X7560221Y52276655D01*
X7563100Y52249872D01*
X7563100Y46166676D01*
X7543098Y46098555D01*
X7489442Y46052062D01*
X7419168Y46041958D01*
X7354588Y46071452D01*
X7324833Y46109473D01*
X7287292Y46183151D01*
X7196151Y46274292D01*
X7081306Y46332809D01*
X6954000Y46352972D01*
X6826694Y46332809D01*
X6711849Y46274292D01*
X6620708Y46183151D01*
X6562191Y46068306D01*
X6542028Y45941000D01*
X6562191Y45813694D01*
X6620708Y45698849D01*
X6637195Y45682362D01*
X6671221Y45620050D01*
X6674100Y45593267D01*
X6674100Y43442129D01*
X6654098Y43374008D01*
X6637195Y43353034D01*
X3101354Y39817192D01*
X3082260Y39801522D01*
X3079521Y39799692D01*
X3079519Y39799690D01*
X3069203Y39792797D01*
X3007340Y39700212D01*
X3007340Y39700211D01*
X2985616Y39591000D01*
X2988037Y39578830D01*
X2988679Y39575603D01*
X2991100Y39551020D01*
X2991100Y14018978D01*
X2988679Y13994397D01*
X2985616Y13978998D01*
X278200Y13978998D01*
X278200Y61960191D01*
X280621Y61984774D01*
X281229Y61987830D01*
X283650Y62000000D01*
X281229Y62012171D01*
X281229Y62024053D01*
X280297Y62037329D01*
X294917Y62297679D01*
X296499Y62311721D01*
X345257Y62598687D01*
X348399Y62612454D01*
X428982Y62892162D01*
X433645Y62905486D01*
X545035Y63174408D01*
X551166Y63187138D01*
X691961Y63441888D01*
X699473Y63453845D01*
X867923Y63691253D01*
X876721Y63702285D01*
X1070683Y63919328D01*
X1080673Y63929318D01*
X1080901Y63929522D01*
X1297715Y64123279D01*
X1308747Y64132077D01*
X1546155Y64300527D01*
X1558112Y64308039D01*
X1812862Y64448834D01*
X1825587Y64454963D01*
X2094515Y64566355D01*
X2107838Y64571018D01*
X2387546Y64651601D01*
X2401313Y64654743D01*
X2539436Y64678211D01*
X2688284Y64703502D01*
X2702318Y64705083D01*
X2768541Y64708802D01*
X2962671Y64719703D01*
X2975947Y64718771D01*
X2987829Y64718771D01*
X3000000Y64716350D01*
X3015228Y64719379D01*
X3039809Y64721800D01*
X17570800Y64721800D01*
X17638921Y64701798D01*
G37*
%TD.AperFunction*%
%TA.AperFunction,Conductor*%
G36*
X4267412Y26633548D02*
G01*
X4297167Y26595528D01*
X4334708Y26521849D01*
X4425849Y26430708D01*
X4540694Y26372191D01*
X4668000Y26352028D01*
X4690231Y26355549D01*
X4709941Y26357100D01*
X4813676Y26357100D01*
X4881797Y26337098D01*
X4902771Y26320195D01*
X4907873Y26315093D01*
X4914766Y26304777D01*
X4925082Y26297884D01*
X4955025Y26277876D01*
X4955028Y26277875D01*
X4965342Y26270983D01*
X4977509Y26268563D01*
X4977511Y26268562D01*
X4995743Y26264936D01*
X5009943Y26262111D01*
X5074511Y26262111D01*
X7050635Y26262112D01*
X7118756Y26242110D01*
X7165249Y26188454D01*
X7175353Y26118180D01*
X7145859Y26053600D01*
X7113634Y26026992D01*
X6965699Y25941583D01*
X6965697Y25941581D01*
X6959982Y25938282D01*
X6955078Y25933867D01*
X6955076Y25933865D01*
X6828086Y25819522D01*
X6817248Y25809763D01*
X6704354Y25654378D01*
X6701670Y25648350D01*
X6701669Y25648348D01*
X6628918Y25484946D01*
X6626233Y25478915D01*
X6586300Y25291045D01*
X6586300Y25098977D01*
X6587672Y25092524D01*
X6587672Y25092520D01*
X6597820Y25044779D01*
X6626233Y24911107D01*
X6628918Y24905078D01*
X6628918Y24905076D01*
X6649433Y24859000D01*
X6704354Y24735645D01*
X6817248Y24580259D01*
X6822150Y24575846D01*
X6822151Y24575844D01*
X6944545Y24465640D01*
X6959982Y24451740D01*
X6965697Y24448441D01*
X6965699Y24448439D01*
X6999875Y24428708D01*
X7126318Y24355707D01*
X7132600Y24353666D01*
X7132602Y24353665D01*
X7302706Y24298395D01*
X7302707Y24298395D01*
X7308985Y24296355D01*
X7315548Y24295665D01*
X7315549Y24295665D01*
X7336646Y24293448D01*
X7452115Y24281311D01*
X7547885Y24281311D01*
X7663354Y24293448D01*
X7684451Y24295665D01*
X7684452Y24295665D01*
X7691015Y24296355D01*
X7697293Y24298395D01*
X7697294Y24298395D01*
X7867398Y24353665D01*
X7867400Y24353666D01*
X7873682Y24355707D01*
X8000125Y24428708D01*
X8034301Y24448439D01*
X8034303Y24448441D01*
X8040018Y24451740D01*
X8055456Y24465640D01*
X8115660Y24519849D01*
X8151790Y24552380D01*
X8215797Y24583097D01*
X8286250Y24574334D01*
X8340781Y24528871D01*
X8362100Y24458744D01*
X8362100Y12604446D01*
X8360765Y12592489D01*
X8361266Y12592449D01*
X8360546Y12583503D01*
X8358565Y12574747D01*
X8359121Y12565787D01*
X8361858Y12521669D01*
X8362100Y12513867D01*
X8362100Y12497893D01*
X8363561Y12487696D01*
X8364590Y12477643D01*
X8366550Y12446051D01*
X8367485Y12430970D01*
X8370532Y12422530D01*
X8371246Y12419083D01*
X8375082Y12403695D01*
X8376079Y12400287D01*
X8377351Y12391401D01*
X8381067Y12383227D01*
X8381068Y12383225D01*
X8396704Y12348834D01*
X8400517Y12339469D01*
X8416399Y12295475D01*
X8421696Y12288224D01*
X8423342Y12285129D01*
X8431357Y12271412D01*
X8433257Y12268441D01*
X8436974Y12260266D01*
X8442836Y12253463D01*
X8467500Y12224840D01*
X8473792Y12216915D01*
X8481695Y12206097D01*
X8492510Y12195282D01*
X8498868Y12188436D01*
X8531007Y12151136D01*
X8538542Y12146252D01*
X8545246Y12140404D01*
X8556467Y12131325D01*
X10814928Y9872864D01*
X10901013Y9808347D01*
X10899279Y9806034D01*
X10939062Y9766165D01*
X10954078Y9696775D01*
X10929195Y9630282D01*
X10872313Y9587797D01*
X10828409Y9579900D01*
X8922627Y9579900D01*
X8854506Y9599902D01*
X8833532Y9616805D01*
X4095805Y14354532D01*
X4061779Y14416844D01*
X4058900Y14443627D01*
X4058900Y26538324D01*
X4078902Y26606445D01*
X4132558Y26652938D01*
X4202832Y26663042D01*
X4267412Y26633548D01*
G37*
%TD.AperFunction*%
%TA.AperFunction,Conductor*%
G36*
X10510672Y27639878D02*
G01*
X10567928Y27641515D01*
X10628727Y27604854D01*
X10660054Y27541143D01*
X10661900Y27519654D01*
X10661900Y15089282D01*
X10661727Y15082688D01*
X10659666Y15043361D01*
X10667103Y15023986D01*
X10672715Y15005038D01*
X10677031Y14984735D01*
X10684813Y14974024D01*
X10686954Y14969216D01*
X10689823Y14964799D01*
X10694568Y14952436D01*
X10709239Y14937765D01*
X10722080Y14922731D01*
X10734278Y14905942D01*
X10745745Y14899322D01*
X10755588Y14890459D01*
X10755296Y14890134D01*
X10762060Y14884944D01*
X14452416Y11194588D01*
X14456957Y11189804D01*
X14483330Y11160514D01*
X14495427Y11155128D01*
X14495430Y11155126D01*
X14502284Y11152075D01*
X14519655Y11142644D01*
X14537064Y11131338D01*
X14550146Y11129266D01*
X14555063Y11127379D01*
X14560208Y11126285D01*
X14572303Y11120900D01*
X14593053Y11120900D01*
X14612762Y11119349D01*
X14620181Y11118174D01*
X14620182Y11118174D01*
X14633259Y11116103D01*
X14646048Y11119530D01*
X14659276Y11120223D01*
X14659299Y11119787D01*
X14667751Y11120900D01*
X16019533Y11120900D01*
X16087654Y11100898D01*
X16134685Y11046047D01*
X16146049Y11020463D01*
X16154280Y11012246D01*
X16154281Y11012245D01*
X16194523Y10972073D01*
X16228602Y10909790D01*
X16223599Y10838970D01*
X16181101Y10782097D01*
X16114603Y10757229D01*
X16105505Y10756900D01*
X11405498Y10756900D01*
X11337377Y10776902D01*
X11316403Y10793805D01*
X9404805Y12705403D01*
X9370779Y12767715D01*
X9367900Y12794498D01*
X9367900Y26136112D01*
X9387902Y26204233D01*
X9441558Y26250726D01*
X9493900Y26262112D01*
X9990056Y26262112D01*
X10006710Y26265424D01*
X10022483Y26268561D01*
X10022485Y26268562D01*
X10034658Y26270983D01*
X10085234Y26304777D01*
X10095536Y26320195D01*
X10112135Y26345036D01*
X10112136Y26345039D01*
X10119028Y26355353D01*
X10122378Y26372191D01*
X10126693Y26393887D01*
X10127900Y26399954D01*
X10127899Y27170067D01*
X10124587Y27186721D01*
X10121450Y27202494D01*
X10121449Y27202496D01*
X10119028Y27214669D01*
X10110858Y27226897D01*
X10092127Y27254929D01*
X10085234Y27265245D01*
X10034658Y27299039D01*
X10022489Y27301460D01*
X10017312Y27303604D01*
X9962032Y27348153D01*
X9939612Y27415517D01*
X9957171Y27484308D01*
X10009134Y27532685D01*
X10017317Y27536422D01*
X10022482Y27538561D01*
X10034658Y27540983D01*
X10085234Y27574777D01*
X10092127Y27585093D01*
X10097229Y27590195D01*
X10159541Y27624221D01*
X10186324Y27627100D01*
X10341059Y27627100D01*
X10360769Y27625549D01*
X10383000Y27622028D01*
X10396847Y27624221D01*
X10461027Y27634386D01*
X10510306Y27642191D01*
X10510672Y27639878D01*
G37*
%TD.AperFunction*%
%TA.AperFunction,Conductor*%
G36*
X12987820Y31764341D02*
G01*
X14601810Y30150351D01*
X14617480Y30131257D01*
X14619308Y30128521D01*
X14619310Y30128519D01*
X14626203Y30118203D01*
X14636519Y30111310D01*
X14649574Y30102587D01*
X14649575Y30102586D01*
X14708469Y30063234D01*
X14708471Y30063233D01*
X14718789Y30056339D01*
X14828000Y30034616D01*
X14840171Y30037037D01*
X14843399Y30037679D01*
X14867980Y30040100D01*
X27361020Y30040100D01*
X27385601Y30037679D01*
X27401000Y30034616D01*
X27428569Y30040100D01*
X27498043Y30053919D01*
X27498045Y30053920D01*
X27510212Y30056340D01*
X27520527Y30063232D01*
X27520529Y30063233D01*
X27592481Y30111310D01*
X27602797Y30118203D01*
X27609690Y30128519D01*
X27609692Y30128521D01*
X27611522Y30131260D01*
X27627192Y30150354D01*
X28581905Y31105067D01*
X28644217Y31139093D01*
X28715032Y31134028D01*
X28760095Y31105067D01*
X33784819Y26080343D01*
X33800489Y26061249D01*
X33802319Y26058510D01*
X33802321Y26058508D01*
X33809214Y26048192D01*
X33819530Y26041299D01*
X33891482Y25993222D01*
X33891484Y25993221D01*
X33901799Y25986329D01*
X33913966Y25983909D01*
X33913968Y25983908D01*
X33953223Y25976100D01*
X33980793Y25970616D01*
X33983429Y25970092D01*
X33983442Y25970088D01*
X33983442Y25970089D01*
X34011011Y25964605D01*
X34026410Y25967668D01*
X34050991Y25970089D01*
X35582760Y25970089D01*
X35607341Y25967668D01*
X35622740Y25964605D01*
X35650309Y25970089D01*
X35650329Y25970093D01*
X35652950Y25970614D01*
X35652958Y25970615D01*
X35652958Y25970616D01*
X35652959Y25970616D01*
X35668358Y25973679D01*
X35692939Y25976100D01*
X36324267Y25976100D01*
X36392388Y25956098D01*
X36413362Y25939195D01*
X36429849Y25922708D01*
X36544694Y25864191D01*
X36672000Y25844028D01*
X36799306Y25864191D01*
X36808140Y25868692D01*
X36883133Y25906903D01*
X36952910Y25920007D01*
X37018695Y25893307D01*
X37029431Y25883731D01*
X37383195Y25529967D01*
X37417221Y25467655D01*
X37420100Y25440872D01*
X37420100Y24068128D01*
X37400098Y24000007D01*
X37383195Y23979033D01*
X35994354Y22590192D01*
X35975260Y22574522D01*
X35972521Y22572692D01*
X35972519Y22572690D01*
X35962203Y22565797D01*
X35955310Y22555481D01*
X35912024Y22490698D01*
X35900340Y22473212D01*
X35900340Y22473211D01*
X35878616Y22364000D01*
X35881037Y22351830D01*
X35881679Y22348603D01*
X35884100Y22324020D01*
X35884100Y18729733D01*
X35864098Y18661612D01*
X35847195Y18640638D01*
X35830708Y18624151D01*
X35772191Y18509306D01*
X35752028Y18382000D01*
X35772191Y18254694D01*
X35830708Y18139849D01*
X35847195Y18123362D01*
X35881221Y18061050D01*
X35884100Y18034267D01*
X35884100Y15756128D01*
X35864098Y15688007D01*
X35847195Y15667033D01*
X34996967Y14816805D01*
X34934655Y14782779D01*
X34907872Y14779900D01*
X31683128Y14779900D01*
X31615007Y14799902D01*
X31594033Y14816805D01*
X30743958Y15666880D01*
X30709932Y15729192D01*
X30708604Y15736265D01*
X30693360Y15832513D01*
X30691809Y15842306D01*
X30633292Y15957151D01*
X30616805Y15973638D01*
X30582779Y16035950D01*
X30579900Y16062733D01*
X30579900Y21230267D01*
X30599902Y21298388D01*
X30616805Y21319362D01*
X30655292Y21357849D01*
X30713809Y21472694D01*
X30733972Y21600000D01*
X30713809Y21727306D01*
X30655292Y21842151D01*
X30564151Y21933292D01*
X30449306Y21991809D01*
X30322000Y22011972D01*
X30194694Y21991809D01*
X30079849Y21933292D01*
X30063362Y21916805D01*
X30001050Y21882779D01*
X29974267Y21879900D01*
X25661797Y21879900D01*
X25604594Y21893633D01*
X25540519Y21926281D01*
X25496306Y21948809D01*
X25369000Y21968972D01*
X25241694Y21948809D01*
X25126849Y21890292D01*
X25035708Y21799151D01*
X24977191Y21684306D01*
X24957028Y21557000D01*
X24977191Y21429694D01*
X25035708Y21314849D01*
X25126849Y21223708D01*
X25241694Y21165191D01*
X25369000Y21145028D01*
X25496306Y21165191D01*
X25611151Y21223708D01*
X25670638Y21283195D01*
X25732950Y21317221D01*
X25759733Y21320100D01*
X29894100Y21320100D01*
X29962221Y21300098D01*
X30008714Y21246442D01*
X30020100Y21194100D01*
X30020100Y16241820D01*
X30000098Y16173699D01*
X29946442Y16127206D01*
X29894100Y16115820D01*
X27292889Y16115820D01*
X27281907Y16116300D01*
X27253014Y16118828D01*
X27253013Y16118828D01*
X27242029Y16119789D01*
X27231378Y16116935D01*
X27231377Y16116935D01*
X27203350Y16109426D01*
X27192623Y16107048D01*
X27164016Y16102003D01*
X27164013Y16102002D01*
X27153159Y16100088D01*
X27143615Y16094578D01*
X27139591Y16093113D01*
X27135699Y16091298D01*
X27125054Y16088446D01*
X27116025Y16082124D01*
X27116023Y16082123D01*
X27092236Y16065468D01*
X27082968Y16059564D01*
X27057832Y16045052D01*
X27057827Y16045048D01*
X27048282Y16039537D01*
X27041194Y16031090D01*
X27022540Y16008859D01*
X27015114Y16000755D01*
X26521670Y15507311D01*
X26513566Y15499884D01*
X26491874Y15481682D01*
X26482883Y15474138D01*
X26474232Y15459154D01*
X26462862Y15439461D01*
X26456958Y15430194D01*
X26440295Y15406396D01*
X26440294Y15406393D01*
X26433973Y15397366D01*
X26431121Y15386723D01*
X26429311Y15382841D01*
X26427842Y15378804D01*
X26422332Y15369261D01*
X26420419Y15358411D01*
X26420418Y15358409D01*
X26415376Y15329812D01*
X26413000Y15319094D01*
X26402630Y15280391D01*
X26403590Y15269417D01*
X26403590Y15269415D01*
X26406121Y15240490D01*
X26406600Y15229508D01*
X26406600Y12444431D01*
X26386598Y12376310D01*
X26369695Y12355336D01*
X25714664Y11700305D01*
X25652352Y11666279D01*
X25625569Y11663400D01*
X24754790Y11663400D01*
X24686669Y11683402D01*
X24640176Y11737058D01*
X24630072Y11807332D01*
X24659566Y11871912D01*
X24665695Y11878495D01*
X24685715Y11898515D01*
X24697226Y11914358D01*
X24744886Y12007897D01*
X24750938Y12026521D01*
X24763225Y12104103D01*
X24764000Y12113946D01*
X24764000Y12134885D01*
X24759525Y12150124D01*
X24758135Y12151329D01*
X24750452Y12153000D01*
X23654116Y12153000D01*
X23638877Y12148525D01*
X23637672Y12147135D01*
X23636001Y12139452D01*
X23636001Y12113949D01*
X23636776Y12104100D01*
X23649061Y12026528D01*
X23655116Y12007892D01*
X23702774Y11914358D01*
X23720113Y11890494D01*
X23717458Y11888565D01*
X23743331Y11841183D01*
X23738266Y11770368D01*
X23695719Y11713532D01*
X23629199Y11688721D01*
X23620210Y11688400D01*
X23287182Y11688400D01*
X23219061Y11708402D01*
X23198164Y11725227D01*
X23182326Y11741037D01*
X23174094Y11749255D01*
X23070890Y11794881D01*
X23054181Y11796829D01*
X23048644Y11797475D01*
X23048639Y11797475D01*
X23045005Y11797899D01*
X21304997Y11797899D01*
X21301308Y11797460D01*
X21301290Y11797459D01*
X21299888Y11797292D01*
X21299521Y11797354D01*
X21297563Y11797238D01*
X21297536Y11797689D01*
X21229881Y11809105D01*
X21177374Y11856892D01*
X21159001Y11922409D01*
X21159001Y11938687D01*
X21179003Y12006808D01*
X21232659Y12053301D01*
X21304710Y12063136D01*
X21313311Y12061774D01*
X21323159Y12060999D01*
X22029886Y12060999D01*
X22045125Y12065474D01*
X22046330Y12066864D01*
X22048001Y12074547D01*
X22048001Y12079115D01*
X22302001Y12079115D01*
X22306476Y12063876D01*
X22307866Y12062671D01*
X22315549Y12061000D01*
X23026841Y12061000D01*
X23036688Y12061775D01*
X23116608Y12074432D01*
X23135234Y12080484D01*
X23231594Y12129582D01*
X23247437Y12141093D01*
X23323907Y12217563D01*
X23335418Y12233406D01*
X23384516Y12329767D01*
X23390568Y12348391D01*
X23396868Y12388169D01*
X23422767Y12442800D01*
X23419750Y12448420D01*
X23618345Y12448420D01*
X23637783Y12412208D01*
X23641865Y12408671D01*
X23649548Y12407000D01*
X24054885Y12407000D01*
X24070124Y12411475D01*
X24071329Y12412865D01*
X24073000Y12420548D01*
X24073000Y12425115D01*
X24327000Y12425115D01*
X24331475Y12409876D01*
X24332865Y12408671D01*
X24340548Y12407000D01*
X24745884Y12407000D01*
X24761123Y12411475D01*
X24762328Y12412865D01*
X24763999Y12420548D01*
X24763999Y12446051D01*
X24763224Y12455900D01*
X24750939Y12533472D01*
X24744884Y12552108D01*
X24697226Y12645642D01*
X24685715Y12661485D01*
X24611485Y12735715D01*
X24595642Y12747226D01*
X24502103Y12794886D01*
X24483479Y12800938D01*
X24405897Y12813225D01*
X24396054Y12814000D01*
X24345115Y12814000D01*
X24329876Y12809525D01*
X24328671Y12808135D01*
X24327000Y12800452D01*
X24327000Y12425115D01*
X24073000Y12425115D01*
X24073000Y12795884D01*
X24068525Y12811123D01*
X24067135Y12812328D01*
X24059452Y12813999D01*
X24003949Y12813999D01*
X23994100Y12813224D01*
X23916528Y12800939D01*
X23897892Y12794884D01*
X23804358Y12747226D01*
X23788515Y12735715D01*
X23714285Y12661485D01*
X23702774Y12645642D01*
X23655114Y12552103D01*
X23649062Y12533479D01*
X23644243Y12503051D01*
X23618345Y12448420D01*
X23419750Y12448420D01*
X23400499Y12484280D01*
X23398136Y12486328D01*
X23390453Y12487999D01*
X22320116Y12487999D01*
X22304877Y12483524D01*
X22303672Y12482134D01*
X22302001Y12474451D01*
X22302001Y12079115D01*
X22048001Y12079115D01*
X22048001Y12760114D01*
X22302001Y12760114D01*
X22306476Y12744875D01*
X22307866Y12743670D01*
X22315549Y12741999D01*
X23385885Y12741999D01*
X23401124Y12746474D01*
X23402329Y12747864D01*
X23404000Y12755547D01*
X23404000Y12791839D01*
X23403225Y12801686D01*
X23390568Y12881606D01*
X23384516Y12900232D01*
X23335418Y12996592D01*
X23323907Y13012435D01*
X23247437Y13088905D01*
X23231594Y13100416D01*
X23135233Y13149514D01*
X23116609Y13155566D01*
X23036686Y13168224D01*
X23026843Y13168999D01*
X22320116Y13168999D01*
X22304877Y13164524D01*
X22303672Y13163134D01*
X22302001Y13155451D01*
X22302001Y12760114D01*
X22048001Y12760114D01*
X22048001Y13150883D01*
X22043526Y13166122D01*
X22042136Y13167327D01*
X22034453Y13168998D01*
X21323161Y13168998D01*
X21313315Y13168223D01*
X21258022Y13159466D01*
X21229057Y13163209D01*
X21225417Y13159409D01*
X21223300Y13157409D01*
X21160046Y13125167D01*
X21136771Y13122999D01*
X19845116Y13122999D01*
X19829877Y13118524D01*
X19828672Y13117134D01*
X19827001Y13109451D01*
X19827001Y11109115D01*
X19831476Y11093876D01*
X19832866Y11092671D01*
X19840549Y11091000D01*
X20923829Y11091000D01*
X20936084Y11092207D01*
X20954959Y11095961D01*
X21025673Y11089630D01*
X21081738Y11046074D01*
X21085330Y11039821D01*
X21091326Y11031097D01*
X21096049Y11020463D01*
X21104282Y11012244D01*
X21104283Y11012243D01*
X21143368Y10973226D01*
X21177447Y10910943D01*
X21172444Y10840123D01*
X21129946Y10783250D01*
X21063448Y10758382D01*
X21045011Y10758400D01*
X21020396Y10760229D01*
X21020394Y10760229D01*
X21011443Y10760894D01*
X21002667Y10759021D01*
X20993796Y10758416D01*
X20979433Y10756900D01*
X18344527Y10756900D01*
X18276406Y10776902D01*
X18229913Y10830558D01*
X18219809Y10900832D01*
X18249303Y10965412D01*
X18255354Y10971918D01*
X18266414Y10982997D01*
X18304257Y11020906D01*
X18308960Y11031544D01*
X18315534Y11041145D01*
X18318615Y11039035D01*
X18351161Y11077526D01*
X18419034Y11098352D01*
X18445139Y11095940D01*
X18463911Y11092207D01*
X18476171Y11090999D01*
X19554886Y11090999D01*
X19570125Y11095474D01*
X19571330Y11096864D01*
X19573001Y11104547D01*
X19573001Y13104884D01*
X19568526Y13120123D01*
X19567136Y13121328D01*
X19559453Y13122999D01*
X18259117Y13122999D01*
X18243878Y13118524D01*
X18233649Y13106719D01*
X18173923Y13068335D01*
X18121233Y13067822D01*
X18120890Y13064881D01*
X18098644Y13067475D01*
X18098639Y13067475D01*
X18095005Y13067899D01*
X16354997Y13067899D01*
X16351310Y13067460D01*
X16351305Y13067460D01*
X16337975Y13065874D01*
X16337973Y13065874D01*
X16328589Y13064757D01*
X16225465Y13018951D01*
X16145745Y12939092D01*
X16141043Y12928455D01*
X16141041Y12928453D01*
X16130299Y12904154D01*
X16084461Y12849937D01*
X16015058Y12829100D01*
X14280086Y12829100D01*
X14211965Y12849102D01*
X14190991Y12866005D01*
X13651191Y13405805D01*
X13617165Y13468117D01*
X13622230Y13538932D01*
X13664777Y13595768D01*
X13731297Y13620579D01*
X13740286Y13620900D01*
X13744053Y13620900D01*
X13763762Y13619349D01*
X13771181Y13618174D01*
X13771182Y13618174D01*
X13784259Y13616103D01*
X13797048Y13619530D01*
X13810276Y13620223D01*
X13810299Y13619787D01*
X13818751Y13620900D01*
X16040805Y13620900D01*
X16108926Y13600898D01*
X16142584Y13568265D01*
X16146049Y13560463D01*
X16154280Y13552246D01*
X16154281Y13552245D01*
X16185979Y13520603D01*
X16225908Y13480743D01*
X16329112Y13435117D01*
X16345821Y13433169D01*
X16351358Y13432523D01*
X16351363Y13432523D01*
X16354997Y13432099D01*
X18095005Y13432099D01*
X18098692Y13432538D01*
X18098697Y13432538D01*
X18119808Y13435050D01*
X18189815Y13423236D01*
X18214571Y13400705D01*
X18217515Y13404103D01*
X18246866Y13378670D01*
X18254549Y13376999D01*
X19554886Y13376999D01*
X19570125Y13381474D01*
X19571330Y13382864D01*
X19573001Y13390547D01*
X19573001Y13395114D01*
X19827001Y13395114D01*
X19831476Y13379875D01*
X19832866Y13378670D01*
X19840549Y13376999D01*
X21138888Y13376999D01*
X21149538Y13373872D01*
X21166354Y13393279D01*
X21226080Y13431663D01*
X21278769Y13432173D01*
X21279112Y13435117D01*
X21301358Y13432523D01*
X21301363Y13432523D01*
X21304997Y13432099D01*
X23045005Y13432099D01*
X23048692Y13432538D01*
X23048697Y13432538D01*
X23062027Y13434124D01*
X23062029Y13434124D01*
X23071413Y13435241D01*
X23145428Y13468117D01*
X23163902Y13476323D01*
X23174537Y13481047D01*
X23254257Y13560906D01*
X23299883Y13664110D01*
X23302901Y13689995D01*
X23302901Y14080003D01*
X23301125Y14094936D01*
X23300876Y14097025D01*
X23300876Y14097027D01*
X23299759Y14106411D01*
X23253953Y14209535D01*
X23229527Y14233919D01*
X23182326Y14281037D01*
X23174094Y14289255D01*
X23070890Y14334881D01*
X23054181Y14336829D01*
X23048644Y14337475D01*
X23048639Y14337475D01*
X23045005Y14337899D01*
X21304997Y14337899D01*
X21300899Y14337411D01*
X21299884Y14337291D01*
X21299513Y14337354D01*
X21297563Y14337238D01*
X21297536Y14337687D01*
X21229877Y14349106D01*
X21177372Y14396894D01*
X21159000Y14462409D01*
X21159000Y14577577D01*
X21179002Y14645698D01*
X21232658Y14692191D01*
X21297697Y14702432D01*
X21297715Y14702735D01*
X21299106Y14702654D01*
X21299587Y14702730D01*
X21304997Y14702099D01*
X23045005Y14702099D01*
X23048692Y14702538D01*
X23048697Y14702538D01*
X23062027Y14704124D01*
X23062029Y14704124D01*
X23071413Y14705241D01*
X23083938Y14710804D01*
X23163902Y14746323D01*
X23174537Y14751047D01*
X23254257Y14830906D01*
X23299883Y14934110D01*
X23302901Y14959995D01*
X23302901Y15350003D01*
X23301838Y15358943D01*
X23300876Y15367025D01*
X23300876Y15367027D01*
X23299759Y15376411D01*
X23290828Y15396519D01*
X23258677Y15468900D01*
X23253953Y15479535D01*
X23230033Y15503414D01*
X23182326Y15551037D01*
X23174094Y15559255D01*
X23070890Y15604881D01*
X23054181Y15606829D01*
X23048644Y15607475D01*
X23048639Y15607475D01*
X23045005Y15607899D01*
X21304997Y15607899D01*
X21301310Y15607460D01*
X21301305Y15607460D01*
X21287975Y15605874D01*
X21287973Y15605874D01*
X21278589Y15604757D01*
X21269949Y15600919D01*
X21269948Y15600919D01*
X21186737Y15563958D01*
X21175465Y15558951D01*
X21095745Y15479092D01*
X21091042Y15468454D01*
X21084468Y15458853D01*
X21081387Y15460963D01*
X21048841Y15422472D01*
X20980968Y15401646D01*
X20954863Y15404058D01*
X20936091Y15407791D01*
X20923831Y15408999D01*
X19845116Y15408999D01*
X19829877Y15404524D01*
X19828672Y15403134D01*
X19827001Y15395451D01*
X19827001Y13395114D01*
X19573001Y13395114D01*
X19573001Y15390883D01*
X19568526Y15406122D01*
X19567136Y15407327D01*
X19559453Y15408998D01*
X18476173Y15408998D01*
X18463918Y15407791D01*
X18445043Y15404037D01*
X18374329Y15410368D01*
X18318264Y15453924D01*
X18314672Y15460177D01*
X18308676Y15468901D01*
X18303953Y15479535D01*
X18280033Y15503414D01*
X18232326Y15551037D01*
X18224094Y15559255D01*
X18120890Y15604881D01*
X18104181Y15606829D01*
X18098644Y15607475D01*
X18098639Y15607475D01*
X18095005Y15607899D01*
X16354997Y15607899D01*
X16351310Y15607460D01*
X16351305Y15607460D01*
X16337975Y15605874D01*
X16337973Y15605874D01*
X16328589Y15604757D01*
X16319949Y15600919D01*
X16319948Y15600919D01*
X16236737Y15563958D01*
X16225465Y15558951D01*
X16217246Y15550718D01*
X16217245Y15550717D01*
X16153962Y15487324D01*
X16153961Y15487322D01*
X16145745Y15479092D01*
X16136930Y15459153D01*
X16091094Y15404937D01*
X16021690Y15384099D01*
X13376087Y15384099D01*
X13307966Y15404101D01*
X13286992Y15421004D01*
X12300005Y16407992D01*
X12265979Y16470304D01*
X12263100Y16497087D01*
X12263100Y23874714D01*
X12283102Y23942835D01*
X12336758Y23989328D01*
X12407032Y23999432D01*
X12471612Y23969938D01*
X12478195Y23963809D01*
X13097416Y23344588D01*
X13101957Y23339804D01*
X13128330Y23310514D01*
X13140427Y23305128D01*
X13140430Y23305126D01*
X13147284Y23302075D01*
X13164655Y23292644D01*
X13182064Y23281338D01*
X13195146Y23279266D01*
X13200063Y23277379D01*
X13205208Y23276285D01*
X13217303Y23270900D01*
X13238053Y23270900D01*
X13257762Y23269349D01*
X13265181Y23268174D01*
X13265182Y23268174D01*
X13278259Y23266103D01*
X13291048Y23269530D01*
X13304276Y23270223D01*
X13304299Y23269787D01*
X13312751Y23270900D01*
X27501467Y23270900D01*
X27569588Y23250898D01*
X27590562Y23233995D01*
X27657849Y23166708D01*
X27772694Y23108191D01*
X27900000Y23088028D01*
X28027306Y23108191D01*
X28142151Y23166708D01*
X28209438Y23233995D01*
X28271750Y23268021D01*
X28298533Y23270900D01*
X31752914Y23270900D01*
X31821035Y23250898D01*
X31842009Y23233995D01*
X32633995Y22442009D01*
X32668021Y22379697D01*
X32670900Y22352914D01*
X32670900Y16113533D01*
X32650898Y16045412D01*
X32633995Y16024438D01*
X32566708Y15957151D01*
X32508191Y15842306D01*
X32488028Y15715000D01*
X32508191Y15587694D01*
X32566708Y15472849D01*
X32657849Y15381708D01*
X32772694Y15323191D01*
X32782487Y15321640D01*
X32886072Y15305234D01*
X32900000Y15303028D01*
X32913929Y15305234D01*
X33017513Y15321640D01*
X33027306Y15323191D01*
X33142151Y15381708D01*
X33233292Y15472849D01*
X33291809Y15587694D01*
X33311972Y15715000D01*
X33291809Y15842306D01*
X33233292Y15957151D01*
X33166005Y16024438D01*
X33131979Y16086750D01*
X33129100Y16113533D01*
X33129100Y22490698D01*
X33129273Y22497292D01*
X33130642Y22523414D01*
X33131335Y22536639D01*
X33124103Y22555481D01*
X33123896Y22556021D01*
X33118283Y22574969D01*
X33116913Y22581415D01*
X33113969Y22595265D01*
X33106185Y22605979D01*
X33104044Y22610787D01*
X33101177Y22615201D01*
X33096432Y22627564D01*
X33081761Y22642235D01*
X33068920Y22657269D01*
X33064505Y22663346D01*
X33064504Y22663346D01*
X33056722Y22674058D01*
X33045255Y22680678D01*
X33035412Y22689541D01*
X33035704Y22689865D01*
X33028941Y22695055D01*
X32550278Y23173719D01*
X32068565Y23655432D01*
X32064025Y23660216D01*
X32046531Y23679645D01*
X32037670Y23689486D01*
X32018714Y23697926D01*
X32001342Y23707358D01*
X31995043Y23711449D01*
X31995041Y23711450D01*
X31983936Y23718661D01*
X31970857Y23720732D01*
X31965942Y23722619D01*
X31960796Y23723713D01*
X31948697Y23729100D01*
X31927947Y23729100D01*
X31908236Y23730651D01*
X31900819Y23731826D01*
X31900818Y23731826D01*
X31887742Y23733897D01*
X31874953Y23730470D01*
X31861725Y23729777D01*
X31861702Y23730213D01*
X31853250Y23729100D01*
X28298533Y23729100D01*
X28230412Y23749102D01*
X28209438Y23766005D01*
X28142151Y23833292D01*
X28027306Y23891809D01*
X27900000Y23911972D01*
X27772694Y23891809D01*
X27657849Y23833292D01*
X27590562Y23766005D01*
X27528250Y23731979D01*
X27501467Y23729100D01*
X13413087Y23729100D01*
X13344966Y23749102D01*
X13323991Y23766005D01*
X12808004Y24281993D01*
X12773979Y24344305D01*
X12771100Y24371088D01*
X12771100Y24859000D01*
X23306028Y24859000D01*
X23326191Y24731694D01*
X23384708Y24616849D01*
X23475849Y24525708D01*
X23590694Y24467191D01*
X23718000Y24447028D01*
X23845306Y24467191D01*
X23854145Y24471695D01*
X23863573Y24474758D01*
X23864345Y24472383D01*
X23904816Y24482100D01*
X36324267Y24482100D01*
X36392388Y24462098D01*
X36413362Y24445195D01*
X36429849Y24428708D01*
X36544694Y24370191D01*
X36554487Y24368640D01*
X36649037Y24353665D01*
X36672000Y24350028D01*
X36694964Y24353665D01*
X36789513Y24368640D01*
X36799306Y24370191D01*
X36914151Y24428708D01*
X37005292Y24519849D01*
X37063809Y24634694D01*
X37083972Y24762000D01*
X37063809Y24889306D01*
X37005292Y25004151D01*
X36914151Y25095292D01*
X36799306Y25153809D01*
X36672000Y25173972D01*
X36544694Y25153809D01*
X36429849Y25095292D01*
X36413362Y25078805D01*
X36351050Y25044779D01*
X36324267Y25041900D01*
X24156623Y25041900D01*
X24088502Y25061902D01*
X24055325Y25093235D01*
X24051292Y25101151D01*
X23960151Y25192292D01*
X23845306Y25250809D01*
X23718000Y25270972D01*
X23590694Y25250809D01*
X23475849Y25192292D01*
X23384708Y25101151D01*
X23326191Y24986306D01*
X23306028Y24859000D01*
X12771100Y24859000D01*
X12771100Y31644211D01*
X12771273Y31650803D01*
X12772899Y31681838D01*
X12796437Y31748819D01*
X12852452Y31792441D01*
X12923158Y31798854D01*
X12987820Y31764341D01*
G37*
%TD.AperFunction*%
%TA.AperFunction,Conductor*%
G36*
X32783035Y32229898D02*
G01*
X32804009Y32212995D01*
X34119995Y30897009D01*
X34154021Y30834697D01*
X34156900Y30807914D01*
X34156900Y27789282D01*
X34156727Y27782688D01*
X34154666Y27743361D01*
X34162103Y27723986D01*
X34167715Y27705038D01*
X34168636Y27700708D01*
X34172031Y27684735D01*
X34179813Y27674024D01*
X34181954Y27669216D01*
X34184823Y27664799D01*
X34189568Y27652436D01*
X34204239Y27637765D01*
X34217080Y27622731D01*
X34229278Y27605942D01*
X34240745Y27599322D01*
X34250588Y27590459D01*
X34250296Y27590134D01*
X34257060Y27584944D01*
X34954674Y26887330D01*
X34988700Y26825018D01*
X34991579Y26798235D01*
X34991579Y26792693D01*
X34990028Y26782900D01*
X35007023Y26675598D01*
X34997923Y26605189D01*
X34952202Y26550875D01*
X34882574Y26529889D01*
X34179139Y26529889D01*
X34111018Y26549891D01*
X34090044Y26566794D01*
X29114958Y31541880D01*
X29079604Y31611264D01*
X29074386Y31644211D01*
X29065977Y31697302D01*
X29075076Y31767711D01*
X29120798Y31822025D01*
X29190426Y31843011D01*
X29680802Y31843011D01*
X29748923Y31823009D01*
X29769898Y31806106D01*
X29856019Y31719984D01*
X29890044Y31657672D01*
X29891372Y31611181D01*
X29889569Y31599796D01*
X29888018Y31590000D01*
X29908181Y31462694D01*
X29966698Y31347849D01*
X30057839Y31256708D01*
X30172684Y31198191D01*
X30182477Y31196640D01*
X30286062Y31180234D01*
X30299990Y31178028D01*
X30313919Y31180234D01*
X30417503Y31196640D01*
X30427296Y31198191D01*
X30542141Y31256708D01*
X30633282Y31347849D01*
X30691799Y31462694D01*
X30711962Y31590000D01*
X30710411Y31599796D01*
X30693350Y31707513D01*
X30691799Y31717306D01*
X30633282Y31832151D01*
X30542141Y31923292D01*
X30427296Y31981809D01*
X30315907Y31999451D01*
X30251753Y32029863D01*
X30214226Y32090131D01*
X30215240Y32161121D01*
X30254472Y32220293D01*
X30319468Y32248861D01*
X30335617Y32249900D01*
X32714914Y32249900D01*
X32783035Y32229898D01*
G37*
%TD.AperFunction*%
%TA.AperFunction,Conductor*%
G36*
X10510672Y30179878D02*
G01*
X10567928Y30181515D01*
X10628727Y30144854D01*
X10660054Y30081143D01*
X10661900Y30059654D01*
X10661900Y28548346D01*
X10641898Y28480225D01*
X10588242Y28433732D01*
X10517968Y28423628D01*
X10511745Y28425076D01*
X10510306Y28425809D01*
X10504939Y28426659D01*
X10504935Y28426660D01*
X10415024Y28440900D01*
X10392793Y28444421D01*
X10383000Y28445972D01*
X10373207Y28444421D01*
X10360769Y28442451D01*
X10341059Y28440900D01*
X10215622Y28440900D01*
X10147501Y28460902D01*
X10110857Y28496897D01*
X10085234Y28535245D01*
X10077896Y28540148D01*
X10045058Y28600284D01*
X10050123Y28671099D01*
X10098178Y28731832D01*
X10147806Y28764992D01*
X10165017Y28782203D01*
X10207368Y28845586D01*
X10216684Y28868077D01*
X10227793Y28923926D01*
X10229000Y28936181D01*
X10229000Y29179896D01*
X10224525Y29195135D01*
X10223135Y29196340D01*
X10215452Y29198011D01*
X8864000Y29198011D01*
X8795879Y29218013D01*
X8749386Y29271669D01*
X8738000Y29324011D01*
X8738000Y29326011D01*
X8758002Y29394132D01*
X8811658Y29440625D01*
X8864000Y29452011D01*
X10210884Y29452011D01*
X10226123Y29456486D01*
X10227328Y29457876D01*
X10228999Y29465559D01*
X10228999Y29713839D01*
X10227791Y29726099D01*
X10216685Y29781942D01*
X10207367Y29804438D01*
X10165017Y29867819D01*
X10147806Y29885030D01*
X10098178Y29918190D01*
X10052650Y29972666D01*
X10043801Y30043109D01*
X10078009Y30109949D01*
X10085234Y30114777D01*
X10092127Y30125093D01*
X10097229Y30130195D01*
X10159541Y30164221D01*
X10186324Y30167100D01*
X10341059Y30167100D01*
X10360769Y30165549D01*
X10383000Y30162028D01*
X10510306Y30182191D01*
X10510672Y30179878D01*
G37*
%TD.AperFunction*%
%TA.AperFunction,Conductor*%
G36*
X4267412Y37055296D02*
G01*
X4273995Y37049167D01*
X4547797Y36775365D01*
X4563467Y36756271D01*
X4565297Y36753532D01*
X4565299Y36753530D01*
X4572192Y36743214D01*
X4626018Y36707249D01*
X4664777Y36681351D01*
X4676948Y36678930D01*
X4773019Y36659820D01*
X4835928Y36626912D01*
X4871060Y36565217D01*
X4871941Y36559923D01*
X4872101Y36559955D01*
X4875573Y36542500D01*
X4880972Y36515353D01*
X4914766Y36464777D01*
X4922104Y36459874D01*
X4954942Y36399738D01*
X4949877Y36328923D01*
X4901822Y36268190D01*
X4852194Y36235030D01*
X4834983Y36217819D01*
X4792632Y36154436D01*
X4783316Y36131945D01*
X4772207Y36076096D01*
X4771000Y36063841D01*
X4771000Y35820126D01*
X4775475Y35804887D01*
X4776865Y35803682D01*
X4784548Y35802011D01*
X6136000Y35802011D01*
X6204121Y35782009D01*
X6250614Y35728353D01*
X6262000Y35676011D01*
X6262000Y35051012D01*
X6260579Y35051012D01*
X6261365Y35029011D01*
X6262000Y35029011D01*
X6262000Y33781012D01*
X6260579Y33781012D01*
X6261365Y33759011D01*
X6262000Y33759011D01*
X6262000Y32511012D01*
X6260579Y32511012D01*
X6261365Y32489011D01*
X6262000Y32489011D01*
X6262000Y31241012D01*
X6260579Y31241012D01*
X6261365Y31219011D01*
X6262000Y31219011D01*
X6262000Y30594011D01*
X6241998Y30525890D01*
X6188342Y30479397D01*
X6136000Y30468011D01*
X4789116Y30468011D01*
X4773877Y30463536D01*
X4772672Y30462146D01*
X4771001Y30454463D01*
X4771001Y30206183D01*
X4772209Y30193923D01*
X4783315Y30138080D01*
X4792633Y30115584D01*
X4834983Y30052203D01*
X4852194Y30034992D01*
X4901822Y30001832D01*
X4947350Y29947356D01*
X4956199Y29876913D01*
X4921991Y29810073D01*
X4914766Y29805245D01*
X4889143Y29766897D01*
X4834665Y29721370D01*
X4784378Y29710900D01*
X4709941Y29710900D01*
X4690231Y29712451D01*
X4677793Y29714421D01*
X4668000Y29715972D01*
X4658207Y29714421D01*
X4645769Y29712451D01*
X4540694Y29695809D01*
X4425849Y29637292D01*
X4334708Y29546151D01*
X4302169Y29482290D01*
X4297167Y29472473D01*
X4248418Y29420858D01*
X4179504Y29403792D01*
X4112302Y29426693D01*
X4068150Y29482290D01*
X4058900Y29529676D01*
X4058900Y30740126D01*
X4771000Y30740126D01*
X4775475Y30724887D01*
X4776865Y30723682D01*
X4784548Y30722011D01*
X5989885Y30722011D01*
X6005124Y30726486D01*
X6006329Y30727876D01*
X6008000Y30735559D01*
X6008000Y31219010D01*
X6009421Y31219010D01*
X6008635Y31241011D01*
X6008000Y31241011D01*
X6008000Y31719896D01*
X6003525Y31735135D01*
X6002135Y31736340D01*
X5994452Y31738011D01*
X4789116Y31738011D01*
X4773877Y31733536D01*
X4772672Y31732146D01*
X4771001Y31724463D01*
X4771001Y31476183D01*
X4772209Y31463923D01*
X4783315Y31408080D01*
X4792633Y31385584D01*
X4834983Y31322203D01*
X4838080Y31319106D01*
X4872106Y31256794D01*
X4867041Y31185979D01*
X4838080Y31140916D01*
X4834983Y31137819D01*
X4792632Y31074436D01*
X4783316Y31051945D01*
X4772207Y30996096D01*
X4771000Y30983841D01*
X4771000Y30740126D01*
X4058900Y30740126D01*
X4058900Y32010126D01*
X4771000Y32010126D01*
X4775475Y31994887D01*
X4776865Y31993682D01*
X4784548Y31992011D01*
X5989885Y31992011D01*
X6005124Y31996486D01*
X6006329Y31997876D01*
X6008000Y32005559D01*
X6008000Y32489010D01*
X6009421Y32489010D01*
X6008635Y32511011D01*
X6008000Y32511011D01*
X6008000Y32989896D01*
X6003525Y33005135D01*
X6002135Y33006340D01*
X5994452Y33008011D01*
X4789116Y33008011D01*
X4773877Y33003536D01*
X4772672Y33002146D01*
X4771001Y32994463D01*
X4771001Y32746183D01*
X4772209Y32733923D01*
X4783315Y32678080D01*
X4792633Y32655584D01*
X4834983Y32592203D01*
X4838080Y32589106D01*
X4872106Y32526794D01*
X4867041Y32455979D01*
X4838080Y32410916D01*
X4834983Y32407819D01*
X4792632Y32344436D01*
X4783316Y32321945D01*
X4772207Y32266096D01*
X4771000Y32253841D01*
X4771000Y32010126D01*
X4058900Y32010126D01*
X4058900Y33280126D01*
X4771000Y33280126D01*
X4775475Y33264887D01*
X4776865Y33263682D01*
X4784548Y33262011D01*
X5989885Y33262011D01*
X6005124Y33266486D01*
X6006329Y33267876D01*
X6008000Y33275559D01*
X6008000Y33759010D01*
X6009421Y33759010D01*
X6008635Y33781011D01*
X6008000Y33781011D01*
X6008000Y34259896D01*
X6003525Y34275135D01*
X6002135Y34276340D01*
X5994452Y34278011D01*
X4789116Y34278011D01*
X4773877Y34273536D01*
X4772672Y34272146D01*
X4771001Y34264463D01*
X4771001Y34016183D01*
X4772209Y34003923D01*
X4783315Y33948080D01*
X4792633Y33925584D01*
X4834983Y33862203D01*
X4838080Y33859106D01*
X4872106Y33796794D01*
X4867041Y33725979D01*
X4838080Y33680916D01*
X4834983Y33677819D01*
X4792632Y33614436D01*
X4783316Y33591945D01*
X4772207Y33536096D01*
X4771000Y33523841D01*
X4771000Y33280126D01*
X4058900Y33280126D01*
X4058900Y34550126D01*
X4771000Y34550126D01*
X4775475Y34534887D01*
X4776865Y34533682D01*
X4784548Y34532011D01*
X5989885Y34532011D01*
X6005124Y34536486D01*
X6006329Y34537876D01*
X6008000Y34545559D01*
X6008000Y35029010D01*
X6009421Y35029010D01*
X6008635Y35051011D01*
X6008000Y35051011D01*
X6008000Y35529896D01*
X6003525Y35545135D01*
X6002135Y35546340D01*
X5994452Y35548011D01*
X4789116Y35548011D01*
X4773877Y35543536D01*
X4772672Y35542146D01*
X4771001Y35534463D01*
X4771001Y35286183D01*
X4772209Y35273923D01*
X4783315Y35218080D01*
X4792633Y35195584D01*
X4834983Y35132203D01*
X4838080Y35129106D01*
X4872106Y35066794D01*
X4867041Y34995979D01*
X4838080Y34950916D01*
X4834983Y34947819D01*
X4792632Y34884436D01*
X4783316Y34861945D01*
X4772207Y34806096D01*
X4771000Y34793841D01*
X4771000Y34550126D01*
X4058900Y34550126D01*
X4058900Y36960072D01*
X4078902Y37028193D01*
X4132558Y37074686D01*
X4202832Y37084790D01*
X4267412Y37055296D01*
G37*
%TD.AperFunction*%
%TA.AperFunction,Conductor*%
G36*
X27682993Y31213898D02*
G01*
X27729486Y31160242D01*
X27739590Y31089968D01*
X27710096Y31025388D01*
X27703967Y31018805D01*
X27321967Y30636805D01*
X27259655Y30602779D01*
X27232872Y30599900D01*
X14996129Y30599900D01*
X14928008Y30619902D01*
X14907034Y30636805D01*
X14525748Y31018091D01*
X14491722Y31080403D01*
X14496787Y31151218D01*
X14539334Y31208054D01*
X14587243Y31225406D01*
X14586252Y31229103D01*
X14586257Y31229104D01*
X14586258Y31229104D01*
X14588134Y31229607D01*
X14604954Y31231821D01*
X14608245Y31233013D01*
X14612269Y31233224D01*
X14612292Y31232787D01*
X14620744Y31233900D01*
X27614872Y31233900D01*
X27682993Y31213898D01*
G37*
%TD.AperFunction*%
%TA.AperFunction,Conductor*%
G36*
X27858429Y32229898D02*
G01*
X27904922Y32176242D01*
X27915026Y32105968D01*
X27885532Y32041388D01*
X27879408Y32034809D01*
X27687609Y31843011D01*
X27573602Y31729004D01*
X27511290Y31694979D01*
X27484507Y31692100D01*
X14721087Y31692100D01*
X14652966Y31712102D01*
X14631992Y31729005D01*
X14326192Y32034805D01*
X14292166Y32097117D01*
X14297231Y32167932D01*
X14339778Y32224768D01*
X14406298Y32249579D01*
X14415287Y32249900D01*
X27790308Y32249900D01*
X27858429Y32229898D01*
G37*
%TD.AperFunction*%
%TA.AperFunction,Conductor*%
G36*
X32338535Y33245898D02*
G01*
X32359509Y33228995D01*
X32665309Y32923195D01*
X32699335Y32860883D01*
X32694270Y32790068D01*
X32651723Y32733232D01*
X32585203Y32708421D01*
X32576214Y32708100D01*
X14213087Y32708100D01*
X14144966Y32728102D01*
X14123992Y32745005D01*
X13818192Y33050805D01*
X13784166Y33113117D01*
X13789231Y33183932D01*
X13831778Y33240768D01*
X13898298Y33265579D01*
X13907287Y33265900D01*
X32270414Y33265900D01*
X32338535Y33245898D01*
G37*
%TD.AperFunction*%
%TA.AperFunction,Conductor*%
G36*
X13283932Y37635618D02*
G01*
X13290514Y37629490D01*
X14591080Y36328923D01*
X15802425Y35117578D01*
X15806966Y35112794D01*
X15833330Y35083514D01*
X15852288Y35075073D01*
X15869657Y35065642D01*
X15887064Y35054338D01*
X15900142Y35052266D01*
X15905051Y35050382D01*
X15910204Y35049287D01*
X15922303Y35043900D01*
X15943053Y35043900D01*
X15962763Y35042349D01*
X15970181Y35041174D01*
X15970182Y35041174D01*
X15983258Y35039103D01*
X15996047Y35042530D01*
X16009275Y35043223D01*
X16009298Y35042787D01*
X16017750Y35043900D01*
X31063914Y35043900D01*
X31132035Y35023898D01*
X31153009Y35006995D01*
X32220809Y33939195D01*
X32254835Y33876883D01*
X32249770Y33806068D01*
X32207223Y33749232D01*
X32140703Y33724421D01*
X32131714Y33724100D01*
X13705087Y33724100D01*
X13636966Y33744102D01*
X13615991Y33761005D01*
X13112324Y34264673D01*
X13078299Y34326985D01*
X13075420Y34353768D01*
X13075420Y37540394D01*
X13095422Y37608515D01*
X13149078Y37655008D01*
X13219352Y37665112D01*
X13283932Y37635618D01*
G37*
%TD.AperFunction*%
%TD*%
M02*
