%TF.GenerationSoftware,KiCad,Pcbnew,(6.0.1)*%
%TF.CreationDate,2022-04-26T10:15:21+02:00*%
%TF.ProjectId,XCOMMS_RF,58434f4d-4d53-45f5-9246-2e6b69636164,rev?*%
%TF.SameCoordinates,PX7ed6b40PY82a7440*%
%TF.FileFunction,Soldermask,Top*%
%TF.FilePolarity,Negative*%
%FSLAX46Y46*%
G04 Gerber Fmt 4.6, Leading zero omitted, Abs format (unit mm)*
G04 Created by KiCad (PCBNEW (6.0.1)) date 2022-04-26 10:15:21*
%MOMM*%
%LPD*%
G01*
G04 APERTURE LIST*
G04 Aperture macros list*
%AMRoundRect*
0 Rectangle with rounded corners*
0 $1 Rounding radius*
0 $2 $3 $4 $5 $6 $7 $8 $9 X,Y pos of 4 corners*
0 Add a 4 corners polygon primitive as box body*
4,1,4,$2,$3,$4,$5,$6,$7,$8,$9,$2,$3,0*
0 Add four circle primitives for the rounded corners*
1,1,$1+$1,$2,$3*
1,1,$1+$1,$4,$5*
1,1,$1+$1,$6,$7*
1,1,$1+$1,$8,$9*
0 Add four rect primitives between the rounded corners*
20,1,$1+$1,$2,$3,$4,$5,0*
20,1,$1+$1,$4,$5,$6,$7,0*
20,1,$1+$1,$6,$7,$8,$9,0*
20,1,$1+$1,$8,$9,$2,$3,0*%
%AMFreePoly0*
4,1,10,-0.450000,0.185000,0.450000,0.185000,0.450000,0.435000,1.200000,0.435000,1.200000,-0.235000,-1.000000,-0.235000,-1.200000,-0.035000,-1.200000,0.435000,-0.450000,0.435000,-0.450000,0.185000,-0.450000,0.185000,$1*%
%AMFreePoly1*
4,1,10,-0.450000,0.185000,0.450000,0.185000,0.450000,0.435000,1.200000,0.435000,1.200000,-0.035000,1.000000,-0.235000,-1.200000,-0.235000,-1.200000,0.435000,-0.450000,0.435000,-0.450000,0.185000,-0.450000,0.185000,$1*%
G04 Aperture macros list end*
%ADD10C,2.000000*%
%ADD11RoundRect,0.218750X0.218750X0.256250X-0.218750X0.256250X-0.218750X-0.256250X0.218750X-0.256250X0*%
%ADD12RoundRect,0.225000X-0.250000X0.225000X-0.250000X-0.225000X0.250000X-0.225000X0.250000X0.225000X0*%
%ADD13RoundRect,0.225000X0.250000X-0.225000X0.250000X0.225000X-0.250000X0.225000X-0.250000X-0.225000X0*%
%ADD14RoundRect,0.135000X0.185000X-0.135000X0.185000X0.135000X-0.185000X0.135000X-0.185000X-0.135000X0*%
%ADD15R,0.300000X0.700000*%
%ADD16R,1.500000X0.900000*%
%ADD17RoundRect,0.140000X-0.170000X0.140000X-0.170000X-0.140000X0.170000X-0.140000X0.170000X0.140000X0*%
%ADD18R,0.350000X0.850000*%
%ADD19R,0.850000X0.350000*%
%ADD20R,3.250000X3.250000*%
%ADD21R,0.505000X2.470000*%
%ADD22R,1.577500X7.610000*%
%ADD23R,1.562500X7.620000*%
%ADD24R,1.370000X2.470000*%
%ADD25R,1.355000X2.465000*%
%ADD26R,0.550000X0.250000*%
%ADD27RoundRect,0.140000X0.170000X-0.140000X0.170000X0.140000X-0.170000X0.140000X-0.170000X-0.140000X0*%
%ADD28R,0.500000X0.480000*%
%ADD29FreePoly0,270.000000*%
%ADD30FreePoly1,90.000000*%
%ADD31RoundRect,0.200000X-0.275000X0.200000X-0.275000X-0.200000X0.275000X-0.200000X0.275000X0.200000X0*%
%ADD32R,0.700000X0.800000*%
%ADD33RoundRect,0.200000X0.275000X-0.200000X0.275000X0.200000X-0.275000X0.200000X-0.275000X-0.200000X0*%
%ADD34C,5.399999*%
%ADD35R,2.390000X0.760000*%
%ADD36R,1.520000X0.760000*%
%ADD37R,1.270000X4.570000*%
%ADD38R,0.870000X3.300000*%
%ADD39FreePoly1,270.000000*%
%ADD40FreePoly0,90.000000*%
%ADD41R,0.300000X0.900000*%
%ADD42R,0.900000X0.300000*%
%ADD43R,4.600000X4.600000*%
%ADD44RoundRect,0.150000X0.512500X0.150000X-0.512500X0.150000X-0.512500X-0.150000X0.512500X-0.150000X0*%
%ADD45C,1.420000*%
G04 APERTURE END LIST*
D10*
X1000000Y1000000D02*
X1000000Y64000000D01*
X39000000Y1000000D02*
X39000000Y64000000D01*
X39000000Y64000000D02*
X23000000Y64000000D01*
X1000000Y64000000D02*
X17000000Y64000000D01*
X1000000Y1000000D02*
X17000000Y1000000D01*
X39000000Y1000000D02*
X23000000Y1000000D01*
D11*
%TO.C,L3*%
X19987500Y51800000D03*
X18412500Y51800000D03*
%TD*%
D12*
%TO.C,C35*%
X25242000Y13460100D03*
X25242000Y11910100D03*
%TD*%
D13*
%TO.C,C12*%
X12700000Y8844000D03*
X12700000Y10394000D03*
%TD*%
D12*
%TO.C,C25*%
X12700000Y16675000D03*
X12700000Y15125000D03*
%TD*%
D14*
%TO.C,R4*%
X37180000Y35112000D03*
X37180000Y36132000D03*
%TD*%
D15*
%TO.C,U2*%
X20026005Y28800000D03*
X19376005Y28800000D03*
X18726005Y28800000D03*
X18726005Y26800000D03*
X19376005Y26800000D03*
X20026005Y26800000D03*
D16*
X19376005Y27800000D03*
%TD*%
D17*
%TO.C,C2*%
X19400000Y31430000D03*
X19400000Y30470000D03*
%TD*%
%TO.C,C34*%
X23866453Y12900000D03*
X23866453Y11940000D03*
%TD*%
D18*
%TO.C,U3*%
X21317362Y15215101D03*
X20667362Y15215101D03*
X20017362Y15215101D03*
X19367362Y15215101D03*
X18717362Y15215101D03*
X18067362Y15215101D03*
D19*
X17242362Y14390101D03*
X17242362Y13740101D03*
X17242362Y13090101D03*
X17242362Y12440101D03*
X17242362Y11790101D03*
X17242362Y11140101D03*
D18*
X18067362Y10315101D03*
X18717362Y10315101D03*
X19367362Y10315101D03*
X20017362Y10315101D03*
X20667362Y10315101D03*
X21317362Y10315101D03*
D19*
X22142362Y11140101D03*
X22142362Y11790101D03*
X22142362Y12440101D03*
X22142362Y13090101D03*
X22142362Y13740101D03*
X22142362Y14390101D03*
D20*
X19692362Y12765101D03*
%TD*%
D21*
%TO.C,J1*%
X19992500Y6674999D03*
D22*
X23031250Y4104999D03*
D23*
X16961250Y4099999D03*
D24*
X18412500Y6674999D03*
D25*
X21615000Y6677499D03*
%TD*%
D26*
%TO.C,FL1*%
X19400000Y38650000D03*
X19400000Y38150000D03*
X19400000Y37650000D03*
X20200000Y37650000D03*
X20200000Y38150000D03*
X20200000Y38650000D03*
%TD*%
D12*
%TO.C,C28*%
X26766000Y16640098D03*
X26766000Y15090098D03*
%TD*%
D13*
%TO.C,C20*%
X26766000Y8717000D03*
X26766000Y10267000D03*
%TD*%
D12*
%TO.C,C3*%
X14200000Y26255000D03*
X14200000Y24705000D03*
%TD*%
%TO.C,C16*%
X14300000Y19875003D03*
X14300000Y18325003D03*
%TD*%
%TO.C,C27*%
X25242000Y16640098D03*
X25242000Y15090098D03*
%TD*%
D27*
%TO.C,C42*%
X28671000Y35936000D03*
X28671000Y36896000D03*
%TD*%
D28*
%TO.C,TP1*%
X20000001Y46140007D03*
X20000001Y48060007D03*
D29*
X20815001Y47100007D03*
D30*
X19185001Y47100007D03*
%TD*%
D17*
%TO.C,C54*%
X20000000Y50400000D03*
X20000000Y49440000D03*
%TD*%
D12*
%TO.C,C47*%
X36672000Y27875000D03*
X36672000Y26325000D03*
%TD*%
%TO.C,C9*%
X25369000Y33127000D03*
X25369000Y31577000D03*
%TD*%
D17*
%TO.C,C15*%
X15599998Y19380004D03*
X15599998Y18420004D03*
%TD*%
D12*
%TO.C,C13*%
X27020000Y33127000D03*
X27020000Y31577000D03*
%TD*%
D27*
%TO.C,C31*%
X15600000Y12520000D03*
X15600000Y13480000D03*
%TD*%
D13*
%TO.C,C7*%
X27020000Y20020000D03*
X27020000Y21570000D03*
%TD*%
D31*
%TO.C,R10*%
X10383000Y53370000D03*
X10383000Y51720000D03*
%TD*%
%TO.C,R7*%
X8605000Y46004000D03*
X8605000Y44354000D03*
%TD*%
D13*
%TO.C,C6*%
X25369000Y23322000D03*
X25369000Y24872000D03*
%TD*%
D14*
%TO.C,R1*%
X34259000Y35090000D03*
X34259000Y36110000D03*
%TD*%
D17*
%TO.C,C1*%
X19400000Y23080000D03*
X19400000Y22120000D03*
%TD*%
D31*
%TO.C,R2*%
X36672000Y21625000D03*
X36672000Y19975000D03*
%TD*%
D32*
%TO.C,Y1*%
X32865217Y16700001D03*
X32865217Y18000001D03*
X31865216Y18000001D03*
X31865216Y16700001D03*
%TD*%
D13*
%TO.C,C43*%
X33497000Y20025005D03*
X33497000Y21575005D03*
%TD*%
D17*
%TO.C,C53*%
X17000000Y52780000D03*
X17000000Y51820000D03*
%TD*%
D13*
%TO.C,C39*%
X31900000Y20025008D03*
X31900000Y21575008D03*
%TD*%
%TO.C,C32*%
X14300000Y11990098D03*
X14300000Y13540098D03*
%TD*%
D33*
%TO.C,R9*%
X8732000Y51720000D03*
X8732000Y53370000D03*
%TD*%
D13*
%TO.C,C49*%
X28671000Y16700000D03*
X28671000Y18250000D03*
%TD*%
%TO.C,C46*%
X36672000Y23225000D03*
X36672000Y24775000D03*
%TD*%
D34*
%TO.C,SCRW2*%
X3000000Y62000000D03*
%TD*%
D12*
%TO.C,C24*%
X14300000Y16675000D03*
X14300000Y15125000D03*
%TD*%
D13*
%TO.C,C37*%
X30300000Y20025000D03*
X30300000Y21575000D03*
%TD*%
D28*
%TO.C,TP3*%
X19399999Y18090000D03*
X19399999Y20010000D03*
D30*
X18584999Y19050000D03*
D29*
X20214999Y19050000D03*
%TD*%
D31*
%TO.C,R5*%
X7081000Y53370000D03*
X7081000Y51720000D03*
%TD*%
D13*
%TO.C,C11*%
X14299998Y8844000D03*
X14299998Y10394000D03*
%TD*%
D35*
%TO.C,U1*%
X24270000Y45179000D03*
D36*
X23835000Y43909000D03*
D35*
X24270000Y42639000D03*
D36*
X23835000Y41369000D03*
X28365000Y41369000D03*
X28365000Y42639000D03*
X28365000Y43909000D03*
X28365000Y45179000D03*
D37*
X26100000Y43274000D03*
D38*
X27170000Y42639000D03*
%TD*%
D17*
%TO.C,C23*%
X15599998Y16180001D03*
X15599998Y15220001D03*
%TD*%
%TO.C,C4*%
X15600000Y25660000D03*
X15600000Y24700000D03*
%TD*%
D27*
%TO.C,C18*%
X23866453Y9254900D03*
X23866453Y10214900D03*
%TD*%
D13*
%TO.C,C45*%
X35148000Y16725000D03*
X35148000Y18275000D03*
%TD*%
D28*
%TO.C,TP2*%
X19399999Y33289995D03*
X19399999Y35209995D03*
D30*
X18584999Y34249995D03*
D29*
X20214999Y34249995D03*
%TD*%
D13*
%TO.C,C19*%
X25242000Y8725000D03*
X25242000Y10275000D03*
%TD*%
D34*
%TO.C,SCRW4*%
X37000000Y62000000D03*
%TD*%
D12*
%TO.C,C38*%
X35100000Y39096000D03*
X35100000Y37546000D03*
%TD*%
%TO.C,C8*%
X25369000Y29317000D03*
X25369000Y27767000D03*
%TD*%
D15*
%TO.C,U5*%
X31495988Y33250005D03*
X32145988Y33250005D03*
X32795988Y33250005D03*
X32795988Y35250005D03*
X32145988Y35250005D03*
X31495988Y35250005D03*
D16*
X32145988Y34250005D03*
%TD*%
D34*
%TO.C,SCRW1*%
X3000000Y3000000D03*
%TD*%
D27*
%TO.C,C10*%
X15599998Y9338999D03*
X15599998Y10298999D03*
%TD*%
D28*
%TO.C,TP4*%
X32100012Y42786993D03*
X32100012Y40866993D03*
D39*
X32915012Y41826993D03*
D40*
X31285012Y41826993D03*
%TD*%
D12*
%TO.C,C52*%
X15600000Y53320000D03*
X15600000Y51770000D03*
%TD*%
D17*
%TO.C,C30*%
X34259000Y34079005D03*
X34259000Y33119005D03*
%TD*%
D13*
%TO.C,C5*%
X25369000Y20020000D03*
X25369000Y21570000D03*
%TD*%
D17*
%TO.C,C44*%
X35980000Y34102000D03*
X35980000Y33142000D03*
%TD*%
D11*
%TO.C,L1*%
X19387500Y24750000D03*
X17812500Y24750000D03*
%TD*%
D34*
%TO.C,SCRW3*%
X37000000Y3000000D03*
%TD*%
D41*
%TO.C,U4*%
X28649989Y23549998D03*
X29149989Y23549998D03*
X29649989Y23549998D03*
X30149989Y23549998D03*
X30649989Y23549998D03*
X31149989Y23549998D03*
X31649989Y23549998D03*
X32149989Y23549998D03*
X32649989Y23549998D03*
X33149989Y23549998D03*
D42*
X33849989Y24249998D03*
X33849989Y24749998D03*
X33849989Y25249998D03*
X33849989Y25749998D03*
X33849989Y26249998D03*
X33849989Y26749998D03*
X33849989Y27249998D03*
X33849989Y27749998D03*
X33849989Y28249998D03*
X33849989Y28749998D03*
D41*
X33149989Y29449998D03*
X32649989Y29449998D03*
X32149989Y29449998D03*
X31649989Y29449998D03*
X31149989Y29449998D03*
X30649989Y29449998D03*
X30149989Y29449998D03*
X29649989Y29449998D03*
X29149989Y29449998D03*
X28649989Y29449998D03*
D42*
X27949989Y28749998D03*
X27949989Y28249998D03*
X27949989Y27749998D03*
X27949989Y27249998D03*
X27949989Y26749998D03*
X27949989Y26249998D03*
X27949989Y25749998D03*
X27949989Y25249998D03*
X27949989Y24749998D03*
X27949989Y24249998D03*
D43*
X30899989Y26499998D03*
%TD*%
D17*
%TO.C,C48*%
X37180000Y34102000D03*
X37180000Y33142000D03*
%TD*%
D13*
%TO.C,C40*%
X23718000Y23322000D03*
X23718000Y24872000D03*
%TD*%
D12*
%TO.C,C51*%
X30300004Y18249995D03*
X30300004Y16699995D03*
%TD*%
D13*
%TO.C,C33*%
X12700004Y11990098D03*
X12700004Y13540098D03*
%TD*%
D27*
%TO.C,C29*%
X32150002Y31095805D03*
X32150002Y32055805D03*
%TD*%
D31*
%TO.C,R6*%
X6954000Y46004000D03*
X6954000Y44354000D03*
%TD*%
D15*
%TO.C,U8*%
X20650001Y55399993D03*
X20000001Y55399993D03*
X19350001Y55399993D03*
X19350001Y53399993D03*
X20000001Y53399993D03*
X20650001Y53399993D03*
D16*
X20000001Y54399993D03*
%TD*%
D33*
%TO.C,R8*%
X10256000Y44354000D03*
X10256000Y46004000D03*
%TD*%
D12*
%TO.C,C17*%
X12700000Y19875003D03*
X12700000Y18325003D03*
%TD*%
D21*
%TO.C,J2*%
X20007501Y58325005D03*
D25*
X18385001Y58322505D03*
D23*
X23038751Y60900005D03*
D22*
X16968751Y60895005D03*
D24*
X21587501Y58325005D03*
%TD*%
D13*
%TO.C,C21*%
X28671000Y20020000D03*
X28671000Y21570000D03*
%TD*%
D14*
%TO.C,R3*%
X35980000Y35112000D03*
X35980000Y36132000D03*
%TD*%
D13*
%TO.C,C41*%
X27020000Y35325000D03*
X27020000Y36875000D03*
%TD*%
D12*
%TO.C,C14*%
X28671000Y33127000D03*
X28671000Y31577000D03*
%TD*%
D11*
%TO.C,L2*%
X32087500Y36900000D03*
X30512500Y36900000D03*
%TD*%
D27*
%TO.C,C22*%
X32097995Y38547000D03*
X32097995Y39507000D03*
%TD*%
D12*
%TO.C,C36*%
X26766000Y13460100D03*
X26766000Y11910100D03*
%TD*%
D44*
%TO.C,U6*%
X10250500Y47912000D03*
X10250500Y48862000D03*
X10250500Y49812000D03*
X7975500Y49812000D03*
X7975500Y47912000D03*
%TD*%
D17*
%TO.C,C26*%
X23866453Y16079998D03*
X23866453Y15119998D03*
%TD*%
D45*
%TO.C,J3*%
X7500000Y39805011D03*
X7500000Y25195011D03*
%TD*%
M02*
