%TF.GenerationSoftware,KiCad,Pcbnew,(6.0.6)*%
%TF.CreationDate,2022-07-08T12:35:32+02:00*%
%TF.ProjectId,XCOMMS_EGSE,58434f4d-4d53-45f4-9547-53452e6b6963,rev?*%
%TF.SameCoordinates,Original*%
%TF.FileFunction,Legend,Top*%
%TF.FilePolarity,Positive*%
%FSLAX46Y46*%
G04 Gerber Fmt 4.6, Leading zero omitted, Abs format (unit mm)*
G04 Created by KiCad (PCBNEW (6.0.6)) date 2022-07-08 12:35:32*
%MOMM*%
%LPD*%
G01*
G04 APERTURE LIST*
%ADD10C,0.100000*%
%ADD11C,0.150000*%
%ADD12C,0.300000*%
%ADD13C,0.400000*%
%ADD14C,0.500000*%
%ADD15C,0.200000*%
%ADD16C,0.254000*%
%ADD17C,0.120000*%
%ADD18C,0.025400*%
G04 APERTURE END LIST*
D10*
D11*
X177002200Y-166007200D02*
X177002200Y-198007200D01*
X285002200Y-198007200D01*
X285002200Y-166007200D01*
X177002200Y-166007200D01*
D10*
D11*
X10000000Y-10000000D02*
X10000000Y-200007200D01*
X287002200Y-200007200D01*
X287002200Y-10000000D01*
X10000000Y-10000000D01*
D10*
D11*
X12000000Y-12000000D02*
X12000000Y-198007200D01*
X285002200Y-198007200D01*
X285002200Y-12000000D01*
X12000000Y-12000000D01*
D10*
D11*
X60000000Y-12000000D02*
X60000000Y-10000000D01*
D10*
D11*
X110000000Y-12000000D02*
X110000000Y-10000000D01*
D10*
D11*
X160000000Y-12000000D02*
X160000000Y-10000000D01*
D10*
D11*
X210000000Y-12000000D02*
X210000000Y-10000000D01*
D10*
D11*
X260000000Y-12000000D02*
X260000000Y-10000000D01*
D10*
D11*
X36065476Y-11588095D02*
X35322619Y-11588095D01*
X35694047Y-11588095D02*
X35694047Y-10288095D01*
X35570238Y-10473809D01*
X35446428Y-10597619D01*
X35322619Y-10659523D01*
D10*
D11*
X85322619Y-10411904D02*
X85384523Y-10350000D01*
X85508333Y-10288095D01*
X85817857Y-10288095D01*
X85941666Y-10350000D01*
X86003571Y-10411904D01*
X86065476Y-10535714D01*
X86065476Y-10659523D01*
X86003571Y-10845238D01*
X85260714Y-11588095D01*
X86065476Y-11588095D01*
D10*
D11*
X135260714Y-10288095D02*
X136065476Y-10288095D01*
X135632142Y-10783333D01*
X135817857Y-10783333D01*
X135941666Y-10845238D01*
X136003571Y-10907142D01*
X136065476Y-11030952D01*
X136065476Y-11340476D01*
X136003571Y-11464285D01*
X135941666Y-11526190D01*
X135817857Y-11588095D01*
X135446428Y-11588095D01*
X135322619Y-11526190D01*
X135260714Y-11464285D01*
D10*
D11*
X185941666Y-10721428D02*
X185941666Y-11588095D01*
X185632142Y-10226190D02*
X185322619Y-11154761D01*
X186127380Y-11154761D01*
D10*
D11*
X236003571Y-10288095D02*
X235384523Y-10288095D01*
X235322619Y-10907142D01*
X235384523Y-10845238D01*
X235508333Y-10783333D01*
X235817857Y-10783333D01*
X235941666Y-10845238D01*
X236003571Y-10907142D01*
X236065476Y-11030952D01*
X236065476Y-11340476D01*
X236003571Y-11464285D01*
X235941666Y-11526190D01*
X235817857Y-11588095D01*
X235508333Y-11588095D01*
X235384523Y-11526190D01*
X235322619Y-11464285D01*
D10*
D11*
X285941666Y-10288095D02*
X285694047Y-10288095D01*
X285570238Y-10350000D01*
X285508333Y-10411904D01*
X285384523Y-10597619D01*
X285322619Y-10845238D01*
X285322619Y-11340476D01*
X285384523Y-11464285D01*
X285446428Y-11526190D01*
X285570238Y-11588095D01*
X285817857Y-11588095D01*
X285941666Y-11526190D01*
X286003571Y-11464285D01*
X286065476Y-11340476D01*
X286065476Y-11030952D01*
X286003571Y-10907142D01*
X285941666Y-10845238D01*
X285817857Y-10783333D01*
X285570238Y-10783333D01*
X285446428Y-10845238D01*
X285384523Y-10907142D01*
X285322619Y-11030952D01*
D10*
D11*
X60000000Y-198007200D02*
X60000000Y-200007200D01*
D10*
D11*
X110000000Y-198007200D02*
X110000000Y-200007200D01*
D10*
D11*
X160000000Y-198007200D02*
X160000000Y-200007200D01*
D10*
D11*
X210000000Y-198007200D02*
X210000000Y-200007200D01*
D10*
D11*
X260000000Y-198007200D02*
X260000000Y-200007200D01*
D10*
D11*
X36065476Y-199595295D02*
X35322619Y-199595295D01*
X35694047Y-199595295D02*
X35694047Y-198295295D01*
X35570238Y-198481009D01*
X35446428Y-198604819D01*
X35322619Y-198666723D01*
D10*
D11*
X85322619Y-198419104D02*
X85384523Y-198357200D01*
X85508333Y-198295295D01*
X85817857Y-198295295D01*
X85941666Y-198357200D01*
X86003571Y-198419104D01*
X86065476Y-198542914D01*
X86065476Y-198666723D01*
X86003571Y-198852438D01*
X85260714Y-199595295D01*
X86065476Y-199595295D01*
D10*
D11*
X135260714Y-198295295D02*
X136065476Y-198295295D01*
X135632142Y-198790533D01*
X135817857Y-198790533D01*
X135941666Y-198852438D01*
X136003571Y-198914342D01*
X136065476Y-199038152D01*
X136065476Y-199347676D01*
X136003571Y-199471485D01*
X135941666Y-199533390D01*
X135817857Y-199595295D01*
X135446428Y-199595295D01*
X135322619Y-199533390D01*
X135260714Y-199471485D01*
D10*
D11*
X185941666Y-198728628D02*
X185941666Y-199595295D01*
X185632142Y-198233390D02*
X185322619Y-199161961D01*
X186127380Y-199161961D01*
D10*
D11*
X236003571Y-198295295D02*
X235384523Y-198295295D01*
X235322619Y-198914342D01*
X235384523Y-198852438D01*
X235508333Y-198790533D01*
X235817857Y-198790533D01*
X235941666Y-198852438D01*
X236003571Y-198914342D01*
X236065476Y-199038152D01*
X236065476Y-199347676D01*
X236003571Y-199471485D01*
X235941666Y-199533390D01*
X235817857Y-199595295D01*
X235508333Y-199595295D01*
X235384523Y-199533390D01*
X235322619Y-199471485D01*
D10*
D11*
X285941666Y-198295295D02*
X285694047Y-198295295D01*
X285570238Y-198357200D01*
X285508333Y-198419104D01*
X285384523Y-198604819D01*
X285322619Y-198852438D01*
X285322619Y-199347676D01*
X285384523Y-199471485D01*
X285446428Y-199533390D01*
X285570238Y-199595295D01*
X285817857Y-199595295D01*
X285941666Y-199533390D01*
X286003571Y-199471485D01*
X286065476Y-199347676D01*
X286065476Y-199038152D01*
X286003571Y-198914342D01*
X285941666Y-198852438D01*
X285817857Y-198790533D01*
X285570238Y-198790533D01*
X285446428Y-198852438D01*
X285384523Y-198914342D01*
X285322619Y-199038152D01*
D10*
D11*
X10000000Y-60000000D02*
X12000000Y-60000000D01*
D10*
D11*
X10000000Y-110000000D02*
X12000000Y-110000000D01*
D10*
D11*
X10000000Y-160000000D02*
X12000000Y-160000000D01*
D10*
D11*
X10690476Y-35216666D02*
X11309523Y-35216666D01*
X10566666Y-35588095D02*
X11000000Y-34288095D01*
X11433333Y-35588095D01*
D10*
D11*
X11092857Y-84907142D02*
X11278571Y-84969047D01*
X11340476Y-85030952D01*
X11402380Y-85154761D01*
X11402380Y-85340476D01*
X11340476Y-85464285D01*
X11278571Y-85526190D01*
X11154761Y-85588095D01*
X10659523Y-85588095D01*
X10659523Y-84288095D01*
X11092857Y-84288095D01*
X11216666Y-84350000D01*
X11278571Y-84411904D01*
X11340476Y-84535714D01*
X11340476Y-84659523D01*
X11278571Y-84783333D01*
X11216666Y-84845238D01*
X11092857Y-84907142D01*
X10659523Y-84907142D01*
D10*
D11*
X11402380Y-135464285D02*
X11340476Y-135526190D01*
X11154761Y-135588095D01*
X11030952Y-135588095D01*
X10845238Y-135526190D01*
X10721428Y-135402380D01*
X10659523Y-135278571D01*
X10597619Y-135030952D01*
X10597619Y-134845238D01*
X10659523Y-134597619D01*
X10721428Y-134473809D01*
X10845238Y-134350000D01*
X11030952Y-134288095D01*
X11154761Y-134288095D01*
X11340476Y-134350000D01*
X11402380Y-134411904D01*
D10*
D11*
X10659523Y-185588095D02*
X10659523Y-184288095D01*
X10969047Y-184288095D01*
X11154761Y-184350000D01*
X11278571Y-184473809D01*
X11340476Y-184597619D01*
X11402380Y-184845238D01*
X11402380Y-185030952D01*
X11340476Y-185278571D01*
X11278571Y-185402380D01*
X11154761Y-185526190D01*
X10969047Y-185588095D01*
X10659523Y-185588095D01*
D10*
D11*
X287002200Y-60000000D02*
X285002200Y-60000000D01*
D10*
D11*
X287002200Y-110000000D02*
X285002200Y-110000000D01*
D10*
D11*
X287002200Y-160000000D02*
X285002200Y-160000000D01*
D10*
D11*
X285692676Y-35216666D02*
X286311723Y-35216666D01*
X285568866Y-35588095D02*
X286002200Y-34288095D01*
X286435533Y-35588095D01*
D10*
D11*
X286095057Y-84907142D02*
X286280771Y-84969047D01*
X286342676Y-85030952D01*
X286404580Y-85154761D01*
X286404580Y-85340476D01*
X286342676Y-85464285D01*
X286280771Y-85526190D01*
X286156961Y-85588095D01*
X285661723Y-85588095D01*
X285661723Y-84288095D01*
X286095057Y-84288095D01*
X286218866Y-84350000D01*
X286280771Y-84411904D01*
X286342676Y-84535714D01*
X286342676Y-84659523D01*
X286280771Y-84783333D01*
X286218866Y-84845238D01*
X286095057Y-84907142D01*
X285661723Y-84907142D01*
D10*
D11*
X286404580Y-135464285D02*
X286342676Y-135526190D01*
X286156961Y-135588095D01*
X286033152Y-135588095D01*
X285847438Y-135526190D01*
X285723628Y-135402380D01*
X285661723Y-135278571D01*
X285599819Y-135030952D01*
X285599819Y-134845238D01*
X285661723Y-134597619D01*
X285723628Y-134473809D01*
X285847438Y-134350000D01*
X286033152Y-134288095D01*
X286156961Y-134288095D01*
X286342676Y-134350000D01*
X286404580Y-134411904D01*
D10*
D11*
X285661723Y-185588095D02*
X285661723Y-184288095D01*
X285971247Y-184288095D01*
X286156961Y-184350000D01*
X286280771Y-184473809D01*
X286342676Y-184597619D01*
X286404580Y-184845238D01*
X286404580Y-185030952D01*
X286342676Y-185278571D01*
X286280771Y-185402380D01*
X286156961Y-185526190D01*
X285971247Y-185588095D01*
X285661723Y-185588095D01*
D10*
D11*
X200434342Y-193785771D02*
X200434342Y-192285771D01*
X200791485Y-192285771D01*
X201005771Y-192357200D01*
X201148628Y-192500057D01*
X201220057Y-192642914D01*
X201291485Y-192928628D01*
X201291485Y-193142914D01*
X201220057Y-193428628D01*
X201148628Y-193571485D01*
X201005771Y-193714342D01*
X200791485Y-193785771D01*
X200434342Y-193785771D01*
X202577200Y-193785771D02*
X202577200Y-193000057D01*
X202505771Y-192857200D01*
X202362914Y-192785771D01*
X202077200Y-192785771D01*
X201934342Y-192857200D01*
X202577200Y-193714342D02*
X202434342Y-193785771D01*
X202077200Y-193785771D01*
X201934342Y-193714342D01*
X201862914Y-193571485D01*
X201862914Y-193428628D01*
X201934342Y-193285771D01*
X202077200Y-193214342D01*
X202434342Y-193214342D01*
X202577200Y-193142914D01*
X203077200Y-192785771D02*
X203648628Y-192785771D01*
X203291485Y-192285771D02*
X203291485Y-193571485D01*
X203362914Y-193714342D01*
X203505771Y-193785771D01*
X203648628Y-193785771D01*
X204720057Y-193714342D02*
X204577200Y-193785771D01*
X204291485Y-193785771D01*
X204148628Y-193714342D01*
X204077200Y-193571485D01*
X204077200Y-193000057D01*
X204148628Y-192857200D01*
X204291485Y-192785771D01*
X204577200Y-192785771D01*
X204720057Y-192857200D01*
X204791485Y-193000057D01*
X204791485Y-193142914D01*
X204077200Y-193285771D01*
X205434342Y-193642914D02*
X205505771Y-193714342D01*
X205434342Y-193785771D01*
X205362914Y-193714342D01*
X205434342Y-193642914D01*
X205434342Y-193785771D01*
X205434342Y-192857200D02*
X205505771Y-192928628D01*
X205434342Y-193000057D01*
X205362914Y-192928628D01*
X205434342Y-192857200D01*
X205434342Y-193000057D01*
D10*
D11*
X177002200Y-194507200D02*
X285002200Y-194507200D01*
D10*
D11*
X178434342Y-196585771D02*
X178434342Y-195085771D01*
X179291485Y-196585771D02*
X178648628Y-195728628D01*
X179291485Y-195085771D02*
X178434342Y-195942914D01*
X179934342Y-196585771D02*
X179934342Y-195585771D01*
X179934342Y-195085771D02*
X179862914Y-195157200D01*
X179934342Y-195228628D01*
X180005771Y-195157200D01*
X179934342Y-195085771D01*
X179934342Y-195228628D01*
X181505771Y-196442914D02*
X181434342Y-196514342D01*
X181220057Y-196585771D01*
X181077200Y-196585771D01*
X180862914Y-196514342D01*
X180720057Y-196371485D01*
X180648628Y-196228628D01*
X180577200Y-195942914D01*
X180577200Y-195728628D01*
X180648628Y-195442914D01*
X180720057Y-195300057D01*
X180862914Y-195157200D01*
X181077200Y-195085771D01*
X181220057Y-195085771D01*
X181434342Y-195157200D01*
X181505771Y-195228628D01*
X182791485Y-196585771D02*
X182791485Y-195800057D01*
X182720057Y-195657200D01*
X182577200Y-195585771D01*
X182291485Y-195585771D01*
X182148628Y-195657200D01*
X182791485Y-196514342D02*
X182648628Y-196585771D01*
X182291485Y-196585771D01*
X182148628Y-196514342D01*
X182077200Y-196371485D01*
X182077200Y-196228628D01*
X182148628Y-196085771D01*
X182291485Y-196014342D01*
X182648628Y-196014342D01*
X182791485Y-195942914D01*
X184148628Y-196585771D02*
X184148628Y-195085771D01*
X184148628Y-196514342D02*
X184005771Y-196585771D01*
X183720057Y-196585771D01*
X183577200Y-196514342D01*
X183505771Y-196442914D01*
X183434342Y-196300057D01*
X183434342Y-195871485D01*
X183505771Y-195728628D01*
X183577200Y-195657200D01*
X183720057Y-195585771D01*
X184005771Y-195585771D01*
X184148628Y-195657200D01*
X186005771Y-195800057D02*
X186505771Y-195800057D01*
X186720057Y-196585771D02*
X186005771Y-196585771D01*
X186005771Y-195085771D01*
X186720057Y-195085771D01*
X187362914Y-196442914D02*
X187434342Y-196514342D01*
X187362914Y-196585771D01*
X187291485Y-196514342D01*
X187362914Y-196442914D01*
X187362914Y-196585771D01*
X188077200Y-196585771D02*
X188077200Y-195085771D01*
X188434342Y-195085771D01*
X188648628Y-195157200D01*
X188791485Y-195300057D01*
X188862914Y-195442914D01*
X188934342Y-195728628D01*
X188934342Y-195942914D01*
X188862914Y-196228628D01*
X188791485Y-196371485D01*
X188648628Y-196514342D01*
X188434342Y-196585771D01*
X188077200Y-196585771D01*
X189577200Y-196442914D02*
X189648628Y-196514342D01*
X189577200Y-196585771D01*
X189505771Y-196514342D01*
X189577200Y-196442914D01*
X189577200Y-196585771D01*
X190220057Y-196157200D02*
X190934342Y-196157200D01*
X190077200Y-196585771D02*
X190577200Y-195085771D01*
X191077200Y-196585771D01*
X191577200Y-196442914D02*
X191648628Y-196514342D01*
X191577200Y-196585771D01*
X191505771Y-196514342D01*
X191577200Y-196442914D01*
X191577200Y-196585771D01*
X194577200Y-196585771D02*
X194577200Y-195085771D01*
X194720057Y-196014342D02*
X195148628Y-196585771D01*
X195148628Y-195585771D02*
X194577200Y-196157200D01*
X195791485Y-196585771D02*
X195791485Y-195585771D01*
X195791485Y-195085771D02*
X195720057Y-195157200D01*
X195791485Y-195228628D01*
X195862914Y-195157200D01*
X195791485Y-195085771D01*
X195791485Y-195228628D01*
X197148628Y-196514342D02*
X197005771Y-196585771D01*
X196720057Y-196585771D01*
X196577200Y-196514342D01*
X196505771Y-196442914D01*
X196434342Y-196300057D01*
X196434342Y-195871485D01*
X196505771Y-195728628D01*
X196577200Y-195657200D01*
X196720057Y-195585771D01*
X197005771Y-195585771D01*
X197148628Y-195657200D01*
X198434342Y-196585771D02*
X198434342Y-195800057D01*
X198362914Y-195657200D01*
X198220057Y-195585771D01*
X197934342Y-195585771D01*
X197791485Y-195657200D01*
X198434342Y-196514342D02*
X198291485Y-196585771D01*
X197934342Y-196585771D01*
X197791485Y-196514342D01*
X197720057Y-196371485D01*
X197720057Y-196228628D01*
X197791485Y-196085771D01*
X197934342Y-196014342D01*
X198291485Y-196014342D01*
X198434342Y-195942914D01*
X199791485Y-196585771D02*
X199791485Y-195085771D01*
X199791485Y-196514342D02*
X199648628Y-196585771D01*
X199362914Y-196585771D01*
X199220057Y-196514342D01*
X199148628Y-196442914D01*
X199077200Y-196300057D01*
X199077200Y-195871485D01*
X199148628Y-195728628D01*
X199220057Y-195657200D01*
X199362914Y-195585771D01*
X199648628Y-195585771D01*
X199791485Y-195657200D01*
X202077200Y-197157200D02*
X202005771Y-197085771D01*
X201862914Y-196871485D01*
X201791485Y-196728628D01*
X201720057Y-196514342D01*
X201648628Y-196157200D01*
X201648628Y-195871485D01*
X201720057Y-195514342D01*
X201791485Y-195300057D01*
X201862914Y-195157200D01*
X202005771Y-194942914D01*
X202077200Y-194871485D01*
X203291485Y-195085771D02*
X203005771Y-195085771D01*
X202862914Y-195157200D01*
X202791485Y-195228628D01*
X202648628Y-195442914D01*
X202577200Y-195728628D01*
X202577200Y-196300057D01*
X202648628Y-196442914D01*
X202720057Y-196514342D01*
X202862914Y-196585771D01*
X203148628Y-196585771D01*
X203291485Y-196514342D01*
X203362914Y-196442914D01*
X203434342Y-196300057D01*
X203434342Y-195942914D01*
X203362914Y-195800057D01*
X203291485Y-195728628D01*
X203148628Y-195657200D01*
X202862914Y-195657200D01*
X202720057Y-195728628D01*
X202648628Y-195800057D01*
X202577200Y-195942914D01*
X204077200Y-196442914D02*
X204148628Y-196514342D01*
X204077200Y-196585771D01*
X204005771Y-196514342D01*
X204077200Y-196442914D01*
X204077200Y-196585771D01*
X205077200Y-195085771D02*
X205220057Y-195085771D01*
X205362914Y-195157200D01*
X205434342Y-195228628D01*
X205505771Y-195371485D01*
X205577200Y-195657200D01*
X205577200Y-196014342D01*
X205505771Y-196300057D01*
X205434342Y-196442914D01*
X205362914Y-196514342D01*
X205220057Y-196585771D01*
X205077200Y-196585771D01*
X204934342Y-196514342D01*
X204862914Y-196442914D01*
X204791485Y-196300057D01*
X204720057Y-196014342D01*
X204720057Y-195657200D01*
X204791485Y-195371485D01*
X204862914Y-195228628D01*
X204934342Y-195157200D01*
X205077200Y-195085771D01*
X206220057Y-196442914D02*
X206291485Y-196514342D01*
X206220057Y-196585771D01*
X206148628Y-196514342D01*
X206220057Y-196442914D01*
X206220057Y-196585771D01*
X207577200Y-195085771D02*
X207291485Y-195085771D01*
X207148628Y-195157200D01*
X207077200Y-195228628D01*
X206934342Y-195442914D01*
X206862914Y-195728628D01*
X206862914Y-196300057D01*
X206934342Y-196442914D01*
X207005771Y-196514342D01*
X207148628Y-196585771D01*
X207434342Y-196585771D01*
X207577200Y-196514342D01*
X207648628Y-196442914D01*
X207720057Y-196300057D01*
X207720057Y-195942914D01*
X207648628Y-195800057D01*
X207577200Y-195728628D01*
X207434342Y-195657200D01*
X207148628Y-195657200D01*
X207005771Y-195728628D01*
X206934342Y-195800057D01*
X206862914Y-195942914D01*
X208220057Y-197157200D02*
X208291485Y-197085771D01*
X208434342Y-196871485D01*
X208505771Y-196728628D01*
X208577200Y-196514342D01*
X208648628Y-196157200D01*
X208648628Y-195871485D01*
X208577200Y-195514342D01*
X208505771Y-195300057D01*
X208434342Y-195157200D01*
X208291485Y-194942914D01*
X208220057Y-194871485D01*
D10*
D11*
X177002200Y-191507200D02*
X285002200Y-191507200D01*
D10*
D12*
X264411485Y-193785771D02*
X263911485Y-193071485D01*
X263554342Y-193785771D02*
X263554342Y-192285771D01*
X264125771Y-192285771D01*
X264268628Y-192357200D01*
X264340057Y-192428628D01*
X264411485Y-192571485D01*
X264411485Y-192785771D01*
X264340057Y-192928628D01*
X264268628Y-193000057D01*
X264125771Y-193071485D01*
X263554342Y-193071485D01*
X265625771Y-193714342D02*
X265482914Y-193785771D01*
X265197200Y-193785771D01*
X265054342Y-193714342D01*
X264982914Y-193571485D01*
X264982914Y-193000057D01*
X265054342Y-192857200D01*
X265197200Y-192785771D01*
X265482914Y-192785771D01*
X265625771Y-192857200D01*
X265697200Y-193000057D01*
X265697200Y-193142914D01*
X264982914Y-193285771D01*
X266197200Y-192785771D02*
X266554342Y-193785771D01*
X266911485Y-192785771D01*
X267482914Y-193642914D02*
X267554342Y-193714342D01*
X267482914Y-193785771D01*
X267411485Y-193714342D01*
X267482914Y-193642914D01*
X267482914Y-193785771D01*
X267482914Y-192857200D02*
X267554342Y-192928628D01*
X267482914Y-193000057D01*
X267411485Y-192928628D01*
X267482914Y-192857200D01*
X267482914Y-193000057D01*
D10*
D11*
X178362914Y-193714342D02*
X178577200Y-193785771D01*
X178934342Y-193785771D01*
X179077200Y-193714342D01*
X179148628Y-193642914D01*
X179220057Y-193500057D01*
X179220057Y-193357200D01*
X179148628Y-193214342D01*
X179077200Y-193142914D01*
X178934342Y-193071485D01*
X178648628Y-193000057D01*
X178505771Y-192928628D01*
X178434342Y-192857200D01*
X178362914Y-192714342D01*
X178362914Y-192571485D01*
X178434342Y-192428628D01*
X178505771Y-192357200D01*
X178648628Y-192285771D01*
X179005771Y-192285771D01*
X179220057Y-192357200D01*
X179862914Y-193785771D02*
X179862914Y-192785771D01*
X179862914Y-192285771D02*
X179791485Y-192357200D01*
X179862914Y-192428628D01*
X179934342Y-192357200D01*
X179862914Y-192285771D01*
X179862914Y-192428628D01*
X180434342Y-192785771D02*
X181220057Y-192785771D01*
X180434342Y-193785771D01*
X181220057Y-193785771D01*
X182362914Y-193714342D02*
X182220057Y-193785771D01*
X181934342Y-193785771D01*
X181791485Y-193714342D01*
X181720057Y-193571485D01*
X181720057Y-193000057D01*
X181791485Y-192857200D01*
X181934342Y-192785771D01*
X182220057Y-192785771D01*
X182362914Y-192857200D01*
X182434342Y-193000057D01*
X182434342Y-193142914D01*
X181720057Y-193285771D01*
X183077200Y-193642914D02*
X183148628Y-193714342D01*
X183077200Y-193785771D01*
X183005771Y-193714342D01*
X183077200Y-193642914D01*
X183077200Y-193785771D01*
X183077200Y-192857200D02*
X183148628Y-192928628D01*
X183077200Y-193000057D01*
X183005771Y-192928628D01*
X183077200Y-192857200D01*
X183077200Y-193000057D01*
X184862914Y-193357200D02*
X185577200Y-193357200D01*
X184720057Y-193785771D02*
X185220057Y-192285771D01*
X185720057Y-193785771D01*
X186862914Y-192785771D02*
X186862914Y-193785771D01*
X186505771Y-192214342D02*
X186148628Y-193285771D01*
X187077200Y-193285771D01*
D10*
D11*
X263434342Y-196585771D02*
X263434342Y-195085771D01*
X264791485Y-196585771D02*
X264791485Y-195085771D01*
X264791485Y-196514342D02*
X264648628Y-196585771D01*
X264362914Y-196585771D01*
X264220057Y-196514342D01*
X264148628Y-196442914D01*
X264077200Y-196300057D01*
X264077200Y-195871485D01*
X264148628Y-195728628D01*
X264220057Y-195657200D01*
X264362914Y-195585771D01*
X264648628Y-195585771D01*
X264791485Y-195657200D01*
X265505771Y-196442914D02*
X265577200Y-196514342D01*
X265505771Y-196585771D01*
X265434342Y-196514342D01*
X265505771Y-196442914D01*
X265505771Y-196585771D01*
X265505771Y-195657200D02*
X265577200Y-195728628D01*
X265505771Y-195800057D01*
X265434342Y-195728628D01*
X265505771Y-195657200D01*
X265505771Y-195800057D01*
X268148628Y-196585771D02*
X267291485Y-196585771D01*
X267720057Y-196585771D02*
X267720057Y-195085771D01*
X267577200Y-195300057D01*
X267434342Y-195442914D01*
X267291485Y-195514342D01*
X269862914Y-195014342D02*
X268577200Y-196942914D01*
X271148628Y-196585771D02*
X270291485Y-196585771D01*
X270720057Y-196585771D02*
X270720057Y-195085771D01*
X270577200Y-195300057D01*
X270434342Y-195442914D01*
X270291485Y-195514342D01*
D10*
D11*
X177002200Y-187507200D02*
X285002200Y-187507200D01*
D10*
D13*
X178714580Y-188211961D02*
X179857438Y-188211961D01*
X179036009Y-190211961D02*
X179286009Y-188211961D01*
X180274104Y-190211961D02*
X180440771Y-188878628D01*
X180524104Y-188211961D02*
X180416961Y-188307200D01*
X180500295Y-188402438D01*
X180607438Y-188307200D01*
X180524104Y-188211961D01*
X180500295Y-188402438D01*
X181107438Y-188878628D02*
X181869342Y-188878628D01*
X181476485Y-188211961D02*
X181262200Y-189926247D01*
X181333628Y-190116723D01*
X181512200Y-190211961D01*
X181702676Y-190211961D01*
X182655057Y-190211961D02*
X182476485Y-190116723D01*
X182405057Y-189926247D01*
X182619342Y-188211961D01*
X184190771Y-190116723D02*
X183988390Y-190211961D01*
X183607438Y-190211961D01*
X183428866Y-190116723D01*
X183357438Y-189926247D01*
X183452676Y-189164342D01*
X183571723Y-188973866D01*
X183774104Y-188878628D01*
X184155057Y-188878628D01*
X184333628Y-188973866D01*
X184405057Y-189164342D01*
X184381247Y-189354819D01*
X183405057Y-189545295D01*
X185155057Y-190021485D02*
X185238390Y-190116723D01*
X185131247Y-190211961D01*
X185047914Y-190116723D01*
X185155057Y-190021485D01*
X185131247Y-190211961D01*
X185286009Y-188973866D02*
X185369342Y-189069104D01*
X185262200Y-189164342D01*
X185178866Y-189069104D01*
X185286009Y-188973866D01*
X185262200Y-189164342D01*
D10*
D11*
X178934342Y-185600057D02*
X178434342Y-185600057D01*
X178434342Y-186385771D02*
X178434342Y-184885771D01*
X179148628Y-184885771D01*
X179720057Y-186385771D02*
X179720057Y-185385771D01*
X179720057Y-184885771D02*
X179648628Y-184957200D01*
X179720057Y-185028628D01*
X179791485Y-184957200D01*
X179720057Y-184885771D01*
X179720057Y-185028628D01*
X180648628Y-186385771D02*
X180505771Y-186314342D01*
X180434342Y-186171485D01*
X180434342Y-184885771D01*
X181791485Y-186314342D02*
X181648628Y-186385771D01*
X181362914Y-186385771D01*
X181220057Y-186314342D01*
X181148628Y-186171485D01*
X181148628Y-185600057D01*
X181220057Y-185457200D01*
X181362914Y-185385771D01*
X181648628Y-185385771D01*
X181791485Y-185457200D01*
X181862914Y-185600057D01*
X181862914Y-185742914D01*
X181148628Y-185885771D01*
X182505771Y-186242914D02*
X182577200Y-186314342D01*
X182505771Y-186385771D01*
X182434342Y-186314342D01*
X182505771Y-186242914D01*
X182505771Y-186385771D01*
X182505771Y-185457200D02*
X182577200Y-185528628D01*
X182505771Y-185600057D01*
X182434342Y-185528628D01*
X182505771Y-185457200D01*
X182505771Y-185600057D01*
X184220057Y-184885771D02*
X185220057Y-186385771D01*
X185220057Y-184885771D02*
X184220057Y-186385771D01*
X186648628Y-186242914D02*
X186577200Y-186314342D01*
X186362914Y-186385771D01*
X186220057Y-186385771D01*
X186005771Y-186314342D01*
X185862914Y-186171485D01*
X185791485Y-186028628D01*
X185720057Y-185742914D01*
X185720057Y-185528628D01*
X185791485Y-185242914D01*
X185862914Y-185100057D01*
X186005771Y-184957200D01*
X186220057Y-184885771D01*
X186362914Y-184885771D01*
X186577200Y-184957200D01*
X186648628Y-185028628D01*
X187577200Y-184885771D02*
X187862914Y-184885771D01*
X188005771Y-184957200D01*
X188148628Y-185100057D01*
X188220057Y-185385771D01*
X188220057Y-185885771D01*
X188148628Y-186171485D01*
X188005771Y-186314342D01*
X187862914Y-186385771D01*
X187577200Y-186385771D01*
X187434342Y-186314342D01*
X187291485Y-186171485D01*
X187220057Y-185885771D01*
X187220057Y-185385771D01*
X187291485Y-185100057D01*
X187434342Y-184957200D01*
X187577200Y-184885771D01*
X188862914Y-186385771D02*
X188862914Y-184885771D01*
X189362914Y-185957200D01*
X189862914Y-184885771D01*
X189862914Y-186385771D01*
X190577200Y-186385771D02*
X190577200Y-184885771D01*
X191077200Y-185957200D01*
X191577200Y-184885771D01*
X191577200Y-186385771D01*
X192220057Y-186314342D02*
X192434342Y-186385771D01*
X192791485Y-186385771D01*
X192934342Y-186314342D01*
X193005771Y-186242914D01*
X193077200Y-186100057D01*
X193077200Y-185957200D01*
X193005771Y-185814342D01*
X192934342Y-185742914D01*
X192791485Y-185671485D01*
X192505771Y-185600057D01*
X192362914Y-185528628D01*
X192291485Y-185457200D01*
X192220057Y-185314342D01*
X192220057Y-185171485D01*
X192291485Y-185028628D01*
X192362914Y-184957200D01*
X192505771Y-184885771D01*
X192862914Y-184885771D01*
X193077200Y-184957200D01*
X193362914Y-186528628D02*
X194505771Y-186528628D01*
X194862914Y-185600057D02*
X195362914Y-185600057D01*
X195577200Y-186385771D02*
X194862914Y-186385771D01*
X194862914Y-184885771D01*
X195577200Y-184885771D01*
X197005771Y-184957200D02*
X196862914Y-184885771D01*
X196648628Y-184885771D01*
X196434342Y-184957200D01*
X196291485Y-185100057D01*
X196220057Y-185242914D01*
X196148628Y-185528628D01*
X196148628Y-185742914D01*
X196220057Y-186028628D01*
X196291485Y-186171485D01*
X196434342Y-186314342D01*
X196648628Y-186385771D01*
X196791485Y-186385771D01*
X197005771Y-186314342D01*
X197077200Y-186242914D01*
X197077200Y-185742914D01*
X196791485Y-185742914D01*
X197648628Y-186314342D02*
X197862914Y-186385771D01*
X198220057Y-186385771D01*
X198362914Y-186314342D01*
X198434342Y-186242914D01*
X198505771Y-186100057D01*
X198505771Y-185957200D01*
X198434342Y-185814342D01*
X198362914Y-185742914D01*
X198220057Y-185671485D01*
X197934342Y-185600057D01*
X197791485Y-185528628D01*
X197720057Y-185457200D01*
X197648628Y-185314342D01*
X197648628Y-185171485D01*
X197720057Y-185028628D01*
X197791485Y-184957200D01*
X197934342Y-184885771D01*
X198291485Y-184885771D01*
X198505771Y-184957200D01*
X199148628Y-185600057D02*
X199648628Y-185600057D01*
X199862914Y-186385771D02*
X199148628Y-186385771D01*
X199148628Y-184885771D01*
X199862914Y-184885771D01*
X200505771Y-186242914D02*
X200577200Y-186314342D01*
X200505771Y-186385771D01*
X200434342Y-186314342D01*
X200505771Y-186242914D01*
X200505771Y-186385771D01*
X201220057Y-186385771D02*
X201220057Y-184885771D01*
X201362914Y-185814342D02*
X201791485Y-186385771D01*
X201791485Y-185385771D02*
X201220057Y-185957200D01*
X202434342Y-186385771D02*
X202434342Y-185385771D01*
X202434342Y-184885771D02*
X202362914Y-184957200D01*
X202434342Y-185028628D01*
X202505771Y-184957200D01*
X202434342Y-184885771D01*
X202434342Y-185028628D01*
X203791485Y-186314342D02*
X203648628Y-186385771D01*
X203362914Y-186385771D01*
X203220057Y-186314342D01*
X203148628Y-186242914D01*
X203077200Y-186100057D01*
X203077200Y-185671485D01*
X203148628Y-185528628D01*
X203220057Y-185457200D01*
X203362914Y-185385771D01*
X203648628Y-185385771D01*
X203791485Y-185457200D01*
X205077200Y-186385771D02*
X205077200Y-185600057D01*
X205005771Y-185457200D01*
X204862914Y-185385771D01*
X204577200Y-185385771D01*
X204434342Y-185457200D01*
X205077200Y-186314342D02*
X204934342Y-186385771D01*
X204577200Y-186385771D01*
X204434342Y-186314342D01*
X204362914Y-186171485D01*
X204362914Y-186028628D01*
X204434342Y-185885771D01*
X204577200Y-185814342D01*
X204934342Y-185814342D01*
X205077200Y-185742914D01*
X206434342Y-186385771D02*
X206434342Y-184885771D01*
X206434342Y-186314342D02*
X206291485Y-186385771D01*
X206005771Y-186385771D01*
X205862914Y-186314342D01*
X205791485Y-186242914D01*
X205720057Y-186100057D01*
X205720057Y-185671485D01*
X205791485Y-185528628D01*
X205862914Y-185457200D01*
X206005771Y-185385771D01*
X206291485Y-185385771D01*
X206434342Y-185457200D01*
X206791485Y-186528628D02*
X207934342Y-186528628D01*
X208291485Y-185385771D02*
X208291485Y-186885771D01*
X208291485Y-185457200D02*
X208434342Y-185385771D01*
X208720057Y-185385771D01*
X208862914Y-185457200D01*
X208934342Y-185528628D01*
X209005771Y-185671485D01*
X209005771Y-186100057D01*
X208934342Y-186242914D01*
X208862914Y-186314342D01*
X208720057Y-186385771D01*
X208434342Y-186385771D01*
X208291485Y-186314342D01*
X210291485Y-186314342D02*
X210148628Y-186385771D01*
X209862914Y-186385771D01*
X209720057Y-186314342D01*
X209648628Y-186242914D01*
X209577200Y-186100057D01*
X209577200Y-185671485D01*
X209648628Y-185528628D01*
X209720057Y-185457200D01*
X209862914Y-185385771D01*
X210148628Y-185385771D01*
X210291485Y-185457200D01*
X210934342Y-186385771D02*
X210934342Y-184885771D01*
X210934342Y-185457200D02*
X211077200Y-185385771D01*
X211362914Y-185385771D01*
X211505771Y-185457200D01*
X211577200Y-185528628D01*
X211648628Y-185671485D01*
X211648628Y-186100057D01*
X211577200Y-186242914D01*
X211505771Y-186314342D01*
X211362914Y-186385771D01*
X211077200Y-186385771D01*
X210934342Y-186314342D01*
D10*
D11*
X177002200Y-181507200D02*
X285002200Y-181507200D01*
D10*
D11*
X178362914Y-183614342D02*
X178577200Y-183685771D01*
X178934342Y-183685771D01*
X179077200Y-183614342D01*
X179148628Y-183542914D01*
X179220057Y-183400057D01*
X179220057Y-183257200D01*
X179148628Y-183114342D01*
X179077200Y-183042914D01*
X178934342Y-182971485D01*
X178648628Y-182900057D01*
X178505771Y-182828628D01*
X178434342Y-182757200D01*
X178362914Y-182614342D01*
X178362914Y-182471485D01*
X178434342Y-182328628D01*
X178505771Y-182257200D01*
X178648628Y-182185771D01*
X179005771Y-182185771D01*
X179220057Y-182257200D01*
X179862914Y-183685771D02*
X179862914Y-182185771D01*
X180505771Y-183685771D02*
X180505771Y-182900057D01*
X180434342Y-182757200D01*
X180291485Y-182685771D01*
X180077200Y-182685771D01*
X179934342Y-182757200D01*
X179862914Y-182828628D01*
X181791485Y-183614342D02*
X181648628Y-183685771D01*
X181362914Y-183685771D01*
X181220057Y-183614342D01*
X181148628Y-183471485D01*
X181148628Y-182900057D01*
X181220057Y-182757200D01*
X181362914Y-182685771D01*
X181648628Y-182685771D01*
X181791485Y-182757200D01*
X181862914Y-182900057D01*
X181862914Y-183042914D01*
X181148628Y-183185771D01*
X183077200Y-183614342D02*
X182934342Y-183685771D01*
X182648628Y-183685771D01*
X182505771Y-183614342D01*
X182434342Y-183471485D01*
X182434342Y-182900057D01*
X182505771Y-182757200D01*
X182648628Y-182685771D01*
X182934342Y-182685771D01*
X183077200Y-182757200D01*
X183148628Y-182900057D01*
X183148628Y-183042914D01*
X182434342Y-183185771D01*
X183577200Y-182685771D02*
X184148628Y-182685771D01*
X183791485Y-182185771D02*
X183791485Y-183471485D01*
X183862914Y-183614342D01*
X184005771Y-183685771D01*
X184148628Y-183685771D01*
X184648628Y-183542914D02*
X184720057Y-183614342D01*
X184648628Y-183685771D01*
X184577200Y-183614342D01*
X184648628Y-183542914D01*
X184648628Y-183685771D01*
X184648628Y-182757200D02*
X184720057Y-182828628D01*
X184648628Y-182900057D01*
X184577200Y-182828628D01*
X184648628Y-182757200D01*
X184648628Y-182900057D01*
D10*
D12*
D10*
D11*
D10*
D11*
D10*
D11*
D10*
D11*
D10*
D11*
X197002200Y-191507200D02*
X197002200Y-194507200D01*
D10*
D11*
X261002200Y-191507200D02*
X261002200Y-198007200D01*
X151513525Y-57611425D02*
X151513525Y-56811425D01*
X150713525Y-56361425D02*
X149913525Y-56811425D01*
X101000000Y-59000000D02*
X141000000Y-59000000D01*
X141000000Y-59000000D02*
X141000000Y-124000000D01*
X141000000Y-124000000D02*
X101000000Y-124000000D01*
X101000000Y-124000000D02*
X101000000Y-59000000D01*
X99000000Y-124000000D02*
X59000000Y-124000000D01*
X59000000Y-124000000D02*
X59000000Y-59000000D01*
X59000000Y-59000000D02*
X99000000Y-59000000D01*
X99000000Y-59000000D02*
X99000000Y-124000000D01*
X149913525Y-57611425D02*
X149913525Y-56811425D01*
X149913525Y-57611425D02*
X150713525Y-58111425D01*
X151513525Y-56811425D02*
X150713525Y-56361425D01*
X150713525Y-58111425D02*
X151513525Y-57611425D01*
D14*
X111000000Y-126857142D02*
X110000000Y-126857142D01*
X110000000Y-127904761D02*
X110000000Y-125904761D01*
X111428571Y-125904761D01*
X112571428Y-127904761D02*
X112571428Y-126571428D01*
X112571428Y-126952380D02*
X112714285Y-126761904D01*
X112857142Y-126666666D01*
X113142857Y-126571428D01*
X113428571Y-126571428D01*
X114857142Y-127904761D02*
X114571428Y-127809523D01*
X114428571Y-127714285D01*
X114285714Y-127523809D01*
X114285714Y-126952380D01*
X114428571Y-126761904D01*
X114571428Y-126666666D01*
X114857142Y-126571428D01*
X115285714Y-126571428D01*
X115571428Y-126666666D01*
X115714285Y-126761904D01*
X115857142Y-126952380D01*
X115857142Y-127523809D01*
X115714285Y-127714285D01*
X115571428Y-127809523D01*
X115285714Y-127904761D01*
X114857142Y-127904761D01*
X117142857Y-126571428D02*
X117142857Y-127904761D01*
X117142857Y-126761904D02*
X117285714Y-126666666D01*
X117571428Y-126571428D01*
X118000000Y-126571428D01*
X118285714Y-126666666D01*
X118428571Y-126857142D01*
X118428571Y-127904761D01*
X119428571Y-126571428D02*
X120571428Y-126571428D01*
X119857142Y-125904761D02*
X119857142Y-127619047D01*
X120000000Y-127809523D01*
X120285714Y-127904761D01*
X120571428Y-127904761D01*
X121571428Y-127142857D02*
X123857142Y-127142857D01*
X125285714Y-126857142D02*
X126285714Y-126857142D01*
X126714285Y-127904761D02*
X125285714Y-127904761D01*
X125285714Y-125904761D01*
X126714285Y-125904761D01*
X128000000Y-126571428D02*
X128000000Y-127904761D01*
X128000000Y-126761904D02*
X128142857Y-126666666D01*
X128428571Y-126571428D01*
X128857142Y-126571428D01*
X129142857Y-126666666D01*
X129285714Y-126857142D01*
X129285714Y-127904761D01*
X132000000Y-127904761D02*
X132000000Y-125904761D01*
X132000000Y-127809523D02*
X131714285Y-127904761D01*
X131142857Y-127904761D01*
X130857142Y-127809523D01*
X130714285Y-127714285D01*
X130571428Y-127523809D01*
X130571428Y-126952380D01*
X130714285Y-126761904D01*
X130857142Y-126666666D01*
X131142857Y-126571428D01*
X131714285Y-126571428D01*
X132000000Y-126666666D01*
D15*
X150438095Y-64846095D02*
X150485714Y-64808000D01*
X150580952Y-64769904D01*
X150819047Y-64769904D01*
X150914285Y-64808000D01*
X150961904Y-64846095D01*
X151009523Y-64922285D01*
X151009523Y-64998476D01*
X150961904Y-65112761D01*
X150390476Y-65569904D01*
X151009523Y-65569904D01*
X151628571Y-64769904D02*
X151723809Y-64769904D01*
X151819047Y-64808000D01*
X151866666Y-64846095D01*
X151914285Y-64922285D01*
X151961904Y-65074666D01*
X151961904Y-65265142D01*
X151914285Y-65417523D01*
X151866666Y-65493714D01*
X151819047Y-65531809D01*
X151723809Y-65569904D01*
X151628571Y-65569904D01*
X151533333Y-65531809D01*
X151485714Y-65493714D01*
X151438095Y-65417523D01*
X151390476Y-65265142D01*
X151390476Y-65074666D01*
X151438095Y-64922285D01*
X151485714Y-64846095D01*
X151533333Y-64808000D01*
X151628571Y-64769904D01*
X151009523Y-68145904D02*
X150438095Y-68145904D01*
X150723809Y-68145904D02*
X150723809Y-67345904D01*
X150628571Y-67460190D01*
X150533333Y-67536380D01*
X150438095Y-67574476D01*
X151580952Y-67688761D02*
X151485714Y-67650666D01*
X151438095Y-67612571D01*
X151390476Y-67536380D01*
X151390476Y-67498285D01*
X151438095Y-67422095D01*
X151485714Y-67384000D01*
X151580952Y-67345904D01*
X151771428Y-67345904D01*
X151866666Y-67384000D01*
X151914285Y-67422095D01*
X151961904Y-67498285D01*
X151961904Y-67536380D01*
X151914285Y-67612571D01*
X151866666Y-67650666D01*
X151771428Y-67688761D01*
X151580952Y-67688761D01*
X151485714Y-67726857D01*
X151438095Y-67764952D01*
X151390476Y-67841142D01*
X151390476Y-67993523D01*
X151438095Y-68069714D01*
X151485714Y-68107809D01*
X151580952Y-68145904D01*
X151771428Y-68145904D01*
X151866666Y-68107809D01*
X151914285Y-68069714D01*
X151961904Y-67993523D01*
X151961904Y-67841142D01*
X151914285Y-67764952D01*
X151866666Y-67726857D01*
X151771428Y-67688761D01*
X151009523Y-70721904D02*
X150438095Y-70721904D01*
X150723809Y-70721904D02*
X150723809Y-69921904D01*
X150628571Y-70036190D01*
X150533333Y-70112380D01*
X150438095Y-70150476D01*
X151866666Y-69921904D02*
X151676190Y-69921904D01*
X151580952Y-69960000D01*
X151533333Y-69998095D01*
X151438095Y-70112380D01*
X151390476Y-70264761D01*
X151390476Y-70569523D01*
X151438095Y-70645714D01*
X151485714Y-70683809D01*
X151580952Y-70721904D01*
X151771428Y-70721904D01*
X151866666Y-70683809D01*
X151914285Y-70645714D01*
X151961904Y-70569523D01*
X151961904Y-70379047D01*
X151914285Y-70302857D01*
X151866666Y-70264761D01*
X151771428Y-70226666D01*
X151580952Y-70226666D01*
X151485714Y-70264761D01*
X151438095Y-70302857D01*
X151390476Y-70379047D01*
X151009523Y-73297904D02*
X150438095Y-73297904D01*
X150723809Y-73297904D02*
X150723809Y-72497904D01*
X150628571Y-72612190D01*
X150533333Y-72688380D01*
X150438095Y-72726476D01*
X151866666Y-72764571D02*
X151866666Y-73297904D01*
X151628571Y-72459809D02*
X151390476Y-73031238D01*
X152009523Y-73031238D01*
X151009523Y-75873904D02*
X150438095Y-75873904D01*
X150723809Y-75873904D02*
X150723809Y-75073904D01*
X150628571Y-75188190D01*
X150533333Y-75264380D01*
X150438095Y-75302476D01*
X151390476Y-75150095D02*
X151438095Y-75112000D01*
X151533333Y-75073904D01*
X151771428Y-75073904D01*
X151866666Y-75112000D01*
X151914285Y-75150095D01*
X151961904Y-75226285D01*
X151961904Y-75302476D01*
X151914285Y-75416761D01*
X151342857Y-75873904D01*
X151961904Y-75873904D01*
X151009523Y-78449904D02*
X150438095Y-78449904D01*
X150723809Y-78449904D02*
X150723809Y-77649904D01*
X150628571Y-77764190D01*
X150533333Y-77840380D01*
X150438095Y-77878476D01*
X151628571Y-77649904D02*
X151723809Y-77649904D01*
X151819047Y-77688000D01*
X151866666Y-77726095D01*
X151914285Y-77802285D01*
X151961904Y-77954666D01*
X151961904Y-78145142D01*
X151914285Y-78297523D01*
X151866666Y-78373714D01*
X151819047Y-78411809D01*
X151723809Y-78449904D01*
X151628571Y-78449904D01*
X151533333Y-78411809D01*
X151485714Y-78373714D01*
X151438095Y-78297523D01*
X151390476Y-78145142D01*
X151390476Y-77954666D01*
X151438095Y-77802285D01*
X151485714Y-77726095D01*
X151533333Y-77688000D01*
X151628571Y-77649904D01*
X151104761Y-80568761D02*
X151009523Y-80530666D01*
X150961904Y-80492571D01*
X150914285Y-80416380D01*
X150914285Y-80378285D01*
X150961904Y-80302095D01*
X151009523Y-80264000D01*
X151104761Y-80225904D01*
X151295238Y-80225904D01*
X151390476Y-80264000D01*
X151438095Y-80302095D01*
X151485714Y-80378285D01*
X151485714Y-80416380D01*
X151438095Y-80492571D01*
X151390476Y-80530666D01*
X151295238Y-80568761D01*
X151104761Y-80568761D01*
X151009523Y-80606857D01*
X150961904Y-80644952D01*
X150914285Y-80721142D01*
X150914285Y-80873523D01*
X150961904Y-80949714D01*
X151009523Y-80987809D01*
X151104761Y-81025904D01*
X151295238Y-81025904D01*
X151390476Y-80987809D01*
X151438095Y-80949714D01*
X151485714Y-80873523D01*
X151485714Y-80721142D01*
X151438095Y-80644952D01*
X151390476Y-80606857D01*
X151295238Y-80568761D01*
X151390476Y-82801904D02*
X151200000Y-82801904D01*
X151104761Y-82840000D01*
X151057142Y-82878095D01*
X150961904Y-82992380D01*
X150914285Y-83144761D01*
X150914285Y-83449523D01*
X150961904Y-83525714D01*
X151009523Y-83563809D01*
X151104761Y-83601904D01*
X151295238Y-83601904D01*
X151390476Y-83563809D01*
X151438095Y-83525714D01*
X151485714Y-83449523D01*
X151485714Y-83259047D01*
X151438095Y-83182857D01*
X151390476Y-83144761D01*
X151295238Y-83106666D01*
X151104761Y-83106666D01*
X151009523Y-83144761D01*
X150961904Y-83182857D01*
X150914285Y-83259047D01*
X151390476Y-85644571D02*
X151390476Y-86177904D01*
X151152380Y-85339809D02*
X150914285Y-85911238D01*
X151533333Y-85911238D01*
X150914285Y-88030095D02*
X150961904Y-87992000D01*
X151057142Y-87953904D01*
X151295238Y-87953904D01*
X151390476Y-87992000D01*
X151438095Y-88030095D01*
X151485714Y-88106285D01*
X151485714Y-88182476D01*
X151438095Y-88296761D01*
X150866666Y-88753904D01*
X151485714Y-88753904D01*
X151009523Y-94369904D02*
X150438095Y-94369904D01*
X150723809Y-94369904D02*
X150723809Y-93569904D01*
X150628571Y-93684190D01*
X150533333Y-93760380D01*
X150438095Y-93798476D01*
X151485714Y-94369904D02*
X151676190Y-94369904D01*
X151771428Y-94331809D01*
X151819047Y-94293714D01*
X151914285Y-94179428D01*
X151961904Y-94027047D01*
X151961904Y-93722285D01*
X151914285Y-93646095D01*
X151866666Y-93608000D01*
X151771428Y-93569904D01*
X151580952Y-93569904D01*
X151485714Y-93608000D01*
X151438095Y-93646095D01*
X151390476Y-93722285D01*
X151390476Y-93912761D01*
X151438095Y-93988952D01*
X151485714Y-94027047D01*
X151580952Y-94065142D01*
X151771428Y-94065142D01*
X151866666Y-94027047D01*
X151914285Y-93988952D01*
X151961904Y-93912761D01*
X151009523Y-96945904D02*
X150438095Y-96945904D01*
X150723809Y-96945904D02*
X150723809Y-96145904D01*
X150628571Y-96260190D01*
X150533333Y-96336380D01*
X150438095Y-96374476D01*
X151342857Y-96145904D02*
X152009523Y-96145904D01*
X151580952Y-96945904D01*
X151009523Y-99521904D02*
X150438095Y-99521904D01*
X150723809Y-99521904D02*
X150723809Y-98721904D01*
X150628571Y-98836190D01*
X150533333Y-98912380D01*
X150438095Y-98950476D01*
X151914285Y-98721904D02*
X151438095Y-98721904D01*
X151390476Y-99102857D01*
X151438095Y-99064761D01*
X151533333Y-99026666D01*
X151771428Y-99026666D01*
X151866666Y-99064761D01*
X151914285Y-99102857D01*
X151961904Y-99179047D01*
X151961904Y-99369523D01*
X151914285Y-99445714D01*
X151866666Y-99483809D01*
X151771428Y-99521904D01*
X151533333Y-99521904D01*
X151438095Y-99483809D01*
X151390476Y-99445714D01*
X151009523Y-102097904D02*
X150438095Y-102097904D01*
X150723809Y-102097904D02*
X150723809Y-101297904D01*
X150628571Y-101412190D01*
X150533333Y-101488380D01*
X150438095Y-101526476D01*
X151342857Y-101297904D02*
X151961904Y-101297904D01*
X151628571Y-101602666D01*
X151771428Y-101602666D01*
X151866666Y-101640761D01*
X151914285Y-101678857D01*
X151961904Y-101755047D01*
X151961904Y-101945523D01*
X151914285Y-102021714D01*
X151866666Y-102059809D01*
X151771428Y-102097904D01*
X151485714Y-102097904D01*
X151390476Y-102059809D01*
X151342857Y-102021714D01*
X151009523Y-104673904D02*
X150438095Y-104673904D01*
X150723809Y-104673904D02*
X150723809Y-103873904D01*
X150628571Y-103988190D01*
X150533333Y-104064380D01*
X150438095Y-104102476D01*
X151961904Y-104673904D02*
X151390476Y-104673904D01*
X151676190Y-104673904D02*
X151676190Y-103873904D01*
X151580952Y-103988190D01*
X151485714Y-104064380D01*
X151390476Y-104102476D01*
X151009523Y-107249904D02*
X151200000Y-107249904D01*
X151295238Y-107211809D01*
X151342857Y-107173714D01*
X151438095Y-107059428D01*
X151485714Y-106907047D01*
X151485714Y-106602285D01*
X151438095Y-106526095D01*
X151390476Y-106488000D01*
X151295238Y-106449904D01*
X151104761Y-106449904D01*
X151009523Y-106488000D01*
X150961904Y-106526095D01*
X150914285Y-106602285D01*
X150914285Y-106792761D01*
X150961904Y-106868952D01*
X151009523Y-106907047D01*
X151104761Y-106945142D01*
X151295238Y-106945142D01*
X151390476Y-106907047D01*
X151438095Y-106868952D01*
X151485714Y-106792761D01*
X150866666Y-109025904D02*
X151533333Y-109025904D01*
X151104761Y-109825904D01*
X151438095Y-111601904D02*
X150961904Y-111601904D01*
X150914285Y-111982857D01*
X150961904Y-111944761D01*
X151057142Y-111906666D01*
X151295238Y-111906666D01*
X151390476Y-111944761D01*
X151438095Y-111982857D01*
X151485714Y-112059047D01*
X151485714Y-112249523D01*
X151438095Y-112325714D01*
X151390476Y-112363809D01*
X151295238Y-112401904D01*
X151057142Y-112401904D01*
X150961904Y-112363809D01*
X150914285Y-112325714D01*
X150866666Y-114177904D02*
X151485714Y-114177904D01*
X151152380Y-114482666D01*
X151295238Y-114482666D01*
X151390476Y-114520761D01*
X151438095Y-114558857D01*
X151485714Y-114635047D01*
X151485714Y-114825523D01*
X151438095Y-114901714D01*
X151390476Y-114939809D01*
X151295238Y-114977904D01*
X151009523Y-114977904D01*
X150914285Y-114939809D01*
X150866666Y-114901714D01*
X151485714Y-117553904D02*
X150914285Y-117553904D01*
X151200000Y-117553904D02*
X151200000Y-116753904D01*
X151104761Y-116868190D01*
X151009523Y-116944380D01*
X150914285Y-116982476D01*
D14*
X69785714Y-127904761D02*
X69785714Y-125904761D01*
X71214285Y-126571428D02*
X71214285Y-127904761D01*
X71214285Y-126761904D02*
X71357142Y-126666666D01*
X71642857Y-126571428D01*
X72071428Y-126571428D01*
X72357142Y-126666666D01*
X72500000Y-126857142D01*
X72500000Y-127904761D01*
X73500000Y-126571428D02*
X74642857Y-126571428D01*
X73928571Y-125904761D02*
X73928571Y-127619047D01*
X74071428Y-127809523D01*
X74357142Y-127904761D01*
X74642857Y-127904761D01*
X76785714Y-127809523D02*
X76500000Y-127904761D01*
X75928571Y-127904761D01*
X75642857Y-127809523D01*
X75500000Y-127619047D01*
X75500000Y-126857142D01*
X75642857Y-126666666D01*
X75928571Y-126571428D01*
X76500000Y-126571428D01*
X76785714Y-126666666D01*
X76928571Y-126857142D01*
X76928571Y-127047619D01*
X75500000Y-127238095D01*
X78214285Y-127904761D02*
X78214285Y-126571428D01*
X78214285Y-126952380D02*
X78357142Y-126761904D01*
X78500000Y-126666666D01*
X78785714Y-126571428D01*
X79071428Y-126571428D01*
X79642857Y-126571428D02*
X80785714Y-126571428D01*
X80071428Y-127904761D02*
X80071428Y-126190476D01*
X80214285Y-126000000D01*
X80500000Y-125904761D01*
X80785714Y-125904761D01*
X83071428Y-127904761D02*
X83071428Y-126857142D01*
X82928571Y-126666666D01*
X82642857Y-126571428D01*
X82071428Y-126571428D01*
X81785714Y-126666666D01*
X83071428Y-127809523D02*
X82785714Y-127904761D01*
X82071428Y-127904761D01*
X81785714Y-127809523D01*
X81642857Y-127619047D01*
X81642857Y-127428571D01*
X81785714Y-127238095D01*
X82071428Y-127142857D01*
X82785714Y-127142857D01*
X83071428Y-127047619D01*
X85785714Y-127809523D02*
X85500000Y-127904761D01*
X84928571Y-127904761D01*
X84642857Y-127809523D01*
X84500000Y-127714285D01*
X84357142Y-127523809D01*
X84357142Y-126952380D01*
X84500000Y-126761904D01*
X84642857Y-126666666D01*
X84928571Y-126571428D01*
X85500000Y-126571428D01*
X85785714Y-126666666D01*
X88214285Y-127809523D02*
X87928571Y-127904761D01*
X87357142Y-127904761D01*
X87071428Y-127809523D01*
X86928571Y-127619047D01*
X86928571Y-126857142D01*
X87071428Y-126666666D01*
X87357142Y-126571428D01*
X87928571Y-126571428D01*
X88214285Y-126666666D01*
X88357142Y-126857142D01*
X88357142Y-127047619D01*
X86928571Y-127238095D01*
D11*
X150637334Y-57116186D02*
X150561144Y-57078091D01*
X150523048Y-57039996D01*
X150484953Y-56963805D01*
X150484953Y-56925710D01*
X150523048Y-56849520D01*
X150561144Y-56811425D01*
X150637334Y-56773329D01*
X150789715Y-56773329D01*
X150865905Y-56811425D01*
X150904001Y-56849520D01*
X150942096Y-56925710D01*
X150942096Y-56963805D01*
X150904001Y-57039996D01*
X150865905Y-57078091D01*
X150789715Y-57116186D01*
X150637334Y-57116186D01*
X150561144Y-57154282D01*
X150523048Y-57192377D01*
X150484953Y-57268567D01*
X150484953Y-57420948D01*
X150523048Y-57497139D01*
X150561144Y-57535234D01*
X150637334Y-57573329D01*
X150789715Y-57573329D01*
X150865905Y-57535234D01*
X150904001Y-57497139D01*
X150942096Y-57420948D01*
X150942096Y-57268567D01*
X150904001Y-57192377D01*
X150865905Y-57154282D01*
X150789715Y-57116186D01*
D16*
%TO.C,REF\u002A\u002A*%
X60522242Y-54928571D02*
X60522242Y-53428571D01*
X61093671Y-53428571D01*
X61236528Y-53500000D01*
X61307957Y-53571428D01*
X61379385Y-53714285D01*
X61379385Y-53928571D01*
X61307957Y-54071428D01*
X61236528Y-54142857D01*
X61093671Y-54214285D01*
X60522242Y-54214285D01*
X62022242Y-54928571D02*
X62022242Y-53928571D01*
X62022242Y-54214285D02*
X62093671Y-54071428D01*
X62165100Y-54000000D01*
X62307957Y-53928571D01*
X62450814Y-53928571D01*
X62950814Y-53928571D02*
X62950814Y-55214285D01*
X62879385Y-55357142D01*
X62736528Y-55428571D01*
X62665100Y-55428571D01*
X62950814Y-53428571D02*
X62879385Y-53500000D01*
X62950814Y-53571428D01*
X63022242Y-53500000D01*
X62950814Y-53428571D01*
X62950814Y-53571428D01*
X63665100Y-54785714D02*
X63736528Y-54857142D01*
X63665100Y-54928571D01*
X63593671Y-54857142D01*
X63665100Y-54785714D01*
X63665100Y-54928571D01*
X63665100Y-54000000D02*
X63736528Y-54071428D01*
X63665100Y-54142857D01*
X63593671Y-54071428D01*
X63665100Y-54000000D01*
X63665100Y-54142857D01*
X65379385Y-53428571D02*
X66307957Y-53428571D01*
X65807957Y-54000000D01*
X66022242Y-54000000D01*
X66165100Y-54071428D01*
X66236528Y-54142857D01*
X66307957Y-54285714D01*
X66307957Y-54642857D01*
X66236528Y-54785714D01*
X66165100Y-54857142D01*
X66022242Y-54928571D01*
X65593671Y-54928571D01*
X65450814Y-54857142D01*
X65379385Y-54785714D01*
X67807957Y-54785714D02*
X67736528Y-54857142D01*
X67522242Y-54928571D01*
X67379385Y-54928571D01*
X67165100Y-54857142D01*
X67022242Y-54714285D01*
X66950814Y-54571428D01*
X66879385Y-54285714D01*
X66879385Y-54071428D01*
X66950814Y-53785714D01*
X67022242Y-53642857D01*
X67165100Y-53500000D01*
X67379385Y-53428571D01*
X67522242Y-53428571D01*
X67736528Y-53500000D01*
X67807957Y-53571428D01*
X69093671Y-54928571D02*
X69093671Y-54142857D01*
X69022242Y-54000000D01*
X68879385Y-53928571D01*
X68593671Y-53928571D01*
X68450814Y-54000000D01*
X69093671Y-54857142D02*
X68950814Y-54928571D01*
X68593671Y-54928571D01*
X68450814Y-54857142D01*
X68379385Y-54714285D01*
X68379385Y-54571428D01*
X68450814Y-54428571D01*
X68593671Y-54357142D01*
X68950814Y-54357142D01*
X69093671Y-54285714D01*
X69593671Y-53928571D02*
X70165100Y-53928571D01*
X69807957Y-53428571D02*
X69807957Y-54714285D01*
X69879385Y-54857142D01*
X70022242Y-54928571D01*
X70165100Y-54928571D01*
X70879385Y-54071428D02*
X70736528Y-54000000D01*
X70665100Y-53928571D01*
X70593671Y-53785714D01*
X70593671Y-53714285D01*
X70665100Y-53571428D01*
X70736528Y-53500000D01*
X70879385Y-53428571D01*
X71165100Y-53428571D01*
X71307957Y-53500000D01*
X71379385Y-53571428D01*
X71450814Y-53714285D01*
X71450814Y-53785714D01*
X71379385Y-53928571D01*
X71307957Y-54000000D01*
X71165100Y-54071428D01*
X70879385Y-54071428D01*
X70736528Y-54142857D01*
X70665100Y-54214285D01*
X70593671Y-54357142D01*
X70593671Y-54642857D01*
X70665100Y-54785714D01*
X70736528Y-54857142D01*
X70879385Y-54928571D01*
X71165100Y-54928571D01*
X71307957Y-54857142D01*
X71379385Y-54785714D01*
X71450814Y-54642857D01*
X71450814Y-54357142D01*
X71379385Y-54214285D01*
X71307957Y-54142857D01*
X71165100Y-54071428D01*
X71736528Y-55071428D02*
X72879385Y-55071428D01*
X73093671Y-53428571D02*
X74093671Y-54928571D01*
X74093671Y-53428571D02*
X73093671Y-54928571D01*
X75522242Y-54785714D02*
X75450814Y-54857142D01*
X75236528Y-54928571D01*
X75093671Y-54928571D01*
X74879385Y-54857142D01*
X74736528Y-54714285D01*
X74665100Y-54571428D01*
X74593671Y-54285714D01*
X74593671Y-54071428D01*
X74665100Y-53785714D01*
X74736528Y-53642857D01*
X74879385Y-53500000D01*
X75093671Y-53428571D01*
X75236528Y-53428571D01*
X75450814Y-53500000D01*
X75522242Y-53571428D01*
X76450814Y-53428571D02*
X76736528Y-53428571D01*
X76879385Y-53500000D01*
X77022242Y-53642857D01*
X77093671Y-53928571D01*
X77093671Y-54428571D01*
X77022242Y-54714285D01*
X76879385Y-54857142D01*
X76736528Y-54928571D01*
X76450814Y-54928571D01*
X76307957Y-54857142D01*
X76165100Y-54714285D01*
X76093671Y-54428571D01*
X76093671Y-53928571D01*
X76165100Y-53642857D01*
X76307957Y-53500000D01*
X76450814Y-53428571D01*
X77736528Y-54928571D02*
X77736528Y-53428571D01*
X78236528Y-54500000D01*
X78736528Y-53428571D01*
X78736528Y-54928571D01*
X79450814Y-54928571D02*
X79450814Y-53428571D01*
X79950814Y-54500000D01*
X80450814Y-53428571D01*
X80450814Y-54928571D01*
X81093671Y-54857142D02*
X81307957Y-54928571D01*
X81665100Y-54928571D01*
X81807957Y-54857142D01*
X81879385Y-54785714D01*
X81950814Y-54642857D01*
X81950814Y-54500000D01*
X81879385Y-54357142D01*
X81807957Y-54285714D01*
X81665100Y-54214285D01*
X81379385Y-54142857D01*
X81236528Y-54071428D01*
X81165100Y-54000000D01*
X81093671Y-53857142D01*
X81093671Y-53714285D01*
X81165100Y-53571428D01*
X81236528Y-53500000D01*
X81379385Y-53428571D01*
X81736528Y-53428571D01*
X81950814Y-53500000D01*
X86307957Y-53500000D02*
X86165100Y-53428571D01*
X85950814Y-53428571D01*
X85736528Y-53500000D01*
X85593671Y-53642857D01*
X85522242Y-53785714D01*
X85450814Y-54071428D01*
X85450814Y-54285714D01*
X85522242Y-54571428D01*
X85593671Y-54714285D01*
X85736528Y-54857142D01*
X85950814Y-54928571D01*
X86093671Y-54928571D01*
X86307957Y-54857142D01*
X86379385Y-54785714D01*
X86379385Y-54285714D01*
X86093671Y-54285714D01*
X87807957Y-53500000D02*
X87665100Y-53428571D01*
X87450814Y-53428571D01*
X87236528Y-53500000D01*
X87093671Y-53642857D01*
X87022242Y-53785714D01*
X86950814Y-54071428D01*
X86950814Y-54285714D01*
X87022242Y-54571428D01*
X87093671Y-54714285D01*
X87236528Y-54857142D01*
X87450814Y-54928571D01*
X87593671Y-54928571D01*
X87807957Y-54857142D01*
X87879385Y-54785714D01*
X87879385Y-54285714D01*
X87593671Y-54285714D01*
X88450814Y-54857142D02*
X88665100Y-54928571D01*
X89022242Y-54928571D01*
X89165100Y-54857142D01*
X89236528Y-54785714D01*
X89307957Y-54642857D01*
X89307957Y-54500000D01*
X89236528Y-54357142D01*
X89165100Y-54285714D01*
X89022242Y-54214285D01*
X88736528Y-54142857D01*
X88593671Y-54071428D01*
X88522242Y-54000000D01*
X88450814Y-53857142D01*
X88450814Y-53714285D01*
X88522242Y-53571428D01*
X88593671Y-53500000D01*
X88736528Y-53428571D01*
X89093671Y-53428571D01*
X89307957Y-53500000D01*
D17*
%TO.C,J3*%
X144670000Y-95410000D02*
X144670000Y-118330000D01*
X146000000Y-92810000D02*
X147330000Y-92810000D01*
X147330000Y-95410000D02*
X147330000Y-118330000D01*
X144670000Y-118330000D02*
X147330000Y-118330000D01*
X144670000Y-95410000D02*
X147330000Y-95410000D01*
X147330000Y-92810000D02*
X147330000Y-94140000D01*
D18*
%TO.C,REF\u002A\u002A*%
X148558575Y-55135950D02*
X149523776Y-55135950D01*
X148685575Y-54932750D02*
X149523776Y-54932750D01*
X147034575Y-57726750D02*
X147288575Y-57726750D01*
X146501176Y-52037150D02*
X146704376Y-52037150D01*
X146323376Y-51910150D02*
X146907575Y-51910150D01*
X148482376Y-53891350D02*
X149142776Y-53891350D01*
X144342176Y-55847150D02*
X144494575Y-55847150D01*
X146755176Y-54297750D02*
X146882176Y-54297750D01*
X147186976Y-57498150D02*
X147694976Y-57498150D01*
X148685575Y-53764350D02*
X149218976Y-53764350D01*
X146526575Y-55034350D02*
X146755176Y-55034350D01*
X146882176Y-56101150D02*
X147847376Y-56101150D01*
X145942376Y-54373950D02*
X146196376Y-54373950D01*
X146120176Y-52697550D02*
X146323376Y-52697550D01*
X146526575Y-54704150D02*
X146882176Y-54704150D01*
X145459776Y-53840550D02*
X145662976Y-53840550D01*
X146983776Y-51884750D02*
X147237776Y-51884750D01*
X146602776Y-54754950D02*
X146882176Y-54754950D01*
X144291376Y-53408750D02*
X144545376Y-53408750D01*
X146882176Y-55389950D02*
X148253776Y-55389950D01*
X148253776Y-52646750D02*
X148482376Y-52646750D01*
X146755176Y-54246950D02*
X146882176Y-54246950D01*
X145459776Y-55643950D02*
X146755176Y-55643950D01*
X144062776Y-55643950D02*
X144189776Y-55643950D01*
X149193575Y-54043750D02*
X149523776Y-54043750D01*
X144900976Y-54856550D02*
X145053376Y-54856550D01*
X146526575Y-52011750D02*
X146704376Y-52011750D01*
X145688376Y-53484950D02*
X145866176Y-53484950D01*
X144900976Y-55974150D02*
X146755176Y-55974150D01*
X148634776Y-55034350D02*
X149523776Y-55034350D01*
X146882176Y-56202750D02*
X147796575Y-56202750D01*
X144062776Y-54450150D02*
X144189776Y-54450150D01*
X146882176Y-57269550D02*
X147161575Y-57269550D01*
X146882176Y-56126550D02*
X147847376Y-56126550D01*
X146882176Y-56380550D02*
X147694976Y-56380550D01*
X145688376Y-55516950D02*
X146755176Y-55516950D01*
X147390176Y-54526350D02*
X148787176Y-54526350D01*
X144062776Y-55364550D02*
X144189776Y-55364550D01*
X146882176Y-55669350D02*
X148101376Y-55669350D01*
X144316776Y-55872550D02*
X144469176Y-55872550D01*
X146780575Y-52722950D02*
X146907575Y-52722950D01*
X144418376Y-56634550D02*
X146755176Y-56634550D01*
X144062776Y-53865950D02*
X144189776Y-53865950D01*
X145027976Y-55897950D02*
X146755176Y-55897950D01*
X148990376Y-54399350D02*
X149523776Y-54399350D01*
X146780575Y-52087950D02*
X146907575Y-52087950D01*
X148406176Y-53942150D02*
X149117376Y-53942150D01*
X147948976Y-54196150D02*
X148964976Y-54196150D01*
X144062776Y-55161350D02*
X144189776Y-55161350D01*
X147593376Y-54424750D02*
X148837976Y-54424750D01*
X146882176Y-54983550D02*
X148507776Y-54983550D01*
X146780575Y-52341950D02*
X146907575Y-52341950D01*
X144367575Y-55770950D02*
X144519976Y-55770950D01*
X144062776Y-55237550D02*
X144189776Y-55237550D01*
X144164376Y-53154750D02*
X144418376Y-53154750D01*
X146882176Y-55999550D02*
X147898176Y-55999550D01*
X146094776Y-52037150D02*
X146348776Y-52037150D01*
X147034575Y-57752150D02*
X147263176Y-57752150D01*
X148533176Y-53865950D02*
X149168176Y-53865950D01*
X146882176Y-57498150D02*
X147034575Y-57498150D01*
X144062776Y-53535750D02*
X144189776Y-53535750D01*
X146145575Y-55237550D02*
X146755176Y-55237550D01*
X145891575Y-55389950D02*
X146755176Y-55389950D01*
X144545376Y-55491550D02*
X144697776Y-55491550D01*
X145586776Y-55567750D02*
X146755176Y-55567750D01*
X144062776Y-54856550D02*
X144189776Y-54856550D01*
X145713776Y-55491550D02*
X146755176Y-55491550D01*
X146882176Y-56964750D02*
X147339376Y-56964750D01*
X145332776Y-54069150D02*
X145688376Y-54069150D01*
X144062776Y-53942150D02*
X144189776Y-53942150D01*
X145739176Y-57396550D02*
X146755176Y-57396550D01*
X146755176Y-54602550D02*
X146882176Y-54602550D01*
X147618776Y-56736150D02*
X148990376Y-56736150D01*
X146882176Y-57523550D02*
X147009176Y-57523550D01*
X144570776Y-53561150D02*
X144824776Y-53561150D01*
X147974376Y-56126550D02*
X149523776Y-56126550D01*
X146678976Y-54932750D02*
X146755176Y-54932750D01*
X144773976Y-53688150D02*
X145027976Y-53688150D01*
X147974376Y-56151950D02*
X149523776Y-56151950D01*
X148126776Y-55872550D02*
X149523776Y-55872550D01*
X146882176Y-55643950D02*
X148126776Y-55643950D01*
X145408976Y-52443550D02*
X145662976Y-52443550D01*
X148355376Y-53967550D02*
X149091976Y-53967550D01*
X146755176Y-54450150D02*
X146882176Y-54450150D01*
X146577376Y-51757750D02*
X147034575Y-51757750D01*
X146882176Y-55567750D02*
X148152176Y-55567750D01*
X147364776Y-57193350D02*
X148228376Y-57193350D01*
X145027976Y-54627950D02*
X145205776Y-54627950D01*
X146882176Y-56685350D02*
X147517176Y-56685350D01*
X144062776Y-55135950D02*
X144189776Y-55135950D01*
X147948976Y-56177350D02*
X149523776Y-56177350D01*
X144062776Y-53561150D02*
X144189776Y-53561150D01*
X145408976Y-57193350D02*
X146755176Y-57193350D01*
X146755176Y-53611950D02*
X146882176Y-53611950D01*
X144062776Y-55313750D02*
X144189776Y-55313750D01*
X148025176Y-56050350D02*
X149523776Y-56050350D01*
X146780575Y-52519750D02*
X146907575Y-52519750D01*
X146399575Y-52189550D02*
X146602776Y-52189550D01*
X146755176Y-53891350D02*
X146882176Y-53891350D01*
X144062776Y-54196150D02*
X144189776Y-54196150D01*
X145434376Y-57218750D02*
X146755176Y-57218750D01*
X144062776Y-53383350D02*
X144189776Y-53383350D01*
X148228376Y-55694750D02*
X149523776Y-55694750D01*
X145993176Y-52926150D02*
X146196376Y-52926150D01*
X145078776Y-57015550D02*
X146755176Y-57015550D01*
X145510575Y-53789750D02*
X145688376Y-53789750D01*
X146882176Y-56228150D02*
X147771176Y-56228150D01*
X145688376Y-54221550D02*
X145942376Y-54221550D01*
X145332776Y-57167950D02*
X146755176Y-57167950D01*
X147542575Y-56888550D02*
X148736376Y-56888550D01*
X145358176Y-54043750D02*
X145637575Y-54043750D01*
X145129575Y-57040950D02*
X146755176Y-57040950D01*
X146729776Y-54831150D02*
X146780575Y-54831150D01*
X145053376Y-52646750D02*
X145307376Y-52646750D01*
X146551976Y-51935550D02*
X146755176Y-51935550D01*
X146882176Y-57548950D02*
X147009176Y-57548950D01*
X148482376Y-55288350D02*
X149523776Y-55288350D01*
X149117376Y-54196150D02*
X149523776Y-54196150D01*
X149371376Y-53764350D02*
X149523776Y-53764350D01*
X148050575Y-56024950D02*
X149523776Y-56024950D01*
X148888776Y-54577150D02*
X149523776Y-54577150D01*
X144748575Y-55110550D02*
X144926376Y-55110550D01*
X148406176Y-52748350D02*
X148660176Y-52748350D01*
X148812575Y-54704150D02*
X149523776Y-54704150D01*
X145637575Y-53561150D02*
X145815376Y-53561150D01*
X144519976Y-53535750D02*
X144773976Y-53535750D01*
X145637575Y-55542350D02*
X146755176Y-55542350D01*
X147161575Y-51986350D02*
X147390176Y-51986350D01*
X146882176Y-56304350D02*
X147720376Y-56304350D01*
X148761776Y-52951550D02*
X148990376Y-52951550D01*
X144240575Y-55999550D02*
X144392976Y-55999550D01*
X148863376Y-54627950D02*
X149523776Y-54627950D01*
X146120176Y-54475550D02*
X146374176Y-54475550D01*
X144748575Y-52824550D02*
X145002575Y-52824550D01*
X145256575Y-53967550D02*
X145586776Y-53967550D01*
X148787176Y-52976950D02*
X149041176Y-52976950D01*
X148888776Y-54602550D02*
X149523776Y-54602550D01*
X147567976Y-56812350D02*
X148863376Y-56812350D01*
X146780575Y-52418150D02*
X146907575Y-52418150D01*
X146882176Y-57244150D02*
X147186976Y-57244150D01*
X146882176Y-55440750D02*
X148228376Y-55440750D01*
X146780575Y-53129350D02*
X146907575Y-53129350D01*
X147898176Y-56278950D02*
X149523776Y-56278950D01*
X149066575Y-54297750D02*
X149523776Y-54297750D01*
X145942376Y-55364550D02*
X146755176Y-55364550D01*
X146729776Y-54907350D02*
X146755176Y-54907350D01*
X145688376Y-57371150D02*
X146755176Y-57371150D01*
X146348776Y-54602550D02*
X146602776Y-54602550D01*
X145662976Y-57345750D02*
X146755176Y-57345750D01*
X144062776Y-55567750D02*
X144189776Y-55567750D01*
X144646976Y-56101150D02*
X146755176Y-56101150D01*
X146780575Y-52367350D02*
X146907575Y-52367350D01*
X144062776Y-53764350D02*
X144189776Y-53764350D01*
X146882176Y-57218750D02*
X147186976Y-57218750D01*
X146628176Y-57904550D02*
X146755176Y-57904550D01*
X144342176Y-53053150D02*
X144596176Y-53053150D01*
X145053376Y-56990150D02*
X146755176Y-56990150D01*
X145891575Y-52164150D02*
X146145575Y-52164150D01*
X145789976Y-52214950D02*
X146043976Y-52214950D01*
X147288575Y-57294950D02*
X148050575Y-57294950D01*
X144265976Y-56329750D02*
X146755176Y-56329750D01*
X149320575Y-53865950D02*
X149523776Y-53865950D01*
X146882176Y-54958150D02*
X148533176Y-54958150D01*
X145104176Y-52621350D02*
X145358176Y-52621350D01*
X144646976Y-55262950D02*
X144824776Y-55262950D01*
X144392976Y-55720150D02*
X144570776Y-55720150D01*
X144062776Y-55339150D02*
X144189776Y-55339150D01*
X144062776Y-53916750D02*
X144189776Y-53916750D01*
X144824776Y-53713550D02*
X145078776Y-53713550D01*
X146780575Y-52926150D02*
X146907575Y-52926150D01*
X144062776Y-56202750D02*
X144291376Y-56202750D01*
X146653575Y-54780350D02*
X146882176Y-54780350D01*
X144900976Y-54831150D02*
X145078776Y-54831150D01*
X144062776Y-53434150D02*
X144189776Y-53434150D01*
X146882176Y-57675950D02*
X146932976Y-57675950D01*
X147059976Y-57701350D02*
X147339376Y-57701350D01*
X144469176Y-55593150D02*
X144621575Y-55593150D01*
X146450376Y-52113350D02*
X146653575Y-52113350D01*
X146780575Y-52214950D02*
X146907575Y-52214950D01*
X145078776Y-53865950D02*
X145332776Y-53865950D01*
X145307376Y-52494350D02*
X145561376Y-52494350D01*
X145459776Y-53865950D02*
X145637575Y-53865950D01*
X146755176Y-54526350D02*
X146882176Y-54526350D01*
X145942376Y-57523550D02*
X146755176Y-57523550D01*
X145967776Y-52976950D02*
X146145575Y-52976950D01*
X147999776Y-56101150D02*
X149523776Y-56101150D01*
X145002575Y-54653350D02*
X145180376Y-54653350D01*
X146551976Y-51960950D02*
X146755176Y-51960950D01*
X148507776Y-55237550D02*
X149523776Y-55237550D01*
X146882176Y-56990150D02*
X147313976Y-56990150D01*
X146780575Y-53002350D02*
X146907575Y-53002350D01*
X146094776Y-52722950D02*
X146297976Y-52722950D01*
X145510575Y-54119950D02*
X145764575Y-54119950D01*
X146043976Y-57574350D02*
X146755176Y-57574350D01*
X145332776Y-54119950D02*
X145485176Y-54119950D01*
X144062776Y-54805750D02*
X144189776Y-54805750D01*
X147466376Y-56990150D02*
X148533176Y-56990150D01*
X144062776Y-53281750D02*
X149498376Y-53281750D01*
X146094776Y-55262950D02*
X146755176Y-55262950D01*
X146297976Y-52367350D02*
X146501176Y-52367350D01*
X145713776Y-52265750D02*
X145967776Y-52265750D01*
X148964976Y-53078550D02*
X149193575Y-53078550D01*
X145256575Y-55770950D02*
X146755176Y-55770950D01*
X146755176Y-54627950D02*
X146882176Y-54627950D01*
X147364776Y-57167950D02*
X148253776Y-57167950D01*
X146882176Y-54856550D02*
X148583976Y-54856550D01*
X145815376Y-57421950D02*
X146755176Y-57421950D01*
X144596176Y-53586550D02*
X144850176Y-53586550D01*
X144697776Y-56786950D02*
X146755176Y-56786950D01*
X144697776Y-53637350D02*
X144951776Y-53637350D01*
X144367575Y-56278950D02*
X146755176Y-56278950D01*
X146882176Y-56761550D02*
X147466376Y-56761550D01*
X146780575Y-52672150D02*
X146907575Y-52672150D01*
X144062776Y-55770950D02*
X144189776Y-55770950D01*
X144291376Y-55897950D02*
X144443776Y-55897950D01*
X148050575Y-55999550D02*
X149523776Y-55999550D01*
X148126776Y-52570550D02*
X148355376Y-52570550D01*
X147440976Y-52164150D02*
X147694976Y-52164150D01*
X148380776Y-52722950D02*
X148609376Y-52722950D01*
X146374176Y-52265750D02*
X146577376Y-52265750D01*
X146882176Y-55135950D02*
X148406176Y-55135950D01*
X146297976Y-54577150D02*
X146551976Y-54577150D01*
X145815376Y-54297750D02*
X146069376Y-54297750D01*
X146221776Y-54526350D02*
X146475776Y-54526350D01*
X146145575Y-52672150D02*
X146323376Y-52672150D01*
X146780575Y-53027750D02*
X146907575Y-53027750D01*
X145993176Y-52951550D02*
X146170976Y-52951550D01*
X145027976Y-54602550D02*
X145205776Y-54602550D01*
X148202976Y-54043750D02*
X149066575Y-54043750D01*
X146018575Y-52875350D02*
X146221776Y-52875350D01*
X146780575Y-52037150D02*
X146907575Y-52037150D01*
X144062776Y-56355150D02*
X144189776Y-56355150D01*
X147288575Y-52062550D02*
X147517176Y-52062550D01*
X149345976Y-53815150D02*
X149523776Y-53815150D01*
X145688376Y-53459550D02*
X145866176Y-53459550D01*
X147669575Y-56659950D02*
X149142776Y-56659950D01*
X146958376Y-51859350D02*
X147186976Y-51859350D01*
X146577376Y-57879150D02*
X146755176Y-57879150D01*
X145205776Y-54297750D02*
X145383575Y-54297750D01*
X144316776Y-56304350D02*
X146755176Y-56304350D01*
X144062776Y-54983550D02*
X144189776Y-54983550D01*
X147136176Y-54678750D02*
X148685575Y-54678750D01*
X144062776Y-54221550D02*
X144189776Y-54221550D01*
X146780575Y-52900750D02*
X146907575Y-52900750D01*
X147491776Y-52189550D02*
X147745776Y-52189550D01*
X144215176Y-56050350D02*
X144367575Y-56050350D01*
X144062776Y-53891350D02*
X144189776Y-53891350D01*
X148482376Y-55262950D02*
X149523776Y-55262950D01*
X147517176Y-56939350D02*
X148660176Y-56939350D01*
X144748575Y-56050350D02*
X146755176Y-56050350D01*
X144799376Y-55034350D02*
X144951776Y-55034350D01*
X145129575Y-53891350D02*
X145383575Y-53891350D01*
X146755176Y-53510350D02*
X146882176Y-53510350D01*
X144900976Y-53764350D02*
X145154976Y-53764350D01*
X144062776Y-54373950D02*
X144189776Y-54373950D01*
X146882176Y-55415350D02*
X148253776Y-55415350D01*
X148279176Y-55618550D02*
X149523776Y-55618550D01*
X149498376Y-53561150D02*
X149523776Y-53561150D01*
X146272575Y-52418150D02*
X146475776Y-52418150D01*
X146882176Y-57294950D02*
X147136176Y-57294950D01*
X147872776Y-56329750D02*
X149523776Y-56329750D01*
X146780575Y-52494350D02*
X146907575Y-52494350D01*
X147821976Y-56380550D02*
X149523776Y-56380550D01*
X149041176Y-54323150D02*
X149523776Y-54323150D01*
X147237776Y-54602550D02*
X148736376Y-54602550D01*
X146882176Y-54881950D02*
X148558575Y-54881950D01*
X146018575Y-52087950D02*
X146272575Y-52087950D01*
X145561376Y-57294950D02*
X146755176Y-57294950D01*
X146704376Y-51681550D02*
X146907575Y-51681550D01*
X146882176Y-54907350D02*
X148558575Y-54907350D01*
X146069376Y-52799150D02*
X146247176Y-52799150D01*
X146247176Y-52468950D02*
X146450376Y-52468950D01*
X144875575Y-52748350D02*
X145129575Y-52748350D01*
X146755176Y-54323150D02*
X146882176Y-54323150D01*
X147644176Y-56685350D02*
X149066575Y-56685350D01*
X144596176Y-55364550D02*
X144773976Y-55364550D01*
X144494575Y-52976950D02*
X144748575Y-52976950D01*
X145281976Y-52519750D02*
X145510575Y-52519750D01*
X148152176Y-55847150D02*
X149523776Y-55847150D01*
X145358176Y-54018350D02*
X145586776Y-54018350D01*
X146755176Y-53535750D02*
X146882176Y-53535750D01*
X146272575Y-52443550D02*
X146475776Y-52443550D01*
X145612176Y-57320350D02*
X146755176Y-57320350D01*
X148279176Y-54018350D02*
X149066575Y-54018350D01*
X146780575Y-51986350D02*
X146907575Y-51986350D01*
X144443776Y-56228150D02*
X146755176Y-56228150D01*
X146780575Y-52646750D02*
X146907575Y-52646750D01*
X144062776Y-53815150D02*
X144189776Y-53815150D01*
X148329976Y-55542350D02*
X149523776Y-55542350D01*
X146196376Y-52595950D02*
X146374176Y-52595950D01*
X146882176Y-56355150D02*
X147694976Y-56355150D01*
X147669575Y-54373950D02*
X148863376Y-54373950D01*
X148787176Y-54754950D02*
X149523776Y-54754950D01*
X148990376Y-53103950D02*
X149244376Y-53103950D01*
X148380776Y-55466150D02*
X149523776Y-55466150D01*
X146323376Y-55135950D02*
X146755176Y-55135950D01*
X146755176Y-54577150D02*
X146882176Y-54577150D01*
X145840776Y-55415350D02*
X146755176Y-55415350D01*
X146882176Y-55110550D02*
X148431575Y-55110550D01*
X144062776Y-55847150D02*
X144189776Y-55847150D01*
X144062776Y-56126550D02*
X144316776Y-56126550D01*
X147110776Y-57599750D02*
X147517176Y-57599750D01*
X148888776Y-53662750D02*
X149269776Y-53662750D01*
X144799376Y-56837750D02*
X146755176Y-56837750D01*
X146399575Y-51859350D02*
X146907575Y-51859350D01*
X146196376Y-51986350D02*
X146450376Y-51986350D01*
X149015776Y-53586550D02*
X149320575Y-53586550D01*
X146882176Y-56558350D02*
X147593376Y-56558350D01*
X145510575Y-53764350D02*
X145688376Y-53764350D01*
X146526575Y-51783150D02*
X147059976Y-51783150D01*
X144875575Y-56888550D02*
X146755176Y-56888550D01*
X144062776Y-54678750D02*
X144189776Y-54678750D01*
X148152176Y-52595950D02*
X148406176Y-52595950D01*
X149091976Y-53535750D02*
X149345976Y-53535750D01*
X144418376Y-55694750D02*
X144570776Y-55694750D01*
X146450376Y-52138750D02*
X146653575Y-52138750D01*
X144926376Y-54805750D02*
X145104176Y-54805750D01*
X145916976Y-53078550D02*
X146094776Y-53078550D01*
X144062776Y-55694750D02*
X144189776Y-55694750D01*
X148456976Y-55313750D02*
X149523776Y-55313750D01*
X147491776Y-54475550D02*
X148787176Y-54475550D01*
X146577376Y-55008950D02*
X146755176Y-55008950D01*
X148914176Y-54551750D02*
X149523776Y-54551750D01*
X148228376Y-55720150D02*
X149523776Y-55720150D01*
X144062776Y-54399350D02*
X144189776Y-54399350D01*
X146856776Y-54831150D02*
X148583976Y-54831150D01*
X144062776Y-54704150D02*
X144189776Y-54704150D01*
X148304575Y-53992950D02*
X149091976Y-53992950D01*
X148202976Y-55745550D02*
X149523776Y-55745550D01*
X145662976Y-52291150D02*
X145916976Y-52291150D01*
X148660176Y-52900750D02*
X148914176Y-52900750D01*
X146755176Y-53967550D02*
X146882176Y-53967550D01*
X145916976Y-54348550D02*
X146170976Y-54348550D01*
X146882176Y-55720150D02*
X148075976Y-55720150D01*
X146628176Y-54958150D02*
X146755176Y-54958150D01*
X148355376Y-55491550D02*
X149523776Y-55491550D01*
X148126776Y-54094550D02*
X149015776Y-54094550D01*
X146780575Y-52875350D02*
X146907575Y-52875350D01*
X146780575Y-52570550D02*
X146907575Y-52570550D01*
X146374176Y-51884750D02*
X146907575Y-51884750D01*
X147313976Y-57269550D02*
X148075976Y-57269550D01*
X147999776Y-56075750D02*
X149523776Y-56075750D01*
X148583976Y-55110550D02*
X149523776Y-55110550D01*
X144062776Y-55897950D02*
X144189776Y-55897950D01*
X146882176Y-56075750D02*
X147872776Y-56075750D01*
X144570776Y-52926150D02*
X144824776Y-52926150D01*
X144697776Y-52849950D02*
X144951776Y-52849950D01*
X146882176Y-55897950D02*
X147974376Y-55897950D01*
X144062776Y-53459550D02*
X144189776Y-53459550D01*
X147212376Y-54627950D02*
X148710976Y-54627950D01*
X145180376Y-55821750D02*
X146755176Y-55821750D01*
X147059976Y-51935550D02*
X147313976Y-51935550D01*
X147720376Y-56583750D02*
X149244376Y-56583750D01*
X144062776Y-54729550D02*
X144189776Y-54729550D01*
X144062776Y-56278950D02*
X144240575Y-56278950D01*
X144062776Y-53332550D02*
X149472976Y-53332550D01*
X144062776Y-54551750D02*
X144189776Y-54551750D01*
X146882176Y-56609150D02*
X147542575Y-56609150D01*
X146678976Y-57929950D02*
X146755176Y-57929950D01*
X145104176Y-54450150D02*
X145307376Y-54450150D01*
X146882176Y-56837750D02*
X147415575Y-56837750D01*
X147009176Y-54754950D02*
X148634776Y-54754950D01*
X145332776Y-54094550D02*
X145739176Y-54094550D01*
X146297976Y-52392750D02*
X146501176Y-52392750D01*
X144723176Y-55161350D02*
X144875575Y-55161350D01*
X148380776Y-55440750D02*
X149523776Y-55440750D01*
X147161575Y-54653350D02*
X148710976Y-54653350D01*
X148202976Y-52621350D02*
X148456976Y-52621350D01*
X147440976Y-57040950D02*
X148456976Y-57040950D01*
X146221776Y-51960950D02*
X146475776Y-51960950D01*
X144062776Y-54881950D02*
X144189776Y-54881950D01*
X145307376Y-53992950D02*
X145561376Y-53992950D01*
X146882176Y-55161350D02*
X148406176Y-55161350D01*
X146755176Y-54551750D02*
X146882176Y-54551750D01*
X146297976Y-55161350D02*
X146755176Y-55161350D01*
X144265976Y-56532950D02*
X146755176Y-56532950D01*
X145408976Y-55669350D02*
X146755176Y-55669350D01*
X144824776Y-55999550D02*
X146755176Y-55999550D01*
X146780575Y-52138750D02*
X146907575Y-52138750D01*
X146882176Y-55313750D02*
X148304575Y-55313750D01*
X148177575Y-55796350D02*
X149523776Y-55796350D01*
X146882176Y-55212150D02*
X148380776Y-55212150D01*
X146882176Y-56913950D02*
X147364776Y-56913950D01*
X146882176Y-57396550D02*
X147085376Y-57396550D01*
X148558575Y-53840550D02*
X149168176Y-53840550D01*
X145840776Y-53205550D02*
X146018575Y-53205550D01*
X148533176Y-55186750D02*
X149523776Y-55186750D01*
X144062776Y-56177350D02*
X144291376Y-56177350D01*
X146882176Y-56177350D02*
X147796575Y-56177350D01*
X144646976Y-55288350D02*
X144799376Y-55288350D01*
X148075976Y-55974150D02*
X149523776Y-55974150D01*
X146882176Y-57650550D02*
X146932976Y-57650550D01*
X148025176Y-54145350D02*
X148990376Y-54145350D01*
X149295176Y-53891350D02*
X149523776Y-53891350D01*
X148736376Y-53738950D02*
X149244376Y-53738950D01*
X144215176Y-53129350D02*
X144469176Y-53129350D01*
X144062776Y-53637350D02*
X144189776Y-53637350D01*
X144062776Y-55669350D02*
X144189776Y-55669350D01*
X144062776Y-53662750D02*
X144189776Y-53662750D01*
X146882176Y-57117150D02*
X147263176Y-57117150D01*
X148456976Y-52773750D02*
X148710976Y-52773750D01*
X145307376Y-54145350D02*
X145485176Y-54145350D01*
X146882176Y-55694750D02*
X148075976Y-55694750D01*
X147542575Y-52214950D02*
X147771176Y-52214950D01*
X149244376Y-53992950D02*
X149523776Y-53992950D01*
X148507776Y-52799150D02*
X148736376Y-52799150D01*
X148710976Y-54907350D02*
X149523776Y-54907350D01*
X148914176Y-53053150D02*
X149168176Y-53053150D01*
X144062776Y-53484950D02*
X144189776Y-53484950D01*
X144062776Y-54272350D02*
X144189776Y-54272350D01*
X147618776Y-56761550D02*
X148939575Y-56761550D01*
X147161575Y-57523550D02*
X147644176Y-57523550D01*
X149345976Y-53789750D02*
X149523776Y-53789750D01*
X144951776Y-54729550D02*
X145129575Y-54729550D01*
X148736376Y-54831150D02*
X149523776Y-54831150D01*
X144062776Y-55720150D02*
X144189776Y-55720150D01*
X146501176Y-51808550D02*
X147110776Y-51808550D01*
X147034575Y-51910150D02*
X147288575Y-51910150D01*
X144621575Y-52900750D02*
X144875575Y-52900750D01*
X148329976Y-52697550D02*
X148583976Y-52697550D01*
X146221776Y-52519750D02*
X146424976Y-52519750D01*
X149396776Y-53713550D02*
X149523776Y-53713550D01*
X146755176Y-51656150D02*
X146856776Y-51656150D01*
X144418376Y-55669350D02*
X144596176Y-55669350D01*
X146882176Y-56050350D02*
X147872776Y-56050350D01*
X146755176Y-54145350D02*
X146882176Y-54145350D01*
X147771176Y-54297750D02*
X148914176Y-54297750D01*
X144545376Y-56710750D02*
X146755176Y-56710750D01*
X148660176Y-54958150D02*
X149523776Y-54958150D01*
X145078776Y-54526350D02*
X145256575Y-54526350D01*
X148939575Y-54500950D02*
X149523776Y-54500950D01*
X144062776Y-55593150D02*
X144189776Y-55593150D01*
X144062776Y-55923350D02*
X144189776Y-55923350D01*
X146780575Y-53078550D02*
X146907575Y-53078550D01*
X149193575Y-53484950D02*
X149396776Y-53484950D01*
X147745776Y-52341950D02*
X147999776Y-52341950D01*
X146221776Y-57675950D02*
X146755176Y-57675950D01*
X146526575Y-51986350D02*
X146729776Y-51986350D01*
X145281976Y-54196150D02*
X145434376Y-54196150D01*
X145662976Y-53510350D02*
X145840776Y-53510350D01*
X147110776Y-57625150D02*
X147466376Y-57625150D01*
X144621575Y-55339150D02*
X144773976Y-55339150D01*
X145485176Y-53815150D02*
X145662976Y-53815150D01*
X146882176Y-57066350D02*
X147288575Y-57066350D01*
X145866176Y-53180150D02*
X146043976Y-53180150D01*
X147288575Y-57320350D02*
X147974376Y-57320350D01*
X145180376Y-54399350D02*
X145332776Y-54399350D01*
X145789976Y-54272350D02*
X146043976Y-54272350D01*
X146755176Y-54399350D02*
X146882176Y-54399350D01*
X146882176Y-56939350D02*
X147364776Y-56939350D01*
X145256575Y-54221550D02*
X145434376Y-54221550D01*
X144062776Y-55872550D02*
X144189776Y-55872550D01*
X147923575Y-56228150D02*
X149523776Y-56228150D01*
X144062776Y-55821750D02*
X144189776Y-55821750D01*
X148583976Y-52849950D02*
X148837976Y-52849950D01*
X146043976Y-52062550D02*
X146297976Y-52062550D01*
X144062776Y-55974150D02*
X144189776Y-55974150D01*
X147923575Y-54221550D02*
X148964976Y-54221550D01*
X146882176Y-57371150D02*
X147110776Y-57371150D01*
X144672376Y-56761550D02*
X146755176Y-56761550D01*
X144469176Y-53510350D02*
X144723176Y-53510350D01*
X144062776Y-54932750D02*
X144189776Y-54932750D01*
X145205776Y-54323150D02*
X145383575Y-54323150D01*
X146424976Y-52164150D02*
X146628176Y-52164150D01*
X144062776Y-56151950D02*
X144316776Y-56151950D01*
X146882176Y-57142550D02*
X147237776Y-57142550D01*
X147390176Y-57117150D02*
X148329976Y-57117150D01*
X144062776Y-55034350D02*
X144189776Y-55034350D01*
X146170976Y-54500950D02*
X146424976Y-54500950D01*
X146882176Y-55466150D02*
X148228376Y-55466150D01*
X144342176Y-53434150D02*
X144596176Y-53434150D01*
X146882176Y-57701350D02*
X146907575Y-57701350D01*
X144951776Y-52697550D02*
X145205776Y-52697550D01*
X144062776Y-55999550D02*
X144189776Y-55999550D01*
X145053376Y-53840550D02*
X145281976Y-53840550D01*
X144443776Y-55643950D02*
X144596176Y-55643950D01*
X144062776Y-54958150D02*
X144189776Y-54958150D01*
X144545376Y-55440750D02*
X144723176Y-55440750D01*
X144062776Y-55415350D02*
X144189776Y-55415350D01*
X144342176Y-56583750D02*
X146755176Y-56583750D01*
X147415575Y-57091750D02*
X148406176Y-57091750D01*
X147517176Y-54450150D02*
X148812575Y-54450150D01*
X146780575Y-52011750D02*
X146907575Y-52011750D01*
X144062776Y-55110550D02*
X144189776Y-55110550D01*
X144342176Y-55821750D02*
X144494575Y-55821750D01*
X144062776Y-53307150D02*
X149498376Y-53307150D01*
X148837976Y-54678750D02*
X149523776Y-54678750D01*
X144062776Y-54246950D02*
X144189776Y-54246950D01*
X145840776Y-57447350D02*
X146755176Y-57447350D01*
X144062776Y-54526350D02*
X144189776Y-54526350D01*
X145129575Y-55847150D02*
X146755176Y-55847150D01*
X148279176Y-52672150D02*
X148533176Y-52672150D01*
X146755176Y-53713550D02*
X146882176Y-53713550D01*
X144062776Y-54602550D02*
X144189776Y-54602550D01*
X145205776Y-53942150D02*
X145586776Y-53942150D01*
X148634776Y-53815150D02*
X149193575Y-53815150D01*
X148253776Y-55643950D02*
X149523776Y-55643950D01*
X145586776Y-53637350D02*
X145764575Y-53637350D01*
X146882176Y-55288350D02*
X148329976Y-55288350D01*
X146247176Y-52494350D02*
X146424976Y-52494350D01*
X144443776Y-53002350D02*
X144697776Y-53002350D01*
X145942376Y-53027750D02*
X146120176Y-53027750D01*
X145713776Y-53383350D02*
X145916976Y-53383350D01*
X149447575Y-53637350D02*
X149523776Y-53637350D01*
X147948976Y-52468950D02*
X148202976Y-52468950D01*
X144824776Y-52773750D02*
X145078776Y-52773750D01*
X144342176Y-55796350D02*
X144519976Y-55796350D01*
X146094776Y-54450150D02*
X146348776Y-54450150D01*
X144062776Y-54754950D02*
X144189776Y-54754950D01*
X144062776Y-56329750D02*
X144215176Y-56329750D01*
X148812575Y-53713550D02*
X149244376Y-53713550D01*
X146348776Y-52291150D02*
X146551976Y-52291150D01*
X146755176Y-54221550D02*
X146882176Y-54221550D01*
X145535976Y-53738950D02*
X145713776Y-53738950D01*
X144265976Y-55974150D02*
X144418376Y-55974150D01*
X144646976Y-56126550D02*
X146755176Y-56126550D01*
X147694976Y-56609150D02*
X149218976Y-56609150D01*
X146882176Y-56736150D02*
X147466376Y-56736150D01*
X149218976Y-54018350D02*
X149523776Y-54018350D01*
X146399575Y-54627950D02*
X146628176Y-54627950D01*
X144799376Y-56024950D02*
X146755176Y-56024950D01*
X144824776Y-55008950D02*
X144977176Y-55008950D01*
X145256575Y-54246950D02*
X145408976Y-54246950D01*
X144062776Y-54424750D02*
X144189776Y-54424750D01*
X144062776Y-53789750D02*
X144189776Y-53789750D01*
X146882176Y-55491550D02*
X148202976Y-55491550D01*
X144215176Y-56075750D02*
X144342176Y-56075750D01*
X145180376Y-53916750D02*
X145612176Y-53916750D01*
X144062776Y-54170750D02*
X144189776Y-54170750D01*
X146755176Y-53586550D02*
X146882176Y-53586550D01*
X146882176Y-57167950D02*
X147212376Y-57167950D01*
X144265976Y-56355150D02*
X146755176Y-56355150D01*
X146780575Y-51960950D02*
X146907575Y-51960950D01*
X146602776Y-54983550D02*
X146755176Y-54983550D01*
X144062776Y-54475550D02*
X144189776Y-54475550D01*
X148710976Y-52926150D02*
X148964976Y-52926150D01*
X146755176Y-54500950D02*
X146882176Y-54500950D01*
X145586776Y-53662750D02*
X145764575Y-53662750D01*
X145891575Y-53129350D02*
X146069376Y-53129350D01*
X148558575Y-55161350D02*
X149523776Y-55161350D01*
X149066575Y-53561150D02*
X149345976Y-53561150D01*
X145180376Y-55796350D02*
X146755176Y-55796350D01*
X148406176Y-55389950D02*
X149523776Y-55389950D01*
X147415575Y-52138750D02*
X147644176Y-52138750D01*
X144062776Y-54348550D02*
X144189776Y-54348550D01*
X146043976Y-55313750D02*
X146755176Y-55313750D01*
X148431575Y-55364550D02*
X149523776Y-55364550D01*
X146755176Y-54348550D02*
X146882176Y-54348550D01*
X147694976Y-54348550D02*
X148888776Y-54348550D01*
X146882176Y-57421950D02*
X147085376Y-57421950D01*
X146297976Y-57726750D02*
X146755176Y-57726750D01*
X147110776Y-51960950D02*
X147364776Y-51960950D01*
X144062776Y-56075750D02*
X144189776Y-56075750D01*
X146882176Y-56786950D02*
X147440976Y-56786950D01*
X149168176Y-53510350D02*
X149371376Y-53510350D01*
X147567976Y-52240350D02*
X147821976Y-52240350D01*
X144062776Y-55085150D02*
X144189776Y-55085150D01*
X145739176Y-54246950D02*
X145993176Y-54246950D01*
X148177575Y-54069150D02*
X149041176Y-54069150D01*
X144062776Y-54119950D02*
X144189776Y-54119950D01*
X144062776Y-56101150D02*
X144342176Y-56101150D01*
X145180376Y-57066350D02*
X146755176Y-57066350D01*
X146780575Y-52799150D02*
X146907575Y-52799150D01*
X145637575Y-53586550D02*
X145789976Y-53586550D01*
X145739176Y-53357950D02*
X145942376Y-53357950D01*
X147186976Y-52011750D02*
X147440976Y-52011750D01*
X146755176Y-54424750D02*
X146882176Y-54424750D01*
X145637575Y-54196150D02*
X145891575Y-54196150D01*
X147186976Y-57472750D02*
X147720376Y-57472750D01*
X146069376Y-55288350D02*
X146755176Y-55288350D01*
X146145575Y-57625150D02*
X146755176Y-57625150D01*
X146882176Y-54932750D02*
X148533176Y-54932750D01*
X149142776Y-54145350D02*
X149523776Y-54145350D01*
X146882176Y-55923350D02*
X147948976Y-55923350D01*
X145358176Y-55694750D02*
X146755176Y-55694750D01*
X146374176Y-55110550D02*
X146755176Y-55110550D01*
X145154976Y-54424750D02*
X145307376Y-54424750D01*
X149091976Y-54246950D02*
X149523776Y-54246950D01*
X149168176Y-54094550D02*
X149523776Y-54094550D01*
X146196376Y-57650550D02*
X146755176Y-57650550D01*
X147313976Y-54577150D02*
X148736376Y-54577150D01*
X144570776Y-55415350D02*
X144748575Y-55415350D01*
X147593376Y-56786950D02*
X148939575Y-56786950D01*
X145078776Y-55872550D02*
X146755176Y-55872550D01*
X144062776Y-54780350D02*
X144189776Y-54780350D01*
X144596176Y-56151950D02*
X146755176Y-56151950D01*
X146780575Y-52468950D02*
X146907575Y-52468950D01*
X146882176Y-55872550D02*
X147974376Y-55872550D01*
X147720376Y-56558350D02*
X149320575Y-56558350D01*
X148939575Y-53637350D02*
X149295176Y-53637350D01*
X146424976Y-55085150D02*
X146755176Y-55085150D01*
X146780575Y-52113350D02*
X146907575Y-52113350D01*
X145434376Y-52418150D02*
X145688376Y-52418150D01*
X148634776Y-55008950D02*
X149523776Y-55008950D01*
X148990376Y-54424750D02*
X149523776Y-54424750D01*
X144062776Y-54018350D02*
X144189776Y-54018350D01*
X148456976Y-55339150D02*
X149523776Y-55339150D01*
X147466376Y-57015550D02*
X148507776Y-57015550D01*
X144062776Y-55491550D02*
X144189776Y-55491550D01*
X147669575Y-52291150D02*
X147898176Y-52291150D01*
X148533176Y-52824550D02*
X148787176Y-52824550D01*
X146958376Y-57853750D02*
X147059976Y-57853750D01*
X145866176Y-53154750D02*
X146043976Y-53154750D01*
X146755176Y-54373950D02*
X146882176Y-54373950D01*
X146958376Y-57879150D02*
X147009176Y-57879150D01*
X147136176Y-57574350D02*
X147542575Y-57574350D01*
X148964976Y-54450150D02*
X149523776Y-54450150D01*
X144062776Y-53840550D02*
X144189776Y-53840550D01*
X144062776Y-55186750D02*
X144189776Y-55186750D01*
X145485176Y-52392750D02*
X145739176Y-52392750D01*
X148075976Y-52545150D02*
X148329976Y-52545150D01*
X149168176Y-53205550D02*
X149422176Y-53205550D01*
X147136176Y-57548950D02*
X147593376Y-57548950D01*
X146882176Y-55770950D02*
X148050575Y-55770950D01*
X144062776Y-55059750D02*
X144189776Y-55059750D01*
X146932976Y-57929950D02*
X146958376Y-57929950D01*
X144240575Y-56024950D02*
X144392976Y-56024950D01*
X147872776Y-56304350D02*
X149523776Y-56304350D01*
X146247176Y-57701350D02*
X146755176Y-57701350D01*
X147212376Y-57421950D02*
X147821976Y-57421950D01*
X146882176Y-57625150D02*
X146958376Y-57625150D01*
X145561376Y-53713550D02*
X145739176Y-53713550D01*
X147567976Y-56837750D02*
X148812575Y-56837750D01*
X144062776Y-54500950D02*
X144189776Y-54500950D01*
X144062776Y-54043750D02*
X144189776Y-54043750D01*
X144062776Y-53256350D02*
X149498376Y-53256350D01*
X144062776Y-53230950D02*
X149447575Y-53230950D01*
X145586776Y-52341950D02*
X145840776Y-52341950D01*
X146882176Y-56583750D02*
X147567976Y-56583750D01*
X148914176Y-54526350D02*
X149523776Y-54526350D01*
X148101376Y-54119950D02*
X149015776Y-54119950D01*
X149498376Y-53535750D02*
X149523776Y-53535750D01*
X145942376Y-57498150D02*
X146755176Y-57498150D01*
X144062776Y-55389950D02*
X144189776Y-55389950D01*
X144062776Y-55745550D02*
X144189776Y-55745550D01*
X147745776Y-56532950D02*
X149320575Y-56532950D01*
X144062776Y-54907350D02*
X144189776Y-54907350D01*
X144062776Y-56253550D02*
X144240575Y-56253550D01*
X146780575Y-52545150D02*
X146907575Y-52545150D01*
X147923575Y-52443550D02*
X148152176Y-52443550D01*
X146780575Y-52748350D02*
X146907575Y-52748350D01*
X144062776Y-56380550D02*
X144164376Y-56380550D01*
X149472976Y-53586550D02*
X149523776Y-53586550D01*
X144062776Y-55262950D02*
X144189776Y-55262950D01*
X145002575Y-54678750D02*
X145154976Y-54678750D01*
X146882176Y-55796350D02*
X148025176Y-55796350D01*
X146882176Y-57193350D02*
X147212376Y-57193350D01*
X146755176Y-54119950D02*
X146882176Y-54119950D01*
X146958376Y-54780350D02*
X148634776Y-54780350D01*
X144850176Y-54907350D02*
X145027976Y-54907350D01*
X144519976Y-56685350D02*
X146755176Y-56685350D01*
X148507776Y-55212150D02*
X149523776Y-55212150D01*
X146780575Y-52976950D02*
X146907575Y-52976950D01*
X146678976Y-51706950D02*
X146932976Y-51706950D01*
X146755176Y-53408750D02*
X146882176Y-53408750D01*
X148736376Y-54856550D02*
X149523776Y-54856550D01*
X146882176Y-56278950D02*
X147745776Y-56278950D01*
X146882176Y-57091750D02*
X147263176Y-57091750D01*
X144088176Y-53180150D02*
X144392976Y-53180150D01*
X146882176Y-56659950D02*
X147517176Y-56659950D01*
X145561376Y-54145350D02*
X145815376Y-54145350D01*
X146729776Y-57955350D02*
X146755176Y-57955350D01*
X148406176Y-55415350D02*
X149523776Y-55415350D01*
X146755176Y-53688150D02*
X146882176Y-53688150D01*
X146882176Y-55339150D02*
X148304575Y-55339150D01*
X146780575Y-52773750D02*
X146907575Y-52773750D01*
X147999776Y-52494350D02*
X148228376Y-52494350D01*
X146882176Y-55186750D02*
X148380776Y-55186750D01*
X144316776Y-53078550D02*
X144570776Y-53078550D01*
X146424976Y-54653350D02*
X146678976Y-54653350D01*
X144392976Y-56609150D02*
X146755176Y-56609150D01*
X144570776Y-55466150D02*
X144697776Y-55466150D01*
X145993176Y-55339150D02*
X146755176Y-55339150D01*
X148101376Y-55923350D02*
X149523776Y-55923350D01*
X149091976Y-54221550D02*
X149523776Y-54221550D01*
X147059976Y-54729550D02*
X148660176Y-54729550D01*
X144519976Y-52951550D02*
X144773976Y-52951550D01*
X146882176Y-56812350D02*
X147440976Y-56812350D01*
X144062776Y-53992950D02*
X144189776Y-53992950D01*
X147618776Y-52265750D02*
X147872776Y-52265750D01*
X148253776Y-55669350D02*
X149523776Y-55669350D01*
X149422176Y-53688150D02*
X149523776Y-53688150D01*
X145078776Y-54551750D02*
X145231176Y-54551750D01*
X146882176Y-57599750D02*
X146958376Y-57599750D01*
X146094776Y-57599750D02*
X146755176Y-57599750D01*
X146323376Y-52316550D02*
X146526575Y-52316550D01*
X144062776Y-53586550D02*
X144189776Y-53586550D01*
X147745776Y-54323150D02*
X148888776Y-54323150D01*
X144062776Y-53688150D02*
X144189776Y-53688150D01*
X146755176Y-53916750D02*
X146882176Y-53916750D01*
X144519976Y-55542350D02*
X144672376Y-55542350D01*
X145789976Y-55440750D02*
X146755176Y-55440750D01*
X145180376Y-54348550D02*
X145358176Y-54348550D01*
X144062776Y-55542350D02*
X144189776Y-55542350D01*
X149269776Y-53916750D02*
X149523776Y-53916750D01*
X145891575Y-53103950D02*
X146069376Y-53103950D01*
X144062776Y-56228150D02*
X144265976Y-56228150D01*
X144773976Y-55085150D02*
X144926376Y-55085150D01*
X146755176Y-53561150D02*
X146882176Y-53561150D01*
X144926376Y-56913950D02*
X146755176Y-56913950D01*
X145739176Y-52240350D02*
X145993176Y-52240350D01*
X147948976Y-56202750D02*
X149523776Y-56202750D01*
X147694976Y-56634550D02*
X149193575Y-56634550D01*
X148761776Y-54805750D02*
X149523776Y-54805750D01*
X147440976Y-54500950D02*
X148787176Y-54500950D01*
X144240575Y-56380550D02*
X146755176Y-56380550D01*
X148812575Y-54729550D02*
X149523776Y-54729550D01*
X147390176Y-57142550D02*
X148304575Y-57142550D01*
X144062776Y-55618550D02*
X144189776Y-55618550D01*
X146780575Y-52265750D02*
X146907575Y-52265750D01*
X146755176Y-53738950D02*
X146882176Y-53738950D01*
X147644176Y-56710750D02*
X149041176Y-56710750D01*
X146069376Y-52773750D02*
X146272575Y-52773750D01*
X145942376Y-53053150D02*
X146120176Y-53053150D01*
X149396776Y-53738950D02*
X149523776Y-53738950D01*
X144062776Y-54323150D02*
X144189776Y-54323150D01*
X148304575Y-55567750D02*
X149523776Y-55567750D01*
X149422176Y-53662750D02*
X149523776Y-53662750D01*
X146755176Y-53942150D02*
X146882176Y-53942150D01*
X146907575Y-54805750D02*
X148609376Y-54805750D01*
X147263176Y-57371150D02*
X147898176Y-57371150D01*
X145637575Y-53535750D02*
X145840776Y-53535750D01*
X146780575Y-52951550D02*
X146907575Y-52951550D01*
X144062776Y-54831150D02*
X144189776Y-54831150D01*
X146145575Y-52011750D02*
X146399575Y-52011750D01*
X146882176Y-56863150D02*
X147390176Y-56863150D01*
X146780575Y-53180150D02*
X146907575Y-53180150D01*
X144062776Y-55466150D02*
X144189776Y-55466150D01*
X146399575Y-52214950D02*
X146602776Y-52214950D01*
X147059976Y-57675950D02*
X147364776Y-57675950D01*
X144062776Y-54145350D02*
X144189776Y-54145350D01*
X146755176Y-54678750D02*
X146882176Y-54678750D01*
X144062776Y-55288350D02*
X144189776Y-55288350D01*
X148634776Y-52875350D02*
X148863376Y-52875350D01*
X145612176Y-54170750D02*
X145866176Y-54170750D01*
X146882176Y-57320350D02*
X147136176Y-57320350D01*
X144062776Y-54577150D02*
X144189776Y-54577150D01*
X146932976Y-57904550D02*
X146983776Y-57904550D01*
X145002575Y-53815150D02*
X145256575Y-53815150D01*
X147847376Y-54272350D02*
X148914176Y-54272350D01*
X146755176Y-53637350D02*
X146882176Y-53637350D01*
X148609376Y-55059750D02*
X149523776Y-55059750D01*
X146780575Y-52062550D02*
X146907575Y-52062550D01*
X145993176Y-54399350D02*
X146247176Y-54399350D01*
X146399575Y-57777550D02*
X146755176Y-57777550D01*
X144062776Y-53408750D02*
X144189776Y-53408750D01*
X145154976Y-54373950D02*
X145332776Y-54373950D01*
X144926376Y-55948750D02*
X146755176Y-55948750D01*
X148964976Y-53611950D02*
X149320575Y-53611950D01*
X144062776Y-54627950D02*
X144189776Y-54627950D01*
X144951776Y-54754950D02*
X145129575Y-54754950D01*
X149091976Y-53154750D02*
X149320575Y-53154750D01*
X146882176Y-55542350D02*
X148177575Y-55542350D01*
X144596176Y-55389950D02*
X144748575Y-55389950D01*
X148329976Y-55516950D02*
X149523776Y-55516950D01*
X145916976Y-52138750D02*
X146170976Y-52138750D01*
X149320575Y-53408750D02*
X149396776Y-53408750D01*
X146882176Y-55034350D02*
X148482376Y-55034350D01*
X144494575Y-56659950D02*
X146755176Y-56659950D01*
X145561376Y-53688150D02*
X145739176Y-53688150D01*
X144773976Y-55059750D02*
X144951776Y-55059750D01*
X148660176Y-53789750D02*
X149218976Y-53789750D01*
X146882176Y-57574350D02*
X146983776Y-57574350D01*
X148964976Y-54475550D02*
X149523776Y-54475550D01*
X146882176Y-55847150D02*
X147999776Y-55847150D01*
X147618776Y-54399350D02*
X148837976Y-54399350D01*
X146755176Y-54170750D02*
X146882176Y-54170750D01*
X144291376Y-56558350D02*
X146755176Y-56558350D01*
X146501176Y-52062550D02*
X146678976Y-52062550D01*
X146882176Y-56151950D02*
X147821976Y-56151950D01*
X145231176Y-52545150D02*
X145485176Y-52545150D01*
X148837976Y-53002350D02*
X149091976Y-53002350D01*
X147237776Y-57396550D02*
X147872776Y-57396550D01*
X149142776Y-54170750D02*
X149523776Y-54170750D01*
X145942376Y-53002350D02*
X146145575Y-53002350D01*
X146780575Y-52291150D02*
X146907575Y-52291150D01*
X146882176Y-56024950D02*
X147898176Y-56024950D01*
X148304575Y-55593150D02*
X149523776Y-55593150D01*
X146780575Y-52849950D02*
X146907575Y-52849950D01*
X144596176Y-56736150D02*
X146755176Y-56736150D01*
X144748575Y-56812350D02*
X146755176Y-56812350D01*
X147694976Y-52316550D02*
X147948976Y-52316550D01*
X146780575Y-53205550D02*
X146907575Y-53205550D01*
X146755176Y-54018350D02*
X146882176Y-54018350D01*
X144392976Y-55745550D02*
X144545376Y-55745550D01*
X146882176Y-56888550D02*
X147390176Y-56888550D01*
X147085376Y-57650550D02*
X147440976Y-57650550D01*
X144850176Y-54932750D02*
X145027976Y-54932750D01*
X144646976Y-52875350D02*
X144900976Y-52875350D01*
X144062776Y-55948750D02*
X144189776Y-55948750D01*
X147263176Y-57345750D02*
X147948976Y-57345750D01*
X148583976Y-55085150D02*
X149523776Y-55085150D01*
X144215176Y-53357950D02*
X144469176Y-53357950D01*
X145459776Y-57244150D02*
X146755176Y-57244150D01*
X146755176Y-54094550D02*
X146882176Y-54094550D01*
X146196376Y-55212150D02*
X146755176Y-55212150D01*
X146780575Y-52443550D02*
X146907575Y-52443550D01*
X146247176Y-54551750D02*
X146501176Y-54551750D01*
X144951776Y-56939350D02*
X146755176Y-56939350D01*
X144951776Y-53789750D02*
X145205776Y-53789750D01*
X144875575Y-53738950D02*
X145129575Y-53738950D01*
X146043976Y-54424750D02*
X146297976Y-54424750D01*
X144723176Y-55135950D02*
X144900976Y-55135950D01*
X145866176Y-54323150D02*
X146120176Y-54323150D01*
X146475776Y-52087950D02*
X146678976Y-52087950D01*
X146475776Y-54678750D02*
X146729776Y-54678750D01*
X145612176Y-52316550D02*
X145866176Y-52316550D01*
X145129575Y-54475550D02*
X145281976Y-54475550D01*
X146475776Y-55059750D02*
X146755176Y-55059750D01*
X144748575Y-53662750D02*
X145002575Y-53662750D01*
X146882176Y-55821750D02*
X148025176Y-55821750D01*
X146755176Y-53992950D02*
X146882176Y-53992950D01*
X144443776Y-53484950D02*
X144697776Y-53484950D01*
X146882176Y-57447350D02*
X147059976Y-57447350D01*
X145358176Y-52468950D02*
X145612176Y-52468950D01*
X147821976Y-52392750D02*
X148075976Y-52392750D01*
X146882176Y-56710750D02*
X147491776Y-56710750D01*
X147872776Y-52418150D02*
X148126776Y-52418150D01*
X149193575Y-54069150D02*
X149523776Y-54069150D01*
X146780575Y-52824550D02*
X146907575Y-52824550D01*
X144392976Y-53027750D02*
X144646976Y-53027750D01*
X146780575Y-52189550D02*
X146907575Y-52189550D01*
X146704376Y-54805750D02*
X146882176Y-54805750D01*
X145612176Y-53611950D02*
X145789976Y-53611950D01*
X147364776Y-52113350D02*
X147618776Y-52113350D01*
X146018575Y-57548950D02*
X146755176Y-57548950D01*
X145434376Y-53891350D02*
X145612176Y-53891350D01*
X148837976Y-53688150D02*
X149269776Y-53688150D01*
X146018575Y-52849950D02*
X146221776Y-52849950D01*
X144850176Y-54958150D02*
X145002575Y-54958150D01*
X146780575Y-52392750D02*
X146907575Y-52392750D01*
X146755176Y-53383350D02*
X146882176Y-53383350D01*
X149168176Y-54119950D02*
X149523776Y-54119950D01*
X146323376Y-52341950D02*
X146526575Y-52341950D01*
X144824776Y-54983550D02*
X144977176Y-54983550D01*
X145866176Y-57472750D02*
X146755176Y-57472750D01*
X144062776Y-55440750D02*
X144189776Y-55440750D01*
X147313976Y-52087950D02*
X147567976Y-52087950D01*
X149041176Y-53129350D02*
X149295176Y-53129350D01*
X144723176Y-56075750D02*
X146755176Y-56075750D01*
X146755176Y-54043750D02*
X146882176Y-54043750D01*
X146551976Y-54729550D02*
X146882176Y-54729550D01*
X144062776Y-53510350D02*
X144189776Y-53510350D01*
X144062776Y-54094550D02*
X144189776Y-54094550D01*
X148202976Y-55770950D02*
X149523776Y-55770950D01*
X147009176Y-57777550D02*
X147212376Y-57777550D01*
X147212376Y-57447350D02*
X147796575Y-57447350D01*
X146755176Y-54653350D02*
X146882176Y-54653350D01*
X146780575Y-52316550D02*
X146907575Y-52316550D01*
X148710976Y-54881950D02*
X149523776Y-54881950D01*
X144494575Y-55567750D02*
X144646976Y-55567750D01*
X144697776Y-55186750D02*
X144875575Y-55186750D01*
X147796575Y-52367350D02*
X148025176Y-52367350D01*
X146882176Y-55618550D02*
X148126776Y-55618550D01*
X144265976Y-53103950D02*
X144519976Y-53103950D01*
X146272575Y-51935550D02*
X146526575Y-51935550D01*
X146882176Y-55085150D02*
X148456976Y-55085150D01*
X144469176Y-55618550D02*
X144621575Y-55618550D01*
X146755176Y-54069150D02*
X146882176Y-54069150D01*
X144062776Y-55008950D02*
X144189776Y-55008950D01*
X145510575Y-57269550D02*
X146755176Y-57269550D01*
X144062776Y-54653350D02*
X144189776Y-54653350D01*
X146145575Y-52646750D02*
X146348776Y-52646750D01*
X145027976Y-56964750D02*
X146755176Y-56964750D01*
X146755176Y-53459550D02*
X146882176Y-53459550D01*
X149117376Y-53180150D02*
X149371376Y-53180150D01*
X146247176Y-55186750D02*
X146755176Y-55186750D01*
X148075976Y-55948750D02*
X149523776Y-55948750D01*
X144062776Y-53738950D02*
X144189776Y-53738950D01*
X146780575Y-52240350D02*
X146907575Y-52240350D01*
X144799376Y-52799150D02*
X145053376Y-52799150D01*
X146450376Y-57802950D02*
X146755176Y-57802950D01*
X149015776Y-54373950D02*
X149523776Y-54373950D01*
X146983776Y-57828350D02*
X147110776Y-57828350D01*
X145231176Y-57091750D02*
X146755176Y-57091750D01*
X144062776Y-55212150D02*
X144189776Y-55212150D01*
X144291376Y-55923350D02*
X144443776Y-55923350D01*
X148025176Y-54170750D02*
X148990376Y-54170750D01*
X146882176Y-55059750D02*
X148456976Y-55059750D01*
X148456976Y-53916750D02*
X149142776Y-53916750D01*
X146755176Y-53840550D02*
X146882176Y-53840550D01*
X146043976Y-52824550D02*
X146247176Y-52824550D01*
X149015776Y-54348550D02*
X149523776Y-54348550D01*
X144697776Y-55212150D02*
X144850176Y-55212150D01*
X147542575Y-56863150D02*
X148787176Y-56863150D01*
X146755176Y-54196150D02*
X146882176Y-54196150D01*
X144062776Y-53713550D02*
X144189776Y-53713550D01*
X146475776Y-57828350D02*
X146755176Y-57828350D01*
X144062776Y-55516950D02*
X144189776Y-55516950D01*
X146755176Y-53484950D02*
X146882176Y-53484950D01*
X144951776Y-54780350D02*
X145104176Y-54780350D01*
X145053376Y-54577150D02*
X145231176Y-54577150D01*
X146882176Y-55262950D02*
X148329976Y-55262950D01*
X145307376Y-55720150D02*
X146755176Y-55720150D01*
X146780575Y-53053150D02*
X146907575Y-53053150D01*
X148025176Y-52519750D02*
X148279176Y-52519750D01*
X144646976Y-55313750D02*
X144799376Y-55313750D01*
X146882176Y-55008950D02*
X148482376Y-55008950D01*
X148863376Y-53027750D02*
X149117376Y-53027750D01*
X146882176Y-57472750D02*
X147034575Y-57472750D01*
X146755176Y-53434150D02*
X146882176Y-53434150D01*
X144062776Y-53205550D02*
X144342176Y-53205550D01*
X145332776Y-57142550D02*
X146755176Y-57142550D01*
X146882176Y-56253550D02*
X147771176Y-56253550D01*
X144977176Y-55923350D02*
X146755176Y-55923350D01*
X144977176Y-54704150D02*
X145154976Y-54704150D01*
X144062776Y-56024950D02*
X144189776Y-56024950D01*
X149447575Y-53611950D02*
X149523776Y-53611950D01*
X146755176Y-53764350D02*
X146882176Y-53764350D01*
X144494575Y-55516950D02*
X144672376Y-55516950D01*
X148761776Y-54780350D02*
X149523776Y-54780350D01*
X144799376Y-56863150D02*
X146755176Y-56863150D01*
X146780575Y-52595950D02*
X146907575Y-52595950D01*
X148660176Y-54983550D02*
X149523776Y-54983550D01*
X146882176Y-57015550D02*
X147313976Y-57015550D01*
X148837976Y-54653350D02*
X149523776Y-54653350D01*
X146755176Y-53662750D02*
X146882176Y-53662750D01*
X146450376Y-51833950D02*
X147161575Y-51833950D01*
X146196376Y-52570550D02*
X146399575Y-52570550D01*
X147313976Y-57244150D02*
X148126776Y-57244150D01*
X146170976Y-52621350D02*
X146374176Y-52621350D01*
X145510575Y-55618550D02*
X146755176Y-55618550D01*
X146374176Y-57752150D02*
X146755176Y-57752150D01*
X145256575Y-55745550D02*
X146755176Y-55745550D01*
X146882176Y-56634550D02*
X147542575Y-56634550D01*
X146780575Y-51935550D02*
X146907575Y-51935550D01*
X145789976Y-55466150D02*
X146755176Y-55466150D01*
X147339376Y-57218750D02*
X148152176Y-57218750D01*
X145967776Y-52113350D02*
X146221776Y-52113350D01*
X146755176Y-54272350D02*
X146882176Y-54272350D01*
X144062776Y-55796350D02*
X144189776Y-55796350D01*
X144062776Y-54297750D02*
X144189776Y-54297750D01*
X145129575Y-52595950D02*
X145383575Y-52595950D01*
X145713776Y-53434150D02*
X145891575Y-53434150D01*
X146780575Y-52697550D02*
X146907575Y-52697550D01*
X144392976Y-56253550D02*
X146755176Y-56253550D01*
X147898176Y-56253550D02*
X149523776Y-56253550D01*
X146780575Y-52621350D02*
X146907575Y-52621350D01*
X146882176Y-55948750D02*
X147948976Y-55948750D01*
X146882176Y-55516950D02*
X148202976Y-55516950D01*
X145993176Y-52900750D02*
X146196376Y-52900750D01*
X145180376Y-52570550D02*
X145434376Y-52570550D01*
X146882176Y-56532950D02*
X147593376Y-56532950D01*
X146882176Y-55745550D02*
X148050575Y-55745550D01*
X149066575Y-54272350D02*
X149523776Y-54272350D01*
X145535976Y-52367350D02*
X145789976Y-52367350D01*
X149320575Y-53840550D02*
X149523776Y-53840550D01*
X147517176Y-56913950D02*
X148685575Y-56913950D01*
X147872776Y-54246950D02*
X148939575Y-54246950D01*
X144062776Y-53357950D02*
X144189776Y-53357950D01*
X146755176Y-53789750D02*
X146882176Y-53789750D01*
X144875575Y-54881950D02*
X145053376Y-54881950D01*
X146094776Y-52748350D02*
X146297976Y-52748350D01*
X146755176Y-53357950D02*
X146882176Y-53357950D01*
X146882176Y-55593150D02*
X148152176Y-55593150D01*
X144494575Y-56202750D02*
X146755176Y-56202750D01*
X147009176Y-57802950D02*
X147161575Y-57802950D01*
X149244376Y-53967550D02*
X149523776Y-53967550D01*
X144062776Y-56050350D02*
X144189776Y-56050350D01*
X145281976Y-54170750D02*
X145459776Y-54170750D01*
X144062776Y-54069150D02*
X144189776Y-54069150D01*
X144265976Y-55948750D02*
X144418376Y-55948750D01*
X147237776Y-52037150D02*
X147491776Y-52037150D01*
X145535976Y-55593150D02*
X146755176Y-55593150D01*
X145104176Y-54500950D02*
X145256575Y-54500950D01*
X145231176Y-54272350D02*
X145408976Y-54272350D01*
X146882176Y-55364550D02*
X148279176Y-55364550D01*
X147085376Y-54704150D02*
X148660176Y-54704150D01*
X147847376Y-56355150D02*
X149523776Y-56355150D01*
X149218976Y-53459550D02*
X149396776Y-53459550D01*
X148152176Y-55821750D02*
X149523776Y-55821750D01*
X144926376Y-52722950D02*
X145180376Y-52722950D01*
X146882176Y-57345750D02*
X147110776Y-57345750D01*
X146882176Y-55974150D02*
X147923575Y-55974150D01*
X146882176Y-56329750D02*
X147720376Y-56329750D01*
X146755176Y-53865950D02*
X146882176Y-53865950D01*
X145739176Y-53408750D02*
X145891575Y-53408750D01*
X147339376Y-54551750D02*
X148761776Y-54551750D01*
X146221776Y-52545150D02*
X146399575Y-52545150D01*
X146780575Y-53103950D02*
X146907575Y-53103950D01*
X147491776Y-56964750D02*
X148609376Y-56964750D01*
X146526575Y-57853750D02*
X146755176Y-57853750D01*
X144672376Y-55237550D02*
X144850176Y-55237550D01*
X146374176Y-52240350D02*
X146577376Y-52240350D01*
X148126776Y-55897950D02*
X149523776Y-55897950D01*
X146628176Y-51732350D02*
X146983776Y-51732350D01*
X144646976Y-53611950D02*
X144900976Y-53611950D01*
X147440976Y-57066350D02*
X148406176Y-57066350D01*
X149269776Y-53434150D02*
X149396776Y-53434150D01*
X146882176Y-55237550D02*
X148355376Y-55237550D01*
X144265976Y-53383350D02*
X144519976Y-53383350D01*
X146780575Y-53154750D02*
X146907575Y-53154750D01*
X146882176Y-57040950D02*
X147288575Y-57040950D01*
X145281976Y-57117150D02*
X146755176Y-57117150D01*
X144062776Y-53611950D02*
X144189776Y-53611950D01*
X144392976Y-53459550D02*
X144646976Y-53459550D01*
X146780575Y-52164150D02*
X146907575Y-52164150D01*
X145002575Y-52672150D02*
X145256575Y-52672150D01*
X146755176Y-54475550D02*
X146882176Y-54475550D01*
X145840776Y-52189550D02*
X146094776Y-52189550D01*
X144545376Y-56177350D02*
X146755176Y-56177350D01*
X144062776Y-53967550D02*
X144189776Y-53967550D01*
X149269776Y-53942150D02*
X149523776Y-53942150D01*
X146755176Y-53815150D02*
X146882176Y-53815150D01*
X144062776Y-56304350D02*
X144215176Y-56304350D01*
D15*
%TO.C,J1*%
X90421000Y-83555000D02*
X88625000Y-83555000D01*
X88625000Y-99435000D02*
X90421000Y-99435000D01*
X88625000Y-99435000D02*
X88625000Y-97930000D01*
X94345000Y-83555000D02*
X92549000Y-83555000D01*
X92549000Y-99435000D02*
X94345000Y-99435000D01*
X94345000Y-85060000D02*
X94345000Y-83555000D01*
X88625000Y-85060000D02*
X88625000Y-83555000D01*
X94345000Y-97930000D02*
X94345000Y-99435000D01*
X87500000Y-97300000D02*
G75*
G03*
X87500000Y-97300000I-100000J0D01*
G01*
%TO.C,J5*%
X110025000Y-98040000D02*
X109135000Y-98040000D01*
X106975000Y-84960000D02*
X107865000Y-84960000D01*
X106975000Y-84960000D02*
X106975000Y-85065000D01*
X106975000Y-98040000D02*
X106975000Y-97935000D01*
X110025000Y-84960000D02*
X110025000Y-85065000D01*
X106975000Y-98040000D02*
X107865000Y-98040000D01*
X110025000Y-98040000D02*
X110025000Y-97935000D01*
X110025000Y-84960000D02*
X109135000Y-84960000D01*
X111700000Y-97215000D02*
G75*
G03*
X111700000Y-97215000I-100000J0D01*
G01*
D18*
%TO.C,REF\u002A\u002A*%
X126417750Y-52655651D02*
X140819550Y-52655651D01*
X130989750Y-54713051D02*
X131065950Y-54713051D01*
X133682150Y-54001851D02*
X133783750Y-54001851D01*
X133910750Y-55322651D02*
X134063150Y-55322651D01*
X126417750Y-56237051D02*
X140819550Y-56237051D01*
X133605950Y-55271851D02*
X133758350Y-55271851D01*
X135942750Y-55348051D02*
X135993550Y-55348051D01*
X126417750Y-54230451D02*
X127306750Y-54230451D01*
X128906950Y-53290651D02*
X140819550Y-53290651D01*
X134596550Y-55500451D02*
X134774350Y-55500451D01*
X128017950Y-54459051D02*
X128322750Y-54459051D01*
X133377350Y-55297251D02*
X133504350Y-55297251D01*
X130938950Y-55373451D02*
X131091350Y-55373451D01*
X132107350Y-54611451D02*
X132234350Y-54611451D01*
X136907950Y-53747851D02*
X136984150Y-53747851D01*
X135510950Y-54509851D02*
X140819550Y-54509851D01*
X130989750Y-53900251D02*
X131091350Y-53900251D01*
X134139350Y-55348051D02*
X134317150Y-55348051D01*
X135231550Y-55525851D02*
X135510950Y-55525851D01*
X132793150Y-55652851D02*
X132894750Y-55652851D01*
X131827950Y-54586051D02*
X131980350Y-54586051D01*
X130075350Y-54662251D02*
X130583350Y-54662251D01*
X128983150Y-55551251D02*
X129084750Y-55551251D01*
X138635150Y-53925651D02*
X138660550Y-53925651D01*
X132183550Y-53925651D02*
X132335950Y-53925651D01*
X133834550Y-55551251D02*
X133961550Y-55551251D01*
X132437550Y-54484451D02*
X132564550Y-54484451D01*
X132564550Y-54865451D02*
X132691550Y-54865451D01*
X134240950Y-53798651D02*
X134469550Y-53798651D01*
X132259750Y-53722451D02*
X132335950Y-53722451D01*
X133910750Y-53773251D02*
X133961550Y-53773251D01*
X126417750Y-53646251D02*
X127687750Y-53646251D01*
X126417750Y-56465651D02*
X140819550Y-56465651D01*
X128271950Y-55551251D02*
X128373550Y-55551251D01*
X131370750Y-55551251D02*
X131472350Y-55551251D01*
X134799750Y-54154251D02*
X134926750Y-54154251D01*
X136501550Y-53925651D02*
X136780950Y-53925651D01*
X132564550Y-54840051D02*
X132691550Y-54840051D01*
X126417750Y-56389451D02*
X140819550Y-56389451D01*
X129008550Y-55271851D02*
X129262550Y-55271851D01*
X136298350Y-53824051D02*
X136374550Y-53824051D01*
X135637950Y-54916251D02*
X140819550Y-54916251D01*
X126417750Y-52604851D02*
X140819550Y-52604851D01*
X131853350Y-55271851D02*
X131980350Y-55271851D01*
X135333150Y-54865451D02*
X135485550Y-54865451D01*
X134240950Y-53874851D02*
X134444150Y-53874851D01*
X128957750Y-54306651D02*
X129313350Y-54306651D01*
X129186350Y-53366851D02*
X140819550Y-53366851D01*
X132488350Y-54662251D02*
X132691550Y-54662251D01*
X128957750Y-54433651D02*
X129287950Y-54433651D01*
X135053750Y-54890851D02*
X135180750Y-54890851D01*
X128551350Y-53722451D02*
X128754550Y-53722451D01*
X133656750Y-55373451D02*
X133758350Y-55373451D01*
X132691550Y-53747851D02*
X132793150Y-53747851D01*
X132793150Y-55246451D02*
X132894750Y-55246451D01*
X134215550Y-54484451D02*
X134317150Y-54484451D01*
X128475150Y-54890851D02*
X128830750Y-54890851D01*
X132920150Y-53874851D02*
X133047150Y-53874851D01*
X129999150Y-55094051D02*
X140819550Y-55094051D01*
X132462950Y-54535251D02*
X132564550Y-54535251D01*
X134367950Y-55449651D02*
X134469550Y-55449651D01*
X134139350Y-55551251D02*
X134240950Y-55551251D01*
X136730150Y-54154251D02*
X136780950Y-54154251D01*
X140006750Y-54052651D02*
X140819550Y-54052651D01*
X133834550Y-55398851D02*
X133859950Y-55398851D01*
X134215550Y-54459051D02*
X134317150Y-54459051D01*
X128983150Y-55322651D02*
X129084750Y-55322651D01*
X136399950Y-55398851D02*
X140819550Y-55398851D01*
X132539150Y-55525851D02*
X132894750Y-55525851D01*
X134672750Y-53747851D02*
X134774350Y-53747851D01*
X126417750Y-55043251D02*
X127281350Y-55043251D01*
X134977550Y-54560651D02*
X135028350Y-54560651D01*
X136399950Y-55373451D02*
X140819550Y-55373451D01*
X126417750Y-55398851D02*
X127408350Y-55398851D01*
X130049950Y-54433651D02*
X140819550Y-54433651D01*
X134190150Y-54865451D02*
X134317150Y-54865451D01*
X132920150Y-53849451D02*
X133072550Y-53849451D01*
X138304950Y-54027251D02*
X138381150Y-54027251D01*
X130024550Y-54992451D02*
X140819550Y-54992451D01*
X130024550Y-55043251D02*
X140819550Y-55043251D01*
X132970950Y-55398851D02*
X133199550Y-55398851D01*
X128043350Y-54713051D02*
X128297350Y-54713051D01*
X136298350Y-54052651D02*
X136374550Y-54052651D01*
X134723550Y-54840051D02*
X134926750Y-54840051D01*
X134139350Y-55652851D02*
X134215550Y-55652851D01*
X135460150Y-55271851D02*
X135561750Y-55271851D01*
X130710350Y-53874851D02*
X130862750Y-53874851D01*
X132259750Y-55678251D02*
X132462950Y-55678251D01*
X129872150Y-55398851D02*
X130583350Y-55398851D01*
X126417750Y-56491051D02*
X140819550Y-56491051D01*
X133656750Y-55525851D02*
X133758350Y-55525851D01*
X128983150Y-54001851D02*
X129262550Y-54001851D01*
X136120550Y-55652851D02*
X136272950Y-55652851D01*
X126417750Y-53951051D02*
X127433750Y-53951051D01*
X128602150Y-54052651D02*
X128703750Y-54052651D01*
X134545750Y-53925651D02*
X134596550Y-53925651D01*
X135510950Y-54535251D02*
X140819550Y-54535251D01*
X131853350Y-55398851D02*
X131954950Y-55398851D01*
X131802550Y-54662251D02*
X132208950Y-54662251D01*
X132818550Y-54560651D02*
X133047150Y-54560651D01*
X133656750Y-55449651D02*
X133758350Y-55449651D01*
X133072550Y-54840051D02*
X133224950Y-54840051D01*
X132793150Y-55271851D02*
X132894750Y-55271851D01*
X126417750Y-52960451D02*
X140819550Y-52960451D01*
X128957750Y-53951051D02*
X129287950Y-53951051D01*
X129694350Y-55652851D02*
X130583350Y-55652851D01*
X133910750Y-53900251D02*
X134113950Y-53900251D01*
X128525950Y-55398851D02*
X128627550Y-55398851D01*
X130049950Y-54535251D02*
X130583350Y-54535251D01*
X135485550Y-54484451D02*
X140819550Y-54484451D01*
X131243750Y-55221051D02*
X131472350Y-55221051D01*
X135968150Y-55525851D02*
X135993550Y-55525851D01*
X131421550Y-54890851D02*
X131751750Y-54890851D01*
X126417750Y-56084651D02*
X128424350Y-56084651D01*
X138000150Y-53925651D02*
X138381150Y-53925651D01*
X135841150Y-55678251D02*
X135993550Y-55678251D01*
X126417750Y-55678251D02*
X127636950Y-55678251D01*
X136907950Y-54154251D02*
X137111150Y-54154251D01*
X126417750Y-54281251D02*
X127281350Y-54281251D01*
X138025550Y-54027251D02*
X138152550Y-54027251D01*
X133301150Y-55449651D02*
X133580550Y-55449651D01*
X127992550Y-54408251D02*
X128348150Y-54408251D01*
X128525950Y-54484451D02*
X128779950Y-54484451D01*
X126417750Y-54636851D02*
X127230550Y-54636851D01*
X133199550Y-54052651D02*
X133275750Y-54052651D01*
X131497750Y-53951051D02*
X131624750Y-53951051D01*
X129237150Y-53392251D02*
X140819550Y-53392251D01*
X136120550Y-55221051D02*
X136272950Y-55221051D01*
X136399950Y-55424251D02*
X140819550Y-55424251D01*
X132920150Y-54027251D02*
X133072550Y-54027251D01*
X131218350Y-53697051D02*
X131370750Y-53697051D01*
X138609750Y-53874851D02*
X138660550Y-53874851D01*
X136323750Y-53874851D02*
X136374550Y-53874851D01*
X136399950Y-55551251D02*
X140819550Y-55551251D01*
X137390550Y-53697051D02*
X137441350Y-53697051D01*
X132818550Y-54713051D02*
X132996350Y-54713051D01*
X134113950Y-54916251D02*
X134317150Y-54916251D01*
X126417750Y-53214451D02*
X140819550Y-53214451D01*
X134748950Y-53951051D02*
X134926750Y-53951051D01*
X131573950Y-55525851D02*
X131751750Y-55525851D01*
X129745150Y-53773251D02*
X130583350Y-53773251D01*
X139930550Y-53849451D02*
X140819550Y-53849451D01*
X130710350Y-54687651D02*
X130862750Y-54687651D01*
X127992550Y-54281251D02*
X128348150Y-54281251D01*
X137644550Y-53570051D02*
X140819550Y-53570051D01*
X130735750Y-54052651D02*
X130811950Y-54052651D01*
X137796950Y-53925651D02*
X137873150Y-53925651D01*
X138508150Y-53697051D02*
X138660550Y-53697051D01*
X132818550Y-54890851D02*
X132920150Y-54890851D01*
X128602150Y-55017851D02*
X128703750Y-55017851D01*
X139016150Y-54078051D02*
X139143150Y-54078051D01*
X131065950Y-55678251D02*
X131319950Y-55678251D01*
X133199550Y-54078051D02*
X133275750Y-54078051D01*
X132056550Y-55348051D02*
X132259750Y-55348051D01*
X126417750Y-56313251D02*
X140819550Y-56313251D01*
X130024550Y-54332051D02*
X140819550Y-54332051D01*
X126417750Y-56668851D02*
X140819550Y-56668851D01*
X136247550Y-53722451D02*
X136374550Y-53722451D01*
X133199550Y-55627451D02*
X133275750Y-55627451D01*
X132970950Y-55449651D02*
X133199550Y-55449651D01*
X134647350Y-53697051D02*
X134774350Y-53697051D01*
X136120550Y-55373451D02*
X136272950Y-55373451D01*
X129389550Y-53468451D02*
X140819550Y-53468451D01*
X132539150Y-55297251D02*
X132894750Y-55297251D01*
X132158150Y-54052651D02*
X132335950Y-54052651D01*
X131192950Y-55348051D02*
X131218350Y-55348051D01*
X139244750Y-54001851D02*
X139422550Y-54001851D01*
X134799750Y-54103451D02*
X134926750Y-54103451D01*
X138482750Y-54154251D02*
X138660550Y-54154251D01*
X134469550Y-54154251D02*
X134672750Y-54154251D01*
X132081950Y-55322651D02*
X132259750Y-55322651D01*
X131751750Y-53773251D02*
X131853350Y-53773251D01*
X138228750Y-54128851D02*
X138381150Y-54128851D01*
X129821350Y-53874851D02*
X130583350Y-53874851D01*
X137644550Y-53595451D02*
X140819550Y-53595451D01*
X134723550Y-54662251D02*
X134875950Y-54662251D01*
X134952150Y-54535251D02*
X135028350Y-54535251D01*
X137238150Y-54027251D02*
X137441350Y-54027251D01*
X137796950Y-53951051D02*
X137873150Y-53951051D01*
X130049950Y-54738451D02*
X130583350Y-54738451D01*
X133910750Y-53747851D02*
X133961550Y-53747851D01*
X126417750Y-56186251D02*
X140819550Y-56186251D01*
X134647350Y-53722451D02*
X134774350Y-53722451D01*
X132107350Y-54738451D02*
X132183550Y-54738451D01*
X134291750Y-55652851D02*
X134545750Y-55652851D01*
X136730150Y-54128851D02*
X136780950Y-54128851D01*
X127967150Y-54357451D02*
X128348150Y-54357451D01*
X130049950Y-54865451D02*
X130583350Y-54865451D01*
X136323750Y-53951051D02*
X136374550Y-53951051D01*
X135053750Y-53900251D02*
X135434750Y-53900251D01*
X130659550Y-55322651D02*
X130837350Y-55322651D01*
X135231550Y-55500451D02*
X135510950Y-55500451D01*
X139016150Y-53773251D02*
X139143150Y-53773251D01*
X126417750Y-56211651D02*
X140819550Y-56211651D01*
X133910750Y-54154251D02*
X134113950Y-54154251D01*
X128043350Y-53747851D02*
X128297350Y-53747851D01*
X129872150Y-55424251D02*
X130583350Y-55424251D01*
X128932350Y-55424251D02*
X129059350Y-55424251D01*
X132970950Y-55551251D02*
X133224950Y-55551251D01*
X133910750Y-53951051D02*
X134113950Y-53951051D01*
X131751750Y-54027251D02*
X131929550Y-54027251D01*
X139905150Y-53773251D02*
X140819550Y-53773251D01*
X129567350Y-53595451D02*
X137517550Y-53595451D01*
X130710350Y-53849451D02*
X130862750Y-53849451D01*
X135968150Y-53925651D02*
X136196750Y-53925651D01*
X139016150Y-53849451D02*
X139117750Y-53849451D01*
X134444150Y-54865451D02*
X134571150Y-54865451D01*
X132208950Y-53849451D02*
X132335950Y-53849451D01*
X128119550Y-54662251D02*
X128221150Y-54662251D01*
X128983150Y-55297251D02*
X129262550Y-55297251D01*
X133936150Y-54560651D02*
X134088550Y-54560651D01*
X126417750Y-56719651D02*
X140819550Y-56719651D01*
X132361350Y-55576651D02*
X132462950Y-55576651D01*
X128017950Y-55551251D02*
X128119550Y-55551251D01*
X131396150Y-55576651D02*
X131472350Y-55576651D01*
X131853350Y-54560651D02*
X131954950Y-54560651D01*
X133326550Y-55551251D02*
X133555150Y-55551251D01*
X126417750Y-53722451D02*
X127611550Y-53722451D01*
X130024550Y-54357451D02*
X140819550Y-54357451D01*
X138254150Y-53722451D02*
X138381150Y-53722451D01*
X136399950Y-55602051D02*
X140819550Y-55602051D01*
X132183550Y-53976451D02*
X132335950Y-53976451D01*
X131192950Y-54763851D02*
X131675550Y-54763851D01*
X133580550Y-54154251D02*
X133783750Y-54154251D01*
X128017950Y-54941651D02*
X128322750Y-54941651D01*
X138787550Y-53722451D02*
X138889150Y-53722451D01*
X132793150Y-55221051D02*
X132894750Y-55221051D01*
X134901350Y-55576651D02*
X135104550Y-55576651D01*
X133859950Y-55221051D02*
X134063150Y-55221051D01*
X139549550Y-53824051D02*
X139676550Y-53824051D01*
X138482750Y-54027251D02*
X138558950Y-54027251D01*
X128271950Y-55271851D02*
X128398950Y-55271851D01*
X131192950Y-54001851D02*
X131269150Y-54001851D01*
X128500550Y-54738451D02*
X128805350Y-54738451D01*
X135460150Y-55246451D02*
X135587150Y-55246451D01*
X128525950Y-55348051D02*
X128627550Y-55348051D01*
X130710350Y-53747851D02*
X130862750Y-53747851D01*
X135053750Y-54865451D02*
X135180750Y-54865451D01*
X135561750Y-54078051D02*
X135891950Y-54078051D01*
X126417750Y-55754451D02*
X127713150Y-55754451D01*
X126417750Y-56541851D02*
X140819550Y-56541851D01*
X134139350Y-55500451D02*
X134266350Y-55500451D01*
X138482750Y-53976451D02*
X138533550Y-53976451D01*
X131396150Y-55602051D02*
X131472350Y-55602051D01*
X134901350Y-55525851D02*
X135104550Y-55525851D01*
X136399950Y-55525851D02*
X140819550Y-55525851D01*
X134494950Y-55246451D02*
X134647350Y-55246451D01*
X139524150Y-54078051D02*
X139574950Y-54078051D01*
X131751750Y-53697051D02*
X131827950Y-53697051D01*
X133682150Y-53976451D02*
X133783750Y-53976451D01*
X131370750Y-55500451D02*
X131472350Y-55500451D01*
X128119550Y-54052651D02*
X128221150Y-54052651D01*
X128068750Y-53722451D02*
X128271950Y-53722451D01*
X136399950Y-55449651D02*
X140819550Y-55449651D01*
X132158150Y-54027251D02*
X132335950Y-54027251D01*
X132767750Y-55449651D02*
X132894750Y-55449651D01*
X135968150Y-55500451D02*
X135993550Y-55500451D01*
X130659550Y-55297251D02*
X130811950Y-55297251D01*
X136196750Y-53697051D02*
X136374550Y-53697051D01*
X133656750Y-55551251D02*
X133758350Y-55551251D01*
X133910750Y-53824051D02*
X134113950Y-53824051D01*
X133301150Y-55398851D02*
X133580550Y-55398851D01*
X135231550Y-55551251D02*
X135536350Y-55551251D01*
X128957750Y-54408251D02*
X129313350Y-54408251D01*
X139879750Y-53747851D02*
X140819550Y-53747851D01*
X137238150Y-53874851D02*
X137441350Y-53874851D01*
X129770550Y-53798651D02*
X130583350Y-53798651D01*
X136907950Y-54103451D02*
X137111150Y-54103451D01*
X137796950Y-53900251D02*
X137873150Y-53900251D01*
X130862750Y-54459051D02*
X131065950Y-54459051D01*
X134901350Y-55348051D02*
X135104550Y-55348051D01*
X130989750Y-53925651D02*
X131091350Y-53925651D01*
X131573950Y-55551251D02*
X131751750Y-55551251D01*
X134774350Y-54052651D02*
X134926750Y-54052651D01*
X126417750Y-53544651D02*
X127789350Y-53544651D01*
X131751750Y-54001851D02*
X131929550Y-54001851D01*
X137238150Y-54128851D02*
X137441350Y-54128851D01*
X129872150Y-53976451D02*
X130583350Y-53976451D01*
X132539150Y-54789251D02*
X132691550Y-54789251D01*
X134240950Y-53951051D02*
X134418750Y-53951051D01*
X131827950Y-54789251D02*
X131954950Y-54789251D01*
X126417750Y-52528651D02*
X140819550Y-52528651D01*
X129491150Y-53544651D02*
X140819550Y-53544651D01*
X136044350Y-54052651D02*
X136095150Y-54052651D01*
X134647350Y-55678251D02*
X134774350Y-55678251D01*
X126417750Y-55348051D02*
X127382950Y-55348051D01*
X138787550Y-53874851D02*
X138889150Y-53874851D01*
X126417750Y-54814651D02*
X127230550Y-54814651D01*
X130938950Y-54509851D02*
X131065950Y-54509851D01*
X130964350Y-54840051D02*
X131065950Y-54840051D01*
X126417750Y-55906851D02*
X127916350Y-55906851D01*
X132818550Y-54840051D02*
X132945550Y-54840051D01*
X133555150Y-54738451D02*
X133809150Y-54738451D01*
X131269150Y-53773251D02*
X131370750Y-53773251D01*
X136120550Y-55551251D02*
X136272950Y-55551251D01*
X126417750Y-54205051D02*
X127306750Y-54205051D01*
X130710350Y-54027251D02*
X130837350Y-54027251D01*
X131192950Y-53976451D02*
X131243750Y-53976451D01*
X133910750Y-53722451D02*
X133961550Y-53722451D01*
X131497750Y-54078051D02*
X131624750Y-54078051D01*
X128500550Y-53976451D02*
X128805350Y-53976451D01*
X127992550Y-54916251D02*
X128322750Y-54916251D01*
X136272950Y-54078051D02*
X136374550Y-54078051D01*
X128271950Y-55475051D02*
X128398950Y-55475051D01*
X126417750Y-53087451D02*
X140819550Y-53087451D01*
X133910750Y-55297251D02*
X134063150Y-55297251D01*
X133351950Y-55322651D02*
X133529750Y-55322651D01*
X130049950Y-54611451D02*
X130583350Y-54611451D01*
X126417750Y-54840051D02*
X127230550Y-54840051D01*
X134520350Y-55348051D02*
X134774350Y-55348051D01*
X127992550Y-54763851D02*
X128322750Y-54763851D01*
X130989750Y-53747851D02*
X131091350Y-53747851D01*
X131853350Y-55297251D02*
X131980350Y-55297251D01*
X132031150Y-53925651D02*
X132056550Y-53925651D01*
X128957750Y-53824051D02*
X129313350Y-53824051D01*
X130659550Y-55500451D02*
X130862750Y-55500451D01*
X136501550Y-53976451D02*
X136780950Y-53976451D01*
X136501550Y-54001851D02*
X136780950Y-54001851D01*
X131827950Y-55500451D02*
X131954950Y-55500451D01*
X133199550Y-53900251D02*
X133301150Y-53900251D01*
X131192950Y-54738451D02*
X131675550Y-54738451D01*
X126417750Y-54078051D02*
X127357550Y-54078051D01*
X134723550Y-54763851D02*
X134926750Y-54763851D01*
X132462950Y-53976451D02*
X132793150Y-53976451D01*
X135663350Y-55348051D02*
X135815750Y-55348051D01*
X129770550Y-55551251D02*
X130583350Y-55551251D01*
X134240950Y-54001851D02*
X134393350Y-54001851D01*
X135053750Y-54103451D02*
X135434750Y-54103451D01*
X133428150Y-54052651D02*
X133529750Y-54052651D01*
X126417750Y-55830651D02*
X127814750Y-55830651D01*
X126417750Y-53697051D02*
X127636950Y-53697051D01*
X133656750Y-53925651D02*
X133783750Y-53925651D01*
X132818550Y-54789251D02*
X132970950Y-54789251D01*
X132234350Y-53824051D02*
X132335950Y-53824051D01*
X138203350Y-53697051D02*
X138381150Y-53697051D01*
X136730150Y-54103451D02*
X136780950Y-54103451D01*
X129897550Y-54001851D02*
X130583350Y-54001851D01*
X126417750Y-55297251D02*
X127357550Y-55297251D01*
X133250350Y-54484451D02*
X133428150Y-54484451D01*
X132920150Y-54001851D02*
X133047150Y-54001851D01*
X136907950Y-53824051D02*
X137111150Y-53824051D01*
X132031150Y-53951051D02*
X132056550Y-53951051D01*
X134621950Y-55576651D02*
X134774350Y-55576651D01*
X126417750Y-55932251D02*
X127967150Y-55932251D01*
X129059350Y-54179651D02*
X129186350Y-54179651D01*
X129719750Y-55627451D02*
X130583350Y-55627451D01*
X130913550Y-54128851D02*
X131091350Y-54128851D01*
X132335950Y-54662251D02*
X132361350Y-54662251D01*
X132462950Y-54001851D02*
X132793150Y-54001851D01*
X126417750Y-56414851D02*
X140819550Y-56414851D01*
X133936150Y-54611451D02*
X134088550Y-54611451D01*
X135053750Y-54027251D02*
X135434750Y-54027251D01*
X132335950Y-54687651D02*
X132386750Y-54687651D01*
X128500550Y-54433651D02*
X128805350Y-54433651D01*
X126417750Y-53620851D02*
X127713150Y-53620851D01*
X139016150Y-53747851D02*
X139168550Y-53747851D01*
X134215550Y-54509851D02*
X134317150Y-54509851D01*
X138558950Y-53798651D02*
X138660550Y-53798651D01*
X131269150Y-55271851D02*
X131472350Y-55271851D01*
X131421550Y-55627451D02*
X131472350Y-55627451D01*
X126417750Y-54738451D02*
X127230550Y-54738451D01*
X133555150Y-54789251D02*
X133809150Y-54789251D01*
X127992550Y-54865451D02*
X128348150Y-54865451D01*
X131421550Y-54865451D02*
X131726350Y-54865451D01*
X133682150Y-54052651D02*
X133783750Y-54052651D01*
X128475150Y-53874851D02*
X128830750Y-53874851D01*
X135180750Y-53747851D02*
X135434750Y-53747851D01*
X136907950Y-54078051D02*
X137111150Y-54078051D01*
X136501550Y-53773251D02*
X136780950Y-53773251D01*
X133834550Y-55475051D02*
X133910750Y-55475051D01*
X138025550Y-53824051D02*
X138177950Y-53824051D01*
X128932350Y-55449651D02*
X129059350Y-55449651D01*
X135942750Y-55602051D02*
X135993550Y-55602051D01*
X128856150Y-56084651D02*
X140819550Y-56084651D01*
X128983150Y-54459051D02*
X129287950Y-54459051D01*
X128500550Y-54459051D02*
X128805350Y-54459051D01*
X137822350Y-54078051D02*
X137898550Y-54078051D01*
X131345350Y-55475051D02*
X131472350Y-55475051D01*
X130659550Y-55373451D02*
X130837350Y-55373451D01*
X128525950Y-55525851D02*
X128602150Y-55525851D01*
X136907950Y-53925651D02*
X137111150Y-53925651D01*
X132107350Y-54154251D02*
X132335950Y-54154251D01*
X139016150Y-54103451D02*
X139168550Y-54103451D01*
X128932350Y-54332051D02*
X129313350Y-54332051D01*
X134139350Y-55297251D02*
X134342550Y-55297251D01*
X134469550Y-55221051D02*
X134647350Y-55221051D01*
X132716950Y-54154251D02*
X132793150Y-54154251D01*
X134190150Y-54840051D02*
X134317150Y-54840051D01*
X133656750Y-53798651D02*
X133783750Y-53798651D01*
X128475150Y-53925651D02*
X128830750Y-53925651D01*
X137796950Y-53874851D02*
X137873150Y-53874851D01*
X132767750Y-55475051D02*
X132894750Y-55475051D01*
X135815750Y-53824051D02*
X135866550Y-53824051D01*
X136399950Y-55221051D02*
X140819550Y-55221051D01*
X127992550Y-54433651D02*
X128322750Y-54433651D01*
X131827950Y-55246451D02*
X132005750Y-55246451D01*
X134901350Y-55373451D02*
X135104550Y-55373451D01*
X126417750Y-55983051D02*
X128068750Y-55983051D01*
X138482750Y-54052651D02*
X138584350Y-54052651D01*
X134901350Y-55475051D02*
X135104550Y-55475051D01*
X129287950Y-53417651D02*
X140819550Y-53417651D01*
X126417750Y-52884251D02*
X140819550Y-52884251D01*
X128475150Y-54281251D02*
X128830750Y-54281251D01*
X128525950Y-55652851D02*
X128602150Y-55652851D01*
X136399950Y-55246451D02*
X140819550Y-55246451D01*
X131827950Y-54763851D02*
X131980350Y-54763851D01*
X137238150Y-54052651D02*
X137441350Y-54052651D01*
X137238150Y-54001851D02*
X137441350Y-54001851D01*
X126417750Y-52909651D02*
X140819550Y-52909651D01*
X128932350Y-54814651D02*
X129313350Y-54814651D01*
X135587150Y-54763851D02*
X140819550Y-54763851D01*
X136222150Y-54128851D02*
X136374550Y-54128851D01*
X135180750Y-53697051D02*
X135434750Y-53697051D01*
X126417750Y-54941651D02*
X127255950Y-54941651D01*
X136501550Y-53951051D02*
X136780950Y-53951051D01*
X133834550Y-55602051D02*
X133986950Y-55602051D01*
X131091350Y-55652851D02*
X131319950Y-55652851D01*
X130989750Y-53697051D02*
X131091350Y-53697051D01*
X128271950Y-55373451D02*
X128398950Y-55373451D01*
X129719750Y-53747851D02*
X130583350Y-53747851D01*
X130710350Y-53824051D02*
X130862750Y-53824051D01*
X126417750Y-53062051D02*
X140819550Y-53062051D01*
X138203350Y-54154251D02*
X138381150Y-54154251D01*
X128957750Y-55475051D02*
X129059350Y-55475051D01*
X133351950Y-55576651D02*
X133529750Y-55576651D01*
X131802550Y-55449651D02*
X131929550Y-55449651D01*
X135434750Y-55475051D02*
X135510950Y-55475051D01*
X128017950Y-55246451D02*
X128119550Y-55246451D01*
X128525950Y-55475051D02*
X128805350Y-55475051D01*
X133656750Y-55475051D02*
X133758350Y-55475051D01*
X130659550Y-55525851D02*
X130862750Y-55525851D01*
X130989750Y-54001851D02*
X131091350Y-54001851D01*
X135637950Y-55449651D02*
X135993550Y-55449651D01*
X139473350Y-54128851D02*
X139549550Y-54128851D01*
X130938950Y-54103451D02*
X131091350Y-54103451D01*
X129160950Y-56008451D02*
X140819550Y-56008451D01*
X132081950Y-54865451D02*
X132132750Y-54865451D01*
X138584350Y-53824051D02*
X138660550Y-53824051D01*
X134723550Y-54586051D02*
X134825150Y-54586051D01*
X132462950Y-53824051D02*
X132793150Y-53824051D01*
X133326550Y-54687651D02*
X133428150Y-54687651D01*
X126417750Y-54992451D02*
X127255950Y-54992451D01*
X131878750Y-54814651D02*
X131929550Y-54814651D01*
X127992550Y-53900251D02*
X128348150Y-53900251D01*
X133199550Y-54027251D02*
X133275750Y-54027251D01*
X128932350Y-54865451D02*
X129313350Y-54865451D01*
X129795950Y-55525851D02*
X130583350Y-55525851D01*
X138304950Y-53798651D02*
X138381150Y-53798651D01*
X133555150Y-54763851D02*
X133809150Y-54763851D01*
X134494950Y-54509851D02*
X134596550Y-54509851D01*
X131751750Y-53722451D02*
X131827950Y-53722451D01*
X130049950Y-54840051D02*
X130583350Y-54840051D01*
X135561750Y-54103451D02*
X135917350Y-54103451D01*
X133351950Y-54814651D02*
X133428150Y-54814651D01*
X133174150Y-53951051D02*
X133377350Y-53951051D01*
X131396150Y-54713051D02*
X131675550Y-54713051D01*
X131802550Y-54713051D02*
X132183550Y-54713051D01*
X133936150Y-54713051D02*
X134088550Y-54713051D01*
X132818550Y-54763851D02*
X132970950Y-54763851D01*
X126417750Y-55627451D02*
X127586150Y-55627451D01*
X126417750Y-55525851D02*
X127509950Y-55525851D01*
X126417750Y-52833451D02*
X140819550Y-52833451D01*
X134139350Y-55525851D02*
X134240950Y-55525851D01*
X130710350Y-53773251D02*
X130862750Y-53773251D01*
X136120550Y-55500451D02*
X136272950Y-55500451D01*
X134215550Y-54636851D02*
X134317150Y-54636851D01*
X135383950Y-54713051D02*
X135434750Y-54713051D01*
X134139350Y-55398851D02*
X134291750Y-55398851D01*
X129897550Y-54027251D02*
X130583350Y-54027251D01*
X130049950Y-54890851D02*
X130583350Y-54890851D01*
X130964350Y-54814651D02*
X131065950Y-54814651D01*
X128525950Y-55322651D02*
X128627550Y-55322651D01*
X139930550Y-53874851D02*
X140819550Y-53874851D01*
X130888150Y-55221051D02*
X131142150Y-55221051D01*
X132056550Y-54890851D02*
X132132750Y-54890851D01*
X133326550Y-54713051D02*
X133428150Y-54713051D01*
X134367950Y-53747851D02*
X134494950Y-53747851D01*
X130659550Y-55576651D02*
X130862750Y-55576651D01*
X135637950Y-55500451D02*
X135841150Y-55500451D01*
X130659550Y-55602051D02*
X130811950Y-55602051D01*
X135053750Y-54001851D02*
X135434750Y-54001851D01*
X137568350Y-53976451D02*
X137873150Y-53976451D01*
X135561750Y-53824051D02*
X135688750Y-53824051D01*
X126417750Y-53900251D02*
X127459150Y-53900251D01*
X133555150Y-54509851D02*
X133809150Y-54509851D01*
X126417750Y-52554051D02*
X140819550Y-52554051D01*
X130989750Y-54027251D02*
X131091350Y-54027251D01*
X128017950Y-55424251D02*
X128119550Y-55424251D01*
X128271950Y-55348051D02*
X128398950Y-55348051D01*
X128500550Y-54941651D02*
X128805350Y-54941651D01*
X126417750Y-54509851D02*
X127230550Y-54509851D01*
X139016150Y-53697051D02*
X139219350Y-53697051D01*
X131243750Y-53747851D02*
X131370750Y-53747851D01*
X138000150Y-53849451D02*
X138177950Y-53849451D01*
X138279550Y-53747851D02*
X138381150Y-53747851D01*
X134723550Y-54713051D02*
X134926750Y-54713051D01*
X128551350Y-54509851D02*
X128754550Y-54509851D01*
X130075350Y-54713051D02*
X130583350Y-54713051D01*
X130989750Y-53874851D02*
X131091350Y-53874851D01*
X135891950Y-55246451D02*
X135993550Y-55246451D01*
X129033950Y-53316051D02*
X140819550Y-53316051D01*
X129948350Y-55271851D02*
X130583350Y-55271851D01*
X134367950Y-53722451D02*
X134494950Y-53722451D01*
X133631350Y-54128851D02*
X133783750Y-54128851D01*
X131497750Y-53798651D02*
X131624750Y-53798651D01*
X134901350Y-55678251D02*
X135104550Y-55678251D01*
X132539150Y-55602051D02*
X132894750Y-55602051D01*
X132691550Y-53925651D02*
X132793150Y-53925651D01*
X133910750Y-53849451D02*
X134113950Y-53849451D01*
X135510950Y-54560651D02*
X140819550Y-54560651D01*
X135536350Y-54586051D02*
X140819550Y-54586051D01*
X132691550Y-53874851D02*
X132793150Y-53874851D01*
X126417750Y-54459051D02*
X127255950Y-54459051D01*
X129694350Y-53722451D02*
X130583350Y-53722451D01*
X134444150Y-54459051D02*
X134596550Y-54459051D01*
X139244750Y-53849451D02*
X139422550Y-53849451D01*
X132920150Y-54078051D02*
X133072550Y-54078051D01*
X135231550Y-54459051D02*
X135333150Y-54459051D01*
X131192950Y-54027251D02*
X131269150Y-54027251D01*
X136501550Y-53697051D02*
X136780950Y-53697051D01*
X131192950Y-54560651D02*
X131700950Y-54560651D01*
X130989750Y-54738451D02*
X131065950Y-54738451D01*
X135815750Y-53798651D02*
X135866550Y-53798651D01*
X133555150Y-55221051D02*
X133758350Y-55221051D01*
X128017950Y-54738451D02*
X128322750Y-54738451D01*
X126417750Y-52579451D02*
X140819550Y-52579451D01*
X135815750Y-53849451D02*
X135841150Y-53849451D01*
X133656750Y-54103451D02*
X133783750Y-54103451D01*
X131421550Y-54840051D02*
X131700950Y-54840051D01*
X133910750Y-54078051D02*
X134113950Y-54078051D01*
X138304950Y-53976451D02*
X138381150Y-53976451D01*
X135561750Y-53798651D02*
X135663350Y-53798651D01*
X133656750Y-55348051D02*
X133758350Y-55348051D01*
X130989750Y-53798651D02*
X131091350Y-53798651D01*
X132970950Y-55246451D02*
X133275750Y-55246451D01*
X137796950Y-53697051D02*
X137974750Y-53697051D01*
X132031150Y-53874851D02*
X132081950Y-53874851D01*
X136501550Y-53798651D02*
X136780950Y-53798651D01*
X135561750Y-54128851D02*
X135942750Y-54128851D01*
X132970950Y-55475051D02*
X133199550Y-55475051D01*
X126417750Y-54357451D02*
X127255950Y-54357451D01*
X137822350Y-54154251D02*
X138000150Y-54154251D01*
X139016150Y-54128851D02*
X139193950Y-54128851D01*
X126417750Y-55602051D02*
X127560750Y-55602051D01*
X127992550Y-54382851D02*
X128348150Y-54382851D01*
X139498750Y-53722451D02*
X139727350Y-53722451D01*
X130938950Y-55627451D02*
X130989750Y-55627451D01*
X131573950Y-55576651D02*
X131751750Y-55576651D01*
X131802550Y-54738451D02*
X131980350Y-54738451D01*
X126417750Y-54535251D02*
X127230550Y-54535251D01*
X131294550Y-55297251D02*
X131472350Y-55297251D01*
X132970950Y-55500451D02*
X133199550Y-55500451D01*
X126417750Y-54586051D02*
X127230550Y-54586051D01*
X133656750Y-53824051D02*
X133783750Y-53824051D01*
X128957750Y-55500451D02*
X129059350Y-55500451D01*
X138787550Y-54078051D02*
X138889150Y-54078051D01*
X132208950Y-53874851D02*
X132335950Y-53874851D01*
X137695350Y-53646251D02*
X140819550Y-53646251D01*
X131497750Y-53824051D02*
X131624750Y-53824051D01*
X132539150Y-55576651D02*
X132894750Y-55576651D01*
X131573950Y-55602051D02*
X131777150Y-55602051D01*
X136323750Y-53925651D02*
X136374550Y-53925651D01*
X133555150Y-54586051D02*
X133809150Y-54586051D01*
X132513750Y-54687651D02*
X132691550Y-54687651D01*
X130049950Y-54916251D02*
X130583350Y-54916251D01*
X139524150Y-53747851D02*
X139701950Y-53747851D01*
X126417750Y-56135451D02*
X140819550Y-56135451D01*
X131827950Y-55475051D02*
X131929550Y-55475051D01*
X135053750Y-53874851D02*
X135434750Y-53874851D01*
X138482750Y-54128851D02*
X138635150Y-54128851D01*
X128475150Y-53849451D02*
X128830750Y-53849451D01*
X139422550Y-54154251D02*
X139549550Y-54154251D01*
X130964350Y-55525851D02*
X131040550Y-55525851D01*
X132970950Y-54484451D02*
X133072550Y-54484451D01*
X134139350Y-55627451D02*
X134215550Y-55627451D01*
X128525950Y-55449651D02*
X128805350Y-55449651D01*
X133631350Y-55602051D02*
X133758350Y-55602051D01*
X138254150Y-54103451D02*
X138381150Y-54103451D01*
X131192950Y-54052651D02*
X131294550Y-54052651D01*
X132920150Y-54103451D02*
X133072550Y-54103451D01*
X128957750Y-55348051D02*
X129084750Y-55348051D01*
X135053750Y-54154251D02*
X135434750Y-54154251D01*
X134926750Y-54484451D02*
X135079150Y-54484451D01*
X136399950Y-55678251D02*
X140819550Y-55678251D01*
X132462950Y-54586051D02*
X132691550Y-54586051D01*
X136907950Y-54027251D02*
X137111150Y-54027251D01*
X136501550Y-53722451D02*
X136780950Y-53722451D01*
X128602150Y-54179651D02*
X128729150Y-54179651D01*
X128500550Y-54255851D02*
X128805350Y-54255851D01*
X128729150Y-55424251D02*
X128830750Y-55424251D01*
X134545750Y-54586051D02*
X134596550Y-54586051D01*
X131853350Y-55322651D02*
X131954950Y-55322651D01*
X135180750Y-53722451D02*
X135434750Y-53722451D01*
X134240950Y-53900251D02*
X134418750Y-53900251D01*
X132031150Y-53900251D02*
X132056550Y-53900251D01*
X139549550Y-53976451D02*
X139625750Y-53976451D01*
X136120550Y-55271851D02*
X136272950Y-55271851D01*
X132488350Y-54611451D02*
X132691550Y-54611451D01*
X133301150Y-54662251D02*
X133428150Y-54662251D01*
X135663350Y-55525851D02*
X135815750Y-55525851D01*
X135612550Y-54814651D02*
X140819550Y-54814651D01*
X137390550Y-53722451D02*
X137441350Y-53722451D01*
X126417750Y-55221051D02*
X127332150Y-55221051D01*
X130024550Y-55017851D02*
X140819550Y-55017851D01*
X128475150Y-54789251D02*
X128830750Y-54789251D01*
X132462950Y-53798651D02*
X132793150Y-53798651D01*
X131802550Y-54687651D02*
X132208950Y-54687651D01*
X136907950Y-53900251D02*
X137111150Y-53900251D01*
X134444150Y-54738451D02*
X134494950Y-54738451D01*
X132361350Y-55322651D02*
X132462950Y-55322651D01*
X138787550Y-53900251D02*
X138889150Y-53900251D01*
X133936150Y-54738451D02*
X134088550Y-54738451D01*
X133199550Y-53824051D02*
X133301150Y-53824051D01*
X132488350Y-54636851D02*
X132691550Y-54636851D01*
X134698150Y-53824051D02*
X134926750Y-53824051D01*
X131421550Y-54814651D02*
X131700950Y-54814651D01*
X135053750Y-54814651D02*
X135206150Y-54814651D01*
X128500550Y-53773251D02*
X128805350Y-53773251D01*
X128017950Y-55398851D02*
X128119550Y-55398851D01*
X126417750Y-53747851D02*
X127586150Y-53747851D01*
X137238150Y-54078051D02*
X137441350Y-54078051D01*
X126417750Y-54179651D02*
X127332150Y-54179651D01*
X128271950Y-55246451D02*
X128398950Y-55246451D01*
X130049950Y-54763851D02*
X130583350Y-54763851D01*
X129033950Y-54509851D02*
X129211750Y-54509851D01*
X132132750Y-54128851D02*
X132335950Y-54128851D01*
X134571150Y-55449651D02*
X134774350Y-55449651D01*
X133961550Y-55373451D02*
X134063150Y-55373451D01*
X133605950Y-53697051D02*
X133783750Y-53697051D01*
X138558950Y-53773251D02*
X138660550Y-53773251D01*
X134723550Y-54611451D02*
X134850550Y-54611451D01*
X133199550Y-53747851D02*
X133301150Y-53747851D01*
X126417750Y-53036651D02*
X140819550Y-53036651D01*
X130659550Y-55551251D02*
X130862750Y-55551251D01*
X130710350Y-54586051D02*
X130837350Y-54586051D01*
X133936150Y-54535251D02*
X134088550Y-54535251D01*
X129872150Y-53951051D02*
X130583350Y-53951051D01*
X132513750Y-54713051D02*
X132691550Y-54713051D01*
X130837350Y-54916251D02*
X131065950Y-54916251D01*
X126417750Y-55729051D02*
X127687750Y-55729051D01*
X137238150Y-53976451D02*
X137441350Y-53976451D01*
X138482750Y-54078051D02*
X138609750Y-54078051D01*
X126417750Y-56110051D02*
X140819550Y-56110051D01*
X127992550Y-53849451D02*
X128348150Y-53849451D01*
X126417750Y-54967051D02*
X127255950Y-54967051D01*
X132970950Y-55221051D02*
X133326550Y-55221051D01*
X128475150Y-54408251D02*
X128830750Y-54408251D01*
X133402750Y-54001851D02*
X133529750Y-54001851D01*
X127992550Y-54890851D02*
X128348150Y-54890851D01*
X133224950Y-54154251D02*
X133377350Y-54154251D01*
X135231550Y-55373451D02*
X135510950Y-55373451D01*
X133834550Y-55500451D02*
X133936150Y-55500451D01*
X134342550Y-55551251D02*
X134494950Y-55551251D01*
X126417750Y-53443051D02*
X127967150Y-53443051D01*
X131853350Y-55525851D02*
X131954950Y-55525851D01*
X131751750Y-53824051D02*
X131853350Y-53824051D01*
X128068750Y-54687651D02*
X128271950Y-54687651D01*
X128525950Y-55627451D02*
X128602150Y-55627451D01*
X126417750Y-56795851D02*
X140819550Y-56795851D01*
X136399950Y-55475051D02*
X140819550Y-55475051D01*
X135942750Y-55373451D02*
X135993550Y-55373451D01*
X128983150Y-54941651D02*
X129287950Y-54941651D01*
X135180750Y-54535251D02*
X135307750Y-54535251D01*
X126417750Y-53366851D02*
X128119550Y-53366851D01*
X138787550Y-53925651D02*
X138889150Y-53925651D01*
X134139350Y-55246451D02*
X134367950Y-55246451D01*
X135180750Y-53773251D02*
X135434750Y-53773251D01*
X137238150Y-54154251D02*
X137441350Y-54154251D01*
X135028350Y-55297251D02*
X135104550Y-55297251D01*
X138787550Y-53849451D02*
X138889150Y-53849451D01*
X133301150Y-55475051D02*
X133580550Y-55475051D01*
X138279550Y-54078051D02*
X138381150Y-54078051D01*
X129338750Y-53443051D02*
X140819550Y-53443051D01*
X136399950Y-55627451D02*
X140819550Y-55627451D01*
X135561750Y-54001851D02*
X135841150Y-54001851D01*
X132158150Y-54001851D02*
X132335950Y-54001851D01*
X131878750Y-55652851D02*
X132031150Y-55652851D01*
X134571150Y-55475051D02*
X134774350Y-55475051D01*
X132081950Y-55576651D02*
X132259750Y-55576651D01*
X133478950Y-53849451D02*
X133783750Y-53849451D01*
X133656750Y-55500451D02*
X133758350Y-55500451D01*
X132107350Y-54763851D02*
X132158150Y-54763851D01*
X126417750Y-54382851D02*
X127255950Y-54382851D01*
X134571150Y-54636851D02*
X134596550Y-54636851D01*
X133783750Y-54840051D02*
X133809150Y-54840051D01*
X128043350Y-54484451D02*
X128297350Y-54484451D01*
X139549550Y-54001851D02*
X139600350Y-54001851D01*
X135739550Y-53697051D02*
X135968150Y-53697051D01*
X128525950Y-55500451D02*
X128754550Y-55500451D01*
X138787550Y-54154251D02*
X138889150Y-54154251D01*
X135180750Y-54560651D02*
X135307750Y-54560651D01*
X128119550Y-55652851D02*
X128297350Y-55652851D01*
X135561750Y-54662251D02*
X140819550Y-54662251D01*
X136399950Y-55271851D02*
X140819550Y-55271851D01*
X128932350Y-53874851D02*
X129313350Y-53874851D01*
X128525950Y-55246451D02*
X128779950Y-55246451D01*
X135460150Y-55652851D02*
X135612550Y-55652851D01*
X139854350Y-53697051D02*
X140819550Y-53697051D01*
X133910750Y-54001851D02*
X134113950Y-54001851D01*
X134545750Y-55373451D02*
X134774350Y-55373451D01*
X128068750Y-55627451D02*
X128322750Y-55627451D01*
X135815750Y-53773251D02*
X135891950Y-53773251D01*
X126417750Y-55246451D02*
X127332150Y-55246451D01*
X131853350Y-55373451D02*
X131954950Y-55373451D01*
X138000150Y-53951051D02*
X138381150Y-53951051D01*
X138787550Y-54103451D02*
X138889150Y-54103451D01*
X128017950Y-53976451D02*
X128322750Y-53976451D01*
X138482750Y-54001851D02*
X138558950Y-54001851D01*
X134621950Y-55627451D02*
X134774350Y-55627451D01*
X132691550Y-53951051D02*
X132793150Y-53951051D01*
X133148750Y-54662251D02*
X133174150Y-54662251D01*
X137822350Y-54128851D02*
X137949350Y-54128851D01*
X129745150Y-55576651D02*
X130583350Y-55576651D01*
X137238150Y-53824051D02*
X137441350Y-53824051D01*
X131497750Y-53976451D02*
X131624750Y-53976451D01*
X130989750Y-54611451D02*
X131065950Y-54611451D01*
X136907950Y-53798651D02*
X137111150Y-53798651D01*
X137822350Y-54052651D02*
X137898550Y-54052651D01*
X138076350Y-54052651D02*
X138127150Y-54052651D01*
X135891950Y-55652851D02*
X135993550Y-55652851D01*
X134139350Y-55271851D02*
X134342550Y-55271851D01*
X126417750Y-55475051D02*
X127459150Y-55475051D01*
X130938950Y-55602051D02*
X131015150Y-55602051D01*
X131294550Y-53824051D02*
X131370750Y-53824051D01*
X128957750Y-54890851D02*
X129313350Y-54890851D01*
X133555150Y-54535251D02*
X133809150Y-54535251D01*
X139016150Y-54001851D02*
X139117750Y-54001851D01*
X133910750Y-54103451D02*
X134113950Y-54103451D01*
X135053750Y-53798651D02*
X135434750Y-53798651D01*
X128068750Y-54992451D02*
X128271950Y-54992451D01*
X131192950Y-54586051D02*
X131675550Y-54586051D01*
X132335950Y-55271851D02*
X132462950Y-55271851D01*
X139905150Y-53798651D02*
X140819550Y-53798651D01*
X135968150Y-53951051D02*
X136171350Y-53951051D01*
X128602150Y-54662251D02*
X128703750Y-54662251D01*
X129364150Y-55906851D02*
X140819550Y-55906851D01*
X135612550Y-54789251D02*
X140819550Y-54789251D01*
X129922950Y-55297251D02*
X130583350Y-55297251D01*
X126417750Y-55805251D02*
X127763950Y-55805251D01*
X136272950Y-53747851D02*
X136374550Y-53747851D01*
X135053750Y-54128851D02*
X135434750Y-54128851D01*
X134139350Y-55678251D02*
X134190150Y-55678251D01*
X130710350Y-54789251D02*
X130837350Y-54789251D01*
X132107350Y-55602051D02*
X132208950Y-55602051D01*
X132310550Y-55246451D02*
X132462950Y-55246451D01*
X133936150Y-54662251D02*
X134088550Y-54662251D01*
X134393350Y-55424251D02*
X134469550Y-55424251D01*
X134393350Y-55398851D02*
X134444150Y-55398851D01*
X132462950Y-54027251D02*
X132793150Y-54027251D01*
X135460150Y-55627451D02*
X135561750Y-55627451D01*
X138533550Y-53722451D02*
X138660550Y-53722451D01*
X139778150Y-53900251D02*
X139803550Y-53900251D01*
X137669950Y-53620851D02*
X140819550Y-53620851D01*
X129948350Y-55246451D02*
X130583350Y-55246451D01*
X126417750Y-52681051D02*
X140819550Y-52681051D01*
X138787550Y-53798651D02*
X138889150Y-53798651D01*
X135155350Y-54586051D02*
X135307750Y-54586051D01*
X126417750Y-54103451D02*
X127357550Y-54103451D01*
X135790350Y-53951051D02*
X135841150Y-53951051D01*
X131116750Y-55551251D02*
X131294550Y-55551251D01*
X128475150Y-54814651D02*
X128830750Y-54814651D01*
X134723550Y-54890851D02*
X134926750Y-54890851D01*
X134444150Y-54840051D02*
X134545750Y-54840051D01*
X131751750Y-53747851D02*
X131853350Y-53747851D01*
X137796950Y-53747851D02*
X137923950Y-53747851D01*
X130049950Y-54560651D02*
X130583350Y-54560651D01*
X126417750Y-53112851D02*
X140819550Y-53112851D01*
X134901350Y-55424251D02*
X135104550Y-55424251D01*
X132310550Y-54713051D02*
X132386750Y-54713051D01*
X132539150Y-54738451D02*
X132691550Y-54738451D01*
X135637950Y-54865451D02*
X140819550Y-54865451D01*
X138787550Y-54027251D02*
X138889150Y-54027251D01*
X132970950Y-55271851D02*
X133250350Y-55271851D01*
X128475150Y-54840051D02*
X128830750Y-54840051D01*
X131218350Y-53722451D02*
X131370750Y-53722451D01*
X132335950Y-54636851D02*
X132361350Y-54636851D01*
X129795950Y-53849451D02*
X130583350Y-53849451D01*
X129618150Y-55729051D02*
X140819550Y-55729051D01*
X135561750Y-54636851D02*
X140819550Y-54636851D01*
X126417750Y-54027251D02*
X127382950Y-54027251D01*
X129668950Y-55678251D02*
X130583350Y-55678251D01*
X133656750Y-53747851D02*
X133783750Y-53747851D01*
X133529750Y-55678251D02*
X133758350Y-55678251D01*
X129999150Y-54281251D02*
X140819550Y-54281251D01*
X135637950Y-55475051D02*
X135993550Y-55475051D01*
X129313350Y-55932251D02*
X140819550Y-55932251D01*
X128144950Y-54535251D02*
X128195750Y-54535251D01*
X132691550Y-53900251D02*
X132793150Y-53900251D01*
X133555150Y-54713051D02*
X133809150Y-54713051D01*
X131497750Y-53900251D02*
X131624750Y-53900251D01*
X133428150Y-53798651D02*
X133529750Y-53798651D01*
X129643550Y-53671651D02*
X140819550Y-53671651D01*
X134723550Y-54814651D02*
X134926750Y-54814651D01*
X134240950Y-54154251D02*
X134342550Y-54154251D01*
X126417750Y-54484451D02*
X127255950Y-54484451D01*
X131878750Y-55678251D02*
X132056550Y-55678251D01*
X130964350Y-55500451D02*
X131040550Y-55500451D01*
X129897550Y-55348051D02*
X130583350Y-55348051D01*
X134774350Y-54027251D02*
X134926750Y-54027251D01*
X126417750Y-53290651D02*
X128373550Y-53290651D01*
X139701950Y-54128851D02*
X139879750Y-54128851D01*
X126417750Y-54001851D02*
X127408350Y-54001851D01*
X135028350Y-55271851D02*
X135104550Y-55271851D01*
X129922950Y-54052651D02*
X130583350Y-54052651D01*
X127992550Y-53798651D02*
X128322750Y-53798651D01*
X135587150Y-54713051D02*
X140819550Y-54713051D01*
X136907950Y-53976451D02*
X137111150Y-53976451D01*
X129033950Y-54992451D02*
X129237150Y-54992451D01*
X130710350Y-54636851D02*
X130862750Y-54636851D01*
X134240950Y-54027251D02*
X134367950Y-54027251D01*
X134901350Y-55500451D02*
X135104550Y-55500451D01*
X131497750Y-54052651D02*
X131624750Y-54052651D01*
X135028350Y-55246451D02*
X135104550Y-55246451D01*
X136120550Y-55602051D02*
X136272950Y-55602051D01*
X133275750Y-54560651D02*
X133428150Y-54560651D01*
X133555150Y-54687651D02*
X133809150Y-54687651D01*
X133199550Y-53798651D02*
X133301150Y-53798651D01*
X132539150Y-55398851D02*
X132894750Y-55398851D01*
X132005750Y-54916251D02*
X132107350Y-54916251D01*
X134723550Y-54560651D02*
X134825150Y-54560651D01*
X136272950Y-53773251D02*
X136374550Y-53773251D01*
X134723550Y-54687651D02*
X134901350Y-54687651D01*
X126417750Y-52706451D02*
X140819550Y-52706451D01*
X134596550Y-55551251D02*
X134774350Y-55551251D01*
X126417750Y-56694251D02*
X140819550Y-56694251D01*
X130024550Y-54306651D02*
X140819550Y-54306651D01*
X131192950Y-54789251D02*
X131675550Y-54789251D01*
X126417750Y-54789251D02*
X127230550Y-54789251D01*
X131294550Y-55322651D02*
X131472350Y-55322651D01*
X132970950Y-54535251D02*
X133072550Y-54535251D01*
X136399950Y-55576651D02*
X140819550Y-55576651D01*
X133834550Y-55576651D02*
X133986950Y-55576651D01*
X128271950Y-55424251D02*
X128398950Y-55424251D01*
X136298350Y-53798651D02*
X136374550Y-53798651D01*
X127992550Y-53824051D02*
X128348150Y-53824051D01*
X133631350Y-55322651D02*
X133758350Y-55322651D01*
X131954950Y-53697051D02*
X132132750Y-53697051D01*
X133199550Y-54001851D02*
X133275750Y-54001851D01*
X135866550Y-55221051D02*
X135993550Y-55221051D01*
X136399950Y-55348051D02*
X140819550Y-55348051D01*
X129999150Y-54255851D02*
X140819550Y-54255851D01*
X139752750Y-53951051D02*
X139828950Y-53951051D01*
X126417750Y-55271851D02*
X127357550Y-55271851D01*
X126417750Y-52935051D02*
X140819550Y-52935051D01*
X128754550Y-55373451D02*
X128830750Y-55373451D01*
X126417750Y-55424251D02*
X127433750Y-55424251D01*
X126417750Y-52782651D02*
X140819550Y-52782651D01*
X132107350Y-54586051D02*
X132234350Y-54586051D01*
X128932350Y-54357451D02*
X129313350Y-54357451D01*
X137238150Y-53798651D02*
X137441350Y-53798651D01*
X134494950Y-55271851D02*
X134647350Y-55271851D01*
X130024550Y-55068651D02*
X140819550Y-55068651D01*
X135129950Y-54636851D02*
X135282350Y-54636851D01*
X130989750Y-54662251D02*
X131065950Y-54662251D01*
X133986950Y-55424251D02*
X134063150Y-55424251D01*
X136501550Y-53900251D02*
X136780950Y-53900251D01*
X127992550Y-53951051D02*
X128322750Y-53951051D01*
X130989750Y-54687651D02*
X131065950Y-54687651D01*
X131980350Y-53722451D02*
X132107350Y-53722451D01*
X135231550Y-54484451D02*
X135333150Y-54484451D01*
X126417750Y-56567251D02*
X140819550Y-56567251D01*
X130989750Y-53951051D02*
X131091350Y-53951051D01*
X133199550Y-53849451D02*
X133301150Y-53849451D01*
X139955950Y-53925651D02*
X140819550Y-53925651D01*
X128017950Y-55475051D02*
X128119550Y-55475051D01*
X134215550Y-54687651D02*
X134317150Y-54687651D01*
X133859950Y-55246451D02*
X134063150Y-55246451D01*
X126417750Y-56059251D02*
X128297350Y-56059251D01*
X139016150Y-53824051D02*
X139117750Y-53824051D01*
X128271950Y-55525851D02*
X128398950Y-55525851D01*
X137568350Y-54001851D02*
X137873150Y-54001851D01*
X135053750Y-54916251D02*
X135180750Y-54916251D01*
X137568350Y-53798651D02*
X137873150Y-53798651D01*
X132539150Y-54763851D02*
X132691550Y-54763851D01*
X137568350Y-54027251D02*
X137873150Y-54027251D01*
X137390550Y-53773251D02*
X137441350Y-53773251D01*
X128932350Y-53900251D02*
X129313350Y-53900251D01*
X139549550Y-53798651D02*
X139676550Y-53798651D01*
X128043350Y-54967051D02*
X128297350Y-54967051D01*
X126417750Y-54662251D02*
X127230550Y-54662251D01*
X130710350Y-54611451D02*
X130862750Y-54611451D01*
X139244750Y-53925651D02*
X139651150Y-53925651D01*
X129973750Y-55170251D02*
X140819550Y-55170251D01*
X130710350Y-54763851D02*
X130862750Y-54763851D01*
X132031150Y-55475051D02*
X132462950Y-55475051D01*
X133910750Y-54052651D02*
X134113950Y-54052651D01*
X136044350Y-53798651D02*
X136120550Y-53798651D01*
X133148750Y-54687651D02*
X133174150Y-54687651D01*
X132285150Y-55221051D02*
X132462950Y-55221051D01*
X134901350Y-55627451D02*
X135104550Y-55627451D01*
X134723550Y-54916251D02*
X134926750Y-54916251D01*
X128729150Y-55322651D02*
X128830750Y-55322651D01*
X132970950Y-54509851D02*
X133072550Y-54509851D01*
X127967150Y-53874851D02*
X128348150Y-53874851D01*
X136018950Y-54027251D02*
X136145950Y-54027251D01*
X139778150Y-53925651D02*
X139828950Y-53925651D01*
X126417750Y-53798651D02*
X127535350Y-53798651D01*
X132920150Y-53824051D02*
X133072550Y-53824051D01*
X135409350Y-54662251D02*
X135434750Y-54662251D01*
X138787550Y-54128851D02*
X138889150Y-54128851D01*
X131853350Y-55551251D02*
X131954950Y-55551251D01*
X128094150Y-54179651D02*
X128221150Y-54179651D01*
X131319950Y-53874851D02*
X131370750Y-53874851D01*
X136907950Y-53849451D02*
X137111150Y-53849451D01*
X134901350Y-55322651D02*
X135104550Y-55322651D01*
X129033950Y-55627451D02*
X129262550Y-55627451D01*
X131192950Y-53951051D02*
X131218350Y-53951051D01*
X133555150Y-54611451D02*
X133809150Y-54611451D01*
X132081950Y-54840051D02*
X132132750Y-54840051D01*
X126417750Y-54890851D02*
X127255950Y-54890851D01*
X138279550Y-53773251D02*
X138381150Y-53773251D01*
X136907950Y-53951051D02*
X137111150Y-53951051D01*
X133351950Y-54763851D02*
X133428150Y-54763851D01*
X131116750Y-55576651D02*
X131294550Y-55576651D01*
X135053750Y-54078051D02*
X135434750Y-54078051D01*
X132031150Y-55398851D02*
X132462950Y-55398851D01*
X128475150Y-54357451D02*
X128830750Y-54357451D01*
X133834550Y-55424251D02*
X133885350Y-55424251D01*
X129922950Y-54078051D02*
X130583350Y-54078051D01*
X136501550Y-53874851D02*
X136780950Y-53874851D01*
X135561750Y-54154251D02*
X135993550Y-54154251D01*
X129643550Y-55703651D02*
X140819550Y-55703651D01*
X133885350Y-55271851D02*
X134063150Y-55271851D01*
X133123350Y-54713051D02*
X133199550Y-54713051D01*
X126417750Y-53468451D02*
X127916350Y-53468451D01*
X126417750Y-53570051D02*
X127763950Y-53570051D01*
X130938950Y-55271851D02*
X131142150Y-55271851D01*
X126417750Y-54433651D02*
X127255950Y-54433651D01*
X132920150Y-54052651D02*
X133072550Y-54052651D01*
X136399950Y-55322651D02*
X140819550Y-55322651D01*
X133834550Y-55449651D02*
X133885350Y-55449651D01*
X133199550Y-55652851D02*
X133301150Y-55652851D01*
X138000150Y-54001851D02*
X138177950Y-54001851D01*
X139016150Y-53874851D02*
X139117750Y-53874851D01*
X130989750Y-54560651D02*
X131065950Y-54560651D01*
X128525950Y-55602051D02*
X128602150Y-55602051D01*
X133301150Y-55373451D02*
X133555150Y-55373451D01*
X135434750Y-55398851D02*
X135510950Y-55398851D01*
X129033950Y-54687651D02*
X129237150Y-54687651D01*
X128957750Y-55398851D02*
X129059350Y-55398851D01*
X134215550Y-54763851D02*
X134317150Y-54763851D01*
X134494950Y-54103451D02*
X134647350Y-54103451D01*
X132818550Y-54687651D02*
X132996350Y-54687651D01*
X135993550Y-53824051D02*
X136145950Y-53824051D01*
X135460150Y-55602051D02*
X135561750Y-55602051D01*
X135104550Y-54687651D02*
X135256950Y-54687651D01*
X128017950Y-55373451D02*
X128119550Y-55373451D01*
X139549550Y-53849451D02*
X139676550Y-53849451D01*
X136120550Y-55246451D02*
X136272950Y-55246451D01*
X139701950Y-54154251D02*
X139905150Y-54154251D01*
X135053750Y-53951051D02*
X135434750Y-53951051D01*
X138787550Y-53773251D02*
X138889150Y-53773251D01*
X130989750Y-53773251D02*
X131091350Y-53773251D01*
X135764950Y-53976451D02*
X135841150Y-53976451D01*
X126417750Y-52630251D02*
X140819550Y-52630251D01*
X131751750Y-53874851D02*
X131878750Y-53874851D01*
X139016150Y-54027251D02*
X139117750Y-54027251D01*
X131497750Y-53722451D02*
X131624750Y-53722451D01*
X133275750Y-54611451D02*
X133428150Y-54611451D01*
X132056550Y-55551251D02*
X132259750Y-55551251D01*
X135536350Y-54611451D02*
X140819550Y-54611451D01*
X128017950Y-54230451D02*
X128297350Y-54230451D01*
X128957750Y-53849451D02*
X129313350Y-53849451D01*
X130049950Y-54941651D02*
X140819550Y-54941651D01*
X133301150Y-55424251D02*
X133580550Y-55424251D01*
X135968150Y-53900251D02*
X136196750Y-53900251D01*
X128043350Y-55602051D02*
X128348150Y-55602051D01*
X133834550Y-55627451D02*
X134012350Y-55627451D01*
X132031150Y-55373451D02*
X132462950Y-55373451D01*
X132361350Y-55500451D02*
X132462950Y-55500451D01*
X128983150Y-56059251D02*
X140819550Y-56059251D01*
X134901350Y-55449651D02*
X135104550Y-55449651D01*
X134723550Y-54459051D02*
X134774350Y-54459051D01*
X136501550Y-54027251D02*
X136780950Y-54027251D01*
X131192950Y-54611451D02*
X131675550Y-54611451D01*
X139498750Y-54103451D02*
X139574950Y-54103451D01*
X135460150Y-55678251D02*
X135637950Y-55678251D01*
X131319950Y-55398851D02*
X131472350Y-55398851D01*
X135333150Y-54840051D02*
X135485550Y-54840051D01*
X130710350Y-53722451D02*
X130862750Y-53722451D01*
X128983150Y-53976451D02*
X129287950Y-53976451D01*
X135815750Y-53925651D02*
X135841150Y-53925651D01*
X132691550Y-53773251D02*
X132793150Y-53773251D01*
X138787550Y-53697051D02*
X138889150Y-53697051D01*
X134367950Y-53697051D02*
X134494950Y-53697051D01*
X129973750Y-54179651D02*
X140819550Y-54179651D01*
X133174150Y-53722451D02*
X133326550Y-53722451D01*
X126417750Y-56033851D02*
X128221150Y-56033851D01*
X131573950Y-55678251D02*
X131777150Y-55678251D01*
X127967150Y-54840051D02*
X128348150Y-54840051D01*
X138000150Y-53976451D02*
X138177950Y-53976451D01*
X126417750Y-52858851D02*
X140819550Y-52858851D01*
X139016150Y-53951051D02*
X139117750Y-53951051D01*
X135688750Y-55551251D02*
X135815750Y-55551251D01*
X132031150Y-54459051D02*
X132285150Y-54459051D01*
X132081950Y-54535251D02*
X132259750Y-54535251D01*
X131192950Y-54128851D02*
X131345350Y-54128851D01*
X131853350Y-55627451D02*
X131980350Y-55627451D01*
X133783750Y-54814651D02*
X133809150Y-54814651D01*
X128983150Y-54738451D02*
X129287950Y-54738451D01*
X135637950Y-54890851D02*
X140819550Y-54890851D01*
X131421550Y-55652851D02*
X131472350Y-55652851D01*
X130075350Y-54687651D02*
X130583350Y-54687651D01*
X130862750Y-55678251D02*
X130989750Y-55678251D01*
X133631350Y-55297251D02*
X133758350Y-55297251D01*
X133555150Y-54484451D02*
X133809150Y-54484451D01*
X132716950Y-54078051D02*
X132793150Y-54078051D01*
X128602150Y-53697051D02*
X128703750Y-53697051D01*
X126417750Y-53316051D02*
X128271950Y-53316051D01*
X135053750Y-54789251D02*
X135231550Y-54789251D01*
X135714150Y-55576651D02*
X135764950Y-55576651D01*
X129973750Y-54154251D02*
X130659550Y-54154251D01*
X131827950Y-55424251D02*
X131929550Y-55424251D01*
X129973750Y-55221051D02*
X130583350Y-55221051D01*
X137390550Y-53747851D02*
X137441350Y-53747851D01*
X132716950Y-54052651D02*
X132793150Y-54052651D01*
X133910750Y-53697051D02*
X133961550Y-53697051D01*
X132539150Y-55348051D02*
X132894750Y-55348051D01*
X140006750Y-54103451D02*
X140819550Y-54103451D01*
X135942750Y-55576651D02*
X135993550Y-55576651D01*
X132335950Y-55602051D02*
X132462950Y-55602051D01*
X132234350Y-53773251D02*
X132335950Y-53773251D01*
X128525950Y-55297251D02*
X128830750Y-55297251D01*
X132691550Y-53697051D02*
X132793150Y-53697051D01*
X134240950Y-53976451D02*
X134393350Y-53976451D01*
X128627550Y-54535251D02*
X128678350Y-54535251D01*
X132539150Y-55373451D02*
X132894750Y-55373451D01*
X130989750Y-54636851D02*
X131065950Y-54636851D01*
X135155350Y-54611451D02*
X135282350Y-54611451D01*
X139270150Y-53824051D02*
X139397150Y-53824051D01*
X133580550Y-55652851D02*
X133758350Y-55652851D01*
X139955950Y-53951051D02*
X140819550Y-53951051D01*
X134444150Y-54916251D02*
X134596550Y-54916251D01*
X130964350Y-55551251D02*
X131015150Y-55551251D01*
X133783750Y-54916251D02*
X133910750Y-54916251D01*
X128525950Y-55271851D02*
X128805350Y-55271851D01*
X129592750Y-53620851D02*
X137542950Y-53620851D01*
X135815750Y-53900251D02*
X135841150Y-53900251D01*
X139727350Y-54078051D02*
X139879750Y-54078051D01*
X130888150Y-54154251D02*
X131091350Y-54154251D01*
X132818550Y-54586051D02*
X133047150Y-54586051D01*
X128983150Y-53773251D02*
X129287950Y-53773251D01*
X132056550Y-55525851D02*
X132285150Y-55525851D01*
X131802550Y-54636851D02*
X132208950Y-54636851D01*
X132183550Y-53951051D02*
X132335950Y-53951051D01*
X126417750Y-53189051D02*
X140819550Y-53189051D01*
X138787550Y-54001851D02*
X138889150Y-54001851D01*
X131421550Y-54484451D02*
X131751750Y-54484451D01*
X136323750Y-53900251D02*
X136374550Y-53900251D01*
X138787550Y-53747851D02*
X138889150Y-53747851D01*
X136907950Y-53697051D02*
X136984150Y-53697051D01*
X139981350Y-53976451D02*
X140819550Y-53976451D01*
X129110150Y-53341451D02*
X140819550Y-53341451D01*
X126417750Y-55551251D02*
X127509950Y-55551251D01*
X133936150Y-54789251D02*
X134063150Y-54789251D01*
X131853350Y-55348051D02*
X131954950Y-55348051D01*
X136399950Y-55500451D02*
X140819550Y-55500451D01*
X133555150Y-54636851D02*
X133809150Y-54636851D01*
X135053750Y-53925651D02*
X135434750Y-53925651D01*
X128017950Y-55348051D02*
X128119550Y-55348051D01*
X128475150Y-54865451D02*
X128830750Y-54865451D01*
X134240950Y-53849451D02*
X134444150Y-53849451D01*
X131751750Y-54103451D02*
X131954950Y-54103451D01*
X139524150Y-54052651D02*
X139600350Y-54052651D01*
X134520350Y-54560651D02*
X134596550Y-54560651D01*
X129008550Y-53747851D02*
X129262550Y-53747851D01*
X133936150Y-54687651D02*
X134088550Y-54687651D01*
X129668950Y-53697051D02*
X130583350Y-53697051D01*
X129999150Y-55144851D02*
X140819550Y-55144851D01*
X130913550Y-54484451D02*
X131065950Y-54484451D01*
X129084750Y-56033851D02*
X140819550Y-56033851D01*
X137822350Y-54103451D02*
X137923950Y-54103451D01*
X126417750Y-53976451D02*
X127408350Y-53976451D01*
X132970950Y-55525851D02*
X133224950Y-55525851D01*
X133910750Y-53925651D02*
X134113950Y-53925651D01*
X133961550Y-55398851D02*
X134063150Y-55398851D01*
X131573950Y-55348051D02*
X131777150Y-55348051D01*
X128957750Y-53798651D02*
X129287950Y-53798651D01*
X136907950Y-53722451D02*
X136984150Y-53722451D01*
X136298350Y-54001851D02*
X136374550Y-54001851D01*
X126417750Y-55881451D02*
X127890950Y-55881451D01*
X128729150Y-55398851D02*
X128830750Y-55398851D01*
X129592750Y-55754451D02*
X140819550Y-55754451D01*
X134596550Y-55525851D02*
X134774350Y-55525851D01*
X131421550Y-54916251D02*
X131802550Y-54916251D01*
X131573950Y-55322651D02*
X131751750Y-55322651D01*
X126417750Y-55094051D02*
X127281350Y-55094051D01*
X134672750Y-53773251D02*
X134774350Y-53773251D01*
X128017950Y-55576651D02*
X128144950Y-55576651D01*
X135993550Y-53976451D02*
X136171350Y-53976451D01*
X126417750Y-55195651D02*
X127332150Y-55195651D01*
X135460150Y-55221051D02*
X135637950Y-55221051D01*
X129008550Y-54967051D02*
X129262550Y-54967051D01*
X129033950Y-54027251D02*
X129237150Y-54027251D01*
X126417750Y-54332051D02*
X127281350Y-54332051D01*
X133936150Y-55348051D02*
X134063150Y-55348051D01*
X133301150Y-55525851D02*
X133555150Y-55525851D01*
X136120550Y-55627451D02*
X136272950Y-55627451D01*
X126417750Y-53011251D02*
X140819550Y-53011251D01*
X130710350Y-53976451D02*
X130862750Y-53976451D01*
X136247550Y-54103451D02*
X136374550Y-54103451D01*
X128017950Y-55322651D02*
X128119550Y-55322651D01*
X133428150Y-53824051D02*
X133529750Y-53824051D01*
X134901350Y-55551251D02*
X135104550Y-55551251D01*
X138787550Y-54052651D02*
X138889150Y-54052651D01*
X131497750Y-53773251D02*
X131624750Y-53773251D01*
X138304950Y-53849451D02*
X138381150Y-53849451D01*
X131573950Y-55627451D02*
X131777150Y-55627451D01*
X126417750Y-56516451D02*
X140819550Y-56516451D01*
X139930550Y-53900251D02*
X140819550Y-53900251D01*
X128525950Y-54713051D02*
X128779950Y-54713051D01*
X135231550Y-55322651D02*
X135536350Y-55322651D01*
X133072550Y-54890851D02*
X133250350Y-54890851D01*
X135561750Y-54027251D02*
X135866550Y-54027251D01*
X130964350Y-54052651D02*
X131091350Y-54052651D01*
X131497750Y-53925651D02*
X131624750Y-53925651D01*
X132107350Y-54560651D02*
X132259750Y-54560651D01*
X134139350Y-55449651D02*
X134291750Y-55449651D01*
X126417750Y-56287851D02*
X140819550Y-56287851D01*
X130049950Y-54789251D02*
X130583350Y-54789251D01*
X126417750Y-56643451D02*
X140819550Y-56643451D01*
X134647350Y-55652851D02*
X134774350Y-55652851D01*
X136730150Y-54078051D02*
X136780950Y-54078051D01*
X131319950Y-55373451D02*
X131472350Y-55373451D01*
X138482750Y-53925651D02*
X138508150Y-53925651D01*
X134444150Y-54890851D02*
X134571150Y-54890851D01*
X129110150Y-55221051D02*
X129211750Y-55221051D01*
X133402750Y-54027251D02*
X133555150Y-54027251D01*
X129999150Y-55119451D02*
X140819550Y-55119451D01*
X134723550Y-53900251D02*
X134926750Y-53900251D01*
X135434750Y-55449651D02*
X135510950Y-55449651D01*
X128525950Y-55551251D02*
X128602150Y-55551251D01*
X132361350Y-55551251D02*
X132462950Y-55551251D01*
X129821350Y-53900251D02*
X130583350Y-53900251D01*
X136399950Y-55297251D02*
X140819550Y-55297251D01*
X133910750Y-53798651D02*
X134113950Y-53798651D01*
X133402750Y-54916251D02*
X133428150Y-54916251D01*
X130964350Y-54078051D02*
X131091350Y-54078051D01*
X126417750Y-55017851D02*
X127281350Y-55017851D01*
X138635150Y-53900251D02*
X138660550Y-53900251D01*
X129973750Y-55195651D02*
X140819550Y-55195651D01*
X134723550Y-54509851D02*
X134799750Y-54509851D01*
X132818550Y-54611451D02*
X133021750Y-54611451D01*
X126417750Y-56440251D02*
X140819550Y-56440251D01*
X135485550Y-54459051D02*
X140819550Y-54459051D01*
X132132750Y-54078051D02*
X132335950Y-54078051D01*
X134901350Y-55398851D02*
X135104550Y-55398851D01*
X131421550Y-54535251D02*
X131700950Y-54535251D01*
X139016150Y-54154251D02*
X139244750Y-54154251D01*
X126417750Y-55449651D02*
X127459150Y-55449651D01*
X129821350Y-55500451D02*
X130583350Y-55500451D01*
X134952150Y-54509851D02*
X135053750Y-54509851D01*
X127992550Y-54814651D02*
X128348150Y-54814651D01*
X139244750Y-53900251D02*
X139651150Y-53900251D01*
X131751750Y-53951051D02*
X131904150Y-53951051D01*
X140006750Y-54078051D02*
X140819550Y-54078051D01*
X133351950Y-54789251D02*
X133428150Y-54789251D01*
X136323750Y-53976451D02*
X136374550Y-53976451D01*
X129287950Y-55957651D02*
X140819550Y-55957651D01*
X137568350Y-53824051D02*
X137873150Y-53824051D01*
X132818550Y-54662251D02*
X133021750Y-54662251D01*
X133631350Y-53900251D02*
X133783750Y-53900251D01*
X131751750Y-53976451D02*
X131904150Y-53976451D01*
X139016150Y-53722451D02*
X139193950Y-53722451D01*
X135790350Y-53722451D02*
X135917350Y-53722451D01*
X126417750Y-53925651D02*
X127433750Y-53925651D01*
X130710350Y-53900251D02*
X130862750Y-53900251D01*
X126417750Y-52985851D02*
X140819550Y-52985851D01*
X137238150Y-54103451D02*
X137441350Y-54103451D01*
X133199550Y-53976451D02*
X133478950Y-53976451D01*
X129414950Y-55881451D02*
X140819550Y-55881451D01*
X134698150Y-53849451D02*
X134926750Y-53849451D01*
X129948350Y-54103451D02*
X130608750Y-54103451D01*
X136730150Y-54052651D02*
X136780950Y-54052651D01*
X132970950Y-55373451D02*
X133224950Y-55373451D01*
X129821350Y-55475051D02*
X130583350Y-55475051D01*
X126417750Y-56745051D02*
X140819550Y-56745051D01*
X126417750Y-55576651D02*
X127535350Y-55576651D01*
X132539150Y-55551251D02*
X132894750Y-55551251D01*
X130075350Y-54636851D02*
X130583350Y-54636851D01*
X132031150Y-55449651D02*
X132462950Y-55449651D01*
X131192950Y-54078051D02*
X131319950Y-54078051D01*
X134215550Y-54713051D02*
X134317150Y-54713051D01*
X138787550Y-53951051D02*
X138889150Y-53951051D01*
X126417750Y-56592651D02*
X140819550Y-56592651D01*
X131269150Y-53798651D02*
X131370750Y-53798651D01*
X135968150Y-53874851D02*
X136171350Y-53874851D01*
X133301150Y-54636851D02*
X133428150Y-54636851D01*
X126417750Y-56618051D02*
X140819550Y-56618051D01*
X128525950Y-53747851D02*
X128779950Y-53747851D01*
X126417750Y-56338651D02*
X140819550Y-56338651D01*
X133936150Y-54586051D02*
X134088550Y-54586051D01*
X131802550Y-54611451D02*
X131980350Y-54611451D01*
X130913550Y-55246451D02*
X131142150Y-55246451D01*
X135231550Y-55348051D02*
X135536350Y-55348051D01*
X129541950Y-55779851D02*
X140819550Y-55779851D01*
X139549550Y-54027251D02*
X139600350Y-54027251D01*
X134215550Y-54611451D02*
X134317150Y-54611451D01*
X126417750Y-55373451D02*
X127408350Y-55373451D01*
X126417750Y-55068651D02*
X127281350Y-55068651D01*
X133224950Y-54459051D02*
X133428150Y-54459051D01*
X134139350Y-55424251D02*
X134291750Y-55424251D01*
X134215550Y-54814651D02*
X134317150Y-54814651D01*
X128957750Y-54789251D02*
X129313350Y-54789251D01*
X135460150Y-55576651D02*
X135536350Y-55576651D01*
X134926750Y-54459051D02*
X135079150Y-54459051D01*
X133936150Y-54484451D02*
X134088550Y-54484451D01*
X128475150Y-53798651D02*
X128830750Y-53798651D01*
X135587150Y-54738451D02*
X140819550Y-54738451D01*
X131497750Y-54128851D02*
X131624750Y-54128851D01*
X137238150Y-53900251D02*
X137441350Y-53900251D01*
X134240950Y-53824051D02*
X134444150Y-53824051D01*
X128551350Y-54027251D02*
X128754550Y-54027251D01*
X134139350Y-55322651D02*
X134342550Y-55322651D01*
X139905150Y-53824051D02*
X140819550Y-53824051D01*
X126417750Y-53163651D02*
X140819550Y-53163651D01*
X126417750Y-54128851D02*
X127332150Y-54128851D01*
X130024550Y-54382851D02*
X140819550Y-54382851D01*
X138482750Y-54103451D02*
X138609750Y-54103451D01*
X129059350Y-55246451D02*
X129262550Y-55246451D01*
X126417750Y-54916251D02*
X127255950Y-54916251D01*
X132031150Y-55424251D02*
X132462950Y-55424251D01*
X128475150Y-54382851D02*
X128830750Y-54382851D01*
X135917350Y-55627451D02*
X135993550Y-55627451D01*
X131777150Y-55221051D02*
X132056550Y-55221051D01*
X133377350Y-54840051D02*
X133428150Y-54840051D01*
X132335950Y-55627451D02*
X132462950Y-55627451D01*
X130659550Y-55348051D02*
X130862750Y-55348051D01*
X133910750Y-53874851D02*
X134113950Y-53874851D01*
X129008550Y-54713051D02*
X129262550Y-54713051D01*
X135053750Y-54840051D02*
X135206150Y-54840051D01*
X126417750Y-53595451D02*
X127738550Y-53595451D01*
X134748950Y-53976451D02*
X134926750Y-53976451D01*
X135307750Y-54890851D02*
X135510950Y-54890851D01*
X133047150Y-54916251D02*
X133250350Y-54916251D01*
X134545750Y-53951051D02*
X134596550Y-53951051D01*
X132920150Y-54154251D02*
X133097950Y-54154251D01*
X134215550Y-54662251D02*
X134317150Y-54662251D01*
X135917350Y-55271851D02*
X135993550Y-55271851D01*
X138050950Y-53798651D02*
X138127150Y-53798651D01*
X128957750Y-54281251D02*
X129287950Y-54281251D01*
X134240950Y-54052651D02*
X134367950Y-54052651D01*
X139016150Y-53976451D02*
X139117750Y-53976451D01*
X132970950Y-55348051D02*
X133224950Y-55348051D01*
X135079150Y-54738451D02*
X135231550Y-54738451D01*
X136298350Y-54027251D02*
X136374550Y-54027251D01*
X134723550Y-54865451D02*
X134926750Y-54865451D01*
X127992550Y-54789251D02*
X128348150Y-54789251D01*
X131345350Y-55449651D02*
X131472350Y-55449651D01*
X134545750Y-53900251D02*
X134596550Y-53900251D01*
X126417750Y-53824051D02*
X127509950Y-53824051D01*
X131497750Y-54001851D02*
X131624750Y-54001851D01*
X134723550Y-54484451D02*
X134774350Y-54484451D01*
X135942750Y-55297251D02*
X135993550Y-55297251D01*
X134520350Y-55322651D02*
X134774350Y-55322651D01*
X139524150Y-53773251D02*
X139701950Y-53773251D01*
X134799750Y-54128851D02*
X134926750Y-54128851D01*
X138482750Y-53951051D02*
X138533550Y-53951051D01*
X139270150Y-54027251D02*
X139397150Y-54027251D01*
X129770550Y-53824051D02*
X130583350Y-53824051D01*
X131980350Y-53773251D02*
X132107350Y-53773251D01*
X139016150Y-53925651D02*
X139092350Y-53925651D01*
X126417750Y-53239851D02*
X140819550Y-53239851D01*
X132920150Y-54128851D02*
X133072550Y-54128851D01*
X126417750Y-53341451D02*
X128195750Y-53341451D01*
X132259750Y-53747851D02*
X132335950Y-53747851D01*
X134164750Y-54890851D02*
X134317150Y-54890851D01*
X126417750Y-55856051D02*
X127840150Y-55856051D01*
X131396150Y-54662251D02*
X131675550Y-54662251D01*
X130710350Y-54662251D02*
X130862750Y-54662251D01*
X127992550Y-54332051D02*
X128348150Y-54332051D01*
X132920150Y-53798651D02*
X133047150Y-53798651D01*
X129084750Y-54662251D02*
X129186350Y-54662251D01*
X137238150Y-53951051D02*
X137441350Y-53951051D01*
X131167550Y-55398851D02*
X131218350Y-55398851D01*
X126417750Y-55322651D02*
X127382950Y-55322651D01*
X134774350Y-54078051D02*
X134926750Y-54078051D01*
X131751750Y-53925651D02*
X131904150Y-53925651D01*
X134317150Y-55602051D02*
X134520350Y-55602051D01*
X131192950Y-53925651D02*
X131218350Y-53925651D01*
X133199550Y-53874851D02*
X133301150Y-53874851D01*
X133250350Y-54509851D02*
X133428150Y-54509851D01*
X128475150Y-53900251D02*
X128830750Y-53900251D01*
X131573950Y-55373451D02*
X131751750Y-55373451D01*
X134901350Y-55602051D02*
X135104550Y-55602051D01*
X134444150Y-54763851D02*
X134494950Y-54763851D01*
X133377350Y-55602051D02*
X133478950Y-55602051D01*
X126417750Y-54052651D02*
X127382950Y-54052651D01*
X130989750Y-54763851D02*
X131065950Y-54763851D01*
X133326550Y-55348051D02*
X133555150Y-55348051D01*
X130049950Y-54408251D02*
X140819550Y-54408251D01*
X130710350Y-53951051D02*
X130862750Y-53951051D01*
X133656750Y-53773251D02*
X133783750Y-53773251D01*
X134012350Y-55475051D02*
X134063150Y-55475051D01*
X128957750Y-54763851D02*
X129287950Y-54763851D01*
X130938950Y-55322651D02*
X131116750Y-55322651D01*
X129110150Y-54535251D02*
X129160950Y-54535251D01*
X130049950Y-54459051D02*
X130583350Y-54459051D01*
X134494950Y-55297251D02*
X134647350Y-55297251D01*
X136907950Y-53874851D02*
X137111150Y-53874851D01*
X126417750Y-56364051D02*
X140819550Y-56364051D01*
X138000150Y-53874851D02*
X138381150Y-53874851D01*
X132361350Y-55525851D02*
X132462950Y-55525851D01*
X132691550Y-53722451D02*
X132793150Y-53722451D01*
X130989750Y-54586051D02*
X131065950Y-54586051D01*
X139244750Y-53874851D02*
X139651150Y-53874851D01*
X128043350Y-54001851D02*
X128297350Y-54001851D01*
X133936150Y-54459051D02*
X134088550Y-54459051D01*
X129059350Y-54052651D02*
X129186350Y-54052651D01*
X136501550Y-53849451D02*
X136780950Y-53849451D01*
X131497750Y-54027251D02*
X131624750Y-54027251D01*
X135434750Y-55424251D02*
X135510950Y-55424251D01*
X131573950Y-55398851D02*
X131751750Y-55398851D01*
X128017950Y-55271851D02*
X128119550Y-55271851D01*
X134139350Y-55373451D02*
X134317150Y-55373451D01*
X129211750Y-55983051D02*
X140819550Y-55983051D01*
X134317150Y-55627451D02*
X134520350Y-55627451D01*
X138787550Y-53824051D02*
X138889150Y-53824051D01*
X132818550Y-54738451D02*
X132996350Y-54738451D01*
X135993550Y-54001851D02*
X136171350Y-54001851D01*
X126417750Y-55703651D02*
X127662350Y-55703651D01*
X131980350Y-53747851D02*
X132107350Y-53747851D01*
X128271950Y-55398851D02*
X128398950Y-55398851D01*
X133555150Y-54560651D02*
X133809150Y-54560651D01*
X128525950Y-54967051D02*
X128779950Y-54967051D01*
X133148750Y-53697051D02*
X133351950Y-53697051D01*
X133910750Y-54027251D02*
X134113950Y-54027251D01*
X126417750Y-53417651D02*
X127992550Y-53417651D01*
X128525950Y-55373451D02*
X128627550Y-55373451D01*
X128525950Y-54001851D02*
X128779950Y-54001851D01*
X134215550Y-54535251D02*
X134317150Y-54535251D01*
X131573950Y-55297251D02*
X131726350Y-55297251D01*
X131497750Y-54154251D02*
X131624750Y-54154251D01*
X129999150Y-54230451D02*
X140819550Y-54230451D01*
X126417750Y-56160851D02*
X140819550Y-56160851D01*
X132970950Y-55322651D02*
X133224950Y-55322651D01*
X130989750Y-53976451D02*
X131091350Y-53976451D01*
X128068750Y-54509851D02*
X128246550Y-54509851D01*
X128271950Y-55449651D02*
X128398950Y-55449651D01*
X126417750Y-53265251D02*
X140819550Y-53265251D01*
X137238150Y-53849451D02*
X137441350Y-53849451D01*
X134139350Y-55475051D02*
X134266350Y-55475051D01*
X133580550Y-53874851D02*
X133783750Y-53874851D01*
X131751750Y-54128851D02*
X131954950Y-54128851D01*
X130710350Y-53697051D02*
X130862750Y-53697051D01*
X139244750Y-53976451D02*
X139422550Y-53976451D01*
X135815750Y-53874851D02*
X135841150Y-53874851D01*
X130710350Y-54001851D02*
X130862750Y-54001851D01*
X139016150Y-54052651D02*
X139143150Y-54052651D01*
X126417750Y-55119451D02*
X127306750Y-55119451D01*
X135993550Y-53849451D02*
X136171350Y-53849451D01*
X131751750Y-53798651D02*
X131853350Y-53798651D01*
X132793150Y-55678251D02*
X132894750Y-55678251D01*
X137796950Y-53722451D02*
X137949350Y-53722451D01*
X139016150Y-53900251D02*
X139117750Y-53900251D01*
X135053750Y-53824051D02*
X135434750Y-53824051D01*
X126417750Y-55500451D02*
X127484550Y-55500451D01*
X132081950Y-54509851D02*
X132259750Y-54509851D01*
X130710350Y-54713051D02*
X130862750Y-54713051D01*
X130024550Y-54967051D02*
X140819550Y-54967051D01*
X132259750Y-54916251D02*
X132462950Y-54916251D01*
X133148750Y-54636851D02*
X133174150Y-54636851D01*
X129237150Y-55576651D02*
X129262550Y-55576651D01*
X134240950Y-54128851D02*
X134342550Y-54128851D01*
X130049950Y-54509851D02*
X130583350Y-54509851D01*
X134723550Y-54535251D02*
X134799750Y-54535251D01*
X131345350Y-53925651D02*
X131370750Y-53925651D01*
X129008550Y-54484451D02*
X129262550Y-54484451D01*
X134215550Y-54560651D02*
X134317150Y-54560651D01*
X134469550Y-54128851D02*
X134672750Y-54128851D01*
X132208950Y-53900251D02*
X132335950Y-53900251D01*
X128017950Y-54255851D02*
X128322750Y-54255851D01*
X139981350Y-54001851D02*
X140819550Y-54001851D01*
X128957750Y-54382851D02*
X129313350Y-54382851D01*
X134240950Y-54103451D02*
X134342550Y-54103451D01*
X132412150Y-54459051D02*
X132564550Y-54459051D01*
X131294550Y-55348051D02*
X131472350Y-55348051D01*
X131167550Y-55424251D02*
X131243750Y-55424251D01*
X134215550Y-54586051D02*
X134317150Y-54586051D01*
X136907950Y-54052651D02*
X137111150Y-54052651D01*
X132818550Y-54916251D02*
X132920150Y-54916251D01*
X135053750Y-54052651D02*
X135434750Y-54052651D01*
X129440350Y-55856051D02*
X140819550Y-55856051D01*
X128983150Y-54230451D02*
X129262550Y-54230451D01*
X135561750Y-54687651D02*
X140819550Y-54687651D01*
X132793150Y-55627451D02*
X132894750Y-55627451D01*
X132005750Y-53849451D02*
X132081950Y-53849451D01*
X134469550Y-54484451D02*
X134596550Y-54484451D01*
X132259750Y-54865451D02*
X132437550Y-54865451D01*
X135104550Y-54662251D02*
X135256950Y-54662251D01*
X129948350Y-54128851D02*
X130634150Y-54128851D01*
X136171350Y-54154251D02*
X136374550Y-54154251D01*
X128551350Y-54992451D02*
X128754550Y-54992451D01*
X139778150Y-53874851D02*
X139803550Y-53874851D01*
X130938950Y-55475051D02*
X131040550Y-55475051D01*
X130049950Y-54586051D02*
X130583350Y-54586051D01*
X126417750Y-54154251D02*
X127332150Y-54154251D01*
X126417750Y-52808051D02*
X140819550Y-52808051D01*
X139701950Y-54103451D02*
X139879750Y-54103451D01*
X132005750Y-53798651D02*
X132107350Y-53798651D01*
X139879750Y-53722451D02*
X140819550Y-53722451D01*
X136120550Y-55322651D02*
X136272950Y-55322651D01*
X134494950Y-54078051D02*
X134647350Y-54078051D01*
X130938950Y-54865451D02*
X131065950Y-54865451D01*
X133834550Y-55652851D02*
X134012350Y-55652851D01*
X132259750Y-53697051D02*
X132335950Y-53697051D01*
X133326550Y-54738451D02*
X133428150Y-54738451D01*
X133936150Y-54509851D02*
X134088550Y-54509851D01*
X131192950Y-55373451D02*
X131218350Y-55373451D01*
X132005750Y-53824051D02*
X132081950Y-53824051D01*
X132234350Y-53798651D02*
X132335950Y-53798651D01*
X132818550Y-54814651D02*
X132945550Y-54814651D01*
X133224950Y-54128851D02*
X133326550Y-54128851D01*
X132056550Y-54484451D02*
X132285150Y-54484451D01*
X126417750Y-53392251D02*
X128068750Y-53392251D01*
X134444150Y-54814651D02*
X134545750Y-54814651D01*
X126417750Y-53849451D02*
X127509950Y-53849451D01*
X131396150Y-54687651D02*
X131675550Y-54687651D01*
X126417750Y-56821251D02*
X140819550Y-56821251D01*
X132539150Y-55500451D02*
X132894750Y-55500451D01*
X128957750Y-53925651D02*
X129313350Y-53925651D01*
X126417750Y-54408251D02*
X127255950Y-54408251D01*
X126417750Y-52757251D02*
X140819550Y-52757251D01*
X129084750Y-55017851D02*
X129186350Y-55017851D01*
X131345350Y-55424251D02*
X131472350Y-55424251D01*
X130964350Y-55576651D02*
X131015150Y-55576651D01*
X131421550Y-55678251D02*
X131472350Y-55678251D01*
X134444150Y-54713051D02*
X134469550Y-54713051D01*
X134494950Y-54535251D02*
X134596550Y-54535251D01*
X126417750Y-53519251D02*
X127840150Y-53519251D01*
X136501550Y-53824051D02*
X136780950Y-53824051D01*
X129541950Y-53570051D02*
X137492150Y-53570051D01*
X138000150Y-53900251D02*
X138381150Y-53900251D01*
X126417750Y-55144851D02*
X127306750Y-55144851D01*
X132107350Y-55297251D02*
X132234350Y-55297251D01*
X127992550Y-54306651D02*
X128348150Y-54306651D01*
X130989750Y-53824051D02*
X131091350Y-53824051D01*
X136907950Y-54128851D02*
X137111150Y-54128851D01*
X136120550Y-55297251D02*
X136272950Y-55297251D01*
X138279550Y-54052651D02*
X138381150Y-54052651D01*
X133936150Y-54636851D02*
X134088550Y-54636851D01*
X133174150Y-53925651D02*
X133326550Y-53925651D01*
X130989750Y-53722451D02*
X131091350Y-53722451D01*
X130989750Y-54789251D02*
X131065950Y-54789251D01*
X131853350Y-55602051D02*
X131980350Y-55602051D01*
X129516550Y-55805251D02*
X140819550Y-55805251D01*
X135307750Y-54916251D02*
X135510950Y-54916251D01*
X134240950Y-53925651D02*
X134418750Y-53925651D01*
X126417750Y-56008451D02*
X128144950Y-56008451D01*
X132107350Y-54814651D02*
X132158150Y-54814651D01*
X138609750Y-53849451D02*
X138660550Y-53849451D01*
X126417750Y-53874851D02*
X127484550Y-53874851D01*
X131497750Y-53747851D02*
X131624750Y-53747851D01*
X131751750Y-54154251D02*
X131980350Y-54154251D01*
X128475150Y-54916251D02*
X128830750Y-54916251D01*
X134367950Y-53773251D02*
X134469550Y-53773251D01*
X132285150Y-54840051D02*
X132437550Y-54840051D01*
X128119550Y-53697051D02*
X128195750Y-53697051D01*
X128475150Y-54332051D02*
X128830750Y-54332051D01*
X133783750Y-54865451D02*
X133834550Y-54865451D01*
X132589950Y-54916251D02*
X132691550Y-54916251D01*
X133199550Y-55678251D02*
X133326550Y-55678251D01*
X134342550Y-55576651D02*
X134520350Y-55576651D01*
X133631350Y-53722451D02*
X133783750Y-53722451D01*
X128754550Y-55348051D02*
X128830750Y-55348051D01*
X132310550Y-55652851D02*
X132462950Y-55652851D01*
X135206150Y-54509851D02*
X135333150Y-54509851D01*
X135561750Y-54052651D02*
X135866550Y-54052651D01*
X136120550Y-55525851D02*
X136272950Y-55525851D01*
X134621950Y-55602051D02*
X134774350Y-55602051D01*
X126417750Y-55170251D02*
X127306750Y-55170251D01*
X135053750Y-54763851D02*
X135231550Y-54763851D01*
X129084750Y-55652851D02*
X129237150Y-55652851D01*
X132818550Y-54865451D02*
X132945550Y-54865451D01*
X126417750Y-56262451D02*
X140819550Y-56262451D01*
X135561750Y-53849451D02*
X135688750Y-53849451D01*
X132589950Y-54890851D02*
X132691550Y-54890851D01*
X130710350Y-54560651D02*
X130786550Y-54560651D01*
X131167550Y-55449651D02*
X131243750Y-55449651D01*
X135053750Y-53849451D02*
X135434750Y-53849451D01*
X129973750Y-54205051D02*
X140819550Y-54205051D01*
X128932350Y-54840051D02*
X129313350Y-54840051D01*
X133910750Y-53976451D02*
X134113950Y-53976451D01*
X134444150Y-54789251D02*
X134520350Y-54789251D01*
X133275750Y-54586051D02*
X133428150Y-54586051D01*
X132970950Y-55424251D02*
X133199550Y-55424251D01*
X134672750Y-53798651D02*
X134926750Y-53798651D01*
X131396150Y-54636851D02*
X131675550Y-54636851D01*
X131421550Y-54459051D02*
X131777150Y-54459051D01*
X133682150Y-53951051D02*
X133783750Y-53951051D01*
X128957750Y-55525851D02*
X129059350Y-55525851D01*
X132970950Y-54459051D02*
X133097950Y-54459051D01*
X133301150Y-55500451D02*
X133580550Y-55500451D01*
X134037750Y-55500451D02*
X134063150Y-55500451D01*
X140032150Y-54154251D02*
X140819550Y-54154251D01*
X131319950Y-53849451D02*
X131370750Y-53849451D01*
X130913550Y-54890851D02*
X131065950Y-54890851D01*
X130049950Y-54484451D02*
X130583350Y-54484451D01*
X135053750Y-53976451D02*
X135434750Y-53976451D01*
X135028350Y-55221051D02*
X135104550Y-55221051D01*
X128957750Y-54916251D02*
X129287950Y-54916251D01*
X135637950Y-55424251D02*
X135993550Y-55424251D01*
X134545750Y-55398851D02*
X134774350Y-55398851D01*
X132361350Y-55348051D02*
X132462950Y-55348051D01*
X134723550Y-54636851D02*
X134875950Y-54636851D01*
X128957750Y-55373451D02*
X129059350Y-55373451D01*
X134901350Y-55652851D02*
X135104550Y-55652851D01*
X128551350Y-54687651D02*
X128754550Y-54687651D01*
X131091350Y-55602051D02*
X131294550Y-55602051D01*
X132716950Y-54103451D02*
X132793150Y-54103451D01*
X131573950Y-55500451D02*
X131726350Y-55500451D01*
X139447950Y-53697051D02*
X139727350Y-53697051D01*
X138533550Y-53747851D02*
X138660550Y-53747851D01*
X131573950Y-55652851D02*
X131777150Y-55652851D01*
X134393350Y-55373451D02*
X134444150Y-55373451D01*
X126417750Y-54687651D02*
X127230550Y-54687651D01*
X133783750Y-54890851D02*
X133859950Y-54890851D01*
X126417750Y-54611451D02*
X127230550Y-54611451D01*
X135790350Y-53747851D02*
X135891950Y-53747851D01*
X132437550Y-54509851D02*
X132564550Y-54509851D01*
X140032150Y-54128851D02*
X140819550Y-54128851D01*
X128017950Y-53773251D02*
X128322750Y-53773251D01*
X139016150Y-53798651D02*
X139117750Y-53798651D01*
X130049950Y-54814651D02*
X130583350Y-54814651D01*
X129033950Y-53722451D02*
X129237150Y-53722451D01*
X133250350Y-54535251D02*
X133428150Y-54535251D01*
X126417750Y-54865451D02*
X127230550Y-54865451D01*
X132716950Y-54128851D02*
X132793150Y-54128851D01*
X128475150Y-53824051D02*
X128830750Y-53824051D01*
X133580550Y-55246451D02*
X133758350Y-55246451D01*
X130659550Y-55398851D02*
X130786550Y-55398851D01*
X131370750Y-55525851D02*
X131472350Y-55525851D01*
X131497750Y-53849451D02*
X131624750Y-53849451D01*
X138304950Y-53824051D02*
X138381150Y-53824051D01*
X134698150Y-53874851D02*
X134926750Y-53874851D01*
X134723550Y-53925651D02*
X134926750Y-53925651D01*
X129008550Y-54205051D02*
X129237150Y-54205051D01*
X134723550Y-54789251D02*
X134926750Y-54789251D01*
X130989750Y-53849451D02*
X131091350Y-53849451D01*
X134012350Y-55449651D02*
X134063150Y-55449651D01*
X126417750Y-53493851D02*
X127865550Y-53493851D01*
X134215550Y-54789251D02*
X134317150Y-54789251D01*
X131751750Y-53900251D02*
X131878750Y-53900251D01*
X133656750Y-55398851D02*
X133758350Y-55398851D01*
X131751750Y-54052651D02*
X131929550Y-54052651D01*
X134139350Y-55602051D02*
X134215550Y-55602051D01*
X132564550Y-54814651D02*
X132691550Y-54814651D01*
X131421550Y-54509851D02*
X131726350Y-54509851D01*
X135079150Y-54713051D02*
X135256950Y-54713051D01*
X131751750Y-53849451D02*
X131878750Y-53849451D01*
X133555150Y-54662251D02*
X133809150Y-54662251D01*
X128068750Y-54205051D02*
X128271950Y-54205051D01*
X133605950Y-55627451D02*
X133758350Y-55627451D01*
X128017950Y-55525851D02*
X128119550Y-55525851D01*
X134545750Y-55424251D02*
X134774350Y-55424251D01*
X128017950Y-55297251D02*
X128119550Y-55297251D01*
X138787550Y-53976451D02*
X138889150Y-53976451D01*
X128983150Y-54255851D02*
X129287950Y-54255851D01*
X128475150Y-54763851D02*
X128830750Y-54763851D01*
X133656750Y-54078051D02*
X133783750Y-54078051D01*
X131192950Y-54103451D02*
X131319950Y-54103451D01*
X130710350Y-53925651D02*
X130862750Y-53925651D01*
X139320950Y-54052651D02*
X139371750Y-54052651D01*
X136120550Y-55678251D02*
X136272950Y-55678251D01*
X137568350Y-53849451D02*
X137873150Y-53849451D01*
X126417750Y-52731851D02*
X140819550Y-52731851D01*
X128271950Y-55322651D02*
X128398950Y-55322651D01*
X132970950Y-55576651D02*
X133224950Y-55576651D01*
X136298350Y-53849451D02*
X136374550Y-53849451D01*
X130913550Y-55652851D02*
X130989750Y-55652851D01*
X133656750Y-55424251D02*
X133758350Y-55424251D01*
X133199550Y-54103451D02*
X133301150Y-54103451D01*
X135714150Y-55322651D02*
X135790350Y-55322651D01*
X130938950Y-55398851D02*
X131091350Y-55398851D01*
X134291750Y-55678251D02*
X134545750Y-55678251D01*
X126417750Y-53671651D02*
X127662350Y-53671651D01*
X134723550Y-54738451D02*
X134926750Y-54738451D01*
X126417750Y-54763851D02*
X127230550Y-54763851D01*
X127992550Y-53925651D02*
X128348150Y-53925651D01*
X133631350Y-55576651D02*
X133758350Y-55576651D01*
X131091350Y-55627451D02*
X131319950Y-55627451D01*
X126417750Y-55652851D02*
X127611550Y-55652851D01*
X126417750Y-54255851D02*
X127306750Y-54255851D01*
X133682150Y-54027251D02*
X133783750Y-54027251D01*
X139295550Y-53798651D02*
X139371750Y-53798651D01*
X138304950Y-54001851D02*
X138381150Y-54001851D01*
X132361350Y-55297251D02*
X132462950Y-55297251D01*
X133377350Y-54865451D02*
X133428150Y-54865451D01*
X132259750Y-54890851D02*
X132437550Y-54890851D01*
X129414950Y-53493851D02*
X140819550Y-53493851D01*
X131192950Y-54154251D02*
X131345350Y-54154251D01*
X132970950Y-55602051D02*
X133250350Y-55602051D01*
X126417750Y-55779851D02*
X127738550Y-55779851D01*
X131853350Y-55576651D02*
X131954950Y-55576651D01*
X129922950Y-55322651D02*
X130583350Y-55322651D01*
X131497750Y-54103451D02*
X131624750Y-54103451D01*
X134748950Y-54001851D02*
X134926750Y-54001851D01*
X136501550Y-53747851D02*
X136780950Y-53747851D01*
X131269150Y-55246451D02*
X131472350Y-55246451D01*
X132107350Y-54789251D02*
X132158150Y-54789251D01*
X126417750Y-53138251D02*
X140819550Y-53138251D01*
X129084750Y-53697051D02*
X129160950Y-53697051D01*
X134139350Y-55221051D02*
X134367950Y-55221051D01*
X126417750Y-55957651D02*
X128017950Y-55957651D01*
X126417750Y-56770451D02*
X140819550Y-56770451D01*
X128525950Y-55424251D02*
X128627550Y-55424251D01*
X130710350Y-54738451D02*
X130862750Y-54738451D01*
X131497750Y-53697051D02*
X131624750Y-53697051D01*
X130964350Y-54535251D02*
X131065950Y-54535251D01*
X139981350Y-54027251D02*
X140819550Y-54027251D01*
X126417750Y-53773251D02*
X127560750Y-53773251D01*
X129618150Y-53646251D02*
X137568350Y-53646251D01*
X129465750Y-53519251D02*
X140819550Y-53519251D01*
X134545750Y-54611451D02*
X134596550Y-54611451D01*
X128068750Y-54027251D02*
X128271950Y-54027251D01*
X132539150Y-55322651D02*
X132894750Y-55322651D01*
X136120550Y-55576651D02*
X136272950Y-55576651D01*
X133834550Y-55678251D02*
X134037750Y-55678251D01*
X134571150Y-54662251D02*
X134596550Y-54662251D01*
X134037750Y-55525851D02*
X134063150Y-55525851D01*
X132970950Y-55297251D02*
X133250350Y-55297251D01*
X135612550Y-54840051D02*
X140819550Y-54840051D01*
X135383950Y-54687651D02*
X135434750Y-54687651D01*
X134215550Y-54738451D02*
X134317150Y-54738451D01*
X132462950Y-54560651D02*
X132691550Y-54560651D01*
X128983150Y-55576651D02*
X129110150Y-55576651D01*
X133910750Y-54128851D02*
X134113950Y-54128851D01*
X136907950Y-54001851D02*
X137111150Y-54001851D01*
X133199550Y-53773251D02*
X133301150Y-53773251D01*
X129719750Y-55602051D02*
X130583350Y-55602051D01*
X131497750Y-53874851D02*
X131624750Y-53874851D01*
X134139350Y-55576651D02*
X134240950Y-55576651D01*
X133402750Y-54890851D02*
X133428150Y-54890851D01*
X126417750Y-54306651D02*
X127281350Y-54306651D01*
X137238150Y-53925651D02*
X137441350Y-53925651D01*
X135561750Y-53874851D02*
X135688750Y-53874851D01*
X128246550Y-55576651D02*
X128373550Y-55576651D01*
X135942750Y-55322651D02*
X135993550Y-55322651D01*
X129846750Y-55449651D02*
X130583350Y-55449651D01*
X132031150Y-55500451D02*
X132285150Y-55500451D01*
X133986950Y-54814651D02*
X134037750Y-54814651D01*
X133936150Y-54763851D02*
X134088550Y-54763851D01*
X128475150Y-53951051D02*
X128830750Y-53951051D01*
X132462950Y-53849451D02*
X132793150Y-53849451D01*
X129897550Y-55373451D02*
X130583350Y-55373451D01*
X136120550Y-55348051D02*
X136272950Y-55348051D01*
X129846750Y-53925651D02*
X130583350Y-53925651D01*
X137796950Y-53773251D02*
X137898550Y-53773251D01*
X128551350Y-54205051D02*
X128754550Y-54205051D01*
X129491150Y-55830651D02*
X140819550Y-55830651D01*
X139244750Y-53951051D02*
X139625750Y-53951051D01*
X128271950Y-55500451D02*
X128398950Y-55500451D01*
X130938950Y-55449651D02*
X131065950Y-55449651D01*
X130913550Y-55424251D02*
X131065950Y-55424251D01*
X131345350Y-53900251D02*
X131370750Y-53900251D01*
X136399950Y-55652851D02*
X140819550Y-55652851D01*
X133834550Y-55525851D02*
X133936150Y-55525851D01*
X128271950Y-55297251D02*
X128398950Y-55297251D01*
X128017950Y-55500451D02*
X128119550Y-55500451D01*
X135460150Y-55297251D02*
X135536350Y-55297251D01*
X132132750Y-54103451D02*
X132335950Y-54103451D01*
X126417750Y-54713051D02*
X127230550Y-54713051D01*
X133555150Y-54459051D02*
X133809150Y-54459051D01*
X136907950Y-53773251D02*
X136984150Y-53773251D01*
X132818550Y-54636851D02*
X133021750Y-54636851D01*
X130938950Y-55297251D02*
X131116750Y-55297251D01*
X131751750Y-54078051D02*
X131954950Y-54078051D01*
X130938950Y-55348051D02*
X131091350Y-55348051D01*
X135663350Y-55373451D02*
X135815750Y-55373451D01*
X132767750Y-55424251D02*
X132894750Y-55424251D01*
X135942750Y-55551251D02*
X135993550Y-55551251D01*
X129008550Y-55602051D02*
X129262550Y-55602051D01*
X128017950Y-55449651D02*
X128119550Y-55449651D01*
X128525950Y-55576651D02*
X128602150Y-55576651D01*
X133072550Y-54865451D02*
X133250350Y-54865451D01*
X128475150Y-54306651D02*
X128830750Y-54306651D01*
X135637950Y-55398851D02*
X135993550Y-55398851D01*
X130710350Y-53798651D02*
X130862750Y-53798651D01*
X128525950Y-54230451D02*
X128779950Y-54230451D01*
X128119550Y-55017851D02*
X128221150Y-55017851D01*
X134240950Y-54078051D02*
X134367950Y-54078051D01*
X126417750Y-54560651D02*
X127230550Y-54560651D01*
D17*
%TO.C,J2*%
X147330000Y-87030000D02*
X147330000Y-64110000D01*
X147330000Y-64110000D02*
X144670000Y-64110000D01*
X144670000Y-87030000D02*
X144670000Y-64110000D01*
X146000000Y-89630000D02*
X144670000Y-89630000D01*
X147330000Y-87030000D02*
X144670000Y-87030000D01*
X144670000Y-89630000D02*
X144670000Y-88300000D01*
%TD*%
M02*
