M48
; DRILL file {KiCad (6.0.6)} date Fri Jul  8 12:35:37 2022
; FORMAT={2:4/ absolute / inch / keep zeros}
; #@! TF.CreationDate,2022-07-08T12:35:37+02:00
; #@! TF.GenerationSoftware,Kicad,Pcbnew,(6.0.6)
; #@! TF.FileFunction,MixedPlating,1,2
FMAT,2
INCH
; #@! TA.AperFunction,Plated,PTH,ViaDrill
T1C0.0157
; #@! TA.AperFunction,Plated,PTH,ComponentDrill
T2C0.0394
; #@! TA.AperFunction,NonPlated,NPTH,ComponentDrill
T3C0.0559
; #@! TA.AperFunction,NonPlated,NPTH,ComponentDrill
T4C0.1063
%
G90
G05
T1
X033858Y-033780
X033858Y-034252
X033858Y-034764
X033858Y-035276
X033858Y-035787
X033858Y-036260
X033858Y-036772
X033858Y-037283
X033858Y-037756
X033858Y-038268
X038583Y-033780
X038583Y-034291
X038583Y-034764
X038583Y-035276
X038583Y-035787
X038583Y-036260
X038583Y-036772
X038583Y-037283
X038583Y-037795
X038583Y-038268
X044713Y-033795
X044713Y-034307
X044713Y-034780
X044713Y-035291
X044713Y-035803
X044713Y-036276
X044713Y-036787
X044713Y-037299
X044713Y-037811
X044713Y-038283
X056378Y-025748
X056378Y-026772
X056378Y-027756
X056378Y-028780
X056378Y-029764
X056378Y-030787
X056378Y-031772
X056378Y-032756
X056378Y-033780
X056378Y-034764
T2
X057480Y-025764
X057480Y-026764
X057480Y-027764
X057480Y-028764
X057480Y-029764
X057480Y-030764
X057480Y-031764
X057480Y-032764
X057480Y-033764
X057480Y-034764
X057480Y-037063
X057480Y-038063
X057480Y-039063
X057480Y-040063
X057480Y-041063
X057480Y-042063
X057480Y-043063
X057480Y-044063
X057480Y-045063
X057480Y-046063
T3
X036018Y-033146
X036018Y-038898
X042717Y-033148
X042717Y-038900
T4
X024409Y-024409
X024409Y-047638
X037795Y-024409
X037795Y-047638
X040945Y-024409
X040945Y-047638
X054331Y-024409
X054331Y-047638
T0
M30
