%TF.GenerationSoftware,KiCad,Pcbnew,(6.0.1)*%
%TF.CreationDate,2022-03-22T15:32:48+01:00*%
%TF.ProjectId,HMC952_TestBoard,484d4339-3532-45f5-9465-7374426f6172,rev?*%
%TF.SameCoordinates,Original*%
%TF.FileFunction,Paste,Top*%
%TF.FilePolarity,Positive*%
%FSLAX46Y46*%
G04 Gerber Fmt 4.6, Leading zero omitted, Abs format (unit mm)*
G04 Created by KiCad (PCBNEW (6.0.1)) date 2022-03-22 15:32:48*
%MOMM*%
%LPD*%
G01*
G04 APERTURE LIST*
G04 Aperture macros list*
%AMRoundRect*
0 Rectangle with rounded corners*
0 $1 Rounding radius*
0 $2 $3 $4 $5 $6 $7 $8 $9 X,Y pos of 4 corners*
0 Add a 4 corners polygon primitive as box body*
4,1,4,$2,$3,$4,$5,$6,$7,$8,$9,$2,$3,0*
0 Add four circle primitives for the rounded corners*
1,1,$1+$1,$2,$3*
1,1,$1+$1,$4,$5*
1,1,$1+$1,$6,$7*
1,1,$1+$1,$8,$9*
0 Add four rect primitives between the rounded corners*
20,1,$1+$1,$2,$3,$4,$5,0*
20,1,$1+$1,$4,$5,$6,$7,0*
20,1,$1+$1,$6,$7,$8,$9,0*
20,1,$1+$1,$8,$9,$2,$3,0*%
G04 Aperture macros list end*
%ADD10RoundRect,0.225000X0.225000X0.250000X-0.225000X0.250000X-0.225000X-0.250000X0.225000X-0.250000X0*%
%ADD11RoundRect,0.140000X0.140000X0.170000X-0.140000X0.170000X-0.140000X-0.170000X0.140000X-0.170000X0*%
%ADD12RoundRect,0.250000X-0.250000X-0.475000X0.250000X-0.475000X0.250000X0.475000X-0.250000X0.475000X0*%
%ADD13RoundRect,0.140000X-0.140000X-0.170000X0.140000X-0.170000X0.140000X0.170000X-0.140000X0.170000X0*%
%ADD14RoundRect,0.225000X-0.225000X-0.250000X0.225000X-0.250000X0.225000X0.250000X-0.225000X0.250000X0*%
%ADD15R,5.600000X1.500000*%
%ADD16R,4.900000X1.600000*%
%ADD17RoundRect,0.200000X-0.600000X0.200000X-0.600000X-0.200000X0.600000X-0.200000X0.600000X0.200000X0*%
%ADD18RoundRect,0.250001X-1.249999X0.799999X-1.249999X-0.799999X1.249999X-0.799999X1.249999X0.799999X0*%
%ADD19RoundRect,0.250000X0.250000X0.475000X-0.250000X0.475000X-0.250000X-0.475000X0.250000X-0.475000X0*%
%ADD20R,0.850000X0.350000*%
%ADD21R,0.350000X0.850000*%
%ADD22R,3.250000X3.250000*%
%ADD23RoundRect,0.200000X0.600000X-0.200000X0.600000X0.200000X-0.600000X0.200000X-0.600000X-0.200000X0*%
%ADD24RoundRect,0.250001X1.249999X-0.799999X1.249999X0.799999X-1.249999X0.799999X-1.249999X-0.799999X0*%
G04 APERTURE END LIST*
D10*
%TO.C,C16*%
X141300000Y-86010000D03*
X139750000Y-86010000D03*
%TD*%
D11*
%TO.C,C3*%
X137294000Y-98772000D03*
X136334000Y-98772000D03*
%TD*%
D12*
%TO.C,C7*%
X128818000Y-102808000D03*
X130718000Y-102808000D03*
%TD*%
D13*
%TO.C,C1*%
X129730000Y-98808000D03*
X130690000Y-98808000D03*
%TD*%
D14*
%TO.C,C5*%
X133221000Y-100558000D03*
X134771000Y-100558000D03*
%TD*%
D12*
%TO.C,C18*%
X131775000Y-83750000D03*
X133675000Y-83750000D03*
%TD*%
D15*
%TO.C,J2*%
X162700000Y-93000000D03*
D16*
X163050000Y-97260000D03*
X163050000Y-88740000D03*
%TD*%
D13*
%TO.C,C10*%
X133035000Y-87750000D03*
X133995000Y-87750000D03*
%TD*%
D17*
%TO.C,J3*%
X111900000Y-78375000D03*
X111900000Y-79625000D03*
D18*
X109000000Y-75825000D03*
X109000000Y-82175000D03*
%TD*%
D15*
%TO.C,J1*%
X109117500Y-93250000D03*
D16*
X108767500Y-88990000D03*
X108767500Y-97510000D03*
%TD*%
D17*
%TO.C,J4*%
X111900000Y-106375000D03*
X111900000Y-107625000D03*
D18*
X109000000Y-110175000D03*
X109000000Y-103825000D03*
%TD*%
D12*
%TO.C,C19*%
X135785000Y-83740000D03*
X137685000Y-83740000D03*
%TD*%
D13*
%TO.C,C11*%
X137045000Y-87740000D03*
X138005000Y-87740000D03*
%TD*%
D19*
%TO.C,C21*%
X142028000Y-102808000D03*
X140128000Y-102808000D03*
%TD*%
D14*
%TO.C,C4*%
X129181000Y-100522000D03*
X130731000Y-100522000D03*
%TD*%
%TO.C,C15*%
X136180000Y-86000000D03*
X137730000Y-86000000D03*
%TD*%
D19*
%TO.C,C20*%
X141695000Y-83750000D03*
X139795000Y-83750000D03*
%TD*%
D20*
%TO.C,U1*%
X134550000Y-91375000D03*
X134550000Y-92025000D03*
X134550000Y-92675000D03*
X134550000Y-93325000D03*
X134550000Y-93975000D03*
X134550000Y-94625000D03*
D21*
X135375000Y-95450000D03*
X136025000Y-95450000D03*
X136675000Y-95450000D03*
X137325000Y-95450000D03*
X137975000Y-95450000D03*
X138625000Y-95450000D03*
D20*
X139450000Y-94625000D03*
X139450000Y-93975000D03*
X139450000Y-93325000D03*
X139450000Y-92675000D03*
X139450000Y-92025000D03*
X139450000Y-91375000D03*
D21*
X138625000Y-90550000D03*
X137975000Y-90550000D03*
X137325000Y-90550000D03*
X136675000Y-90550000D03*
X136025000Y-90550000D03*
X135375000Y-90550000D03*
D22*
X137000000Y-93000000D03*
%TD*%
D10*
%TO.C,C6*%
X137970000Y-100522000D03*
X136420000Y-100522000D03*
%TD*%
D12*
%TO.C,C8*%
X132796000Y-102808000D03*
X134696000Y-102808000D03*
%TD*%
D13*
%TO.C,C2*%
X133766000Y-98808000D03*
X134726000Y-98808000D03*
%TD*%
D11*
%TO.C,C13*%
X141058000Y-98808000D03*
X140098000Y-98808000D03*
%TD*%
D23*
%TO.C,J6*%
X160100000Y-79625000D03*
X160100000Y-78375000D03*
D24*
X163000000Y-82175000D03*
X163000000Y-75825000D03*
%TD*%
D11*
%TO.C,C12*%
X140435000Y-87750000D03*
X139475000Y-87750000D03*
%TD*%
D10*
%TO.C,C17*%
X141603000Y-100548000D03*
X140053000Y-100548000D03*
%TD*%
D14*
%TO.C,C14*%
X132170000Y-86010000D03*
X133720000Y-86010000D03*
%TD*%
D19*
%TO.C,C9*%
X138272000Y-102772000D03*
X136372000Y-102772000D03*
%TD*%
D23*
%TO.C,J5*%
X160100000Y-107625000D03*
X160100000Y-106375000D03*
D24*
X163000000Y-110175000D03*
X163000000Y-103825000D03*
%TD*%
M02*
