%TF.GenerationSoftware,KiCad,Pcbnew,(6.0.1)*%
%TF.CreationDate,2022-03-22T15:32:48+01:00*%
%TF.ProjectId,HMC952_TestBoard,484d4339-3532-45f5-9465-7374426f6172,rev?*%
%TF.SameCoordinates,Original*%
%TF.FileFunction,Legend,Top*%
%TF.FilePolarity,Positive*%
%FSLAX46Y46*%
G04 Gerber Fmt 4.6, Leading zero omitted, Abs format (unit mm)*
G04 Created by KiCad (PCBNEW (6.0.1)) date 2022-03-22 15:32:48*
%MOMM*%
%LPD*%
G01*
G04 APERTURE LIST*
%ADD10C,0.150000*%
%ADD11C,0.200000*%
%ADD12C,0.120000*%
%ADD13C,0.325000*%
G04 APERTURE END LIST*
D10*
X108309523Y-86952380D02*
X107976190Y-86476190D01*
X107738095Y-86952380D02*
X107738095Y-85952380D01*
X108119047Y-85952380D01*
X108214285Y-86000000D01*
X108261904Y-86047619D01*
X108309523Y-86142857D01*
X108309523Y-86285714D01*
X108261904Y-86380952D01*
X108214285Y-86428571D01*
X108119047Y-86476190D01*
X107738095Y-86476190D01*
X109071428Y-86428571D02*
X108738095Y-86428571D01*
X108738095Y-86952380D02*
X108738095Y-85952380D01*
X109214285Y-85952380D01*
X110357142Y-86952380D02*
X110357142Y-85952380D01*
X110833333Y-86285714D02*
X110833333Y-86952380D01*
X110833333Y-86380952D02*
X110880952Y-86333333D01*
X110976190Y-86285714D01*
X111119047Y-86285714D01*
X111214285Y-86333333D01*
X111261904Y-86428571D01*
X111261904Y-86952380D01*
D11*
X129528571Y-73478571D02*
X129528571Y-71978571D01*
X129528571Y-72692857D02*
X130385714Y-72692857D01*
X130385714Y-73478571D02*
X130385714Y-71978571D01*
X131100000Y-73478571D02*
X131100000Y-71978571D01*
X131600000Y-73050000D01*
X132100000Y-71978571D01*
X132100000Y-73478571D01*
X133671428Y-73335714D02*
X133600000Y-73407142D01*
X133385714Y-73478571D01*
X133242857Y-73478571D01*
X133028571Y-73407142D01*
X132885714Y-73264285D01*
X132814285Y-73121428D01*
X132742857Y-72835714D01*
X132742857Y-72621428D01*
X132814285Y-72335714D01*
X132885714Y-72192857D01*
X133028571Y-72050000D01*
X133242857Y-71978571D01*
X133385714Y-71978571D01*
X133600000Y-72050000D01*
X133671428Y-72121428D01*
X134385714Y-73478571D02*
X134671428Y-73478571D01*
X134814285Y-73407142D01*
X134885714Y-73335714D01*
X135028571Y-73121428D01*
X135100000Y-72835714D01*
X135100000Y-72264285D01*
X135028571Y-72121428D01*
X134957142Y-72050000D01*
X134814285Y-71978571D01*
X134528571Y-71978571D01*
X134385714Y-72050000D01*
X134314285Y-72121428D01*
X134242857Y-72264285D01*
X134242857Y-72621428D01*
X134314285Y-72764285D01*
X134385714Y-72835714D01*
X134528571Y-72907142D01*
X134814285Y-72907142D01*
X134957142Y-72835714D01*
X135028571Y-72764285D01*
X135100000Y-72621428D01*
X136457142Y-71978571D02*
X135742857Y-71978571D01*
X135671428Y-72692857D01*
X135742857Y-72621428D01*
X135885714Y-72550000D01*
X136242857Y-72550000D01*
X136385714Y-72621428D01*
X136457142Y-72692857D01*
X136528571Y-72835714D01*
X136528571Y-73192857D01*
X136457142Y-73335714D01*
X136385714Y-73407142D01*
X136242857Y-73478571D01*
X135885714Y-73478571D01*
X135742857Y-73407142D01*
X135671428Y-73335714D01*
X137100000Y-72121428D02*
X137171428Y-72050000D01*
X137314285Y-71978571D01*
X137671428Y-71978571D01*
X137814285Y-72050000D01*
X137885714Y-72121428D01*
X137957142Y-72264285D01*
X137957142Y-72407142D01*
X137885714Y-72621428D01*
X137028571Y-73478571D01*
X137957142Y-73478571D01*
X139742857Y-72692857D02*
X140242857Y-72692857D01*
X140457142Y-73478571D02*
X139742857Y-73478571D01*
X139742857Y-71978571D01*
X140457142Y-71978571D01*
X140957142Y-72478571D02*
X141314285Y-73478571D01*
X141671428Y-72478571D01*
X142885714Y-73478571D02*
X142885714Y-72692857D01*
X142814285Y-72550000D01*
X142671428Y-72478571D01*
X142385714Y-72478571D01*
X142242857Y-72550000D01*
X142885714Y-73407142D02*
X142742857Y-73478571D01*
X142385714Y-73478571D01*
X142242857Y-73407142D01*
X142171428Y-73264285D01*
X142171428Y-73121428D01*
X142242857Y-72978571D01*
X142385714Y-72907142D01*
X142742857Y-72907142D01*
X142885714Y-72835714D01*
X143814285Y-73478571D02*
X143671428Y-73407142D01*
X143600000Y-73264285D01*
X143600000Y-71978571D01*
D10*
X107761904Y-72952380D02*
X108095238Y-73952380D01*
X108428571Y-72952380D01*
X109190476Y-73952380D02*
X109190476Y-72952380D01*
X109190476Y-73904761D02*
X109095238Y-73952380D01*
X108904761Y-73952380D01*
X108809523Y-73904761D01*
X108761904Y-73857142D01*
X108714285Y-73761904D01*
X108714285Y-73476190D01*
X108761904Y-73380952D01*
X108809523Y-73333333D01*
X108904761Y-73285714D01*
X109095238Y-73285714D01*
X109190476Y-73333333D01*
X110095238Y-73952380D02*
X110095238Y-72952380D01*
X110095238Y-73904761D02*
X110000000Y-73952380D01*
X109809523Y-73952380D01*
X109714285Y-73904761D01*
X109666666Y-73857142D01*
X109619047Y-73761904D01*
X109619047Y-73476190D01*
X109666666Y-73380952D01*
X109714285Y-73333333D01*
X109809523Y-73285714D01*
X110000000Y-73285714D01*
X110095238Y-73333333D01*
X107761904Y-100452380D02*
X108095238Y-101452380D01*
X108428571Y-100452380D01*
X109190476Y-100785714D02*
X109190476Y-101595238D01*
X109142857Y-101690476D01*
X109095238Y-101738095D01*
X109000000Y-101785714D01*
X108857142Y-101785714D01*
X108761904Y-101738095D01*
X109190476Y-101404761D02*
X109095238Y-101452380D01*
X108904761Y-101452380D01*
X108809523Y-101404761D01*
X108761904Y-101357142D01*
X108714285Y-101261904D01*
X108714285Y-100976190D01*
X108761904Y-100880952D01*
X108809523Y-100833333D01*
X108904761Y-100785714D01*
X109095238Y-100785714D01*
X109190476Y-100833333D01*
X110095238Y-100785714D02*
X110095238Y-101595238D01*
X110047619Y-101690476D01*
X110000000Y-101738095D01*
X109904761Y-101785714D01*
X109761904Y-101785714D01*
X109666666Y-101738095D01*
X110095238Y-101404761D02*
X110000000Y-101452380D01*
X109809523Y-101452380D01*
X109714285Y-101404761D01*
X109666666Y-101357142D01*
X109619047Y-101261904D01*
X109619047Y-100976190D01*
X109666666Y-100880952D01*
X109714285Y-100833333D01*
X109809523Y-100785714D01*
X110000000Y-100785714D01*
X110095238Y-100833333D01*
X161642857Y-72952380D02*
X161976190Y-73952380D01*
X162309523Y-72952380D01*
X162642857Y-73952380D02*
X162642857Y-73285714D01*
X162642857Y-73476190D02*
X162690476Y-73380952D01*
X162738095Y-73333333D01*
X162833333Y-73285714D01*
X162928571Y-73285714D01*
X163642857Y-73904761D02*
X163547619Y-73952380D01*
X163357142Y-73952380D01*
X163261904Y-73904761D01*
X163214285Y-73809523D01*
X163214285Y-73428571D01*
X163261904Y-73333333D01*
X163357142Y-73285714D01*
X163547619Y-73285714D01*
X163642857Y-73333333D01*
X163690476Y-73428571D01*
X163690476Y-73523809D01*
X163214285Y-73619047D01*
X163976190Y-73285714D02*
X164357142Y-73285714D01*
X164119047Y-73952380D02*
X164119047Y-73095238D01*
X164166666Y-73000000D01*
X164261904Y-72952380D01*
X164357142Y-72952380D01*
X160238095Y-86952380D02*
X159904761Y-86476190D01*
X159666666Y-86952380D02*
X159666666Y-85952380D01*
X160047619Y-85952380D01*
X160142857Y-86000000D01*
X160190476Y-86047619D01*
X160238095Y-86142857D01*
X160238095Y-86285714D01*
X160190476Y-86380952D01*
X160142857Y-86428571D01*
X160047619Y-86476190D01*
X159666666Y-86476190D01*
X161000000Y-86428571D02*
X160666666Y-86428571D01*
X160666666Y-86952380D02*
X160666666Y-85952380D01*
X161142857Y-85952380D01*
X162476190Y-85952380D02*
X162666666Y-85952380D01*
X162761904Y-86000000D01*
X162857142Y-86095238D01*
X162904761Y-86285714D01*
X162904761Y-86619047D01*
X162857142Y-86809523D01*
X162761904Y-86904761D01*
X162666666Y-86952380D01*
X162476190Y-86952380D01*
X162380952Y-86904761D01*
X162285714Y-86809523D01*
X162238095Y-86619047D01*
X162238095Y-86285714D01*
X162285714Y-86095238D01*
X162380952Y-86000000D01*
X162476190Y-85952380D01*
X163761904Y-86285714D02*
X163761904Y-86952380D01*
X163333333Y-86285714D02*
X163333333Y-86809523D01*
X163380952Y-86904761D01*
X163476190Y-86952380D01*
X163619047Y-86952380D01*
X163714285Y-86904761D01*
X163761904Y-86857142D01*
X164095238Y-86285714D02*
X164476190Y-86285714D01*
X164238095Y-85952380D02*
X164238095Y-86809523D01*
X164285714Y-86904761D01*
X164380952Y-86952380D01*
X164476190Y-86952380D01*
X161500000Y-100452380D02*
X161833333Y-101452380D01*
X162166666Y-100452380D01*
X162928571Y-101452380D02*
X162928571Y-100452380D01*
X162928571Y-101404761D02*
X162833333Y-101452380D01*
X162642857Y-101452380D01*
X162547619Y-101404761D01*
X162500000Y-101357142D01*
X162452380Y-101261904D01*
X162452380Y-100976190D01*
X162500000Y-100880952D01*
X162547619Y-100833333D01*
X162642857Y-100785714D01*
X162833333Y-100785714D01*
X162928571Y-100833333D01*
X163785714Y-101404761D02*
X163690476Y-101452380D01*
X163500000Y-101452380D01*
X163404761Y-101404761D01*
X163357142Y-101309523D01*
X163357142Y-100928571D01*
X163404761Y-100833333D01*
X163500000Y-100785714D01*
X163690476Y-100785714D01*
X163785714Y-100833333D01*
X163833333Y-100928571D01*
X163833333Y-101023809D01*
X163357142Y-101119047D01*
X164119047Y-100785714D02*
X164500000Y-100785714D01*
X164261904Y-100452380D02*
X164261904Y-101309523D01*
X164309523Y-101404761D01*
X164404761Y-101452380D01*
X164500000Y-101452380D01*
%TO.C,C16*%
X147357142Y-86357142D02*
X147309523Y-86404761D01*
X147166666Y-86452380D01*
X147071428Y-86452380D01*
X146928571Y-86404761D01*
X146833333Y-86309523D01*
X146785714Y-86214285D01*
X146738095Y-86023809D01*
X146738095Y-85880952D01*
X146785714Y-85690476D01*
X146833333Y-85595238D01*
X146928571Y-85500000D01*
X147071428Y-85452380D01*
X147166666Y-85452380D01*
X147309523Y-85500000D01*
X147357142Y-85547619D01*
X148309523Y-86452380D02*
X147738095Y-86452380D01*
X148023809Y-86452380D02*
X148023809Y-85452380D01*
X147928571Y-85595238D01*
X147833333Y-85690476D01*
X147738095Y-85738095D01*
X149166666Y-85452380D02*
X148976190Y-85452380D01*
X148880952Y-85500000D01*
X148833333Y-85547619D01*
X148738095Y-85690476D01*
X148690476Y-85880952D01*
X148690476Y-86261904D01*
X148738095Y-86357142D01*
X148785714Y-86404761D01*
X148880952Y-86452380D01*
X149071428Y-86452380D01*
X149166666Y-86404761D01*
X149214285Y-86357142D01*
X149261904Y-86261904D01*
X149261904Y-86023809D01*
X149214285Y-85928571D01*
X149166666Y-85880952D01*
X149071428Y-85833333D01*
X148880952Y-85833333D01*
X148785714Y-85880952D01*
X148738095Y-85928571D01*
X148690476Y-86023809D01*
%TO.C,C3*%
X137333333Y-106357142D02*
X137285714Y-106404761D01*
X137142857Y-106452380D01*
X137047619Y-106452380D01*
X136904761Y-106404761D01*
X136809523Y-106309523D01*
X136761904Y-106214285D01*
X136714285Y-106023809D01*
X136714285Y-105880952D01*
X136761904Y-105690476D01*
X136809523Y-105595238D01*
X136904761Y-105500000D01*
X137047619Y-105452380D01*
X137142857Y-105452380D01*
X137285714Y-105500000D01*
X137333333Y-105547619D01*
X137666666Y-105452380D02*
X138285714Y-105452380D01*
X137952380Y-105833333D01*
X138095238Y-105833333D01*
X138190476Y-105880952D01*
X138238095Y-105928571D01*
X138285714Y-106023809D01*
X138285714Y-106261904D01*
X138238095Y-106357142D01*
X138190476Y-106404761D01*
X138095238Y-106452380D01*
X137809523Y-106452380D01*
X137714285Y-106404761D01*
X137666666Y-106357142D01*
%TO.C,C7*%
X129333333Y-109357142D02*
X129285714Y-109404761D01*
X129142857Y-109452380D01*
X129047619Y-109452380D01*
X128904761Y-109404761D01*
X128809523Y-109309523D01*
X128761904Y-109214285D01*
X128714285Y-109023809D01*
X128714285Y-108880952D01*
X128761904Y-108690476D01*
X128809523Y-108595238D01*
X128904761Y-108500000D01*
X129047619Y-108452380D01*
X129142857Y-108452380D01*
X129285714Y-108500000D01*
X129333333Y-108547619D01*
X129666666Y-108452380D02*
X130333333Y-108452380D01*
X129904761Y-109452380D01*
%TO.C,C1*%
X129333333Y-106357142D02*
X129285714Y-106404761D01*
X129142857Y-106452380D01*
X129047619Y-106452380D01*
X128904761Y-106404761D01*
X128809523Y-106309523D01*
X128761904Y-106214285D01*
X128714285Y-106023809D01*
X128714285Y-105880952D01*
X128761904Y-105690476D01*
X128809523Y-105595238D01*
X128904761Y-105500000D01*
X129047619Y-105452380D01*
X129142857Y-105452380D01*
X129285714Y-105500000D01*
X129333333Y-105547619D01*
X130285714Y-106452380D02*
X129714285Y-106452380D01*
X130000000Y-106452380D02*
X130000000Y-105452380D01*
X129904761Y-105595238D01*
X129809523Y-105690476D01*
X129714285Y-105738095D01*
%TO.C,C5*%
X133833333Y-107857142D02*
X133785714Y-107904761D01*
X133642857Y-107952380D01*
X133547619Y-107952380D01*
X133404761Y-107904761D01*
X133309523Y-107809523D01*
X133261904Y-107714285D01*
X133214285Y-107523809D01*
X133214285Y-107380952D01*
X133261904Y-107190476D01*
X133309523Y-107095238D01*
X133404761Y-107000000D01*
X133547619Y-106952380D01*
X133642857Y-106952380D01*
X133785714Y-107000000D01*
X133833333Y-107047619D01*
X134738095Y-106952380D02*
X134261904Y-106952380D01*
X134214285Y-107428571D01*
X134261904Y-107380952D01*
X134357142Y-107333333D01*
X134595238Y-107333333D01*
X134690476Y-107380952D01*
X134738095Y-107428571D01*
X134785714Y-107523809D01*
X134785714Y-107761904D01*
X134738095Y-107857142D01*
X134690476Y-107904761D01*
X134595238Y-107952380D01*
X134357142Y-107952380D01*
X134261904Y-107904761D01*
X134214285Y-107857142D01*
%TO.C,C18*%
X128357142Y-84357142D02*
X128309523Y-84404761D01*
X128166666Y-84452380D01*
X128071428Y-84452380D01*
X127928571Y-84404761D01*
X127833333Y-84309523D01*
X127785714Y-84214285D01*
X127738095Y-84023809D01*
X127738095Y-83880952D01*
X127785714Y-83690476D01*
X127833333Y-83595238D01*
X127928571Y-83500000D01*
X128071428Y-83452380D01*
X128166666Y-83452380D01*
X128309523Y-83500000D01*
X128357142Y-83547619D01*
X129309523Y-84452380D02*
X128738095Y-84452380D01*
X129023809Y-84452380D02*
X129023809Y-83452380D01*
X128928571Y-83595238D01*
X128833333Y-83690476D01*
X128738095Y-83738095D01*
X129880952Y-83880952D02*
X129785714Y-83833333D01*
X129738095Y-83785714D01*
X129690476Y-83690476D01*
X129690476Y-83642857D01*
X129738095Y-83547619D01*
X129785714Y-83500000D01*
X129880952Y-83452380D01*
X130071428Y-83452380D01*
X130166666Y-83500000D01*
X130214285Y-83547619D01*
X130261904Y-83642857D01*
X130261904Y-83690476D01*
X130214285Y-83785714D01*
X130166666Y-83833333D01*
X130071428Y-83880952D01*
X129880952Y-83880952D01*
X129785714Y-83928571D01*
X129738095Y-83976190D01*
X129690476Y-84071428D01*
X129690476Y-84261904D01*
X129738095Y-84357142D01*
X129785714Y-84404761D01*
X129880952Y-84452380D01*
X130071428Y-84452380D01*
X130166666Y-84404761D01*
X130214285Y-84357142D01*
X130261904Y-84261904D01*
X130261904Y-84071428D01*
X130214285Y-83976190D01*
X130166666Y-83928571D01*
X130071428Y-83880952D01*
%TO.C,C10*%
X128357142Y-88357142D02*
X128309523Y-88404761D01*
X128166666Y-88452380D01*
X128071428Y-88452380D01*
X127928571Y-88404761D01*
X127833333Y-88309523D01*
X127785714Y-88214285D01*
X127738095Y-88023809D01*
X127738095Y-87880952D01*
X127785714Y-87690476D01*
X127833333Y-87595238D01*
X127928571Y-87500000D01*
X128071428Y-87452380D01*
X128166666Y-87452380D01*
X128309523Y-87500000D01*
X128357142Y-87547619D01*
X129309523Y-88452380D02*
X128738095Y-88452380D01*
X129023809Y-88452380D02*
X129023809Y-87452380D01*
X128928571Y-87595238D01*
X128833333Y-87690476D01*
X128738095Y-87738095D01*
X129928571Y-87452380D02*
X130023809Y-87452380D01*
X130119047Y-87500000D01*
X130166666Y-87547619D01*
X130214285Y-87642857D01*
X130261904Y-87833333D01*
X130261904Y-88071428D01*
X130214285Y-88261904D01*
X130166666Y-88357142D01*
X130119047Y-88404761D01*
X130023809Y-88452380D01*
X129928571Y-88452380D01*
X129833333Y-88404761D01*
X129785714Y-88357142D01*
X129738095Y-88261904D01*
X129690476Y-88071428D01*
X129690476Y-87833333D01*
X129738095Y-87642857D01*
X129785714Y-87547619D01*
X129833333Y-87500000D01*
X129928571Y-87452380D01*
%TO.C,C19*%
X143857142Y-84357142D02*
X143809523Y-84404761D01*
X143666666Y-84452380D01*
X143571428Y-84452380D01*
X143428571Y-84404761D01*
X143333333Y-84309523D01*
X143285714Y-84214285D01*
X143238095Y-84023809D01*
X143238095Y-83880952D01*
X143285714Y-83690476D01*
X143333333Y-83595238D01*
X143428571Y-83500000D01*
X143571428Y-83452380D01*
X143666666Y-83452380D01*
X143809523Y-83500000D01*
X143857142Y-83547619D01*
X144809523Y-84452380D02*
X144238095Y-84452380D01*
X144523809Y-84452380D02*
X144523809Y-83452380D01*
X144428571Y-83595238D01*
X144333333Y-83690476D01*
X144238095Y-83738095D01*
X145285714Y-84452380D02*
X145476190Y-84452380D01*
X145571428Y-84404761D01*
X145619047Y-84357142D01*
X145714285Y-84214285D01*
X145761904Y-84023809D01*
X145761904Y-83642857D01*
X145714285Y-83547619D01*
X145666666Y-83500000D01*
X145571428Y-83452380D01*
X145380952Y-83452380D01*
X145285714Y-83500000D01*
X145238095Y-83547619D01*
X145190476Y-83642857D01*
X145190476Y-83880952D01*
X145238095Y-83976190D01*
X145285714Y-84023809D01*
X145380952Y-84071428D01*
X145571428Y-84071428D01*
X145666666Y-84023809D01*
X145714285Y-83976190D01*
X145761904Y-83880952D01*
%TO.C,C11*%
X143857142Y-88357142D02*
X143809523Y-88404761D01*
X143666666Y-88452380D01*
X143571428Y-88452380D01*
X143428571Y-88404761D01*
X143333333Y-88309523D01*
X143285714Y-88214285D01*
X143238095Y-88023809D01*
X143238095Y-87880952D01*
X143285714Y-87690476D01*
X143333333Y-87595238D01*
X143428571Y-87500000D01*
X143571428Y-87452380D01*
X143666666Y-87452380D01*
X143809523Y-87500000D01*
X143857142Y-87547619D01*
X144809523Y-88452380D02*
X144238095Y-88452380D01*
X144523809Y-88452380D02*
X144523809Y-87452380D01*
X144428571Y-87595238D01*
X144333333Y-87690476D01*
X144238095Y-87738095D01*
X145761904Y-88452380D02*
X145190476Y-88452380D01*
X145476190Y-88452380D02*
X145476190Y-87452380D01*
X145380952Y-87595238D01*
X145285714Y-87690476D01*
X145190476Y-87738095D01*
%TO.C,C21*%
X140357142Y-109357142D02*
X140309523Y-109404761D01*
X140166666Y-109452380D01*
X140071428Y-109452380D01*
X139928571Y-109404761D01*
X139833333Y-109309523D01*
X139785714Y-109214285D01*
X139738095Y-109023809D01*
X139738095Y-108880952D01*
X139785714Y-108690476D01*
X139833333Y-108595238D01*
X139928571Y-108500000D01*
X140071428Y-108452380D01*
X140166666Y-108452380D01*
X140309523Y-108500000D01*
X140357142Y-108547619D01*
X140738095Y-108547619D02*
X140785714Y-108500000D01*
X140880952Y-108452380D01*
X141119047Y-108452380D01*
X141214285Y-108500000D01*
X141261904Y-108547619D01*
X141309523Y-108642857D01*
X141309523Y-108738095D01*
X141261904Y-108880952D01*
X140690476Y-109452380D01*
X141309523Y-109452380D01*
X142261904Y-109452380D02*
X141690476Y-109452380D01*
X141976190Y-109452380D02*
X141976190Y-108452380D01*
X141880952Y-108595238D01*
X141785714Y-108690476D01*
X141690476Y-108738095D01*
%TO.C,C4*%
X129333333Y-107857142D02*
X129285714Y-107904761D01*
X129142857Y-107952380D01*
X129047619Y-107952380D01*
X128904761Y-107904761D01*
X128809523Y-107809523D01*
X128761904Y-107714285D01*
X128714285Y-107523809D01*
X128714285Y-107380952D01*
X128761904Y-107190476D01*
X128809523Y-107095238D01*
X128904761Y-107000000D01*
X129047619Y-106952380D01*
X129142857Y-106952380D01*
X129285714Y-107000000D01*
X129333333Y-107047619D01*
X130190476Y-107285714D02*
X130190476Y-107952380D01*
X129952380Y-106904761D02*
X129714285Y-107619047D01*
X130333333Y-107619047D01*
%TO.C,C15*%
X143857142Y-86357142D02*
X143809523Y-86404761D01*
X143666666Y-86452380D01*
X143571428Y-86452380D01*
X143428571Y-86404761D01*
X143333333Y-86309523D01*
X143285714Y-86214285D01*
X143238095Y-86023809D01*
X143238095Y-85880952D01*
X143285714Y-85690476D01*
X143333333Y-85595238D01*
X143428571Y-85500000D01*
X143571428Y-85452380D01*
X143666666Y-85452380D01*
X143809523Y-85500000D01*
X143857142Y-85547619D01*
X144809523Y-86452380D02*
X144238095Y-86452380D01*
X144523809Y-86452380D02*
X144523809Y-85452380D01*
X144428571Y-85595238D01*
X144333333Y-85690476D01*
X144238095Y-85738095D01*
X145714285Y-85452380D02*
X145238095Y-85452380D01*
X145190476Y-85928571D01*
X145238095Y-85880952D01*
X145333333Y-85833333D01*
X145571428Y-85833333D01*
X145666666Y-85880952D01*
X145714285Y-85928571D01*
X145761904Y-86023809D01*
X145761904Y-86261904D01*
X145714285Y-86357142D01*
X145666666Y-86404761D01*
X145571428Y-86452380D01*
X145333333Y-86452380D01*
X145238095Y-86404761D01*
X145190476Y-86357142D01*
%TO.C,C20*%
X147357142Y-84357142D02*
X147309523Y-84404761D01*
X147166666Y-84452380D01*
X147071428Y-84452380D01*
X146928571Y-84404761D01*
X146833333Y-84309523D01*
X146785714Y-84214285D01*
X146738095Y-84023809D01*
X146738095Y-83880952D01*
X146785714Y-83690476D01*
X146833333Y-83595238D01*
X146928571Y-83500000D01*
X147071428Y-83452380D01*
X147166666Y-83452380D01*
X147309523Y-83500000D01*
X147357142Y-83547619D01*
X147738095Y-83547619D02*
X147785714Y-83500000D01*
X147880952Y-83452380D01*
X148119047Y-83452380D01*
X148214285Y-83500000D01*
X148261904Y-83547619D01*
X148309523Y-83642857D01*
X148309523Y-83738095D01*
X148261904Y-83880952D01*
X147690476Y-84452380D01*
X148309523Y-84452380D01*
X148928571Y-83452380D02*
X149023809Y-83452380D01*
X149119047Y-83500000D01*
X149166666Y-83547619D01*
X149214285Y-83642857D01*
X149261904Y-83833333D01*
X149261904Y-84071428D01*
X149214285Y-84261904D01*
X149166666Y-84357142D01*
X149119047Y-84404761D01*
X149023809Y-84452380D01*
X148928571Y-84452380D01*
X148833333Y-84404761D01*
X148785714Y-84357142D01*
X148738095Y-84261904D01*
X148690476Y-84071428D01*
X148690476Y-83833333D01*
X148738095Y-83642857D01*
X148785714Y-83547619D01*
X148833333Y-83500000D01*
X148928571Y-83452380D01*
%TO.C,U1*%
X141238095Y-95452380D02*
X141238095Y-96261904D01*
X141285714Y-96357142D01*
X141333333Y-96404761D01*
X141428571Y-96452380D01*
X141619047Y-96452380D01*
X141714285Y-96404761D01*
X141761904Y-96357142D01*
X141809523Y-96261904D01*
X141809523Y-95452380D01*
X142809523Y-96452380D02*
X142238095Y-96452380D01*
X142523809Y-96452380D02*
X142523809Y-95452380D01*
X142428571Y-95595238D01*
X142333333Y-95690476D01*
X142238095Y-95738095D01*
%TO.C,C6*%
X137333333Y-107857142D02*
X137285714Y-107904761D01*
X137142857Y-107952380D01*
X137047619Y-107952380D01*
X136904761Y-107904761D01*
X136809523Y-107809523D01*
X136761904Y-107714285D01*
X136714285Y-107523809D01*
X136714285Y-107380952D01*
X136761904Y-107190476D01*
X136809523Y-107095238D01*
X136904761Y-107000000D01*
X137047619Y-106952380D01*
X137142857Y-106952380D01*
X137285714Y-107000000D01*
X137333333Y-107047619D01*
X138190476Y-106952380D02*
X138000000Y-106952380D01*
X137904761Y-107000000D01*
X137857142Y-107047619D01*
X137761904Y-107190476D01*
X137714285Y-107380952D01*
X137714285Y-107761904D01*
X137761904Y-107857142D01*
X137809523Y-107904761D01*
X137904761Y-107952380D01*
X138095238Y-107952380D01*
X138190476Y-107904761D01*
X138238095Y-107857142D01*
X138285714Y-107761904D01*
X138285714Y-107523809D01*
X138238095Y-107428571D01*
X138190476Y-107380952D01*
X138095238Y-107333333D01*
X137904761Y-107333333D01*
X137809523Y-107380952D01*
X137761904Y-107428571D01*
X137714285Y-107523809D01*
%TO.C,C8*%
X133833333Y-109357142D02*
X133785714Y-109404761D01*
X133642857Y-109452380D01*
X133547619Y-109452380D01*
X133404761Y-109404761D01*
X133309523Y-109309523D01*
X133261904Y-109214285D01*
X133214285Y-109023809D01*
X133214285Y-108880952D01*
X133261904Y-108690476D01*
X133309523Y-108595238D01*
X133404761Y-108500000D01*
X133547619Y-108452380D01*
X133642857Y-108452380D01*
X133785714Y-108500000D01*
X133833333Y-108547619D01*
X134404761Y-108880952D02*
X134309523Y-108833333D01*
X134261904Y-108785714D01*
X134214285Y-108690476D01*
X134214285Y-108642857D01*
X134261904Y-108547619D01*
X134309523Y-108500000D01*
X134404761Y-108452380D01*
X134595238Y-108452380D01*
X134690476Y-108500000D01*
X134738095Y-108547619D01*
X134785714Y-108642857D01*
X134785714Y-108690476D01*
X134738095Y-108785714D01*
X134690476Y-108833333D01*
X134595238Y-108880952D01*
X134404761Y-108880952D01*
X134309523Y-108928571D01*
X134261904Y-108976190D01*
X134214285Y-109071428D01*
X134214285Y-109261904D01*
X134261904Y-109357142D01*
X134309523Y-109404761D01*
X134404761Y-109452380D01*
X134595238Y-109452380D01*
X134690476Y-109404761D01*
X134738095Y-109357142D01*
X134785714Y-109261904D01*
X134785714Y-109071428D01*
X134738095Y-108976190D01*
X134690476Y-108928571D01*
X134595238Y-108880952D01*
%TO.C,C2*%
X133840585Y-106357142D02*
X133792966Y-106404761D01*
X133650109Y-106452380D01*
X133554871Y-106452380D01*
X133412013Y-106404761D01*
X133316775Y-106309523D01*
X133269156Y-106214285D01*
X133221537Y-106023809D01*
X133221537Y-105880952D01*
X133269156Y-105690476D01*
X133316775Y-105595238D01*
X133412013Y-105500000D01*
X133554871Y-105452380D01*
X133650109Y-105452380D01*
X133792966Y-105500000D01*
X133840585Y-105547619D01*
X134221537Y-105547619D02*
X134269156Y-105500000D01*
X134364394Y-105452380D01*
X134602490Y-105452380D01*
X134697728Y-105500000D01*
X134745347Y-105547619D01*
X134792966Y-105642857D01*
X134792966Y-105738095D01*
X134745347Y-105880952D01*
X134173918Y-106452380D01*
X134792966Y-106452380D01*
%TO.C,C13*%
X140357142Y-106357142D02*
X140309523Y-106404761D01*
X140166666Y-106452380D01*
X140071428Y-106452380D01*
X139928571Y-106404761D01*
X139833333Y-106309523D01*
X139785714Y-106214285D01*
X139738095Y-106023809D01*
X139738095Y-105880952D01*
X139785714Y-105690476D01*
X139833333Y-105595238D01*
X139928571Y-105500000D01*
X140071428Y-105452380D01*
X140166666Y-105452380D01*
X140309523Y-105500000D01*
X140357142Y-105547619D01*
X141309523Y-106452380D02*
X140738095Y-106452380D01*
X141023809Y-106452380D02*
X141023809Y-105452380D01*
X140928571Y-105595238D01*
X140833333Y-105690476D01*
X140738095Y-105738095D01*
X141642857Y-105452380D02*
X142261904Y-105452380D01*
X141928571Y-105833333D01*
X142071428Y-105833333D01*
X142166666Y-105880952D01*
X142214285Y-105928571D01*
X142261904Y-106023809D01*
X142261904Y-106261904D01*
X142214285Y-106357142D01*
X142166666Y-106404761D01*
X142071428Y-106452380D01*
X141785714Y-106452380D01*
X141690476Y-106404761D01*
X141642857Y-106357142D01*
%TO.C,C12*%
X147357142Y-88357142D02*
X147309523Y-88404761D01*
X147166666Y-88452380D01*
X147071428Y-88452380D01*
X146928571Y-88404761D01*
X146833333Y-88309523D01*
X146785714Y-88214285D01*
X146738095Y-88023809D01*
X146738095Y-87880952D01*
X146785714Y-87690476D01*
X146833333Y-87595238D01*
X146928571Y-87500000D01*
X147071428Y-87452380D01*
X147166666Y-87452380D01*
X147309523Y-87500000D01*
X147357142Y-87547619D01*
X148309523Y-88452380D02*
X147738095Y-88452380D01*
X148023809Y-88452380D02*
X148023809Y-87452380D01*
X147928571Y-87595238D01*
X147833333Y-87690476D01*
X147738095Y-87738095D01*
X148690476Y-87547619D02*
X148738095Y-87500000D01*
X148833333Y-87452380D01*
X149071428Y-87452380D01*
X149166666Y-87500000D01*
X149214285Y-87547619D01*
X149261904Y-87642857D01*
X149261904Y-87738095D01*
X149214285Y-87880952D01*
X148642857Y-88452380D01*
X149261904Y-88452380D01*
%TO.C,C17*%
X140357142Y-107857142D02*
X140309523Y-107904761D01*
X140166666Y-107952380D01*
X140071428Y-107952380D01*
X139928571Y-107904761D01*
X139833333Y-107809523D01*
X139785714Y-107714285D01*
X139738095Y-107523809D01*
X139738095Y-107380952D01*
X139785714Y-107190476D01*
X139833333Y-107095238D01*
X139928571Y-107000000D01*
X140071428Y-106952380D01*
X140166666Y-106952380D01*
X140309523Y-107000000D01*
X140357142Y-107047619D01*
X141309523Y-107952380D02*
X140738095Y-107952380D01*
X141023809Y-107952380D02*
X141023809Y-106952380D01*
X140928571Y-107095238D01*
X140833333Y-107190476D01*
X140738095Y-107238095D01*
X141642857Y-106952380D02*
X142309523Y-106952380D01*
X141880952Y-107952380D01*
%TO.C,C14*%
X128357142Y-86357142D02*
X128309523Y-86404761D01*
X128166666Y-86452380D01*
X128071428Y-86452380D01*
X127928571Y-86404761D01*
X127833333Y-86309523D01*
X127785714Y-86214285D01*
X127738095Y-86023809D01*
X127738095Y-85880952D01*
X127785714Y-85690476D01*
X127833333Y-85595238D01*
X127928571Y-85500000D01*
X128071428Y-85452380D01*
X128166666Y-85452380D01*
X128309523Y-85500000D01*
X128357142Y-85547619D01*
X129309523Y-86452380D02*
X128738095Y-86452380D01*
X129023809Y-86452380D02*
X129023809Y-85452380D01*
X128928571Y-85595238D01*
X128833333Y-85690476D01*
X128738095Y-85738095D01*
X130166666Y-85785714D02*
X130166666Y-86452380D01*
X129928571Y-85404761D02*
X129690476Y-86119047D01*
X130309523Y-86119047D01*
%TO.C,C9*%
X137333333Y-109357142D02*
X137285714Y-109404761D01*
X137142857Y-109452380D01*
X137047619Y-109452380D01*
X136904761Y-109404761D01*
X136809523Y-109309523D01*
X136761904Y-109214285D01*
X136714285Y-109023809D01*
X136714285Y-108880952D01*
X136761904Y-108690476D01*
X136809523Y-108595238D01*
X136904761Y-108500000D01*
X137047619Y-108452380D01*
X137142857Y-108452380D01*
X137285714Y-108500000D01*
X137333333Y-108547619D01*
X137809523Y-109452380D02*
X138000000Y-109452380D01*
X138095238Y-109404761D01*
X138142857Y-109357142D01*
X138238095Y-109214285D01*
X138285714Y-109023809D01*
X138285714Y-108642857D01*
X138238095Y-108547619D01*
X138190476Y-108500000D01*
X138095238Y-108452380D01*
X137904761Y-108452380D01*
X137809523Y-108500000D01*
X137761904Y-108547619D01*
X137714285Y-108642857D01*
X137714285Y-108880952D01*
X137761904Y-108976190D01*
X137809523Y-109023809D01*
X137904761Y-109071428D01*
X138095238Y-109071428D01*
X138190476Y-109023809D01*
X138238095Y-108976190D01*
X138285714Y-108880952D01*
D12*
%TO.C,C16*%
X140665580Y-86520000D02*
X140384420Y-86520000D01*
X140665580Y-85500000D02*
X140384420Y-85500000D01*
%TO.C,C3*%
X136921836Y-99132000D02*
X136706164Y-99132000D01*
X136921836Y-98412000D02*
X136706164Y-98412000D01*
%TO.C,C7*%
X129506748Y-102073000D02*
X130029252Y-102073000D01*
X129506748Y-103543000D02*
X130029252Y-103543000D01*
%TO.C,C1*%
X130102164Y-99168000D02*
X130317836Y-99168000D01*
X130102164Y-98448000D02*
X130317836Y-98448000D01*
%TO.C,C5*%
X133855420Y-100048000D02*
X134136580Y-100048000D01*
X133855420Y-101068000D02*
X134136580Y-101068000D01*
%TO.C,C18*%
X132463748Y-84485000D02*
X132986252Y-84485000D01*
X132463748Y-83015000D02*
X132986252Y-83015000D01*
D11*
%TO.C,J2*%
X159160000Y-93000000D02*
G75*
G03*
X159160000Y-93000000I-100000J0D01*
G01*
D12*
%TO.C,C10*%
X133407164Y-87390000D02*
X133622836Y-87390000D01*
X133407164Y-88110000D02*
X133622836Y-88110000D01*
%TO.C,J3*%
X111210000Y-77715000D02*
X112700000Y-77715000D01*
X110760000Y-81235000D02*
X111210000Y-81235000D01*
X106790000Y-81235000D02*
X107240000Y-81235000D01*
X111210000Y-81235000D02*
X111210000Y-80285000D01*
X106790000Y-76765000D02*
X106790000Y-81235000D01*
X110760000Y-76765000D02*
X111210000Y-76765000D01*
X107240000Y-76765000D02*
X106790000Y-76765000D01*
X111210000Y-76765000D02*
X111210000Y-77715000D01*
D11*
%TO.C,J1*%
X112857500Y-93250000D02*
G75*
G03*
X112857500Y-93250000I-100000J0D01*
G01*
D12*
%TO.C,J4*%
X106790000Y-104765000D02*
X106790000Y-109235000D01*
X110760000Y-104765000D02*
X111210000Y-104765000D01*
X111210000Y-109235000D02*
X111210000Y-108285000D01*
X107240000Y-104765000D02*
X106790000Y-104765000D01*
X110760000Y-109235000D02*
X111210000Y-109235000D01*
X111210000Y-105715000D02*
X112700000Y-105715000D01*
X106790000Y-109235000D02*
X107240000Y-109235000D01*
X111210000Y-104765000D02*
X111210000Y-105715000D01*
%TO.C,C19*%
X136473748Y-83005000D02*
X136996252Y-83005000D01*
X136473748Y-84475000D02*
X136996252Y-84475000D01*
%TO.C,C11*%
X137417164Y-87380000D02*
X137632836Y-87380000D01*
X137417164Y-88100000D02*
X137632836Y-88100000D01*
%TO.C,C21*%
X141339252Y-102073000D02*
X140816748Y-102073000D01*
X141339252Y-103543000D02*
X140816748Y-103543000D01*
%TO.C,C4*%
X129815420Y-100012000D02*
X130096580Y-100012000D01*
X129815420Y-101032000D02*
X130096580Y-101032000D01*
%TO.C,C15*%
X136814420Y-85490000D02*
X137095580Y-85490000D01*
X136814420Y-86510000D02*
X137095580Y-86510000D01*
%TO.C,C20*%
X141006252Y-84485000D02*
X140483748Y-84485000D01*
X141006252Y-83015000D02*
X140483748Y-83015000D01*
D13*
%TO.C,U1*%
X134288000Y-90400000D02*
G75*
G03*
X134288000Y-90400000I-162500J0D01*
G01*
D12*
%TO.C,C6*%
X137335580Y-100012000D02*
X137054420Y-100012000D01*
X137335580Y-101032000D02*
X137054420Y-101032000D01*
%TO.C,C8*%
X133484748Y-103543000D02*
X134007252Y-103543000D01*
X133484748Y-102073000D02*
X134007252Y-102073000D01*
%TO.C,C2*%
X134138164Y-98448000D02*
X134353836Y-98448000D01*
X134138164Y-99168000D02*
X134353836Y-99168000D01*
%TO.C,C13*%
X140685836Y-98448000D02*
X140470164Y-98448000D01*
X140685836Y-99168000D02*
X140470164Y-99168000D01*
%TO.C,J6*%
X160790000Y-76765000D02*
X160790000Y-77715000D01*
X164760000Y-81235000D02*
X165210000Y-81235000D01*
X161240000Y-81235000D02*
X160790000Y-81235000D01*
X160790000Y-81235000D02*
X160790000Y-80285000D01*
X160790000Y-80285000D02*
X159300000Y-80285000D01*
X165210000Y-76765000D02*
X164760000Y-76765000D01*
X165210000Y-81235000D02*
X165210000Y-76765000D01*
X161240000Y-76765000D02*
X160790000Y-76765000D01*
%TO.C,C12*%
X140062836Y-88110000D02*
X139847164Y-88110000D01*
X140062836Y-87390000D02*
X139847164Y-87390000D01*
%TO.C,C17*%
X140968580Y-100038000D02*
X140687420Y-100038000D01*
X140968580Y-101058000D02*
X140687420Y-101058000D01*
%TO.C,C14*%
X132804420Y-86520000D02*
X133085580Y-86520000D01*
X132804420Y-85500000D02*
X133085580Y-85500000D01*
%TO.C,C9*%
X137583252Y-102037000D02*
X137060748Y-102037000D01*
X137583252Y-103507000D02*
X137060748Y-103507000D01*
%TO.C,J5*%
X165210000Y-104765000D02*
X164760000Y-104765000D01*
X165210000Y-109235000D02*
X165210000Y-104765000D01*
X160790000Y-104765000D02*
X160790000Y-105715000D01*
X160790000Y-109235000D02*
X160790000Y-108285000D01*
X161240000Y-109235000D02*
X160790000Y-109235000D01*
X161240000Y-104765000D02*
X160790000Y-104765000D01*
X160790000Y-108285000D02*
X159300000Y-108285000D01*
X164760000Y-109235000D02*
X165210000Y-109235000D01*
%TD*%
M02*
