M48
; DRILL file {KiCad (6.0.1)} date Tue Mar 22 15:33:09 2022
; FORMAT={-:-/ absolute / metric / decimal}
; #@! TF.CreationDate,2022-03-22T15:33:09+01:00
; #@! TF.GenerationSoftware,Kicad,Pcbnew,(6.0.1)
; #@! TF.FileFunction,Plated,1,2,PTH
FMAT,2
METRIC
; #@! TA.AperFunction,Plated,PTH,ViaDrill
T1C0.305
; #@! TA.AperFunction,Plated,PTH,ViaDrill
T2C0.400
%
G90
G05
T1
X0.759Y44.323
X0.759Y43.434
X0.759Y42.545
X0.759Y41.656
X0.759Y27.432
X0.759Y26.543
X0.759Y25.654
X0.759Y23.876
X0.759Y22.987
X0.759Y20.32
X0.759Y19.431
X0.759Y18.542
X0.759Y17.653
X0.759Y16.764
X0.759Y15.875
X0.759Y14.986
X0.762Y40.767
X0.762Y39.878
X0.762Y38.989
X0.762Y38.1
X0.762Y37.211
X0.762Y36.322
X0.762Y35.433
X0.762Y34.544
X0.762Y33.655
X0.762Y32.766
X0.762Y31.877
X0.762Y30.988
X0.762Y30.099
X0.762Y29.21
X0.762Y28.321
X0.762Y14.097
X0.762Y13.208
X0.762Y12.319
X0.762Y11.43
X0.762Y10.541
X0.762Y9.652
X0.762Y8.763
X0.762Y7.874
X0.762Y6.985
X0.762Y6.096
X0.762Y5.207
X0.762Y4.318
X0.762Y3.429
X0.762Y2.54
X0.762Y1.651
X0.762Y0.762
X1.524Y23.241
X1.524Y20.32
X1.639Y44.324
X1.651Y0.762
X2.413Y23.241
X2.413Y20.32
X2.528Y44.324
X2.54Y0.762
X3.302Y23.241
X3.302Y20.32
X3.417Y44.324
X3.429Y0.762
X4.191Y23.241
X4.191Y20.32
X4.306Y44.324
X4.318Y0.762
X5.0Y40.0
X5.0Y35.0
X5.0Y30.0
X5.0Y25.0
X5.0Y15.0
X5.0Y10.0
X5.0Y5.0
X5.08Y23.241
X5.08Y20.32
X5.195Y44.324
X5.207Y0.762
X5.969Y23.241
X5.969Y20.32
X6.084Y44.324
X6.096Y0.762
X6.858Y22.86
X6.858Y20.574
X6.973Y44.324
X6.985Y0.762
X7.747Y22.86
X7.747Y20.574
X7.862Y44.324
X7.874Y0.762
X8.636Y22.86
X8.636Y20.574
X8.751Y44.324
X8.763Y0.762
X9.525Y22.86
X9.525Y20.574
X9.64Y44.324
X9.652Y0.762
X9.975Y40.025
X9.975Y35.025
X9.975Y30.025
X9.975Y25.025
X9.975Y15.025
X9.975Y10.025
X9.975Y5.025
X10.414Y22.86
X10.414Y20.574
X10.529Y44.324
X10.541Y0.762
X11.303Y22.86
X11.303Y20.574
X11.418Y44.324
X11.43Y0.762
X12.192Y22.86
X12.192Y20.574
X12.307Y44.324
X12.319Y0.762
X13.081Y22.86
X13.081Y20.574
X13.196Y44.324
X13.208Y0.762
X13.97Y22.86
X13.97Y20.574
X14.085Y44.324
X14.097Y0.762
X14.859Y22.86
X14.859Y20.574
X14.974Y44.328
X14.986Y0.765
X15.0Y40.0
X15.0Y35.0
X15.0Y30.0
X15.0Y25.0
X15.0Y15.0
X15.0Y10.0
X15.0Y5.0
X15.748Y22.86
X15.748Y20.574
X15.863Y44.328
X15.875Y0.765
X16.637Y22.86
X16.637Y20.574
X16.752Y44.328
X16.764Y0.765
X17.526Y22.86
X17.526Y20.574
X17.641Y44.328
X17.653Y0.765
X18.415Y22.86
X18.415Y20.574
X18.53Y44.328
X18.542Y0.765
X19.304Y22.86
X19.304Y20.574
X19.419Y44.328
X19.431Y0.765
X20.0Y40.0
X20.0Y35.0
X20.0Y30.0
X20.0Y25.0
X20.0Y15.0
X20.0Y5.0
X20.193Y22.86
X20.193Y20.574
X20.308Y44.328
X20.32Y0.765
X21.197Y44.328
X21.209Y0.765
X21.971Y22.86
X21.971Y20.574
X22.086Y44.328
X22.098Y0.765
X22.86Y22.86
X22.86Y20.574
X22.975Y44.328
X22.987Y0.765
X23.749Y22.86
X23.749Y20.574
X23.864Y44.328
X23.876Y0.765
X24.638Y22.86
X24.638Y20.574
X24.753Y44.328
X24.765Y0.765
X25.0Y40.0
X25.0Y30.0
X25.0Y25.0
X25.0Y10.0
X25.0Y5.0
X25.527Y22.86
X25.527Y20.574
X25.642Y44.328
X25.654Y0.765
X25.734Y15.494
X25.734Y14.478
X25.734Y13.462
X26.416Y22.86
X26.416Y20.574
X26.496Y16.51
X26.531Y44.328
X26.543Y0.765
X27.305Y22.86
X27.305Y20.574
X27.42Y44.328
X27.432Y0.765
X27.512Y17.526
X28.309Y44.324
X28.321Y0.762
X28.655Y31.242
X28.782Y33.02
X28.782Y28.956
X29.036Y27.305
X29.198Y44.324
X29.21Y0.762
X29.798Y23.114
X29.798Y21.971
X29.798Y20.828
X29.925Y27.305
X30.0Y40.0
X30.0Y5.0
X30.087Y44.324
X30.099Y0.762
X30.433Y22.606
X30.433Y21.463
X30.976Y44.324
X30.988Y0.762
X31.068Y23.114
X31.068Y21.971
X31.068Y20.828
X31.322Y17.526
X31.703Y22.606
X31.703Y21.463
X31.865Y44.324
X31.877Y0.762
X32.211Y23.114
X32.211Y21.971
X32.211Y20.828
X32.592Y16.764
X32.754Y44.324
X32.766Y0.762
X32.846Y15.748
X33.1Y14.478
X33.1Y13.462
X33.6Y18.2
X33.643Y44.324
X33.655Y0.762
X34.532Y44.324
X34.544Y23.368
X34.544Y21.209
X34.544Y0.762
X35.0Y40.0
X35.0Y25.0
X35.0Y10.0
X35.0Y5.0
X35.306Y22.987
X35.306Y20.955
X35.421Y44.324
X35.433Y0.762
X36.195Y22.987
X36.195Y20.955
X36.31Y44.324
X36.322Y0.762
X37.084Y22.987
X37.084Y20.955
X37.199Y44.324
X37.211Y0.762
X37.973Y22.987
X37.973Y20.955
X38.088Y44.324
X38.1Y0.762
X38.862Y22.987
X38.862Y20.955
X38.977Y44.324
X38.989Y0.762
X39.751Y22.987
X39.751Y20.955
X39.866Y44.324
X39.878Y0.762
X40.0Y40.0
X40.0Y35.0
X40.0Y30.0
X40.0Y25.0
X40.0Y15.0
X40.0Y5.0
X40.64Y22.987
X40.64Y20.955
X40.755Y44.324
X40.767Y0.762
X41.529Y22.987
X41.529Y20.955
X41.644Y44.328
X41.656Y0.765
X42.418Y22.987
X42.418Y20.955
X42.533Y44.328
X42.545Y0.765
X43.307Y22.987
X43.307Y20.955
X43.422Y44.328
X43.434Y0.765
X44.196Y22.987
X44.196Y20.955
X44.311Y44.328
X44.323Y0.765
X45.0Y40.0
X45.0Y35.0
X45.0Y30.0
X45.0Y25.0
X45.0Y15.0
X45.0Y10.0
X45.0Y5.0
X45.085Y22.987
X45.085Y20.955
X45.2Y44.328
X45.212Y0.765
X45.974Y22.987
X45.974Y20.955
X46.089Y44.328
X46.101Y0.765
X46.863Y22.987
X46.863Y20.955
X46.978Y44.328
X46.99Y0.765
X47.752Y22.987
X47.752Y20.955
X47.867Y44.328
X47.879Y0.765
X48.641Y22.987
X48.641Y20.955
X48.756Y44.328
X48.768Y0.765
X49.53Y22.987
X49.53Y20.955
X49.645Y44.328
X49.657Y0.765
X50.0Y40.0
X50.0Y35.0
X50.0Y30.0
X50.0Y25.0
X50.0Y15.0
X50.0Y10.0
X50.0Y5.0
X50.419Y22.987
X50.419Y20.955
X50.534Y44.328
X50.546Y0.765
X51.308Y22.987
X51.308Y20.955
X51.423Y44.328
X51.435Y0.765
X52.197Y22.987
X52.197Y20.955
X52.312Y44.328
X52.324Y0.765
X52.5Y35.4
X53.086Y22.987
X53.086Y20.955
X53.201Y44.328
X53.213Y0.765
X53.848Y23.368
X53.848Y20.574
X54.09Y44.328
X54.102Y0.765
X54.737Y23.368
X54.737Y20.574
X54.974Y44.329
X54.986Y0.767
X55.0Y40.0
X55.0Y30.0
X55.0Y15.0
X55.0Y10.0
X55.0Y5.0
X55.626Y23.368
X55.626Y20.574
X55.863Y44.329
X55.875Y0.767
X56.515Y23.368
X56.515Y20.574
X56.752Y44.329
X56.764Y0.767
X57.404Y23.368
X57.404Y20.574
X57.641Y44.329
X57.653Y0.767
X58.293Y23.368
X58.293Y20.574
X58.53Y44.329
X58.542Y0.767
X59.182Y23.368
X59.182Y20.574
X59.419Y44.329
X59.431Y0.767
X59.433Y43.434
X59.433Y42.545
X59.433Y41.656
X59.433Y27.432
X59.433Y26.543
X59.433Y25.654
X59.433Y24.765
X59.433Y19.431
X59.433Y18.542
X59.433Y17.653
X59.433Y16.764
X59.433Y15.875
X59.433Y14.986
X59.436Y40.767
X59.436Y39.878
X59.436Y38.989
X59.436Y38.1
X59.436Y37.211
X59.436Y36.322
X59.436Y35.433
X59.436Y34.544
X59.436Y33.655
X59.436Y32.766
X59.436Y31.877
X59.436Y30.988
X59.436Y30.099
X59.436Y29.21
X59.436Y28.321
X59.436Y14.097
X59.436Y13.208
X59.436Y12.319
X59.436Y11.43
X59.436Y10.541
X59.436Y9.652
X59.436Y8.763
X59.436Y7.874
X59.436Y6.985
X59.436Y6.096
X59.436Y5.207
X59.436Y4.318
X59.436Y3.429
X59.436Y2.54
X59.436Y1.651
T2
X26.5Y36.5
X34.128Y10.287
T0
M30
